<?xml version="1.0" encoding="UTF-8"?>
<svg width="550px" height="300px" viewBox="0 0 550 300" version="1.1" xmlns="http://www.w3.org/2000/svg" xmlns:xlink="http://www.w3.org/1999/xlink">
    <title>1</title>
    <g id="1" stroke="none" stroke-width="1" fill="none" fill-rule="evenodd">
        <path d="M185.988997,153.654964 C187.562364,153.654964 189.324535,153.969637 191.464314,154.661919 C193.541159,155.354201 195.555069,156.172352 197.44311,157.242241 C199.331151,158.312131 200.904518,159.444955 202.226146,160.766584 C203.547775,162.088212 204.177122,163.346906 204.177122,164.6056 C204.177122,167.437661 203.673644,170.395591 202.729624,173.605261 C201.785604,176.751995 200.463975,179.961664 198.953543,183.108399 C197.380175,186.255133 195.618004,189.275998 193.604094,192.108059 C191.590184,194.94012 189.576274,197.457508 187.562364,199.660222 C185.548454,201.862936 183.534544,203.625107 181.646503,204.946736 C179.758462,206.268364 178.059226,206.897711 176.611728,206.897711 C174.597818,206.897711 173.024451,206.394234 171.954561,205.450213 C170.884671,204.506193 170.381194,203.562173 170.381194,202.681087 C170.381194,201.925871 170.632932,201.233589 171.199345,200.667177 C171.765757,200.100765 172.646842,199.849026 173.905536,199.849026 C175.038361,199.849026 176.23412,199.345548 177.681618,198.338593 C179.066181,197.331638 180.513679,195.947075 182.024111,194.247839 C183.534544,192.548602 184.982041,190.534692 186.429539,188.269043 C187.877037,186.003394 189.198666,183.611876 190.457359,181.157423 C191.653119,178.70297 192.723008,176.185583 193.604094,173.605261 C194.48518,171.087873 195.051592,168.63342 195.366265,166.304837 C194.233441,166.116033 193.352355,166.053098 192.723008,166.053098 C188.569319,166.053098 184.163891,167.122988 179.506724,169.325702 C174.849557,171.528416 170.192389,174.423411 165.598157,178.136558 C161.003925,181.849705 156.598497,186.129264 152.381872,191.038169 C148.165248,195.947075 144.452102,201.10772 141.242432,206.457168 C138.032763,211.806617 135.452441,217.281935 133.5644,222.883122 C131.67636,228.48431 130.732339,233.770823 130.732339,238.868533 C130.732339,240.756574 131.172882,242.392876 131.991033,243.777439 C132.809184,245.162002 133.816139,246.294827 134.948963,247.175912 C136.081788,248.056998 137.340482,248.686345 138.66211,249.126888 C139.920804,249.315692 141.053628,249.504496 142.060583,249.504496 C146.780685,249.504496 151.311983,248.686345 155.528607,247.050043 C159.808166,245.413741 163.710117,243.211027 167.360328,240.56777 C171.01054,237.924513 174.346079,234.966583 177.366944,231.693979 C180.387809,228.421375 183.094001,225.211706 185.485519,222.064971 C187.877037,218.918237 189.890947,215.897372 191.527249,213.128245 C193.145279,210.390041 194.455624,208.144132 195.397435,206.512219 L195.469185,206.359964 L195.543269,206.179243 C195.638795,205.958561 195.742054,205.748404 195.853046,205.549294 C197.035135,203.06144 198.246078,200.54268 199.45702,198.02392 C201.030387,194.814251 202.54082,191.667516 203.988318,188.520782 C205.49875,185.374047 206.820379,182.479052 207.953203,179.77286 C209.086027,177.066668 210.030048,174.67515 210.785264,172.535371 C211.477546,170.395591 211.855154,168.759289 211.855154,167.500596 C211.855154,166.61951 212.484501,166.241902 213.743194,166.367771 C215.001888,166.493641 216.386451,166.934183 217.896884,167.626465 C219.407317,168.381681 220.79188,169.325702 222.050573,170.458526 C223.309267,171.59135 223.938614,172.724175 223.938614,173.919934 C223.938614,175.367432 223.498071,177.255473 222.67992,179.584056 C221.861769,181.91264 220.79188,184.555896 219.533186,187.450892 C218.274492,190.345888 216.826994,193.429688 215.127758,196.765226 C213.491456,200.100765 211.792219,203.436303 210.155917,206.771842 L209.463636,208.030536 L209.463636,208.09347 C211.099938,206.07956 212.799174,204.06565 214.498411,202.114675 C216.197647,200.163699 217.833949,198.401528 219.281447,196.828161 C220.79188,195.254794 222.113508,193.9961 223.309267,192.989145 C224.505026,191.98219 225.386112,191.415778 226.015459,191.352843 C226.70774,191.289908 227.462957,191.541647 228.406977,192.108059 C229.350997,192.674471 230.232083,193.366753 231.113169,194.247839 C231.994254,195.128924 232.749471,196.072945 233.378818,197.205769 C234.008164,198.338593 234.322838,199.408483 234.322838,200.541308 C234.322838,201.359459 233.882295,202.806956 232.938275,204.820866 C231.994254,206.834776 230.924365,209.16336 229.602736,211.869552 C228.658716,213.820527 227.714696,215.834437 226.644806,217.911282 C225.637851,219.988127 224.69383,222.064971 223.875679,224.015947 C223.057528,226.029857 222.365247,227.792028 221.798835,229.491265 C221.232423,231.127567 220.980684,232.449195 220.980684,233.45615 L220.980684,234.022562 C220.980684,234.148432 220.980684,234.211366 221.043618,234.211366 C221.861769,234.211366 222.931659,233.582019 224.316222,232.323326 C225.637851,231.064632 227.148283,229.42833 228.721651,227.41442 C230.295018,225.40051 231.93132,223.26073 233.630556,220.806277 C235.288443,218.472955 236.826512,216.199542 238.244762,213.927587 C238.858527,212.443622 239.577984,210.981457 240.427503,209.540968 C241.502425,207.635424 242.767013,205.767813 244.191817,203.997035 C244.316825,203.767708 244.424646,203.560592 244.518258,203.373369 C244.646444,203.074266 244.890673,202.862195 245.231246,202.756851 C245.30714,202.66819 245.384509,202.580087 245.462278,202.492283 C247.413253,200.289569 249.490098,198.275659 251.692812,196.639357 C253.958461,194.94012 256.287044,193.618492 258.678563,192.611537 C261.133016,191.604582 263.524534,191.101104 265.978987,191.101104 C268.055831,191.101104 269.880937,191.415778 271.328435,191.98219 C272.775933,192.548602 273.971692,193.303818 274.915712,194.184904 C275.859733,195.06599 276.552014,196.072945 277.055492,197.205769 C277.558969,198.338593 277.873643,199.345548 278.062447,200.415438 C278.251251,201.422393 278.314186,202.366414 278.251251,203.184564 C278.188316,204.002715 278.062447,204.569128 277.936578,204.946736 L277.999512,204.946736 C277.810708,205.387279 277.496035,205.576083 276.992557,205.576083 C276.48908,205.576083 275.922667,205.450213 275.41919,205.261409 C274.915712,205.072605 274.412235,204.820866 274.034627,204.506193 C273.594084,204.19152 273.468215,203.939781 273.468215,203.813911 C273.531149,203.688042 273.531149,203.373369 273.531149,202.932826 C273.531149,202.429348 273.342345,201.925871 273.027672,201.422393 C272.712998,200.918916 272.209521,200.415438 271.517239,200.03783 C270.824958,199.597287 269.818003,199.408483 268.559309,199.408483 C267.23768,199.408483 265.790183,199.974895 264.27975,201.170654 C262.769317,202.303479 261.258885,203.813911 259.748452,205.701952 C258.23802,207.527058 256.853457,209.666837 255.468893,211.995421 C254.08433,214.324005 252.888571,216.715523 251.881616,219.107041 C250.874661,221.498559 250.05651,223.827143 249.427163,226.029857 C248.797816,228.295506 248.483143,230.183546 248.483143,231.756913 C248.483143,233.770823 249.049555,234.714844 250.245314,234.714844 C251.629877,234.714844 253.014441,234.085497 254.461938,232.889738 C255.909436,231.693979 257.293999,230.120612 258.615628,228.232571 C259.937256,226.34453 261.19595,224.267685 262.391709,222.002037 C263.524534,219.736388 264.594423,217.596608 265.475509,215.519764 C266.356595,213.505854 267.048876,211.680748 267.552354,210.170315 C268.055831,208.596948 268.30757,207.589993 268.30757,207.086515 C268.30757,206.583038 268.559309,206.268364 269.125721,206.20543 C269.692133,206.07956 270.384415,206.142495 271.202566,206.394234 C272.020717,206.645972 272.901802,206.960646 273.908757,207.338254 C274.915712,207.778797 275.796798,208.21934 276.614949,208.722817 C277.4331,209.226295 278.125382,209.792707 278.691794,210.359119 C279.258206,210.925531 279.509945,211.429009 279.509945,211.869552 C279.509945,212.498899 279.195271,213.442919 278.628859,214.827482 C278.062447,216.212045 277.370165,217.785412 276.614949,219.547584 C276.048537,220.743343 275.482125,222.002037 274.915712,223.323665 C274.3493,224.645294 273.845823,225.966922 273.342345,227.225616 C272.901802,228.48431 272.46126,229.680069 272.209521,230.812893 C271.894847,231.945718 271.768978,232.826803 271.768978,233.519085 C271.768978,233.770823 271.768978,233.959628 271.706043,233.959628 C272.46126,233.959628 273.468215,233.330281 274.663974,232.008652 C275.859733,230.687024 277.118427,229.050722 278.50299,227.036812 C279.887553,225.022902 281.272116,222.820188 282.656679,220.365735 C283.257542,219.300568 283.846553,218.259107 284.42371,217.236208 C284.829713,216.334214 285.269426,215.423511 285.740479,214.512809 C286.621565,212.687703 287.565585,210.862597 288.509605,209.037491 C290.082973,206.016626 291.404601,203.184564 292.663295,200.541308 C293.859054,197.898051 294.488401,195.758271 294.488401,194.121969 C294.488401,193.240884 295.117748,192.800341 296.313507,192.737406 C297.509266,192.674471 298.893829,192.989145 300.341327,193.618492 C301.851759,194.310773 303.173388,195.254794 304.369147,196.450553 C305.564906,197.709247 306.194253,199.156744 306.194253,200.793046 C306.194253,201.548263 306.005449,202.555218 305.564906,203.688042 C305.124363,204.820866 304.620886,206.142495 303.928604,207.589993 C305.627841,205.576083 307.327077,203.562173 309.026314,201.611197 C310.725551,199.660222 312.298918,197.960985 313.746416,196.450553 C315.193914,194.94012 316.515542,193.681426 317.585432,192.737406 C318.718256,191.793386 319.473472,191.352843 319.97695,191.352843 L320.480428,191.352843 L320.480428,191.352843 C320.669232,191.352843 320.92097,191.415778 321.172709,191.541647 C321.864991,191.793386 322.557272,192.170994 323.438358,192.737406 C324.256509,193.303818 325.011725,193.9961 325.766941,194.814251 C326.459223,195.632402 327.08857,196.513487 327.529113,197.457508 C327.969656,198.401528 328.221394,199.408483 328.221394,200.415438 C328.221394,201.170654 327.780851,202.555218 326.836831,204.569128 C325.955745,206.583038 324.822921,208.911621 323.564227,211.554878 C322.620207,213.505854 321.676187,215.519764 320.606297,217.659543 C319.599342,219.799322 318.655322,221.813233 317.837171,223.764208 C317.01902,225.715183 316.326738,227.540289 315.760326,229.239526 C315.193914,230.938762 314.942175,232.260391 314.942175,233.267346 C314.942175,233.707889 315.00511,233.959628 315.130979,233.959628 C315.94913,233.959628 316.956085,233.393215 318.088909,232.197456 C319.221734,231.064632 320.480428,229.491265 321.864991,227.666159 C323.186619,225.778118 324.571182,223.701273 325.955745,221.435624 L326.127334,221.15187 C326.324067,219.929565 326.620962,218.684082 327.025635,217.407804 C327.843786,214.827482 328.913676,212.24716 330.361174,209.729772 C331.745737,207.212385 333.444974,204.820866 335.395949,202.618152 C337.346924,200.352503 339.423769,198.401528 341.626483,196.765226 C343.829197,195.06599 346.220715,193.744361 348.675168,192.737406 C351.129621,191.730451 353.584074,191.226974 356.101462,191.226974 C358.178306,191.226974 359.940478,191.541647 361.387976,192.108059 C362.835473,192.674471 364.031232,193.429688 364.975253,194.373708 C365.919273,195.254794 366.674489,196.261749 367.177967,197.331638 C367.681444,198.401528 368.059053,199.471418 368.247857,200.478373 C368.436661,201.485328 368.499595,202.429348 368.436661,203.247499 C368.373726,204.06565 368.310791,204.694997 368.184922,205.072605 C367.49264,206.457168 366.800359,207.212385 366.045143,207.401189 C366.926228,208.345209 367.681444,209.415099 368.310791,210.547923 C368.940138,211.680748 369.191877,212.813572 369.191877,213.757592 C369.191877,214.512809 368.940138,215.771502 368.436661,217.533674 C367.933183,219.295845 367.303836,221.183886 366.54862,223.197796 C370.261408,220.074339 373.587893,217.006069 376.528076,213.941308 C376.862521,213.059308 377.249865,212.179529 377.68806,211.303139 C379.576101,207.527058 382.030554,204.128585 385.114353,201.170654 C388.198153,198.212724 391.596626,195.758271 395.435642,193.933165 C399.274658,192.108059 403.176609,191.164039 407.141495,191.164039 C409.721817,191.164039 411.609858,191.730451 412.742682,192.92621 C413.875506,194.059035 414.441919,195.632402 414.441919,197.583377 C414.441919,199.030875 414.06431,200.667177 413.309094,202.492283 C412.553878,204.317389 411.546923,206.268364 410.288229,208.21934 C409.029535,210.23325 407.582037,212.184225 405.882801,214.072266 C404.246499,216.023241 402.484328,217.785412 400.596287,219.35878 C398.771181,220.932147 396.88314,222.31671 394.932165,223.449534 C392.98119,224.582359 391.156084,225.337575 389.393912,225.715183 C389.142174,226.785073 389.079239,227.792028 389.079239,228.861918 C389.079239,230.120612 389.268043,231.190501 389.77152,231.945718 C390.212063,232.763868 390.96728,233.141477 392.037169,233.141477 C394.491622,233.141477 396.88314,232.51213 399.211724,231.253436 C401.603242,229.994742 403.868891,228.421375 406.00867,226.4704 C408.14845,224.519424 410.16236,222.379645 412.113335,220.051061 C414.001376,217.722478 415.700612,215.393894 417.211045,213.19118 C418.721477,210.988466 419.980171,208.974556 420.987126,207.14945 C421.931147,205.576083 422.686363,204.254454 423.126906,203.373369 C423.31571,202.932826 423.756253,202.681087 424.3856,202.681087 C425.014946,202.681087 425.644293,202.806956 426.27364,203.058695 C426.902987,203.310434 427.406465,203.625107 427.784073,204.06565 C428.161681,204.506193 428.350485,204.946736 428.161681,205.387279 L427.937353,205.835688 C427.385814,206.937045 426.635515,208.423877 425.644293,210.296184 C424.511469,212.498899 423.126906,214.890417 421.427669,217.470739 C419.728433,220.113996 417.840392,222.757253 415.700612,225.526379 C413.560833,228.295506 411.169315,230.812893 408.588993,233.078542 C406.00867,235.344191 403.239544,237.169297 400.218679,238.616795 C397.260748,240.064292 394.114014,240.756574 390.84141,240.756574 C388.072284,240.756574 385.680766,240.190162 383.72979,238.994403 C381.71588,237.861578 380.079578,236.351146 378.75795,234.588974 C377.436321,232.826803 376.429366,230.875828 375.800019,228.798983 C375.200299,226.819905 374.886323,224.897977 374.858091,223.033197 C373.575723,224.216677 372.231528,225.406473 370.828179,226.596269 C367.933183,229.050722 365.038188,231.505175 361.954388,233.896693 C360.569825,236.917558 359.059392,240.064292 357.360155,243.336896 C355.660919,246.6095 353.898748,249.756235 352.010707,252.902969 C350.122666,256.049703 348.171691,258.944699 346.220715,261.77676 C344.206805,264.545887 342.25583,267.000339 340.24192,269.077184 C338.22801,271.154029 336.2141,272.853266 334.263124,274.111959 C332.312149,275.370653 330.424108,276 328.661937,276 C326.14455,276 324.00477,275.685327 322.368468,274.993045 C320.732166,274.300763 319.410538,273.545547 318.466517,272.601527 C317.522497,271.657506 316.830216,270.650551 316.452607,269.580662 C316.074999,268.510772 315.886195,267.566752 315.886195,266.748601 C315.886195,265.049364 316.641411,263.161323 318.214779,261.147413 C319.788146,259.133503 321.927925,256.993724 324.571182,254.66514 C327.277374,252.399492 330.361174,249.945039 333.822582,247.427651 C337.346924,244.910263 340.997136,242.267007 344.899087,239.49788 L345.33963,238.616795 C344.26974,239.372011 343.262785,240.001358 342.192895,240.441901 C341.123006,240.882443 340.053116,241.134182 338.983226,241.134182 C336.843447,241.134182 334.955406,240.630705 333.319104,239.686684 C331.682802,238.742664 330.298239,237.421035 329.228349,235.910603 C328.095525,234.337236 327.277374,232.575064 326.710962,230.624089 L326.578851,230.150833 C325.823915,231.189201 325.051366,232.187648 324.256509,233.141477 C322.431403,235.407125 320.543362,237.232231 318.655322,238.679729 C316.767281,240.127227 314.942175,240.819509 313.180004,240.819509 C310.473812,240.819509 308.271098,239.812554 306.445992,237.798644 C304.683821,235.784734 303.802735,233.078542 303.802735,229.617134 C303.802735,228.48431 304.054474,227.036812 304.495016,225.337575 C304.935559,223.638339 305.564906,221.813233 306.383057,219.862257 C307.201208,217.911282 308.019359,215.834437 308.963379,213.631723 C309.9074,211.491943 310.85142,209.415099 311.79544,207.338254 C309.970334,209.478033 308.082294,211.806617 306.068384,214.198135 C304.054474,216.652588 302.166433,218.981172 300.341327,221.37269 C298.579156,223.701273 296.942854,225.903987 295.558291,227.980832 C294.173727,230.057677 293.166772,231.756913 292.474491,233.141477 C292.411556,233.393215 292.348621,233.644954 292.348621,233.896693 C292.348621,234.148432 292.285687,234.274301 292.285687,234.40017 L292.474491,235.092452 C292.537425,235.281256 292.537425,235.47006 292.537425,235.658864 C292.537425,235.910603 292.537425,236.099407 292.60036,236.225276 L292.60036,236.162342 C292.789164,236.854623 292.915034,237.421035 293.040903,237.987448 C293.166772,238.55386 293.166772,238.994403 293.040903,239.434946 C292.915034,239.875488 292.663295,240.190162 292.222752,240.441901 C291.782209,240.693639 291.089928,240.819509 290.208842,240.819509 C289.138952,240.819509 288.069063,240.56777 286.999173,240.064292 C285.866348,239.560815 284.859393,238.805599 283.978308,237.861578 C283.097222,236.917558 282.342006,235.721799 281.712659,234.40017 C281.40423,233.752469 281.186493,233.059422 281.044634,232.328436 C280.869836,232.559307 280.693368,232.78872 280.5169,233.015607 C278.754729,235.281256 276.992557,237.169297 275.293321,238.616795 C273.594084,240.064292 272.020717,240.819509 270.573219,240.819509 C268.999852,240.819509 267.615289,240.441901 266.419529,239.62375 C265.22377,238.805599 264.216815,237.924513 263.398664,237.043427 C262.391709,235.910603 261.573558,234.651909 260.944211,233.141477 C260.314865,233.896693 259.496714,234.714844 258.615628,235.595929 C257.734542,236.477015 256.790522,237.295166 255.783567,238.050382 C254.776612,238.805599 253.706722,239.49788 252.573898,240.001358 C251.441073,240.504835 250.308249,240.756574 249.238359,240.756574 C247.09858,240.756574 245.210539,240.253096 243.574237,239.309076 C241.937935,238.365056 240.553372,237.106362 239.483482,235.532995 C238.350658,233.959628 237.532507,232.197456 236.966095,230.246481 C236.474444,229.058325 236.169499,227.816824 236.016534,226.556706 C234.256418,228.923996 232.48858,231.097501 230.672626,233.078542 C228.595781,235.344191 226.581871,237.169297 224.567961,238.616795 C222.554051,240.064292 220.728945,240.756574 219.155578,240.756574 C216.449386,240.756574 214.246672,239.749619 212.484501,237.735709 C210.722329,235.721799 209.841244,233.015607 209.841244,229.554199 C209.841244,228.421375 210.092983,226.973877 210.533525,225.27464 C210.974068,223.575404 211.603415,221.687363 212.358631,219.673453 C213.113848,217.659543 213.994933,215.582698 214.938954,213.442919 C215.882974,211.303139 216.826994,209.16336 217.771015,207.086515 C215.945909,209.16336 214.057868,211.429009 212.106893,213.820527 C210.155917,216.212045 208.267877,218.603563 206.505705,220.869212 C204.743534,223.197796 203.170167,225.40051 201.722669,227.477355 C200.275171,229.554199 199.268216,231.316371 198.575934,232.826803 C198.38713,233.519085 198.324196,234.022562 198.324196,234.40017 L198.513,235.092452 C198.575934,235.281256 198.638869,235.47006 198.638869,235.658864 C198.638869,235.910603 198.701804,236.099407 198.764738,236.225276 L198.701804,236.162342 C198.890608,236.854623 199.016477,237.421035 199.142347,237.987448 C199.268216,238.55386 199.268216,238.994403 199.142347,239.434946 C199.016477,239.875488 198.764738,240.190162 198.38713,240.441901 C197.946587,240.693639 197.317241,240.819509 196.436155,240.819509 C195.303331,240.819509 194.233441,240.56777 193.100616,240.064292 C191.967792,239.560815 190.960837,238.805599 190.016817,237.861578 C189.135731,236.917558 188.31758,235.721799 187.751168,234.40017 C187.232678,233.311341 186.970484,232.094364 186.894202,230.749238 C185.157979,232.951569 183.282224,235.154835 181.268895,237.358101 C177.933356,241.008313 174.346079,244.280917 170.507063,247.238847 C166.668047,250.196777 162.514357,252.588296 158.108929,254.413402 C153.703501,256.238508 149.109269,257.119593 144.263298,257.119593 C139.228522,257.119593 135.011898,256.364377 131.613425,254.79101 C128.214952,253.217642 125.445825,251.203732 123.306046,248.686345 C121.166267,246.231892 119.655834,243.462766 118.774748,240.504835 C117.893663,237.546905 117.390185,234.651909 117.390185,231.819848 C117.390185,227.729093 118.019532,223.512469 119.278226,219.107041 C120.53692,214.701613 122.299091,210.296184 124.56474,205.890756 C126.830389,201.422393 129.410711,197.0799 132.494511,192.800341 C135.515376,188.520782 138.78798,184.430027 142.249387,180.528076 C145.710795,176.626126 149.361007,173.038848 153.200023,169.766244 C156.976105,166.493641 160.815121,163.66158 164.591202,161.270061 C168.367284,158.878543 172.143365,156.990503 175.793577,155.668874 C179.443789,154.347246 182.842262,153.654964 185.988997,153.654964 Z M341.500614,247.301782 C338.605618,249.504496 335.836492,251.581341 333.256169,253.595251 C330.675847,255.609161 328.473133,257.434267 326.522158,259.070569 C324.634117,260.769805 323.123684,262.280238 321.99086,263.601866 C320.858036,264.923495 320.354558,266.119254 320.354558,267.063274 C320.417493,268.007294 320.795101,268.447837 321.613252,268.447837 C323.123684,268.447837 324.697052,267.881425 326.333354,266.748601 C327.969656,265.615776 329.668892,264.105344 331.368129,262.217303 C333.067365,260.329262 334.766602,258.063614 336.465839,255.483291 C338.165075,252.902969 339.864312,250.196777 341.500614,247.301782 Z M358.681784,199.345548 C357.360155,199.345548 355.912658,199.911961 354.402225,201.10772 C352.891792,202.240544 351.38136,203.813911 349.870927,205.639017 C348.360495,207.527058 346.975932,209.603903 345.591369,211.995421 C344.206805,214.324005 343.011046,216.715523 341.941157,219.169976 C340.871267,221.624428 340.053116,223.953012 339.423769,226.155726 C338.794422,228.421375 338.479749,230.309416 338.479749,231.882783 C338.479749,232.826803 338.605618,233.582019 338.857357,234.085497 C339.109096,234.588974 339.549638,234.840713 340.116051,234.840713 C341.689418,234.840713 343.32572,234.085497 344.899087,232.575064 C346.472454,231.064632 348.045821,229.239526 349.430385,227.036812 C350.877882,224.834098 352.136576,222.568449 353.332335,220.113996 C354.46516,217.659543 355.40918,215.456829 356.038527,213.505854 L356.038527,213.568788 C356.227331,212.750637 356.47907,211.932486 356.667874,211.240205 C356.856678,210.484988 356.982547,209.855642 357.108417,209.289229 L357.108417,208.974556 C357.108417,207.212385 357.42309,205.953691 358.052437,205.261409 C358.681784,204.569128 359.499935,204.19152 360.569825,204.19152 C361.45091,204.19152 362.394931,204.506193 363.401886,205.198475 C363.401886,204.694997 363.401886,204.254454 363.59069,204.002715 C363.653624,203.876846 363.653624,203.562173 363.653624,203.12163 C363.653624,202.618152 363.46482,202.114675 363.150147,201.548263 C362.835473,200.98185 362.331996,200.478373 361.639714,200.03783 C360.947433,199.597287 359.940478,199.345548 358.681784,199.345548 Z M408.211384,197.142834 C406.889756,197.142834 405.442258,197.772181 403.868891,199.09381 C402.295524,200.415438 400.722156,202.05174 399.211724,204.128585 C397.701291,206.20543 396.253793,208.534013 394.932165,211.114335 C393.610536,213.694658 392.414777,216.27498 391.470757,218.792367 C393.484667,217.785412 395.498577,216.337915 397.512487,214.512809 C399.526397,212.624768 401.414438,210.673793 403.05074,208.534013 C404.687042,206.457168 406.071605,204.380324 407.07856,202.429348 C408.085515,200.415438 408.588993,198.842071 408.588993,197.646312 C408.588993,197.331638 408.463123,197.142834 408.211384,197.142834 Z" id="change" fill="#FFFFFF" fill-rule="nonzero"></path>
        <path d="M326.14455,133.012386 C326.962701,133.075321 327.906721,133.327059 328.913676,133.830537 C329.920631,134.334014 330.864651,134.963361 331.682802,135.781512 C332.500953,136.599663 332.941496,137.417814 333.004431,138.2989 C333.067365,139.24292 332.815627,140.501614 332.312149,142.137916 C331.808672,143.774218 331.179325,145.662258 330.298239,147.739103 C332.689757,147.550299 334.829537,147.29856 336.717577,146.858018 C338.605618,146.480409 340.116051,146.102801 341.31181,145.725193 L341.248875,145.788128 C342.507569,145.41052 343.577458,145.221716 344.26974,145.28465 C344.962022,145.28465 345.402564,145.725193 345.402564,146.480409 C345.402564,146.795083 345.087891,147.29856 344.458544,147.927907 C343.829197,148.557254 342.822242,149.186601 341.437679,149.815948 C340.053116,150.445295 338.290945,151.074642 336.08823,151.578119 C333.885516,152.081597 331.305194,152.459205 328.284329,152.52214 C327.969656,153.340291 327.592047,154.158442 327.277374,154.976593 C326.899766,155.794743 326.585092,156.612894 326.207484,157.49398 C325.200529,159.885498 324.193574,162.214082 323.186619,164.668535 C322.179664,167.060053 321.298578,169.388636 320.480428,171.528416 C319.662277,173.668195 319.03293,175.619171 318.592387,177.381342 C318.088909,179.143513 317.900105,180.591011 317.900105,181.660901 C317.96304,182.667856 318.277713,183.108399 318.844126,183.108399 C319.97695,183.045464 321.172709,182.541986 322.494338,181.535031 C323.753031,180.528076 325.07466,179.269383 326.333354,177.75895 C327.592047,176.248517 328.913676,174.549281 330.17237,172.78711 C331.114932,171.420394 331.986911,170.08897 332.788308,168.792838 L332.626823,169.262767 C333.319104,167.185922 334.137255,165.234947 335.018341,163.53571 C335.962361,161.773539 336.906381,160.326041 337.913336,159.193217 C338.920291,158.060392 339.675508,157.49398 340.24192,157.431045 C340.619528,157.431045 341.123006,157.431045 341.563548,157.49398 C342.067026,157.556915 342.507569,157.619849 342.948112,157.745719 C343.640393,156.738764 344.395609,155.794743 345.21376,154.913658 C346.031911,154.032572 346.912997,153.277356 347.794083,152.585074 C348.738103,151.892793 349.682123,151.389315 350.689078,150.948772 C351.696033,150.50823 352.702988,150.319425 353.772878,150.256491 C355.346245,150.193556 356.604939,150.319425 357.611894,150.634099 C358.618849,150.948772 359.437,151.389315 360.066347,152.018662 C360.695694,152.648009 361.136237,153.340291 361.387976,154.221376 C361.639714,155.102462 361.765584,156.046482 361.828518,157.053437 C362.015063,162.338875 360.972857,168.423002 358.094875,174.39528 C374.674339,173.330143 402.250574,162.318451 415.511808,161.395931 C430.993742,160.326041 434.140476,170.962004 427.784073,178.073623 C423.820446,170.028053 408.957437,172.4926 393.231376,175.640028 L392.226509,175.84176 C391.891227,175.90925 391.555651,175.976955 391.219878,176.044779 L390.212063,176.248517 L383.603921,177.570146 C372.527416,179.709925 362.017322,181.157423 355.660919,178.451232 L355.755469,178.489482 L355.683538,178.595599 C354.014827,181.000506 352.174337,182.974138 350.059731,184.618831 C347.794083,186.318068 345.402564,187.262088 342.948112,187.325023 C341.626483,187.387957 340.304855,187.136219 338.983226,186.695676 C337.661598,186.192198 336.528773,185.499917 335.458884,184.492962 C334.451929,183.486007 333.570843,182.227313 332.878561,180.71688 C332.445638,179.772321 332.135775,178.704701 331.948971,177.529413 C330.712389,179.207273 329.394281,180.760876 328.03259,182.227313 C326.396288,183.989484 324.697052,185.374047 322.93488,186.506872 C321.172709,187.639696 319.410538,188.206108 317.585432,188.269043 C316.830216,188.269043 316.012065,188.143174 315.00511,187.702631 C314.061089,187.325023 313.117069,186.695676 312.235983,185.94046 C311.354898,185.185243 310.599681,184.178288 309.970334,183.045464 C309.340988,181.91264 309.026314,180.528076 308.963379,179.017644 C308.900445,178.136558 309.152183,176.81493 309.592726,175.178628 C310.033269,173.542326 310.662616,171.59135 311.480767,169.451571 C312.298918,167.311792 313.180004,164.983208 314.186959,162.528755 C315.193914,160.074302 316.263803,157.619849 317.270758,155.102462 L318.466517,152.333336 C316.641411,152.144531 315.068044,151.829858 313.620546,151.45225 C312.173049,151.074642 310.977289,150.697034 310.033269,150.256491 C309.089249,149.815948 308.334032,149.43834 307.76762,148.997797 C307.264143,148.620189 306.949469,148.242581 306.949469,147.990842 C306.949469,147.42443 307.012404,146.983887 307.201208,146.732148 C307.390012,146.480409 307.641751,146.291605 308.019359,146.228671 C308.343023,146.174727 308.712925,146.16702 309.168697,146.245184 L309.403922,146.291605 C309.970334,146.417475 310.662616,146.480409 311.480767,146.669214 C312.424787,146.858018 313.620546,147.046822 315.130979,147.235626 C316.578477,147.42443 318.340648,147.613234 320.354558,147.739103 C321.676187,144.529434 322.809011,141.634438 323.690097,139.179985 C324.571182,136.662598 324.94879,134.900427 324.94879,133.893472 C324.94879,133.264125 325.326399,132.949451 326.14455,133.012386 Z M342.25583,173.668195 C341.752352,174.926889 341.374744,176.185583 341.060071,177.381342 C340.745397,178.577101 340.619528,179.646991 340.682463,180.528076 C340.682463,181.220358 340.871267,181.723835 341.248875,182.101444 C341.500614,182.479052 342.067026,182.667856 342.885177,182.604921 C344.332675,182.541986 345.654303,182.101444 346.850062,181.346227 C348.045821,180.528076 349.178646,179.458187 350.248536,178.136558 C348.675168,177.75895 347.22767,177.192538 345.843107,176.437322 C344.458544,175.682105 343.262785,174.738085 342.25583,173.668195 Z M356.793743,155.354201 C356.416135,155.354201 355.786788,155.920613 354.968637,156.990503 C354.150486,158.060392 353.332335,159.382021 352.514184,160.955388 C351.696033,162.528755 351.003752,164.227992 350.43734,165.990163 C349.745058,167.752334 349.493319,169.388636 349.556254,170.836134 C349.619189,171.780155 349.870927,172.535371 350.31147,173.164718 C350.752013,173.794065 351.633099,174.171673 352.828858,174.297542 C353.584074,172.912979 354.276356,171.402546 354.842768,169.892114 C355.40918,168.381681 355.912658,166.871249 356.3532,165.423751 C356.730809,163.976253 357.045482,162.59169 357.234286,161.207127 C357.42309,159.885498 357.486025,158.752674 357.486025,157.745719 C357.42309,156.109417 357.171351,155.291266 356.793743,155.354201 Z" id="to" fill-opacity="0.8" fill="#FFFFFF" fill-rule="nonzero"></path>
        <path d="M208.645485,24.0095041 C210.911133,24.0724388 213.176782,24.7017857 215.505366,25.8346101 C217.833949,27.0303692 219.910794,28.9813446 221.7359,31.8763403 C224.064484,35.3377482 225.574916,39.428503 226.267198,44.08567 C226.959479,48.742837 227.148283,53.5258734 226.83361,58.4347791 C226.518936,63.3436849 225.76372,68.189656 224.630896,72.9097577 C223.435137,77.6298594 222.239378,81.9094182 220.917749,85.811369 C220.66601,86.5665853 219.973729,88.5175606 218.903839,91.6642951 C217.833949,94.7480949 216.260582,98.5871109 214.246672,103.118409 C212.232762,107.649706 209.841244,112.621547 206.946248,118.03393 C204.114187,123.446313 200.715714,128.858696 196.876698,134.14521 L196.664635,134.404 L196.722635,134.444 L196.813763,134.334014 C196.817857,134.391323 196.821201,134.451428 196.82379,134.514195 C202.341506,138.335696 208.649752,142.159467 215.69417,146.039867 C223.120463,150.130621 231.176103,153.46616 239.798156,156.172352 C248.420208,158.815609 257.482804,160.514845 266.860072,161.144192 C276.300276,161.836474 285.929283,160.703649 295.747095,157.808654 C296.75405,160.326041 297.194592,162.59169 297.068723,164.731469 C296.942854,166.61951 296.250572,168.507551 295.054813,170.395591 C293.796119,172.283632 291.404601,173.856999 287.817324,175.052758 C285.803414,175.682105 282.845483,176.185583 278.817663,176.563191 C274.789843,176.940799 270.132676,176.877864 264.846162,176.374387 C259.496714,175.933844 253.706722,174.989824 247.287384,173.668195 C240.93098,172.283632 234.322838,170.332657 227.525891,167.752334 C220.728945,165.172012 213.743194,161.836474 206.631575,157.745719 C201.339011,154.748161 196.185874,151.227753 191.146222,147.210437 C190.095368,147.315454 188.883917,146.859084 187.499429,145.599324 L183.975086,149.123666 L183.975086,149.123666 C182.842262,150.319425 181.583568,151.389315 180.26194,152.39627 L177.933356,154.347246 C174.597818,156.801698 170.255324,159.130282 165.031745,161.207127 C159.808166,163.283971 153.766436,164.039188 146.906554,163.221037 C141.368302,162.339951 136.899939,160.766584 133.627335,158.56387 C130.354731,156.361156 127.333866,153.151487 124.627674,148.871928 C123.180177,146.669214 122.299091,144.34063 121.921483,141.760308 C121.543875,139.24292 121.48094,136.914337 121.732679,134.900427 C121.984418,132.571843 122.42496,130.180325 123.117242,127.725872 C124.43887,123.949791 126.263976,120.677187 128.718429,117.845126 C130.921143,115.390673 133.879074,113.187959 137.529286,111.174049 C141.242432,109.160139 145.962534,108.153184 151.81546,108.153184 C155.465672,108.153184 158.738276,108.593727 161.696206,109.537747 C164.654137,110.418832 167.423263,111.614592 170.06652,113.125024 C172.646842,114.635457 175.101295,116.271759 177.366944,118.159799 C179.632593,120.04784 181.835307,121.935881 184.038021,123.886856 C185.044976,122.439358 185.988997,121.054795 186.870082,119.607297 C187.688233,118.159799 188.569319,116.712301 189.513339,115.138934 C190.016817,114.383718 190.709098,113.187959 191.464314,111.614592 C192.219531,110.041224 193.100616,108.404922 193.981702,106.642751 C194.862788,104.88058 195.743873,103.118409 196.49909,101.293303 C197.254306,99.4681966 197.946587,98.0206987 198.450065,96.8249396 L199.016477,95.6291805 L199.582889,94.2446173 C200.589844,91.4125563 201.533865,88.7692994 202.289081,86.3777812 C203.044297,83.986263 203.673644,82.0352876 204.051252,80.4619204 C206.002228,72.2804108 207.072117,64.4135746 207.260921,56.6726078 C207.449726,48.9945757 206.946248,42.5123028 205.813424,37.3516582 C205.184077,35.0230747 204.42886,33.135034 203.61071,31.6246015 C202.792559,30.114169 201.974408,28.9813446 201.156257,28.2261283 C200.275171,27.3450426 199.268216,26.5898264 198.261261,26.0863488 C198.613695,25.9353056 199.046686,25.7741928 199.560233,25.5989826 L200.100632,25.4189241 C200.762425,25.2030255 201.533865,24.9661114 202.41495,24.7017857 C204.302991,24.1983082 206.379836,23.9465694 208.645485,24.0095041 Z M146.906554,120.362513 C145.207318,120.740122 143.571016,121.432403 141.934714,122.502293 C140.298412,123.509248 139.102653,125.14555 138.347437,127.348264 C137.71809,129.299239 137.59222,131.061411 137.969829,132.697712 C138.347437,134.334014 138.913849,135.718578 139.732,136.851402 C140.487216,138.047161 141.368302,138.991181 142.249387,139.746398 C143.130473,140.501614 143.822755,141.068026 144.200363,141.319765 C145.396122,142.074981 146.71775,142.704328 148.291118,143.081936 C153.766436,144.592369 159.430558,144.025957 165.409353,141.319765 C169.059565,138.991181 172.332169,136.473794 175.290099,133.767602 C173.968471,132.571843 172.458038,131.250215 170.632932,129.676847 C168.807826,128.10348 166.919786,126.655982 164.905876,125.334354 C162.891966,123.949791 160.878055,122.754032 158.864145,121.747077 C156.850235,120.740122 154.962195,120.110775 153.137089,119.984905 C150.934375,119.733167 148.85753,119.859036 146.906554,120.362513 Z M343.766263,67.1197663 C344.773218,67.1197663 345.968977,67.2456356 347.35354,67.4973744 C348.738103,67.7491132 350.059731,68.0637866 351.255491,68.5672641 C352.45125,69.0707416 353.521139,69.7000885 354.33929,70.5182395 C355.220376,71.3363904 355.597984,72.3433455 355.597984,73.5391046 C355.597984,74.6089943 355.283311,75.678884 354.716898,76.8746431 C354.150486,78.0074675 353.458205,79.2661613 352.765923,80.6507245 C351.821903,82.161157 351.003752,83.7345242 350.248536,85.4337608 C349.493319,87.1329975 349.115711,88.7063647 349.115711,90.2167972 C349.115711,91.3496216 349.241581,92.293642 349.556254,93.1117929 C349.870927,93.9299439 350.248536,94.6222255 350.752013,95.1886377 C351.255491,95.7550499 351.758968,96.1955927 352.388315,96.6361355 C352.954727,97.0137437 353.521139,97.3913518 354.087552,97.7060253 C355.220376,98.2724375 356.101462,98.9017844 356.856678,99.5311312 C357.54896,100.160478 357.926568,101.104498 357.926568,102.363192 C357.926568,103.181343 357.611894,104.314168 356.919613,105.887535 C356.290266,107.460902 355.472115,109.160139 354.528094,111.048179 C353.961682,112.369808 353.332335,113.754371 352.640054,115.264804 C352.010707,116.775236 351.38136,118.159799 350.877882,119.544362 C350.374405,120.928926 349.933862,122.250554 349.556254,123.509248 C349.178646,124.767942 348.989842,125.837831 348.989842,126.655982 C348.989842,127.411199 349.178646,127.725872 349.493319,127.725872 C350.500274,127.725872 351.696033,126.970656 353.143531,125.460223 C354.591029,123.949791 356.164396,121.998815 357.800698,119.607297 C359.437,117.215779 361.136237,114.572522 362.772539,111.677526 C363.270361,110.829384 363.75738,109.986644 364.235178,109.149306 L363.968298,109.789486 C364.849383,107.649706 365.793404,105.509927 366.863294,103.307213 C367.933183,101.104498 369.066008,98.964719 370.198832,96.7620049 C372.023938,93.1117929 373.66024,89.7762544 375.170673,86.6295199 C376.61817,83.4827855 377.373387,80.9653979 377.373387,78.9514878 C377.373387,77.8815981 378.128603,77.3151859 379.576101,77.2522512 C381.023599,77.1893165 382.659901,77.5669247 384.422072,78.322141 C386.184243,79.1402919 387.820545,80.2731163 389.268043,81.7206142 C390.715541,83.2310467 391.470757,84.9302833 391.470757,86.8812587 C391.470757,87.825279 391.219018,88.9581034 390.715541,90.3426666 C390.212063,91.7272298 389.582716,93.300597 388.764565,94.9998336 C390.778475,92.5453807 392.85532,90.2167972 394.86923,87.8882137 C396.88314,85.5596302 398.771181,83.5457202 400.470418,81.7206142 C402.232589,79.8955082 403.743021,78.4480103 405.06465,77.3151859 C406.386278,76.1823615 407.330299,75.6159493 407.959646,75.6159493 L408.526058,75.6159493 L408.526058,75.6159493 C408.777797,75.6159493 409.029535,75.678884 409.344209,75.8047534 C410.16236,76.0564921 411.043445,76.5599697 411.987466,77.2522512 C412.994421,77.9445328 413.875506,78.7626838 414.756592,79.7067041 C415.637678,80.6507245 416.329959,81.7206142 416.896371,82.8534386 C417.462784,83.986263 417.714522,85.1820221 417.714522,86.3777812 C417.714522,87.3218015 417.14811,88.9581034 416.078221,91.3496216 C415.008331,93.7411398 413.686702,96.5102662 412.17627,99.7199353 C411.043445,102.048519 409.910621,104.440037 408.651927,106.957425 C407.456168,109.474812 406.323344,111.929265 405.316389,114.257849 C404.309434,116.586432 403.491283,118.789146 402.861936,120.803056 C402.232589,122.816966 401.854981,124.390334 401.854981,125.586093 C401.854981,126.08957 401.917915,126.404244 402.043785,126.404244 C403.05074,126.404244 404.246499,125.711962 405.631062,124.327399 C407.015625,122.942836 408.526058,121.11773 410.099425,118.915016 C411.735727,116.649367 413.372029,114.194914 415.008331,111.425788 C416.644633,108.719596 418.218,105.95047 419.665498,103.244278 C421.112996,100.538086 422.434624,98.0206987 423.567449,95.6921152 C424.624751,93.5187706 425.462762,91.7291877 426.08148,90.3233666 L426.182635,90.09 L426.021901,90.0909279 C426.651248,88.8951688 427.469399,88.1399525 428.41342,87.7623443 C429.35744,87.3847362 430.175591,87.3847362 430.867873,87.636475 C431.623089,87.9511484 432.126566,88.5175606 432.44124,89.3357116 C432.755913,90.2167972 432.630044,91.2237523 432.063632,92.482446 C431.434285,93.8040745 430.42733,95.7550499 429.168636,98.3353721 C427.909942,100.915694 426.462444,103.81069 424.763208,106.957425 C423.063971,110.104159 421.238865,113.313828 419.16202,116.586432 C417.14811,119.859036 415.008331,122.816966 412.805617,125.523158 C410.602903,128.22935 408.337254,130.432064 406.071605,132.1313 C403.805956,133.830537 401.603242,134.711623 399.526397,134.711623 C396.316728,134.711623 393.610536,133.515863 391.533692,131.124345 C389.393912,128.732827 388.386957,125.460223 388.386957,121.369468 C388.386957,119.984905 388.638696,118.285669 389.205108,116.271759 C389.77152,114.257849 390.526737,112.055134 391.407822,109.726551 C392.351843,107.335033 393.358798,104.88058 394.491622,102.300258 C395.624447,99.7199353 396.757271,97.2025477 397.890095,94.8110295 C395.687381,97.3913518 393.421732,100.097543 391.030214,102.992539 C388.638696,105.887535 386.373047,108.719596 384.233268,111.551657 C382.093488,114.383718 380.205448,116.96404 378.569146,119.481428 C376.932844,121.935881 375.67415,124.012725 374.918934,125.649027 C374.855999,125.963701 374.793064,126.278374 374.793064,126.530113 C374.73013,126.781852 374.73013,126.970656 374.73013,127.096525 L374.918934,127.914676 C374.981868,128.10348 375.044803,128.355219 375.044803,128.606958 C375.044803,128.858696 375.107738,129.110435 375.170673,129.299239 L375.170673,129.17337 C375.359477,129.991521 375.548281,130.683802 375.67415,131.376084 C375.800019,132.005431 375.800019,132.634778 375.67415,133.075321 C375.548281,133.578798 375.233607,133.956406 374.667195,134.27108 C374.163717,134.585753 373.345567,134.711623 372.275677,134.711623 C371.016983,134.711623 369.758289,134.396949 368.436661,133.767602 C367.115032,133.138255 365.919273,132.25717 364.849383,131.124345 C363.779494,129.991521 362.835473,128.606958 362.143192,127.03359 C361.811627,126.280035 361.552245,125.48317 361.37196,124.636082 C361.126614,124.957322 360.879686,125.273802 360.632759,125.586093 C358.49298,128.292284 356.3532,130.494998 354.150486,132.194235 C351.947772,133.893472 349.933862,134.774557 348.045821,134.774557 C346.157781,134.774557 344.395609,134.396949 342.885177,133.704668 C341.374744,132.949451 340.053116,132.068366 338.983226,130.935541 C337.913336,129.802717 337.032251,128.544023 336.465839,127.096525 C335.899426,125.649027 335.584753,124.138595 335.584753,122.628162 C335.584753,120.740122 335.962361,118.411538 336.780512,115.768281 C337.598663,113.125024 338.416814,110.544702 339.360834,108.090249 C340.493659,105.258188 341.752352,102.300258 343.19985,99.2793925 C342.696373,98.964719 342.129961,98.5871109 341.563548,98.2095028 C340.997136,97.8318946 340.430724,97.3284171 339.864312,96.8249396 C339.360834,97.8948293 338.731487,99.0276537 338.165075,100.223413 C337.58047,101.334164 336.724341,102.933655 335.546247,104.920999 C335.192726,105.546591 334.827662,106.183739 334.451929,106.831555 C332.689757,109.97829 330.738782,113.250894 328.661937,116.586432 C326.585092,119.921971 324.508248,122.942836 322.368468,125.649027 C320.228689,128.355219 318.151844,130.557933 316.074999,132.320104 C314.061089,134.082276 312.173049,134.963361 310.473812,134.963361 C308.585771,134.963361 306.886535,134.459884 305.501971,133.515863 C304.117408,132.571843 302.858715,131.501953 301.914694,130.432064 C300.718935,129.110435 299.774915,127.537068 298.956764,125.774897 C298.138613,126.718917 297.257527,127.662937 296.187637,128.732827 C295.117748,129.802717 293.984923,130.746737 292.789164,131.690757 C291.593405,132.634778 290.271777,133.389994 288.950148,134.019341 C287.62852,134.648688 286.306891,134.963361 284.985263,134.963361 C282.40494,134.963361 280.139292,134.396949 278.188316,133.264125 C276.237341,132.1313 274.601039,130.620868 273.279411,128.732827 C271.957782,126.844786 270.950827,124.767942 270.258545,122.439358 C269.953059,121.247961 269.721714,120.08622 269.564512,118.946938 C267.508499,121.345299 265.306291,123.588389 262.958122,125.649027 C259.874322,128.355219 256.538783,130.557933 252.951506,132.25717 C249.364229,133.956406 245.651082,134.837492 241.812066,134.837492 C238.539462,134.837492 235.707401,134.14521 233.315883,132.760647 C230.924365,131.376084 228.973389,129.613913 227.400022,127.537068 C225.826655,125.460223 224.630896,123.13164 223.875679,120.614252 C223.120463,118.096865 222.742855,115.705346 222.742855,113.376763 C222.742855,108.782531 223.875679,104.188298 226.078394,99.7199353 C228.344042,95.1886377 231.239038,91.1608176 234.952185,87.636475 C238.602397,84.0491977 242.693152,81.2171367 247.287384,79.0144225 C251.881616,76.8117084 256.538783,75.678884 261.258885,75.678884 C264.342685,75.678884 266.608333,76.3711656 267.929962,77.7557288 C269.25159,79.1402919 269.943872,80.9653979 269.943872,83.2939814 C269.943872,84.993218 269.503329,86.9441934 268.622244,89.1469075 C267.741158,91.3496216 266.545399,93.6152705 265.034966,96.0067886 C263.524534,98.3983068 261.762362,100.72689 259.811387,102.992539 C257.860412,105.321123 255.720632,107.397967 253.517918,109.286008 C251.315204,111.174049 249.049555,112.810351 246.720972,114.194914 C244.392388,115.516542 242.189674,116.460563 240.112829,116.901105 C239.861091,118.159799 239.735221,119.418493 239.735221,120.677187 C239.735221,122.187619 239.98696,123.446313 240.553372,124.390334 C241.05685,125.334354 241.937935,125.837831 243.196629,125.837831 C246.091625,125.837831 248.98662,125.082615 251.818682,123.635117 C254.650743,122.124685 257.356934,120.236644 259.937256,117.970995 C262.517579,115.642412 264.909097,113.125024 267.174746,110.292963 C268.643546,108.497763 270.006544,106.702563 271.28089,104.941658 C272.168581,102.402874 273.317934,99.9069454 274.726908,97.4542865 C276.426145,94.4963561 278.37712,91.6642951 280.705704,89.0210381 C283.034287,86.3777812 285.48874,83.986263 288.194932,82.0352876 C290.838189,80.0213776 293.67025,78.4480103 296.565246,77.2522512 C299.460241,76.0564921 302.355237,75.4900799 305.250233,75.4900799 C307.76762,75.4900799 309.9074,75.8047534 311.606636,76.497035 C313.368808,77.1893165 314.753371,78.0704022 315.886195,79.1402919 C317.01902,80.2101816 317.837171,81.4059407 318.466517,82.7275692 C319.03293,84.0491977 319.473472,85.3078915 319.725211,86.5036506 C319.97695,87.6994097 320.039885,88.8322341 319.97695,89.8391891 C319.914015,90.8461441 319.788146,91.5384257 319.599342,91.9160338 L319.725211,91.9160338 C319.536407,92.4195114 319.095864,92.6712501 318.466517,92.6712501 C317.837171,92.6083154 317.207824,92.482446 316.578477,92.293642 C315.94913,92.0419032 315.382718,91.7901645 314.87924,91.4125563 C314.375763,91.0349482 314.186959,90.7832094 314.249893,90.5944054 C314.312828,90.468536 314.312828,90.0909279 314.312828,89.5245156 C314.249893,88.9581034 314.061089,88.3287566 313.746416,87.6994097 C313.368808,87.0700628 312.802395,86.5036506 311.984244,86.000173 C311.166093,85.4966955 309.970334,85.2449568 308.459902,85.2449568 C306.886535,85.2449568 305.187298,85.9372384 303.362192,87.3218015 C301.537086,88.7063647 299.774915,90.5314707 297.949809,92.7341848 C296.187637,94.9368989 294.488401,97.4542865 292.789164,100.223413 C291.152862,102.992539 289.705364,105.8246 288.509605,108.719596 C287.313846,111.614592 286.306891,114.320783 285.551675,117.026975 C284.796459,119.670232 284.418851,121.998815 284.418851,123.886856 C284.418851,126.278374 285.111132,127.474133 286.495695,127.474133 C288.131997,127.474133 289.831234,126.718917 291.53047,125.271419 C293.229707,123.823921 294.928944,121.998815 296.502311,119.733167 C298.138613,117.467518 299.586111,115.013065 300.970674,112.306873 C302.355237,109.600682 303.550996,107.020359 304.620886,104.628841 C305.690776,102.174388 306.508926,100.034609 307.075339,98.2095028 C307.641751,96.3843968 307.956424,95.125703 307.956424,94.5592908 C307.956424,93.9928786 308.271098,93.6152705 308.963379,93.4894011 C309.592726,93.3635317 310.410877,93.4264664 311.417832,93.6782051 C312.424787,93.9299439 313.494677,94.307552 314.627501,94.8110295 C315.823261,95.3145071 316.89315,95.8809193 317.837171,96.5102662 C318.844126,97.1396131 319.662277,97.7689599 320.291623,98.4612415 C320.92097,99.1535231 321.298578,99.78287 321.298578,100.286348 C321.298578,101.041564 320.983905,102.174388 320.291623,103.873625 C319.599342,105.509927 318.781191,107.397967 317.900105,109.474812 C317.270758,110.92231 316.578477,112.432743 315.886195,114.00611 C315.193914,115.579477 314.564567,117.152844 313.998155,118.663277 C313.431742,120.173709 312.991199,121.621207 312.613591,122.942836 C312.235983,124.264464 312.047179,125.334354 312.047179,126.21544 C312.047179,126.530113 311.984244,126.718917 311.92131,126.718917 C312.86533,126.718917 313.998155,125.963701 315.445652,124.390334 C316.830216,122.816966 318.403583,120.865991 320.039885,118.474473 C321.676187,116.082955 323.375423,113.439698 325.011725,110.544702 C326.710962,107.649706 328.284329,104.817645 329.731827,102.111454 C331.242259,99.4052619 332.500953,96.8878743 333.633778,94.6851602 C334.506139,92.9889013 335.191894,91.6285351 335.691041,90.6040617 L335.710622,90.6573401 C335.395949,89.8391891 335.14421,88.9581034 334.955406,87.9511484 C334.766602,86.9441934 334.703667,85.8743037 334.703667,84.7414793 C334.703667,82.5387651 334.955406,80.3989857 335.521818,78.322141 C336.025296,76.2452962 336.717577,74.2943208 337.598663,72.6580189 C338.479749,70.9587823 339.423769,69.6371538 340.493659,68.6301988 C341.563548,67.6232438 342.633438,67.1197663 343.766263,67.1197663 Z M262.580513,82.6646345 C261.007146,82.6646345 259.244975,83.4198508 257.419869,84.993218 C255.531828,86.5665853 253.706722,88.5804953 251.881616,91.0349482 C250.05651,93.4894011 248.357274,96.2585274 246.720972,99.4052619 C245.08467,102.489062 243.763041,105.572861 242.630217,108.593727 C245.021735,107.397967 247.413253,105.698731 249.867706,103.433082 C252.322159,101.167433 254.524873,98.8388497 256.475849,96.3214621 C258.426824,93.8040745 260.063126,91.4125563 261.258885,89.0210381 C262.454644,86.6295199 263.083991,84.7414793 263.083991,83.2939814 C263.083991,82.8534386 262.895187,82.6646345 262.580513,82.6646345 Z" id="learn" fill="#FFFFFF" fill-rule="nonzero"></path>
    </g>
</svg>