<?xml version="1.0" encoding="UTF-8"?>
<svg width="550px" height="300px" viewBox="0 0 550 300" version="1.1" xmlns="http://www.w3.org/2000/svg" xmlns:xlink="http://www.w3.org/1999/xlink">
    <title>1</title>
    <g id="1" stroke="none" stroke-width="1" fill="none" fill-rule="evenodd">
        <path d="M177.511758,154.003056 C179.23497,154.003056 181.164967,154.347698 183.508535,155.105911 C185.783174,155.864125 187.988885,156.760195 190.056739,157.931979 C192.124594,159.103763 193.847805,160.344475 195.295303,161.791973 C196.742801,163.239471 197.432086,164.61804 197.432086,165.996609 C197.432086,169.098391 196.880658,172.338029 195.846731,175.853381 C194.812804,179.299804 193.365306,182.815156 191.711023,186.261579 C189.987811,189.708003 188.057814,193.016569 185.852103,196.118351 C183.646392,199.220132 181.440681,201.97727 179.23497,204.389767 C177.029259,206.802263 174.823548,208.73226 172.755694,210.179758 C170.68784,211.627256 168.826771,212.316541 167.241416,212.316541 C165.035705,212.316541 163.312493,211.765113 162.140709,210.731186 C160.968925,209.697259 160.417498,208.663332 160.417498,207.698333 C160.417498,206.871192 160.693212,206.112979 161.313568,205.492622 C161.933924,204.872266 162.898923,204.596552 164.277492,204.596552 C165.518204,204.596552 166.827845,204.045124 168.4132,202.942269 C169.929626,201.839413 171.514981,200.322987 173.169265,198.461918 C174.823548,196.60085 176.408903,194.395139 177.994257,191.913714 C179.579612,189.432289 181.02711,186.813007 182.405679,184.124797 C183.71532,181.436587 184.887104,178.679448 185.852103,175.853381 C186.817101,173.096242 187.437458,170.408032 187.7821,167.857678 C186.541388,167.650893 185.576389,167.581964 184.887104,167.581964 C180.337825,167.581964 175.512832,168.753748 170.412126,171.166245 C165.311419,173.578741 160.210712,176.749451 155.178934,180.81623 C150.147156,184.88301 145.322163,189.570146 140.703956,194.946567 C136.085748,200.322987 132.018968,205.975122 128.503616,211.834042 C124.988265,217.692961 122.162197,223.689738 120.094343,229.824372 C118.026489,235.959006 116.992562,241.748997 116.992562,247.332203 C116.992562,249.400057 117.475061,251.192197 118.371131,252.708624 C119.267202,254.22505 120.370057,255.465763 121.61077,256.430761 C122.851482,257.39576 124.230051,258.085044 125.677549,258.567544 C127.056119,258.774329 128.296831,258.981114 129.399687,258.981114 C134.569322,258.981114 139.532172,258.085044 144.150379,256.292904 C148.837515,254.500764 153.11108,252.088268 157.108931,249.193272 C161.106782,246.298276 164.759991,243.058638 168.068558,239.474358 C171.377124,235.890077 174.341048,232.374725 176.96033,228.928302 C179.579612,225.481878 181.785323,222.173312 183.577463,219.140459 C185.35366,216.134587 186.79132,213.670376 187.823336,211.882035 L187.883727,211.754056 L187.966045,211.552649 C188.073655,211.302014 188.190318,211.063681 188.316033,210.838282 C189.610484,208.113716 190.936467,205.355672 192.26245,202.597627 C193.985662,199.082275 195.639945,195.635851 197.2253,192.189428 C198.879584,188.743004 200.327081,185.572295 201.567794,182.608371 C202.808506,179.644446 203.842433,177.025165 204.669575,174.681597 C205.427788,172.338029 205.841359,170.545888 205.841359,169.167319 C205.841359,168.202321 206.530644,167.78875 207.909213,167.926607 C209.287782,168.064464 210.804209,168.546963 212.458492,169.305176 C214.112775,170.132318 215.629202,171.166245 217.007771,172.406957 C218.38634,173.64767 219.075625,174.888382 219.075625,176.198023 C219.075625,177.783378 218.593126,179.851232 217.697056,182.401585 C216.800986,184.951939 215.629202,187.846934 214.250632,191.017644 C212.872063,194.188353 211.286708,197.565848 209.425639,201.219057 C207.633499,204.872266 205.77243,208.525475 203.98029,212.178684 L203.222077,213.557253 L203.222077,213.626182 C205.014217,211.420471 206.875286,209.21476 208.736355,207.077977 C210.597423,204.941195 212.389564,203.011197 213.974918,201.287986 C215.629202,199.564774 217.076699,198.186205 218.38634,197.083349 C219.695981,195.980494 220.66098,195.360137 221.350265,195.291209 C222.108478,195.22228 222.935619,195.497994 223.969546,196.118351 C225.003473,196.738707 225.968472,197.49692 226.933471,198.461918 C227.898469,199.426917 228.725611,200.460844 229.414895,201.701557 C230.10418,202.942269 230.448822,204.114053 230.448822,205.354765 C230.448822,206.250836 229.966323,207.83619 228.932396,210.041901 C227.898469,212.247612 226.726685,214.797966 225.279187,217.76189 C224.24526,219.898672 223.211333,222.104383 222.039549,224.379023 C220.936694,226.653662 219.902767,228.928302 219.006697,231.065084 C218.110626,233.270795 217.352413,235.200793 216.732057,237.061861 C216.111701,238.854001 215.835987,240.301499 215.835987,241.404355 L215.835987,242.024711 C215.835987,242.162568 215.835987,242.231496 215.904915,242.231496 C216.800986,242.231496 217.97277,241.542212 219.489196,240.163642 C220.936694,238.785073 222.590977,236.992933 224.314189,234.787222 C226.0374,232.581511 227.829541,230.237943 229.690609,227.549732 C231.50838,224.991388 233.194634,222.498802 234.749371,220.007746 C235.419158,218.385196 236.206038,216.786536 237.134884,215.211537 C238.312163,213.124542 239.697165,211.079092 241.257637,209.139693 C241.394353,208.888952 241.512592,208.661831 241.615234,208.456547 C241.755553,208.129136 242.022827,207.896942 242.395518,207.781502 C242.479454,207.683975 242.564089,207.587597 242.649161,207.491548 C244.785944,205.079052 247.060584,202.873341 249.47308,201.0812 C251.954505,199.220132 254.504858,197.772634 257.12414,196.669778 C259.81235,195.566923 262.431632,195.015495 265.119842,195.015495 C267.394482,195.015495 269.393408,195.360137 270.978762,195.980494 C272.564117,196.60085 273.873758,197.427991 274.907685,198.39299 C275.941612,199.357989 276.699825,200.460844 277.251253,201.701557 C277.802681,202.942269 278.147323,204.045124 278.354109,205.216908 C278.560894,206.319764 278.629822,207.353691 278.560894,208.249761 C278.491965,209.145831 278.354109,209.766187 278.216252,210.179758 L278.28518,210.179758 C278.078395,210.662258 277.733752,210.869043 277.182325,210.869043 C276.630897,210.869043 276.010541,210.731186 275.459113,210.524401 C274.907685,210.317615 274.356257,210.041901 273.942687,209.697259 C273.460187,209.352617 273.32233,209.076903 273.32233,208.939046 C273.391259,208.801189 273.391259,208.456547 273.391259,207.974047 C273.391259,207.422619 273.184473,206.871192 272.839831,206.319764 C272.495189,205.768336 271.943761,205.216908 271.185548,204.803338 C270.427335,204.320838 269.324479,204.114053 267.94591,204.114053 C266.498412,204.114053 264.913057,204.734409 263.258774,206.04405 C261.604491,207.284763 259.950207,208.939046 258.295924,211.0069 C256.641641,213.005825 255.125214,215.349393 253.608788,217.899747 C252.092362,220.4501 250.782721,223.069382 249.679865,225.688664 C248.57701,228.307946 247.68094,230.858299 246.991655,233.270795 C246.30237,235.75222 245.957728,237.820074 245.957728,239.543286 C245.957728,241.748997 246.578084,242.782924 247.887725,242.782924 C249.404151,242.782924 250.920578,242.09364 252.505933,240.783999 C254.091287,239.474358 255.607714,237.751146 257.055212,235.683292 C258.502709,233.615438 259.881279,231.340798 261.19092,228.859373 C262.431632,226.377949 263.603416,224.034381 264.568415,221.759741 C265.533413,219.55403 266.291626,217.555104 266.843054,215.900821 C267.394482,214.177609 267.670196,213.074754 267.670196,212.523326 C267.670196,211.971898 267.94591,211.627256 268.566266,211.558328 C269.186622,211.420471 269.944835,211.489399 270.840905,211.765113 C271.736976,212.040827 272.701974,212.385469 273.80483,212.79904 C274.907685,213.281539 275.872684,213.764039 276.768754,214.315466 C277.664824,214.866894 278.423037,215.48725 279.043393,216.107607 C279.663749,216.727963 279.939463,217.279391 279.939463,217.76189 C279.939463,218.451175 279.594821,219.485102 278.974465,221.001528 C278.354109,222.517954 277.595895,224.241166 276.768754,226.171163 C276.148398,227.480804 275.528041,228.859373 274.907685,230.306871 C274.287329,231.754369 273.735901,233.201867 273.184473,234.580436 C272.701974,235.959006 272.219475,237.268647 271.943761,238.509359 C271.599119,239.750072 271.461262,240.71507 271.461262,241.473283 C271.461262,241.748997 271.461262,241.955783 271.392333,241.955783 C272.219475,241.955783 273.32233,241.266498 274.631971,239.819 C275.941612,238.371502 277.320182,236.579362 278.836608,234.373651 C280.353034,232.16794 281.86946,229.755444 283.385887,227.067233 C284.044441,225.899796 284.689996,224.758358 285.32255,223.637275 C285.76668,222.650093 286.247897,221.653489 286.763382,220.656886 C287.72838,218.65796 288.762307,216.659034 289.796234,214.660109 C291.519446,211.351542 292.966944,208.249761 294.345513,205.354765 C295.655154,202.45977 296.344439,200.116202 296.344439,198.324062 C296.344439,197.359063 297.033724,196.876564 298.343365,196.807635 C299.653006,196.738707 301.169432,197.083349 302.754787,197.772634 C304.40907,198.530847 305.856568,199.564774 307.166209,200.874415 C308.47585,202.252984 309.165134,203.838339 309.165134,205.630479 C309.165134,206.457621 308.958349,207.560476 308.47585,208.801189 C307.99335,210.041901 307.441923,211.489399 306.683709,213.074754 C308.544778,210.869043 310.405847,208.663332 312.266915,206.526549 C314.127984,204.389767 315.851196,202.528698 317.436551,200.874415 C319.021905,199.220132 320.469403,197.841562 321.641187,196.807635 C322.8819,195.773708 323.709041,195.291209 324.260469,195.291209 L324.811897,195.291209 L324.811897,195.291209 C325.018682,195.291209 325.294396,195.360137 325.57011,195.497994 C326.328323,195.773708 327.086536,196.187279 328.051535,196.807635 C328.947605,197.427991 329.774747,198.186205 330.601888,199.082275 C331.360101,199.978345 332.049386,200.943343 332.531885,201.97727 C333.014385,203.011197 333.290099,204.114053 333.290099,205.216908 C333.290099,206.04405 332.807599,207.560476 331.773672,209.766187 C330.808674,211.971898 329.567961,214.522252 328.189392,217.417248 C327.155465,219.55403 326.121538,221.759741 324.949754,224.103309 C323.846898,226.446877 322.812971,228.652588 321.916901,230.789371 C321.020831,232.926153 320.262618,234.925079 319.642262,236.786147 C319.021905,238.647216 318.746192,240.094714 318.746192,241.197569 C318.746192,241.680069 318.81512,241.955783 318.952977,241.955783 C319.849047,241.955783 320.951903,241.335426 322.192615,240.025785 C323.433327,238.785073 324.811897,237.061861 326.328323,235.062936 C327.775821,232.995082 329.292247,230.720442 330.808674,228.239017 L330.996802,227.927008 C331.212272,226.588687 331.53738,225.224994 331.980458,223.827595 C332.876528,221.001528 334.048312,218.175461 335.633666,215.418322 C337.150093,212.661183 339.011161,210.041901 341.147944,207.629405 C343.284727,205.14798 345.559366,203.011197 347.971862,201.219057 C350.384359,199.357989 353.003641,197.910491 355.691851,196.807635 C358.380061,195.70478 361.068272,195.153352 363.82541,195.153352 C366.10005,195.153352 368.030047,195.497994 369.615402,196.118351 C371.200757,196.738707 372.510397,197.565848 373.544325,198.599775 C374.578252,199.564774 375.405393,200.66763 375.956821,201.839413 C376.508249,203.011197 376.92182,204.182981 377.128605,205.285837 C377.33539,206.388692 377.404319,207.422619 377.33539,208.31869 C377.266462,209.21476 377.197533,209.904044 377.059676,210.317615 C376.301463,211.834042 375.54325,212.661183 374.716109,212.867969 C375.681107,213.901896 376.508249,215.07368 377.197533,216.314392 C377.886818,217.555104 378.162532,218.795817 378.162532,219.829744 C378.162532,220.656886 377.886818,222.035455 377.33539,223.965452 C376.783963,225.895449 376.094678,227.963303 375.267536,230.169014 C379.333855,226.748143 382.977094,223.387712 386.197255,220.031125 C386.563587,219.065244 386.987876,218.101532 387.467875,217.141534 C389.535729,213.005825 392.22394,209.283688 395.601435,206.04405 C398.97893,202.804412 402.701067,200.116202 406.905704,198.117276 C411.11034,196.118351 415.383905,195.084423 419.726399,195.084423 C422.552466,195.084423 424.62032,195.70478 425.861033,197.014421 C427.101745,198.255133 427.722101,199.978345 427.722101,202.115127 C427.722101,203.700482 427.308531,205.492622 426.481389,207.491548 C425.654247,209.490474 424.551392,211.627256 423.172822,213.764039 C421.794253,215.96975 420.208898,218.106532 418.34783,220.174386 C416.555689,222.311169 414.625692,224.241166 412.557838,225.964378 C410.558913,227.687589 408.491058,229.204016 406.354276,230.444728 C404.217493,231.685441 402.218568,232.512582 400.288571,232.926153 C400.012857,234.097937 399.943928,235.200793 399.943928,236.372577 C399.943928,237.751146 400.150714,238.92293 400.702141,239.750072 C401.184641,240.646142 402.011782,241.059712 403.183566,241.059712 C405.871777,241.059712 408.491058,240.370428 411.041412,238.991858 C413.660694,237.613289 416.142119,235.890077 418.485686,233.753295 C420.829254,231.616512 423.034965,229.272944 425.171748,226.722591 C427.239602,224.172238 429.100671,221.621884 430.754954,219.209388 C432.409237,216.796891 433.787807,214.59118 434.890662,212.592255 C435.924589,210.869043 436.751731,209.421545 437.23423,208.456547 C437.441016,207.974047 437.923515,207.698333 438.612799,207.698333 C439.302084,207.698333 439.991369,207.83619 440.680654,208.111904 C441.369938,208.387618 441.921366,208.73226 442.334937,209.21476 C442.748508,209.697259 442.955293,210.179758 442.748508,210.662258 L442.393946,211.370623 C441.801159,212.552663 441.013132,214.108681 439.991369,216.038678 C438.750656,218.451175 437.23423,221.070456 435.373161,223.896524 C433.512093,226.791519 431.444239,229.686515 429.100671,232.719368 C426.757103,235.75222 424.137821,238.509359 421.311754,240.990784 C418.485686,243.472209 415.452834,245.471134 412.144267,247.056489 C408.904629,248.641844 405.458206,249.400057 401.873925,249.400057 C398.841073,249.400057 396.221791,248.779701 394.085008,247.47006 C391.879297,246.229348 390.087157,244.575064 388.639659,242.645067 C387.192161,240.71507 386.089306,238.578288 385.400021,236.303648 C384.743315,234.136516 384.399442,232.031952 384.368404,229.989954 C382.963709,231.28509 381.491581,232.588121 379.954672,233.891152 C376.783963,236.579362 373.613253,239.267572 370.235758,241.886854 C368.719332,245.195421 367.065048,248.641844 365.20398,252.226124 C363.342911,255.810405 361.412914,259.256828 359.34506,262.703252 C357.277206,266.149675 355.140423,269.320385 353.003641,272.422166 C350.79793,275.455019 348.661147,278.143229 346.455436,280.417868 C344.249725,282.692508 342.044014,284.553577 339.907232,285.932146 C337.770449,287.310715 335.702595,288 333.772598,288 C331.015459,288 328.671891,287.655358 326.879751,286.897144 C325.087611,286.138931 323.640113,285.31179 322.606186,284.277863 C321.572259,283.243936 320.814046,282.14108 320.400475,280.969296 C319.986904,279.797512 319.780119,278.763585 319.780119,277.867515 C319.780119,276.006446 320.60726,273.938592 322.330472,271.732881 C324.053684,269.52717 326.397252,267.183602 329.292247,264.633249 C332.256171,262.151824 335.633666,259.463614 339.424732,256.706475 C343.284727,253.949336 347.282578,251.05434 351.556143,248.021488 L352.038642,247.056489 C350.866858,247.883631 349.764003,248.572916 348.592219,249.055415 C347.420435,249.537914 346.248651,249.813628 345.076867,249.813628 C342.733299,249.813628 340.665445,249.2622 338.873305,248.228273 C337.081164,247.194346 335.564738,245.746848 334.392954,244.092565 C333.152242,242.369353 332.256171,240.439356 331.635815,238.302574 L331.491038,237.784362 C330.66423,238.921581 329.818133,240.015078 328.947605,241.059712 C326.948679,243.541137 324.880825,245.540063 322.812971,247.125418 C320.745117,248.710773 318.746192,249.468986 316.816194,249.468986 C313.85227,249.468986 311.439774,248.36613 309.440848,246.160419 C307.510851,243.954708 306.545852,240.990784 306.545852,237.199718 C306.545852,235.959006 306.821566,234.373651 307.304066,232.512582 C307.786565,230.651514 308.47585,228.652588 309.37192,226.515805 C310.26799,224.379023 311.16406,222.104383 312.197987,219.691887 C313.231914,217.348319 314.265841,215.07368 315.299768,212.79904 C313.300842,215.142608 311.232988,217.692961 309.027277,220.312243 C306.821566,223.000454 304.753712,225.550807 302.754787,228.170089 C300.82479,230.720442 299.032649,233.132939 297.516223,235.407578 C295.999797,237.682217 294.896941,239.543286 294.138728,241.059712 C294.0698,241.335426 294.000871,241.61114 294.000871,241.886854 C294.000871,242.162568 293.931943,242.300425 293.931943,242.438282 L294.138728,243.196495 C294.207656,243.40328 294.207656,243.610066 294.207656,243.816851 C294.207656,244.092565 294.207656,244.299351 294.276585,244.437207 L294.276585,244.368279 C294.48337,245.126492 294.621227,245.746848 294.759084,246.367205 C294.896941,246.987561 294.896941,247.47006 294.759084,247.952559 C294.621227,248.435059 294.345513,248.779701 293.863014,249.055415 C293.380515,249.331129 292.622302,249.468986 291.657303,249.468986 C290.485519,249.468986 289.313735,249.193272 288.141951,248.641844 C286.901239,248.090416 285.798383,247.263275 284.833385,246.229348 C283.868386,245.195421 283.041244,243.88578 282.35196,242.438282 C282.033828,241.770206 281.803795,241.058081 281.648306,240.308684 L281.621318,240.169157 C281.428318,240.422813 281.235319,240.673713 281.042319,240.921856 C279.112322,243.40328 277.182325,245.471134 275.321256,247.056489 C273.460187,248.641844 271.736976,249.468986 270.151621,249.468986 C268.428409,249.468986 266.911983,249.055415 265.602342,248.159345 C264.292701,247.263275 263.189845,246.298276 262.293775,245.333278 C261.19092,244.092565 260.29485,242.713996 259.605565,241.059712 C258.91628,241.886854 258.02021,242.782924 257.055212,243.747923 C256.090213,244.712921 255.056286,245.608991 253.95343,246.436133 C252.850575,247.263275 251.678791,248.021488 250.438079,248.572916 C249.197366,249.124343 247.956654,249.400057 246.78487,249.400057 C244.441302,249.400057 242.373448,248.848629 240.581307,247.814702 C238.789167,246.780775 237.272741,245.402206 236.100957,243.678994 C234.860244,241.955783 233.964174,240.025785 233.343818,237.889003 C232.805462,236.587975 232.471504,235.228548 232.303933,233.848732 C230.375439,236.44135 228.439546,238.82143 226.450971,240.990784 C224.176332,243.472209 221.970621,245.471134 219.76491,247.056489 C217.559199,248.641844 215.560273,249.400057 213.837061,249.400057 C210.873137,249.400057 208.460641,248.297202 206.530644,246.091491 C204.600646,243.88578 203.635648,240.921856 203.635648,237.13079 C203.635648,235.890077 203.911362,234.304722 204.393861,232.443654 C204.87636,230.582585 205.565645,228.514731 206.392787,226.30902 C207.219928,224.103309 208.184927,221.82867 209.218854,219.485102 C210.252781,217.141534 211.286708,214.797966 212.320635,212.523326 C210.321709,214.797966 208.253855,217.279391 206.117073,219.898672 C203.98029,222.517954 201.912436,225.137236 199.982439,227.618661 C198.052442,230.169014 196.32923,232.581511 194.743875,234.85615 C193.158521,237.13079 192.055665,239.060787 191.297452,240.71507 C191.090667,241.473283 191.021738,242.024711 191.021738,242.438282 L191.228523,243.196495 C191.297452,243.40328 191.36638,243.610066 191.36638,243.816851 C191.36638,244.092565 191.435309,244.299351 191.504237,244.437207 L191.435309,244.368279 C191.642094,245.126492 191.779951,245.746848 191.917808,246.367205 C192.055665,246.987561 192.055665,247.47006 191.917808,247.952559 C191.779951,248.435059 191.504237,248.779701 191.090667,249.055415 C190.608167,249.331129 189.918883,249.468986 188.953884,249.468986 C187.713172,249.468986 186.541388,249.193272 185.300675,248.641844 C184.059963,248.090416 182.957107,247.263275 181.92318,246.229348 C180.958182,245.195421 180.062111,243.88578 179.441755,242.438282 C178.873866,241.245715 178.586701,239.912786 178.503166,238.439495 C176.601741,240.851547 174.547276,243.264733 172.342123,245.67792 C168.688914,249.675771 164.759991,253.260052 160.555355,256.49969 C156.350718,259.739328 151.801439,262.358609 146.976446,264.357535 C142.151453,266.356461 137.119675,267.321459 131.812183,267.321459 C126.297905,267.321459 121.679698,266.494318 117.957561,264.771106 C114.235423,263.047894 111.202571,260.842183 108.859003,258.085044 C106.515435,255.396834 104.861152,252.363981 103.896153,249.124343 C102.931154,245.884705 102.379727,242.713996 102.379727,239.612215 C102.379727,235.131864 103.069011,230.513657 104.447581,225.688664 C105.82615,220.863671 107.756147,216.038678 110.237572,211.213685 C112.718997,206.319764 115.545064,201.5637 118.922559,196.876564 C122.231126,192.189428 125.815406,187.709077 129.606472,183.435512 C133.397538,179.161947 137.395389,175.233024 141.600026,171.648744 C145.735734,168.064464 149.94037,164.962682 154.076079,162.343401 C158.211787,159.724119 162.347495,157.656265 166.345346,156.208767 C170.343197,154.761269 174.065335,154.003056 177.511758,154.003056 Z M347.834006,256.568618 C344.663296,258.981114 341.630443,261.255754 338.804376,263.461465 C335.978309,265.667176 333.565812,267.666102 331.42903,269.458242 C329.361176,271.31931 327.706893,272.973594 326.46618,274.421092 C325.225468,275.868589 324.67404,277.17823 324.67404,278.212157 C324.742968,279.246084 325.156539,279.728584 326.052609,279.728584 C327.706893,279.728584 329.430104,279.108227 331.222244,277.867515 C333.014385,276.626803 334.875453,274.972519 336.736522,272.904665 C338.597591,270.836811 340.458659,268.355386 342.319728,265.529319 C344.180797,262.703252 346.041865,259.739328 347.834006,256.568618 Z M366.651478,204.045124 C365.20398,204.045124 363.618625,204.665481 361.964342,205.975122 C360.310058,207.215834 358.655775,208.939046 357.001492,210.937971 C355.347209,213.005825 353.830782,215.280465 352.314356,217.899747 C350.79793,220.4501 349.488289,223.069382 348.316505,225.757592 C347.144721,228.445803 346.248651,230.996156 345.559366,233.408652 C344.870081,235.890077 344.525439,237.957931 344.525439,239.681143 C344.525439,240.71507 344.663296,241.542212 344.93901,242.09364 C345.214724,242.645067 345.697223,242.920781 346.317579,242.920781 C348.040791,242.920781 349.832931,242.09364 351.556143,240.439356 C353.279355,238.785073 355.002566,236.786147 356.518993,234.373651 C358.104347,231.961155 359.482917,229.47973 360.792558,226.791519 C362.03327,224.103309 363.067197,221.690813 363.756482,219.55403 L363.756482,219.622959 C363.963267,218.726888 364.238981,217.830818 364.445767,217.072605 C364.652552,216.245464 364.790409,215.556179 364.928266,214.935823 L364.928266,214.59118 C364.928266,212.661183 365.272908,211.282614 365.962193,210.524401 C366.651478,209.766187 367.547548,209.352617 368.719332,209.352617 C369.68433,209.352617 370.718257,209.697259 371.821113,210.455472 C371.821113,209.904044 371.821113,209.421545 372.027898,209.145831 C372.096827,209.007974 372.096827,208.663332 372.096827,208.180833 C372.096827,207.629405 371.890041,207.077977 371.545399,206.457621 C371.200757,205.837265 370.649329,205.285837 369.891116,204.803338 C369.132903,204.320838 368.030047,204.045124 366.651478,204.045124 Z M420.898183,201.632628 C419.450685,201.632628 417.86533,202.321913 416.142119,203.769411 C414.418907,205.216908 412.695695,207.009049 411.041412,209.283688 C409.387129,211.558328 407.801774,214.108681 406.354276,216.934748 C404.906778,219.760815 403.597137,222.586883 402.56321,225.344021 C404.768921,224.241166 406.974632,222.655811 409.180343,220.656886 C411.386054,218.589031 413.453908,216.452249 415.246048,214.108681 C417.038189,211.834042 418.554615,209.559402 419.65747,207.422619 C420.760326,205.216908 421.311754,203.493697 421.311754,202.184056 C421.311754,201.839413 421.173897,201.632628 420.898183,201.632628 Z" id="change" fill="#FFFFFF" fill-rule="nonzero"></path>
        <path d="M331.015459,131.394518 C331.911529,131.463446 332.945456,131.73916 334.048312,132.290588 C335.151167,132.842016 336.185094,133.5313 337.081164,134.427371 C337.977234,135.323441 338.459734,136.219511 338.528662,137.184509 C338.597591,138.218436 338.321877,139.597006 337.770449,141.389146 C337.219021,143.181286 336.529737,145.24914 335.564738,147.52378 C338.18402,147.316994 340.527588,147.04128 342.595442,146.558781 C344.663296,146.14521 346.317579,145.73164 347.62722,145.318069 L347.558292,145.386997 C348.936861,144.973426 350.108645,144.766641 350.866858,144.835569 C351.625071,144.835569 352.107571,145.318069 352.107571,146.14521 C352.107571,146.489853 351.762928,147.04128 351.073644,147.730565 C350.384359,148.41985 349.281503,149.109135 347.765077,149.798419 C346.248651,150.487704 344.318654,151.176989 341.906157,151.728416 C339.493661,152.279844 336.667594,152.693415 333.359027,152.762343 C333.014385,153.658413 332.600814,154.554484 332.256171,155.450554 C331.842601,156.346624 331.497958,157.242694 331.084387,158.207692 C329.981532,160.826974 328.878676,163.377328 327.775821,166.065538 C326.672965,168.68482 325.707967,171.235173 324.811897,173.578741 C323.915827,175.922309 323.226542,178.059092 322.744043,179.989089 C322.192615,181.919086 321.98583,183.504441 321.98583,184.676225 C322.054758,185.77908 322.3994,186.261579 323.019757,186.261579 C324.260469,186.192651 325.57011,185.641223 327.017608,184.538368 C328.396177,183.435512 329.843675,182.056943 331.222244,180.40266 C332.600814,178.748376 334.048312,176.887308 335.426881,174.95731 C336.458395,173.461616 337.412725,172.004513 338.289873,170.586001 L338.115091,171.097316 C338.873305,168.822677 339.769375,166.685894 340.734373,164.824826 C341.7683,162.894828 342.802227,161.309474 343.905083,160.068761 C345.007938,158.828049 345.83508,158.207692 346.455436,158.138764 C346.869007,158.138764 347.420435,158.138764 347.902934,158.207692 C348.454362,158.276621 348.936861,158.345549 349.41936,158.483406 C350.177573,157.380551 351.004715,156.346624 351.900785,155.381625 C352.796855,154.416627 353.761854,153.589485 354.726852,152.831272 C355.760779,152.073059 356.794707,151.521631 357.897562,151.039132 C359.000418,150.556632 360.103273,150.349847 361.275057,150.280919 C362.998269,150.21199 364.376838,150.349847 365.479694,150.694489 C366.582549,151.039132 367.478619,151.521631 368.167904,152.210916 C368.857189,152.9002 369.339688,153.658413 369.615402,154.623412 C369.891116,155.588411 370.028973,156.622338 370.097901,157.725193 C370.302209,163.513922 369.160781,170.177378 366.00881,176.718353 C374.901269,176.147886 386.686604,172.962329 398.103309,169.742066 L399.759456,169.274136 C411.053668,166.078951 421.828717,162.972748 428.893885,162.481258 C445.850289,161.309474 449.296712,172.958385 442.334937,180.747302 C437.94764,171.841744 421.367586,174.693487 403.941504,178.192192 L402.288438,178.525234 C401.920686,178.599518 401.552719,178.673934 401.184641,178.748376 L401.184641,178.748376 L393.947151,180.195874 C381.815741,182.539442 370.304686,184.124797 363.342911,181.160873 L363.445276,181.202862 L363.392151,181.283685 C361.558041,183.933628 359.534613,186.10649 357.208277,187.915863 C354.726852,189.776931 352.107571,190.810858 349.41936,190.879787 C347.971862,190.948715 346.524365,190.673001 345.076867,190.190502 C343.629369,189.639074 342.388656,188.880861 341.216872,187.778006 C340.114017,186.67515 339.149018,185.296581 338.390805,183.642298 C337.916613,182.607696 337.577222,181.438293 337.372633,180.15095 C336.018156,181.989124 334.574599,183.690581 333.083313,185.296581 C331.291173,187.226578 329.430104,188.743004 327.500107,189.983717 C325.57011,191.224429 323.640113,191.844785 321.641187,191.913714 C320.814046,191.913714 319.917975,191.775857 318.81512,191.293358 C317.781193,190.879787 316.747266,190.190502 315.782267,189.363361 C314.817269,188.536219 313.990127,187.433363 313.300842,186.192651 C312.611558,184.951939 312.266915,183.435512 312.197987,181.781229 C312.129058,180.81623 312.404772,179.368733 312.887272,177.576592 C313.369771,175.784452 314.059056,173.64767 314.955126,171.304102 C315.851196,168.960534 316.816194,166.41018 317.91905,163.72197 C319.021905,161.03376 320.193689,158.345549 321.296545,155.588411 L322.606186,152.555558 C320.60726,152.348773 318.884048,152.00413 317.298694,151.590559 C315.713339,151.176989 314.403698,150.763418 313.369771,150.280919 C312.335844,149.798419 311.508702,149.384848 310.888346,148.902349 C310.336918,148.488778 309.992276,148.075207 309.992276,147.799494 C309.992276,147.179137 310.061204,146.696638 310.26799,146.420924 C310.474775,146.14521 310.750489,145.938425 311.16406,145.869496 C311.577631,145.800568 312.06013,145.800568 312.680486,145.938425 C313.300842,146.076282 314.059056,146.14521 314.955126,146.351996 C315.989053,146.558781 317.298694,146.765567 318.952977,146.972352 C320.538332,147.179137 322.468329,147.385923 324.67404,147.52378 C326.121538,144.008428 327.36225,140.837718 328.327249,138.149508 C329.292247,135.392369 329.705818,133.462372 329.705818,132.359517 C329.705818,131.670232 330.119389,131.325589 331.015459,131.394518 Z M348.661147,175.922309 C348.109719,177.300878 347.696149,178.679448 347.351506,179.989089 C347.006864,181.29873 346.869007,182.470514 346.937935,183.435512 C346.937935,184.193725 347.144721,184.745153 347.558292,185.158724 C347.834006,185.572295 348.454362,185.77908 349.350432,185.710152 C350.935787,185.641223 352.383284,185.158724 353.692925,184.331582 C355.002566,183.435512 356.243279,182.263728 357.415063,180.81623 C355.691851,180.40266 354.106496,179.782303 352.59007,178.955162 C351.073644,178.12802 349.764003,177.094093 348.661147,175.922309 Z M364.583624,155.864125 C364.170053,155.864125 363.480768,156.484481 362.584698,157.656265 C361.688628,158.828049 360.792558,160.275547 359.896488,161.998758 C359.000418,163.72197 358.242204,165.583039 357.621848,167.513036 C356.863635,169.443033 356.587921,171.235173 356.65685,172.820528 C356.725778,173.854455 357.001492,174.681597 357.483991,175.370881 C357.96649,176.060166 358.931489,176.473737 360.24113,176.611594 C361.068272,175.095167 361.826485,173.440884 362.446841,171.786601 C363.067197,170.132318 363.618625,168.478034 364.101124,166.89268 C364.514695,165.307325 364.859337,163.790898 365.066123,162.274472 C365.272908,160.826974 365.341837,159.586262 365.341837,158.483406 C365.272908,156.691266 364.997194,155.795196 364.583624,155.864125 Z" id="to" fill="#FFFFFF" fill-rule="nonzero"></path>
        <path d="M202.326007,12.0104093 C204.807432,12.0793377 207.288857,12.7686224 209.83921,14.0093349 C212.389564,15.3189758 214.664203,17.4557583 216.663129,20.6264679 C219.213482,24.4175337 220.867765,28.8978842 221.625978,33.9985909 C222.384192,39.0992977 222.590977,44.3378613 222.246335,49.7142819 C221.901692,55.0907025 221.074551,60.3981946 219.833838,65.5678298 C218.524197,70.737465 217.214556,75.4246009 215.767058,79.698166 C215.491345,80.5253077 214.733131,82.6620902 213.561347,86.1085137 C212.389564,89.4860087 210.666352,93.6906453 208.460641,98.6534951 C206.25493,103.616345 203.635648,109.061694 200.464938,114.989542 C197.363157,120.917391 193.64102,126.845239 189.436383,132.63523 L189.203363,132.919 L189.263771,132.961081 C189.265095,132.961999 189.26642,132.962918 189.267745,132.963837 L189.367455,132.842016 C189.371941,132.904817 189.375605,132.970684 189.378442,133.03947 C195.421185,137.224528 202.330421,141.412607 210.045996,145.662711 C218.179555,150.143062 227.002399,153.79627 236.445599,156.760195 C245.8888,159.65519 255.814499,161.516259 266.084841,162.205544 C276.424111,162.963757 286.970167,161.723044 297.723008,158.552335 C298.825864,161.309474 299.308363,163.790898 299.170506,166.134466 C299.032649,168.202321 298.274436,170.270175 296.964795,172.338029 C295.586226,174.405883 292.966944,176.129094 289.038021,177.438735 C286.83231,178.12802 283.592672,178.679448 279.18125,179.093019 C274.769828,179.506589 269.669121,179.437661 263.87913,178.886233 C258.02021,178.403734 251.678791,177.369807 244.648087,175.922309 C237.686312,174.405883 230.448822,172.2691 223.004548,169.443033 C215.560273,166.616966 207.909213,162.963757 200.120296,158.483406 C194.323306,155.200155 188.67904,151.344186 183.159083,146.943915 C182.008233,147.059414 180.681826,146.559439 179.166041,145.180212 L175.306047,149.040206 L175.306047,149.040206 C174.065335,150.349847 172.686765,151.521631 171.239267,152.624486 L168.688914,154.761269 C165.035705,157.449479 160.279641,159.999833 154.558578,162.274472 C148.837515,164.549112 142.220382,165.376253 134.707179,164.480183 C128.641473,163.515185 123.747552,161.791973 120.163272,159.379476 C116.578991,156.96698 113.270425,153.451628 110.306501,148.764492 C108.721146,146.351996 107.756147,143.801642 107.342576,140.975575 C106.929006,138.218436 106.860077,135.668083 107.135791,133.462372 C107.411505,130.912019 107.894004,128.292737 108.652217,125.604527 C110.099715,121.468818 112.098641,117.884538 114.786851,114.782757 C117.199348,112.094547 120.438986,109.68205 124.436837,107.476339 C128.503616,105.270628 133.673252,104.167773 140.083599,104.167773 C144.081451,104.167773 147.665731,104.650272 150.905369,105.684199 C154.145007,106.649197 157.17786,107.958838 160.072855,109.613122 C162.898923,111.267405 165.587133,113.059545 168.068558,115.127399 C170.549983,117.195253 172.962479,119.263107 175.374976,121.39989 C176.477831,119.814535 177.511758,118.298109 178.476757,116.712754 C179.372827,115.127399 180.337825,113.542044 181.371752,111.818833 C181.92318,110.991691 182.681393,109.68205 183.508535,107.958838 C184.335677,106.235627 185.300675,104.443486 186.265674,102.513489 C187.230672,100.583492 188.195671,98.6534951 189.022812,96.6545695 C189.849954,94.6556438 190.608167,93.0702891 191.159595,91.7606481 L191.779951,90.4510072 L192.400307,88.9345809 C193.503163,85.8327998 194.53709,82.9378041 195.364232,80.3185222 C196.191373,77.6992404 196.880658,75.5624579 197.294229,73.8392461 C199.431011,64.8785451 200.602795,56.2624865 200.809581,47.7842848 C201.016366,39.3750115 200.464938,32.2753792 199.224226,26.6232447 C198.534941,24.0728914 197.7078,22.0050373 196.811729,20.350754 C195.915659,18.6964708 195.019589,17.4557583 194.123519,16.6286167 C193.158521,15.6636181 192.055665,14.8364765 190.95281,14.2850487 C191.917808,13.8714779 193.434234,13.3889786 195.502089,12.7686224 C197.569943,12.2171947 199.844582,11.9414808 202.326007,12.0104093 Z M134.707179,117.539896 C132.84611,117.953466 131.05397,118.71168 129.26183,119.883464 C127.469689,120.986319 126.160049,122.778459 125.332907,125.190956 C124.643622,127.327738 124.505765,129.257735 124.919336,131.049876 C125.332907,132.842016 125.953263,134.358442 126.849333,135.599155 C127.676475,136.908795 128.641473,137.942723 129.606472,138.769864 C130.571471,139.597006 131.329684,140.217362 131.743255,140.493076 C133.052895,141.320218 134.500393,142.009502 136.223605,142.423073 C142.220382,144.077356 148.423944,143.457 154.972149,140.493076 C158.97,137.942723 162.55428,135.185584 165.793918,132.22166 C164.34642,130.912019 162.692137,129.464521 160.693212,127.741309 C158.694286,126.018097 156.626432,124.432743 154.420721,122.985245 C152.21501,121.468818 150.009299,120.159177 147.803588,119.056322 C145.597877,117.953466 143.530023,117.264182 141.531097,117.126325 C139.118601,116.850611 136.843961,116.988468 134.707179,117.539896 Z M350.31543,59.2264107 C351.418286,59.2264107 352.727927,59.3642676 354.244353,59.6399815 C355.760779,59.9156954 357.208277,60.2603377 358.517918,60.8117655 C359.827559,61.3631932 360.999343,62.0524779 361.895413,62.948548 C362.860412,63.8446181 363.273983,64.9474736 363.273983,66.2571145 C363.273983,67.4288985 362.92934,68.6006825 362.308984,69.9103234 C361.688628,71.1510358 360.930415,72.5296052 360.172202,74.0460315 C359.138274,75.7003148 358.242204,77.4235265 357.415063,79.2845952 C356.587921,81.1456639 356.17435,82.8688756 356.17435,84.5231589 C356.17435,85.7638713 356.312207,86.7977984 356.65685,87.6938685 C357.001492,88.5899386 357.415063,89.3481517 357.96649,89.9685079 C358.517918,90.5888642 359.069346,91.0713634 359.758631,91.5538627 C360.378987,91.9674335 360.999343,92.3810044 361.619699,92.7256467 C362.860412,93.3460029 363.82541,94.0352876 364.652552,94.7245723 C365.410765,95.413857 365.824336,96.447784 365.824336,97.8263534 C365.824336,98.7224235 365.479694,99.963136 364.72148,101.686348 C364.032196,103.409559 363.136126,105.270628 362.102199,107.338482 C361.481842,108.78598 360.792558,110.302406 360.034345,111.95669 C359.34506,113.610973 358.655775,115.127399 358.104347,116.643826 C357.55292,118.160252 357.07042,119.60775 356.65685,120.986319 C356.243279,122.364888 356.036493,123.536672 356.036493,124.432743 C356.036493,125.259884 356.243279,125.604527 356.587921,125.604527 C357.690777,125.604527 359.000418,124.777385 360.585772,123.123102 C362.171127,121.468818 363.894339,119.332036 365.686479,116.712754 C367.478619,114.093472 369.339688,111.198476 371.131828,108.027767 C371.677482,107.098135 372.211285,106.174428 372.734975,105.256646 L372.441469,105.959913 C373.406468,103.616345 374.440395,101.272777 375.612179,98.8602805 C376.783963,96.447784 378.024675,94.1042161 379.265387,91.6917197 C381.264313,87.6938685 383.056453,84.0406596 384.710737,80.5942361 C386.296091,77.1478127 387.123233,74.3906739 387.123233,72.1849629 C387.123233,71.0131789 387.950375,70.3928227 389.535729,70.3238942 C391.121084,70.2549657 392.913224,70.6685366 394.843222,71.4956782 C396.773219,72.3917483 398.565359,73.6324607 400.150714,75.2178155 C401.736068,76.8720988 402.56321,78.7331675 402.56321,80.86995 C402.56321,81.903877 402.287496,83.1445895 401.736068,84.6610158 C401.184641,86.1774421 400.495356,87.9006539 399.599286,89.7617225 C401.804997,87.0735122 404.079636,84.5231589 406.285347,81.9728055 C408.491058,79.4224521 410.558913,77.2167411 412.419981,75.2178155 C414.349978,73.2188899 416.004262,71.6335351 417.451759,70.3928227 C418.899257,69.1521102 419.933184,68.531754 420.622469,68.531754 L421.242825,68.531754 L421.242825,68.531754 C421.518539,68.531754 421.794253,68.6006825 422.138895,68.7385394 C423.034965,69.0142533 423.999964,69.5656811 425.033891,70.3238942 C426.136747,71.0821074 427.101745,71.9781775 428.066744,73.0121045 C429.031742,74.0460315 429.789955,75.2178155 430.410312,76.458528 C431.030668,77.6992404 431.306382,79.0088813 431.306382,80.3185222 C431.306382,81.3524493 430.686026,83.1445895 429.514242,85.7638713 C428.342458,88.3831531 426.89496,91.4160058 425.240676,94.9313577 C423.999964,97.4817111 422.759252,100.100993 421.380682,102.858132 C420.071041,105.61527 418.830329,108.303481 417.727473,110.853834 C416.624618,113.404187 415.728548,115.816684 415.039263,118.022395 C414.349978,120.228106 413.936407,121.951318 413.936407,123.260959 C413.936407,123.812386 414.005336,124.157029 414.143193,124.157029 C415.246048,124.157029 416.555689,123.398816 418.072116,121.882389 C419.588542,120.365963 421.242825,118.367037 422.966037,115.954541 C424.758177,113.473116 426.550317,110.784906 428.342458,107.752053 C430.134598,104.788129 431.857809,101.755276 433.443164,98.791352 C435.028519,95.8274278 436.476017,93.0702891 437.716729,90.5199357 C438.879897,88.1289794 439.800739,86.1620948 440.479253,84.6192818 L440.581363,84.385 L440.40494,84.3853019 C441.094224,83.075661 441.990294,82.2485194 443.024222,81.8349486 C444.058149,81.4213778 444.954219,81.4213778 445.712432,81.6970916 C446.539573,82.041734 447.091001,82.6620902 447.435644,83.5581603 C447.780286,84.5231589 447.642429,85.6260144 447.022073,87.0045838 C446.768126,87.5378724 446.458043,88.1647205 446.098719,88.8851281 L445.778828,89.5255327 C445.226114,90.6310614 444.576926,91.9275276 443.851363,93.4149314 C442.472794,96.2409986 440.887439,99.4117082 439.02637,102.858132 C437.165302,106.304555 435.166376,109.819907 432.891737,113.404187 C430.686026,116.988468 428.342458,120.228106 425.929961,123.19203 C423.517465,126.155954 421.03604,128.568451 418.554615,130.429519 C416.07319,132.290588 413.660694,133.255587 411.386054,133.255587 C407.870702,133.255587 404.906778,131.945946 402.632139,129.326664 C400.288571,126.707382 399.185715,123.123102 399.185715,118.642751 C399.185715,117.126325 399.461429,115.265256 400.081785,113.059545 C400.702141,110.853834 401.529283,108.441338 402.494282,105.890984 C403.528209,103.271702 404.631064,100.583492 405.871777,97.757425 C407.112489,94.9313577 408.353201,92.174219 409.593914,89.5549371 C407.181418,92.3810044 404.699993,95.3449285 402.080711,98.5156381 C399.461429,101.686348 396.980004,104.788129 394.636436,107.88991 C392.292868,110.991691 390.225014,113.817758 388.432874,116.574897 C386.640734,119.263107 385.262164,121.537747 384.435023,123.329887 C384.366094,123.674529 384.297166,124.019172 384.297166,124.294886 C384.228237,124.570599 384.228237,124.777385 384.228237,124.915242 L384.435023,125.811312 C384.490165,125.97674 384.545308,126.186283 384.56516,126.404648 L384.57288,126.569525 C384.57288,126.845239 384.641808,127.120953 384.710737,127.327738 L384.710737,127.189881 C384.917522,128.085951 385.124307,128.844165 385.262164,129.602378 C385.400021,130.291662 385.400021,130.980947 385.262164,131.463446 C385.124307,132.014874 384.779665,132.428445 384.159309,132.773087 C383.607881,133.11773 382.711811,133.255587 381.540027,133.255587 C380.161458,133.255587 378.782888,132.910944 377.33539,132.22166 C375.887892,131.532375 374.578252,130.567376 373.406468,129.326664 C372.234684,128.085951 371.200757,126.569525 370.442543,124.846313 C370.079527,124.021277 369.795513,123.148839 369.598066,122.221435 C369.328532,122.573095 369.058396,122.919316 368.78826,123.260959 C366.444692,126.224883 364.101124,128.637379 361.688628,130.498448 C359.276131,132.359517 357.07042,133.324515 355.002566,133.324515 C352.934712,133.324515 351.004715,132.910944 349.350432,132.152731 C347.696149,131.325589 346.248651,130.360591 345.076867,129.119878 C343.905083,127.879166 342.940084,126.500597 342.319728,124.915242 C341.699372,123.329887 341.354729,121.675604 341.354729,120.021321 C341.354729,117.953466 341.7683,115.403113 342.66437,112.508117 C343.56044,109.613122 344.456511,106.787054 345.490438,104.098844 C346.73115,100.997063 348.109719,97.757425 349.695074,94.4488584 C349.143646,94.1042161 348.52329,93.6906453 347.902934,93.2770745 C347.282578,92.8635036 346.662222,92.3120759 346.041865,91.7606481 C345.490438,92.9324321 344.801153,94.1731446 344.180797,95.4827855 C343.544488,96.6917713 342.614478,98.4294203 341.336541,100.587281 C340.940698,101.286173 340.533426,101.997155 340.114017,102.720275 C338.18402,106.166698 336.047237,109.750979 333.772598,113.404187 C331.497958,117.057396 329.223319,120.365963 326.879751,123.329887 C324.536183,126.293811 322.261543,128.706308 319.986904,130.636305 C317.781193,132.566302 315.713339,133.5313 313.85227,133.5313 C311.784416,133.5313 309.923347,132.979873 308.406921,131.945946 C306.890495,130.912019 305.511925,129.740235 304.477998,128.568451 C303.168357,127.120953 302.13443,125.397741 301.23836,123.467744 C300.34229,124.501671 299.377292,125.535598 298.205508,126.707382 C297.033724,127.879166 295.793011,128.913093 294.48337,129.94702 C293.173729,130.980947 291.726232,131.808089 290.278734,132.497373 C288.831236,133.186658 287.383738,133.5313 285.93624,133.5313 C283.110173,133.5313 280.628748,132.910944 278.491965,131.670232 C276.355183,130.429519 274.563043,128.775236 273.115545,126.707382 C271.668047,124.639528 270.565192,122.364888 269.806978,119.814535 C269.472221,118.508982 269.218753,117.235944 269.046573,115.987526 C266.796301,118.614978 264.383762,121.072399 261.811276,123.329887 C258.433781,126.293811 254.780572,128.706308 250.851649,130.567376 C246.922727,132.428445 242.855947,133.393444 238.65131,133.393444 C235.06703,133.393444 231.965249,132.63523 229.345967,131.118804 C226.726685,129.602378 224.589903,127.672381 222.866691,125.397741 C221.143479,123.123102 219.833838,120.572748 219.006697,117.81561 C218.179555,115.058471 217.765984,112.439189 217.765984,109.888836 C217.765984,104.857057 219.006697,99.825279 221.419193,94.9313577 C223.900618,89.9685079 227.071327,85.5570859 231.138107,81.6970916 C235.135958,77.7681689 239.616309,74.6663878 244.648087,72.2538913 C249.679865,69.8413949 254.780572,68.6006825 259.950207,68.6006825 C263.327702,68.6006825 265.809127,69.3588956 267.256625,70.875322 C268.704123,72.3917483 269.462336,74.3906739 269.462336,76.9410273 C269.462336,78.8020959 268.979837,80.9388785 268.014838,83.3513749 C267.04984,85.7638713 265.740199,88.2452962 264.085915,90.864578 C262.431632,93.4838599 260.501635,96.0342132 258.364852,98.5156381 C256.22807,101.065991 253.884502,103.340631 251.472006,105.408485 C249.059509,107.476339 246.578084,109.268479 244.027731,110.784906 C241.477378,112.232403 239.064881,113.266331 236.790242,113.74883 C236.514528,115.127399 236.376671,116.505969 236.376671,117.884538 C236.376671,119.538821 236.652385,120.917391 237.272741,121.951318 C237.824169,122.985245 238.789167,123.536672 240.167737,123.536672 C243.338446,123.536672 246.509156,122.709531 249.610937,121.124176 C252.712718,119.469893 255.676642,117.402039 258.502709,114.920614 C261.328777,112.37026 263.948058,109.613122 266.429483,106.511341 C268.038793,104.544406 269.532136,102.577472 270.928313,100.648143 C271.899658,97.8682157 273.158189,95.1353926 274.7009,92.4499328 C276.561968,89.2102948 278.698751,86.1085137 281.249104,83.213518 C283.799458,80.3185222 286.487668,77.6992404 289.451592,75.5624579 C292.346588,73.3567469 295.448369,71.6335351 298.619078,70.3238942 C301.789788,69.0142533 304.960498,68.3938971 308.131207,68.3938971 C310.888346,68.3938971 313.231914,68.7385394 315.092983,69.4967526 C317.02298,70.2549657 318.539406,71.2199643 319.780119,72.3917483 C321.020831,73.5635323 321.916901,74.8731732 322.606186,76.320671 C323.226542,77.7681689 323.709041,79.1467383 323.984755,80.4563792 C324.260469,81.7660201 324.329398,83.0067325 324.260469,84.1095881 C324.191541,85.2124436 324.053684,85.9706567 323.846898,86.3842275 L323.984755,86.3842275 C323.77797,86.9356553 323.29547,87.2113692 322.606186,87.2113692 C321.916901,87.1424407 321.227616,87.0045838 320.538332,86.7977984 C319.849047,86.5220845 319.228691,86.2463706 318.677263,85.8327998 C318.125835,85.419229 317.91905,85.1435151 317.987978,84.9367297 C318.056907,84.7988727 318.056907,84.3853019 318.056907,83.7649457 C317.987978,83.1445895 317.781193,82.4553048 317.436551,81.7660201 C317.02298,81.0767354 316.402624,80.4563792 315.506553,79.9049514 C314.610483,79.3535237 313.300842,79.0778098 311.646559,79.0778098 C309.923347,79.0778098 308.062279,79.836023 306.063353,81.3524493 C304.064428,82.8688756 302.13443,84.8678012 300.135505,87.2802976 C298.205508,89.6927941 296.344439,92.4499328 294.48337,95.4827855 C292.69123,98.5156381 291.105875,101.617419 289.796234,104.788129 C288.486594,107.958838 287.383738,110.922763 286.556596,113.886687 C285.729455,116.781682 285.315884,119.332036 285.315884,121.39989 C285.315884,124.019172 286.074097,125.328813 287.590523,125.328813 C289.382664,125.328813 291.243732,124.501671 293.104801,122.916316 C294.96587,121.330961 296.826938,119.332036 298.55015,116.850611 C300.34229,114.369186 301.927645,111.680976 303.444071,108.717052 C304.960498,105.753127 306.270139,102.92706 307.441923,100.307778 C308.613707,97.619568 309.509777,95.2760001 310.130133,93.2770745 C310.750489,91.2781489 311.095131,89.8995795 311.095131,89.2792232 C311.095131,88.658867 311.439774,88.2452962 312.197987,88.1074393 C312.887272,87.9695823 313.783342,88.0385108 314.886197,88.3142247 C315.989053,88.5899386 317.160837,89.0035094 318.401549,89.5549371 C319.71119,90.1063649 320.882974,90.7267211 321.916901,91.4160058 C323.019757,92.1052905 323.915827,92.7945752 324.605111,93.5527883 C325.294396,94.3110015 325.707967,95.0002862 325.707967,95.5517139 C325.707967,96.3788556 325.363325,97.619568 324.605111,99.4806367 C323.846898,101.272777 322.950828,103.340631 321.98583,105.61527 C321.296545,107.200625 320.538332,108.854909 319.780119,110.57812 C319.021905,112.301332 318.332621,114.024544 317.712264,115.678827 C317.091908,117.33311 316.609409,118.918465 316.195838,120.365963 C315.782267,121.813461 315.575482,122.985245 315.575482,123.950243 C315.575482,124.294886 315.506553,124.501671 315.437625,124.501671 C316.471552,124.501671 317.712264,123.674529 319.297619,121.951318 C320.814046,120.228106 322.537257,118.091323 324.329398,115.472042 C326.121538,112.85276 327.982606,109.957764 329.774747,106.787054 C331.635815,103.616345 333.359027,100.514564 334.944382,97.5506396 C336.598665,94.5867154 337.977234,91.8295766 339.217947,89.4170802 C340.173457,87.5591432 340.92456,86.0691401 341.471255,84.9470708 L341.492586,85.0056582 C341.147944,84.1095881 340.87223,83.1445895 340.665445,82.041734 C340.458659,80.9388785 340.389731,79.7670945 340.389731,78.526382 C340.389731,76.1138856 340.665445,73.7703177 341.285801,71.4956782 C341.837229,69.2210387 342.595442,67.0842562 343.56044,65.292116 C344.525439,63.4310473 345.559366,61.9835494 346.73115,60.8806939 C347.902934,59.7778384 349.074718,59.2264107 350.31543,59.2264107 Z M261.397705,76.2517426 C259.674493,76.2517426 257.744496,77.0788842 255.745571,78.8020959 C253.677717,80.5253077 251.678791,82.7310187 249.679865,85.419229 C247.68094,88.1074393 245.819871,91.1402919 244.027731,94.5867154 C242.235591,97.9642104 240.788093,101.341705 239.54738,104.650272 C242.166662,103.340631 244.785944,101.479562 247.474154,98.9981374 C250.162365,96.5167125 252.574861,93.9663592 254.711644,91.2092204 C256.848426,88.4520816 258.640566,85.8327998 259.950207,83.213518 C261.259848,80.5942361 261.949133,78.526382 261.949133,76.9410273 C261.949133,76.458528 261.742347,76.2517426 261.397705,76.2517426 Z" id="learn" fill="#FFFFFF" fill-rule="nonzero"></path>
    </g>
</svg>