<?xml version="1.0" encoding="utf-8"?>
<!-- Generator: Adobe Illustrator 26.1.0, SVG Export Plug-In . SVG Version: 6.00 Build 0)  -->
<svg version="1.1" id="Calque_1" xmlns="http://www.w3.org/2000/svg" xmlns:xlink="http://www.w3.org/1999/xlink" x="0px" y="0px"
	 viewBox="0 0 1024 530" style="enable-background:new 0 0 1024 530;" xml:space="preserve">
<style type="text/css">
	.st0{fill:#4CC7DB;}
	.st1{fill:none;}
	.st2{fill:#001E57;}
	.st3{fill:none;stroke:#001E57;stroke-width:6;stroke-linecap:round;stroke-linejoin:round;stroke-miterlimit:10;}
</style>
<g>
	<g>
		<path class="st2" d="M428.7,206.9c0-0.7-0.9-1.4-2.5-2c-1.7-0.6-4.1-1.2-7.1-1.7c-3-0.5-6.6-0.9-10.7-1.3
			c-4.1-0.4-8.5-0.8-13.3-1.3c-6.6-0.6-13.5-1.3-20.9-2.1c-7.3-0.8-14.6-1.9-21.7-3.3c-7.2-1.4-14-3.3-20.5-5.6
			c-6.5-2.3-12.3-5.2-17.2-8.8c-4.9-3.6-8.9-7.9-11.8-13.1c-2.9-5.1-4.4-11.3-4.4-18.4c0-6,1.9-12.6,5.7-19.9
			c3.8-7.3,9.1-14.6,15.8-22c6.7-7.4,14.7-14.6,23.9-21.6c9.2-7,19.1-13.2,29.9-18.6c10.7-5.4,22-9.7,33.8-13
			c11.8-3.2,23.6-4.9,35.5-4.9c6.3,0,12.1,0.8,17.5,2.4c5.4,1.6,10.1,4.1,14.1,7.4c4,3.3,7.1,7.5,9.4,12.6
			c2.3,5.1,3.4,11.1,3.4,18.2c0,4.7-1.3,10.1-4,16.3c-2.7,6.1-6.2,12.4-10.5,18.9c-4.4,6.5-9.2,12.8-14.6,19
			c-5.4,6.2-10.9,11.7-16.3,16.6c-5.5,4.9-10.7,8.8-15.8,11.8c-5,3-9.3,4.5-12.8,4.5c-1.3,0-2.9-0.7-4.8-2.1
			c-1.9-1.4-3.7-3.1-5.4-5.1c-1.7-2-3.2-4.1-4.4-6.2c-1.2-2.1-1.8-4-1.8-5.6c0-1.7,0.5-3.1,1.5-4.2c1-1.1,2.6-1.7,4.7-1.7
			c1.5,0,4-1.3,7.6-3.8c3.6-2.5,7.7-5.8,12.3-9.9c4.6-4.1,9.3-8.8,14.2-14c4.9-5.2,9.4-10.6,13.5-16c4-5.4,7.4-10.7,10-15.9
			c2.7-5.2,4-9.8,4-13.8c0-6.2-1.8-10.8-5.3-13.7c-3.6-2.9-8-4.4-13.5-4.4c-11.5,0-22.3,1.9-32.5,5.7c-10.2,3.8-19.6,8.7-28.2,14.7
			c-8.6,6-16.3,12.7-23.1,20.1c-6.8,7.4-12.6,14.7-17.3,21.9c-4.7,7.2-8.4,13.8-10.9,19.9c-2.5,6.1-3.8,10.9-3.8,14.3
			c0,4.6,1.8,8.3,5.3,11.2c3.6,2.8,8.2,5.2,14,7c5.8,1.8,12.3,3.3,19.7,4.2c7.3,1,14.8,1.9,22.3,2.8c7.6,0.8,15,1.8,22.2,2.8
			c7.2,1,13.6,2.5,19.2,4.3c5.6,1.8,10.1,4.3,13.5,7.3c3.4,3,5.1,7,5.1,11.8c0,4.8-1.4,9.7-4.3,14.7c-2.9,5-6.7,9.8-11.5,14.4
			c-4.8,4.6-10.3,9-16.5,13.1c-6.2,4.1-12.6,7.7-19.2,10.7c-6.6,3-13.1,5.4-19.7,7.2c-6.5,1.7-12.5,2.6-17.9,2.6
			c-6.6,0-11.9-1.4-15.8-4.3c-4-2.9-7.1-6.2-9.2-10c-2.2-3.8-3.6-7.5-4.3-11c-0.7-3.6-1-6.1-1-7.6c0-2.3,0.7-4,2-5.2
			c1.3-1.2,2.8-1.7,4.4-1.7c1.7,0,3.2,0.6,4.5,1.7c1.3,1.2,2,2.9,2,5.2c0,1,0.1,2.1,0.3,3.3c0.2,1.2,0.7,2.2,1.6,3.2
			c0.8,1,2.2,1.8,4,2.4c1.8,0.6,4.2,0.9,7.3,0.9c2.8,0,6.4-0.8,11-2.3c4.6-1.5,9.4-3.5,14.6-5.9c5.2-2.4,10.5-5.2,15.8-8.3
			c5.3-3.1,10.1-6.2,14.3-9.2c4.2-3,7.7-6,10.4-8.8C427.3,211.2,428.7,208.8,428.7,206.9z"/>
		<path class="st2" d="M558,116.8c0,0.7-0.8,1.8-2.3,3.2c-1.5,1.4-3.9,2.8-7.1,4.1c-3.2,1.3-7.3,2.5-12.3,3.6c-5,1-11,1.5-17.9,1.5
			c-0.8,1.9-1.7,3.7-2.6,5.6c-0.9,1.9-1.8,3.7-2.7,5.6c-2.5,5.3-5,10.7-7.5,16.1c-2.5,5.4-4.8,10.6-6.8,15.4
			c-2,4.8-3.6,9.3-4.9,13.2c-1.3,4-1.9,7.3-1.9,9.8c0,2.2,0.7,3.3,2.1,3.3c2.6,0,5.4-1.1,8.4-3.2c3-2.1,6.1-4.9,9.1-8.2
			c3.1-3.3,6.1-7,9.1-11.1c3-4,5.8-8,8.2-11.8c2.5-3.8,4.6-7.3,6.3-10.4c1.8-3.1,3-5.4,3.8-6.9c0.4-0.6,1.1-1,2.1-1
			c1,0,2.1,0.2,3.1,0.6c1.1,0.4,2,1,2.6,1.7c0.7,0.7,0.9,1.4,0.6,2.2c-0.9,1.9-2.4,4.6-4.4,8.3c-2,3.7-4.4,7.7-7.3,12.2
			c-2.9,4.5-6.1,9-9.6,13.6c-3.5,4.6-7.3,8.8-11.2,12.6c-3.9,3.8-7.9,6.9-12.1,9.3c-4.1,2.4-8.3,3.6-12.3,3.6
			c-1.7,0-3.6-0.5-5.8-1.5c-2.2-1-4.3-2.4-6.2-4.3c-2-1.9-3.6-4.1-4.9-6.8c-1.3-2.7-2-5.8-2-9.3c0-2,0.6-5,1.8-8.7
			c1.2-3.8,2.8-8.1,4.8-12.9c2-4.8,4.3-10,6.8-15.5c2.6-5.5,5.1-11.1,7.7-16.7l2.9-6.3c-4.1-0.6-7.7-1.5-10.9-2.4
			c-3.2-1-5.9-2-8.1-3c-2.2-1-3.9-2-5-3c-1.2-1-1.7-1.7-1.7-2.3c0-1.3,0.2-2.3,0.6-2.9c0.4-0.6,1-1,1.9-1.1c0.8-0.1,1.9-0.1,3.2,0.2
			c1.3,0.3,2.9,0.6,4.7,1c2.1,0.5,4.9,1,8.2,1.6c3.3,0.6,7.3,1.1,11.9,1.6c3.3-7.3,6.1-13.7,8.3-19.3c2.2-5.6,3.3-9.6,3.3-11.9
			c0-1.5,0.9-2.1,2.8-2c1.9,0.2,3.9,0.9,6.2,2.1c2.3,1.2,4.3,2.8,6.2,4.7c1.9,2,2.8,3.9,2.8,5.9c0,2.1-0.6,5-1.9,8.7
			c-1.3,3.7-3,7.9-5.1,12.6c5.5-0.2,10.4-0.6,14.7-1.4c4.3-0.7,7.8-1.5,10.5-2.2l-0.1,0.1c3-0.7,5.3-1,7-0.9
			C557.1,114.1,558,115,558,116.8z"/>
		<path class="st2" d="M524.1,182.3c0-4,0.7-8.2,2-12.5c1.3-4.3,3.2-8.6,5.6-12.8c2.4-4.2,5.2-8.2,8.4-11.9
			c3.3-3.8,6.8-7.1,10.5-9.9c3.8-2.8,7.7-5.1,11.8-6.8c4.1-1.7,8.2-2.5,12.3-2.5c3.5,0,6.5,0.5,9,1.5c2.5,1,4.5,2.2,6.1,3.8
			c1.6,1.5,2.8,3.2,3.6,5.1c0.8,1.9,1.4,3.7,1.7,5.4c0.3,1.7,0.4,3.3,0.3,4.7c-0.1,1.4-0.3,2.4-0.6,2.9h0.1c-0.3,0.7-0.9,1.1-1.7,1
			c-0.9,0-1.8-0.2-2.6-0.6c-0.9-0.3-1.7-0.7-2.4-1.3c-0.7-0.5-1-0.9-0.9-1.2c0.1-0.2,0.1-0.7,0.1-1.5c0-0.8-0.3-1.7-0.8-2.6
			c-0.5-0.9-1.3-1.7-2.5-2.4c-1.2-0.7-2.8-1-5-1c-2.2,0-4.6,1-7.2,2.9c-2.6,2-5.1,4.5-7.6,7.6c-2.5,3.1-4.9,6.6-7.3,10.6
			c-2.3,4-4.3,8-6.1,12c-1.7,4-3.1,7.9-4.2,11.7c-1.1,3.8-1.6,7-1.6,9.7c0,3.3,1,5,2.9,5c2.3,0,4.7-1,7.1-3.1c2.4-2,4.8-4.6,7-7.8
			c2.3-3.2,4.4-6.6,6.3-10.5c2-3.8,3.7-7.4,5.2-10.9c1.5-3.4,2.6-6.5,3.5-9.1c0.8-2.6,1.3-4.3,1.3-5.2c0-0.8,0.5-1.3,1.4-1.5
			c0.9-0.2,2.1-0.1,3.5,0.3c1.4,0.4,2.9,0.9,4.6,1.6c1.7,0.7,3.2,1.5,4.6,2.4c1.4,0.9,2.5,1.8,3.5,2.8c0.9,1,1.4,1.8,1.4,2.6
			c0,1-0.5,2.7-1.5,5c-1,2.3-2.1,5-3.4,7.9c-0.9,2-1.9,4.2-2.9,6.4c-1,2.2-1.9,4.4-2.6,6.6c-0.8,2.1-1.4,4.1-1.9,6
			c-0.5,1.9-0.8,3.4-0.8,4.6c0,0.5,0,0.7-0.1,0.7c1.3,0,2.9-1.1,4.9-3.3c2-2.2,4.2-5,6.5-8.4c2.3-3.4,4.7-7.1,7-11.2
			c2.4-4.1,4.6-8.1,6.7-11.9c2.1-3.9,3.9-7.3,5.5-10.5c1.6-3.1,2.7-5.4,3.5-6.9c0.4-0.7,1.1-1.1,2.2-1.1c1.1,0,2.1,0.2,3.1,0.6
			c1,0.4,1.9,1,2.6,1.7c0.7,0.7,0.9,1.5,0.6,2.2c-0.8,1.9-2.2,4.6-4.1,8.4c-1.9,3.7-4.1,7.8-6.6,12.3c-2.5,4.5-5.2,9-8.2,13.7
			c-2.9,4.7-5.9,8.9-8.9,12.8c-3,3.8-6,7-8.8,9.4c-2.9,2.5-5.5,3.7-7.9,3.7c-2.7,0-5-0.7-7-2c-2-1.3-3.7-2.8-5.1-4.4
			c-1.7-1.9-3.1-4-4.2-6.6c-1.1,1.3-2.4,2.7-3.9,4.2c-1.5,1.5-3.1,2.9-4.8,4.2c-1.7,1.3-3.5,2.4-5.4,3.3c-1.9,0.9-3.8,1.3-5.6,1.3
			c-3.6,0-6.8-0.8-9.6-2.4c-2.7-1.6-5-3.8-6.9-6.4c-1.9-2.7-3.3-5.6-4.3-8.9C524.6,188.8,524.1,185.6,524.1,182.3z"/>
		<path class="st2" d="M671.9,146.8c0.4-0.7,1.1-1.1,2.1-1.1c1,0,2.1,0.2,3.1,0.6c1.1,0.4,2,1,2.6,1.7c0.7,0.7,0.9,1.4,0.5,2.2
			c-0.8,1.9-2.2,4.6-4,8.3c-1.8,3.7-4,7.7-6.4,12.1c-2.5,4.4-5.1,8.9-8,13.6c-2.9,4.7-5.8,8.9-8.9,12.7c-3,3.8-6.1,6.9-9.1,9.3
			c-3.1,2.4-6,3.6-8.6,3.6c-2.7,0-5.1-0.5-7.3-1.5c-2.1-1-4-2.3-5.5-3.9c-1.5-1.6-2.7-3.4-3.6-5.4c-0.8-2-1.3-4.1-1.3-6.3
			c0-2.7,0.6-5.9,1.7-9.7c1.1-3.8,2.3-7.4,3.6-10.8c1.6-4,3.4-8.1,5.4-12.4c-0.7-0.5-1.5-1-2.3-1.5c-0.8-0.6-1.6-1.2-2.4-2
			c-0.7,1.5-1.6,3.1-2.4,4.8c-0.9,1.7-2.3,4.2-4.1,7.3c-0.4,0.7-1.1,0.9-2.1,0.8c-1-0.1-2-0.4-3.1-1c-1-0.6-1.9-1.2-2.5-2
			c-0.6-0.7-0.7-1.4-0.3-2.1v0.1c1.4-2.4,2.5-4.5,3.4-6.1c0.9-1.7,1.6-3.1,2.2-4.4c0.6-1.3,1.1-2.3,1.6-3.3c0.5-0.9,0.9-1.9,1.4-2.9
			c-0.5-1.1-0.8-2.4-1-3.8c-0.2-1.4-0.3-3-0.3-4.5c0-3.1,0.4-6.1,1.1-9.1c0.7-3,1.7-5.6,2.9-8c1.2-2.4,2.6-4.3,4-5.7
			c1.5-1.4,3-2.2,4.6-2.2c1.4,0,3.1,0.2,5,0.5c2,0.3,3.8,0.8,5.5,1.5c1.7,0.7,3.2,1.6,4.4,2.8c1.2,1.2,1.8,2.6,1.8,4.3
			c0,1.5-0.4,3-1.3,4.7c-0.8,1.6-1.8,3.4-2.8,5.4c-1.3,2.1-2.5,4.4-3.6,6.8c-1.1,2.4-1.6,4.6-1.6,6.8c0,1.6,0.2,3,0.6,4.1
			c0.4,1.2,1,2.1,1.7,2.9c0.7,0.8,1.5,1.5,2.3,2c0.8,0.6,1.6,1.1,2.4,1.5c1.6,0.8,2.9,1.7,3.9,2.6c1,0.9,1.5,2.2,1.5,4
			c0,1.1-0.5,2.8-1.4,5c-0.9,2.2-2,4.6-3.3,7.3c-0.8,1.9-1.7,3.8-2.6,5.9c-0.9,2.1-1.8,4.1-2.5,6.1c-0.7,2-1.4,3.8-1.9,5.6
			c-0.5,1.8-0.8,3.3-0.8,4.5c0,1,0.2,1.5,0.7,1.5c1.4,0,3.1-1.1,5.2-3.2c2-2.1,4.2-4.9,6.6-8.2c2.3-3.3,4.7-7.1,7-11.2
			c2.4-4.1,4.6-8.1,6.8-12c2.1-3.9,4-7.5,5.6-10.8c1.6-3.3,2.8-5.8,3.6-7.6V146.8z"/>
		<path class="st2" d="M741.5,116.8c0,0.7-0.8,1.8-2.3,3.2c-1.5,1.4-3.9,2.8-7.1,4.1c-3.2,1.3-7.3,2.5-12.3,3.6
			c-5,1-11,1.5-17.9,1.5c-0.8,1.9-1.7,3.7-2.6,5.6c-0.9,1.9-1.8,3.7-2.7,5.6c-2.5,5.3-5,10.7-7.5,16.1c-2.5,5.4-4.8,10.6-6.8,15.4
			c-2,4.8-3.6,9.3-4.9,13.2c-1.3,4-1.9,7.3-1.9,9.8c0,2.2,0.7,3.3,2.1,3.3c2.6,0,5.4-1.1,8.4-3.2c3-2.1,6.1-4.9,9.1-8.2
			c3.1-3.3,6.1-7,9.1-11.1c3-4,5.8-8,8.2-11.8c2.5-3.8,4.6-7.3,6.3-10.4c1.8-3.1,3-5.4,3.8-6.9c0.4-0.6,1.1-1,2.1-1
			c1,0,2.1,0.2,3.1,0.6c1.1,0.4,2,1,2.6,1.7c0.7,0.7,0.9,1.4,0.6,2.2c-0.9,1.9-2.4,4.6-4.4,8.3c-2,3.7-4.4,7.7-7.3,12.2
			c-2.9,4.5-6.1,9-9.6,13.6c-3.5,4.6-7.3,8.8-11.2,12.6c-3.9,3.8-7.9,6.9-12.1,9.3c-4.1,2.4-8.3,3.6-12.3,3.6
			c-1.7,0-3.6-0.5-5.8-1.5c-2.2-1-4.3-2.4-6.2-4.3c-2-1.9-3.6-4.1-4.9-6.8c-1.3-2.7-2-5.8-2-9.3c0-2,0.6-5,1.8-8.7
			c1.2-3.8,2.8-8.1,4.8-12.9c2-4.8,4.3-10,6.8-15.5c2.6-5.5,5.1-11.1,7.7-16.7l2.9-6.3c-4.1-0.6-7.7-1.5-10.9-2.4s-5.9-2-8.1-3
			c-2.2-1-3.9-2-5-3c-1.2-1-1.7-1.7-1.7-2.3c0-1.3,0.2-2.3,0.6-2.9c0.4-0.6,1-1,1.9-1.1c0.8-0.1,1.9-0.1,3.2,0.2
			c1.3,0.3,2.9,0.6,4.7,1c2.1,0.5,4.9,1,8.2,1.6c3.3,0.6,7.3,1.1,11.9,1.6c3.3-7.3,6.1-13.7,8.3-19.3c2.2-5.6,3.3-9.6,3.3-11.9
			c0-1.5,0.9-2.1,2.8-2c1.9,0.2,3.9,0.9,6.2,2.1c2.3,1.2,4.3,2.8,6.2,4.7c1.9,2,2.8,3.9,2.8,5.9c0,2.1-0.6,5-1.9,8.7
			c-1.3,3.7-3,7.9-5.1,12.6c5.5-0.2,10.4-0.6,14.7-1.4c4.3-0.7,7.8-1.5,10.5-2.2l-0.1,0.1c3-0.7,5.3-1,7-0.9
			C740.7,114.1,741.5,115,741.5,116.8z"/>
	</g>
	<g>
		<path class="st0" d="M519.7,241.3h13l8,24.7h0.2l6.7-24.7h13.3l7.3,24.7h0.2l7.4-24.7h12.3l-14,39.4h-12l-8.2-26.2h-0.2l-7.3,26.2
			h-12.2L519.7,241.3z"/>
		<path class="st0" d="M591.2,228.9c0-1.9,0.7-3.6,2.1-5c1.4-1.4,3-2.1,5-2.1c1.9,0,3.6,0.7,5,2.1c1.4,1.4,2.1,3,2.1,5
			c0,1.9-0.7,3.6-2.1,5c-1.4,1.4-3,2.1-5,2.1c-1.9,0-3.6-0.7-5-2.1C591.9,232.5,591.2,230.8,591.2,228.9z M592.1,241.3h12.2v39.4
			h-12.2V241.3z"/>
		<path class="st0" d="M639.9,251h-10.7v13.1c0,1.1,0.1,2.1,0.2,3c0.1,0.9,0.4,1.7,0.7,2.3c0.4,0.6,1,1.1,1.7,1.5
			c0.8,0.4,1.8,0.5,3.1,0.5c0.6,0,1.5-0.1,2.6-0.2c1.1-0.1,1.9-0.4,2.4-0.9v10.1c-1.4,0.5-2.8,0.8-4.2,1c-1.5,0.2-2.9,0.2-4.3,0.2
			c-2.1,0-3.9-0.2-5.7-0.6c-1.7-0.4-3.2-1.1-4.5-2.1c-1.3-0.9-2.3-2.2-3-3.7c-0.7-1.5-1.1-3.4-1.1-5.5V251h-7.8v-9.7h7.8v-11.7h12.2
			v11.7h10.7V251z"/>
		<path class="st0" d="M658.3,228.9v17.8h0.2c0.3-0.8,0.7-1.5,1.4-2.3c0.6-0.8,1.4-1.4,2.4-2c0.9-0.6,2-1.1,3.2-1.5
			c1.2-0.4,2.6-0.6,4.1-0.6c3.1,0,5.6,0.5,7.5,1.4c1.9,0.9,3.4,2.3,4.4,3.9c1.1,1.7,1.8,3.7,2.1,5.9c0.4,2.3,0.6,4.7,0.6,7.4v21.7
			h-12.2v-19.3c0-1.1,0-2.3-0.1-3.5c-0.1-1.2-0.3-2.3-0.7-3.4c-0.4-1-1-1.9-1.9-2.5c-0.8-0.6-2-1-3.6-1c-1.6,0-2.8,0.3-3.8,0.9
			c-1,0.6-1.7,1.3-2.2,2.3c-0.5,0.9-0.9,2-1,3.2c-0.2,1.2-0.2,2.4-0.2,3.7v19.6h-12.2v-51.8H658.3z"/>
	</g>
	<g>
		<g>
			<path class="st0" d="M674.4,380.6c2.3-0.3,4.7,0,7,0.8c2.3,0.8,4.4,1.8,6.3,3.2c1.9,1.3,3.4,2.9,4.7,4.8c1.2,1.9,2,3.7,2.2,5.5
				c0.2,1.8-0.1,3.8-0.9,6c-0.8,2.2-1.8,4.6-3.1,7.1c-1.2,2.6-2.4,5.3-3.4,8c-1,2.7-1.4,5-1.2,6.9c0.3,2.6-0.9,4.1-3.7,4.5
				c-2.7,0.4-5.8,0.1-9.2-1c-3.4-1-6.6-2.5-9.6-4.6c-3-2-4.6-4.1-4.8-6.1c-0.3-2.3,0.2-5.5,1.2-9.4c1.1-3.9,2.5-7.8,4.1-11.5
				c1.7-3.7,3.5-7,5.4-9.8C671.4,382.2,673,380.7,674.4,380.6z M713,239.9c-0.2-1.8,1.2-2.7,4.2-2.6c3,0,6.4,0.8,10.1,2.2
				c3.8,1.5,7.3,3.5,10.6,6c3.3,2.6,5.1,5.5,5.4,8.8c0.2,2.1-0.1,4.8-1.1,8.3c-0.9,3.5-2.3,7.5-4.1,11.9c-1.8,4.4-3.9,9.2-6.2,14.4
				c-2.3,5.2-4.7,10.6-7.2,16.1c-3,6.6-6,13.2-8.9,19.9c-2.9,6.7-5.5,13.1-7.8,19.2c-2.2,6.1-4,11.6-5.3,16.6
				c-1.3,5-1.8,9.2-1.4,12.4c0.2,1.8-1,2.6-3.6,2.5c-2.6-0.1-5.5-1-8.6-2.5c-3.2-1.5-6.2-3.7-9-6.4c-2.9-2.7-4.5-5.8-4.9-9
				c-0.3-2.5,0-5.6,0.9-9.4c0.9-3.8,2.2-8,3.8-12.7c1.6-4.7,3.6-9.7,5.8-15c2.3-5.3,4.6-10.8,7-16.5c2.6-6.3,5.2-12.5,7.8-18.8
				c2.6-6.3,4.8-12.2,6.8-17.9c1.9-5.7,3.4-10.9,4.5-15.7C713,247,713.3,243.1,713,239.9z"/>
		</g>
		<g>
			<path class="st0" d="M491.8,263.5c0.7-0.4,1.4-0.6,2.1-0.9c6.5-1.9,9.9,2.2,12.1,7.4c2.1,5.1,3.2,11.4,3.2,18.9
				c0,6.5-1,13.4-3.1,20.9c-2,7.5-4.9,15.1-8.5,22.8c-3.6,7.7-7.8,15.5-12.6,23.2c-4.8,7.7-10,15.2-15.5,22.3
				c-5.5,7.2-11.2,13.8-17.1,20c-5.9,6.2-11.7,11.6-17.5,16.2c-5.8,4.6-11.4,8.3-16.7,11.1c-5.4,2.8-10.2,4.3-14.6,4.6
				c-1.6,0.2-3.3-0.2-5.4-1.2c-2.1-1-4-2.5-5.9-4.6c-1.9-2.1-3.5-4.9-4.8-8.3c-1.3-3.4-2-7.4-2-12.2c0-2.5,0.3-5.1,1-7.8
				s1.6-5.6,2.8-8.5c1.2-2.9,2.5-5.9,4-9c1.5-3.1,3-6.1,4.6-9.2c-4.4,6.3-9,12.8-13.9,19.5c-4.9,6.7-9.8,12.9-14.6,18.6
				c-4.8,5.7-9.3,10.6-13.5,14.6c-4.2,4.1-7.9,6.5-10.9,7.4l0.4-0.1c-1.3,0.7-3.1,0.8-5.3,0.1c-2.3-0.6-4.5-2-6.8-4
				c-2.2-2-4.2-4.9-5.8-8.4c-1.6-3.6-2.5-8-2.5-13.3c0-2.5,0.6-5.7,1.7-9.5c1.1-3.8,2.7-7.9,4.6-12.4c1.9-4.5,4.1-9.3,6.6-14.3
				c2.5-5.1,5-10.2,7.7-15.5c2.6-5.5,5.1-10.9,7.9-16.3c2.1-4,3.3-6.3,4.8-9.7c2.1-4.8,3.7-9.2,5-13.3c1.3-4,1.9-7.4,1.9-10.1
				c0-3.5-1.4-5.2-4.2-5.2c-4.4,0-9,1.3-13.9,4c-4.9,2.6-9.8,6.2-14.7,10.5c-4.9,4.4-9.5,9.3-14,14.9c-4.5,5.6-8.4,11.3-11.8,17.1
				c-3.4,5.8-6.1,11.5-8.2,17.2c-2,5.6-3.1,10.6-3.1,15.1c0,4.4,0.2,8,0.6,11c0.4,3,0.9,5.4,1.5,7.4c0.6,2,1.2,3.5,1.9,4.6
				c0.7,1.1,1.3,2.1,1.8,2.8c0.5,0.7,0.9,1.4,1.3,1.9c0.4,0.5,0.6,1.3,0.6,2.3c0,1.1-0.6,2-1.7,2.9c-1.1,0.8-2.7,1.2-4.7,1.2
				c-2,0-4.4-0.5-7.3-1.6c-2.9-1-5.6-3-8.3-5.8c-2.6-2.8-4.9-6.7-6.8-11.6c-1.9-4.9-2.8-11.3-2.8-19c0-6.5,1.3-13,3.8-19.7
				c2.5-6.7,5.9-13.1,10.3-19.3c4.4-6.2,9.5-12,15.5-17.4c6-5.4,12.4-10.1,19.3-14.1c6.9-4,14.1-7.2,21.7-9.5
				c7.6-2.3,15.1-3.5,22.7-3.5c3.4,0,6.2,0.5,8.5,1.6c2.3,1,4.2,2.4,5.7,4.1c1.5,1.7,2.5,3.5,3.3,5.5c0.7,2,1.3,4,1.6,5.9
				c0.3,2,0.5,3.8,0.5,5.4c0,1.6,0.1,2.9,0.1,3.7c0,3.6-0.7,7.5-2,11.9c-1.3,4.4-0.9,3.3-3,8.2c-2.1,4.9-4.4,9.8-7,14.8
				c-2.6,5-5.2,9.9-7.7,14.6c-2.4,4.3-4.7,8.7-7,13.1c-2.3,4.5-4.3,8.7-6.1,12.8c-1.8,4.1-3.3,7.9-4.4,11.5
				c-1.1,3.6-1.7,6.6-1.7,9.2c0,1.6,0,2.8,0.1,3.8c0.1,1,0.2,1.8,0.4,2.4c2.1-1.7,4.6-4.4,7.7-7.9c3-3.5,6.3-7.5,9.8-11.9
				c3.5-4.4,7.2-9.2,10.9-14.3c3.8-5.1,7.5-10.2,11.1-15.2c8.5-11.8,17.4-24.6,26.9-38.5v-0.5c-0.2-1.1-0.3-2.1-0.3-2.9
				c0-0.9,0.1-1.6,0.5-2.1c0.4-0.5,1-1,2-1.2c1-0.3,2.4-0.4,4.3-0.4c1.6,0,3.3,0.3,4.9,1c1.6,0.7,3,1.6,4.2,2.9
				c1.2,1.2,2.2,2.7,3,4.4c0.8,1.7,1.2,3.5,1.2,5.5c0,3.6-0.4,7.2-1.2,10.8c-0.8,3.6-1.9,7-3.2,10.5c-1.3,3.4-2.8,6.8-4.5,10
				c-1.7,3.3-3.4,6.6-5.1,9.8c-1.6,2.9-3.1,5.8-4.5,8.7c-1.5,2.9-2.8,5.8-3.9,8.6c-1.1,2.8-2.1,5.6-2.7,8.3s-1,5.5-1,8.2
				c0,2.6,0.1,4.5,0.4,5.7c0.3,1.1,0.6,2,1,2.7c2.3-0.5,5.1-2,8.5-4.7c3.4-2.7,7.1-6.2,11.1-10.6c4-4.4,8.2-9.4,12.5-15.2
				c4.3-5.7,8.6-11.9,12.7-18.5c4.1-6.6,8.1-13.5,11.8-20.6c3.7-7.2,7-14.3,9.8-21.5c2.8-7.2,5.1-14.1,6.8-21
				c1.7-6.8,2.5-13.2,2.5-19.1c0-6.1-0.6-11.5,2.1-17.4C486.4,268,488.8,265.1,491.8,263.5z"/>
			<path class="st0" d="M581.3,351.7c0.4-0.7,1.1-1.1,2.1-1.1c1,0,2.1,0.2,3.1,0.6c1,0.4,1.8,1,2.5,1.7c0.7,0.7,0.9,1.5,0.6,2.2
				c-0.9,1.8-2.4,4.5-4.4,8.1c-2,3.6-4.5,7.6-7.4,11.9c-2.9,4.3-6,8.8-9.3,13.3c-3.3,4.6-6.7,8.7-10.1,12.4
				c-3.4,3.7-6.8,6.8-10.1,9.2c-3.3,2.4-6.3,3.6-8.9,3.6c-4.4,0-8.1-1.7-11-5c-2.9-3.3-4.3-7.8-4.3-13.5c0-1.9,0.4-4.3,1.2-7.1
				c0.8-2.8,1.8-5.9,3.1-9.2c1.3-3.3,2.7-6.8,4.3-10.3c1.6-3.6,3.1-7.1,4.7-10.5c-3,3.5-6.1,7.2-9.4,11.1c-3.3,4-6.4,7.9-9.3,11.7
				c-2.9,3.8-5.6,7.4-7.9,10.9c-2.4,3.4-4.1,6.4-5.2,8.8c-0.3,1.1-0.4,2-0.4,2.6l0.3,1.1c0.1,0.3,0.2,0.6,0.2,1c0,0.4,0.1,0.7,0.2,1
				l-0.1-0.1c0.3,1.1,0.5,2.1,0.7,3c0.2,0.9,0.2,1.7,0,2.4c-0.2,0.7-0.6,1.2-1.3,1.6s-1.8,0.6-3.2,0.6c-1.8,0-3.7-0.4-5.5-1.3
				c-1.9-0.9-3.6-2.1-5.1-3.7c-1.5-1.6-2.8-3.5-3.8-5.7c-1-2.2-1.5-4.7-1.5-7.4c0-2.3,0.6-5.3,1.8-9c1.2-3.7,2.8-7.9,4.7-12.6
				c2-4.6,4.2-9.6,6.7-14.9c2.5-5.3,5.1-10.7,7.7-16.1c2.6-5.3,5.1-10.5,7.5-15.7c2.5-5.2,4.6-10,6.6-14.5c1.9-4.5,3.5-8.5,4.6-12
				c1.2-3.5,1.8-6.3,1.8-8.3c0-1.5,1-2.1,3.1-1.9c2,0.2,4.3,0.9,6.8,2.1c2.5,1.2,4.8,2.8,6.8,4.6c2,1.9,3.1,3.8,3.1,5.7
				c0,2.4-0.7,5.5-2,9.4c-1.4,3.9-3.1,8.2-5.2,13c-2.1,4.8-4.5,9.9-7.3,15.4c-2.7,5.5-5.5,11-8.2,16.5l-1.1,2.1v0.1
				c2.7-3.4,5.5-6.7,8.3-9.9c2.8-3.2,5.5-6.1,7.9-8.7c2.5-2.6,4.7-4.7,6.6-6.4c1.9-1.6,3.4-2.6,4.4-2.7c1.1-0.1,2.4,0.3,4,1.2
				c1.5,0.9,3.1,2.1,4.5,3.5c1.5,1.4,2.7,3,3.8,4.9c1,1.8,1.6,3.6,1.6,5.5c0,1.4-0.8,3.7-2.3,7c-1.6,3.3-3.4,7.2-5.5,11.7
				c-1.6,3.2-3.2,6.5-4.9,10c-1.7,3.5-3.2,6.8-4.6,10.1c-1.4,3.3-2.5,6.3-3.4,9c-0.9,2.7-1.3,4.9-1.3,6.6v1c0,0.2,0,0.3,0.1,0.3
				c1.4,0,3.2-1,5.4-3.1c2.2-2.1,4.7-4.8,7.3-8.1c2.6-3.3,5.4-6.9,8.1-10.9c2.8-4,5.4-7.8,7.8-11.6c2.4-3.8,4.5-7.2,6.3-10.2
				C579.3,355.4,580.6,353.2,581.3,351.7z"/>
		</g>
		<path class="st0" d="M482.9,354c3-7.2,4.5-15.2,9.2-21.3c3.1-4,5-8.7,6.9-13.4c1.8-4.3,4.4-7.9,6.4-12c2.2-4.8,3.2-10,3.6-15.3
			c1.1-13.1-0.7-26.5-5.2-38.9c-3.5-9.5-10.7-17.9-20.9-20.9c-14.9-4.3-10.4,16.7-8.3,24.6c11.5,43-3.8,78.6-3.8,78.6L482.9,354z"/>
		<path class="st0" d="M659.8,351.9c0.9-1.6,2-2.7,3.2-3.2c1.2-0.5,2.4-0.6,3.4-0.2c1,0.4,1.8,1.2,2.2,2.4c0.4,1.2,0.2,2.7-0.5,4.4
			c-1.6,3.7-4,7.6-7.2,11.6c-3.1,4-6.8,8.1-10.9,12.2c-4.1,4.1-8.6,8.2-13.5,12.3c-4.9,4.1-9.9,8.2-15.1,12.3
			c-4,8.2-8.3,16.3-12.9,24.4c-4.6,8.1-9.2,15.3-13.9,21.7c-4.6,6.4-9.2,11.6-13.7,15.6c-4.5,4-8.7,5.9-12.5,5.9
			c-4.1,0-7.5-0.5-10.2-1.6c-2.7-1-4.9-2.3-6.5-3.9c-1.6-1.6-2.7-3.2-3.3-5c-0.6-1.8-1-3.3-1-4.7c0-2.6,1.2-5.5,3.5-8.6
			c2.3-3.1,5.5-6.4,9.5-9.9c4-3.5,8.6-7.2,13.9-11.1c5.2-3.9,10.8-8,16.7-12.2c1.1-2.1,2-3.7,2.7-4.9c0.7-1.1,1.2-2,1.6-2.7
			c0.4-0.7,0.8-1.3,1-1.8c0.3-0.5,0.6-1.1,1-1.8c0.4-0.7,0.8-1.6,1.3-2.8c0.5-1.2,1.2-2.8,2.1-4.9c-2.1,2.6-4.2,4.9-6.2,7.2
			c-2,2.2-4,4.2-5.8,5.9c-1.8,1.7-3.5,3-5.1,4c-1.6,1-2.9,1.5-4,1.5c-2.1,0-4.1-0.7-5.9-2c-1.9-1.3-3.5-2.9-5-4.9
			c-1.5-1.9-2.6-4-3.4-6.2c-0.8-2.2-1.2-4.1-1.2-5.9c0-2.5,0.4-5.1,1.1-7.9c0.7-2.8,1.7-5.6,2.9-8.6c1.2-3,2.6-5.9,4.1-9
			c1.5-3,3-6,4.6-8.9c1.2-2.4,2.4-4.7,3.6-7c5.8-11.3,8.9-24.7,4.9-37.1c-0.1-0.4-0.3-0.9-0.2-1.3c0.1-0.5,0.5-0.9,1-1.2
			c3.9-2.9,11.1-2.8,14.9,0.1c8.7,6.7,9.8,17.4,6.7,27.4c-3.5,11.4-8.4,23.4-13.9,34c-1.8,3.6-3.6,7-5.4,10.5
			c-1.8,3.4-3.3,6.5-4.7,9.2s-2.4,4.9-3.2,6.6c-0.8,1.7-1,2.5-0.8,2.5c0.6,0,1.8-0.9,3.6-2.7c1.7-1.8,3.8-4.1,6.1-6.9
			c2.3-2.8,4.8-6,7.5-9.6c2.7-3.6,5.3-7.1,7.9-10.7c2.6-3.6,5-7,7.3-10.2c2.3-3.2,4.1-5.9,5.6-8.1c1.8-4.8,3.3-8.7,4.4-11.6
			c1.1-2.9,1.7-4.6,1.7-4.9c0-2.8,0.5-4.9,1.5-6.1c1-1.2,2.4-1.8,4.2-1.8c1.3,0,2.7,0.5,4.3,1.6c1.6,1,3.1,2.3,4.5,3.9
			c1.4,1.6,2.6,3.3,3.6,5.1c1,1.9,1.4,3.6,1.4,5.3c0,1-0.3,2.7-1,5.1c-0.7,2.4-1.6,5.2-2.8,8.5c-1.2,3.3-2.6,7-4.2,11.1
			c-1.6,4.1-3.3,8.2-5.1,12.4c6.8-5.6,12.8-11,17.8-16.3c5-5.3,9-10.9,11.9-16.6V351.9z M555.9,459.8c2.5,0,5-0.9,7.7-2.8
			c2.7-1.9,5.4-4.4,8.3-7.5c2.8-3.1,5.6-6.8,8.5-11.1c2.8-4.2,5.6-8.7,8.3-13.5c-4.8,3.6-9.4,7.1-13.6,10.4
			c-4.2,3.3-7.9,6.3-11.1,9.1c-3.1,2.8-5.6,5.3-7.4,7.5c-1.8,2.2-2.7,4.1-2.7,5.7C553.9,459.1,554.5,459.8,555.9,459.8z"/>
	</g>
</g>
</svg>
