<?xml version="1.0" encoding="UTF-8"?>
<svg width="550px" height="300px" viewBox="0 0 550 300" version="1.1" xmlns="http://www.w3.org/2000/svg" xmlns:xlink="http://www.w3.org/1999/xlink">
    <title>2</title>
    <g id="2" stroke="none" stroke-width="1" fill="none" fill-rule="evenodd">
        <path d="M196.688331,184.931582 C213.240971,184.931582 217.738537,192.237631 217.738537,198.251441 C217.738537,208.448337 198.968312,240.220197 194.574325,250.84576 C213.666625,243.179779 231.857955,224.933297 241.326807,212.584313 C243.379453,207.302174 244.763868,201.340147 244.763868,194.417154 C249.844845,194.417154 260.232051,195.384305 260.232051,200.048471 C260.232051,205.350857 254.670834,215.46247 248.714236,225.441022 L248.025475,226.591522 C242.736032,235.403181 237.292667,243.961963 235.271433,248.846564 C260.770536,240.825447 292.584202,207.706438 292.584202,188.707841 C292.584202,188.707841 307.085234,192.839137 307.085234,197.96504 C307.085234,202.242546 298.331559,212.494481 286.636009,223.155969 C291.181207,220.343952 296.325387,218.73678 301.623636,219.286673 C304.905087,219.624864 307.098337,220.454118 308.59087,221.30022 C310.771016,219.608017 312.967386,218.637121 315.04021,218.854887 C318.456438,219.207429 320.487456,221.843072 320.487456,221.843072 C313.592603,226.94464 295.775178,251.376757 301.077663,251.891531 C305.953573,252.362818 310.955997,250.720554 315.018228,248.049108 C316.38527,241.098603 337.254476,225.899233 331.52671,216.038292 C331.52671,216.038292 342.507934,214.456531 343.558074,222.915675 C344.227311,230.522102 325.057418,247.908438 323.06172,249.876819 L322.958856,249.980402 C322.919188,250.021709 322.897423,250.047111 322.894728,250.055815 C327.613179,249.931022 335.827726,246.856728 345.530439,238.670259 C348.285085,236.346899 351.82672,233.072344 355.397666,229.665197 L356.067377,229.025003 C360.085484,225.176915 364.080756,221.225769 366.974394,218.337118 L368.324415,216.98673 C369.503299,215.805178 370.396431,214.903874 370.890211,214.405555 L371.047719,214.24661 C371.094571,214.199339 371.135711,214.157846 371.170953,214.12233 L371.258803,214.033914 L371.258803,214.033914 L371.289113,214.00353 C372.059714,213.232929 372.926406,212.870403 374.014608,212.870403 C375.590129,212.870403 378.895915,213.623533 382.146167,215.426803 L382.146167,215.426803 L382.533028,215.640824 L382.301536,215.927226 C380.674225,217.958244 346.021502,263.582208 351.447533,264.077015 C355.157027,264.41583 365.516779,261.220487 370.532239,261.697199 C382.881202,262.871508 374.020848,276.070317 362.573519,275.134364 C357.447616,274.709441 354.584224,272.581708 353.14348,269.396972 C324.724828,277.742553 263.988966,304.112092 217.152631,299.452294 C192.492765,296.996354 204.275166,277.182853 210.275248,270.249937 C210.275248,270.249937 213.774464,284.847684 231.114554,286.709606 C262.496433,290.077789 309.194248,277.452407 338.866453,268.108477 C337.595429,266.685204 337.167387,264.629851 338.631841,261.904356 C338.660544,261.850279 338.69195,261.793498 338.724789,261.735422 L338.92885,261.382718 C338.92885,261.382718 344.381098,254.272109 350.161705,246.463925 L350.793373,245.609664 L350.793373,245.609664 L351.426168,244.751719 C351.637123,244.465329 351.84802,244.178633 352.058611,243.891939 L352.689225,243.032176 C356.56933,237.734157 360.260747,232.542594 362.203505,229.40994 C357.177438,234.387338 352.3448,238.826251 347.806052,242.622477 C337.501834,251.243852 329.782094,255.630975 324.866468,255.669037 L324.866468,255.669037 L324.839014,255.669037 C322.809075,255.669037 319.440642,253.561009 317.202294,251.611627 C310.950659,254.64127 303.509284,256.73401 296.770408,256.035931 C293.329845,255.680269 291.512848,253.818346 291.86539,249.794372 C288.124074,253.387184 282.880865,256.6443 276.842721,256.019084 C266.175372,254.913295 269.046138,241.083942 277.948109,230.692292 C262.332343,243.598897 244.361113,255.153639 234.691142,255.153639 C230.010753,255.153639 224.051852,249.751319 224.051852,247.96864 C224.051852,245.330869 224.749433,242.759528 225.888553,240.153561 C214.093739,249.205925 202.149685,256.503283 196.29835,256.503283 C191.621705,256.503283 184.19835,251.228876 184.19835,249.449942 C184.19835,235.07308 219.390182,189.957026 195.407323,189.957026 C166.709133,189.957026 145.064284,224.288406 170.464176,231.943253 C170.464176,231.943253 145.064284,238.323333 145.064284,219.183718 C145.064284,207.162962 157.658467,184.931582 196.688331,184.931582 Z M367.278866,266.117393 C364.960823,265.910235 361.938318,266.6877 359.821193,267.657971 C361.409817,269.481832 362.715783,270.331677 364.985157,270.525107 C368.256625,270.808389 371.479423,266.501133 367.278866,266.117393 Z M305.033001,223.894681 C291.505984,220.098456 275.488709,250.292299 281.865044,250.955578 C286.269015,251.414819 293.025348,242.551344 297.702617,235.107398 C297.702617,235.107398 297.709481,235.138597 297.713224,235.138597 C299.9514,231.228185 302.690622,227.176133 305.588957,224.084992 C305.40239,224.015731 305.215824,223.946471 305.033001,223.894681 Z" id="way" fill="#FFFFFF" fill-rule="nonzero"></path>
        <path d="M230.332376,114.497311 L232.300094,114.509856 C256.465776,114.806865 270.645464,122.17843 266.434923,133.024878 C261.60603,145.494891 238.500471,151.076915 238.500471,151.076915 C240.45562,151.248532 254.826367,151.974373 252.534718,162.497729 C254.027553,160.474124 255.810465,158.485279 257.832268,156.617133 C264.001446,150.907195 270.931242,147.653199 276.837729,147.684175 L276.837729,147.684175 L276.868927,147.684175 C280.623347,147.729323 285.981366,153.408062 285.867179,156.354442 C285.704324,160.396511 273.825208,167.301348 258.18793,172.451585 C257.552106,173.398146 256.992406,174.292917 256.526301,175.118427 C255.376327,177.149445 255.258397,178.728086 256.177503,179.795696 C257.051683,180.807774 258.882407,181.36061 261.479988,181.391808 C268.285826,181.474383 277.604402,177.303512 284.295647,171.15291 C284.293497,171.108465 284.292906,171.065716 284.292906,171.023945 C284.293212,169.372312 292.736335,158.05837 301.51811,146.622975 L302.277628,145.634722 L302.277628,145.634722 C295.407959,146.669216 291.410676,147.401968 290.012827,147.384268 C283.998393,147.311888 278.143695,139.695103 278.143695,139.695103 C289.122235,138.39802 299.552361,137.437831 309.160824,136.728948 C315.337843,128.759544 320.373844,122.288606 320.901772,121.279292 C320.901772,121.279292 328.608409,125.76313 328.608409,128.823697 C328.608409,129.566372 326.557535,132.152845 323.451115,135.813356 C330.551938,135.429614 337.00739,135.183043 342.668225,135.027998 C348.082976,128.04128 352.303012,122.591497 352.781578,121.672392 C352.781578,121.672392 360.491335,126.156231 360.491335,129.216797 C360.491335,129.859879 358.953625,131.885411 356.524408,134.793633 C362.696108,134.757769 366.654326,134.832774 367.857909,134.848738 C372.034131,134.896784 375.256929,137.514956 375.850948,139.504792 C367.038452,139.752619 358.961137,140.122274 351.591627,140.568521 C341.272714,152.534846 325.662029,170.555162 325.662029,178.464147 C331.25219,177.267578 338.981066,173.432287 345.196657,169.971741 L346.141304,166.356659 C347.944573,162.715802 350.811709,158.968247 354.448823,155.603808 C360.618001,149.89387 367.547797,146.639874 373.454284,146.67085 L373.454284,146.67085 L373.481739,146.67085 C377.236782,146.719118 382.594177,152.394737 382.483734,155.341117 C382.320879,159.382562 370.441763,166.291143 354.804485,171.44138 C354.168661,172.384197 353.608961,173.282088 353.142856,174.104478 C351.989138,176.13924 351.874952,177.711017 352.794058,178.781747 C353.664494,179.793825 355.498962,180.346661 358.096543,180.377859 C365.744908,180.473618 376.566648,175.195294 383.266682,167.771727 C388.300748,159.510154 394.660239,148.810039 395.27634,146.488873 C398.108534,147.3044 403.773545,148.350796 403.773545,152.461501 C403.773545,154.807 397.490181,162.292128 393.579769,169.843396 C394.457293,168.863478 395.338854,167.865456 396.223165,166.863461 L396.886895,166.111441 C397.329698,165.609892 397.773109,165.108233 398.216966,164.60823 L398.883067,163.859689 C405.769155,156.142157 412.743239,149.034682 419.206786,149.114533 C427.338345,149.214992 425.137608,157.82264 423.124061,159.76755 L423.124061,159.76755 L411.676732,158.465328 C402.792666,163.390936 389.210117,183.093995 386.502093,183.087133 C384.9309,183.079951 382.200964,182.14389 379.894923,180.54872 C374.72252,183.037831 368.032516,184.810352 359.778763,184.708826 C359.672064,184.705706 359.564742,184.705706 359.461163,184.701962 C353.796151,184.636445 349.599338,183.440921 346.991149,181.164684 C345.695897,180.026092 344.823505,178.646737 344.375076,177.044311 C338.316653,181.067165 331.466605,184.654108 326.370233,184.59152 C321.18336,184.526817 317.668708,178.029889 316.553448,173.814561 C309.711075,178.808893 300.767391,184.273849 294.486682,184.198419 C291.482629,184.160946 289.040188,181.9659 287.29997,179.306117 C281.761044,182.900276 273.748745,185.852355 263.165328,185.722151 C263.058005,185.719031 262.947563,185.715287 262.843984,185.715287 C257.178972,185.646651 252.985903,184.45799 250.377714,182.174889 C248.429684,180.468335 247.441941,178.219552 247.403879,175.473466 L247.403879,175.473466 L248.858143,169.930044 C240.624335,180.64514 221.831011,187.448041 207.864233,187.274585 C178.772319,186.918923 188.931152,173.440576 217.553219,137.788878 C225.179988,128.28646 226.368648,120.83877 220.330503,120.766389 C193.421855,120.434438 173.753739,147.671294 190.789955,147.882195 C194.365295,147.923377 201.069839,146.110124 204.137269,143.488208 L204.137269,143.488208 L206.593209,146.956226 C201.681328,150.717509 194.589924,152.980019 184.413619,152.85585 C156.247674,152.510171 166.147561,113.698072 232.300094,114.509856 Z M222.811403,153.335681 C222.370045,153.887912 221.934236,154.432776 221.504299,154.970219 L220.232425,156.56024 C207.139114,172.933568 200.12666,181.971874 209.104683,182.085661 C217.221891,182.185496 232.517235,174.03397 235.975269,165.107474 C239.523155,155.960718 228.331029,153.839848 222.811403,153.335681 Z M337.600602,141.565926 L337.195681,141.598649 C329.338801,142.251083 322.521331,142.971496 316.692513,143.676022 C306.608729,155.421138 293.779102,170.901086 293.779102,178.071047 C301.345043,176.451564 312.826878,169.998479 319.172968,166.182854 C323.216845,160.271871 330.709871,150.477357 337.600602,141.565926 Z M277.97772,154.527423 L277.946521,154.527423 C274.489111,154.50999 267.818886,160.437693 262.533871,166.727921 C271.390483,162.250946 279.269959,156.250863 278.820701,154.793272 C278.80011,154.731499 278.737713,154.538069 277.97772,154.527423 L277.97772,154.527423 Z M374.593651,153.514098 L374.559332,153.514098 C371.101922,153.496665 364.434817,159.424368 359.149802,165.71834 C368.006414,161.238245 375.882146,155.241282 375.432889,153.783691 C375.412298,153.721294 375.353645,153.527864 374.593651,153.514098 L374.593651,153.514098 Z M236.148109,120.509938 C240.734902,125.12481 235.885418,136.617065 228.538187,146.071438 C227.52923,147.380525 226.538367,148.641565 225.560608,149.874527 C234.303657,149.35289 248.63185,143.135042 251.778524,135.01409 C255.056855,126.554947 248.759139,120.665306 236.148109,120.509938 Z" id="better" fill="#FFFFFF" fill-rule="nonzero"></path>
        <path d="M151.322065,160.463899 C151.322065,160.457036 151.308338,160.425837 151.308338,160.425837 C147.484658,168.191127 141.743523,177.423992 137.284019,176.947279 C130.834678,176.259666 143.391424,144.781071 157.353346,148.736408 C157.539913,148.788198 157.736463,148.860578 157.930517,148.933583 C155.387845,152.156381 153.111608,156.380649 151.322065,160.463899 M172.887046,157.113188 C177.992358,165.697125 165.571014,178.816066 156.60708,177.925038 C151.245941,177.389673 166.261747,151.914281 172.569446,146.594948 C172.569446,146.594948 170.241419,143.848862 166.783385,143.479473 C164.68685,143.254844 162.600299,144.266921 160.614207,146.032128 C159.024958,145.151085 156.734994,144.287512 153.41548,143.93185 C130.444698,141.479029 114.834874,180.305479 132.841986,182.229174 C138.952511,182.881845 143.82633,179.486208 147.152707,175.741772 C147.263149,179.935465 149.294167,181.872888 152.776536,182.249765 C167.688763,183.839013 178.638789,171.510641 179.640259,165.489967 C180.963073,157.520639 172.887046,157.113188 172.887046,157.113188" id="a" fill="#FFFFFF" fill-rule="nonzero"></path>
        <path d="M273.945981,77.114078 C277.695379,77.1370453 285.86006,77.9519573 285.120913,84.678538 C284.689127,88.6263877 277.207118,91.7212723 272.205386,93.3623099 C275.030716,94.7231855 278.329638,96.7167654 278.678436,98.7303122 C279.103983,101.171777 276.900475,104.921978 274.495021,108.543293 L274.132992,109.085343 C270.624599,114.312349 266.946765,119.11724 270.498831,119.11724 C276.706072,119.11724 296.889586,97.3588291 298.830752,90.4677192 C298.830752,90.4677192 298.895676,90.4757669 299.015059,90.4933761 L299.183789,90.5191934 C300.635271,90.7486981 306.158892,91.8017282 308.126013,94.7818386 C308.826023,95.8430879 309.50598,97.0865162 310.107069,98.432319 C317.192515,99.3668231 328.10041,97.3613513 338.86759,95.1322714 L340.290802,94.8363184 C350.479739,92.7093111 360.385177,90.4889342 366.631187,90.4889342 C380.724767,90.4889342 382.904289,100.31956 376.700169,106.337114 C374.086133,100.055147 364.079371,99.9754546 352.40477,101.208699 L351.514977,101.304808 C350.324559,101.436108 349.118524,101.579603 347.902817,101.730215 L346.989316,101.844429 L346.989316,101.844429 L346.072745,101.960836 C345.613785,102.019508 345.153883,102.078824 344.693353,102.138517 L343.310189,102.318454 C343.156364,102.338513 343.002504,102.358584 342.848621,102.378657 L336.786766,103.148634 C326.632436,104.375481 317.053286,105.03435 311.477364,102.196107 C313.081644,107.852552 312.730931,113.981221 307.037812,115.984294 C323.134331,110.944499 330.25007,114.46805 331.715148,120.66905 L331.715148,120.66905 L331.269635,122.026806 C327.105187,118.144043 318.765973,120.326072 310.500822,122.920541 L309.631263,123.194922 L309.631263,123.194922 L308.763353,123.470885 C303.129678,125.266609 297.670258,127.069721 293.746032,127.069721 C285.203901,127.069721 280.685744,123.553033 278.851276,121.632458 C275.310254,123.884361 272.108046,125.366286 269.914797,125.366286 C265.90143,125.366286 258.69584,121.687367 258.098078,118.243684 C257.431418,114.419233 260.493915,108.506136 263.398442,103.017076 C257.689284,104.880597 249.119737,104.238888 240.095958,103.148634 L240.095958,103.148634 L234.034103,102.378657 C233.880213,102.358584 233.726348,102.338513 233.572517,102.318454 L232.189303,102.138517 C217.451824,100.228363 203.35923,98.7033318 200.185675,106.337114 C193.978435,100.31956 196.157957,90.4889342 210.251537,90.4889342 C217.078572,90.4889342 228.277524,93.1416181 239.439988,95.4256155 L240.864445,95.714954 C250.156531,97.5874313 259.293029,99.1146464 265.723378,98.5485316 C267.111412,95.7507521 268.117484,93.2997857 268.080953,91.6214373 C268.080953,91.6214373 269.196609,91.9945706 269.72511,92.2017281 C272.885171,85.5175112 272.342534,78.9720731 272.164557,77.4835072 L272.147613,77.3477581 C272.132304,77.230451 272.122398,77.1690752 272.122398,77.1690752 C272.122398,77.1690752 272.706261,77.1190559 273.626949,77.1139765 Z M301.334738,100.917322 C299.30372,104.796536 289.127416,114.692678 280.363776,120.634108 C306.968551,122.544076 304.049626,107.400981 301.334738,100.917322 Z" id="is" fill="#FFFFFF" fill-rule="nonzero"></path>
        <path d="M298.662905,47.2160837 L298.694103,47.2160837 C299.457217,47.2160837 299.519614,47.409514 299.537085,47.4719109 C299.986342,48.9263818 292.106866,55.0194358 283.250255,59.6099732 C288.538389,53.2467408 295.208614,47.2397945 298.662905,47.2160837 M369.917006,46.4798007 L369.951324,46.4798007 C370.707574,46.4798007 370.769971,46.673231 370.790562,46.7387477 C371.239819,48.1894748 363.360343,54.2825288 354.503732,58.8736902 C359.78937,52.5148256 366.459595,46.5041355 369.917006,46.4798007 M382.932992,54.3037437 C377.858879,64.8981076 363.119491,73.5475611 353.451097,73.5475611 C350.853515,73.5475611 349.019047,73.0153159 348.148611,72.0207098 C347.229505,70.9568432 347.347435,69.3819464 348.49741,67.3365771 C348.963514,66.5073227 349.523214,65.605688 350.159038,64.6491441 C365.796317,59.3054765 377.675432,52.2589984 377.838288,48.2100658 C377.952474,45.2636858 372.591335,39.6535836 368.836292,39.6535836 L368.808837,39.6535836 C362.90235,39.6947655 355.972554,43.0317499 349.803376,48.8178113 C349.696053,48.9182702 349.596218,49.0249689 349.488896,49.1285477 C350.373059,45.8951421 349.817103,41.5292334 344.034786,41.5292334 C335.900106,41.5292334 326.967371,52.9147895 318.407769,62.5688326 C322.31818,54.9763819 328.601545,47.4113859 328.601545,45.0696315 C328.601545,40.9558062 322.936533,39.9817911 320.100596,39.2005823 C319.49597,41.4874275 313.351127,51.929543 308.359378,60.1852723 C301.785868,68.2956169 290.23808,74.2788524 282.200116,74.2788524 C279.602534,74.2788524 277.764946,73.7503509 276.89763,72.7520011 C275.978524,71.6912544 276.09271,70.1163575 277.243309,68.0678684 C277.709413,67.2354942 278.269113,66.3338595 278.904937,65.3804353 C294.545959,60.0398876 306.425075,52.9902897 306.584187,48.9413571 C306.698373,45.9949771 301.340354,40.3848748 297.585935,40.3848748 L297.55848,40.3848748 C291.648249,40.4260568 284.719077,43.7630412 278.553019,49.5522224 C274.974558,52.9029341 272.148604,56.6161716 270.339095,60.2258303 C262.877678,65.5626342 254.594494,70.7128715 250.712161,70.7403261 C243.540889,70.7921155 266.214662,47.2791046 265.879591,45.5138972 C265.54452,43.7486899 260.331886,40.6500615 255.624042,38.4636753 C246.200868,44.025108 233.65473,51.3754588 223.482169,61.6553425 C228.131359,53.5793161 254.667498,20.3080593 254.667498,12.7636542 C254.667498,10.4836727 251.827817,9.31997119 248.570701,7.85863659 C255.662105,7.73758667 262.118308,7.84802912 267.48943,8.24237732 C269.97657,8.42208029 269.216576,7.34760626 266.922867,5.42391088 C261.078152,0.508285789 236.884392,0.0977144119 227.996582,0.0178464236 C200.231225,-0.231117071 164.237593,2.11126127 142.603975,7.89357884 C147.885246,14.4427539 153.388026,19.675979 159.30512,18.1491277 C171.471261,15.0024538 189.940734,12.2045783 208.943075,10.3145772 C194.849495,22.4114576 168.639068,60.0767017 170.648871,70.6330035 C171.723345,76.277424 178.745488,79.5520115 183.23619,81.7246704 C183.308571,69.3170536 214.065234,20.8053623 220.690533,14.2287326 C221.743792,13.185457 220.162032,11.3235346 217.433417,9.5308726 C226.673769,8.7502878 235.837996,8.20805904 244.269685,7.95909554 C237.979457,18.0280778 207.212186,69.2995825 207.212186,69.2995825 C208.282916,71.9009078 213.42317,76.2530892 216.186103,76.2287544 C219.402038,76.2044197 239.889425,52.8985663 249.081107,49.1678577 C242.81147,57.0024082 236.742751,64.5667802 237.575125,68.9364327 C238.411243,73.3166927 245.858309,77.4479892 250.224842,77.4167908 C254.20077,77.3855923 261.219793,73.3616185 268.124631,68.532725 L268.120887,68.5395887 C268.155205,71.2788111 269.146691,73.5138668 271.094721,75.1992062 C273.70291,77.4479892 277.899724,78.5879799 283.560991,78.5879799 L283.878591,78.5879799 C292.69714,78.5879799 299.723027,76.4671105 305.029257,73.6449002 C307.267432,75.0850199 309.823832,75.9111544 311.330092,75.9005469 C314.038116,75.8762122 327.620666,56.0071782 336.500988,50.9642635 L346.729082,52.0037952 C344.538952,54.5084054 342.756898,57.1159705 341.499601,59.6723701 C341.499601,59.6723701 339.426777,63.4274134 339.374988,67.8039296 C339.409306,70.5468958 340.400792,72.7813276 342.348822,74.4672909 C344.957011,76.716074 349.153825,77.8523209 354.815092,77.8523209 L355.132692,77.8523209 C377.858255,77.8523209 388.729037,63.7968029 388.729037,59.8071473 C388.729037,56.7808993 382.932992,54.3037437 382.932992,54.3037437" id="there" fill="#FFFFFF" fill-rule="nonzero"></path>
    </g>
</svg>