<?xml version="1.0" encoding="UTF-8"?>
<svg width="550px" height="300px" viewBox="0 0 550 300" version="1.1" xmlns="http://www.w3.org/2000/svg" xmlns:xlink="http://www.w3.org/1999/xlink">
    <title>2</title>
    <g id="2" stroke="none" stroke-width="1" fill="none" fill-rule="evenodd">
        <path d="M207.651964,180.041161 C221.887235,180.041161 225.755142,186.324363 225.755142,191.49624 C225.755142,195.880905 221.719544,204.904187 217.211592,213.973552 L216.633817,215.131239 C212.285381,223.810466 207.642933,232.352787 205.833919,236.727353 C222.252993,230.134733 237.897259,214.443219 246.0406,203.823101 C247.806285,199.280061 248.996926,194.152638 248.996926,188.198752 C253.366566,188.198752 262.299564,189.030503 262.299564,193.041685 C262.299564,197.807626 257.07529,207.091412 251.698698,216.040573 L251.053101,217.112555 C246.748572,224.244257 242.476401,231.037575 240.833432,235.008045 C262.762661,228.109884 290.122414,199.627537 290.122414,183.288743 C290.122414,183.288743 302.593301,186.841658 302.593301,191.249934 C302.593301,194.928505 295.065486,203.74485 285.007659,212.913503 C288.916743,210.495516 293.340299,209.113679 297.896327,209.586539 C300.718375,209.877383 302.60457,210.590542 303.888148,211.318189 C305.763074,209.862894 307.651952,209.027924 309.434581,209.215202 C311.454426,209.423643 312.911204,210.560129 313.624441,211.250077 L313.800389,211.42614 C314.010045,211.643376 314.119213,211.785042 314.119213,211.785042 C308.189638,216.172391 292.866653,237.184011 297.42679,237.626717 C301.620257,238.032041 305.922535,236.619552 309.416135,234.32193 C310.591943,228.344354 328.538765,215.273196 323.612971,206.792931 C323.612971,206.792931 333.056824,205.432617 333.959943,212.70748 C334.565779,219.593299 316.266738,235.798476 316.189466,236.048001 C320.247334,235.940679 327.311844,233.296786 335.656177,226.256423 C337.782603,224.462925 340.454333,222.010344 343.200128,219.407812 L343.811333,218.82721 C343.91334,218.730101 344.0154,218.632837 344.11749,218.535446 L344.730198,217.949767 C348.099947,214.722355 351.449977,211.411786 353.919911,208.947627 L354.3591,208.509132 C354.573654,208.294755 354.780504,208.087839 354.979003,207.889081 L355.364674,207.502652 C356.736572,206.127153 357.636201,205.215471 357.808637,205.043036 C358.471354,204.380319 359.21671,204.068547 360.152563,204.068547 C361.507511,204.068547 364.350487,204.716239 367.145704,206.26705 L367.145704,206.26705 L367.478404,206.451109 L367.279321,206.697414 C365.879834,208.444089 336.078492,247.680699 340.744879,248.106233 C343.935043,248.397614 352.84443,245.649618 357.157725,246.059591 C367.777834,247.069497 360.157929,258.420472 350.313226,257.615553 C345.90495,257.250119 343.442432,255.420269 342.203393,252.681396 C317.763352,259.858595 265.530511,282.536399 225.251263,278.528973 C204.043778,276.416864 214.176642,259.377253 219.336714,253.414946 C219.336714,253.414946 222.346039,265.969008 237.258516,267.570261 C264.246933,270.466899 304.407053,259.60907 329.92515,251.57329 C328.832069,250.349275 328.463953,248.581672 329.723383,246.237746 C329.797436,246.098227 329.892416,245.93778 329.978811,245.789138 C329.978811,245.789138 334.667744,239.674014 339.639066,232.958975 L340.182301,232.224311 L340.182301,232.224311 L340.726504,231.486478 L340.726504,231.486478 L341.270406,230.747068 C344.802028,225.939224 348.233931,221.132257 349.995014,218.292549 C345.672596,222.573111 341.516528,226.390576 337.613205,229.65533 C328.751577,237.069712 322.1126,240.842639 317.885163,240.875372 L317.885163,240.875372 L317.861552,240.875372 C316.115647,240.875372 313.21843,239.062141 311.293452,237.385546 C305.917386,239.991543 299.517902,241.79124 293.722551,241.190901 C290.763666,240.885031 289.201049,239.283778 289.504235,235.82316 C286.286704,238.912978 281.777544,241.714098 276.58474,241.176412 C267.410986,240.225451 269.879589,228.332622 277.534957,219.395857 C264.105221,230.495433 248.650398,240.43213 240.334382,240.43213 C236.309248,240.43213 231.184593,235.786134 231.184593,234.253031 C231.184593,231.984355 231.784614,229.772819 232.764405,227.531492 C222.620175,235.317365 212.348621,241.592824 207.316581,241.592824 C203.294666,241.592824 196.910581,237.056834 196.910581,235.52695 C196.910581,223.162849 227.175557,184.363042 206.550298,184.363042 C181.869854,184.363042 163.255284,213.888029 185.099191,220.471198 C185.099191,220.471198 163.255284,225.958066 163.255284,209.497997 C163.255284,199.160147 174.086282,180.041161 207.651964,180.041161 Z M354.359825,249.860958 C352.366307,249.682802 349.766954,250.351422 347.946226,251.185855 C349.312443,252.754375 350.435574,253.485242 352.387235,253.651592 C355.200698,253.895215 357.972304,250.190975 354.359825,249.860958 Z M300.828381,213.549426 C289.195146,210.284672 275.420289,236.251378 280.903938,236.821797 C284.691353,237.216744 290.501799,229.594156 294.524251,223.192362 C294.524251,223.192362 294.530153,223.219193 294.533373,223.219193 C296.458204,219.856239 298.813935,216.371474 301.306503,213.713093 C301.146056,213.653529 300.985608,213.593965 300.828381,213.549426 Z" id="way" fill="#FFFFFF" fill-rule="nonzero"></path>
        <path d="M236.585843,119.467688 L238.278081,119.478476 C259.060568,119.733904 271.255099,126.07345 267.634034,135.401395 C263.481186,146.125607 243.610405,150.926147 243.610405,150.926147 C245.291837,151.073738 257.650731,151.697964 255.679844,160.748108 C256.963861,159.007562 258.497094,157.297254 260.23575,155.690734 C265.541243,150.780188 271.500868,147.981751 276.580447,148.008391 L276.580447,148.008391 L276.607278,148.008391 C279.836078,148.047218 284.443974,152.930933 284.345774,155.46482 C284.205718,158.940999 273.989679,164.879159 260.54162,169.308363 C259.994811,170.122405 259.513469,170.891908 259.112619,171.601848 C258.123641,173.348523 258.022221,174.706154 258.812652,175.624299 C259.564447,176.494685 261.13887,176.970124 263.37279,176.996955 C269.225763,177.067969 277.239658,173.481078 282.994118,168.191629 C282.992397,168.152462 282.9919,168.116116 282.9919,168.080593 C282.99217,166.619259 290.677741,156.362549 298.459006,146.245541 C292.551155,147.135469 289.113236,147.765693 287.911031,147.750471 C282.738618,147.688224 277.703578,141.137788 277.703578,141.137788 C287.145029,140.022308 296.114853,139.196551 304.378064,138.586913 C309.690425,131.733361 314.021499,126.168213 314.475524,125.300191 C314.475524,125.300191 321.103231,129.156292 321.103231,131.788379 C321.103231,132.42713 319.339201,134.651799 316.667324,137.800235 C322.773606,137.469514 328.325434,137.257449 333.193883,137.1241 C337.851208,131.115696 341.480582,126.428704 341.892157,125.638257 C341.892157,125.638257 348.522548,129.494358 348.522548,132.126445 C348.522548,132.679474 347.200221,134.421316 345.111237,136.922229 C350.41845,136.891678 353.82269,136.956185 354.857802,136.969915 C358.449353,137.011234 361.220959,139.262862 361.731815,140.974121 C354.152785,141.18726 347.206059,141.505179 340.868088,141.888971 C331.994585,152.179909 318.569345,167.677426 318.569345,174.479167 C323.376816,173.450132 330.023529,170.15186 335.368898,167.175823 L336.181521,164.066727 C337.732333,160.93559 340.19807,157.712692 343.325987,154.819274 C348.631481,149.908728 354.591105,147.110291 359.670684,147.136931 L359.670684,147.136931 L359.694295,147.136931 C362.923633,147.178441 367.530992,152.059474 367.436012,154.59336 C367.295956,158.069003 357.079916,164.010383 343.631857,168.439587 C343.085048,169.250409 342.603706,170.022595 342.202856,170.729851 C341.210659,172.479746 341.112459,173.831475 341.90289,174.752303 C342.651465,175.622689 344.229107,176.098128 346.463027,176.124959 C353.040777,176.207313 362.347759,171.667738 368.109757,165.283231 C372.439028,158.178086 377.907825,148.976564 378.437652,146.980431 C380.873339,147.681784 385.745249,148.581684 385.745249,152.116891 C385.745249,154.13402 380.341555,160.57123 376.978601,167.065321 C384.33664,158.848702 392.024695,149.152104 399.017836,149.238499 C406.010977,149.324894 404.118343,156.72747 402.386693,158.400093 L402.386693,158.400093 L392.54199,157.280182 C384.901693,161.516205 373.2207,178.460835 370.8918,178.454934 C369.54042,178.448758 367.192295,177.643562 365.208956,176.27143 C360.761226,178.412572 355.007877,179.936901 347.909736,179.84959 C347.817975,179.846907 347.725678,179.846907 347.6366,179.843687 C342.76469,179.787343 339.155431,178.759192 336.912388,176.801628 C335.798385,175.822363 335.048097,174.636008 334.662475,173.257784 C329.452854,176.717483 323.561479,179.802535 319.1784,179.748707 C314.718008,179.693067 311.69552,174.106501 310.73617,170.481298 C304.850687,174.77616 297.159663,179.475507 291.758547,179.410641 C289.174923,179.378412 287.074337,177.490472 285.577734,175.202894 C280.814412,178.294269 273.923864,180.833024 264.822182,180.72105 C264.729884,180.718367 264.634904,180.715147 264.545826,180.715147 C259.673916,180.656119 256.067877,179.633872 253.824834,177.670404 C252.149528,176.202768 251.30007,174.268814 251.267336,171.90718 L251.267336,171.90718 L252.518199,167.139582 C245.437228,176.354712 229.274781,182.205317 217.263241,182.056143 C192.244194,181.750273 200.980791,170.158895 225.595768,139.498435 C232.154789,131.326355 233.177037,124.921342 227.984233,124.859095 C204.842795,124.573617 187.928215,147.997313 202.579361,148.178688 C205.654154,148.214104 211.420061,146.654707 214.058051,144.399859 L214.058051,144.399859 L216.17016,147.382354 C211.945942,150.617058 205.847335,152.562817 197.095713,152.456031 C172.873,152.158747 181.386902,118.780342 238.278081,119.478476 Z M230.117806,152.868686 C217.465544,168.699308 210.116092,177.489566 218.330027,177.593669 C225.310827,177.679527 238.464822,170.669214 241.438732,162.992428 C244.489913,155.126217 234.864685,153.302269 230.117806,152.868686 Z M328.837263,142.745732 L328.488286,142.774838 C321.731101,143.335953 315.867879,143.955536 310.854964,144.561451 C302.183347,154.662371 291.150028,167.974978 291.150028,174.1411 C297.656525,172.74839 307.530471,167.199054 312.988218,163.917576 C315.766033,159.857401 320.436853,153.665671 325.224448,147.432191 L326.613404,145.626648 C327.358232,144.659866 328.101738,143.696948 328.837263,142.745732 Z M277.560839,153.893584 L277.534008,153.893584 C274.560635,153.878592 268.824242,158.976416 264.279129,164.386012 C271.895815,160.535813 278.672165,155.375742 278.285803,154.122214 C278.268095,154.069089 278.214434,153.902739 277.560839,153.893584 L277.560839,153.893584 Z M360.65054,153.022124 L360.621026,153.022124 C357.647653,153.007132 351.913943,158.104956 347.36883,163.517772 C354.985516,159.66489 361.758646,154.507502 361.372284,153.253974 C361.354576,153.200313 361.304134,153.033963 360.65054,153.022124 L360.65054,153.022124 Z M241.587373,124.638547 C245.532016,128.607337 241.361459,138.490676 235.042841,146.621437 C234.175137,147.747251 233.322996,148.831746 232.482123,149.892093 C240.001145,149.443485 252.323391,144.096136 255.02953,137.112117 C257.848895,129.837254 252.43286,124.772164 241.587373,124.638547 Z" id="better" fill="#FFFFFF" fill-rule="nonzero"></path>
        <path d="M168.636976,158.998954 C168.636976,158.993051 168.625171,158.96622 168.625171,158.96622 C165.336806,165.644369 160.399429,173.584633 156.564256,173.17466 C151.017823,172.583313 161.816624,145.511721 173.823878,148.913311 C173.984325,148.95785 174.153358,149.020097 174.320245,149.082881 C172.133547,151.854487 170.175982,155.487358 168.636976,158.998954 M187.18286,156.117341 C191.573428,163.499527 180.891072,174.781816 173.182089,174.015533 C168.571509,173.555119 181.485102,151.646282 186.909724,147.071655 C186.909724,147.071655 184.90762,144.710021 181.933711,144.392346 C180.130691,144.199166 178.336257,145.069552 176.628218,146.58763 C175.261464,145.829933 173.292094,145.08726 170.437313,144.781391 C150.68244,142.671965 137.257992,176.062712 152.744108,177.71709 C157.999159,178.278387 162.190644,175.358139 165.051328,172.137924 C165.146308,175.7445 166.892984,177.410684 169.887821,177.734798 C182.712336,179.101551 192.129359,168.499151 192.990623,163.321372 C194.128242,156.46775 187.18286,156.117341 187.18286,156.117341" id="a" fill="#FFFFFF" fill-rule="nonzero"></path>
        <path d="M274.137547,87.3184175 C277.381413,87.3443053 284.336776,88.0648592 283.703985,93.8235427 C283.332649,97.2186934 276.898122,99.8802942 272.596632,101.291586 C275.026415,102.46194 277.863489,104.176418 278.163455,105.908069 C278.512447,107.910321 276.805369,110.936081 274.852299,113.913202 L274.533715,114.395382 L274.533715,114.395382 L274.212533,114.875694 L274.212533,114.875694 L273.890469,115.353122 C270.993074,119.633939 268.19693,123.440827 271.128995,123.440827 C276.467222,123.440827 293.825044,104.728593 295.494447,98.8022385 L295.494447,98.8022385 L295.565628,98.811769 C296.248749,98.9068176 301.65827,99.73985 303.488371,102.512381 C304.090574,103.42535 304.67552,104.495093 305.192579,105.652913 C311.037065,106.422085 319.901442,104.86812 328.783372,103.049117 L330.118799,102.773835 C339.239958,100.882629 348.220712,98.8204834 353.802821,98.8204834 C365.923299,98.8204834 367.797689,107.274822 362.462145,112.449918 C359.740211,105.908652 347.697788,107.186992 335.07402,108.821282 L333.349814,109.045645 L333.349814,109.045645 L328.136619,109.707825 L327.716347,109.758262 L327.716347,109.758262 L326.878393,109.856618 C318.618143,110.810532 310.934711,111.211967 306.370426,108.888597 C307.750229,113.752927 307.448724,119.023807 302.552518,120.746492 C316.395525,116.412269 322.51506,119.442523 323.775028,124.775383 L323.775028,124.775383 L323.391886,125.943053 C319.621965,122.42813 311.873873,124.692401 304.409448,127.066206 L303.581452,127.330125 C298.89854,128.824954 294.390658,130.27996 291.121587,130.27996 C283.775355,130.27996 279.88974,127.255609 278.312097,125.603914 C275.266818,127.54055 272.51292,128.815006 270.626725,128.815006 C267.17523,128.815006 260.978423,125.651136 260.464347,122.689568 C259.891048,119.400705 262.524504,114.315784 265.022287,109.595391 C260.378794,111.110479 253.534647,110.698936 246.24075,109.856618 L245.402796,109.758262 L245.402796,109.758262 L244.982524,109.707825 L239.769328,109.045645 C238.762357,108.914297 237.756556,108.783055 236.756325,108.655675 L235.900452,108.547526 L235.900452,108.547526 L235.047922,108.441794 C223.564112,107.033098 213.162735,106.42898 210.659681,112.449918 C205.321454,107.274822 207.195843,98.8204834 219.316322,98.8204834 C224.89843,98.8204834 233.879185,100.882629 243.000343,102.773835 L244.335771,103.049117 C252.770675,104.77657 261.189749,106.264992 267.021267,105.751811 C268.215793,103.345699 269.081036,101.237834 269.049619,99.7944361 C269.049619,99.7944361 270.009083,100.115331 270.463595,100.293486 C273.150522,94.6100503 272.724725,89.0432808 272.566826,87.6808978 L272.550277,87.5448464 C272.535235,87.4271955 272.525262,87.3654047 272.525262,87.3654047 C272.525262,87.3654047 273.03025,87.3221426 273.825951,87.3179834 Z M297.647875,107.788897 C295.9012,111.125021 287.149577,119.635703 279.612847,124.745333 C302.492954,126.387905 299.982678,113.364843 297.647875,107.788897 Z" id="is" fill="#FFFFFF" fill-rule="nonzero"></path>
        <path d="M295.350098,61.605832 L295.376929,61.605832 C296.033206,61.605832 296.086868,61.772182 296.101893,61.8258433 C296.488254,63.0766884 289.711905,68.3167148 282.095219,72.2645769 C286.643015,66.7921971 292.379408,61.6262233 295.350098,61.605832 M356.628625,60.9726286 L356.658139,60.9726286 C357.308514,60.9726286 357.362175,61.1389786 357.379883,61.195323 C357.766245,62.4429483 350.989895,67.6829748 343.373209,71.6313735 C347.918859,66.16275 353.655252,60.9935565 356.628625,60.9726286 M367.822373,67.7012196 C363.458636,76.8123725 350.782762,84.2509026 342.467943,84.2509026 C340.234023,84.2509026 338.656381,83.7931716 337.907806,82.9378104 C337.117374,82.0228852 337.218794,80.6684739 338.207772,78.9094563 C338.608622,78.1962976 339.089964,77.4208917 339.636773,76.5982639 C353.084832,72.0027098 363.300871,65.9427386 363.440927,62.4606566 C363.539128,59.9267698 358.928548,55.1020819 355.699211,55.1020819 L355.6756,55.1020819 C350.596021,55.1374983 344.636396,58.0073049 339.330903,62.9833177 C339.238606,63.0697124 339.152748,63.1614732 339.06045,63.250551 C339.820831,60.4698222 339.342709,56.7151407 334.369916,56.7151407 C327.374091,56.7151407 319.691939,66.506719 312.330681,74.809196 C315.693635,68.2796885 321.097329,61.7737919 321.097329,59.7598831 C321.097329,56.2219933 316.225419,55.3843403 313.786512,54.7125008 C313.266534,56.6791876 307.981969,65.659407 303.689065,72.7593342 C298.035846,79.7342306 288.104749,84.8798131 281.192099,84.8798131 C278.958179,84.8798131 277.377854,84.4253018 276.631962,83.5667209 C275.841531,82.6544788 275.939731,81.3000674 276.929245,79.5383668 C277.330095,78.822525 277.811437,78.0471191 278.358246,77.2271744 C291.809525,72.6343033 302.025564,66.5716491 302.162401,63.0895671 C302.260601,60.5556803 297.652705,55.7309924 294.423904,55.7309924 L294.400293,55.7309924 C289.317494,55.7664088 283.358406,58.6362154 278.055596,63.6149112 C274.97812,66.4965233 272.5478,69.6899075 270.991622,72.794214 C264.574803,77.3838654 257.451265,81.8130695 254.112459,81.8366805 C247.945165,81.8812194 267.44461,61.6600299 267.156449,60.1419516 C266.868287,58.6238733 262.385422,55.9590529 258.336677,54.0787608 C250.232746,58.8615929 239.443068,65.1828946 230.694665,74.0235945 C234.692969,67.0782118 257.514049,38.464931 257.514049,31.9767426 C257.514049,30.0159586 255.071923,29.0151752 252.270803,27.7584275 C258.36941,27.6543245 263.921745,27.749305 268.54091,28.0884445 C270.67985,28.242989 270.026255,27.3189414 268.053666,25.6645634 C263.027211,21.4371258 242.220577,21.0840344 234.577061,21.0153479 C210.698853,20.8012393 179.74433,22.8156847 161.139419,27.7884778 C165.681312,33.4207683 170.413702,37.921342 175.502404,36.6082498 C185.965285,33.9021102 201.849031,31.4959373 218.191045,29.8705364 C206.070566,40.2738536 183.529598,72.6659635 185.258029,81.744383 C186.182076,86.5985846 192.22112,89.4147299 196.083124,91.2832165 C196.145371,80.6126661 222.596101,38.8926116 228.293858,33.2367101 C229.199661,32.339493 227.839347,30.7382397 225.492738,29.1965504 C233.439441,28.5252475 241.320677,28.0589308 248.571929,27.8448222 C243.162333,36.5041469 216.70248,80.5976409 216.70248,80.5976409 C217.623308,82.8347807 222.043926,86.5776567 224.420049,86.5567288 C227.185753,86.5358009 244.804905,66.492767 252.709752,63.2843576 C247.317864,70.022071 242.098766,76.527431 242.814608,80.2853322 C243.533669,84.0523557 249.938146,87.6052707 253.693364,87.5784401 C257.112662,87.5516094 263.149022,84.0909919 269.087182,79.9381435 L269.083963,79.9440463 C269.113476,82.2997775 269.966154,84.2219255 271.64146,85.6713173 C273.884503,87.6052707 277.493762,88.5856628 282.362452,88.5856628 L282.635588,88.5856628 C290.219541,88.5856628 296.261804,86.761715 300.825161,84.3346142 C302.749992,85.5731171 304.948496,86.2835928 306.243879,86.2744704 C308.57278,86.2535425 320.253773,69.1661732 327.89085,64.8292666 L336.687011,65.7232639 C334.803499,67.8772287 333.270932,70.1197346 332.189657,72.3182382 C332.189657,72.3182382 330.407028,75.5475756 330.362489,79.3113795 C330.392003,81.6703304 331.244681,83.5919417 332.919987,85.0418702 C335.16303,86.9758236 338.772289,87.952996 343.640979,87.952996 L343.914115,87.952996 C363.458099,87.952996 372.806972,75.8652505 372.806972,72.4341467 C372.806972,69.8315734 367.822373,67.7012196 367.822373,67.7012196" id="there" fill="#FFFFFF" fill-rule="nonzero"></path>
    </g>
</svg>