<?xml version="1.0" encoding="UTF-8"?>
<svg width="550px" height="300px" viewBox="0 0 550 300" version="1.1" xmlns="http://www.w3.org/2000/svg" xmlns:xlink="http://www.w3.org/1999/xlink">
    <title>3</title>
    <g id="3" stroke="none" stroke-width="1" fill="none" fill-rule="evenodd">
        <path d="M306.676393,237.229858 C304.565493,239.527014 302.454592,241.451659 300.405777,242.941706 C298.356962,244.431754 296.494403,245.176777 294.880185,245.176777 C292.148431,245.176777 289.851275,244.121327 288.050801,242.072512 C286.250327,240.023697 285.381133,237.229858 285.381133,233.690995 C285.381133,232.511374 285.629474,231.021327 286.126156,229.282938 C286.622839,227.54455 287.243692,225.619905 288.050801,223.57109 C288.85791,221.522275 289.727104,219.349289 290.720469,217.176303 C291.713834,214.941232 292.645114,212.768246 293.638479,210.657346 C291.775919,212.830332 289.851275,215.127488 287.80246,217.548815 C285.753644,220.032227 283.829,222.453555 282.028526,224.812796 C280.228052,227.172038 278.551749,229.407109 277.123787,231.580095 C275.633739,233.690995 274.578289,235.553555 273.895351,237.043602 C273.709095,237.72654 273.647009,238.285308 273.647009,238.65782 L273.833265,239.340758 C273.882934,239.489763 273.932602,239.638768 273.950482,239.81956 L273.957436,239.961611 C273.957436,240.209953 274.019521,240.396209 274.081607,240.582464 L274.019521,240.520379 C274.205777,241.203318 274.329948,241.824171 274.454118,242.382938 C274.578289,242.941706 274.578289,243.438389 274.454118,243.872986 C274.329948,244.307583 274.081607,244.618009 273.647009,244.866351 C273.212412,245.114692 272.529474,245.238863 271.660279,245.238863 C270.542744,245.238863 269.363123,244.990521 268.245588,244.431754 C267.065967,243.872986 266.010516,243.127962 265.079237,242.134597 C264.147957,241.141232 263.340848,239.961611 262.719995,238.595735 C262.099142,237.229858 261.788716,235.677725 261.788716,234.001422 C261.788716,232.57346 262.161227,230.7109 262.906251,228.413744 C263.651275,226.116588 264.64464,223.509005 265.824261,220.590995 C267.065967,217.735071 268.431843,214.630806 269.983976,211.340284 C271.536109,208.049763 273.150327,204.697156 274.764545,201.34455 C276.378763,198.054028 277.930896,194.825592 279.420943,191.597156 C280.973076,188.36872 282.276867,185.388626 283.518573,182.594787 C284.698194,179.800948 285.691559,177.317536 286.374497,175.14455 C287.119521,172.971564 287.492033,171.233175 287.492033,169.991469 C287.492033,169.06019 288.112886,168.687678 289.416678,168.811848 C290.658384,168.936019 292.086346,169.370616 293.638479,170.11564 C295.190611,170.860664 296.618573,171.854028 297.860279,172.971564 C299.101986,174.151185 299.784924,175.330806 299.784924,176.510427 C299.784924,178.000474 299.350327,179.925118 298.543218,182.346445 C297.674024,184.767773 296.618573,187.437441 295.314782,190.417536 C294.01099,193.39763 292.520943,196.563981 290.782554,199.978673 C289.106251,203.393365 287.367862,206.808057 285.691559,210.222749 L285.008621,211.52654 L285.008621,211.588626 C286.684924,209.477725 288.423313,207.42891 290.161701,205.44218 C291.320627,204.117694 292.451959,202.875987 293.518907,201.717062 L294.56303,200.585729 C294.73302,200.401773 294.90088,200.220116 295.066441,200.040758 C296.618573,198.42654 297.98445,197.122749 299.164071,196.067299 C300.343692,195.073934 301.274971,194.453081 301.895825,194.390995 C302.578763,194.32891 303.385872,194.577251 304.379237,195.136019 C305.310516,195.694787 306.303881,196.43981 307.173076,197.309005 C308.104355,198.178199 308.849379,199.171564 309.532317,200.351185 C310.15317,201.46872 310.525682,202.586256 310.525682,203.765877 C310.525682,204.635071 310.029,206.063033 309.09772,208.111848 C308.104355,210.160664 306.98682,212.581991 305.683028,215.375829 C304.689663,217.362559 303.696298,219.411374 302.640848,221.58436 C301.585398,223.757346 300.654118,225.806161 299.784924,227.854976 C298.91573,229.903791 298.232791,231.766351 297.674024,233.442654 C297.115256,235.118957 296.866915,236.484834 296.866915,237.540284 L296.866915,238.161137 C296.866915,238.285308 296.866915,238.347393 296.929,238.347393 C297.798194,238.347393 298.91573,237.72654 300.281607,236.422749 C301.647483,235.118957 303.199616,233.442654 304.813834,231.393839 C306.428052,229.345024 308.166441,227.109953 309.842744,224.62654 C311.581133,222.143128 313.195351,219.783886 314.685398,217.424645 C316.175445,215.065403 317.479237,212.954502 318.596772,211.091943 C319.652223,209.043128 320.459332,207.677251 320.893929,206.745972 C320.921064,206.698485 320.950423,206.653222 320.982005,206.610264 C324.156997,199.884857 325.707401,192.115128 323.377341,184.891943 C323.315256,184.643602 323.191085,184.333175 323.25317,184.084834 C323.315256,183.774408 323.563597,183.526066 323.874024,183.33981 C326.295351,181.539336 330.765493,181.601422 333.124734,183.401896 C338.526156,187.561611 339.209095,194.204739 337.28445,200.41327 C335.111464,207.490995 332.069284,214.941232 328.654592,221.522275 C327.537057,223.757346 326.419521,225.868246 325.301986,228.041232 C324.18445,230.152133 323.25317,232.076777 322.383976,233.753081 C321.514782,235.429384 320.893929,236.795261 320.397246,237.850711 C319.900564,238.906161 319.776393,239.402844 319.900564,239.402844 C320.273076,239.402844 321.018099,238.844076 322.135635,237.72654 C323.191085,236.609005 324.494877,235.181043 325.922839,233.442654 C327.350801,231.704265 328.902934,229.717536 330.579237,227.482464 C332.25554,225.247393 333.869758,223.074408 335.483976,220.839336 C337.098194,218.604265 338.588242,216.493365 340.016204,214.506635 C341.444166,212.519905 342.561701,210.843602 343.492981,209.477725 C344.610516,206.49763 345.541796,204.076303 346.224734,202.275829 C346.907673,200.475355 347.280185,199.419905 347.280185,199.233649 C347.280185,197.495261 347.590611,196.191469 348.211464,195.446445 C348.832317,194.701422 349.701512,194.32891 350.819047,194.32891 C351.626156,194.32891 352.495351,194.639336 353.488716,195.322275 C354.48208,195.943128 355.41336,196.750237 356.282554,197.743602 C357.151749,198.736967 357.896772,199.792417 358.517625,200.909953 C359.138479,202.089573 359.38682,203.145024 359.38682,204.200474 C359.38682,204.821327 359.200564,205.876777 358.765967,207.366825 C358.33137,208.856872 357.772602,210.595261 357.027578,212.644076 C356.282554,214.692891 355.41336,216.990047 354.419995,219.535545 C353.42663,222.081043 352.37118,224.62654 351.253644,227.234123 C355.475445,223.757346 359.200564,220.404739 362.304829,217.114218 C365.226491,214.017257 367.598193,210.755308 369.368174,207.431892 L369.660559,206.869463 L369.630896,206.870142 C370.189663,205.876777 370.872602,205.193839 371.617625,204.883412 C372.362649,204.572986 373.107673,204.5109 373.728526,204.759242 C374.349379,205.007583 374.846061,205.504265 375.094403,206.249289 C375.342744,206.994313 375.218573,207.925592 374.783976,208.981043 C373.790611,211.278199 372.300564,213.699526 370.313834,216.182938 C368.389189,218.666351 366.092033,221.211848 363.546535,223.757346 C361.001038,226.302844 358.207199,228.848341 355.165019,231.393839 C352.122839,233.939336 349.018573,236.484834 345.790137,239.030332 C343.306725,244.121327 340.637057,249.150237 337.781133,254.179147 C334.925208,259.208057 332.069284,263.678199 329.151275,267.651659 C326.295351,271.625118 323.439426,274.853555 320.645588,277.336967 C317.851749,279.820379 315.244166,281 312.884924,281 C310.339426,281 308.228526,280.689573 306.552223,280.006635 C304.875919,279.385782 303.510043,278.578673 302.516678,277.585308 C301.523313,276.591943 300.840374,275.598578 300.467862,274.481043 C300.095351,273.363507 299.847009,272.432227 299.847009,271.563033 C299.847009,269.948815 300.592033,268.148341 302.019995,266.223697 C303.447957,264.299052 305.434687,262.250237 307.918099,260.077251 C310.401512,257.904265 313.257436,255.607109 316.547957,253.185782 C319.776393,250.764455 323.25317,248.218957 326.916204,245.611374 C327.599142,244.307583 328.15791,243.314218 328.592507,242.569194 C329.027104,241.886256 329.337531,241.327488 329.585872,240.892891 C329.834213,240.458294 330.082554,240.085782 330.206725,239.775355 C330.392981,239.464929 330.579237,239.092417 330.827578,238.65782 C331.075919,238.223223 331.324261,237.664455 331.634687,236.919431 C331.945114,236.174408 332.379711,235.181043 332.938479,233.877251 C331.634687,235.491469 330.330896,236.919431 329.089189,238.347393 C327.847483,239.71327 326.605777,240.954976 325.488242,242.010427 C324.370706,243.065877 323.315256,243.872986 322.321891,244.493839 C321.328526,245.114692 320.521417,245.425118 319.838479,245.425118 C318.534687,245.425118 317.292981,244.990521 316.175445,244.183412 C314.995825,243.376303 314.00246,242.382938 313.07118,241.141232 C312.1399,239.961611 311.456962,238.65782 310.960279,237.291943 C310.463597,235.926066 310.215256,234.746445 310.215256,233.62891 L310.224368,233.109148 L310.224368,233.109148 L310.120519,233.239139 C308.979194,234.649982 307.827793,235.976863 306.676393,237.229858 Z M325.488242,252.192417 C322.508147,254.427488 319.652223,256.600474 317.04464,258.649289 C314.437057,260.698104 312.1399,262.560664 310.15317,264.299052 C308.228526,266.037441 306.676393,267.589573 305.558858,268.95545 C304.441322,270.321327 303.882554,271.500948 303.882554,272.494313 C303.882554,273.425592 304.255066,273.86019 305.124261,273.86019 C306.676393,273.86019 308.228526,273.301422 309.904829,272.121801 C311.581133,270.94218 313.257436,269.390047 315.05791,267.465403 C316.796298,265.540758 318.534687,263.243602 320.335161,260.573934 C322.07355,257.966351 323.811938,255.172512 325.488242,252.192417 Z M254.648905,147.827014 C253.345114,142.922275 250.551275,129.88436 259.801986,132.554028 C266.134687,134.416588 270.604829,139.631754 272.777815,145.529858 C275.35698,152.636891 276.507553,160.273032 276.131844,167.803293 L276.130422,167.756398 C276.130422,171.791943 275.509569,176.075829 274.205777,180.732227 C272.964071,185.388626 271.163597,190.107109 268.928526,194.887678 C266.693455,199.668246 264.085872,204.5109 261.105777,209.291469 C258.125682,214.072038 254.897246,218.728436 251.482554,223.136493 C248.067862,227.606635 244.529,231.704265 240.865967,235.553555 C237.202934,239.402844 233.601986,242.75545 230.001038,245.611374 C226.40009,248.467299 222.923313,250.764455 219.632791,252.502844 C216.280185,254.241232 213.30009,255.172512 210.568336,255.358768 C209.574971,255.482938 208.519521,255.234597 207.21573,254.613744 C205.911938,253.992891 204.732317,253.061611 203.552697,251.75782 C202.373076,250.454028 201.379711,248.71564 200.572602,246.604739 C199.765493,244.493839 199.330896,242.010427 199.330896,239.030332 C199.330896,237.478199 199.517152,235.863981 199.951749,234.187678 C200.386346,232.511374 200.945114,230.7109 201.690137,228.910427 C202.435161,227.109953 203.24227,225.247393 204.17355,223.322749 C205.104829,221.398104 206.036109,219.535545 207.029474,217.6109 C204.29772,221.522275 201.441796,225.55782 198.399616,229.717536 C195.357436,233.877251 192.315256,237.72654 189.335161,241.265403 C186.355066,244.804265 183.561227,247.846445 180.953644,250.329858 C178.346061,252.875355 176.048905,254.365403 174.186346,254.924171 L174.434687,254.862085 C173.627578,255.296682 172.510043,255.358768 171.144166,254.924171 C169.716204,254.551659 168.350327,253.682464 166.922365,252.440758 C165.556488,251.199052 164.314782,249.398578 163.321417,247.225592 C162.328052,244.990521 161.769284,242.258768 161.769284,238.968246 C161.769284,237.416114 162.141796,235.429384 162.824734,233.070142 C163.507673,230.7109 164.501038,228.165403 165.680659,225.371564 C166.860279,222.577725 168.226156,219.59763 169.778289,216.493365 C171.330422,213.327014 172.882554,210.160664 174.558858,206.870142 C176.173076,203.45545 177.725208,200.102844 179.463597,196.750237 C180.767388,194.266825 181.512412,192.838863 182.443692,190.727962 C183.747483,187.747867 184.740848,185.016114 185.547957,182.470616 C186.355066,179.987204 186.727578,177.876303 186.727578,176.2 C186.727578,174.027014 185.858384,172.971564 184.119995,172.971564 C181.388242,172.971564 178.532317,173.778673 175.490137,175.454976 C172.447957,177.069194 169.405777,179.304265 166.363597,181.973934 C163.321417,184.705687 160.465493,187.747867 157.671654,191.224645 C154.877815,194.701422 152.456488,198.240284 150.345588,201.841232 C148.234687,205.44218 146.558384,208.981043 145.254592,212.519905 C144.012886,215.996682 143.329948,219.100948 143.329948,221.894787 C143.329948,224.62654 143.454118,226.861611 143.70246,228.724171 C143.950801,230.58673 144.261227,232.076777 144.633739,233.318483 C145.006251,234.56019 145.378763,235.491469 145.81336,236.174408 C146.247957,236.857346 146.620469,237.478199 146.930896,237.912796 C147.241322,238.347393 147.489663,238.781991 147.738005,239.092417 C147.986346,239.402844 148.110516,239.899526 148.110516,240.520379 C148.110516,241.203318 147.738005,241.762085 147.055066,242.320853 C146.372128,242.817536 145.378763,243.065877 144.137057,243.065877 C142.895351,243.065877 141.405303,242.75545 139.604829,242.072512 C137.804355,241.451659 136.128052,240.209953 134.451749,238.471564 C132.837531,236.733175 131.409569,234.311848 130.229948,231.269668 C129.050327,228.227488 128.491559,224.254028 128.491559,219.47346 C128.491559,215.437915 129.298668,211.40237 130.850801,207.242654 C132.402934,203.082938 134.513834,199.109479 137.245588,195.26019 C139.977341,191.4109 143.143692,187.809953 146.86881,184.457346 C150.593929,181.104739 154.567388,178.18673 158.851275,175.703318 C163.135161,173.219905 167.605303,171.233175 172.323787,169.805213 C177.04227,168.377251 181.698668,167.632227 186.417152,167.632227 C188.528052,167.632227 190.266441,167.942654 191.694403,168.625592 C193.122365,169.246445 194.301986,170.11564 195.233265,171.17109 C196.164545,172.22654 196.785398,173.344076 197.28208,174.585782 C197.716678,175.827488 198.089189,177.069194 198.275445,178.248815 C198.461701,179.490521 198.585872,180.608057 198.585872,181.601422 C198.585872,182.594787 198.647957,183.401896 198.647957,183.898578 C198.647957,186.133649 198.21336,188.554976 197.406251,191.28673 C196.599142,194.018483 196.847483,193.335545 195.543692,196.377725 C194.2399,199.419905 192.811938,202.462085 191.19772,205.566351 C189.583502,208.670616 187.969284,211.712796 186.417152,214.630806 C184.927104,217.300474 183.499142,220.032227 182.07118,222.763981 C180.643218,225.55782 179.401512,228.165403 178.283976,230.7109 C177.166441,233.256398 176.235161,235.61564 175.552223,237.850711 C174.869284,240.085782 174.496772,241.948341 174.496772,243.562559 L174.497454,244.189374 C174.499838,244.880914 174.510569,245.438915 174.558858,245.921801 C174.620943,246.542654 174.683028,247.039336 174.807199,247.411848 C176.11099,246.356398 177.663123,244.680095 179.587768,242.507109 C181.450327,240.334123 183.499142,237.850711 185.672128,235.118957 C187.845114,232.387204 190.14227,229.407109 192.439426,226.240758 C194.798668,223.074408 197.095825,219.908057 199.330896,216.803791 C204.608147,209.477725 210.133739,201.530806 216.031843,192.900948 L216.031843,192.590521 C215.907673,191.907583 215.845588,191.28673 215.845588,190.790047 C215.845588,190.23128 215.907673,189.796682 216.156014,189.486256 C216.404355,189.175829 216.776867,188.865403 217.39772,188.741232 C218.018573,188.554976 218.887768,188.492891 220.067388,188.492891 C221.060753,188.492891 222.116204,188.679147 223.109569,189.113744 C224.102934,189.548341 224.972128,190.107109 225.717152,190.914218 C226.462175,191.659242 227.083028,192.590521 227.579711,193.645972 C228.076393,194.701422 228.324734,195.818957 228.324734,197.060664 C228.324734,199.295735 228.076393,201.530806 227.579711,203.765877 C227.083028,206.000948 226.40009,208.111848 225.592981,210.284834 C224.785872,212.395735 223.854592,214.506635 222.799142,216.493365 C221.743692,218.54218 220.688242,220.590995 219.632791,222.577725 C218.639426,224.378199 217.708147,226.178673 216.838952,227.979147 C215.907673,229.779621 215.100564,231.580095 214.417625,233.318483 C213.734687,235.056872 213.113834,236.795261 212.741322,238.471564 C212.36881,240.147867 212.120469,241.886256 212.120469,243.562559 C212.120469,245.176777 212.182554,246.356398 212.36881,247.101422 C212.555066,247.78436 212.741322,248.343128 212.989663,248.777725 C214.417625,248.467299 216.156014,247.536019 218.266915,245.859716 C220.377815,244.183412 222.674971,242.010427 225.158384,239.278673 C227.641796,236.546919 230.249379,233.442654 232.919047,229.841706 C235.588716,226.302844 238.258384,222.453555 240.803881,218.355924 C243.349379,214.258294 245.832791,209.974408 248.129948,205.566351 C249.652942,202.602685 251.066777,199.66631 252.353358,196.721039 L252.289663,196.626066 C252.289663,196.626066 261.788716,174.523697 254.648905,147.827014 Z M383.041322,225.185308 C384.469284,225.681991 385.773076,226.302844 386.952697,227.172038 C388.132317,227.979147 389.063597,228.972512 389.870706,230.152133 C390.61573,231.331754 391.112412,232.449289 391.236583,233.566825 C391.360753,234.68436 391.174497,235.926066 390.677815,237.291943 C390.181133,238.65782 389.560279,240.147867 388.75317,241.7 C388.008147,243.314218 387.263123,244.990521 386.64227,246.666825 C386.021417,248.343128 385.773076,249.77109 385.897246,250.950711 C386.083502,252.564929 385.338479,253.496209 383.60009,253.74455 C381.923787,253.992891 379.999142,253.806635 377.888242,253.123697 C375.777341,252.502844 373.790611,251.571564 371.928052,250.267773 C370.065493,249.026066 369.072128,247.722275 368.947957,246.480569 C368.761701,245.052607 369.072128,243.065877 369.692981,240.64455 C370.375919,238.223223 371.245114,235.801896 372.238479,233.504739 C373.293929,231.207583 374.411464,229.158768 375.591085,227.420379 C376.832791,225.681991 377.826156,224.750711 378.695351,224.688626 C380.123313,224.50237 381.61336,224.688626 383.041322,225.185308 Z M405.267862,135.720379 C407.130422,135.720379 409.241322,136.217062 411.538479,137.086256 C413.89772,138.017536 416.070706,139.259242 418.119521,140.811374 C420.168336,142.425592 421.285872,144.226066 421.472128,146.274882 C421.596298,147.578673 421.410043,149.254976 420.789189,151.427962 C420.230422,153.600948 419.361227,156.08436 418.243692,158.816114 C417.126156,161.547867 415.822365,164.527962 414.394403,167.756398 C412.966441,170.984834 411.476393,174.337441 409.924261,177.752133 C408.061701,181.849763 406.199142,185.947393 404.398668,190.107109 C402.598194,194.266825 400.983976,198.240284 399.556014,202.027488 C398.190137,205.814692 397.072602,209.229384 396.265493,212.333649 C395.458384,215.437915 395.147957,218.045498 395.396298,220.032227 C395.520469,221.149763 394.775445,221.646445 393.161227,221.58436 C391.547009,221.522275 389.746535,220.963507 387.821891,220.032227 C385.835161,219.100948 383.972602,217.735071 382.234213,216.058768 C380.433739,214.382464 379.440374,212.45782 379.192033,210.47109 C379.005777,208.918957 379.192033,206.994313 379.750801,204.635071 C380.309569,202.275829 381.116678,199.668246 382.110043,196.750237 C383.103407,193.832227 384.345114,190.727962 385.71099,187.437441 C387.138952,184.146919 388.566915,180.732227 390.056962,177.193365 C391.67118,173.281991 393.285398,169.432701 394.899616,165.521327 C396.513834,161.609953 397.879711,157.946919 399.121417,154.408057 C400.301038,150.869194 401.232317,147.640758 401.915256,144.660664 C402.660279,141.742654 402.846535,139.321327 402.660279,137.334597 C402.536109,136.217062 403.405303,135.658294 405.267862,135.720379 Z" id="why" fill="#FFFFFF" fill-rule="nonzero"></path>
        <path d="M350.694877,130.93981 L350.694877,138.203791 L357.338005,138.203791 L357.338005,144.226066 L350.632791,144.226066 L350.632791,152.359242 C350.632791,153.04218 350.694877,153.663033 350.756962,154.221801 C350.819047,154.780569 351.005303,155.277251 351.191559,155.649763 C351.4399,156.022275 351.812412,156.332701 352.247009,156.581043 C352.743692,156.829384 353.364545,156.891469 354.171654,156.891469 C354.544166,156.891469 355.102934,156.829384 355.785872,156.767299 C356.46881,156.705213 356.965493,156.518957 357.275919,156.208531 L357.275919,162.479147 C356.406725,162.789573 355.537531,162.975829 354.668336,163.1 C353.737057,163.224171 352.867862,163.224171 351.998668,163.224171 C350.694877,163.224171 349.577341,163.1 348.459806,162.851659 C347.404355,162.603318 346.473076,162.16872 345.665967,161.547867 C344.858858,160.9891 344.238005,160.181991 343.803407,159.250711 C343.36881,158.319431 343.120469,157.13981 343.120469,155.836019 L343.120469,144.226066 L338.277815,144.226066 L338.277815,138.203791 L343.120469,138.203791 L343.120469,130.93981 L350.694877,130.93981 Z M290.720469,138.203791 L295.687294,153.538863 L295.811464,153.538863 L299.97118,138.203791 L308.228526,138.203791 L312.760753,153.538863 L312.884924,153.538863 L317.479237,138.203791 L325.11573,138.203791 L316.423787,162.665403 L308.97355,162.665403 L303.882554,146.399052 L303.758384,146.399052 L299.226156,162.665403 L291.651749,162.665403 L282.649379,138.203791 L290.720469,138.203791 Z M335.17355,138.203791 L335.17355,162.665403 L327.599142,162.665403 L327.599142,138.203791 L335.17355,138.203791 Z M368.699616,130.443128 L368.699616,141.556398 L368.823787,141.556398 C369.010043,141.059716 369.258384,140.625118 369.692981,140.128436 C370.065493,139.631754 370.562175,139.259242 371.183028,138.88673 C371.741796,138.514218 372.424734,138.203791 373.169758,137.95545 C373.914782,137.707109 374.783976,137.582938 375.715256,137.582938 C377.6399,137.582938 379.192033,137.893365 380.371654,138.452133 C381.551275,139.0109 382.482554,139.880095 383.103407,140.87346 C383.786346,141.92891 384.220943,143.170616 384.407199,144.536493 C384.65554,145.964455 384.779711,147.454502 384.779711,149.130806 L384.779711,162.603318 L377.205303,162.603318 L377.205303,150.620853 C377.205303,149.937915 377.205303,149.192891 377.143218,148.447867 C377.081133,147.702844 376.956962,147.019905 376.708621,146.336967 C376.460279,145.716114 376.087768,145.157346 375.529,144.784834 C375.032317,144.412322 374.287294,144.163981 373.293929,144.163981 C372.300564,144.163981 371.55554,144.350237 370.934687,144.722749 C370.313834,145.095261 369.879237,145.529858 369.56881,146.150711 C369.258384,146.709479 369.010043,147.392417 368.947957,148.137441 C368.844482,148.758294 368.827236,149.379147 368.824361,150.035929 L368.823787,162.603318 L361.249379,162.603318 L361.249379,130.443128 L368.699616,130.443128 Z M331.448431,126.097156 C332.628052,126.097156 333.683502,126.531754 334.552697,127.400948 C335.421891,128.270142 335.856488,129.263507 335.856488,130.505213 C335.856488,131.684834 335.421891,132.740284 334.552697,133.609479 C333.683502,134.478673 332.690137,134.91327 331.448431,134.91327 C330.26881,134.91327 329.21336,134.478673 328.344166,133.609479 C327.474971,132.740284 327.040374,131.684834 327.040374,130.505213 C327.040374,129.325592 327.474971,128.270142 328.344166,127.400948 C329.21336,126.531754 330.206725,126.097156 331.448431,126.097156 Z" id="with" fill="#FFFFFF" fill-rule="nonzero"></path>
        <path d="M235.154118,19 C239.065493,19 242.666441,19.4966825 246.019047,20.4900474 C249.371654,21.4834123 252.289663,23.035545 254.773076,25.0843602 C257.256488,27.1331754 259.181133,29.7407583 260.609095,32.907109 C262.037057,36.0734597 262.719995,39.7985782 262.719995,44.2066351 C262.719995,47.1246445 261.912886,50.4772512 260.236583,54.3265403 C259.525033,55.9341167 258.72399,57.5640662 257.833456,59.2163887 C257.948959,59.2406949 258.067646,59.2666712 258.187768,59.2933649 C259.491559,59.6037915 261.229948,59.914218 263.278763,60.2867299 C265.327578,60.6592417 267.81099,60.9696682 270.666915,61.2800948 C272.71573,56.7478673 274.454118,52.7744076 275.819995,49.2976303 C277.185872,45.8208531 277.86881,43.3374408 277.86881,41.9094787 C277.86881,40.9781991 278.427578,40.6056872 279.607199,40.6677725 C280.78682,40.7919431 282.028526,41.2265403 283.456488,41.971564 C284.88445,42.7165877 286.126156,43.7099526 287.305777,44.8895735 C288.485398,46.1312796 289.044166,47.3109005 289.044166,48.5526066 C289.044166,49.8563981 288.671654,51.656872 287.864545,53.9540284 C287.057436,56.2511848 286.001986,58.8587678 284.698194,61.7767773 C288.112886,61.6526066 291.155066,61.4042654 293.824734,60.9075829 C296.494403,60.4729858 298.667388,59.9763033 300.343692,59.5417062 L300.281607,59.6037915 C302.144166,59.1691943 303.572128,58.9829384 304.627578,59.0450237 C305.869284,59.2312796 306.428052,59.7900474 306.428052,60.9075829 C306.428052,61.3421801 305.93137,62.0251185 305.00009,62.8943128 C304.06881,63.7635071 302.578763,64.6327014 300.592033,65.4398104 C298.605303,66.2469194 296.059806,66.9919431 292.95554,67.6748815 C289.851275,68.2957346 286.126156,68.6061611 281.84227,68.6061611 C281.345588,69.785782 280.78682,70.9033175 280.228052,72.0829384 C279.669284,73.2625592 279.110516,74.3800948 278.551749,75.5597156 C276.999616,78.850237 275.447483,82.2028436 273.895351,85.5554502 C272.343218,88.9080569 270.915256,92.1364929 269.67355,95.1165877 C268.431843,98.0966825 267.438479,100.890521 266.63137,103.311848 C265.824261,105.795261 265.451749,107.844076 265.451749,109.396209 C265.451749,110.762085 265.886346,111.445024 266.75554,111.445024 C268.369758,111.445024 270.108147,110.762085 271.970706,109.458294 C273.833265,108.154502 275.75791,106.416114 277.620469,104.367299 C279.545114,102.318483 281.407673,100.021327 283.270232,97.4758294 C284.712213,95.5531876 286.07977,93.6305458 287.315282,91.7655232 C288.053643,89.781623 288.990657,87.8065554 290.099616,85.8658768 C291.589663,83.2582938 293.328052,80.7748815 295.314782,78.4777251 C297.363597,76.1184834 299.536583,74.0696682 301.833739,72.3312796 C304.192981,70.592891 306.614308,69.1649289 309.159806,68.1094787 C311.705303,67.0540284 314.250801,66.557346 316.796298,66.557346 C318.969284,66.557346 320.831843,66.8677725 322.383976,67.4886256 C323.936109,68.1094787 325.177815,68.8545024 326.17118,69.8478673 C327.164545,70.7791469 327.909569,71.8345972 328.406251,73.014218 C328.902934,74.1938389 329.275445,75.3113744 329.461701,76.3668246 C329.647957,77.4222749 329.710043,78.4156398 329.647957,79.2848341 C329.585872,80.1540284 329.461701,80.7748815 329.275445,81.0853081 L329.337531,81.0853081 C329.151275,81.5199052 328.778763,81.7682464 328.28208,81.7061611 C327.723313,81.7061611 327.164545,81.5819905 326.667862,81.3336493 C326.109095,81.1473934 325.612412,80.8990521 325.177815,80.5265403 C324.743218,80.2161137 324.556962,79.9677725 324.619047,79.7815166 C324.681133,79.657346 324.681133,79.3469194 324.681133,78.850237 C324.681133,78.3535545 324.494877,77.7947867 324.18445,77.236019 C323.874024,76.6772512 323.377341,76.1805687 322.632317,75.7459716 C321.887294,75.3113744 320.893929,75.1251185 319.528052,75.1251185 C318.162175,75.1251185 316.672128,75.7459716 315.05791,76.9255924 C313.443692,78.1672986 311.891559,79.7194313 310.339426,81.6440758 C308.787294,83.5687204 307.297246,85.7417062 305.807199,88.2251185 C304.379237,90.7085308 303.137531,93.1919431 302.019995,95.6753555 C300.964545,98.1587678 300.095351,100.580095 299.412412,102.939336 C298.729474,105.298578 298.419047,107.285308 298.419047,108.961611 C298.419047,111.010427 299.0399,112.065877 300.219521,112.065877 C301.647483,112.065877 303.137531,111.445024 304.627578,110.141232 C306.117625,108.899526 307.607673,107.285308 308.97355,105.298578 C310.401512,103.311848 311.705303,101.200948 312.884924,98.7796209 C314.12663,96.4203791 315.18208,94.1853081 316.11336,92.0123223 C317.04464,89.9014218 317.727578,87.9767773 318.286346,86.3625592 C318.783028,84.7483412 319.093455,83.692891 319.093455,83.1341232 C319.093455,82.6374408 319.403881,82.3270142 319.962649,82.2028436 C320.521417,82.078673 321.266441,82.1407583 322.135635,82.3890995 C323.004829,82.6374408 323.936109,82.9478673 324.991559,83.3824645 C326.047009,83.8170616 326.978289,84.3137441 327.847483,84.8725118 C328.716678,85.4312796 329.399616,85.9900474 330.020469,86.6109005 C330.579237,87.2317536 330.889663,87.728436 330.889663,88.2251185 C330.889663,88.8459716 330.579237,89.9014218 329.958384,91.3293839 C329.337531,92.757346 328.654592,94.4336493 327.847483,96.2341232 C327.288716,97.4758294 326.667862,98.8417062 326.047009,100.207583 C325.426156,101.57346 324.867388,102.939336 324.432791,104.305213 C323.936109,105.609005 323.563597,106.850711 323.25317,108.030332 C322.942744,109.209953 322.756488,110.141232 322.756488,110.886256 C322.756488,111.196682 322.756488,111.320853 322.694403,111.320853 C323.501512,111.320853 324.494877,110.637915 325.736583,109.272038 C326.978289,107.906161 328.344166,106.167773 329.772128,104.056872 C331.20009,101.945972 332.690137,99.6488152 334.118099,97.1033175 C335.608147,94.5578199 336.974024,92.0744076 338.277815,89.7151659 C339.581607,87.2938389 340.699142,85.1829384 341.692507,83.1962085 C342.127104,82.3541765 342.502284,81.6072127 342.828444,80.9553169 L343.2216,80.1695498 C343.276867,80.0593449 343.33047,79.9526887 343.382484,79.8495812 L343.430896,79.9677725 C343.120469,79.2848341 342.934213,78.4777251 342.810043,77.6085308 C342.685872,76.7393365 342.623787,75.7459716 342.623787,74.8146919 C342.623787,72.8900474 342.872128,71.0274882 343.306725,69.1649289 C343.741322,67.3023697 344.362175,65.6881517 345.107199,64.1981043 C345.852223,62.7080569 346.721417,61.528436 347.590611,60.6592417 C348.521891,59.7900474 349.45317,59.2933649 350.446535,59.2933649 C351.31573,59.2933649 352.37118,59.4175355 353.550801,59.6037915 C354.792507,59.7900474 355.910043,60.1004739 356.965493,60.5350711 C358.020943,60.9696682 358.952223,61.528436 359.697246,62.2734597 C360.44227,63.0184834 360.814782,63.8876777 360.814782,64.943128 C360.814782,65.8744076 360.566441,66.8056872 360.007673,67.8611374 C359.51099,68.8545024 358.890137,69.9720379 358.269284,71.2137441 C357.462175,72.5175355 356.717152,73.9454976 356.034213,75.435545 C355.351275,76.9255924 355.040848,78.2914692 355.040848,79.657346 C355.040848,80.6507109 355.165019,81.5199052 355.41336,82.2028436 C355.661701,82.9478673 356.034213,83.5066351 356.46881,84.0033175 C356.903407,84.5 357.40009,84.9345972 357.896772,85.2450237 C358.393455,85.6175355 358.890137,85.9279621 359.38682,86.1763033 C360.380185,86.6729858 361.187294,87.2317536 361.808147,87.7905213 C362.429,88.3492891 362.739426,89.1563981 362.739426,90.2739336 C362.739426,90.956872 362.429,92.0123223 361.870232,93.3781991 C361.311464,94.7440758 360.628526,96.2341232 359.821417,97.9104265 C359.324734,99.0900474 358.765967,100.269668 358.207199,101.57346 C357.648431,102.877251 357.089663,104.118957 356.655066,105.360664 C356.220469,106.60237 355.785872,107.719905 355.475445,108.837441 C355.165019,109.954976 354.978763,110.886256 354.978763,111.63128 C354.978763,112.252133 355.102934,112.562559 355.41336,112.562559 C356.282554,112.562559 357.338005,111.879621 358.641796,110.575829 C359.883502,109.272038 361.249379,107.533649 362.739426,105.484834 C364.167388,103.436019 365.657436,101.076777 367.085398,98.5312796 C368.182593,96.6569054 369.212461,94.8161945 370.224578,93.0091469 C370.41219,92.5413024 370.608052,92.0636403 370.810516,91.5777251 C372.052223,88.5976303 373.480185,85.3691943 375.032317,81.9545024 C376.646535,78.5398104 378.198668,75.0630332 379.812886,71.5862559 L381.61336,67.6748815 C379.067862,67.3023697 376.832791,66.7436019 374.846061,66.1848341 C372.859332,65.6260664 371.183028,64.943128 369.817152,64.3222749 C368.451275,63.7014218 367.395825,63.0805687 366.712886,62.4597156 C365.967862,61.8388626 365.657436,61.4042654 365.657436,61.0317536 C365.657436,60.2246445 365.781607,59.6037915 366.029948,59.2312796 C366.278289,58.8587678 366.650801,58.6104265 367.209569,58.5483412 C367.706251,58.4862559 368.389189,58.4862559 369.196298,58.6725118 C370.003407,58.8587678 370.996772,59.0450237 372.114308,59.2933649 C373.418099,59.6037915 375.156488,59.914218 377.205303,60.2867299 C379.254118,60.6592417 381.737531,60.9696682 384.593455,61.2800948 C386.64227,56.7478673 388.380659,52.7744076 389.746535,49.2976303 C391.112412,45.8208531 391.795351,43.3374408 391.795351,41.9094787 C391.795351,40.9781991 392.354118,40.6056872 393.533739,40.6677725 C394.71336,40.7919431 395.955066,41.2265403 397.383028,41.971564 C398.81099,42.7165877 400.052697,43.7099526 401.232317,44.8895735 C402.411938,46.1312796 402.970706,47.3109005 402.970706,48.5526066 C402.970706,49.8563981 402.598194,51.656872 401.791085,53.9540284 C400.983976,56.2511848 399.928526,58.8587678 398.624734,61.7767773 C402.039426,61.6526066 405.081607,61.4042654 407.751275,60.9075829 C410.420943,60.4729858 412.593929,59.9763033 414.270232,59.5417062 L414.208147,59.6037915 C416.070706,59.1691943 417.498668,58.9829384 418.554118,59.0450237 C419.85791,59.2312796 420.354592,59.7900474 420.354592,60.9075829 C420.354592,61.3421801 419.85791,62.0251185 418.92663,62.8943128 C417.995351,63.7635071 416.505303,64.6327014 414.518573,65.4398104 C412.531843,66.2469194 409.986346,66.9919431 406.88208,67.6748815 C403.777815,68.2957346 400.052697,68.6061611 395.76881,68.6061611 C395.272128,69.785782 394.71336,70.9033175 394.154592,72.0829384 C393.595825,73.2625592 393.037057,74.3800948 392.478289,75.5597156 C390.926156,78.850237 389.374024,82.2028436 387.821891,85.5554502 C386.269758,88.9080569 384.841796,92.1364929 383.60009,95.1165877 C382.358384,98.0966825 381.365019,100.890521 380.55791,103.311848 C379.750801,105.795261 379.378289,107.844076 379.378289,109.396209 C379.378289,110.762085 379.812886,111.445024 380.68208,111.445024 C382.296298,111.445024 384.034687,110.762085 385.897246,109.458294 C387.759806,108.154502 389.68445,106.416114 391.547009,104.367299 C393.471654,102.318483 395.334213,100.021327 397.196772,97.4758294 C399.059332,94.9924171 400.79772,92.5090047 402.287768,90.149763 C403.8399,87.7905213 405.143692,85.6175355 406.199142,83.692891 C407.316678,81.7682464 408.061701,80.3402844 408.558384,79.4090047 C408.806725,79.0364929 409.241322,78.7881517 409.862175,78.7881517 C410.483028,78.7881517 411.165967,78.9123223 411.78682,79.1606635 C412.469758,79.4090047 413.028526,79.7815166 413.401038,80.2161137 C413.835635,80.6507109 413.959806,81.0853081 413.77355,81.5819905 C413.214782,82.7616114 412.283502,84.4379147 411.041796,86.7350711 C409.80009,89.0322275 408.310043,91.5156398 406.509569,94.3094787 C404.709095,97.1033175 402.722365,99.8971564 400.549379,102.753081 C398.376393,105.609005 396.017152,108.216588 393.595825,110.575829 C391.174497,112.935071 388.691085,114.859716 386.083502,116.349763 C383.538005,117.83981 380.930422,118.584834 378.447009,118.584834 C377.391559,118.584834 376.211938,118.274408 374.846061,117.653555 C373.480185,117.032701 372.176393,116.163507 370.996772,114.983886 C369.755066,113.804265 368.761701,112.438389 367.954592,110.762085 C367.594454,110.014105 367.308483,109.21668 367.102195,108.369809 C366.527818,109.152015 365.943374,109.906886 365.347009,110.637915 C363.48445,112.997156 361.559806,114.921801 359.697246,116.411848 C357.772602,117.901896 355.972128,118.646919 354.35791,118.646919 C352.681607,118.646919 351.191559,118.336493 349.825682,117.71564 C348.521891,117.094787 347.34227,116.287678 346.41099,115.294313 C345.479711,114.300948 344.734687,113.183412 344.175919,111.941706 C343.679237,110.7 343.36881,109.396209 343.36881,108.030332 C343.36881,106.354028 343.741322,104.367299 344.424261,102.008057 C345.107199,99.6488152 345.852223,97.4137441 346.659332,95.3028436 C347.652697,92.8194313 348.770232,90.2739336 350.011938,87.6042654 C349.577341,87.2938389 349.080659,86.9834123 348.583976,86.6729858 C348.087294,86.3004739 347.590611,85.9279621 347.093929,85.4312796 C346.659332,86.3625592 346.100564,87.3559242 345.603881,88.4113744 C345.045114,89.4668246 344.175919,91.0189573 343.058384,92.9436019 C343.012139,93.02453 342.959436,93.0946938 342.900274,93.1548952 C342.76771,93.391658 342.634365,93.6323339 342.499616,93.8748815 C340.947483,96.6687204 339.27118,99.4625592 337.408621,102.380569 C335.608147,105.298578 333.745588,107.906161 331.883028,110.327488 C330.020469,112.68673 328.15791,114.67346 326.419521,116.163507 C324.619047,117.71564 323.004829,118.460664 321.514782,118.460664 C319.838479,118.460664 318.410516,118.026066 317.16881,117.218957 C315.927104,116.411848 314.871654,115.480569 314.00246,114.487204 C312.947009,113.307583 312.077815,112.003791 311.394877,110.389573 C310.711938,111.196682 309.904829,112.065877 308.97355,112.997156 C308.04227,113.928436 307.048905,114.79763 305.993455,115.604739 C304.938005,116.411848 303.820469,117.094787 302.640848,117.653555 C301.461227,118.212322 300.281607,118.460664 299.164071,118.460664 C296.929,118.460664 294.94227,117.963981 293.203881,116.970616 C291.527578,115.977251 290.099616,114.611374 288.919995,112.997156 C287.740374,111.320853 286.87118,109.520379 286.250327,107.471564 C285.927362,106.395016 285.687363,105.276985 285.542317,104.129461 C283.678761,106.452836 281.695767,108.601308 279.669284,110.575829 C277.247957,112.935071 274.764545,114.859716 272.156962,116.349763 C269.611464,117.83981 267.003881,118.584834 264.520469,118.584834 C263.465019,118.584834 262.285398,118.274408 260.919521,117.653555 C259.553644,117.032701 258.249853,116.163507 257.070232,114.983886 C255.828526,113.804265 254.835161,112.438389 254.028052,110.762085 C253.220943,109.085782 252.786346,107.161137 252.786346,104.988152 C252.786346,103.746445 253.158858,101.883886 253.903881,99.5867299 C254.648905,97.2274882 255.64227,94.5578199 256.883976,91.5777251 C258.125682,88.5976303 259.553644,85.3691943 261.105777,81.9545024 C262.719995,78.5398104 264.272128,75.0630332 265.886346,71.5862559 L267.68682,67.6748815 C265.141322,67.3023697 262.906251,66.7436019 260.919521,66.1848341 C258.932791,65.563981 257.256488,64.943128 255.890611,64.3222749 C255.607343,64.1935165 255.337426,64.0647582 255.081415,63.9359998 C254.644394,64.6402204 254.188743,65.3485085 253.717625,66.0606635 C250.985872,70.0962085 248.005777,74.0075829 244.65317,77.856872 C241.300564,81.7061611 237.885872,85.1208531 234.533265,88.1630332 C231.118573,91.2052133 227.890137,93.6265403 224.723787,95.4890995 C221.619521,97.3516588 218.949853,98.2829384 216.776867,98.2829384 C215.969758,98.2829384 214.976393,97.8483412 213.796772,96.9791469 C212.617152,96.1099526 211.499616,95.0545024 210.444166,93.8127962 C209.388716,92.57109 208.457436,91.2672986 207.712412,89.9635071 C206.967388,88.6597156 206.594877,87.4800948 206.594877,86.4867299 C206.594877,85.4312796 206.905303,84.5620853 207.526156,83.8791469 C208.147009,83.1962085 209.140374,82.8236967 210.444166,82.8236967 C211.375445,82.8236967 212.927578,82.0165877 215.162649,80.464455 C217.39772,78.9123223 219.943218,76.8635071 222.799142,74.3180095 C225.655066,71.7725118 228.573076,68.8545024 231.615256,65.6260664 C234.657436,62.3976303 237.451275,59.0450237 239.996772,55.6924171 C242.480185,52.3398104 244.591085,49.0492891 246.205303,45.8208531 C247.881607,42.5924171 248.688716,39.7364929 248.688716,37.2530806 C248.688716,33.4037915 247.57118,30.5478673 245.398194,28.7473934 C243.163123,26.9469194 240.43137,26.0156398 237.016678,26.0156398 C229.876867,26.0156398 223.171654,27.1952607 216.838952,29.5545024 C210.506251,31.9137441 204.670232,34.9559242 199.330896,38.6810427 C193.991559,42.4061611 189.21099,46.5658768 184.989189,51.1601896 C180.767388,55.7545024 177.166441,60.2867299 174.248431,64.756872 C171.330422,69.2270142 169.033265,73.3246445 167.481133,77.1118483 C165.929,80.8990521 165.121891,83.8791469 165.121891,85.9900474 C165.121891,88.8459716 166.239426,91.143128 168.412412,92.9436019 C170.647483,94.6819905 173.503407,96.1720379 177.104355,97.2895735 C180.705303,98.407109 184.740848,99.3383886 189.335161,99.8971564 C193.867388,100.518009 198.523787,101.076777 203.180185,101.635545 C207.898668,102.132227 212.492981,102.753081 216.963123,103.373934 C221.433265,103.994787 225.406725,104.926066 228.883502,106.043602 C232.360279,107.161137 235.154118,108.71327 237.265019,110.575829 C239.375919,112.438389 240.43137,114.921801 240.43137,117.901896 C240.43137,120.881991 239.562175,123.924171 237.761701,127.028436 C235.961227,130.132701 233.601986,133.112796 230.621891,135.96872 C227.641796,138.824645 224.227104,141.556398 220.377815,144.101896 C216.528526,146.647393 212.555066,148.882464 208.457436,150.745024 C204.359806,152.607583 200.324261,154.09763 196.22663,155.215166 C192.191085,156.270616 188.465967,156.829384 185.11336,156.829384 C181.01573,156.829384 177.725208,155.96019 175.303881,154.159716 C172.820469,152.359242 170.895825,150.310427 169.592033,147.951185 C168.226156,145.591943 167.356962,143.294787 166.922365,141.121801 C166.487768,138.88673 166.301512,137.334597 166.301512,136.403318 C166.301512,134.975355 166.736109,133.919905 167.543218,133.174882 C168.350327,132.429858 169.281607,132.119431 170.274971,132.119431 C171.330422,132.119431 172.261701,132.491943 173.06881,133.174882 C173.875919,133.919905 174.310516,134.975355 174.310516,136.403318 C174.310516,137.024171 174.372602,137.707109 174.496772,138.452133 C174.620943,139.197156 174.93137,139.818009 175.490137,140.438863 C175.98682,141.059716 176.856014,141.556398 177.97355,141.92891 C179.091085,142.301422 180.581133,142.487678 182.505777,142.487678 C184.244166,142.487678 186.479237,141.990995 189.335161,141.059716 C192.191085,140.128436 195.17118,138.88673 198.399616,137.396682 C201.628052,135.906635 204.918573,134.168246 208.209095,132.243602 C211.499616,130.318957 214.479711,128.394313 217.087294,126.531754 C219.694877,124.669194 221.867862,122.806635 223.544166,121.068246 C225.282554,119.516114 226.151749,118.026066 226.151749,116.846445 C226.151749,116.411848 225.592981,115.977251 224.599616,115.604739 C223.544166,115.232227 222.054118,114.859716 220.191559,114.549289 C218.329,114.238863 216.093929,113.990521 213.548431,113.74218 C211.002934,113.493839 208.27118,113.245498 205.291085,112.935071 C201.193455,112.562559 196.909569,112.127962 192.315256,111.63128 C187.783028,111.134597 183.250801,110.451659 178.842744,109.582464 C174.372602,108.71327 170.150801,107.533649 166.115256,106.105687 C162.079711,104.677725 158.478763,102.877251 155.436583,100.64218 C152.394403,98.407109 149.91099,95.7374408 148.110516,92.5090047 C146.310043,89.342654 145.378763,85.4933649 145.378763,81.0853081 C145.378763,77.3601896 146.558384,73.2625592 148.917625,68.7303318 C151.276867,64.1981043 154.567388,59.6658768 158.727104,55.071564 C162.88682,50.4772512 167.853644,46.007109 173.565493,41.6611374 C179.277341,37.3151659 185.423787,33.4658768 192.129,30.1132701 C198.772128,26.7606635 205.787768,24.0909953 213.113834,22.0421801 C220.4399,20.0554502 227.765967,19 235.154118,19 Z" id="start" fill-opacity="0.8" fill="#FFFFFF" fill-rule="nonzero"></path>
    </g>
</svg>