<?xml version="1.0" encoding="UTF-8"?>
<svg width="550px" height="300px" viewBox="0 0 550 300" version="1.1" xmlns="http://www.w3.org/2000/svg" xmlns:xlink="http://www.w3.org/1999/xlink">
    <title>4</title>
    <g id="4" stroke="none" stroke-width="1" fill="none" fill-rule="evenodd">
        <path d="M346.932447,195.366484 L354.926966,200.086139 L315.62861,273 L308.404648,268.665623 L346.932447,195.366484 Z M259.666981,197.389193 C262.652886,197.389193 265.542471,197.774471 268.239417,198.545027 C271.032682,199.315583 273.44067,200.567737 275.463379,202.205168 C277.582408,203.8426 279.219839,205.865309 280.471993,208.369616 C281.724146,210.873923 282.302063,213.763508 282.302063,217.23101 C282.302063,221.18011 281.338868,224.551292 279.316159,227.344558 C277.389769,230.137823 274.500184,231.967894 270.743724,232.738449 L270.743724,233.027408 C272.766433,233.316366 274.596503,233.894283 276.137615,234.953798 C277.678727,235.916993 279.0272,237.169146 280.086715,238.710258 C281.146229,240.155051 282.013105,241.888802 282.591022,243.718872 C283.168939,245.645262 283.457897,247.571652 283.457897,249.690681 C283.457897,253.254503 282.783661,256.336727 281.531507,259.033673 C280.279354,261.730619 278.449283,263.945967 276.330254,265.679718 C274.114906,267.413469 271.610599,268.761942 268.624695,269.628818 C265.63879,270.495693 262.556566,270.977291 259.281703,270.977291 C253.213575,270.977291 248.108641,269.532498 243.774264,266.546594 C239.439886,263.560689 236.550301,258.937353 235.201828,252.580266 L250.22767,248.823806 C250.709268,251.328113 251.768782,253.350822 253.309894,254.891934 C254.851006,256.336727 257.162674,257.107283 260.244898,257.107283 C263.327122,257.107283 265.63879,256.240407 267.179902,254.506656 C268.624695,252.772905 269.395251,250.557557 269.395251,247.95693 C269.395251,245.934221 269.009973,244.393109 268.239417,243.237275 C267.468861,242.17776 266.409346,241.310885 265.157193,240.732968 C263.905039,240.155051 262.460247,239.866092 260.919135,239.769773 C259.378023,239.673453 257.740591,239.577134 256.199479,239.577134 L252.828297,239.577134 L252.828297,226.670321 L257.355313,226.670321 C258.703786,226.670321 259.95594,226.574002 261.208093,226.381363 C262.460247,226.188724 263.616081,225.803446 264.675595,225.225529 C265.73511,224.647612 266.601985,223.877056 267.179902,222.817541 C267.854139,221.758027 268.143097,220.409554 268.143097,218.772122 C268.143097,216.653093 267.372541,214.823023 265.73511,213.47455 C264.097678,212.126077 262.171288,211.355521 259.763301,211.355521 C257.547952,211.355521 255.717882,212.029757 254.273089,213.281911 C252.828297,214.534064 251.865102,216.171496 251.383504,218.001566 L235.683426,214.534064 C236.453982,211.45184 237.609816,208.851214 239.150928,206.635865 C240.69204,204.420517 242.52211,202.686766 244.54482,201.338293 C246.663849,199.98982 248.975517,199.026625 251.576143,198.352388 C254.17677,197.678152 256.873716,197.389193 259.666981,197.389193 Z M355.408563,231.197338 C358.009189,231.197338 360.417177,231.678935 362.728845,232.738449 C365.040513,233.797964 366.966903,235.242756 368.700654,236.976507 C370.338085,238.806578 371.686558,240.925607 372.649753,243.333594 C373.612948,245.741582 374.094546,248.342208 374.094546,251.039154 C374.094546,253.83242 373.612948,256.433046 372.649753,258.841034 C371.686558,261.249021 370.338085,263.46437 368.700654,265.198121 C367.063222,267.028191 365.040513,268.472984 362.728845,269.436179 C360.417177,270.495693 358.009189,270.977291 355.408563,270.977291 C352.807937,270.977291 350.399949,270.495693 348.088281,269.436179 C345.776613,268.376664 343.850223,266.931872 342.116472,265.198121 C340.479041,263.36805 339.130568,261.249021 338.167373,258.841034 C337.204178,256.336727 336.72258,253.7361 336.72258,251.039154 C336.72258,248.245889 337.204178,245.741582 338.167373,243.333594 C339.130568,240.925607 340.479041,238.806578 342.116472,236.976507 C343.753904,235.146437 345.776613,233.701644 348.088281,232.738449 C350.399949,231.678935 352.807937,231.197338 355.408563,231.197338 Z M355.408563,241.407204 C352.904256,241.407204 350.688908,242.370399 348.955157,244.20047 C347.221406,246.12686 346.35453,248.342208 346.35453,251.039154 C346.35453,253.83242 347.221406,256.144088 348.955157,257.974158 C350.688908,259.900548 352.807937,260.767424 355.408563,260.767424 C357.91287,260.767424 360.128218,259.804229 361.861969,257.974158 C363.59572,256.047768 364.462596,253.7361 364.462596,251.039154 C364.462596,248.342208 363.59572,246.03054 361.861969,244.20047 C360.128218,242.370399 358.009189,241.407204 355.408563,241.407204 Z M307.634092,197.485513 C310.234718,197.485513 312.642706,197.96711 314.954373,199.026625 C317.266041,200.086139 319.192431,201.530932 320.926182,203.264683 C322.563614,205.094753 323.912087,207.213782 324.875282,209.62177 C325.838477,212.029757 326.320074,214.630384 326.320074,217.32733 C326.320074,220.120595 325.838477,222.624902 324.875282,225.03289 C323.912087,227.440877 322.563614,229.559906 320.926182,231.389977 C319.288751,233.220047 317.266041,234.664839 314.954373,235.628034 C312.642706,236.687549 310.234718,237.169146 307.634092,237.169146 C305.033465,237.169146 302.625478,236.687549 300.31381,235.628034 C298.002142,234.56852 296.075752,233.123727 294.342001,231.389977 C292.704569,229.559906 291.356096,227.440877 290.392901,225.03289 C289.429706,222.624902 288.948109,220.024276 288.948109,217.32733 C288.948109,214.534064 289.429706,212.029757 290.392901,209.62177 C291.356096,207.213782 292.704569,205.094753 294.342001,203.264683 C295.979432,201.434612 298.002142,199.98982 300.31381,199.026625 C302.625478,197.96711 305.033465,197.485513 307.634092,197.485513 Z M307.634092,207.69538 C305.129785,207.69538 302.914436,208.658575 301.180685,210.488645 C299.446934,212.415035 298.580059,214.630384 298.580059,217.32733 C298.580059,220.024276 299.446934,222.335944 301.180685,224.166014 C302.914436,226.092404 305.033465,226.95928 307.634092,226.95928 C310.138399,226.95928 312.353747,225.996085 314.087498,224.166014 C315.821249,222.239624 316.688124,220.024276 316.688124,217.32733 C316.688124,214.630384 315.821249,212.318716 314.087498,210.488645 C312.353747,208.658575 310.234718,207.69538 307.634092,207.69538 Z" id="3%" fill="#FFFFFF" fill-rule="nonzero"></path>
        <path d="M170.571445,207.502741 C171.245681,207.59906 172.016237,207.791699 172.883113,208.273297 C173.749988,208.754894 174.520544,209.332811 175.194781,210.103367 C175.869017,210.873923 176.254295,211.54816 176.254295,212.318716 C176.254295,213.089272 176.061656,214.245106 175.580059,215.593579 C175.098461,216.942052 174.424225,218.579483 173.653669,220.409554 C175.772698,220.313234 177.602768,220.120595 179.2402,219.927956 C180.877631,219.638998 182.226104,219.350039 183.189299,219.061081 L183.09298,219.1574 C184.248814,218.868442 185.115689,218.772122 185.693606,218.772122 L185.767473,218.79528 C186.127419,217.993281 186.458643,217.217681 186.753121,216.460454 C187.523677,214.726703 188.101594,213.185591 188.583191,211.837118 C189.064789,210.488645 189.257428,209.429131 189.257428,208.658575 C189.257428,208.080658 189.642706,207.888019 190.413262,207.888019 C191.183818,207.984338 192.050693,208.273297 193.013888,208.658575 C193.977083,209.043853 194.843958,209.718089 195.614514,210.488645 C196.38507,211.162882 196.770348,211.933438 196.770348,212.703994 C196.770348,213.570869 196.48139,214.823023 195.999792,216.267815 C195.518195,217.712608 194.843958,219.446359 193.977083,221.276429 C193.206527,223.1065 192.243332,225.129209 191.183818,227.248238 C190.124303,229.367267 189.064789,231.486296 188.005274,233.605325 L187.619996,234.375881 L187.619996,234.4722 C188.679511,233.220047 189.739025,231.871574 190.79854,230.619421 C191.858054,229.367267 192.917568,228.211433 193.880763,227.248238 C194.843958,226.285043 195.710834,225.418168 196.48139,224.840251 C197.251946,224.166014 197.829863,223.877056 198.215141,223.780736 C198.600419,223.780736 199.178336,223.877056 199.756253,224.262334 C200.33417,224.647612 200.912087,225.03289 201.490004,225.610807 C202.067921,226.188724 202.549518,226.766641 202.934796,227.440877 C203.320074,228.115114 203.512713,228.88567 203.512713,229.559906 C203.512713,230.041504 203.223755,231.004699 202.645838,232.256852 C202.067921,233.509005 201.297365,235.050117 200.526809,236.783868 C199.948892,238.036022 199.274655,239.288175 198.696738,240.636648 C198.022502,241.985121 197.444585,243.237275 196.962987,244.489428 C196.38507,245.741582 195.999792,246.897416 195.614514,247.95693 C195.229236,249.016445 195.132917,249.88332 195.132917,250.461237 L195.132917,250.846515 C195.132917,250.942835 195.132917,250.942835 195.229236,250.942835 C195.710834,250.942835 196.48139,250.557557 197.348265,249.690681 C198.215141,248.920125 199.178336,247.860611 200.141531,246.608457 C201.201045,245.356304 202.16424,243.911511 203.320074,242.370399 C204.100966,241.234557 204.881858,240.151036 205.585625,239.042711 C205.851165,238.255278 206.187328,237.471414 206.594937,236.687549 C207.494809,234.812815 208.686595,233.11323 210.079388,231.54334 C210.108021,231.490751 210.134092,231.439311 210.158759,231.389977 C210.216638,231.216339 210.344077,231.112262 210.520176,231.056845 C210.778914,230.779331 211.0439,230.504835 211.314593,230.234143 C213.240983,228.307753 215.456331,226.766641 217.864319,225.610807 C220.272306,224.454973 222.776613,223.877056 225.28092,223.877056 C226.918352,223.877056 228.074186,224.262334 228.844742,224.93657 C229.518978,225.707126 229.904256,226.670321 229.904256,227.922475 C229.904256,228.78935 229.711617,229.848865 229.23002,231.101018 C228.748422,232.256852 228.074186,233.509005 227.30363,234.761159 C226.533074,236.013312 225.569879,237.265466 224.510364,238.517619 C223.45085,239.769773 222.295016,240.829287 221.139182,241.888802 C219.983348,242.948316 218.731194,243.815192 217.57536,244.489428 C216.323207,245.163665 215.167373,245.645262 214.011539,245.934221 C213.915219,246.608457 213.8189,247.282694 213.8189,247.95693 C213.8189,248.727486 213.915219,249.401723 214.204178,249.97964 C214.493136,250.461237 214.974734,250.750196 215.64897,250.750196 C217.190082,250.750196 218.731194,250.364918 220.272306,249.594362 C221.813418,248.823806 223.258211,247.764291 224.606684,246.608457 C225.955157,245.356304 227.30363,244.007831 228.459464,242.563038 C229.711617,241.118246 230.771132,239.577134 231.734327,238.228661 C232.697521,236.880188 233.468077,235.531715 234.142314,234.375881 C234.81655,232.834769 235.298148,231.967894 235.587106,231.389977 C235.683426,231.101018 235.972384,231.004699 236.357662,231.004699 C236.74294,231.004699 237.128218,231.101018 237.513496,231.197338 C237.898774,231.389977 238.187733,231.582616 238.476691,231.871574 C238.76565,232.160532 238.861969,232.449491 238.66933,232.738449 C238.284052,233.412686 237.802455,234.4722 237.031899,235.916993 C236.357662,237.265466 235.394467,238.806578 234.334953,240.540329 C233.275438,242.17776 232.023285,243.911511 230.674812,245.645262 C229.326339,247.379013 227.785227,249.016445 226.147796,250.461237 C224.510364,251.90603 222.680294,253.061864 220.850223,254.025059 C218.923833,254.891934 216.997443,255.373532 214.878414,255.373532 C213.144663,255.373532 211.603551,254.988254 210.351398,254.314017 C209.099244,253.543461 208.03973,252.676586 207.172854,251.520752 C206.305979,250.364918 205.728062,249.209084 205.342784,247.860611 C205.145159,247.168923 204.998219,246.502579 204.901964,245.848577 L205.053825,245.645262 C203.801672,247.379013 202.453199,249.016445 201.104726,250.461237 C199.756253,251.90603 198.504099,253.061864 197.251946,254.025059 C195.999792,254.891934 194.843958,255.373532 193.784444,255.373532 C192.050693,255.373532 190.70222,254.699295 189.546386,253.447142 C188.390552,252.194988 187.908955,250.461237 187.908955,248.245889 C187.908955,247.475333 188.101594,246.608457 188.390552,245.548943 C188.679511,244.489428 189.064789,243.237275 189.546386,241.985121 C190.027984,240.732968 190.605901,239.384495 191.183818,238.036022 C191.761734,236.687549 192.435971,235.339076 193.013888,233.990603 C191.858054,235.339076 190.70222,236.783868 189.450067,238.32498 C188.197913,239.866092 187.042079,241.310885 185.886245,242.851997 C184.730411,244.296789 183.767216,245.741582 182.804021,247.090055 C181.937146,248.438528 181.262909,249.498042 180.781312,250.461237 C180.684992,250.846515 180.588673,251.231793 180.588673,251.424432 L180.684992,251.80971 C180.684992,251.90603 180.781312,252.002349 180.781312,252.194988 C180.781312,252.291308 180.781312,252.483947 180.877631,252.580266 L180.781312,252.483947 C180.877631,252.869225 180.973951,253.254503 181.07027,253.639781 C181.16659,254.025059 181.16659,254.314017 181.07027,254.602976 C180.973951,254.891934 180.877631,255.084573 180.588673,255.277212 C180.299714,255.469851 179.914436,255.469851 179.336519,255.469851 C178.662283,255.469851 177.891727,255.277212 177.21749,254.988254 C176.543254,254.699295 175.869017,254.217698 175.2911,253.543461 C174.713183,252.965544 174.231586,252.194988 173.846308,251.328113 C173.46103,250.461237 173.268391,249.498042 173.268391,248.438528 C173.268391,248.090065 173.299518,247.694911 173.368029,247.253066 C172.482235,248.321463 171.567039,249.335229 170.571445,250.268598 C169.126652,251.713391 167.58554,252.869225 166.044428,253.83242 C164.503316,254.699295 162.962204,255.180893 161.421092,255.180893 C160.746856,255.180893 160.072619,254.988254 159.205744,254.602976 C158.338868,254.217698 157.568312,253.7361 156.894076,252.965544 C156.12352,252.291308 155.545603,251.424432 155.064005,250.364918 C154.582408,249.305403 154.293449,248.149569 154.293449,246.801096 C154.293449,246.03054 154.486088,244.971026 154.967686,243.526233 C155.449283,242.081441 156.0272,240.444009 156.797756,238.613939 C157.568312,236.783868 158.435188,234.857478 159.398383,232.738449 C160.361578,230.619421 161.324773,228.500392 162.287968,226.477682 L163.347482,224.069695 C161.80637,223.780736 160.457897,223.491778 159.205744,223.1065 C157.95359,222.721222 156.990395,222.335944 156.12352,221.950666 C155.256644,221.565388 154.678727,221.18011 154.19713,220.794832 C153.715532,220.409554 153.522893,220.120595 153.522893,219.927956 C153.522893,219.446359 153.619213,219.061081 153.715532,218.868442 C153.811852,218.675803 154.10081,218.483164 154.389769,218.483164 C154.678727,218.483164 155.064005,218.483164 155.641922,218.579483 C156.12352,218.675803 156.701437,218.772122 157.471993,218.964761 C158.242549,219.1574 159.302063,219.350039 160.554217,219.542678 C161.80637,219.735317 163.347482,219.927956 165.081233,220.120595 C166.333387,217.423649 167.392901,214.919342 168.259777,212.800313 C169.126652,210.681284 169.51193,209.140172 169.51193,208.273297 C169.51193,207.69538 169.897208,207.502741 170.571445,207.502741 Z M183.948331,222.677998 L183.687006,222.791566 C183.587955,222.832925 183.486284,222.873727 183.381938,222.913861 C182.129785,223.395458 180.588673,223.877056 178.758602,224.262334 C176.832212,224.647612 174.616864,224.840251 172.016237,224.840251 C171.727279,225.514487 171.342001,226.285043 171.053042,226.95928 C170.764084,227.633516 170.378806,228.404072 169.993528,229.078309 C169.030333,231.101018 168.067138,233.123727 167.103943,235.146437 C166.140748,237.169146 165.273872,239.191856 164.503316,240.925607 C163.73276,242.755677 163.154843,244.393109 162.673246,245.934221 C162.191648,247.475333 161.999009,248.631167 161.999009,249.594362 C161.999009,250.461237 162.287968,250.846515 162.769565,250.846515 C163.73276,250.846515 164.792275,250.461237 165.948109,249.594362 C167.103943,248.823806 168.259777,247.764291 169.415611,246.512138 C170.571445,245.259984 171.727279,243.815192 172.883113,242.27408 C174.038947,240.732968 175.098461,239.288175 175.965337,237.843383 C176.928532,236.39859 177.699088,235.050117 178.373324,233.894283 C178.954264,232.898387 179.392188,232.117014 179.687098,231.550162 C180.2246,230.413418 180.777391,229.278789 181.359229,228.115114 C182.222263,226.302742 183.085297,224.49037 183.948331,222.677998 Z M226.051476,227.440877 C225.184601,227.440877 224.317725,227.826155 223.258211,228.693031 C222.198696,229.559906 221.235501,230.619421 220.272306,231.871574 C219.309111,233.220047 218.345916,234.664839 217.57536,236.302271 C216.708485,237.939702 215.937929,239.577134 215.360012,241.214565 C216.612165,240.540329 217.864319,239.673453 219.212792,238.517619 C220.561265,237.361785 221.717099,236.013312 222.776613,234.761159 C223.836128,233.412686 224.703003,232.160532 225.37724,230.908379 C226.051476,229.656226 226.340435,228.596711 226.340435,227.826155 C226.340435,227.537197 226.244115,227.440877 226.051476,227.440877 Z" id="the" fill="#FFFFFF" fill-rule="nonzero"></path>
        <path d="M73.3850704,214.534064 C74.1556264,214.534064 75.0225019,214.823023 75.9856969,215.30462 C76.9488919,215.786218 77.8157674,216.364135 78.5863234,217.038371 C79.3568794,217.712608 79.7421574,218.386844 79.7421574,219.061081 L79.7421574,220.120595 L79.7421574,220.120595 C79.7421574,220.313234 79.6458379,220.602193 79.6458379,220.794832 C79.6458379,220.987471 79.4531989,221.372749 79.2605599,221.854346 C79.0679209,222.239624 78.7789624,222.817541 78.3936844,223.588097 C81.2832693,222.624902 83.9802153,222.239624 86.3882028,222.239624 C87.0624393,222.239624 87.5440368,222.335944 88.0256343,222.624902 C88.5072318,222.913861 88.7961903,223.202819 89.0851488,223.588097 C89.3741072,223.973375 89.5667462,224.454973 89.7593852,224.93657 C89.8557047,225.418168 89.9520242,225.899765 89.9520242,226.381363 C89.9520242,227.248238 89.7593852,228.018794 89.3741072,228.693031 C88.9888293,229.367267 88.4109123,229.656226 87.6403563,229.656226 C85.2323688,229.656226 82.8243813,229.752545 80.5127134,230.041504 C78.2010454,230.330462 75.9856969,230.71574 73.8666679,231.101018 C72.8071534,233.027408 71.555,235.242756 70.3028465,237.650744 C69.050693,240.058731 67.894859,242.370399 66.739025,244.585748 C65.6795105,246.801096 64.7163155,248.823806 64.0420791,250.557557 C63.3678426,252.291308 62.9825646,253.639781 62.9825646,254.410337 C62.9825646,255.855129 63.0788841,257.107283 63.3678426,258.166797 C63.6568011,259.129992 63.9457596,259.996868 64.2347181,260.574785 C64.7163155,261.730619 64.9089545,262.501175 64.812635,262.982772 C64.7163155,263.46437 64.0420791,263.657009 62.7899256,263.657009 C62.1156891,263.657009 61.4414526,263.36805 60.4782576,262.886453 C59.6113821,262.404855 58.7445066,261.634299 57.9739506,260.671104 C57.2033946,259.707909 56.5291581,258.552075 55.9512412,257.299922 C55.3733242,255.951449 55.0843657,254.506656 55.0843657,252.965544 C55.0843657,252.291308 55.2770047,251.328113 55.7586022,249.97964 C56.2401997,248.631167 56.8181166,247.090055 57.4923531,245.356304 C58.1665896,243.622553 58.9371456,241.888802 59.9003406,239.962412 C60.7672161,238.132341 61.6340916,236.302271 62.4046476,234.664839 C61.9230501,234.857478 61.3451331,235.050117 60.8635356,235.242756 C60.3819381,235.435395 59.9003406,235.628034 59.5150626,235.724354 C58.8408261,236.013312 58.3592286,236.205951 57.9739506,236.302271 C57.5886726,236.39859 57.2997141,236.49491 57.0107556,236.49491 C56.2401997,236.49491 55.6622827,236.302271 55.3733242,235.916993 C55.0843657,235.531715 54.9880462,235.050117 54.9880462,234.56852 C54.9880462,234.086922 55.2770047,233.509005 55.8549217,232.834769 C56.4328386,232.160532 57.2033946,231.582616 58.2629091,230.908379 C59.3224236,230.234143 60.4782576,229.656226 61.8267306,228.981989 C63.1752036,228.307753 64.7163155,227.729836 66.2574275,227.151919 C66.739025,226.092404 67.316942,225.129209 67.7985395,224.262334 C68.280137,223.299139 68.7617345,222.528583 69.1470125,221.854346 L69.1470125,221.950666 C70.206527,220.024276 70.977083,218.579483 71.4586805,217.616288 C71.940278,216.653093 72.2292365,215.882537 72.2292365,215.497259 C72.2292365,214.823023 72.6145145,214.534064 73.3850704,214.534064 Z M122.604334,219.446359 C123.085932,219.446359 123.760168,219.542678 124.530724,219.638998 C125.30128,219.735317 125.975517,219.927956 126.649753,220.216915 C127.32399,220.505873 127.805587,220.794832 128.287185,221.276429 C128.768782,221.758027 128.961421,222.239624 128.961421,222.913861 C128.961421,223.491778 128.768782,224.069695 128.479824,224.647612 C128.190865,225.225529 127.805587,225.899765 127.420309,226.670321 C126.938712,227.440877 126.457114,228.307753 126.071836,229.270948 C125.686558,230.137823 125.493919,231.004699 125.493919,231.871574 C125.493919,232.449491 125.590239,233.027408 125.686558,233.412686 C125.782878,233.797964 126.071836,234.183242 126.360795,234.4722 C126.649753,234.761159 126.938712,235.050117 127.22767,235.242756 C127.516629,235.435395 127.805587,235.628034 128.094546,235.820673 C128.672463,236.109632 129.15406,236.49491 129.539338,236.783868 C129.924616,237.072827 130.117255,237.650744 130.117255,238.32498 C130.117255,238.710258 129.924616,239.384495 129.635658,240.155051 C129.346699,240.925607 128.865102,241.888802 128.383504,242.948316 C128.094546,243.622553 127.709268,244.393109 127.420309,245.163665 C127.035031,245.934221 126.746073,246.704777 126.457114,247.475333 C126.168156,248.245889 125.975517,248.920125 125.782878,249.594362 C125.590239,250.268598 125.493919,250.846515 125.493919,251.328113 C125.493919,251.713391 125.590239,251.90603 125.782878,251.90603 C126.264475,251.90603 126.938712,251.520752 127.709268,250.653876 C128.479824,249.88332 129.346699,248.823806 130.213575,247.571652 C131.08045,246.319499 131.947326,244.874706 132.910521,243.333594 C133.777396,241.792482 134.644272,240.25137 135.511147,238.806578 C136.281703,237.361785 137.052259,236.013312 137.630176,234.761159 C138.304413,233.123727 138.78601,232.160532 139.074969,231.486296 C139.171288,231.197338 139.460247,231.101018 139.845525,231.101018 C140.230803,231.101018 140.616081,231.197338 141.001359,231.293657 C141.386637,231.486296 141.771915,231.678935 141.964554,231.967894 C142.157193,232.256852 142.253512,232.54581 142.157193,232.738449 C141.868234,233.412686 141.386637,234.4722 140.616081,235.916993 C139.845525,237.361785 139.074969,238.806578 138.208093,240.540329 C137.244898,242.17776 136.281703,243.911511 135.222189,245.645262 C134.162674,247.379013 133.00684,249.016445 131.851006,250.461237 C130.695172,251.90603 129.539338,253.061864 128.383504,254.025059 C127.22767,254.891934 126.168156,255.373532 125.108641,255.373532 C124.049127,255.373532 123.182251,255.180893 122.411695,254.795615 C121.641139,254.410337 120.870583,253.928739 120.292666,253.350822 C119.714749,252.772905 119.233152,252.098669 118.944193,251.328113 C118.655235,250.557557 118.462596,249.787001 118.462596,248.920125 C118.462596,247.860611 118.655235,246.704777 119.136832,245.259984 C119.52211,243.815192 120.003708,242.466719 120.485305,241.214565 C121.063222,239.673453 121.737459,238.132341 122.508015,236.49491 C122.219056,236.302271 121.930098,236.109632 121.641139,235.916993 L121.496214,235.813093 L121.496214,235.813093 L121.358201,235.703284 C120.960883,236.362471 120.509385,237.048747 120.003708,237.843383 C119.329471,238.902897 118.462596,239.866092 117.59572,241.021926 C116.632525,242.081441 115.66933,243.140955 114.513496,244.007831 C113.453982,244.971026 112.201828,245.741582 110.949675,246.415818 C109.697521,247.090055 108.252729,247.571652 106.807937,247.764291 C105.266825,249.97964 103.436754,251.80971 101.414045,253.158183 C99.3913351,254.602976 97.3686256,255.277212 95.1532772,255.277212 C93.9974432,255.277212 92.8416092,255.084573 91.7820947,254.602976 C90.7225802,254.121378 89.6630657,253.447142 88.7961903,252.580266 C87.9293148,251.713391 87.2550783,250.557557 86.6771613,249.209084 C86.0992443,247.860611 85.9066053,246.319499 85.9066053,244.489428 C85.9066053,242.755677 86.1955638,241.118246 86.8698003,239.288175 C87.5440368,237.554424 88.3145928,235.916993 89.1814682,234.375881 C90.0483437,232.834769 90.9152192,231.678935 91.7820947,230.71574 C92.6489702,229.752545 93.4195262,229.270948 93.9011237,229.270948 C94.2864017,229.270948 94.6716797,229.270948 95.0569577,229.367267 C95.4422357,229.463587 95.9238332,229.559906 96.3091112,229.656226 C96.9833477,228.78935 97.6575841,228.018794 98.3318206,227.248238 C99.0060571,226.477682 99.8729326,225.899765 100.643489,225.321848 C101.510364,224.743931 102.28092,224.358653 103.244115,223.973375 C104.110991,223.684417 104.977866,223.491778 105.941061,223.491778 C107.289534,223.491778 108.349049,223.684417 109.215924,223.973375 C110.082799,224.262334 110.757036,224.647612 111.238633,225.225529 C111.720231,225.803446 112.105509,226.381363 112.298148,227.151919 C112.490787,227.922475 112.587106,228.693031 112.587106,229.559906 C112.587106,234.183242 111.527592,238.613939 109.504883,242.755677 C110.757036,242.081441 112.009189,241.118246 113.068704,240.058731 C114.020567,239.18619 114.907107,238.248325 115.674526,237.352728 C115.975411,236.804118 116.249474,236.297818 116.439886,235.916993 C116.728845,235.242756 117.017803,234.761159 117.306762,234.279561 C117.499401,233.797964 117.69204,233.412686 117.884679,233.027408 C118.077318,232.64213 118.269957,232.353171 118.366276,231.967894 C118.173637,231.582616 118.077318,231.101018 117.980998,230.523101 C117.884679,229.945184 117.884679,229.367267 117.884679,228.78935 C117.884679,227.633516 117.980998,226.477682 118.269957,225.321848 C118.558915,224.166014 118.944193,223.202819 119.329471,222.335944 C119.714749,221.469068 120.292666,220.698512 120.870583,220.216915 C121.4485,219.638998 122.026417,219.446359 122.604334,219.446359 Z M94.9606382,243.429914 C94.4790407,244.489428 94.0937627,245.548943 93.8048042,246.608457 C93.5158457,247.667972 93.3232067,248.534847 93.3232067,249.305403 C93.3232067,249.88332 93.4195262,250.364918 93.7084847,250.750196 C93.9974432,251.039154 94.4790407,251.231793 95.2495967,251.231793 C96.5017502,251.231793 97.6575841,250.942835 98.7170986,250.268598 C99.7766131,249.594362 100.836128,248.727486 101.703003,247.571652 C100.35453,247.186374 99.1023766,246.704777 97.9465426,245.934221 C96.7907087,245.259984 95.7311942,244.393109 94.9606382,243.429914 Z M108.06009,228.018794 C107.674812,228.018794 107.193215,228.500392 106.422659,229.367267 C105.652103,230.234143 104.977866,231.389977 104.20731,232.738449 C103.436754,234.086922 102.762518,235.531715 102.184601,236.976507 C101.606684,238.613939 101.317725,239.962412 101.317725,241.214565 C101.317725,241.985121 101.510364,242.755677 101.895642,243.237275 C102.28092,243.815192 102.955157,244.10415 104.014671,244.296789 C104.688908,243.140955 105.363144,241.888802 105.941061,240.540329 C106.518978,239.288175 107.000576,237.939702 107.385854,236.687549 C107.771132,235.435395 108.06009,234.279561 108.252729,233.123727 C108.445368,231.967894 108.541688,231.004699 108.541688,230.137823 C108.541688,228.693031 108.349049,228.018794 108.06009,228.018794 Z M106.615298,198.159749 C111.238633,198.159749 115.091413,198.545027 118.077318,199.411903 C121.159542,200.278778 123.567529,201.338293 125.3976,202.494127 C127.22767,203.74628 128.576143,204.998434 129.346699,206.250587 C130.117255,207.59906 130.502533,208.658575 130.502533,209.62177 C130.502533,210.488645 130.213575,211.355521 129.635658,212.029757 C129.057741,212.703994 128.287185,213.089272 127.32399,213.089272 C126.649753,213.089272 126.071836,212.992952 125.782878,212.800313 C125.493919,212.607674 125.30128,212.318716 125.204961,212.029757 C125.108641,211.740799 125.108641,211.355521 125.204961,210.970243 C125.30128,210.584965 125.3976,210.199687 125.493919,209.814409 C125.590239,209.52545 125.590239,209.332811 125.590239,209.332811 C125.590239,208.851214 125.30128,208.273297 124.819683,207.69538 C124.338085,207.117463 123.663849,206.635865 122.700654,206.250587 C121.833778,205.865309 120.677944,205.480031 119.425791,205.191073 C118.173637,204.902114 116.728845,204.805795 115.187733,204.805795 C108.638007,204.805795 102.569879,205.287392 96.9833477,206.154268 C91.3004972,207.021143 86.0992443,208.176977 81.2832693,209.52545 C76.4672944,210.873923 72.132917,212.318716 68.1838175,213.763508 C64.2347181,215.30462 60.7672161,216.653093 57.7813116,217.905247 C55.0843657,219.061081 52.5800587,220.120595 50.5573492,220.891151 C48.4383202,221.661707 46.8008888,222.046985 45.4524158,222.046985 C44.6818598,222.046985 43.8149843,221.854346 43.0444283,221.469068 C42.2738723,221.08379 41.5996358,220.698512 40.9253993,220.120595 C40.3474823,219.638998 39.7695654,219.061081 39.3842874,218.386844 C38.9990094,217.712608 38.8063704,217.134691 38.8063704,216.653093 C38.8063704,215.882537 39.0953289,215.208301 39.6732459,214.823023 C40.2511628,214.341425 41.1180383,214.148786 42.3701918,214.148786 C42.8517893,214.148786 43.9113038,213.859828 45.6450548,213.281911 C47.3788058,212.703994 49.4015152,211.933438 51.8095027,211.066562 C54.0248512,210.296006 56.5291581,209.332811 59.2261041,208.465936 C61.9230501,207.59906 64.812635,206.539546 67.894859,205.576351 C70.977083,204.613156 74.1556264,203.649961 77.4304894,202.686766 C80.7053524,201.81989 83.9802153,200.953015 87.3513978,200.278778 C90.6262607,199.604542 93.9011237,199.026625 97.1759867,198.545027 C100.547169,198.352388 103.629393,198.159749 106.615298,198.159749 Z" id="for" fill="#FFFFFF" fill-rule="nonzero"></path>
        <path d="M354.15641,121.007831 C356.757036,121.007831 359.068704,121.393109 360.898774,122.067345 C362.728845,122.837901 364.269957,123.704777 365.425791,124.860611 C366.581625,126.016445 367.54482,127.268598 368.122737,128.617071 C368.796973,129.965544 369.182251,131.314017 369.47121,132.66249 C369.760168,133.914644 369.760168,135.070478 369.760168,136.129992 C369.760168,137.189507 369.567529,137.863743 369.37489,138.345341 L369.47121,138.345341 C369.278571,138.923258 368.796973,139.115897 368.122737,139.115897 C367.4485,139.115897 366.774264,138.923258 366.100027,138.730619 C365.425791,138.44166 364.847874,138.152702 364.366276,137.767424 C363.884679,137.382146 363.59572,137.093187 363.69204,136.900548 C363.770847,136.821741 363.785175,136.549499 363.78778,136.083822 L363.788359,135.744714 L363.788359,135.744714 C363.788359,135.070478 363.499401,134.492561 363.210442,133.818324 C362.825164,133.144088 362.247247,132.566171 361.380372,132.084573 C360.513496,131.602976 359.261343,131.314017 357.720231,131.314017 C356.082799,131.314017 354.252729,132.084573 352.326339,133.529366 C350.399949,134.974158 348.569879,136.900548 346.643489,139.212216 C344.813418,141.523884 342.983348,144.22083 341.249597,147.110415 C339.515846,150.096319 337.974734,153.082224 336.72258,156.068128 C335.470427,159.054033 334.410912,162.039937 333.640356,164.833203 C332.8698,167.626468 332.484522,170.034456 332.484522,172.057165 C332.484522,174.561472 333.255078,175.813626 334.699871,175.813626 C336.433622,175.813626 338.167373,175.04307 339.997443,173.501958 C341.827514,171.960846 343.561265,170.034456 345.295016,167.626468 C347.028767,165.218481 348.569879,162.617854 350.014671,159.824589 C351.459464,156.935004 352.711617,154.238058 353.867451,151.733751 C355.023285,149.133125 355.89016,146.917776 356.468077,144.991386 C357.045994,143.064996 357.431272,141.716523 357.431272,141.138606 C357.431272,140.560689 357.81655,140.175411 358.490787,139.982772 C359.165023,139.886453 360.031899,139.886453 361.091413,140.175411 C362.150928,140.46437 363.306762,140.849648 364.462596,141.331245 C365.714749,141.812843 366.870583,142.487079 367.833778,143.064996 C368.893293,143.739233 369.760168,144.413469 370.434405,145.184025 C371.108641,145.954581 371.493919,146.532498 371.493919,147.110415 C371.493919,147.880971 371.108641,149.133125 370.434405,150.866875 C369.760168,152.600626 368.893293,154.623336 367.930098,156.838684 C367.255861,158.379796 366.485305,159.920908 365.811069,161.654659 C365.425791,162.473375 365.088673,163.292091 364.763594,164.110807 L364.118789,165.748238 C364.010429,166.021143 363.900732,166.294049 363.788359,166.566954 C363.210442,168.204385 362.728845,169.649178 362.343567,171.09397 C361.958289,172.442443 361.76565,173.598277 361.76565,174.561472 C361.76565,174.94675 361.76565,175.04307 361.66933,175.04307 C362.632525,175.04307 363.884679,174.272514 365.329471,172.635082 C366.774264,170.997651 368.411695,168.878622 370.145446,166.374315 C371.559662,164.331558 372.973878,162.09654 374.44037,159.669259 C374.681575,157.848634 375.105869,155.980662 375.731977,154.045419 C376.695172,150.770556 378.139965,147.592013 379.873716,144.413469 C381.607467,141.234926 383.726496,138.249021 386.134483,135.455756 C388.542471,132.66249 391.143097,130.158183 394.032682,128.039154 C396.825947,125.920125 399.811852,124.282694 402.894076,123.03054 C405.9763,121.778387 409.058524,121.20047 412.237067,121.20047 C414.837694,121.20047 417.053042,121.585748 418.883113,122.259984 C420.713183,123.03054 422.157976,123.897416 423.410129,125.05325 C424.565963,126.209084 425.529158,127.461237 426.203395,128.80971 C426.877631,130.158183 427.359229,131.506656 427.551868,132.75881 C427.840826,134.010963 427.840826,135.166797 427.840826,136.226312 C427.744507,137.285826 427.648187,138.056382 427.551868,138.53798 C426.684992,140.271731 425.818117,141.234926 424.854922,141.427565 C426.010756,142.583399 426.877631,143.931872 427.648187,145.376664 C428.418743,146.821457 428.804021,148.16993 428.804021,149.422083 C428.804021,150.385278 428.515063,152.022709 427.840826,154.141738 C427.16659,156.357087 426.396034,158.668755 425.432839,161.269381 C429.610045,157.815153 433.385274,154.360924 436.758525,150.906696 C436.957066,147.971777 437.709449,145.036789 439.013888,142.101801 C440.555,138.730619 442.674029,135.648395 445.178336,132.951449 C447.778962,130.254503 450.668547,128.039154 453.847091,126.401723 C457.025634,124.764291 460.300497,123.897416 463.67168,123.897416 C465.887028,123.897416 467.42814,124.379013 468.391335,125.438528 C469.35453,126.498042 469.836128,127.846515 469.836128,129.580266 C469.836128,130.83242 469.547169,132.373532 468.872933,134.010963 C468.295016,135.648395 467.42814,137.382146 466.368626,139.212216 C465.309111,141.042287 464.056958,142.776038 462.708485,144.509789 C461.360012,146.24354 459.8189,147.880971 458.277788,149.325764 C456.736676,150.770556 455.195564,152.022709 453.558132,152.985904 C451.920701,154.045419 450.379589,154.719655 448.934796,155.008614 C448.742157,155.971809 448.645838,156.935004 448.645838,157.898199 C448.645838,159.054033 448.838477,160.017228 449.223755,160.691464 C449.609033,161.46202 450.18695,161.750979 451.053825,161.750979 C453.076535,161.750979 455.099244,161.173062 457.121954,160.113547 C459.144663,158.957713 460.974734,157.512921 462.804804,155.77917 C464.634875,154.045419 466.272306,152.119029 467.909738,150 C469.547169,147.880971 470.895642,145.858262 472.147796,143.835552 C473.399949,141.812843 474.459464,139.982772 475.326339,138.345341 C476.193215,136.707909 476.867451,135.552075 477.252729,134.781519 C477.445368,134.396241 477.830646,134.203602 478.312244,134.203602 C478.89016,134.203602 479.371758,134.299922 479.853355,134.492561 C480.334953,134.6852 480.81655,135.070478 481.105509,135.455756 C481.490787,135.841034 481.587106,136.226312 481.394467,136.61159 C480.91287,137.574785 480.238633,139.115897 479.275438,141.042287 C478.312244,142.968677 477.15641,145.184025 475.711617,147.592013 C474.266825,150 472.725713,152.407987 470.895642,154.912294 C469.065572,157.416601 467.139182,159.63195 464.923833,161.750979 C462.708485,163.773688 460.396817,165.507439 457.89251,166.759593 C455.388203,168.011746 452.787576,168.685983 450.09063,168.685983 C447.778962,168.685983 445.756253,168.204385 444.118821,167.144871 C442.48139,166.085356 441.036597,164.736883 439.977083,163.195771 C439.127345,161.991976 438.485842,160.736123 437.97603,159.428211 C435.788791,161.497748 433.448842,163.598913 431.01937,165.700078 C427.359229,168.782302 423.699088,171.864526 419.846308,174.94675 L419.593232,175.501204 C421.413882,175.026826 423.298077,174.587028 425.2402,174.176194 C430.248814,173.11668 435.450067,172.346124 440.747639,171.768207 C446.141531,171.19029 451.535423,170.901331 456.929315,170.901331 C462.323207,170.901331 467.620779,171.19029 472.629393,171.768207 C477.638007,172.346124 482.357662,173.309319 486.788359,174.657792 C491.219056,176.006265 494.975517,177.643696 498.25038,179.666406 C502.295799,182.170713 505.089064,184.771339 506.919135,187.371966 C508.749205,190.068912 510.001359,192.573218 510.579276,194.981206 C511.157193,197.389193 511.349832,199.508222 511.060873,201.241973 C510.771915,203.072044 510.386637,204.324197 510.001359,204.902114 C509.519761,205.76899 509.038164,206.346907 508.652886,206.732185 C508.267608,207.117463 507.88233,207.213782 507.497052,207.213782 C507.111774,207.117463 506.630176,206.924824 506.148579,206.443226 L505.984347,206.278994 L505.984347,206.278994 L503.9242,204.218848 C503.782731,204.077379 503.632232,203.926879 503.475713,203.77036 L502.488438,202.783085 L502.488438,202.783085 C501.717882,202.108849 500.851006,201.241973 499.695172,200.278778 L499.053428,199.743847 C498.071273,198.927121 496.98947,198.045917 495.649753,197.100235 C494.108641,195.944401 492.182251,194.692247 490.063222,193.343774 C487.077318,191.513704 483.609816,189.876273 479.660716,188.624119 C475.711617,187.371966 471.473559,186.312451 466.946543,185.445576 C462.419526,184.67502 457.79619,184.097103 453.076535,183.711825 C448.26056,183.326547 443.540904,183.230227 438.917568,183.230227 C434.294233,183.230227 429.863536,183.519186 425.529158,183.904464 C421.666725,184.255594 418.044298,184.766729 414.807701,185.364957 C414.564932,185.839929 414.317378,186.316317 414.067138,186.794049 C411.948109,190.935787 409.73276,194.884886 407.324773,198.833986 C404.916785,202.783085 402.508798,206.443226 400.004491,210.007048 C397.500184,213.47455 394.995877,216.556774 392.49157,219.25372 C389.987263,221.854346 387.482956,223.973375 384.978649,225.514487 C382.474342,227.055599 380.162674,227.826155 377.947326,227.826155 C374.768782,227.826155 372.071836,227.440877 370.049127,226.574002 C367.930098,225.707126 366.292666,224.743931 365.136832,223.588097 C363.884679,222.432263 363.114123,221.18011 362.536206,219.831637 C362.054608,218.483164 361.76565,217.23101 361.76565,216.267815 C361.76565,214.148786 362.728845,211.740799 364.751554,209.236492 C366.774264,206.732185 369.37489,204.035239 372.746073,201.145654 C376.117255,198.256069 379.970035,195.270164 384.400732,191.995301 C388.831429,188.816758 393.454765,185.445576 398.27074,181.978074 L398.752337,180.82224 C397.403864,181.785435 396.151711,182.555991 394.803238,183.133908 C393.454765,183.711825 392.106292,184.000783 390.757819,184.000783 C388.060873,184.000783 385.652886,183.422866 383.630176,182.170713 C381.607467,180.918559 379.873716,179.377447 378.428923,177.354738 C376.986655,175.335562 376.024303,173.220404 375.254421,170.721816 C374.450253,171.848293 373.646322,172.934951 372.842392,173.983555 C370.627044,176.87314 368.411695,179.184808 366.196347,181.014879 C364.077318,182.844949 362.054608,183.808144 360.224538,183.808144 C358.201828,183.808144 356.468077,183.326547 354.926966,182.267032 C353.482173,181.303837 352.1337,180.148003 351.170505,178.992169 C349.918352,177.643696 348.858837,176.006265 348.088281,174.079875 C347.221406,175.04307 346.258211,176.102584 345.198696,177.162099 C344.042862,178.317933 342.887028,179.281128 341.634875,180.244323 C340.382721,181.207518 339.034248,182.074393 337.589456,182.65231 C336.144663,183.326547 334.79619,183.615505 333.351398,183.615505 C330.654452,183.615505 328.246464,183.037588 326.223755,181.785435 C324.201045,180.533281 322.467294,178.992169 321.022502,176.96946 C319.674029,174.94675 318.614514,172.827721 317.843958,170.323414 C317.744025,169.998632 317.645712,169.677089 317.55028,169.357946 C316.41235,170.93246 315.249924,172.434203 314.087498,173.887236 C311.77583,176.776821 309.367843,179.088489 306.959855,180.82224 C304.551868,182.65231 302.2402,183.519186 300.024851,183.519186 C296.653669,183.519186 293.764084,182.267032 291.548735,179.762725 C289.333387,177.258418 288.177553,173.790916 288.177553,169.456539 C288.177553,168.011746 288.466511,166.181676 289.044428,164.062647 C289.622345,161.943618 290.392901,159.63195 291.356096,157.127643 C292.319291,154.623336 293.378806,152.022709 294.630959,149.325764 C295.883113,146.628818 297.038947,143.931872 298.194781,141.427565 C295.883113,144.124511 293.475125,147.014096 290.970818,150.096319 C288.466511,153.178543 286.058524,156.164448 283.746856,159.150352 C281.531507,162.136257 279.508798,164.929522 277.775047,167.530149 C276.041296,170.130775 274.789142,172.346124 273.922267,174.079875 C273.825947,174.465153 273.825947,174.754111 273.729628,175.04307 C273.729628,175.332028 273.633308,175.524667 273.633308,175.620987 L273.825947,176.487862 C273.922267,176.680501 273.922267,176.96946 273.922267,177.258418 C273.922267,177.547377 273.922267,177.740016 274.018586,178.028974 L274.018586,177.932655 C274.211225,178.79953 274.403864,179.570086 274.500184,180.244323 C274.596503,180.918559 274.596503,181.592796 274.500184,182.074393 C274.403864,182.555991 274.018586,183.037588 273.44067,183.326547 C272.862753,183.615505 272.092197,183.808144 270.936363,183.808144 C269.58789,183.808144 268.239417,183.519186 266.890944,182.844949 C265.542471,182.170713 264.193998,181.207518 263.134483,180.051684 C261.978649,178.79953 261.015454,177.354738 260.244898,175.717306 C259.956535,175.104534 259.722128,174.451295 259.541679,173.767684 L259.378023,173.983555 L259.378023,173.983555 C257.162674,176.87314 254.947326,179.184808 252.731977,181.014879 C250.612948,182.844949 248.590239,183.808144 246.760168,183.808144 C244.737459,183.808144 243.003708,183.326547 241.462596,182.267032 C240.017803,181.303837 238.66933,180.148003 237.706135,178.992169 C236.453982,177.643696 235.394467,176.006265 234.623911,174.079875 C233.757036,175.04307 232.793841,176.102584 231.734327,177.162099 C230.674812,178.317933 229.422659,179.281128 228.170505,180.244323 C226.918352,181.207518 225.569879,182.074393 224.125086,182.65231 C222.680294,183.326547 221.331821,183.615505 219.887028,183.615505 C217.190082,183.615505 214.782095,183.037588 212.759385,181.785435 C210.736676,180.533281 209.002925,178.992169 207.558132,176.96946 C206.209659,174.94675 205.150145,172.827721 204.379589,170.323414 C203.609033,167.819107 202.838477,165.507439 202.838477,163.003132 C202.838477,160.017228 203.320074,156.935004 204.379589,153.660141 C205.342784,150.385278 206.787576,147.206735 208.521327,144.124511 C210.255078,141.042287 212.374107,138.056382 214.782095,135.263117 C217.190082,132.469851 219.790709,129.965544 222.680294,127.846515 C225.473559,125.727486 228.459464,124.090055 231.445368,122.837901 C234.527592,121.585748 237.513496,121.007831 240.59572,121.007831 C243.196347,121.007831 245.508015,121.393109 247.338085,122.067345 C249.168156,122.837901 250.709268,123.704777 251.865102,124.860611 C253.020936,126.016445 253.984131,127.268598 254.562048,128.617071 C255.139965,129.965544 255.621562,131.314017 255.910521,132.66249 C256.199479,133.914644 256.199479,135.070478 256.199479,136.129992 C256.10316,137.189507 256.00684,137.863743 255.814201,138.345341 L255.910521,138.345341 C255.717882,138.923258 255.236284,139.115897 254.562048,139.115897 C253.887811,139.115897 253.213575,138.923258 252.539338,138.730619 C251.865102,138.44166 251.287185,138.152702 250.805587,137.767424 C250.32399,137.382146 250.035031,137.093187 250.131351,136.900548 C250.210158,136.821741 250.224486,136.549499 250.227091,136.083822 L250.22767,135.744714 L250.22767,135.744714 C250.22767,135.166797 249.938712,134.492561 249.649753,133.818324 C249.264475,133.144088 248.686558,132.566171 247.819683,132.084573 C246.952807,131.602976 245.700654,131.314017 244.159542,131.314017 C242.52211,131.314017 240.69204,132.084573 238.76565,133.529366 C236.83926,134.974158 235.009189,136.900548 233.082799,139.212216 C231.252729,141.523884 229.422659,144.22083 227.688908,147.110415 C225.955157,150.096319 224.414045,153.082224 223.161891,156.068128 C221.909738,159.054033 220.850223,162.039937 220.079667,164.833203 C219.309111,167.626468 218.923833,170.034456 218.923833,172.057165 C218.923833,174.561472 219.694389,175.813626 221.139182,175.813626 C222.872933,175.813626 224.606684,175.04307 226.436754,173.501958 C228.266825,171.960846 230.000576,170.034456 231.734327,167.626468 C233.468077,165.218481 235.009189,162.617854 236.453982,159.824589 C237.898774,156.935004 239.150928,154.238058 240.306762,151.733751 C241.462596,149.133125 242.329471,146.917776 242.907388,144.991386 C243.485305,143.064996 243.870583,141.716523 243.870583,141.138606 C243.870583,140.560689 244.255861,140.175411 244.930098,139.982772 C245.604334,139.886453 246.47121,139.886453 247.530724,140.175411 C248.590239,140.46437 249.746073,140.849648 250.901907,141.331245 C252.15406,141.812843 253.309894,142.487079 254.273089,143.064996 C255.332604,143.739233 256.199479,144.413469 256.873716,145.184025 C257.547952,145.954581 257.93323,146.532498 257.93323,147.110415 C257.93323,147.880971 257.547952,149.133125 256.873716,150.866875 C256.10316,152.600626 255.332604,154.623336 254.369409,156.838684 C253.695172,158.379796 252.924616,159.920908 252.25038,161.654659 C251.479824,163.292091 250.901907,164.929522 250.32399,166.566954 C249.746073,168.204385 249.264475,169.649178 248.879197,171.09397 C248.493919,172.442443 248.30128,173.598277 248.30128,174.561472 C248.30128,174.94675 248.30128,175.04307 248.204961,175.04307 C249.168156,175.04307 250.420309,174.272514 251.865102,172.635082 C253.309894,170.997651 254.947326,168.878622 256.681077,166.374315 C258.414828,163.870008 260.148579,161.076742 261.978649,157.994518 L262.097895,157.779342 C262.122172,157.722643 262.146635,157.665942 262.171288,157.60924 C263.038164,155.393892 264.097678,153.082224 265.253512,150.770556 C266.409346,148.458888 267.56518,146.14722 268.721014,143.931872 C270.647404,140.079092 272.381155,136.51527 273.922267,133.240407 C275.463379,129.965544 276.233935,127.268598 276.233935,125.149569 C276.233935,123.993735 277.004491,123.415818 278.545603,123.415818 C280.086715,123.319499 281.820466,123.704777 283.650536,124.571652 C285.480607,125.438528 287.214358,126.594362 288.75547,128.135474 C290.296582,129.676586 291.067138,131.506656 291.067138,133.625685 C291.067138,134.58888 290.778179,135.841034 290.296582,137.285826 C289.814984,138.730619 289.140748,140.36805 288.273872,142.198121 C290.392901,139.597494 292.60825,137.093187 294.727279,134.6852 C296.846308,132.277212 298.869017,130.061864 300.699088,128.135474 C302.529158,126.209084 304.16659,124.667972 305.515063,123.512138 C306.863536,122.356304 307.92305,121.778387 308.500967,121.778387 L309.078884,121.778387 L309.078884,121.778387 C309.271523,121.778387 309.656801,121.874706 309.94576,121.971026 C310.812635,122.259984 311.679511,122.741582 312.739025,123.512138 C313.79854,124.282694 314.761734,125.149569 315.62861,126.112764 C316.495485,127.075959 317.266041,128.231793 317.843958,129.483947 C318.421875,130.7361 318.710834,131.891934 318.710834,133.144088 C318.710834,134.107283 318.132917,135.841034 316.977083,138.44166 C315.821249,140.945967 314.472776,143.931872 312.835345,147.206735 C311.679511,149.614722 310.427357,152.215348 309.175204,154.912294 C307.92305,157.60924 306.767216,160.113547 305.707702,162.617854 C304.648187,165.122161 303.781312,167.33751 303.107075,169.456539 C302.432839,171.575568 302.047561,173.212999 302.047561,174.465153 C302.047561,175.04307 302.14388,175.332028 302.2402,175.332028 C303.299714,175.332028 304.551868,174.561472 305.99666,173.11668 C307.441453,171.671887 309.078884,169.745497 310.716316,167.433829 C312.450067,165.025842 314.183818,162.425215 315.917568,159.53563 C316.233924,159.00837 316.547074,158.48111 316.857016,157.954436 C317.106791,156.556361 317.465515,155.127591 317.940278,153.660141 C318.999792,150.385278 320.348265,147.206735 322.082016,144.124511 C323.815767,141.042287 325.934796,138.056382 328.342784,135.263117 C330.750771,132.469851 333.351398,129.965544 336.240983,127.846515 C339.034248,125.727486 342.020153,124.090055 345.006057,122.837901 C347.991962,121.585748 351.074186,121.007831 354.15641,121.007831 Z M394.09979,191.756782 L394.055915,191.761402 L394.055915,191.761402 L394.129002,191.706343 C390.468861,194.499608 387.001359,197.100235 383.726496,199.604542 C380.451633,202.108849 377.658367,204.420517 375.25038,206.539546 C372.842392,208.658575 370.916002,210.584965 369.567529,212.222396 C368.219056,213.956147 367.4485,215.40094 367.4485,216.556774 C367.54482,217.808927 368.122737,218.386844 369.085932,218.386844 C370.916002,218.386844 372.938712,217.712608 375.057741,216.267815 C377.17677,214.823023 379.199479,212.896633 381.318508,210.488645 C383.437537,208.080658 385.556566,205.287392 387.771915,202.012529 C389.881206,198.752715 391.990498,195.397464 394.09979,191.756782 Z M117.017803,58.4001566 C119.61843,58.4001566 121.737459,58.7854346 123.567529,59.5559906 C125.3976,60.3265466 126.746073,61.3860611 127.901907,62.6382146 C129.057741,63.8903681 129.828297,65.238841 130.502533,66.779953 C131.08045,68.321065 131.465728,69.862177 131.658367,71.3069695 C131.851006,72.8480814 131.947326,74.1965544 132.043645,75.4487079 C132.043645,76.7008614 132.139965,77.6640564 132.139965,78.2419734 C132.139965,81.2278778 131.465728,84.8880188 130.020936,89.3187157 C128.576143,93.6530932 126.746073,98.4690681 124.530724,103.670321 C127.901907,99.8175411 131.273089,96.0610807 134.740591,92.4009397 C138.208093,88.8371182 141.675595,85.5622553 145.046778,82.7689898 C148.41796,79.9757244 151.692823,77.7603759 154.775047,76.1229444 C157.857271,74.4855129 160.746856,73.6186374 163.443802,73.6186374 C166.911304,73.6186374 169.60825,74.6781519 171.53464,76.7008614 C173.46103,78.8198904 174.424225,82.1910728 174.424225,86.9107283 C174.424225,87.7776038 174.135266,88.9334377 173.653669,90.5708692 C173.172071,92.2083007 172.401515,94.0383712 171.43832,96.2537197 C170.475125,98.4690681 169.415611,100.877056 168.163457,103.574002 C166.911304,106.270948 165.562831,109.160532 164.118038,112.146437 C167.392901,108.486296 170.667764,105.018794 174.038947,101.647612 C177.410129,98.3727486 180.588673,95.4831637 183.670897,92.9788567 C186.753121,90.4745497 189.642706,88.5481597 192.435971,87.1033673 C195.132917,85.6585748 197.540904,84.8880188 199.563614,84.8880188 C201.971601,84.8880188 203.994311,85.2732968 205.631742,86.0438528 C207.269174,86.8144088 208.617647,87.8739233 209.580842,89.1260767 C210.544037,90.3782302 211.314593,91.9193422 211.699871,93.5567737 C212.085149,95.1942052 212.374107,96.9279561 212.374107,98.6617071 C212.374107,101.262334 211.410912,104.633516 209.388203,108.582616 C207.365493,112.531715 204.957506,116.962412 202.16424,121.682067 C200.141531,125.245889 198.022502,129.002349 195.903473,132.951449 C193.784444,136.900548 191.761734,141.042287 189.931664,145.376664 C188.101594,149.614722 186.656801,153.949099 185.404648,158.283477 C184.248814,162.617854 183.670897,166.855912 183.670897,170.997651 C183.670897,176.680501 184.537772,181.303837 186.271523,184.963978 C188.005274,188.5278 190.124303,191.417384 192.53229,193.536413 C195.036597,195.655442 197.540904,197.100235 200.33417,197.870791 C203.031116,198.641347 205.342784,199.026625 207.269174,199.026625 C211.025634,199.026625 213.8189,198.448708 215.64897,197.292874 C217.093763,196.233359 218.345916,195.077525 219.020153,194.018011 C219.790709,192.669538 220.561265,191.898982 221.42814,191.898982 C222.295016,191.898982 222.969252,192.18794 223.643489,192.669538 C224.414045,193.247455 225.088281,194.21065 225.858837,195.270164 C224.799323,197.485513 223.35453,199.508222 221.620779,201.338293 C219.983348,202.879405 217.864319,204.227878 215.167373,205.480031 C212.470427,206.732185 209.099244,207.310102 205.150145,207.310102 C201.297365,207.310102 197.155626,206.539546 192.821249,205.094753 C188.486872,203.649961 184.537772,201.338293 180.973951,198.159749 C177.410129,194.981206 174.424225,190.839468 172.112557,185.830854 C169.800889,180.82224 168.645055,174.657792 168.645055,167.530149 C168.645055,162.617854 169.222972,157.60924 170.475125,152.696946 C171.727279,147.688332 173.172071,142.872357 175.098461,138.249021 C176.928532,133.529366 178.951241,129.002349 181.16659,124.667972 C183.381938,120.333594 185.500967,116.288175 187.523677,112.531715 L187.523677,112.628034 C189.835345,108.389977 191.761734,104.633516 193.399166,101.454973 C195.036597,98.2764291 195.807153,95.8684417 195.807153,94.1346907 C195.807153,92.8825372 195.036597,92.7862177 193.399166,93.7494127 C191.761734,94.7126077 189.642706,96.5426782 187.042079,99.0469851 C184.441453,101.551292 181.455548,104.633516 178.180685,108.197338 C174.905822,111.761159 171.53464,115.517619 168.259777,119.370399 C164.888594,123.223179 161.710051,127.075959 158.627827,130.7361 C155.545603,134.492561 152.944976,137.863743 150.825947,140.753328 L148.995877,143.064996 L148.803238,143.353955 C147.069487,146.917776 145.432056,150.385278 143.890944,153.85278 C142.349832,157.320282 140.905039,160.498825 139.749205,163.292091 C138.497052,166.181676 137.533857,168.685983 136.85962,170.805012 C136.185384,172.924041 135.800106,174.561472 135.800106,175.717306 C135.800106,177.065779 135.896425,178.125294 135.992745,178.992169 C136.089064,179.859045 136.281703,180.533281 136.474342,181.014879 C136.666981,181.496476 136.95594,181.881754 137.244898,182.170713 C137.533857,182.459671 137.726496,182.65231 138.015454,182.74863 C138.593371,183.230227 138.978649,183.711825 139.363927,184.193422 C139.749205,184.67502 139.845525,185.445576 139.845525,186.408771 C139.845525,186.794049 139.363927,187.083007 138.497052,187.275646 C137.630176,187.468285 136.474342,187.371966 135.02955,187.179327 C133.681077,186.890368 132.139965,186.50509 130.502533,185.830854 C128.865102,185.156617 127.420309,184.193422 125.975517,182.941269 C124.627044,181.689115 123.47121,180.051684 122.508015,178.125294 C121.641139,176.198904 121.159542,173.790916 121.159542,170.997651 C121.159542,168.397024 121.833778,164.929522 123.182251,160.595145 C124.530724,156.260767 126.264475,151.637431 128.479824,146.628818 C130.598853,141.620204 133.00684,136.322631 135.607467,130.83242 C138.208093,125.342208 140.80872,120.044636 143.313027,115.036022 C144.950458,111.4722 146.58789,108.101018 148.129002,104.922475 C149.670114,101.743931 151.018586,98.7580266 152.27074,96.1574002 C153.426574,93.5567737 154.389769,91.3414252 155.064005,89.4150352 C155.738242,87.4886453 156.12352,86.2364918 156.12352,85.4659358 C156.12352,85.0806578 156.12352,84.7916993 156.219839,84.6953798 C155.064005,84.7916993 153.330254,85.6585748 151.114906,87.4886453 C148.899558,89.2223962 146.395251,91.5340642 143.601985,94.4236492 C140.80872,97.3132341 137.822815,100.491778 134.547952,104.151919 C131.369409,107.81206 128.190865,111.4722 125.108641,115.228661 C122.026417,118.985121 119.040513,122.645262 116.247247,126.112764 C113.453982,129.580266 111.045994,132.66249 109.023285,135.359436 C107.000576,139.501175 105.074186,143.450274 103.147796,147.399374 C101.317725,151.348473 99.5839741,155.104933 98.1391816,158.572435 C96.6943892,162.039937 95.5385552,165.218481 94.5753602,168.108066 C93.7084847,170.997651 93.2268872,173.309319 93.2268872,175.04307 C93.2268872,177.258418 93.3232067,178.79953 93.6121652,179.666406 C93.9011237,180.533281 94.0937627,181.207518 94.3827212,181.689115 C94.6716797,182.170713 94.9606382,182.65231 95.1532772,183.230227 C95.4422357,183.711825 95.5385552,184.386061 95.5385552,185.252937 C95.5385552,186.60141 95.1532772,187.660924 94.3827212,188.335161 C93.6121652,189.009397 92.4563312,189.394675 91.1078582,189.394675 C89.9520242,189.394675 88.6035513,189.009397 87.0624393,188.238841 C85.5213273,187.468285 84.1728543,186.216132 82.8243813,184.5787 C81.4759083,182.941269 80.3200744,180.918559 79.3568794,178.414252 C78.3936844,175.909945 77.9120869,172.924041 77.9120869,169.456539 C77.9120869,167.530149 78.3936844,164.929522 79.4531989,161.847298 C80.4163939,158.765074 81.7648668,155.201253 83.4022983,151.155834 C85.0397298,147.206735 86.9661198,142.872357 89.0851488,138.249021 C91.2041777,133.625685 93.4195262,128.80971 95.7311942,123.897416 C98.3318206,118.503524 100.836128,113.013312 103.340435,107.619421 C105.844742,102.225529 108.06009,97.0242756 110.082799,92.1119812 C112.105509,87.1996868 113.646621,82.7689898 114.898774,78.7235709 C116.150928,74.6781519 116.728845,71.403289 116.728845,68.8026625 C116.728845,66.1057165 115.861969,64.7572435 114.128218,64.7572435 C110.757036,64.7572435 107.289534,65.7204385 103.533074,67.743148 C99.7766131,69.7658575 96.0201527,72.4628034 92.3600117,75.7376664 C88.6035513,79.0125294 85.0397298,82.8653093 81.6685473,87.1033673 C78.2973649,91.3414252 75.2151409,95.7721222 72.6145145,100.202819 C70.013888,104.633516 67.894859,108.967894 66.353747,113.302271 C64.812635,117.636648 64.0420791,121.393109 64.0420791,124.860611 C64.0420791,128.231793 64.2347181,131.025059 64.5236765,133.240407 C64.812635,135.455756 65.197913,137.382146 65.6795105,138.826938 C66.161108,140.36805 66.6427055,141.523884 67.124303,142.39076 C67.6059005,143.257635 68.087498,143.931872 68.472776,144.413469 C68.858054,144.991386 69.1470125,145.472984 69.435971,145.954581 C69.7249295,146.436179 69.9175685,147.014096 69.9175685,147.784652 C69.9175685,148.651527 69.5322905,149.325764 68.5690955,149.903681 C67.70222,150.481597 66.546386,150.770556 65.005274,150.770556 C63.4641621,150.770556 61.6340916,150.385278 59.4187431,149.614722 C57.2033946,148.844166 55.0843657,147.303054 53.1579757,145.184025 C51.1352662,143.064996 49.4015152,140.079092 47.9567228,136.322631 C46.5119303,132.566171 45.8376938,127.750196 45.8376938,121.874706 C45.8376938,116.962412 46.8008888,111.953798 48.7272787,106.848865 C50.6536687,101.743931 53.2542952,96.9279561 56.6254776,92.2083007 C59.9966601,87.4886453 63.9457596,83.1542678 68.472776,79.0125294 C72.9997924,74.8707909 77.9120869,71.3069695 83.2096593,68.321065 C88.4109123,65.3351605 93.9974432,62.9271731 99.6802936,61.0971026 C105.459464,59.3633516 111.238633,58.4001566 117.017803,58.4001566 Z M415.897208,131.314017 C414.259777,131.314017 412.429706,132.084573 410.503316,133.529366 C408.576926,134.974158 406.746856,136.900548 404.820466,139.212216 C402.990395,141.620204 401.160325,144.22083 399.426574,147.206735 C397.692823,150.192639 396.151711,153.178543 394.803238,156.260767 C393.454765,159.342991 392.395251,162.232576 391.624695,165.025842 C390.854139,167.819107 390.468861,170.227095 390.468861,172.249804 C390.468861,173.405638 390.6615,174.368833 390.950458,175.04307 C391.239417,175.717306 391.817334,176.006265 392.58789,176.006265 C394.610599,176.006265 396.633308,175.04307 398.656018,173.11668 C400.678727,171.19029 402.605117,168.878622 404.338868,166.181676 C406.168939,163.48473 407.80637,160.498825 409.251163,157.416601 C410.695955,154.334377 411.851789,151.541112 412.718665,149.133125 L412.718665,149.229444 C413.007623,148.16993 413.296582,147.206735 413.489221,146.24354 C413.778179,145.280345 413.874499,144.509789 414.067138,143.835552 L414.067138,143.450274 C414.067138,141.234926 414.452416,139.693814 415.222972,138.730619 C415.993528,137.863743 417.053042,137.382146 418.401515,137.382146 C419.557349,137.382146 420.713183,137.767424 421.965337,138.634299 C421.676378,138.056382 421.772698,137.574785 421.965337,137.189507 C422.044144,137.1107 422.058472,136.838458 422.061077,136.372781 L422.061656,136.033673 L422.061656,136.033673 C422.061656,135.455756 421.772698,134.781519 421.38742,134.010963 C421.002142,133.336727 420.424225,132.66249 419.557349,132.180893 C418.690474,131.602976 417.43832,131.314017 415.897208,131.314017 Z M464.731194,129.194988 C463.57536,129.194988 462.419526,129.772905 461.071053,130.928739 C459.72258,132.084573 458.470427,133.625685 457.218273,135.455756 C455.96612,137.285826 454.713966,139.404855 453.654452,141.812843 C452.498618,144.124511 451.535423,146.436179 450.764867,148.747847 C452.402298,147.880971 454.136049,146.532498 455.773481,144.895067 C457.507232,143.161316 459.048344,141.427565 460.396817,139.501175 C461.74529,137.574785 462.901124,135.744714 463.767999,134.010963 C464.634875,132.277212 465.020153,130.7361 465.020153,129.676586 C465.116472,129.291308 465.020153,129.194988 464.731194,129.194988 Z" id="manage" fill="#FFFFFF" fill-rule="nonzero"></path>
        <path d="M338.263692,50.0203602 C338.421404,50.0203602 338.578811,50.0216492 338.735903,50.0242173 L338.263692,50.0203602 C342.405431,50.0203602 346.258211,50.6945967 349.822032,52.0430697 C353.482173,53.3915427 356.564397,55.2216132 359.261343,57.7259201 C361.958289,60.1339076 364.077318,63.1198121 365.61843,66.587314 C367.159542,70.054816 367.930098,73.9075959 367.930098,78.1456539 C367.930098,82.3837118 367.159542,86.2364918 365.61843,89.7039937 C364.077318,93.1714957 361.958289,96.0610807 359.261343,98.5653876 C356.564397,100.973375 353.482173,102.899765 349.822032,104.248238 C348.45845,104.75061 347.068131,105.159403 345.651076,105.474617 C343.293526,106.119055 340.816455,106.463587 338.263692,106.463587 C335.707355,106.463587 333.231158,106.124927 330.877455,105.48996 C329.444966,105.17256 328.054455,104.758709 326.705352,104.248238 C323.045211,102.899765 319.962987,101.069695 317.266041,98.5653876 C314.569096,96.1574002 312.450067,93.1714957 310.908955,89.7039937 C309.367843,86.2364918 308.597287,82.3837118 308.597287,78.1456539 C308.597287,73.9075959 309.367843,70.054816 310.908955,66.587314 C312.450067,63.1198121 314.569096,60.2302271 317.266041,57.7259201 C319.962987,55.3179327 323.045211,53.3915427 326.705352,52.0430697 C330.213088,50.7507459 333.897754,50.0776785 337.759351,50.0238672 C337.927078,50.0218608 338.09522,50.0203602 338.263692,50.0203602 Z M493.145446,35.6687549 L493.145446,51.4651527 L507.689691,51.4651527 L507.689691,64.5646045 L493.049127,64.5646045 L493.049127,82.3837118 C493.049127,83.8285043 493.145446,85.1769773 493.241766,86.4291308 C493.434405,87.6812843 493.723363,88.6444792 494.204961,89.6076742 C494.686558,90.4745497 495.457114,91.1487862 496.612948,91.6303837 C497.672463,92.1119812 499.117255,92.3046202 500.851006,92.3046202 C501.717882,92.3046202 502.873716,92.2083007 504.318508,92.0156617 C505.763301,91.8230227 506.822815,91.4377447 507.593371,90.7635082 L507.593371,104.537197 C505.763301,105.211433 503.836911,105.596711 501.910521,105.88567 C499.887811,106.078309 497.961421,106.174628 496.131351,106.174628 C493.338085,106.174628 490.737459,105.88567 488.425791,105.307753 C486.114123,104.729836 483.995094,103.766641 482.261343,102.514487 C480.527592,101.262334 479.082799,99.5285826 478.119605,97.5058731 C477.15641,95.4831637 476.674812,92.9788567 476.674812,89.9929522 L476.674812,64.660924 L466.175987,64.660924 L466.175987,51.4651527 L476.674812,51.4651527 L476.674812,35.6687549 L493.145446,35.6687549 Z M255.043645,27 C261.304413,27 267.179902,27.6742365 272.766433,29.119029 C278.352964,30.467502 283.265258,32.7791699 287.406997,35.8613939 C291.548735,38.9436179 294.919918,42.9890368 297.327905,47.9976507 C299.735893,53.0062647 300.988046,58.9780736 300.988046,66.1057165 C300.988046,72.3664839 299.832212,77.9530149 297.424225,82.7689898 C295.016237,87.5849648 291.837694,91.6303837 287.792275,94.8089272 C283.746856,98.0837901 279.12352,100.588097 273.825947,102.225529 C268.528375,103.95928 263.038164,104.729836 257.258994,104.729836 L229.23002,104.729836 L229.23002,27 L255.043645,27 Z M409.251163,49.9240407 C413.392901,49.9240407 416.764084,50.5982772 419.36471,51.8504307 C421.965337,53.1025842 423.891727,54.9326547 425.336519,57.1480031 C426.781312,59.4596711 427.744507,62.0602976 428.226104,65.1425215 C428.707702,68.2247455 428.99666,71.595928 428.99666,75.1597494 L428.99666,104.633516 L412.526026,104.633516 L412.526026,78.6272514 C412.526026,77.0861394 412.429706,75.4487079 412.333387,73.8112764 C412.237067,72.1738449 411.851789,70.632733 411.370192,69.28426 C410.792275,67.935787 410.021719,66.779953 408.865885,65.9130775 C407.710051,65.046202 406.072619,64.5646045 403.95359,64.5646045 C401.834561,64.5646045 400.10081,64.9498825 398.752337,65.7204385 C397.403864,66.4909945 396.44067,67.550509 395.766433,68.8026625 C395.092197,70.054816 394.610599,71.4996085 394.41796,73.1370399 C394.225321,74.7744714 394.129002,76.4119029 394.129002,78.1456539 L394.129002,104.729836 L377.658367,104.729836 L377.658367,51.3688332 L393.454765,51.3688332 L393.454765,58.5927956 L393.647404,58.5927956 C394.129002,57.5332811 394.899558,56.5700861 395.862753,55.5105717 C396.825947,54.4510572 397.981781,53.5841817 399.233935,52.7173062 C400.582408,51.9467502 402.0272,51.2725137 403.760951,50.6945967 C405.398383,50.2129992 407.324773,49.9240407 409.251163,49.9240407 Z M338.263692,64.5646045 C334.121954,64.5646045 330.847091,65.816758 328.535423,68.321065 C326.223755,70.825372 325.067921,74.1002349 325.067921,78.1456539 C325.067921,82.1910728 326.223755,85.4659358 328.535423,87.9702428 C330.847091,90.4745497 334.121954,91.7267032 338.263692,91.7267032 C342.405431,91.7267032 345.680294,90.4745497 347.991962,87.9702428 C350.30363,85.4659358 351.459464,82.1910728 351.459464,78.1456539 C351.459464,75.4214421 350.93532,73.0466593 349.887033,71.0213055 C349.829,71.9980005 349.422055,72.9590999 348.666198,73.7149569 C347.028767,75.3523884 344.42814,75.3523884 342.790709,73.7149569 C341.153277,72.0775255 341.153277,69.476899 342.790709,67.8394675 C343.676939,66.9532368 344.845321,66.5466627 345.990435,66.6197453 C343.915934,65.2495348 341.326904,64.5646045 338.263692,64.5646045 Z M256.584757,42.8927173 L246.47121,42.8927173 L246.47121,89.0297572 L255.332604,89.0297572 C259.281703,89.0297572 262.941844,88.6444792 266.409346,87.7776038 C269.780529,87.0070478 272.766433,85.6585748 275.27074,83.7321848 C277.775047,81.9021143 279.701437,79.3978074 281.146229,76.4119029 C282.591022,73.3296789 283.265258,69.669538 283.265258,65.238841 C283.265258,61.3860611 282.591022,58.1111981 281.146229,55.3179327 C279.701437,52.5246672 277.775047,50.2129992 275.367059,48.3829287 C272.959072,46.5528583 270.069487,45.2043853 266.890944,44.2411903 C263.616081,43.3743148 260.244898,42.8927173 256.584757,42.8927173 Z M365.329471,51.2725137 C366.966903,52.9099452 366.966903,55.5105717 365.329471,57.1480031 C363.69204,58.7854346 361.091413,58.7854346 359.453982,57.1480031 C357.81655,55.5105717 357.81655,52.9099452 359.453982,51.2725137 C360.995094,49.6350822 363.69204,49.6350822 365.329471,51.2725137 Z M462.997443,27 L453.172854,58.0148786 L439.110207,58.0148786 L447.201045,27 L462.997443,27 Z" id="dont" fill="#FFFFFF" fill-rule="nonzero"></path>
    </g>
</svg>