<?xml version="1.0" encoding="UTF-8"?>
<svg width="550px" height="300px" viewBox="0 0 550 300" version="1.1" xmlns="http://www.w3.org/2000/svg" xmlns:xlink="http://www.w3.org/1999/xlink">
    <title>4</title>
    <g id="4" stroke="none" stroke-width="1" fill="none" fill-rule="evenodd">
        <path d="M342.838731,192.784652 L350.378276,197.235709 L313.316413,266 L306.50357,261.912294 L342.838731,192.784652 Z M260.539592,194.692247 C263.355567,194.692247 266.080704,195.055599 268.624165,195.782302 C271.258464,196.509005 273.529412,197.689898 275.437008,199.234143 C277.435442,200.778387 278.979686,202.685983 280.160579,205.047768 C281.341471,207.409554 281.886499,210.134691 281.886499,213.404855 C281.886499,217.129209 280.97812,220.308536 279.070524,222.942835 C277.253766,225.577134 274.528629,227.303054 270.985951,228.029757 L270.985951,228.302271 C272.893547,228.574785 274.619467,229.119812 276.072873,230.119029 C277.52628,231.027408 278.79801,232.208301 279.797227,233.661707 C280.796444,235.024276 281.613985,236.659358 282.159013,238.385278 C282.70404,240.202036 282.976554,242.018794 282.976554,244.017228 C282.976554,247.37823 282.340688,250.285043 281.159796,252.828504 C279.978903,255.371966 278.252983,257.461237 276.254549,259.096319 C274.165277,260.731402 271.803492,262.003132 268.987517,262.820673 C266.171542,263.638215 263.264729,264.092404 260.17624,264.092404 C254.453453,264.092404 249.639044,262.729836 245.551338,259.913861 C241.463633,257.097886 238.738496,252.737666 237.466765,246.742365 L251.637478,243.199687 C252.091667,245.561472 253.090884,247.469068 254.544291,248.922475 C255.997697,250.285043 258.177807,251.011746 261.084619,251.011746 C263.991432,251.011746 266.171542,250.194205 267.624948,248.559123 C268.987517,246.924041 269.71422,244.834769 269.71422,242.382146 C269.71422,240.47455 269.350868,239.021143 268.624165,237.931088 C267.897462,236.931872 266.898245,236.11433 265.717352,235.569303 C264.53646,235.024276 263.173891,234.751762 261.720485,234.660924 C260.267078,234.570086 258.722834,234.479248 257.269428,234.479248 L254.090101,234.479248 L254.090101,222.306969 L258.359482,222.306969 C259.631213,222.306969 260.812106,222.216132 261.992998,222.034456 C263.173891,221.85278 264.263946,221.489428 265.263163,220.944401 C266.26238,220.399374 267.079921,219.67267 267.624948,218.673453 C268.260814,217.674236 268.533327,216.402506 268.533327,214.858262 C268.533327,212.859828 267.806624,211.133908 266.26238,209.862177 C264.718135,208.590446 262.901377,207.863743 260.63043,207.863743 C258.541158,207.863743 256.815238,208.499608 255.45267,209.680501 C254.090101,210.861394 253.181722,212.405638 252.727532,214.131558 L237.920955,210.861394 C238.647658,207.954581 239.737713,205.501958 241.191119,203.412686 C242.644525,201.323414 244.370446,199.688332 246.278041,198.416601 C248.276475,197.144871 250.456585,196.236492 252.909208,195.600626 C255.361832,194.964761 257.905293,194.692247 260.539592,194.692247 Z M350.832466,226.576351 C353.285089,226.576351 355.556037,227.03054 357.736146,228.029757 C359.916256,229.028974 361.733014,230.391543 363.368096,232.026625 C364.912341,233.752545 366.184071,235.750979 367.09245,238.021926 C368.000829,240.292874 368.455019,242.745497 368.455019,245.288958 C368.455019,247.923258 368.000829,250.375881 367.09245,252.646829 C366.184071,254.917776 364.912341,257.007048 363.368096,258.64213 C361.823852,260.36805 359.916256,261.730619 357.736146,262.638998 C355.556037,263.638215 353.285089,264.092404 350.832466,264.092404 C348.379843,264.092404 346.108895,263.638215 343.928785,262.638998 C341.748676,261.639781 339.931918,260.277212 338.296836,258.64213 C336.752591,256.91621 335.480861,254.917776 334.572482,252.646829 C333.664103,250.285043 333.209913,247.83242 333.209913,245.288958 C333.209913,242.654659 333.664103,240.292874 334.572482,238.021926 C335.480861,235.750979 336.752591,233.752545 338.296836,232.026625 C339.84108,230.300705 341.748676,228.938136 343.928785,228.029757 C346.108895,227.03054 348.379843,226.576351 350.832466,226.576351 Z M350.832466,236.205168 C348.47068,236.205168 346.381409,237.113547 344.746327,238.839468 C343.111244,240.656226 342.293703,242.745497 342.293703,245.288958 C342.293703,247.923258 343.111244,250.103367 344.746327,251.829287 C346.381409,253.646045 348.379843,254.463587 350.832466,254.463587 C353.194251,254.463587 355.283523,253.555208 356.918605,251.829287 C358.553688,250.012529 359.371229,247.83242 359.371229,245.288958 C359.371229,242.745497 358.553688,240.565388 356.918605,238.839468 C355.283523,237.113547 353.285089,236.205168 350.832466,236.205168 Z M305.776867,194.783085 C308.22949,194.783085 310.500438,195.237275 312.680547,196.236492 C314.860657,197.235709 316.677415,198.598277 318.312497,200.233359 C319.856742,201.95928 321.128472,203.957713 322.036851,206.228661 C322.94523,208.499608 323.39942,210.952232 323.39942,213.495693 C323.39942,216.129992 322.94523,218.491778 322.036851,220.762725 C321.128472,223.033673 319.856742,225.032106 318.312497,226.758027 C316.768253,228.483947 314.860657,229.846515 312.680547,230.754894 C310.500438,231.754111 308.22949,232.208301 305.776867,232.208301 C303.324244,232.208301 301.053296,231.754111 298.873186,230.754894 C296.693077,229.755677 294.876319,228.393109 293.241236,226.758027 C291.696992,225.032106 290.425262,223.033673 289.516883,220.762725 C288.608504,218.491778 288.154314,216.039154 288.154314,213.495693 C288.154314,210.861394 288.608504,208.499608 289.516883,206.228661 C290.425262,203.957713 291.696992,201.95928 293.241236,200.233359 C294.785481,198.507439 296.693077,197.144871 298.873186,196.236492 C301.053296,195.237275 303.324244,194.783085 305.776867,194.783085 Z M305.776867,204.411903 C303.415081,204.411903 301.32581,205.320282 299.690727,207.046202 C298.055645,208.86296 297.238104,210.952232 297.238104,213.495693 C297.238104,216.039154 298.055645,218.219264 299.690727,219.945184 C301.32581,221.761942 303.324244,222.579483 305.776867,222.579483 C308.138652,222.579483 310.227924,221.671104 311.863006,219.945184 C313.498088,218.128426 314.31563,216.039154 314.31563,213.495693 C314.31563,210.952232 313.498088,208.772122 311.863006,207.046202 C310.227924,205.320282 308.22949,204.411903 305.776867,204.411903 Z" id="3%" fill="#FFFFFF" fill-rule="nonzero"></path>
        <path d="M176.514533,204.230227 C177.150399,204.321065 177.877102,204.502741 178.694643,204.95693 C179.512184,205.41112 180.238887,205.956147 180.874753,206.68285 C181.510618,207.409554 181.873969,208.045419 181.873969,208.772122 C181.873969,209.498825 181.692294,210.58888 181.238104,211.860611 C180.783915,213.132341 180.148049,214.676586 179.421346,216.402506 C181.41978,216.311668 183.1457,216.129992 184.689944,215.948316 C186.234189,215.675803 187.505919,215.403289 188.414298,215.130775 L188.32346,215.221613 C189.413515,214.949099 190.231056,214.858262 190.776084,214.858262 L190.845454,214.880754 C191.185029,214.124165 191.497503,213.39249 191.775301,212.678152 C192.502004,211.04307 193.047031,209.589663 193.501221,208.317933 C193.95541,207.046202 194.137086,206.046985 194.137086,205.320282 C194.137086,204.775255 194.500438,204.593579 195.227141,204.593579 C195.953844,204.684417 196.771385,204.95693 197.679764,205.320282 C198.588143,205.683634 199.405684,206.319499 200.132388,207.046202 C200.859091,207.682067 201.222442,208.408771 201.222442,209.135474 C201.222442,209.953015 200.949929,211.133908 200.495739,212.496476 C200.04155,213.859045 199.405684,215.494127 198.588143,217.220047 C197.86144,218.945967 196.953061,220.853563 195.953844,222.851997 L192.592842,229.574002 L192.592842,229.664839 C193.592059,228.483947 194.591276,227.212216 195.590493,226.031323 C196.589709,224.850431 197.588926,223.760376 198.497305,222.851997 C199.405684,221.943618 200.223226,221.126077 200.949929,220.581049 C201.676632,219.945184 202.221659,219.67267 202.585011,219.581832 C202.948363,219.581832 203.49339,219.67267 204.038417,220.036022 C204.583445,220.399374 205.128472,220.762725 205.6735,221.307753 C206.218527,221.85278 206.672717,222.397807 207.036068,223.033673 C207.39942,223.669538 207.581096,224.396241 207.581096,225.032106 C207.581096,225.486296 207.308582,226.394675 206.763554,227.575568 C206.218527,228.75646 205.491824,230.209867 204.765121,231.844949 C204.220093,233.025842 203.584228,234.206735 203.0392,235.478465 C202.403335,236.750196 201.858308,237.931088 201.404118,239.111981 C200.859091,240.292874 200.495739,241.382929 200.132388,242.382146 C199.769036,243.381363 199.678198,244.198904 199.678198,244.743931 L199.678198,245.107283 C199.678198,245.198121 199.678198,245.198121 199.769036,245.198121 C200.223226,245.198121 200.949929,244.834769 201.76747,244.017228 C202.585011,243.290525 203.49339,242.291308 204.401769,241.110415 C205.400986,239.929522 206.309365,238.566954 207.39942,237.113547 C208.135845,236.042383 208.87227,235.02056 209.535967,233.975349 C209.786524,233.232482 210.103532,232.493297 210.487908,231.754111 C211.336974,229.985225 212.461603,228.381677 213.77594,226.90054 C213.80223,226.850757 213.826201,226.803446 213.848911,226.758027 C213.903283,226.594909 214.022747,226.496883 214.187821,226.444467 C214.433112,226.182817 214.683341,225.923596 214.938966,225.667972 C216.755724,223.851214 218.844995,222.397807 221.115943,221.307753 C223.38689,220.217698 225.748676,219.67267 228.110461,219.67267 C229.654706,219.67267 230.74476,220.036022 231.471464,220.671887 C232.107329,221.39859 232.47068,222.306969 232.47068,223.487862 C232.47068,224.305403 232.289005,225.30462 231.834815,226.485513 C231.380626,227.575568 230.74476,228.75646 230.018057,229.937353 C229.291354,231.118246 228.382975,232.299139 227.383758,233.480031 C226.384541,234.660924 225.294486,235.660141 224.204431,236.659358 C223.114377,237.658575 221.933484,238.476116 220.843429,239.111981 C219.662536,239.747847 218.572482,240.202036 217.482427,240.47455 C217.391589,241.110415 217.300751,241.74628 217.300751,242.382146 C217.300751,243.108849 217.391589,243.744714 217.664103,244.289742 C217.936616,244.743931 218.390806,245.016445 219.026671,245.016445 C220.480078,245.016445 221.933484,244.653093 223.38689,243.92639 C224.840297,243.199687 226.202865,242.20047 227.474596,241.110415 C228.746327,239.929522 230.018057,238.657792 231.108112,237.295223 C232.289005,235.932655 233.288222,234.479248 234.196601,233.207518 C235.10498,231.935787 235.831683,230.664056 236.467548,229.574002 C237.103413,228.120595 237.557603,227.303054 237.830117,226.758027 C237.920955,226.485513 238.193468,226.394675 238.55682,226.394675 C238.920171,226.394675 239.283523,226.485513 239.646875,226.576351 C240.010226,226.758027 240.28274,226.939702 240.555254,227.212216 C240.827767,227.48473 240.918605,227.757244 240.73693,228.029757 C240.597179,228.274321 240.443991,228.572635 240.267028,228.924699 L239.920587,229.616464 C239.711375,230.033029 239.472186,230.503343 239.192685,231.027408 C238.55682,232.299139 237.648441,233.752545 236.649224,235.387627 C235.650007,236.931872 234.469114,238.566954 233.197384,240.202036 C231.925653,241.837118 230.472247,243.381363 228.928002,244.743931 C227.383758,246.1065 225.657838,247.196554 223.931918,248.104933 C222.11516,248.922475 220.298402,249.376664 218.299968,249.376664 C216.664886,249.376664 215.211479,249.013312 214.030587,248.377447 C212.849694,247.650744 211.850477,246.833203 211.032936,245.743148 C210.215395,244.653093 209.670367,243.563038 209.307016,242.291308 C209.120798,241.639546 208.982299,241.011643 208.891517,240.395372 L209.034502,240.202036 C207.853609,241.837118 206.581879,243.381363 205.310148,244.743931 C204.038417,246.1065 202.857525,247.196554 201.676632,248.104933 C200.495739,248.922475 199.405684,249.376664 198.406467,249.376664 C196.771385,249.376664 195.499655,248.740799 194.4096,247.559906 C193.319545,246.379013 192.865356,244.743931 192.865356,242.654659 C192.865356,241.927956 193.047031,241.110415 193.319545,240.111198 C193.592059,239.111981 193.95541,237.931088 194.4096,236.750196 C194.863789,235.569303 195.408817,234.297572 195.953844,233.025842 C196.498872,231.754111 197.134737,230.482381 197.679764,229.21065 C196.589709,230.482381 195.499655,231.844949 194.318762,233.298356 C193.137869,234.751762 192.047814,236.11433 190.95776,237.567737 C189.867705,238.930305 188.959326,240.292874 188.050947,241.564605 C187.233406,242.836335 186.59754,243.835552 186.143351,244.743931 C186.052513,245.107283 185.961675,245.470634 185.961675,245.65231 L186.052513,246.015662 C186.052513,246.1065 186.143351,246.197338 186.143351,246.379013 C186.143351,246.469851 186.143351,246.651527 186.234189,246.742365 L186.143351,246.651527 L186.415865,247.741582 L186.415865,247.741582 C186.506702,248.104933 186.506702,248.377447 186.415865,248.649961 C186.325027,248.922475 186.234189,249.10415 185.961675,249.285826 C185.689161,249.467502 185.32581,249.467502 184.780782,249.467502 C184.144917,249.467502 183.418214,249.285826 182.782348,249.013312 C182.146483,248.740799 181.510618,248.286609 180.96559,247.650744 C180.420563,247.105717 179.966374,246.379013 179.603022,245.561472 C179.23967,244.743931 179.057995,243.835552 179.057995,242.836335 C179.057995,242.507716 179.087348,242.135066 179.151955,241.718385 C178.316545,242.72597 177.453449,243.682022 176.514533,244.562255 C175.151965,245.924824 173.698558,247.014879 172.245152,247.923258 C170.791745,248.740799 169.338339,249.194988 167.884933,249.194988 C167.249067,249.194988 166.613202,249.013312 165.795661,248.649961 C164.97812,248.286609 164.251417,247.83242 163.615551,247.105717 C162.888848,246.469851 162.343821,245.65231 161.889631,244.653093 C161.435442,243.653876 161.162928,242.563821 161.162928,241.292091 C161.162928,240.565388 161.344604,239.566171 161.798793,238.203602 C162.252983,236.841034 162.79801,235.296789 163.524713,233.570869 C164.251417,231.844949 165.068958,230.028191 165.977337,228.029757 C166.885716,226.031323 167.794095,224.03289 168.702474,222.125294 L169.701691,219.854346 C168.248284,219.581832 166.976554,219.309319 165.795661,218.945967 C164.614768,218.582616 163.706389,218.219264 162.888848,217.855912 C162.071307,217.492561 161.52628,217.129209 161.07209,216.765857 C160.617901,216.402506 160.436225,216.129992 160.436225,215.948316 C160.436225,215.494127 160.527063,215.130775 160.617901,214.949099 C160.708738,214.767424 160.981252,214.585748 161.253766,214.585748 C161.52628,214.585748 161.889631,214.585748 162.434659,214.676586 C162.888848,214.767424 163.433875,214.858262 164.160579,215.039937 C164.887282,215.221613 165.886499,215.403289 167.067392,215.584965 C168.248284,215.766641 169.701691,215.948316 171.336773,216.129992 C172.517666,213.586531 173.516883,211.224745 174.334424,209.226312 C175.151965,207.227878 175.515316,205.774471 175.515316,204.95693 C175.515316,204.411903 175.878668,204.230227 176.514533,204.230227 Z M189.129667,218.542832 L188.88368,218.648957 C188.790266,218.687962 188.694382,218.726442 188.595974,218.764291 C187.415081,219.218481 185.961675,219.67267 184.235755,220.036022 C182.418997,220.399374 180.329725,220.581049 177.877102,220.581049 C177.604588,221.216915 177.241236,221.943618 176.968723,222.579483 C176.696209,223.215348 176.332857,223.942052 175.969506,224.577917 C175.061127,226.485513 174.152748,228.393109 173.244369,230.300705 C172.33599,232.208301 171.518449,234.115897 170.791745,235.750979 C170.065042,237.476899 169.520015,239.021143 169.065825,240.47455 C168.611636,241.927956 168.42996,243.018011 168.42996,243.92639 C168.42996,244.743931 168.702474,245.107283 169.156663,245.107283 C170.065042,245.107283 171.064259,244.743931 172.154314,243.92639 C173.244369,243.199687 174.334424,242.20047 175.424478,241.019577 C176.514533,239.838684 177.604588,238.476116 178.694643,237.022709 C179.784698,235.569303 180.783915,234.206735 181.601456,232.844166 C182.509835,231.481597 183.236538,230.209867 183.872403,229.119812 C184.421216,228.178991 184.834692,227.441174 185.112831,226.906362 C185.618986,225.835682 186.140003,224.766289 186.688378,223.669538 C187.502141,221.960636 188.315904,220.251734 189.129667,218.542832 Z M228.837164,223.033673 C228.019623,223.033673 227.202082,223.397024 226.202865,224.214565 C225.203648,225.032106 224.295269,226.031323 223.38689,227.212216 C222.478511,228.483947 221.570132,229.846515 220.843429,231.39076 C220.025888,232.935004 219.299185,234.479248 218.754157,236.023493 C219.93505,235.387627 221.115943,234.570086 222.387673,233.480031 C223.659404,232.389977 224.749459,231.118246 225.748676,229.937353 C226.747893,228.665623 227.565434,227.48473 228.201299,226.303837 C228.837164,225.122944 229.109678,224.123727 229.109678,223.397024 C229.109678,223.124511 229.01884,223.033673 228.837164,223.033673 Z" id="the" fill="#FFFFFF" fill-rule="nonzero"></path>
        <path d="M84.8590908,210.861394 C85.585794,210.861394 86.4033351,211.133908 87.3117142,211.588097 C88.2200932,212.042287 89.0376343,212.587314 89.7643375,213.223179 C90.4910407,213.859045 90.8543923,214.49491 90.8543923,215.130775 L90.8543923,216.129992 L90.8543923,216.129992 C90.8543923,216.311668 90.7635544,216.584182 90.7635544,216.765857 C90.7635544,216.947533 90.5818786,217.310885 90.4002028,217.765074 C90.2992718,217.966936 90.1703044,218.224871 90.0133006,218.538879 L89.5826617,219.400157 L89.5826617,219.400157 C92.3077987,218.491778 94.85126,218.128426 97.1222075,218.128426 C97.7580728,218.128426 98.2122623,218.219264 98.6664518,218.491778 C99.1206413,218.764291 99.393155,219.036805 99.6656687,219.400157 C99.9381824,219.763508 100.119858,220.217698 100.301534,220.671887 C100.392372,221.126077 100.48321,221.580266 100.48321,222.034456 C100.48321,222.851997 100.301534,223.5787 99.9381824,224.214565 C99.5748308,224.850431 99.0298034,225.122944 98.3031002,225.122944 C96.0321527,225.122944 93.7612052,225.213782 91.5810955,225.486296 C89.4009859,225.75881 87.3117142,226.122161 85.3132803,226.485513 C84.3140634,228.302271 83.1331707,230.391543 81.952278,232.66249 C80.7713853,234.933438 79.6813304,237.113547 78.5912756,239.202819 C77.5920587,241.292091 76.6836797,243.199687 76.0478144,244.834769 C75.4119491,246.469851 75.0485975,247.741582 75.0485975,248.468285 C75.0485975,249.830854 75.1394354,251.011746 75.4119491,252.010963 C75.6844628,252.919342 75.9569765,253.736883 76.2294902,254.281911 C76.6836797,255.371966 76.8653555,256.098669 76.7745176,256.552858 C76.6836797,257.007048 76.0478144,257.188724 74.8669217,257.188724 C74.2310564,257.188724 73.5951911,256.91621 72.686812,256.46202 C71.8692709,256.007831 71.0517298,255.281128 70.3250266,254.372749 C69.5983234,253.46437 68.9624581,252.374315 68.4174307,251.193422 C67.8724033,249.921691 67.5998896,248.559123 67.5998896,247.105717 C67.5998896,246.469851 67.7815654,245.561472 68.2357549,244.289742 C68.6899444,243.018011 69.2349718,241.564605 69.8708371,239.929522 C70.5067024,238.29444 71.2334056,236.659358 72.1417846,234.8426 C72.9593257,233.11668 73.7768669,231.39076 74.5035701,229.846515 C74.0493806,230.028191 73.5043532,230.209867 73.0501636,230.391543 C72.5959741,230.573218 72.1417846,230.754894 71.778433,230.845732 C71.1425677,231.118246 70.6883782,231.299922 70.3250266,231.39076 C69.961675,231.481597 69.6891613,231.572435 69.4166476,231.572435 C68.6899444,231.572435 68.144917,231.39076 67.8724033,231.027408 C67.5998896,230.664056 67.5090517,230.209867 67.5090517,229.755677 C67.5090517,229.301488 67.7815654,228.75646 68.3265928,228.120595 C68.8716202,227.48473 69.5983234,226.939702 70.5975403,226.303837 C71.5967572,225.667972 72.686812,225.122944 73.9585427,224.487079 C75.2302733,223.851214 76.6836797,223.306186 78.1370861,222.761159 C78.5912756,221.761942 79.136303,220.853563 79.5904925,220.036022 C80.0446821,219.127643 80.4988716,218.40094 80.8622232,217.765074 L80.8622232,217.855912 C81.8614401,216.039154 82.5881433,214.676586 83.0423328,213.768207 C83.4965223,212.859828 83.769036,212.133125 83.769036,211.769773 C83.769036,211.133908 84.1323876,210.861394 84.8590908,210.861394 Z M131.277258,215.494127 C131.731448,215.494127 132.367313,215.584965 133.094016,215.675803 C133.82072,215.766641 134.456585,215.948316 135.09245,216.22083 C135.728316,216.493344 136.182505,216.765857 136.636695,217.220047 C137.090884,217.674236 137.27256,218.128426 137.27256,218.764291 C137.27256,219.309319 137.090884,219.854346 136.81837,220.399374 C136.545857,220.944401 136.182505,221.580266 135.819153,222.306969 C135.364964,223.033673 134.910774,223.851214 134.547423,224.759593 C134.184071,225.577134 134.002395,226.394675 134.002395,227.212216 C134.002395,227.757244 134.093233,228.302271 134.184071,228.665623 C134.274909,229.028974 134.547423,229.392326 134.819937,229.664839 C135.09245,229.937353 135.364964,230.209867 135.637478,230.391543 C135.909991,230.573218 136.182505,230.754894 136.455019,230.93657 C137.000046,231.209084 137.454236,231.572435 137.817587,231.844949 C138.180939,232.117463 138.362615,232.66249 138.362615,233.298356 C138.362615,233.661707 138.180939,234.297572 137.908425,235.024276 C137.635911,235.750979 137.181722,236.659358 136.727532,237.658575 C136.455019,238.29444 136.091667,239.021143 135.819153,239.747847 C135.455802,240.47455 135.183288,241.201253 134.910774,241.927956 C134.638261,242.654659 134.456585,243.290525 134.274909,243.92639 C134.093233,244.562255 134.002395,245.107283 134.002395,245.561472 C134.002395,245.924824 134.093233,246.1065 134.274909,246.1065 C134.729099,246.1065 135.364964,245.743148 136.091667,244.925607 C136.81837,244.198904 137.635911,243.199687 138.453453,242.018794 C139.270994,240.837901 140.088535,239.475333 140.996914,238.021926 C141.814455,236.56852 142.631996,235.115114 143.449537,233.752545 C144.17624,232.389977 144.902944,231.118246 145.447971,229.937353 C146.083836,228.393109 146.538026,227.48473 146.81054,226.848865 C146.901377,226.576351 147.173891,226.485513 147.537243,226.485513 C147.900594,226.485513 148.263946,226.576351 148.627298,226.667189 C148.990649,226.848865 149.354001,227.03054 149.535677,227.303054 C149.717352,227.575568 149.80819,227.848081 149.717352,228.029757 C149.444839,228.665623 148.990649,229.664839 148.263946,231.027408 C147.537243,232.389977 146.81054,233.752545 145.992998,235.387627 C145.084619,236.931872 144.17624,238.566954 143.177023,240.202036 C142.177807,241.837118 141.087752,243.381363 139.997697,244.743931 C138.907642,246.1065 137.817587,247.196554 136.727532,248.104933 C135.637478,248.922475 134.638261,249.376664 133.639044,249.376664 C132.639827,249.376664 131.822286,249.194988 131.095583,248.831637 C130.368879,248.468285 129.642176,248.014096 129.097149,247.469068 C128.552121,246.924041 128.097932,246.288175 127.825418,245.561472 C127.552904,244.834769 127.371229,244.108066 127.371229,243.290525 C127.371229,242.291308 127.552904,241.201253 128.007094,239.838684 C128.370446,238.476116 128.824635,237.204385 129.278825,236.023493 C129.823852,234.570086 130.459717,233.11668 131.186421,231.572435 C130.913907,231.39076 130.641393,231.209084 130.368879,231.027408 L130.204644,230.908229 L130.204644,230.908229 L130.102043,230.825861 C129.727337,231.447533 129.301534,232.094753 128.824635,232.844166 C128.18877,233.843383 127.371229,234.751762 126.553688,235.841817 C125.645309,236.841034 124.73693,237.840251 123.646875,238.657792 C122.647658,239.566171 121.466765,240.292874 120.285872,240.928739 C119.10498,241.564605 117.742411,242.018794 116.379843,242.20047 C114.926436,244.289742 113.200516,246.015662 111.29292,247.287392 C109.385324,248.649961 107.477728,249.285826 105.388457,249.285826 C104.298402,249.285826 103.208347,249.10415 102.20913,248.649961 C101.209913,248.195771 100.210696,247.559906 99.393155,246.742365 C98.5756139,245.924824 97.9397486,244.834769 97.3947212,243.563038 C96.8496938,242.291308 96.668018,240.837901 96.668018,239.111981 C96.668018,237.476899 96.9405317,235.932655 97.576397,234.206735 C98.2122623,232.571652 98.9389655,231.027408 99.7565066,229.574002 C100.574048,228.120595 101.391589,227.03054 102.20913,226.122161 C103.026671,225.213782 103.753374,224.759593 104.207564,224.759593 C104.570915,224.759593 104.934267,224.759593 105.297619,224.850431 C105.66097,224.941269 106.11516,225.032106 106.478511,225.122944 C107.114377,224.305403 107.750242,223.5787 108.386107,222.851997 C109.021973,222.125294 109.839514,221.580266 110.566217,221.035239 C111.383758,220.490211 112.110461,220.12686 113.01884,219.763508 C113.836381,219.490995 114.653922,219.309319 115.562301,219.309319 C116.834032,219.309319 117.833249,219.490995 118.65079,219.763508 C119.468331,220.036022 120.104197,220.399374 120.558386,220.944401 C121.012576,221.489428 121.375927,222.034456 121.557603,222.761159 C121.739279,223.487862 121.830117,224.214565 121.830117,225.032106 C121.830117,229.392326 120.8309,233.570869 118.923304,237.476899 C120.104197,236.841034 121.285089,235.932655 122.284306,234.933438 C123.182186,234.110381 124.018433,233.225693 124.742282,232.380906 C125.025941,231.8634 125.284178,231.386317 125.463633,231.027408 C125.736146,230.391543 126.00866,229.937353 126.281174,229.483164 C126.46285,229.028974 126.644525,228.665623 126.826201,228.302271 C127.007877,227.938919 127.189553,227.666406 127.280391,227.303054 C127.098715,226.939702 127.007877,226.485513 126.917039,225.940486 C126.826201,225.395458 126.826201,224.850431 126.826201,224.305403 C126.826201,223.215348 126.917039,222.125294 127.189553,221.035239 C127.462067,219.945184 127.825418,219.036805 128.18877,218.219264 C128.552121,217.401723 129.097149,216.67502 129.642176,216.22083 C130.187204,215.675803 130.732231,215.494127 131.277258,215.494127 Z M105.206781,238.112764 C104.752591,239.111981 104.38924,240.111198 104.116726,241.110415 C103.844212,242.109632 103.662536,242.927173 103.662536,243.653876 C103.662536,244.198904 103.753374,244.653093 104.025888,245.016445 C104.298402,245.288958 104.752591,245.470634 105.479294,245.470634 C106.660187,245.470634 107.750242,245.198121 108.749459,244.562255 C109.748676,243.92639 110.747893,243.108849 111.565434,242.018794 C110.293703,241.655442 109.11281,241.201253 108.022756,240.47455 C106.932701,239.838684 105.933484,239.021143 105.206781,238.112764 Z M117.560735,223.5787 C117.197384,223.5787 116.743194,224.03289 116.016491,224.850431 C115.289788,225.667972 114.653922,226.758027 113.927219,228.029757 C113.200516,229.301488 112.564651,230.664056 112.019623,232.026625 C111.474596,233.570869 111.202082,234.8426 111.202082,236.023493 C111.202082,236.750196 111.383758,237.476899 111.74711,237.931088 C112.110461,238.476116 112.746327,238.74863 113.745543,238.930305 C114.381409,237.840251 115.017274,236.659358 115.562301,235.387627 C116.107329,234.206735 116.561518,232.935004 116.92487,231.754111 C117.288222,230.573218 117.560735,229.483164 117.742411,228.393109 C117.924087,227.303054 118.014925,226.394675 118.014925,225.577134 C118.014925,224.214565 117.833249,223.5787 117.560735,223.5787 Z M116.198167,195.418951 C120.558386,195.418951 124.191902,195.782302 127.007877,196.599843 C129.91469,197.417384 132.185637,198.416601 133.911558,199.506656 C135.637478,200.687549 136.909208,201.868442 137.635911,203.049334 C138.362615,204.321065 138.725966,205.320282 138.725966,206.228661 C138.725966,207.046202 138.453453,207.863743 137.908425,208.499608 C137.363398,209.135474 136.636695,209.498825 135.728316,209.498825 C135.09245,209.498825 134.547423,209.407987 134.274909,209.226312 C134.002395,209.044636 133.82072,208.772122 133.729882,208.499608 C133.639044,208.227095 133.639044,207.863743 133.729882,207.500392 C133.82072,207.13704 133.911558,206.773688 134.002395,206.410337 C134.093233,206.137823 134.093233,205.956147 134.093233,205.956147 C134.093233,205.501958 133.82072,204.95693 133.36653,204.411903 C132.912341,203.866875 132.276475,203.412686 131.368096,203.049334 C130.550555,202.685983 129.4605,202.322631 128.279608,202.050117 C127.098715,201.777604 125.736146,201.686766 124.28274,201.686766 C118.105763,201.686766 112.382975,202.140955 107.114377,202.958496 C101.75494,203.776038 96.8496938,204.866092 92.3077987,206.137823 C87.7659037,207.409554 83.6781981,208.772122 79.9538442,210.134691 C76.2294902,211.588097 72.9593257,212.859828 70.1433508,214.04072 C67.5998896,215.130775 65.2381041,216.129992 63.3305082,216.856695 C61.3320744,217.583399 59.7878301,217.94675 58.5160994,217.94675 C57.7893962,217.94675 56.9718551,217.765074 56.2451519,217.401723 C55.5184487,217.038371 54.8825834,216.67502 54.2467181,216.129992 C53.7016907,215.675803 53.1566633,215.130775 52.7933117,214.49491 C52.42996,213.859045 52.2482842,213.314017 52.2482842,212.859828 C52.2482842,212.133125 52.5207979,211.497259 53.0658254,211.133908 C53.6108528,210.679718 54.4283939,210.498042 55.6092866,210.498042 C56.0634761,210.498042 57.062693,210.225529 58.6977752,209.680501 C60.3328575,209.135474 62.2404534,208.408771 64.5114009,207.591229 C66.6006727,206.864526 68.9624581,205.956147 71.5059193,205.138606 C74.0493806,204.321065 76.7745176,203.321848 79.6813304,202.413469 C82.5881433,201.50509 85.585794,200.596711 88.6742827,199.688332 C91.7627713,198.870791 94.85126,198.05325 98.0305865,197.417384 C101.119075,196.781519 104.207564,196.236492 107.296052,195.782302 C110.475379,195.600626 113.382192,195.418951 116.198167,195.418951 Z" id="for" fill="#FFFFFF" fill-rule="nonzero"></path>
        <path d="M349.651573,122.657792 C352.104197,122.657792 354.284306,123.021143 356.010226,123.657009 C357.736146,124.383712 359.189553,125.201253 360.279608,126.291308 C361.369662,127.381363 362.278041,128.562255 362.823069,129.833986 C363.458934,131.105717 363.822286,132.377447 364.0948,133.649178 C364.367313,134.83007 364.367313,135.920125 364.367313,136.919342 C364.367313,137.918559 364.185637,138.554424 364.003962,139.008614 L364.0948,139.008614 C363.913124,139.553641 363.458934,139.735317 362.823069,139.735317 C362.187204,139.735317 361.551338,139.553641 360.915473,139.371966 C360.279608,139.099452 359.73458,138.826938 359.280391,138.463587 C358.826201,138.100235 358.553688,137.827721 358.644525,137.646045 C358.717196,137.573375 358.73173,137.326296 358.734637,136.904808 L358.735363,136.555991 L358.735363,136.555991 C358.735363,135.920125 358.46285,135.375098 358.190336,134.739233 C357.826984,134.103367 357.281957,133.55834 356.464416,133.10415 C355.646875,132.649961 354.465982,132.377447 353.012576,132.377447 C351.468331,132.377447 349.742411,133.10415 347.925653,134.466719 C346.108895,135.829287 344.382975,137.646045 342.566217,139.826155 C340.840297,142.006265 339.114377,144.549726 337.479294,147.274863 C335.844212,150.090838 334.390806,152.906813 333.209913,155.722788 C332.02902,158.538763 331.029803,161.354738 330.3031,163.989037 C329.576397,166.623336 329.213045,168.894283 329.213045,170.801879 C329.213045,173.163665 329.939749,174.344558 331.302317,174.344558 C332.937399,174.344558 334.572482,173.617854 336.298402,172.164448 C338.024322,170.711042 339.659404,168.894283 341.294486,166.623336 C342.929569,164.352388 344.382975,161.899765 345.745543,159.265466 C347.108112,156.540329 348.289005,153.996868 349.379059,151.635082 C350.469114,149.182459 351.286655,147.093187 351.831683,145.276429 C352.37671,143.459671 352.740062,142.18794 352.740062,141.642913 C352.740062,141.097886 353.103413,140.734534 353.739279,140.552858 C354.375144,140.46202 355.192685,140.46202 356.191902,140.734534 C357.191119,141.007048 358.281174,141.370399 359.371229,141.824589 C360.552121,142.278778 361.642176,142.914644 362.550555,143.459671 C363.549772,144.095536 364.367313,144.731402 365.003179,145.458105 C365.639044,146.184808 366.002395,146.729836 366.002395,147.274863 C366.002395,148.001566 365.639044,149.182459 365.003179,150.817541 C364.367313,152.452623 363.549772,154.360219 362.641393,156.449491 C362.005528,157.902897 361.278825,159.356304 360.642959,160.991386 C360.279608,161.763508 359.961675,162.53563 359.655097,163.307753 L359.046988,164.851997 C358.944795,165.109371 358.841341,165.366745 358.735363,165.624119 C358.190336,167.168363 357.736146,168.530932 357.372795,169.8935 C357.009443,171.165231 356.827767,172.255286 356.827767,173.163665 C356.827767,173.527016 356.827767,173.617854 356.73693,173.617854 C357.645309,173.617854 358.826201,172.891151 360.18877,171.346907 C361.551338,169.802662 363.095583,167.804229 364.730665,165.442443 C366.064405,163.515929 367.398146,161.408092 368.781188,159.118933 C369.008778,157.401353 369.40889,155.639983 369.999263,153.815192 C370.907642,150.726703 372.270211,147.729052 373.905293,144.731402 C375.540375,141.733751 377.538809,138.917776 379.809756,136.283477 C382.080704,133.649178 384.533327,131.287392 387.258464,129.288958 C389.892763,127.290525 392.708738,125.74628 395.615551,124.565388 C398.522364,123.384495 401.429177,122.839468 404.426828,122.839468 C406.879451,122.839468 408.968723,123.202819 410.694643,123.838684 C412.420563,124.565388 413.783132,125.382929 414.964024,126.472984 C416.054079,127.563038 416.962458,128.743931 417.598323,130.015662 C418.234189,131.287392 418.688378,132.559123 418.870054,133.740016 C419.142568,134.920908 419.142568,136.010963 419.142568,137.01018 C419.05173,138.009397 418.960892,138.7361 418.870054,139.19029 C418.052513,140.825372 417.234972,141.733751 416.326593,141.915427 C417.416648,143.005482 418.234189,144.277212 418.960892,145.639781 C419.687595,147.002349 420.050947,148.27408 420.050947,149.454973 C420.050947,150.363352 419.778433,151.907596 419.142568,153.90603 C418.506702,155.995301 417.779999,158.175411 416.87162,160.628034 C420.811357,157.370176 424.371942,154.112317 427.553377,150.854458 C427.740074,148.086904 428.449628,145.319098 429.679764,142.551292 C431.133171,139.371966 433.131605,136.465153 435.49339,133.921691 C437.946013,131.37823 440.67115,129.288958 443.668801,127.744714 C446.666452,126.20047 449.75494,125.382929 452.934267,125.382929 C455.023539,125.382929 456.476945,125.837118 457.385324,126.836335 C458.293703,127.835552 458.747893,129.107283 458.747893,130.742365 C458.747893,131.923258 458.475379,133.376664 457.839514,134.920908 C457.294486,136.465153 456.476945,138.100235 455.477728,139.826155 C454.478511,141.552075 453.297619,143.187157 452.025888,144.82224 C450.754157,146.457322 449.300751,148.001566 447.847345,149.364135 C446.393938,150.726703 444.940532,151.907596 443.396287,152.815975 C441.852043,153.815192 440.398637,154.451057 439.036068,154.723571 C438.854392,155.63195 438.763554,156.540329 438.763554,157.448708 C438.763554,158.538763 438.94523,159.447142 439.308582,160.083007 C439.671933,160.80971 440.216961,161.082224 441.034502,161.082224 C442.942098,161.082224 444.849694,160.537197 446.75729,159.53798 C448.664886,158.447925 450.390806,157.085356 452.116726,155.450274 C453.842646,153.815192 455.38689,151.998434 456.931135,150 C458.475379,148.001566 459.74711,146.09397 460.928002,144.186374 C462.108895,142.278778 463.108112,140.552858 463.925653,139.008614 C464.743194,137.46437 465.379059,136.374315 465.742411,135.647612 C465.924087,135.28426 466.287439,135.102584 466.741628,135.102584 C467.286655,135.102584 467.740845,135.193422 468.195034,135.375098 C468.649224,135.556774 469.103413,135.920125 469.375927,136.283477 C469.739279,136.646829 469.830117,137.01018 469.648441,137.373532 C469.194251,138.281911 468.558386,139.735317 467.650007,141.552075 C466.741628,143.368833 465.651573,145.458105 464.289005,147.729052 C462.926436,150 461.47303,152.270948 459.74711,154.632733 C458.021189,156.994518 456.204431,159.08379 454.11516,161.082224 C452.025888,162.98982 449.845778,164.624902 447.483993,165.805795 C445.122208,166.986688 442.669584,167.622553 440.126123,167.622553 C437.946013,167.622553 436.038417,167.168363 434.494173,166.169146 C432.949929,165.16993 431.58736,163.898199 430.588143,162.444792 C429.786544,161.309193 429.181436,160.124471 428.700573,158.890625 C426.638234,160.843382 424.431441,162.82498 422.140218,164.806578 C418.688378,167.713391 415.236538,170.620204 411.603022,173.527016 L411.364084,174.049985 C413.081202,173.602578 414.858254,173.187786 416.689944,172.800313 C421.413515,171.801096 426.318762,171.074393 431.314847,170.529366 C436.401769,169.984338 441.488691,169.711825 446.575614,169.711825 C451.662536,169.711825 456.658621,169.984338 461.382192,170.529366 C466.105763,171.074393 470.55682,171.982772 474.735363,173.254503 C478.913907,174.526233 482.456585,176.070478 485.545074,177.978074 C489.360265,180.339859 491.994565,182.792482 493.720485,185.245106 C495.446405,187.788567 496.627298,190.150352 497.172325,192.4213 C497.717352,194.692247 497.899028,196.690681 497.626514,198.325764 C497.354001,200.051684 496.990649,201.232576 496.627298,201.777604 C496.173108,202.595145 495.718919,203.140172 495.355567,203.503524 C494.992215,203.866875 494.628864,203.957713 494.265512,203.957713 C493.902161,203.866875 493.447971,203.6852 492.993782,203.23101 L492.676534,202.913763 C492.621084,202.858313 492.564264,202.801493 492.505948,202.743177 L491.726412,201.963641 C491.581869,201.819098 491.429351,201.66658 491.267861,201.50509 C490.927219,201.164448 490.484384,200.721613 490.016002,200.25323 L489.541941,199.77917 L489.541941,199.77917 C488.815238,199.143305 487.997697,198.325764 486.907642,197.417384 C485.817587,196.509005 484.636695,195.509789 483.09245,194.419734 C481.639044,193.329679 479.822286,192.148786 477.823852,190.877056 C475.007877,189.151135 471.737713,187.606891 468.013359,186.425998 C464.289005,185.245106 460.292137,184.245889 456.022756,183.428348 C451.753374,182.701644 447.393155,182.156617 442.942098,181.793265 C438.400203,181.429914 433.949146,181.339076 429.588926,181.339076 C425.228707,181.339076 421.050164,181.61159 416.962458,181.974941 C413.320068,182.306068 409.903998,182.788073 406.851745,183.35221 C406.62246,183.799781 406.388872,184.249296 406.152748,184.700078 C404.154314,188.606108 402.065042,192.330462 399.794095,196.054816 C397.523147,199.77917 395.2522,203.23101 392.890414,206.592013 C390.528629,209.862177 388.166843,212.76899 385.805058,215.312451 C383.443272,217.765074 381.081487,219.763508 378.719702,221.216915 C376.357916,222.670321 374.177807,223.397024 372.088535,223.397024 C369.090884,223.397024 366.547423,223.033673 364.639827,222.216132 C362.641393,221.39859 361.097149,220.490211 360.007094,219.400157 C358.826201,218.310102 358.099498,217.129209 357.554471,215.857478 C357.100281,214.585748 356.827767,213.404855 356.827767,212.496476 C356.827767,210.498042 357.736146,208.227095 359.643742,205.865309 C361.551338,203.503524 364.003962,200.960063 367.183288,198.234926 C370.362615,195.509789 373.996131,192.693814 378.174674,189.605325 C382.353218,186.607674 386.713437,183.428348 391.255332,180.158183 L391.709522,179.068128 C390.437791,179.976507 389.256898,180.703211 387.985168,181.248238 C386.713437,181.793265 385.441706,182.065779 384.169976,182.065779 C381.626514,182.065779 379.355567,181.520752 377.447971,180.339859 C375.540375,179.158966 373.905293,177.70556 372.542724,175.797964 C371.182487,173.893632 370.274886,171.898772 369.548805,169.542268 C368.790818,170.60444 368.032472,171.629491 367.274126,172.618637 C365.184854,175.343774 363.095583,177.523884 361.006311,179.249804 C359.007877,180.975724 357.100281,181.884103 355.374361,181.884103 C353.466765,181.884103 351.831683,181.429914 350.378276,180.430697 C349.015708,179.522318 347.743977,178.432263 346.835598,177.342208 C345.654706,176.070478 344.655489,174.526233 343.928785,172.709475 C343.111244,173.617854 342.202865,174.617071 341.203648,175.616288 C340.113594,176.706343 339.023539,177.614722 337.842646,178.523101 C336.661753,179.43148 335.390023,180.249021 334.027454,180.794049 C332.664886,181.429914 331.393155,181.702428 330.030587,181.702428 C327.487125,181.702428 325.216178,181.1574 323.308582,179.976507 C321.400986,178.795615 319.765904,177.342208 318.403335,175.434612 C317.131605,173.527016 316.132388,171.528583 315.405684,169.166797 C315.311336,168.860164 315.218518,168.556593 315.128425,168.25529 C314.055342,169.74145 312.959174,171.15759 311.863006,172.5278 C309.682897,175.252937 307.411949,177.433046 305.141002,179.068128 C302.870054,180.794049 300.689944,181.61159 298.600673,181.61159 C295.421346,181.61159 292.696209,180.430697 290.606937,178.068912 C288.517666,175.707126 287.427611,172.436962 287.427611,168.349256 C287.427611,166.986688 287.700124,165.260767 288.245152,163.262334 C288.790179,161.2639 289.516883,159.08379 290.425262,156.722005 C291.333641,154.360219 292.332857,151.907596 293.51375,149.364135 C294.694643,146.820673 295.784698,144.277212 296.874753,141.915427 C294.694643,144.458888 292.423695,147.184025 290.06191,150.090838 C287.700124,152.997651 285.429177,155.813626 283.249067,158.629601 C281.159796,161.445576 279.2522,164.079875 277.617117,166.532498 C275.982035,168.985121 274.801143,171.074393 273.983601,172.709475 C273.892763,173.072827 273.892763,173.345341 273.801926,173.617854 C273.801926,173.890368 273.711088,174.072044 273.711088,174.162882 L273.892763,174.980423 C273.983601,175.162099 273.983601,175.434612 273.983601,175.707126 C273.983601,175.97964 273.983601,176.161316 274.074439,176.433829 L274.074439,176.342991 C274.256115,177.160532 274.437791,177.887236 274.528629,178.523101 C274.619467,179.158966 274.619467,179.794832 274.528629,180.249021 C274.437791,180.703211 274.074439,181.1574 273.529412,181.429914 C272.984384,181.702428 272.257681,181.884103 271.167626,181.884103 C269.895896,181.884103 268.624165,181.61159 267.352435,180.975724 C266.080704,180.339859 264.808973,179.43148 263.809756,178.341425 C262.719702,177.160532 261.811323,175.797964 261.084619,174.25372 C260.812638,173.675759 260.591553,173.059625 260.421365,172.414843 L260.267078,172.618637 L260.267078,172.618637 C258.177807,175.343774 256.088535,177.523884 253.999263,179.249804 C252.000829,180.975724 250.093233,181.884103 248.367313,181.884103 C246.459717,181.884103 244.824635,181.429914 243.371229,180.430697 C242.00866,179.522318 240.73693,178.432263 239.82855,177.342208 C238.647658,176.070478 237.648441,174.526233 236.921738,172.709475 C236.104197,173.617854 235.195818,174.617071 234.196601,175.616288 C233.197384,176.706343 232.016491,177.614722 230.835598,178.523101 C229.654706,179.43148 228.382975,180.249021 227.020406,180.794049 C225.657838,181.429914 224.386107,181.702428 223.023539,181.702428 C220.480078,181.702428 218.20913,181.1574 216.301534,179.976507 C214.393938,178.795615 212.758856,177.342208 211.396287,175.434612 C210.124557,173.527016 209.12534,171.528583 208.398637,169.166797 C207.671933,166.805012 206.94523,164.624902 206.94523,162.263117 C206.94523,159.447142 207.39942,156.540329 208.398637,153.45184 C209.307016,150.363352 210.669584,147.365701 212.304666,144.458888 C213.939749,141.552075 215.938182,138.7361 218.20913,136.101801 C220.480078,133.467502 222.932701,131.105717 225.657838,129.107283 C228.292137,127.108849 231.108112,125.564605 233.924087,124.383712 C236.8309,123.202819 239.646875,122.657792 242.553688,122.657792 C245.006311,122.657792 247.186421,123.021143 248.912341,123.657009 C250.638261,124.383712 252.091667,125.201253 253.181722,126.291308 C254.271777,127.381363 255.180156,128.562255 255.725183,129.833986 C256.270211,131.105717 256.7244,132.377447 256.996914,133.649178 C257.269428,134.83007 257.269428,135.920125 257.269428,136.919342 C257.17859,137.918559 257.087752,138.554424 256.906076,139.008614 L256.996914,139.008614 C256.815238,139.553641 256.361049,139.735317 255.725183,139.735317 C255.089318,139.735317 254.453453,139.553641 253.817587,139.371966 C253.181722,139.099452 252.636695,138.826938 252.182505,138.463587 C251.728316,138.100235 251.455802,137.827721 251.54664,137.646045 C251.637478,137.555208 251.637478,137.191856 251.637478,136.555991 C251.637478,136.010963 251.364964,135.375098 251.09245,134.739233 C250.729099,134.103367 250.184071,133.55834 249.36653,133.10415 C248.548989,132.649961 247.368096,132.377447 245.91469,132.377447 C244.370446,132.377447 242.644525,133.10415 240.827767,134.466719 C239.011009,135.829287 237.285089,137.646045 235.468331,139.826155 C233.742411,142.006265 232.016491,144.549726 230.381409,147.274863 C228.746327,150.090838 227.29292,152.906813 226.112027,155.722788 C224.931135,158.538763 223.931918,161.354738 223.205215,163.989037 C222.478511,166.623336 222.11516,168.894283 222.11516,170.801879 C222.11516,173.163665 222.841863,174.344558 224.204431,174.344558 C225.839514,174.344558 227.474596,173.617854 229.200516,172.164448 C230.926436,170.711042 232.561518,168.894283 234.196601,166.623336 C235.831683,164.352388 237.285089,161.899765 238.647658,159.265466 C240.010226,156.540329 241.191119,153.996868 242.281174,151.635082 C243.371229,149.182459 244.18877,147.093187 244.733797,145.276429 C245.278825,143.459671 245.642176,142.18794 245.642176,141.642913 C245.642176,141.097886 246.005528,140.734534 246.641393,140.552858 C247.277258,140.46202 248.0948,140.46202 249.094016,140.734534 C250.093233,141.007048 251.183288,141.370399 252.273343,141.824589 C253.454236,142.278778 254.544291,142.914644 255.45267,143.459671 C256.451886,144.095536 257.269428,144.731402 257.905293,145.458105 C258.541158,146.184808 258.90451,146.729836 258.90451,147.274863 C258.90451,148.001566 258.541158,149.182459 257.905293,150.817541 C257.17859,152.452623 256.451886,154.360219 255.543507,156.449491 C254.907642,157.902897 254.180939,159.356304 253.545074,160.991386 C252.81837,162.53563 252.273343,164.079875 251.728316,165.624119 C251.183288,167.168363 250.729099,168.530932 250.365747,169.8935 C250.002395,171.165231 249.82072,172.255286 249.82072,173.163665 C249.82072,173.527016 249.82072,173.617854 249.729882,173.617854 C250.638261,173.617854 251.819153,172.891151 253.181722,171.346907 C254.544291,169.802662 256.088535,167.804229 257.723617,165.442443 C259.358699,163.080658 260.993782,160.446359 262.719702,157.539546 L262.829302,157.343294 C262.853136,157.287595 262.87716,157.231895 262.901377,157.176194 C263.718919,155.086922 264.718135,152.906813 265.80819,150.726703 C266.898245,148.546594 267.9883,146.366484 269.078355,144.277212 C270.895113,140.643696 272.530195,137.282694 273.983601,134.194205 C275.437008,131.105717 276.163711,128.562255 276.163711,126.563821 C276.163711,125.473767 276.890414,124.928739 278.343821,124.928739 C279.797227,124.837901 281.432309,125.201253 283.158229,126.018794 C284.88415,126.836335 286.519232,127.92639 287.972638,129.379796 C289.426045,130.833203 290.152748,132.559123 290.152748,134.557557 C290.152748,135.465936 289.880234,136.646829 289.426045,138.009397 C288.971855,139.371966 288.33599,140.91621 287.518449,142.64213 C289.516883,140.189507 291.606154,137.827721 293.604588,135.556774 C295.603022,133.285826 297.510618,131.196554 299.236538,129.379796 C300.962458,127.563038 302.506702,126.109632 303.778433,125.019577 C305.050164,123.929522 306.049381,123.384495 306.594408,123.384495 L307.139435,123.384495 L307.139435,123.384495 C307.321111,123.384495 307.684463,123.475333 307.956976,123.566171 C308.774518,123.838684 309.592059,124.292874 310.591276,125.019577 C311.590493,125.74628 312.498872,126.563821 313.316413,127.4722 C314.133954,128.380579 314.860657,129.470634 315.405684,130.651527 C315.950712,131.83242 316.223226,132.922475 316.223226,134.103367 C316.223226,135.011746 315.678198,136.646829 314.588143,139.099452 C313.498088,141.461237 312.226358,144.277212 310.682114,147.365701 C309.592059,149.636648 308.411166,152.089272 307.230273,154.632733 C306.049381,157.176194 304.959326,159.53798 303.960109,161.899765 C302.960892,164.261551 302.143351,166.350822 301.507485,168.349256 C300.87162,170.34769 300.508269,171.891934 300.508269,173.072827 C300.508269,173.617854 300.599106,173.890368 300.689944,173.890368 C301.689161,173.890368 302.870054,173.163665 304.232623,171.801096 C305.595191,170.438528 307.139435,168.62177 308.68368,166.44166 C310.318762,164.170713 311.953844,161.718089 313.588926,158.992952 C313.887709,158.494981 314.183458,157.997011 314.476174,157.499594 C314.71092,156.18144 315.049076,154.834855 315.496522,153.45184 C316.495739,150.363352 317.76747,147.365701 319.402552,144.458888 C321.037634,141.552075 323.036068,138.7361 325.307016,136.101801 C327.577963,133.467502 330.030587,131.105717 332.755724,129.107283 C335.390023,127.108849 338.205998,125.564605 341.021973,124.383712 C343.837948,123.202819 346.74476,122.657792 349.651573,122.657792 Z M387.321279,189.381198 L387.279769,189.38479 L387.279769,189.38479 L387.349302,189.332811 C383.897462,191.96711 380.627298,194.419734 377.538809,196.781519 C374.45032,199.143305 371.816021,201.323414 369.545074,203.321848 C367.274126,205.320282 365.457368,207.13704 364.185637,208.681284 C362.913907,210.316366 362.187204,211.678935 362.187204,212.76899 C362.278041,213.949883 362.823069,214.49491 363.731448,214.49491 C365.457368,214.49491 367.364964,213.859045 369.363398,212.496476 C371.361832,211.133908 373.269428,209.31715 375.267861,207.046202 C377.266295,204.775255 379.264729,202.140955 381.354001,199.052467 C383.343093,195.978414 385.332186,192.814372 387.321279,189.381198 Z M126.00866,63.6131558 C128.461283,63.6131558 130.459717,63.9765074 132.185637,64.7032106 C133.911558,65.4299139 135.183288,66.4291308 136.273343,67.6100235 C137.363398,68.7909162 138.090101,70.0626468 138.725966,71.5160532 C139.270994,72.9694597 139.634345,74.4228661 139.816021,75.7854346 C139.997697,77.238841 140.088535,78.5105717 140.179373,79.6914644 C140.179373,80.8723571 140.270211,81.7807361 140.270211,82.3257635 C140.270211,85.1417384 139.634345,88.5935787 138.271777,92.7721222 C136.909208,96.8598277 135.183288,101.401723 133.094016,106.306969 C136.273343,102.673453 139.45267,99.1307753 142.722834,95.678935 C145.992998,92.3179327 149.263163,89.229444 152.442489,86.5951449 C155.621816,83.9608457 158.710305,81.871574 161.617117,80.3273297 C164.52393,78.7830854 167.249067,77.9655442 169.792529,77.9655442 C173.062693,77.9655442 175.606154,78.9647612 177.422912,80.8723571 C179.23967,82.8707909 180.148049,86.0501175 180.148049,90.5011746 C180.148049,91.3187157 179.875536,92.4087706 179.421346,93.9530149 C178.967157,95.4972592 178.240453,97.2231793 177.332074,99.3124511 C176.423695,101.401723 175.424478,103.67267 174.243586,106.216132 C173.062693,108.759593 171.790962,111.48473 170.428394,114.300705 C173.516883,110.848865 176.605371,107.5787 179.784698,104.399374 C182.964024,101.310885 185.961675,98.5857478 188.868488,96.2239624 C191.775301,93.862177 194.500438,92.045419 197.134737,90.6828504 C199.678198,89.3202819 201.949146,88.5935787 203.856742,88.5935787 C206.127689,88.5935787 208.035285,88.9569303 209.579529,89.6836335 C211.123774,90.4103367 212.395504,91.4095536 213.303883,92.5904464 C214.212262,93.7713391 214.938966,95.2247455 215.302317,96.7689898 C215.665669,98.3132341 215.938182,99.9483164 215.938182,101.583399 C215.938182,104.036022 215.029803,107.215348 213.122208,110.939702 C211.214612,114.664056 208.943664,118.8426 206.309365,123.293657 C204.401769,126.654659 202.403335,130.197338 200.404901,133.921691 C198.406467,137.646045 196.498872,141.552075 194.772951,145.639781 C193.047031,149.636648 191.684463,153.724354 190.50357,157.81206 C189.413515,161.899765 188.868488,165.896633 188.868488,169.802662 C188.868488,175.162099 189.686029,179.522318 191.321111,182.974158 C192.956193,186.335161 194.954627,189.060298 197.225575,191.058731 C199.58736,193.057165 201.949146,194.419734 204.583445,195.146437 C207.126906,195.87314 209.307016,196.236492 211.123774,196.236492 C214.666452,196.236492 217.300751,195.691464 219.026671,194.60141 C220.38924,193.602193 221.570132,192.512138 222.205998,191.512921 C222.932701,190.24119 223.659404,189.514487 224.476945,189.514487 C225.294486,189.514487 225.930352,189.787001 226.566217,190.24119 C227.29292,190.786218 227.928785,191.694597 228.655489,192.693814 C227.656272,194.783085 226.293703,196.690681 224.658621,198.416601 C223.114377,199.870008 221.115943,201.141738 218.572482,202.322631 C216.02902,203.503524 212.849694,204.048551 209.12534,204.048551 C205.491824,204.048551 201.585794,203.321848 197.498088,201.95928 C193.410383,200.596711 189.686029,198.416601 186.325027,195.418951 C182.964024,192.4213 180.148049,188.51527 177.96794,183.791699 C175.78783,179.068128 174.697775,173.254503 174.697775,166.532498 C174.697775,161.899765 175.242803,157.176194 176.423695,152.543461 C177.604588,147.81989 178.967157,143.277995 180.783915,138.917776 C182.509835,134.466719 184.417431,130.197338 186.506702,126.109632 C188.595974,122.021926 190.594408,118.206735 192.502004,114.664056 L192.502004,114.754894 C194.682114,110.758027 196.498872,107.215348 198.043116,104.217698 C199.58736,101.220047 200.314063,98.9490995 200.314063,97.3140172 C200.314063,96.1331245 199.58736,96.0422866 198.043116,96.9506656 C196.498872,97.8590446 194.500438,99.5849648 192.047814,101.94675 C189.595191,104.308536 186.779216,107.215348 183.690727,110.576351 C180.602239,113.937353 177.422912,117.480031 174.334424,121.113547 C171.155097,124.747063 168.157446,128.380579 165.250634,131.83242 C162.343821,135.375098 159.891197,138.554424 157.892763,141.279561 L156.166843,143.459671 L155.985168,143.732185 C154.350085,147.093187 152.805841,150.363352 151.352435,153.633516 C149.899028,156.903681 148.53646,159.901331 147.446405,162.53563 C146.265512,165.260767 145.357133,167.622553 144.721268,169.620987 C144.085402,171.619421 143.722051,173.163665 143.722051,174.25372 C143.722051,175.52545 143.812889,176.524667 143.903727,177.342208 C143.994565,178.159749 144.17624,178.795615 144.357916,179.249804 C144.539592,179.703994 144.812106,180.067345 145.084619,180.339859 C145.357133,180.612373 145.538809,180.794049 145.811323,180.884886 C146.35635,181.339076 146.719702,181.793265 147.083053,182.247455 C147.446405,182.701644 147.537243,183.428348 147.537243,184.336727 C147.537243,184.700078 147.083053,184.972592 146.265512,185.154268 C145.447971,185.335944 144.357916,185.245106 142.995348,185.06343 C141.723617,184.790916 140.270211,184.427565 138.725966,183.791699 C137.181722,183.155834 135.819153,182.247455 134.456585,181.066562 C133.184854,179.88567 132.0948,178.341425 131.186421,176.524667 C130.368879,174.707909 129.91469,172.436962 129.91469,169.802662 C129.91469,167.350039 130.550555,164.079875 131.822286,159.992169 C133.094016,155.904464 134.729099,151.544244 136.81837,146.820673 C138.816804,142.097103 141.087752,137.101018 143.540375,131.923258 C145.992998,126.745497 148.445622,121.749413 150.807407,117.025842 C152.351652,113.664839 153.895896,110.485513 155.349302,107.487862 C156.802709,104.490211 158.074439,101.674236 159.255332,99.2216132 C160.345387,96.7689898 161.253766,94.6797181 161.889631,92.8629601 C162.525496,91.046202 162.888848,89.8653093 162.888848,89.1386061 C162.888848,88.7752545 162.888848,88.5027408 162.979686,88.4119029 C161.889631,88.5027408 160.254549,89.3202819 158.165277,91.046202 C156.076005,92.6812843 153.71422,94.8613939 151.079921,97.5865309 C148.445622,100.311668 145.629647,103.309319 142.541158,106.761159 C139.543507,110.212999 136.545857,113.664839 133.639044,117.207518 C130.732231,120.750196 127.916256,124.202036 125.281957,127.4722 C122.647658,130.742365 120.37671,133.649178 118.469114,136.192639 C116.561518,140.098669 114.74476,143.823023 112.928002,147.547377 C111.202082,151.271731 109.567,154.814409 108.204431,158.084573 C106.841863,161.354738 105.751808,164.352388 104.843429,167.077525 C104.025888,169.802662 103.571698,171.982772 103.571698,173.617854 C103.571698,175.707126 103.662536,177.160532 103.93505,177.978074 C104.207564,178.795615 104.38924,179.43148 104.661753,179.88567 C104.934267,180.339859 105.206781,180.794049 105.388457,181.339076 C105.66097,181.793265 105.751808,182.429131 105.751808,183.246672 C105.751808,184.518403 105.388457,185.517619 104.661753,186.153485 C103.93505,186.78935 102.844995,187.152702 101.573265,187.152702 C100.48321,187.152702 99.2114792,186.78935 97.7580728,186.062647 C96.3046664,185.335944 95.0329358,184.155051 93.7612052,182.610807 C92.4894745,181.066562 91.3994197,179.158966 90.4910407,176.797181 C89.5826617,174.435395 89.1284722,171.619421 89.1284722,168.349256 C89.1284722,166.532498 89.5826617,164.079875 90.5818786,161.173062 C91.4902576,158.266249 92.7619882,154.905247 94.3062326,151.090055 C95.8504769,147.365701 97.6672349,143.277995 99.6656687,138.917776 C101.664103,134.557557 103.753374,130.015662 105.933484,125.382929 C108.386107,120.296006 110.747893,115.118246 113.109678,110.031323 C115.471464,104.944401 117.560735,100.039154 119.468331,95.4064213 C121.375927,90.7736883 122.829334,86.5951449 124.010226,82.779953 C125.191119,78.9647612 125.736146,75.8762725 125.736146,73.4236492 C125.736146,70.8801879 124.918605,69.6084573 123.283523,69.6084573 C120.104197,69.6084573 116.834032,70.5168363 113.291354,72.4244323 C109.748676,74.3320282 106.205998,76.8754894 102.754157,79.9639781 C99.2114792,83.0524667 95.8504769,86.6859828 92.6711503,90.6828504 C89.4918238,94.6797181 86.5850109,98.8582616 84.1323876,103.036805 C81.6797643,107.215348 79.6813304,111.303054 78.227924,115.39076 C76.7745176,119.478465 76.0478144,123.021143 76.0478144,126.291308 C76.0478144,129.470634 76.2294902,132.104933 76.5020039,134.194205 C76.7745176,136.283477 77.1378692,138.100235 77.5920587,139.462803 C78.0462482,140.91621 78.5004377,142.006265 78.9546272,142.823806 C79.4088167,143.641347 79.8630062,144.277212 80.2263579,144.731402 C80.5897095,145.276429 80.8622232,145.730619 81.1347369,146.184808 C81.4072506,146.638998 81.5889264,147.184025 81.5889264,147.910728 C81.5889264,148.728269 81.2255748,149.364135 80.3171958,149.909162 C79.4996546,150.45419 78.4095998,150.726703 76.9561934,150.726703 C75.502787,150.726703 73.7768669,150.363352 71.6875951,149.636648 C69.5983234,148.909945 67.5998896,147.456539 65.7831315,145.458105 C63.8755356,143.459671 62.2404534,140.643696 60.8778849,137.101018 C59.5153164,133.55834 58.879451,129.016445 58.879451,123.475333 C58.879451,118.8426 59.7878301,114.119029 61.6045881,109.30462 C63.4213461,104.490211 65.8739694,99.9483164 69.053296,95.4972592 C72.2326225,91.046202 75.9569765,86.9584965 80.2263579,83.0524667 C84.4957392,79.146437 89.1284722,75.7854346 94.1245568,72.9694597 C99.0298034,70.1534847 104.298402,67.8825372 109.657838,66.1566171 C115.108112,64.5215348 120.558386,63.6131558 126.00866,63.6131558 Z M407.878668,132.377447 C406.334424,132.377447 404.608504,133.10415 402.791745,134.466719 C400.974987,135.829287 399.249067,137.646045 397.432309,139.826155 C395.706389,142.097103 393.980469,144.549726 392.345387,147.365701 C390.710305,150.181676 389.256898,152.997651 387.985168,155.904464 C386.713437,158.811276 385.71422,161.536413 384.987517,164.170713 C384.260814,166.805012 383.897462,169.075959 383.897462,170.983555 C383.897462,172.07361 384.079138,172.981989 384.351652,173.617854 C384.624165,174.25372 385.169193,174.526233 385.895896,174.526233 C387.803492,174.526233 389.711088,173.617854 391.618684,171.801096 C393.52628,169.984338 395.343038,167.804229 396.97812,165.260767 C398.70404,162.717306 400.248284,159.901331 401.610853,156.994518 C402.973421,154.087706 404.063476,151.453406 404.881017,149.182459 L404.881017,149.273297 C405.153531,148.27408 405.426045,147.365701 405.60772,146.457322 C405.880234,145.548943 405.971072,144.82224 406.152748,144.186374 L406.152748,143.823023 C406.152748,141.733751 406.516099,140.280345 407.242803,139.371966 C407.969506,138.554424 408.968723,138.100235 410.240453,138.100235 C411.330508,138.100235 412.420563,138.463587 413.601456,139.281128 C413.328942,138.7361 413.41978,138.281911 413.601456,137.918559 C413.674126,137.845889 413.68866,137.59881 413.691567,137.177322 L413.692294,136.828504 L413.692294,136.828504 C413.692294,136.283477 413.41978,135.647612 413.056428,134.920908 C412.693077,134.285043 412.148049,133.649178 411.330508,133.194988 C410.512967,132.649961 409.332074,132.377447 407.878668,132.377447 Z M453.933484,130.379013 C452.843429,130.379013 451.753374,130.924041 450.481644,132.014096 C449.209913,133.10415 448.02902,134.557557 446.848128,136.283477 C445.667235,138.009397 444.486342,140.007831 443.487125,142.278778 C442.39707,144.458888 441.488691,146.638998 440.761988,148.819107 C442.306233,148.001566 443.941315,146.729836 445.485559,145.185591 C447.120641,143.550509 448.574048,141.915427 449.845778,140.098669 C451.117509,138.281911 452.207564,136.555991 453.025105,134.920908 C453.842646,133.285826 454.205998,131.83242 454.205998,130.833203 C454.296836,130.469851 454.205998,130.379013 453.933484,130.379013 Z" id="manage" fill="#FFFFFF" fill-rule="nonzero" opacity="0.8"></path>
        <path d="M334.663319,55.7102584 C349.379059,55.7102584 361.278825,67.6100235 361.278825,82.3257635 C361.278825,96.9506656 349.288222,108.941269 334.663319,108.941269 C319.947579,108.941269 308.047814,97.0415035 308.047814,82.3257635 C308.047814,67.7008614 320.038417,55.7102584 334.663319,55.7102584 Z M480.730665,42.1754111 L480.730665,57.0728269 L494.447188,57.0728269 L494.447188,69.4267815 L480.639827,69.4267815 L480.639827,86.2317933 C480.639827,87.5943618 480.730665,88.8660924 480.821503,90.0469851 C481.003179,91.2278778 481.275692,92.1362569 481.729882,93.0446359 C482.184071,93.862177 482.910774,94.4980423 484.000829,94.9522318 C485.000046,95.4064213 486.362615,95.5880971 487.997697,95.5880971 C488.815238,95.5880971 489.905293,95.4972592 491.267861,95.3155834 C492.63043,95.1339076 493.629647,94.770556 494.35635,94.1346907 L494.35635,107.124511 C492.63043,107.760376 490.813672,108.123727 488.996914,108.396241 C487.089318,108.577917 485.27256,108.668755 483.54664,108.668755 C480.912341,108.668755 478.459717,108.396241 476.279608,107.851214 C474.099498,107.306186 472.101064,106.397807 470.465982,105.216915 C468.8309,104.036022 467.468331,102.40094 466.559952,100.493344 C465.651573,98.5857478 465.197384,96.2239624 465.197384,93.4079875 L465.197384,69.5176194 L455.296052,69.5176194 L455.296052,57.0728269 L465.197384,57.0728269 L465.197384,42.1754111 L480.730665,42.1754111 Z M256.179373,34 C262.083836,34 267.624948,34.6358653 272.893547,35.9984338 C278.162145,37.2701644 282.794878,39.4502741 286.700908,42.3570869 C290.606937,45.2638998 293.786264,49.0790916 296.057211,53.8026625 C298.328159,58.5262334 299.509052,64.1581832 299.509052,70.8801879 C299.509052,76.7846515 298.418997,82.0532498 296.148049,86.5951449 C293.877102,91.1370399 290.879451,94.9522318 287.064259,97.9498825 C283.249067,101.038371 278.888848,103.400157 273.892763,104.944401 C268.896679,106.579483 263.718919,107.306186 258.268644,107.306186 L231.834815,107.306186 L231.834815,34 L256.179373,34 Z M401.610853,55.6194205 C405.516883,55.6194205 408.696209,56.2552858 411.148832,57.4361785 C413.601456,58.6170713 415.418214,60.3429914 416.780782,62.4322631 C418.143351,64.6123727 419.05173,67.0649961 419.505919,69.9718089 C419.960109,72.8786218 420.232623,76.0579483 420.232623,79.4189507 L420.232623,107.215348 L404.699341,107.215348 L404.699341,82.6891151 C404.699341,81.2357087 404.608504,79.6914644 404.517666,78.14722 C404.426828,76.6029757 404.063476,75.1495693 403.609287,73.8778387 C403.064259,72.6061081 402.337556,71.5160532 401.247501,70.6985121 C400.157446,69.880971 398.613202,69.4267815 396.614768,69.4267815 C394.616334,69.4267815 392.981252,69.7901331 391.709522,70.5168363 C390.437791,71.2435395 389.529412,72.2427565 388.893547,73.4236492 C388.257681,74.6045419 387.803492,75.9671104 387.621816,77.5113547 C387.44014,79.0555991 387.349302,80.5998434 387.349302,82.2349256 L387.349302,107.306186 L371.816021,107.306186 L371.816021,56.981989 L386.713437,56.981989 L386.713437,63.7948316 L386.895113,63.7948316 C387.349302,62.7956147 388.076005,61.8872357 388.984384,60.8880188 C389.892763,59.8888019 390.982818,59.0712608 392.163711,58.2537197 C393.435442,57.5270164 394.79801,56.8911511 396.433092,56.3461237 C397.977337,55.8919342 399.794095,55.6194205 401.610853,55.6194205 Z M334.663319,66.8833203 C326.124557,66.8833203 319.220876,73.7870008 319.220876,82.3257635 C319.220876,90.8645262 326.124557,97.7682067 334.663319,97.7682067 C343.202082,97.7682067 350.105763,90.8645262 350.105763,82.3257635 C350.105763,73.7870008 343.202082,66.8833203 334.663319,66.8833203 Z M257.632779,48.9882537 L248.0948,48.9882537 L248.0948,92.4996085 L256.451886,92.4996085 C260.17624,92.4996085 263.628081,92.1362569 266.898245,91.3187157 C270.077572,90.5920125 272.893547,89.3202819 275.255332,87.5035239 C277.617117,85.7776038 279.433875,83.4158183 280.796444,80.5998434 C282.159013,77.6930305 282.794878,74.2411903 282.794878,70.0626468 C282.794878,66.4291308 282.159013,63.3406421 280.796444,60.706343 C279.433875,58.0720439 277.617117,55.8919342 275.34617,54.1660141 C273.075222,52.440094 270.350085,51.1683634 267.352435,50.2599843 C264.263946,49.4424432 261.084619,48.9882537 257.632779,48.9882537 Z M344.473813,72.5152702 C346.018057,74.0595145 346.018057,76.5121378 344.473813,78.0563821 C342.929569,79.6006265 340.476945,79.6006265 338.932701,78.0563821 C337.388457,76.5121378 337.388457,74.0595145 338.932701,72.5152702 C340.476945,70.9710258 342.929569,70.9710258 344.473813,72.5152702 Z M360.18877,56.8911511 C361.733014,58.4353955 361.733014,60.8880188 360.18877,62.4322631 C358.644525,63.9765074 356.191902,63.9765074 354.647658,62.4322631 C353.103413,60.8880188 353.103413,58.4353955 354.647658,56.8911511 C356.101064,55.3469068 358.644525,55.3469068 360.18877,56.8911511 Z M452.298402,34 L443.032936,63.2498042 L429.770602,63.2498042 L437.400986,34 L452.298402,34 Z" id="dont" fill="#FFFFFF" fill-rule="nonzero" opacity="0.8"></path>
    </g>
</svg>