<?xml version="1.0" encoding="UTF-8"?>
<svg width="550px" height="300px" viewBox="0 0 550 300" version="1.1" xmlns="http://www.w3.org/2000/svg" xmlns:xlink="http://www.w3.org/1999/xlink">
    <title>5</title>
    <g id="5" stroke="none" stroke-width="1" fill="none" fill-rule="evenodd">
        <path d="M428.006501,226.147959 L428.006501,237.723214 L438.831053,237.723214 L438.831053,247.385204 L428.10402,247.385204 L428.10402,260.395408 C428.10402,261.447704 428.201538,262.404337 428.299057,263.360969 C428.396575,264.221939 428.689131,264.987245 429.079205,265.656888 C429.469278,266.326531 430.054389,266.804847 430.834537,267.1875 C431.614685,267.570153 432.687388,267.665816 433.955129,267.665816 C434.637758,267.665816 435.515424,267.570153 436.490609,267.47449 C437.563313,267.378827 438.343461,266.996173 438.928571,266.517857 L438.928571,276.5625 C437.563313,277.040816 436.100535,277.327806 434.637758,277.519133 C433.174981,277.710459 431.712204,277.806122 430.249426,277.806122 C428.201538,277.806122 426.251169,277.614796 424.495836,277.13648 C422.740503,276.753827 421.180207,275.98852 419.912467,275.127551 C418.644727,274.170918 417.572023,272.927296 416.791876,271.492347 C416.011728,269.961735 415.719172,268.144133 415.719172,266.039541 L415.719172,247.480867 L407.820175,247.480867 L407.820175,237.818878 L415.719172,237.818878 L415.719172,226.147959 L428.006501,226.147959 Z M402.944251,237.723214 L402.944251,276.84949 L390.656922,276.84949 L390.656922,237.723214 L402.944251,237.723214 Z M396.800586,218.494898 C398.750956,218.494898 400.40877,219.164541 401.871548,220.503827 C403.236806,221.843112 403.919436,223.565051 403.919436,225.478316 C403.919436,227.391582 403.236806,229.017857 401.871548,230.452806 C400.506289,231.792092 398.750956,232.461735 396.800586,232.461735 C394.850217,232.461735 393.192402,231.792092 391.729625,230.452806 C390.364366,229.017857 389.681737,227.391582 389.681737,225.478316 C389.681737,223.565051 390.364366,221.938776 391.729625,220.503827 C393.094884,219.164541 394.850217,218.494898 396.800586,218.494898 Z" id="it" fill="#FFFFFF" fill-rule="nonzero"></path>
        <path d="M208.297357,170.567602 C212.783207,170.567602 216.683947,171.332908 219.999575,172.767857 C223.315204,174.202806 225.948203,176.211735 228.093609,178.890306 C230.239016,181.473214 231.799312,184.630102 232.774496,188.265306 C233.749681,191.90051 234.237274,195.918367 234.237274,200.223214 C234.237274,206.53699 233.262089,213.329082 231.214201,220.695153 C229.166313,228.061224 226.435795,235.427296 222.827611,242.793367 C219.219427,250.159439 214.928614,257.334184 209.955171,264.221939 C204.981729,271.109694 199.520693,277.13648 193.474547,282.493622 C187.52592,287.755102 181.187218,292.059949 174.458443,295.216837 C167.729668,298.373724 160.903374,300 153.882043,300 C149.59123,300 145.885527,299.42602 142.862454,298.278061 C139.839381,297.130102 137.303901,295.503827 135.353531,293.399235 C133.403161,291.294643 132.037903,288.807398 131.160236,285.9375 C130.28257,283.067602 129.794977,279.815051 129.794977,276.371173 C129.794977,271.205357 130.770162,265.465561 132.720532,259.343112 C134.670902,253.125 137.206382,246.906888 140.522011,240.688776 C143.740121,234.470663 147.543342,228.348214 151.834155,222.512755 C156.124968,216.677296 160.610818,211.51148 165.389224,206.919643 C170.16763,202.423469 174.946036,198.788265 179.919478,196.014031 C184.892921,193.239796 189.573808,191.90051 194.059658,191.90051 C195.814991,191.90051 197.375287,192.283163 198.838064,192.952806 C200.203323,193.718112 201.471063,194.579082 202.348729,195.631378 C203.323914,196.683673 204.006544,197.831633 204.494136,198.979592 C204.981729,200.223214 205.274284,201.27551 205.274284,202.232143 C205.274284,203.571429 204.981729,204.623724 204.299099,205.389031 C203.61647,206.154337 202.543766,206.53699 201.080989,206.53699 C200.495878,206.53699 200.105804,206.53699 199.910767,206.441327 C199.618212,206.441327 199.423175,206.345663 199.13062,206.25 C198.838064,206.25 198.545509,206.25 198.350472,206.154337 C198.057916,206.154337 197.862879,206.058673 197.667842,206.058673 C194.059658,206.058673 190.256437,207.397959 186.355698,209.980867 C182.454959,212.563776 178.554219,216.007653 174.65348,220.121173 C170.850259,224.330357 167.144557,229.11352 163.633891,234.470663 C160.123226,239.827806 157.100153,245.280612 154.467154,250.829082 C151.834155,256.377551 149.688748,261.734694 148.225971,267.091837 C146.665675,272.353316 145.885527,277.040816 145.885527,281.058673 C145.885527,284.406888 146.568157,286.989796 147.835897,288.998724 C149.103637,291.007653 151.249044,291.964286 154.272117,291.964286 C157.782782,291.964286 161.390966,291.007653 165.096669,289.094388 C168.802371,287.181122 172.508073,284.502551 176.213776,281.25 C179.919478,277.901786 183.527662,274.075255 187.038328,269.579082 C190.548993,265.082908 193.864621,260.299745 197.082731,255.133929 C200.300841,250.063776 203.128877,244.706633 205.859395,239.158163 C208.492394,233.609694 210.832838,228.156888 212.783207,222.799745 C214.733577,217.442602 216.196354,212.276786 217.366576,207.302296 C218.439279,202.327806 219.02439,197.831633 219.02439,193.718112 C219.02439,188.839286 218.049205,185.012755 216.196354,182.047194 C214.343503,179.081633 211.32043,177.646684 207.127135,177.646684 C201.276026,177.646684 195.327399,178.794643 189.183734,181.090561 C183.04007,183.38648 177.188961,186.352041 171.43537,190.082908 C165.68178,193.718112 160.318263,197.831633 155.247302,202.423469 C150.176341,207.015306 145.788009,211.51148 141.984788,216.103316 C138.181567,220.59949 135.158494,224.904337 133.013087,228.826531 C130.867681,232.844388 129.697459,236.096939 129.697459,238.584184 C129.697459,240.497449 129.794977,241.836735 129.990014,242.697704 C130.185051,243.558673 130.477607,244.32398 130.770162,244.897959 C130.867681,245.471939 131.062718,245.950255 131.257755,246.332908 C131.452792,246.715561 131.55031,247.289541 131.55031,248.054847 C131.55031,249.394133 131.062718,250.350765 130.185051,251.020408 C129.307385,251.690051 128.039645,251.977041 126.576868,251.977041 C125.211609,251.977041 123.553795,251.594388 121.798462,250.924745 C120.043129,250.255102 118.287796,249.202806 116.727501,247.767857 C115.167205,246.332908 113.801946,244.610969 112.729243,242.506378 C111.656539,240.401786 111.071429,238.010204 111.071429,235.140306 C111.071429,231.026786 112.339169,226.626276 114.777131,221.843112 C117.215093,217.059949 120.62824,212.276786 125.016572,207.493622 C129.404904,202.710459 134.573383,198.022959 140.619529,193.622449 C146.665675,189.126276 153.296932,185.204082 160.5133,181.760204 C167.729668,178.316327 175.433628,175.637755 183.527662,173.533163 C191.524178,171.524235 199.813249,170.567602 208.297357,170.567602 Z M351.747047,221.556122 C352.039602,221.556122 352.332158,221.651786 352.624713,221.747449 C353.50238,222.034439 354.380046,222.512755 355.452749,223.278061 C356.525453,224.043367 357.500637,224.904337 358.378304,225.860969 C359.25597,226.817602 360.036118,227.965561 360.621229,229.209184 C361.20634,230.452806 361.498895,231.600765 361.498895,232.844388 C361.498895,233.80102 360.913784,235.522959 359.743563,238.105867 C358.573341,240.593112 357.208082,243.558673 355.550268,246.906888 C354.380046,249.298469 353.112306,251.881378 351.844565,254.559949 C350.576825,257.23852 349.406603,259.821429 348.3339,262.21301 C347.261197,264.700255 346.38353,266.90051 345.700901,269.100765 C345.018271,271.205357 344.628198,272.927296 344.628198,274.170918 C344.628198,274.744898 344.725716,275.031888 344.823234,275.031888 C345.895938,275.031888 347.163678,274.266582 348.626455,272.831633 C350.089233,271.396684 351.747047,269.483418 353.404861,267.091837 C355.160194,264.700255 356.915526,262.117347 358.670859,259.247449 C360.426192,256.377551 362.084006,253.507653 363.644302,250.733418 C365.204598,247.86352 366.569856,245.280612 367.837597,242.793367 C369.105337,240.306122 369.983003,238.392857 370.665633,236.862245 L370.665633,236.001276 L370.86067,236.001276 C371.543299,234.757653 372.420965,233.992347 373.39615,233.609694 C374.371335,233.227041 375.249001,233.227041 376.029149,233.514031 C376.809297,233.80102 377.394408,234.470663 377.686964,235.331633 C378.077037,236.192602 377.882001,237.340561 377.29689,238.679847 C377.045395,239.173268 376.740953,239.770567 376.393319,240.462177 L376.084996,241.077858 C375.554253,242.141744 374.941048,243.392521 374.273817,244.802296 C372.908558,247.576531 371.348262,250.542092 369.592929,253.890306 C367.837597,257.23852 365.789709,260.586735 363.644302,264.030612 C361.498895,267.47449 359.158452,270.535714 356.818008,273.405612 C354.477564,276.27551 352.039602,278.571429 349.60164,280.389031 C347.163678,282.206633 344.823234,283.067602 342.580309,283.067602 C339.167162,283.067602 336.241608,281.82398 333.998683,279.241071 C331.755758,276.753827 330.585536,273.309949 330.585536,269.005102 C330.585536,267.570153 330.878091,265.752551 331.463202,263.647959 C332.048313,261.543367 332.828461,259.247449 333.803646,256.760204 C334.778831,254.272959 335.851534,251.690051 337.119274,249.01148 C338.387015,246.332908 339.557236,243.654337 340.727458,241.167092 C338.387015,243.845663 335.949052,246.715561 333.413572,249.776786 C330.878091,252.83801 328.440129,255.803571 326.099686,258.769133 C323.85676,261.734694 321.808872,264.508929 320.05354,267.091837 C318.298207,269.674745 317.030467,271.875 316.1528,273.596939 C316.055282,273.979592 316.055282,274.266582 315.957763,274.553571 C315.957763,274.840561 315.860245,275.031888 315.860245,275.223214 L316.055282,276.084184 C316.1528,276.27551 316.1528,276.5625 316.1528,276.84949 C316.1528,277.13648 316.1528,277.327806 316.250319,277.614796 L316.250319,277.519133 C316.445356,278.380102 316.640393,279.145408 316.737911,279.815051 C316.83543,280.484694 316.83543,281.154337 316.737911,281.632653 C316.640393,282.110969 316.250319,282.589286 315.665208,282.876276 C315.080097,283.163265 314.299949,283.354592 313.129727,283.354592 C311.764468,283.354592 310.39921,283.067602 309.033951,282.397959 C307.668692,281.728316 306.303433,280.771684 305.133212,279.623724 C303.96299,278.380102 302.987805,276.945153 302.207657,275.318878 C301.427509,273.692602 301.037435,271.779337 301.037435,269.674745 C301.037435,267.76148 301.329991,265.848214 301.915102,263.743622 C302.237025,262.585694 302.588468,261.398807 303.001914,260.198894 C301.860352,260.736354 300.726672,260.969388 299.672176,260.969388 C297.234214,260.969388 294.893771,260.108418 292.845883,258.482143 C291.870698,260.682398 290.602957,263.169643 289.042662,266.039541 C287.482366,268.813776 285.824552,271.492347 283.874182,273.979592 C282.021331,276.466837 280.070961,278.667092 277.925555,280.389031 C275.877666,282.110969 273.73226,282.971939 271.684372,282.971939 C269.83152,282.971939 268.076188,282.684949 266.418373,282.015306 C264.760559,281.345663 263.200263,280.580357 261.737486,279.623724 C260.274709,278.667092 259.006969,277.519133 257.836747,276.27551 C256.666525,275.031888 255.788859,273.692602 255.106229,272.257653 C253.058341,275.223214 250.912934,277.710459 248.670009,279.815051 C246.427084,281.919643 244.086641,282.971939 241.648679,282.971939 C239.113198,282.971939 236.772754,282.397959 234.529829,281.345663 C232.286904,280.197704 230.434053,278.858418 228.776239,277.13648 C227.118424,275.414541 225.850684,273.596939 224.875499,271.58801 C223.900314,269.579082 223.412722,267.76148 223.412722,265.943878 C223.412722,264.030612 223.705277,262.117347 224.19287,260.108418 C224.680462,258.09949 225.46061,255.994898 226.338277,253.985969 C227.215943,251.977041 228.191128,249.872449 229.263831,247.86352 C230.336534,245.758929 231.409238,243.75 232.481941,241.741071 C234.334792,238.392857 235.992606,235.140306 237.357865,232.174745 C238.820642,229.209184 239.503272,226.626276 239.503272,224.617347 C239.503272,223.469388 240.28342,222.895408 241.843715,222.895408 C243.404011,222.799745 245.159344,223.182398 247.012195,224.043367 C248.962565,224.904337 250.620379,226.052296 252.180675,227.582908 C253.740971,229.11352 254.521118,230.931122 254.521118,233.035714 C254.521118,234.375 253.936007,236.383929 252.863304,238.966837 C251.693082,241.645408 250.327824,244.610969 248.767528,248.054847 L248.767528,247.959184 C247.694825,250.159439 246.622121,252.455357 245.549418,254.751276 C244.476715,257.047194 243.50153,259.343112 242.623863,261.543367 C241.746197,263.743622 241.063568,265.848214 240.478457,267.857143 C239.893346,269.866071 239.60079,271.492347 239.60079,273.022959 C239.60079,273.979592 239.795827,274.744898 240.185901,275.318878 C240.575975,275.892857 241.258605,276.179847 242.233789,276.179847 C243.013937,276.179847 243.891604,275.701531 244.964307,274.649235 C245.939492,273.596939 247.012195,272.353316 248.182417,270.727041 C249.352639,269.196429 250.425342,267.47449 251.498045,265.561224 C252.570749,263.647959 253.545934,261.830357 254.4236,260.012755 C255.593822,256.664541 257.056599,253.507653 258.714413,250.637755 L258.714413,250.733418 C259.884635,248.533163 260.957338,246.332908 262.030042,244.132653 C263.005226,241.932398 263.492819,239.732143 263.492819,237.531888 C263.492819,236.383929 264.272967,235.809949 265.833263,235.809949 C267.393558,235.714286 269.148891,236.096939 271.001742,236.957908 C272.854593,237.818878 274.609926,238.966837 276.170222,240.593112 C277.730518,242.219388 278.510665,244.03699 278.510665,246.045918 C278.510665,247.385204 278.023073,249.107143 277.145407,251.211735 C276.26774,253.316327 275.195037,255.516582 274.122334,257.908163 C273.439704,259.247449 272.854593,260.682398 272.171964,262.117347 C271.489335,263.552296 270.904224,264.891582 270.416631,266.230867 C269.929039,267.570153 269.441446,268.813776 269.051372,270.057398 C268.661299,271.30102 268.56378,272.353316 268.56378,273.214286 C268.56378,274.170918 268.856336,274.936224 269.343928,275.414541 C269.83152,275.892857 270.806705,276.179847 272.171964,276.179847 C272.952112,276.179847 273.829778,275.701531 274.804963,274.840561 C275.780148,273.979592 276.852851,272.735969 277.828036,271.30102 C278.900739,269.866071 279.875924,268.239796 280.948628,266.517857 C281.923812,264.795918 282.898997,262.978316 283.776664,261.256378 C284.65433,259.534439 285.434478,257.908163 286.117107,256.473214 C286.799737,254.942602 287.384847,253.794643 287.677403,252.933673 C287.287329,252.168367 286.994774,251.307398 286.799737,250.350765 C286.507181,249.394133 286.409663,248.533163 286.409663,247.767857 C286.409663,246.141582 286.799737,244.419643 287.482366,242.697704 C288.164995,240.975765 289.042662,239.253827 289.920328,237.436224 C290.895513,235.427296 291.870698,233.418367 292.748364,231.313776 C293.62603,229.209184 294.113623,227.104592 294.113623,224.904337 C294.113623,223.756378 294.893771,223.182398 296.454066,223.182398 C298.014362,223.086735 299.769695,223.469388 301.622546,224.330357 C303.572916,225.191327 305.23073,226.339286 306.791026,227.869898 C308.351321,229.40051 309.131469,231.218112 309.131469,233.322704 C309.131469,235.044643 308.546358,237.149235 307.473655,239.540816 C306.303433,241.932398 305.23073,244.32398 303.96299,246.619898 C303.377879,247.672194 302.890286,248.72449 302.305175,249.681122 C301.817583,250.637755 301.329991,251.594388 300.939917,252.359694 C300.549843,253.125 300.257287,253.69898 300.06225,254.177296 C299.867213,254.655612 299.769695,254.846939 299.867213,254.846939 C300.549843,254.846939 301.232472,254.559949 302.01262,254.081633 C302.792768,253.603316 303.572916,252.83801 304.353064,251.977041 C305.133212,251.116071 306.010878,250.159439 306.791026,249.01148 C307.571174,247.86352 308.351321,246.811224 309.131469,245.567602 C311.081839,242.410714 312.837172,239.34949 314.592504,235.905612 C314.619285,235.861828 314.647699,235.819647 314.677897,235.779142 C315.153882,234.809452 315.612438,233.863192 316.055282,232.940051 C317.615577,229.6875 318.395725,227.008929 318.395725,224.904337 C318.395725,223.756378 319.175873,223.182398 320.736169,223.182398 C322.296465,223.086735 324.051797,223.469388 325.904649,224.330357 C327.855018,225.191327 329.512832,226.339286 331.073128,227.869898 C332.633424,229.40051 333.413572,231.218112 333.413572,233.322704 C333.413572,234.279337 333.121016,235.522959 332.633424,236.957908 C332.145832,238.392857 331.463202,240.019133 330.585536,241.836735 C332.730942,239.253827 334.973868,236.766582 337.119274,234.375 C339.264681,231.983418 341.312569,229.783163 343.16542,227.869898 C345.018271,225.956633 346.676086,224.42602 348.041344,223.278061 C349.406603,222.130102 350.479307,221.556122 351.064417,221.556122 L351.747047,221.556122 L351.747047,221.556122 Z" id="own" fill="#FFFFFF" fill-rule="nonzero"></path>
        <path d="M317.615577,169.897959 L325.124501,188.839286 L325.222019,188.839286 L331.658239,169.897959 L340.922495,169.897959 L327.855018,203.284439 C327.269907,204.815051 326.684796,206.154337 326.099686,207.397959 C325.514575,208.545918 324.831945,209.598214 323.954279,210.36352 C323.076613,211.128827 322.003909,211.798469 320.63865,212.181122 C319.273392,212.563776 317.615577,212.755102 315.372652,212.755102 C313.032209,212.755102 310.789284,212.372449 308.643877,211.702806 L309.814099,204.432398 C311.179358,205.006378 312.544616,205.293367 314.007394,205.293367 C314.982578,205.293367 315.860245,205.197704 316.445356,205.006378 C317.127985,204.815051 317.615577,204.432398 318.005651,204.049745 C318.395725,203.667092 318.785799,203.093112 319.078355,202.519133 C319.37091,201.945153 319.663466,201.27551 319.956021,200.414541 L320.63865,198.788265 L307.863729,169.897959 L317.615577,169.897959 Z M359.548526,169.132653 C361.791451,169.132653 363.936857,169.515306 365.887227,170.184949 C367.837597,170.854592 369.592929,171.906888 371.055707,173.246173 C372.518484,174.585459 373.688706,176.116071 374.468854,178.029337 C375.34652,179.846939 375.736594,181.951531 375.736594,184.247449 C375.736594,186.543367 375.34652,188.552296 374.468854,190.465561 C373.591187,192.283163 372.518484,193.909439 371.055707,195.248724 C369.592929,196.58801 367.837597,197.544643 365.887227,198.309949 C363.936857,198.979592 361.791451,199.362245 359.548526,199.362245 C357.3056,199.362245 355.160194,198.979592 353.209824,198.309949 C351.259454,197.640306 349.504122,196.58801 348.041344,195.248724 C346.578567,193.909439 345.408345,192.378827 344.628198,190.465561 C343.750531,188.647959 343.360457,186.543367 343.360457,184.247449 C343.360457,181.951531 343.750531,179.942602 344.628198,178.029337 C345.505864,176.211735 346.578567,174.585459 348.041344,173.246173 C349.504122,171.906888 351.259454,170.950255 353.209824,170.184949 C355.160194,169.515306 357.3056,169.132653 359.548526,169.132653 Z M390.169329,169.802296 L390.169329,183.864796 C390.169329,184.725765 390.169329,185.586735 390.266848,186.447704 C390.364366,187.308673 390.461885,188.169643 390.851959,188.934949 C391.144514,189.700255 391.632107,190.274235 392.217218,190.752551 C392.802329,191.230867 393.777513,191.422194 394.850217,191.422194 C396.020439,191.422194 396.995623,191.230867 397.678253,190.848214 C398.360882,190.465561 398.945993,189.891582 399.336067,189.221939 C399.726141,188.552296 399.921178,187.78699 400.116215,186.92602 C400.213733,186.065051 400.311252,185.108418 400.311252,184.247449 L400.311252,169.993622 L409.380471,169.993622 L409.380471,198.596939 L400.603807,198.596939 L400.603807,194.674745 L400.506289,194.674745 C400.213733,195.248724 399.726141,195.822704 399.238548,196.30102 C398.750956,196.875 398.165845,197.353316 397.385697,197.735969 C396.703068,198.214286 395.825402,198.501276 394.947735,198.788265 C394.070069,199.075255 392.997366,199.170918 391.924662,199.170918 C389.681737,199.170918 387.828886,198.788265 386.366109,198.118622 C384.903331,197.44898 383.830628,196.492347 383.05048,195.248724 C382.270332,194.005102 381.78274,192.570153 381.490184,190.943878 C381.197629,189.317602 381.10011,187.5 381.10011,185.586735 L381.10011,169.802296 L390.169329,169.802296 Z M359.548526,176.977041 C357.208082,176.977041 355.452749,177.646684 354.185009,178.985969 C353.014787,180.325255 352.332158,182.142857 352.332158,184.247449 C352.332158,186.447704 352.917269,188.169643 354.185009,189.508929 C355.452749,190.848214 357.208082,191.517857 359.548526,191.517857 C361.888969,191.517857 363.644302,190.848214 364.912042,189.508929 C366.179782,188.169643 366.764893,186.447704 366.764893,184.247449 C366.764893,182.047194 366.179782,180.325255 364.912042,178.985969 C363.644302,177.646684 361.888969,176.977041 359.548526,176.977041 Z" id="you" fill="#FFFFFF" fill-rule="nonzero"></path>
        <path d="M427.226353,147.503827 C428.006501,147.503827 428.884168,147.695153 429.859352,148.173469 C430.834537,148.556122 431.712204,149.130102 432.492351,149.799745 C433.272499,150.469388 433.955129,151.139031 434.54024,151.904337 C435.125351,152.669643 435.320388,153.339286 435.320388,153.913265 C435.320388,155.922194 434.637758,157.931122 433.370018,159.940051 C432.004759,161.94898 430.444463,163.670918 428.591612,165.201531 C426.738761,166.732143 424.788391,167.975765 422.642985,168.932398 C420.595096,169.889031 418.839764,170.367347 417.376986,170.367347 C416.011728,170.367347 414.939024,170.080357 414.158877,169.410714 C413.378729,168.741071 412.988655,167.688776 412.988655,166.253827 C412.988655,165.584184 413.28121,165.105867 413.768803,164.531888 C414.256395,164.053571 414.939024,163.479592 415.719172,162.809949 C416.401802,162.331633 417.18195,161.66199 418.059616,160.896684 C418.937282,160.131378 419.814949,159.366071 420.497578,158.409439 C421.277726,157.452806 421.862837,156.40051 422.447948,155.348214 C423.033059,154.200255 423.325614,152.956633 423.325614,151.617347 C423.325614,150.182398 423.715688,149.034439 424.495836,148.460459 C425.275984,147.790816 426.15365,147.503827 427.226353,147.503827 Z M404.407028,78.6352041 C405.57725,78.7308673 406.84499,79.2091837 408.307767,79.8788265 C409.770545,80.6441327 411.038285,81.6007653 412.208507,82.7487245 C413.378729,83.8966837 413.96384,85.1403061 413.96384,86.2882653 C413.96384,87.627551 413.573766,89.3494898 412.793618,91.6454082 C412.01347,93.8456633 410.940767,96.4285714 409.673026,99.3941327 C413.086173,99.2984694 416.109246,99.0114796 418.839764,98.5331633 C421.570281,98.0548469 423.715688,97.6721939 425.373502,97.1938776 L425.275984,97.2895408 C427.128835,96.8112245 428.591612,96.619898 429.664315,96.7155612 C430.444463,96.619898 430.932056,97.1938776 430.932056,98.2461735 C430.932056,98.7244898 430.444463,99.3941327 429.469278,100.159439 C428.494094,101.020408 427.031316,101.881378 425.080947,102.646684 C423.130577,103.507653 420.497578,104.177296 417.376986,104.846939 C414.256395,105.516582 410.550693,105.803571 406.259879,105.803571 L405.878948,106.664541 L405.878948,106.664541 L405.080515,108.38648 C404.949475,108.673469 404.821482,108.960459 404.699584,109.247449 L404.275988,110.108418 L404.275988,110.108418 L403.465365,111.830357 C403.32823,112.117347 403.188047,112.404337 403.041769,112.691327 C401.481474,115.943878 399.921178,119.196429 398.360882,122.544643 C396.800586,125.892857 395.435328,129.049745 394.167587,131.919643 C392.899847,134.885204 391.924662,137.563776 391.144514,140.05102 C390.364366,142.538265 389.974293,144.451531 389.974293,145.982143 C389.974293,147.321429 390.364366,147.991071 391.242033,147.991071 C392.899847,147.991071 394.65518,147.321429 396.508031,146.077806 C398.360882,144.73852 400.311252,143.112245 402.164103,141.007653 C404.114473,138.998724 405.967324,136.702806 407.820175,134.215561 C409.673026,131.728316 411.428359,129.336735 412.988655,127.040816 C414.54895,124.744898 415.816691,122.640306 416.889394,120.727041 C417.962097,118.813776 418.742245,117.378827 419.229838,116.517857 C419.424875,116.135204 419.912467,115.943878 420.497578,115.943878 C421.180207,115.943878 421.765318,116.039541 422.447948,116.326531 C423.130577,116.61352 423.618169,116.90051 424.105762,117.378827 C424.495836,117.76148 424.690873,118.239796 424.495836,118.718112 C423.910725,119.866071 423.033059,121.58801 421.765318,123.788265 C420.497578,125.98852 419.034801,128.475765 417.18195,131.25 C415.426617,133.928571 413.378729,136.702806 411.233322,139.572704 C408.990397,142.346939 406.747472,144.929847 404.30951,147.321429 C401.871548,149.617347 399.336067,151.530612 396.800586,153.061224 C394.265106,154.496173 391.632107,155.26148 389.096626,155.26148 C388.023923,155.26148 386.853701,154.97449 385.488442,154.40051 C384.123183,153.826531 382.855443,152.965561 381.587703,151.817602 C380.417481,150.669643 379.344778,149.330357 378.56463,147.608418 C377.872014,146.164609 377.48685,144.494597 377.40914,142.598383 C376.116044,144.252602 374.793973,145.794917 373.39615,147.225765 C371.250744,149.521684 369.007818,151.434949 366.667375,152.869898 C364.42445,154.304847 362.181525,155.070153 359.938599,155.070153 C357.013045,155.070153 354.672601,154.017857 352.81975,152.008929 C350.966899,149.904337 350.089233,147.130102 350.089233,143.590561 C350.089233,142.346939 350.381788,140.720663 350.966899,138.807398 C351.55201,136.894133 352.332158,134.789541 353.209824,132.589286 C354.185009,130.389031 355.160194,127.997449 356.330416,125.605867 C357.500637,123.214286 358.573341,120.918367 359.548526,118.622449 C360.913784,115.752551 362.084006,113.169643 363.059191,111.065051 C364.034376,108.864796 364.521968,107.52551 364.521968,106.855867 C364.521968,105.994898 365.107079,105.516582 366.277301,105.612245 C367.447523,105.707908 368.715263,106.090561 370.080522,106.855867 C371.445781,107.621173 372.713521,108.577806 373.883743,109.725765 C375.053964,110.873724 375.639075,112.117347 375.639075,113.360969 C375.639075,113.743622 375.541557,114.317602 375.249001,115.082908 C374.956446,115.848214 374.566372,116.804847 374.07878,117.857143 C373.591187,118.909439 373.103595,120.057398 372.518484,121.30102 L372.079651,122.21879 L372.079651,122.21879 L371.201984,124.018455 C371.055707,124.320392 370.909429,124.625319 370.763151,124.936224 C369.885485,126.84949 368.812782,128.954082 367.740078,131.154337 C366.667375,133.354592 365.69219,135.459184 364.814524,137.563776 C363.936857,139.572704 363.156709,141.485969 362.571599,143.207908 C361.986488,144.929847 361.693932,146.269133 361.693932,147.225765 C361.693932,147.704082 361.791451,147.991071 361.986488,147.991071 C363.254228,147.991071 364.717005,147.321429 366.277301,145.982143 C367.837597,144.642857 369.495411,142.920918 371.250744,140.91199 C372.908558,138.903061 374.663891,136.607143 376.321705,134.119898 C377.979519,131.632653 379.539815,129.241071 381.002592,126.84949 C382.465369,124.457908 383.635591,122.353316 384.708294,120.440051 C385.878516,118.526786 386.658664,117.1875 387.146256,116.135204 C387.219919,115.990681 387.335314,115.873451 387.481933,115.783512 L387.482061,115.785426 L389.471463,111.582231 C389.870679,110.736209 390.266848,109.893176 390.656922,109.056122 L392.509773,105.229592 C389.974293,104.846939 387.731367,104.368622 385.683479,103.69898 C383.73311,103.125 381.977777,102.455357 380.612518,101.881378 C379.247259,101.211735 378.174556,100.637755 377.491927,100.063776 C377.206557,99.8238267 376.972315,99.6005962 376.796325,99.3940838 C375.557167,99.7567224 374.1225,99.9681122 372.616002,99.9681122 C371.543299,99.9681122 370.763151,99.5854592 370.275559,98.8201531 C369.787966,98.0548469 369.495411,97.0982143 369.495411,95.8545918 C369.495411,94.8022959 369.690448,93.5586735 370.080522,92.1237245 C370.470596,90.6887755 371.055707,89.4451531 371.640818,88.2015306 C372.323447,86.9579082 373.103595,85.9056122 373.883743,85.0446429 C374.761409,84.1836735 375.541557,83.8010204 376.419223,83.8010204 C377.491927,83.8010204 378.56463,83.9923469 379.539815,84.2793367 C380.515,84.5663265 381.490184,85.0446429 382.270332,85.6186224 C383.05048,86.192602 383.635591,86.9579082 384.123183,87.8188776 C384.610776,88.6798469 384.805813,89.7321429 384.805813,90.880102 C384.805813,91.932398 384.513257,92.9846939 383.928147,94.0369898 C383.406954,94.9743319 382.653632,95.9116741 381.737106,96.7137915 C382.086218,96.7774753 382.459677,96.8421815 382.855443,96.9068878 C384.220702,97.1938776 385.878516,97.4808673 388.023923,97.8635204 C390.071811,98.2461735 392.607292,98.5331633 395.435328,98.8201531 C397.483216,94.4196429 399.238548,90.497449 400.603807,87.0535714 C401.969066,83.6096939 402.651695,81.2181122 402.651695,79.7831633 C402.651695,78.9221939 403.236806,78.4438776 404.407028,78.6352041 Z" id="it" fill="#FFFFFF" fill-rule="nonzero"></path>
        <path d="M205.079247,92.315051 C205.664358,92.315051 206.542024,92.4107143 207.517209,92.5063776 C208.492394,92.6020408 209.467579,92.8890306 210.442764,93.2716837 C211.417949,93.6543367 212.198096,94.2283163 212.783207,94.9936224 C213.465837,95.7589286 213.758392,96.7155612 213.758392,97.9591837 C213.758392,99.0114796 213.465837,99.9681122 212.783207,100.733418 C212.198096,101.594388 211.417949,102.359694 210.540282,103.220663 C209.565097,104.177296 208.589912,105.229592 207.614728,106.473214 C206.639543,107.716837 206.15195,109.343112 206.15195,111.160714 C206.15195,113.265306 206.542024,115.178571 207.322172,116.90051 C208.10232,118.622449 208.882468,120.344388 209.760134,122.066327 L209.760134,121.970663 C210.832838,123.788265 211.710504,125.605867 212.490652,127.519133 C213.2708,129.432398 213.660874,131.632653 213.660874,134.119898 L213.660874,137.372449 L213.660874,137.372449 C215.416206,135.459184 216.976502,133.450255 218.439279,131.345663 L218.683034,130.988818 C218.840959,130.34814 219.020137,129.701408 219.219427,129.049745 C220.097094,126.179847 221.364834,123.405612 222.92513,120.631378 C224.485425,117.857143 226.435795,115.274235 228.581202,112.78699 C230.726608,110.299745 233.067052,108.09949 235.602533,106.281888 C238.138013,104.464286 240.771012,102.933673 243.50153,101.881378 C246.232047,100.829082 248.962565,100.255102 251.693082,100.255102 C254.033526,100.255102 256.081414,100.542092 257.739228,101.211735 C259.397043,101.881378 260.762301,102.646684 261.835005,103.69898 C262.907708,104.751276 263.687856,105.803571 264.272967,107.047194 C264.858078,108.290816 265.248152,109.438776 265.443189,110.586735 C265.638226,111.734694 265.735744,112.78699 265.638226,113.647959 C265.540707,114.604592 265.443189,115.178571 265.248152,115.561224 L265.34567,115.561224 C265.150633,116.039541 264.760559,116.326531 264.175448,116.230867 C263.590337,116.230867 263.005226,116.039541 262.420116,115.848214 C261.835005,115.656888 261.347412,115.369898 260.85982,114.987245 C260.372227,114.604592 260.17719,114.413265 260.274709,114.221939 C260.372227,114.126276 260.372227,113.743622 260.274709,113.169643 C260.274709,112.595663 260.079672,112.021684 259.689598,111.447704 C259.299524,110.873724 258.811932,110.395408 258.031784,109.917092 C257.251636,109.438776 256.178933,109.247449 254.716155,109.247449 C253.253378,109.247449 251.595564,109.917092 249.93775,111.160714 C248.182417,112.404337 246.524603,114.126276 244.866788,116.135204 C243.208974,118.144133 241.55116,120.535714 239.990864,123.118622 C238.430569,125.701531 237.06531,128.380102 235.895088,130.96301 C234.724866,133.641582 233.8472,136.22449 233.067052,138.616071 C232.384423,141.103316 231.994349,143.207908 231.994349,145.02551 C231.994349,147.225765 232.676978,148.278061 233.944718,148.278061 C235.505014,148.278061 237.06531,147.608418 238.723124,146.269133 C240.380938,144.929847 241.941234,143.207908 243.404011,141.103316 C244.964307,138.998724 246.329566,136.702806 247.694825,134.215561 C248.962565,131.728316 250.132787,129.336735 251.107971,127.040816 C252.083156,124.744898 252.863304,122.831633 253.448415,121.109694 C254.033526,119.387755 254.326081,118.239796 254.326081,117.76148 C254.326081,117.283163 254.618637,116.90051 255.301266,116.709184 C255.886377,116.61352 256.666525,116.61352 257.64171,116.90051 C258.616895,117.1875 259.59208,117.47449 260.664783,117.952806 C261.737486,118.431122 262.81019,118.909439 263.687856,119.483418 C264.663041,120.057398 265.34567,120.631378 266.028299,121.30102 C266.61341,121.970663 267.003484,122.544643 267.003484,123.022959 C267.003484,123.692602 266.710929,124.840561 266.028299,126.27551 C265.34567,127.806122 264.565522,129.528061 263.785374,131.53699 C263.200263,132.876276 262.517634,134.311224 261.835005,135.746173 C261.152375,137.181122 260.567264,138.616071 260.079672,140.05102 C259.59208,141.485969 259.104487,142.729592 258.811932,143.973214 C258.421858,145.216837 258.324339,146.173469 258.324339,147.034439 C258.324339,147.321429 258.324339,147.512755 258.226821,147.512755 C259.104487,147.512755 260.17719,146.843112 261.542449,145.3125 C262.907708,143.877551 264.370485,142.059949 265.833263,139.859694 C267.393558,137.659439 268.953854,135.172194 270.51415,132.493622 C272.074445,129.815051 273.634741,127.232143 275,124.649235 C276.087656,122.66773 277.113419,120.807655 278.027982,119.069011 L277.632999,119.866071 C277.971147,119.161178 278.327615,118.474256 278.686523,117.797517 C278.693234,117.785935 278.699472,117.773704 278.705702,117.76148 C279.518573,116.239158 280.163451,114.991499 280.640335,114.060129 C281.22034,112.912146 281.774076,111.790442 282.216368,110.778061 C282.801479,109.343112 283.289071,108.09949 283.679145,106.855867 C284.069219,105.612245 284.264256,104.559949 284.264256,103.69898 C284.264256,102.742347 284.946885,102.359694 286.312144,102.359694 C287.677403,102.359694 289.237699,102.742347 290.895513,103.41199 C292.553327,104.081633 294.113623,105.038265 295.478882,106.377551 C296.84414,107.716837 297.52677,109.247449 297.52677,111.065051 C297.52677,111.830357 297.331733,112.882653 296.84414,114.221939 C296.356548,115.561224 295.771437,116.996173 294.991289,118.622449 C294.211141,120.248724 293.333475,122.066327 292.35829,123.979592 C291.383105,125.892857 290.310402,127.901786 289.237699,129.910714 C287.969958,132.302296 286.799737,134.598214 285.531996,136.894133 C284.361774,139.190051 283.289071,141.294643 282.313886,143.112245 C282.035262,143.63156 281.78052,144.127447 281.545111,144.595444 L281.205928,145.275964 C280.771502,146.153946 280.40531,146.911443 280.070961,147.512755 C279.583369,148.660714 279.388332,149.234694 279.583369,149.234694 C279.973443,149.234694 280.851109,148.660714 282.021331,147.417092 C283.191553,146.269133 284.556811,144.642857 286.214626,142.825255 C287.774921,140.91199 289.530254,138.807398 291.383105,136.415816 L292.757506,134.62213 L292.757506,134.62213 L295.469739,131.034758 C295.92381,130.436862 296.380928,129.838967 296.84414,129.241071 C298.599473,126.84949 300.257287,124.553571 301.817583,122.44898 C303.377879,120.344388 304.645619,118.526786 305.620804,116.996173 C306.888544,113.743622 307.863729,111.160714 308.643877,109.247449 C309.424025,107.334184 309.814099,106.186224 309.814099,105.994898 C309.814099,104.081633 310.204173,102.742347 310.886802,101.881378 C311.569431,101.020408 312.544616,100.637755 313.812357,100.637755 C314.690023,100.637755 315.665208,101.020408 316.737911,101.690051 C317.810614,102.359694 318.883318,103.220663 319.858503,104.272959 C320.833687,105.325255 321.613835,106.473214 322.296465,107.716837 C322.979094,108.960459 323.27165,110.108418 323.27165,111.256378 C323.27165,111.92602 323.076613,113.07398 322.58902,114.604592 C322.101428,116.230867 321.516317,118.144133 320.63865,120.344388 C319.858503,122.544643 318.883318,125.031888 317.810614,127.806122 C316.737911,130.484694 315.567689,133.258929 314.299949,136.128827 C318.980836,132.397959 322.979094,128.762755 326.489759,125.223214 C329.707869,121.30102 332.438387,117.570153 334.486275,113.647959 C335.071386,112.595663 335.851534,111.830357 336.7292,111.447704 C337.606867,111.065051 338.387015,111.065051 339.069644,111.352041 C339.752273,111.639031 340.239866,112.117347 340.532421,112.978316 C340.824977,113.839286 340.727458,114.795918 340.239866,115.943878 C339.167162,118.431122 337.509348,121.014031 335.363942,123.692602 C333.218535,126.371173 330.780573,129.145408 327.952537,131.82398 C325.124501,134.598214 322.101428,137.276786 318.785799,140.05102 C315.470171,142.825255 312.057024,145.503827 308.44884,148.278061 C305.718322,153.730867 302.792768,159.183673 299.574658,164.63648 C296.454066,170.089286 293.235956,174.872449 290.115365,179.177296 C286.994774,183.482143 283.776664,186.92602 280.753591,189.604592 C277.632999,192.283163 274.804963,193.622449 272.171964,193.622449 C269.343928,193.622449 267.003484,193.239796 265.150633,192.570153 C263.297782,191.90051 261.835005,191.039541 260.664783,189.987245 C259.59208,188.934949 258.811932,187.78699 258.421858,186.639031 C258.031784,185.491071 257.739228,184.438776 257.739228,183.482143 C257.739228,181.664541 258.519376,179.751276 260.079672,177.742347 C261.639968,175.637755 263.785374,173.4375 266.61341,171.141582 C269.343928,168.75 272.562038,166.262755 276.072703,163.679847 C279.680887,161.096939 283.484108,158.322704 287.482366,155.548469 C288.262514,154.11352 288.847625,153.061224 289.335217,152.295918 C289.82281,151.530612 290.212883,150.956633 290.40792,150.478316 C290.700476,150 290.895513,149.617347 291.09055,149.330357 C291.285587,148.947704 291.480624,148.565051 291.773179,148.182398 C292.065735,147.704082 292.35829,147.130102 292.650846,146.269133 C293.04092,145.503827 293.430993,144.355867 294.113623,143.016582 C292.650846,144.73852 291.285587,146.364796 289.82281,147.799745 C288.457551,149.330357 287.092292,150.57398 285.824552,151.721939 C284.556811,152.869898 283.38659,153.730867 282.313886,154.40051 C281.241183,155.070153 280.265998,155.452806 279.583369,155.452806 C278.120591,155.452806 276.755333,154.97449 275.487592,154.11352 C274.219852,153.252551 273.04963,152.104592 272.074445,150.860969 C271.099261,149.617347 270.319113,148.182398 269.734002,146.747449 C269.49527,146.161973 269.30524,145.592422 269.163914,145.045294 C268.831664,145.491697 268.501309,145.930946 268.173706,146.364796 C266.125818,148.852041 264.175448,150.956633 262.225079,152.582908 C260.274709,154.209184 258.519376,154.97449 256.861562,154.97449 C255.008711,154.97449 253.448415,154.496173 252.180675,153.635204 C250.815416,152.774235 249.742713,151.817602 248.767528,150.765306 C247.694825,149.521684 246.71964,148.086735 245.939492,146.460459 C245.159344,147.321429 244.281678,148.278061 243.306493,149.234694 C242.331308,150.191327 241.258605,151.147959 240.088383,152.008929 C238.918161,152.869898 237.747939,153.539541 236.480199,154.209184 C235.212459,154.783163 233.944718,155.070153 232.676978,155.070153 C230.239016,155.070153 228.093609,154.496173 226.240758,153.443878 C224.387907,152.391582 222.827611,150.956633 221.657389,149.234694 C220.389649,147.512755 219.414464,145.59949 218.829353,143.399235 C218.483607,142.478635 218.237928,141.484413 218.079646,140.441427 C217.19002,141.445289 216.269176,142.429532 215.318688,143.399235 C212.783207,145.88648 210.150208,148.086735 207.322172,150 C204.494136,151.913265 201.373545,153.443878 198.155435,154.40051 C196.010028,154.878827 194.059658,155.165816 192.304326,155.165816 L191.719215,155.165816 C188.696142,155.165816 186.453217,154.496173 184.795402,153.061224 C183.137588,151.626276 182.064885,150.095663 181.479774,148.373724 C180.894663,146.651786 180.602108,145.121173 180.797145,143.686224 C180.992182,142.251276 181.284737,141.581633 181.772329,141.581633 C182.747514,141.581633 183.430144,141.868622 183.820218,142.442602 C184.210291,143.016582 184.502847,143.686224 184.795402,144.451531 C184.892921,144.834184 185.087958,145.216837 185.282995,145.503827 C185.478032,145.88648 185.673069,146.269133 186.063143,146.556122 C186.355698,146.938776 186.745772,147.130102 187.233364,147.417092 C187.720957,147.608418 188.403586,147.704082 189.183734,147.704082 C190.158919,147.704082 191.231622,147.321429 192.401844,146.651786 C193.474547,145.982143 194.547251,145.02551 195.522436,143.781888 C196.49762,142.538265 197.277768,141.103316 197.862879,139.477041 C198.44799,137.850765 198.838064,136.033163 198.838064,134.119898 C198.838064,132.302296 198.44799,130.67602 197.765361,129.145408 C196.985213,127.614796 196.205065,126.084184 195.327399,124.457908 L195.424917,124.553571 L193.767103,121.58801 C193.474547,122.257653 193.084474,123.022959 192.6944,123.788265 C192.304326,124.649235 191.621696,125.701531 190.74403,127.13648 C190.451474,127.614796 190.061401,127.806122 189.378771,127.710459 C188.696142,127.614796 188.013512,127.423469 187.330883,127.040816 C186.648254,126.658163 186.160661,126.27551 185.673069,125.797194 C185.282995,125.318878 185.185476,124.840561 185.380513,124.457908 C186.160661,123.118622 186.745772,121.970663 187.330883,121.014031 C187.915994,120.057398 188.403586,119.196429 188.696142,118.431122 C189.086216,117.665816 189.378771,116.996173 189.671327,116.422194 C189.963882,115.848214 190.158919,115.274235 190.451474,114.700255 L190.353956,114.795918 L191.134104,113.265306 C190.939067,112.21301 190.841548,111.160714 190.841548,110.299745 C190.841548,107.621173 191.329141,105.133929 192.401844,102.933673 C193.474547,100.733418 194.644769,98.8201531 196.205065,97.1938776 C197.667842,95.567602 199.228138,94.4196429 200.885952,93.5586735 C202.543766,92.6977041 203.909025,92.315051 205.079247,92.315051 Z M285.824552,162.627551 C282.508923,165.114796 279.388332,167.410714 276.560296,169.610969 C273.634741,171.811224 271.099261,173.820153 268.953854,175.733418 C266.808447,177.55102 265.150633,179.272959 263.882893,180.803571 C262.615153,182.334184 262.030042,183.577806 262.030042,184.630102 C262.030042,185.586735 262.517634,186.065051 263.492819,186.065051 C265.150633,186.065051 266.905966,185.395408 268.758817,184.151786 C270.611668,182.908163 272.464519,181.186224 274.414889,179.081633 C276.365259,176.977041 278.315628,174.489796 280.16848,171.619898 C282.118849,168.75 283.971701,165.784439 285.824552,162.627551 Z" id="say" fill="#FFFFFF" fill-rule="nonzero"></path>
        <path d="M142.082306,0 C143.447565,0 144.715306,0.286989796 145.983046,0.956632653 C147.250786,1.53061224 148.323489,2.39158163 149.201156,3.44387755 C150.078822,4.49617347 150.85897,5.73979592 151.346562,7.1747449 C151.834155,8.60969388 152.12671,10.1403061 152.12671,11.6709184 C152.12671,12.9145408 151.541599,14.7321429 150.273859,17.0280612 C149.006119,19.3239796 147.543342,22.0982143 145.69049,25.3507653 C143.935158,28.4119898 141.984788,31.9515306 139.839381,35.7780612 C137.791493,39.6045918 135.841123,43.7181122 133.988272,48.0229592 C132.23294,52.3278061 130.672644,56.8239796 129.502422,61.5114796 C128.3322,66.1989796 127.649571,70.8864796 127.649571,75.6696429 C127.649571,77.7742347 127.844608,79.6875 128.137163,81.6007653 C128.429719,83.5140306 128.819793,85.1403061 129.307385,86.5752551 C130.575125,86.0969388 132.330458,84.6619898 134.670902,82.3660714 C137.011345,80.0701531 139.644344,77.1045918 142.667417,73.565051 C145.69049,70.0255102 148.811082,66.1033163 152.224229,61.7028061 C155.637376,57.3022959 159.050523,52.8061224 162.46367,48.2142857 C165.876817,43.622449 169.094926,39.0306122 172.215518,34.5344388 C175.336109,30.0382653 178.066627,25.9247449 180.407071,22.1938776 C182.747514,18.4630102 184.697884,15.3061224 186.063143,12.627551 C187.52592,9.94897959 188.208549,8.13137755 188.208549,7.27040816 L188.208549,5.26147959 L188.208549,5.26147959 C188.208549,4.59183673 188.403586,4.11352041 188.696142,3.63520408 C188.988697,3.15688776 189.378771,2.77423469 190.061401,2.58290816 C190.646511,2.29591837 191.621696,2.2002551 192.791918,2.2002551 C193.864621,2.2002551 195.034843,2.4872449 196.107547,3.06122449 C197.18025,3.63520408 198.155435,4.49617347 199.033101,5.64413265 C199.910767,6.79209184 200.593397,8.32270408 201.080989,10.1403061 C201.471063,11.9579082 201.763619,14.1581633 201.763619,16.7410714 C201.763619,17.9846939 201.373545,19.5153061 200.690915,21.3329082 C200.008286,23.0548469 198.935583,25.0637755 197.667842,27.3596939 C196.400102,29.559949 194.937325,32.0471939 193.181992,34.630102 C191.426659,37.2130102 189.671327,39.9872449 187.623438,42.9528061 C184.210291,48.0229592 180.602108,53.4757653 176.798887,59.4068878 C172.995666,65.3380102 169.485,71.4604592 166.26689,77.7742347 C163.04878,84.0880102 160.415781,90.497449 158.367893,97.002551 C156.320005,103.507653 152.321747,125.127551 152.321747,131.345663 C152.321747,134.119898 152.516784,136.320153 153.004377,138.233418 C153.491969,140.05102 153.882043,141.485969 154.369635,142.538265 C154.759709,143.590561 155.149783,144.547194 155.34482,145.3125 C155.539857,146.077806 155.539857,146.651786 155.34482,147.034439 C155.149783,147.417092 154.759709,147.799745 154.07708,147.991071 C153.394451,148.182398 152.321747,148.278061 150.956488,148.278061 C149.298674,148.278061 147.64086,147.991071 145.885527,147.417092 C144.130195,146.843112 142.47238,145.790816 141.009603,144.355867 C139.546826,142.920918 138.279086,141.007653 137.303901,138.520408 C136.328716,136.128827 135.841123,132.971939 135.841123,129.336735 C135.841123,126.371173 136.133679,123.405612 136.621271,120.344388 C137.108864,117.378827 138.084049,107.908163 141.789751,95.8545918 C142.764936,92.6977041 144.032676,89.3494898 145.495453,85.9056122 C146.958231,82.4617347 148.713563,78.8265306 150.663933,75 L149.59123,76.5306122 C147.64086,79.3048469 145.788009,81.8877551 144.032676,84.2793367 C142.277343,86.6709184 140.424492,88.7755102 138.66916,90.5931122 C136.913827,92.4107143 135.060976,93.8456633 133.305643,94.8979592 C131.55031,95.9502551 129.697459,96.5242347 127.844608,96.5242347 L126.771904,96.5242347 C124.138905,96.5242347 121.798462,95.8545918 119.848092,94.4196429 C117.897722,92.9846939 116.337427,91.2627551 115.167205,89.0625 C113.996983,86.8622449 113.119317,84.4706633 112.534206,81.8877551 C111.949095,79.2091837 111.656539,76.6262755 111.656539,74.1390306 C111.656539,69.0688776 112.339169,63.9987245 113.704428,58.9285714 C115.069686,53.8584184 116.727501,48.9795918 118.67787,44.1964286 C120.62824,39.5089286 122.773647,35.0127551 125.11409,30.8035714 C127.454534,26.5943878 129.502422,22.7678571 131.55031,19.4196429 C133.305643,16.2627551 134.865939,13.4885204 136.133679,11.2882653 C137.401419,8.99234694 138.084049,7.27040816 138.084049,6.21811224 L138.084049,3.15688776 L138.084049,3.15688776 C138.084049,2.4872449 138.279086,1.91326531 138.474123,1.43494898 C138.66916,0.956632653 139.059233,0.573979592 139.644344,0.382653061 C140.229455,0.0956632653 141.009603,0 142.082306,0 Z M210.540282,35.682398 C223.997833,35.682398 235.017422,46.3966837 234.919903,59.6938776 C234.919903,72.8954082 223.997833,83.7053571 210.540282,83.7053571 C197.082731,83.7053571 186.160661,72.8954082 186.160661,59.6938776 C186.160661,46.4923469 197.082731,35.682398 210.540282,35.682398 Z M254.033526,40.0829082 C255.398785,40.6568878 256.666525,41.5178571 257.836747,42.6658163 C259.006969,43.8137755 259.494561,45.057398 259.494561,46.5880102 C259.494561,47.1619898 259.299524,48.0229592 258.90945,49.0752551 C258.519376,50.127551 258.031784,51.3711735 257.446673,52.7104592 C256.861562,54.0497449 256.081414,55.5803571 255.301266,57.1109694 C254.521118,58.6415816 253.643452,60.2678571 252.765786,61.9897959 C251.693082,63.9987245 250.717898,65.9119898 249.645194,67.8252551 C248.572491,69.7385204 247.694825,71.4604592 246.914677,72.9910714 C246.134529,74.5216837 245.549418,75.7653061 245.159344,76.6262755 C244.76927,77.5829082 244.574233,78.0612245 244.76927,78.0612245 C245.061825,78.0612245 245.646936,77.6785714 246.524603,76.817602 C247.402269,75.9566327 248.377454,74.9043367 249.450157,73.565051 C250.620379,72.2257653 251.790601,70.6951531 253.15586,68.9732143 C254.521118,67.2512755 255.886377,65.4336735 257.251636,63.6160714 C260.469746,59.4068878 263.980411,54.5280612 267.783632,49.1709184 C268.758817,47.0663265 269.636483,45.2487245 270.319113,43.622449 C271.001742,42.0918367 271.391816,41.0395408 271.391816,40.5612245 C271.391816,39.7959184 271.879409,39.4132653 272.952112,39.5089286 C274.024815,39.6045918 275.097518,39.9872449 276.365259,40.5612245 C277.632999,41.2308673 278.705702,42.0918367 279.778406,43.1441327 C280.851109,44.1964286 281.338701,45.2487245 281.338701,46.3010204 C281.338701,46.9706633 280.948628,48.309949 280.070961,50.127551 C279.193295,51.9451531 278.21811,54.1454082 277.047888,56.5369898 C276.170222,58.2589286 275.292555,60.1721939 274.317371,62.0854592 C273.439704,63.9987245 272.562038,65.9119898 271.78189,67.7295918 C271.001742,69.5471939 270.319113,71.1734694 269.83152,72.7040816 C269.343928,74.2346939 269.051372,75.4783163 269.051372,76.3392857 C269.051372,76.7219388 269.148891,76.9132653 269.246409,76.9132653 C270.124076,76.9132653 271.099261,76.434949 272.171964,75.3826531 C273.244667,74.3303571 274.317371,73.0867347 275.487592,71.4604592 C276.657814,69.8341837 277.828036,68.1122449 278.998258,66.1033163 C280.16848,64.0943878 281.241183,62.1811224 282.313886,60.1721939 C283.38659,58.1632653 284.264256,56.3456633 285.141922,54.6237245 C286.019589,52.9017857 286.702218,51.4668367 287.287329,50.3188776 L287.969958,48.8839286 C288.457551,48.0229592 289.14018,47.3533163 289.82281,47.0663265 C290.505439,46.7793367 291.188068,46.7793367 291.675661,46.9706633 C292.260772,47.1619898 292.650846,47.6403061 292.845883,48.309949 C293.138438,48.9795918 293.04092,49.744898 292.650846,50.7015306 L291.968216,52.2321429 C291.285587,53.5714286 290.505439,55.2933673 289.432736,57.3022959 C288.457551,59.3112245 287.287329,61.5114796 286.019589,63.807398 C284.751848,66.1033163 283.38659,68.3992347 281.826294,70.6951531 C280.363517,72.9910714 278.803221,75.0956633 277.242925,76.9132653 C275.682629,78.7308673 274.024815,80.2614796 272.367001,81.4094388 C270.709187,82.557398 269.051372,83.1313776 267.393558,83.1313776 C266.320855,83.1313776 265.248152,82.8443878 264.272967,82.1747449 C263.200263,81.505102 262.322597,80.6441327 261.542449,79.5918367 C260.762301,78.5395408 260.079672,77.4872449 259.59208,76.2436224 C259.104487,75.0956633 258.811932,73.9477041 258.811932,72.8954082 C258.811932,72.0344388 259.006969,70.9821429 259.299524,69.6428571 C257.934265,71.3647959 256.569007,73.0867347 255.203748,74.7130102 C253.838489,76.3392857 252.570749,77.7742347 251.303008,79.0178571 C250.035268,80.2614796 248.865046,81.3137755 247.792343,81.9834184 C246.71964,82.7487245 245.744455,83.0357143 244.964307,83.0357143 C243.794085,83.0357143 242.623863,82.6530612 241.55116,81.9834184 C240.478457,81.2181122 239.503272,80.3571429 238.723124,79.3048469 C237.942976,78.252551 237.260347,77.1045918 236.772754,75.8609694 C236.285162,74.6173469 235.992606,73.565051 235.992606,72.6084184 C235.992606,71.2691327 236.187643,69.8341837 236.577717,68.3035714 C236.967791,66.7729592 237.552902,65.2423469 238.235532,63.6160714 C238.918161,61.9897959 239.698309,60.3635204 240.478457,58.7372449 C241.258605,57.1109694 242.136271,55.4846939 243.013937,53.8584184 C243.696567,52.5191327 244.476715,51.2755102 245.061825,49.9362245 C245.744455,48.692602 246.329566,47.4489796 246.817158,46.3010204 C247.304751,45.1530612 247.694825,44.1007653 248.084898,43.0484694 C248.377454,42.0918367 248.572491,41.2308673 248.572491,40.4655612 C248.572491,39.7002551 249.157602,39.2219388 250.230305,39.2219388 C251.400527,39.1262755 252.668267,39.4132653 254.033526,40.0829082 Z M210.540282,45.8227041 C202.738803,45.8227041 196.400102,52.0408163 196.400102,59.6938776 C196.400102,67.3469388 202.738803,73.565051 210.540282,73.565051 C218.341761,73.565051 224.680462,67.3469388 224.680462,59.6938776 C224.680462,52.0408163 218.341761,45.8227041 210.540282,45.8227041 Z M219.511983,50.7971939 C220.877241,52.1364796 220.877241,54.432398 219.511983,55.7716837 C218.146724,57.1109694 215.80628,57.1109694 214.441022,55.7716837 C213.075763,54.432398 213.075763,52.1364796 214.441022,50.7971939 C215.903799,49.3622449 218.146724,49.3622449 219.511983,50.7971939 Z M233.944718,36.7346939 C235.309977,38.0739796 235.309977,40.369898 233.944718,41.7091837 C232.57946,43.0484694 230.239016,43.0484694 228.873757,41.7091837 C227.508498,40.369898 227.508498,38.0739796 228.873757,36.7346939 C230.239016,35.2997449 232.481941,35.2997449 233.944718,36.7346939 Z" id="you" fill="#FFFFFF" fill-rule="nonzero"></path>
    </g>
</svg>