<?xml version="1.0" encoding="UTF-8"?>
<svg width="550px" height="300px" viewBox="0 0 550 300" version="1.1" xmlns="http://www.w3.org/2000/svg" xmlns:xlink="http://www.w3.org/1999/xlink">
    <title>5</title>
    <g id="5" stroke="none" stroke-width="1" fill="none" fill-rule="evenodd">
        <path d="M408.625678,216.502551 L408.625678,226.611607 L418.07912,226.611607 L418.07912,235.049745 L408.710844,235.049745 L408.710844,246.41199 C408.710844,247.330995 408.79601,248.166454 408.881176,249.001913 C408.966342,249.753827 409.221841,250.422194 409.562505,251.007015 C409.90317,251.591837 410.414167,252.009566 411.095496,252.34375 C411.776825,252.677934 412.713653,252.76148 413.820812,252.76148 C414.416975,252.76148 415.183471,252.677934 416.035132,252.594388 C416.97196,252.510842 417.653289,252.176658 418.164286,251.758929 L418.164286,260.53125 C416.97196,260.94898 415.694468,261.199617 414.416975,261.366709 C413.139483,261.533801 411.861991,261.617347 410.584499,261.617347 C408.79601,261.617347 407.092687,261.450255 405.559697,261.032526 C404.026706,260.698342 402.664048,260.029974 401.556888,259.278061 C400.449728,258.442602 399.5129,257.356505 398.831571,256.103316 C398.150242,254.766582 397.894744,253.179209 397.894744,251.341199 L397.894744,235.133291 L390.996286,235.133291 L390.996286,226.695153 L397.894744,226.695153 L397.894744,216.502551 L408.625678,216.502551 Z M386.737979,226.611607 L386.737979,260.781888 L376.007045,260.781888 L376.007045,226.611607 L386.737979,226.611607 Z M381.372512,209.818878 C383.075835,209.818878 384.523659,210.403699 385.801152,211.573342 C386.993478,212.742985 387.589641,214.246811 387.589641,215.91773 C387.589641,217.588648 386.993478,219.008929 385.801152,220.262117 C384.608826,221.43176 383.075835,222.016582 381.372512,222.016582 C379.669189,222.016582 378.221365,221.43176 376.943873,220.262117 C375.751547,219.008929 375.155384,217.588648 375.155384,215.91773 C375.155384,214.246811 375.751547,212.826531 376.943873,211.573342 C378.136199,210.403699 379.669189,209.818878 381.372512,209.818878 Z" id="it" fill="#FFFFFF" fill-rule="nonzero"></path>
        <path d="M216.746358,167.962372 C220.664001,167.962372 224.070647,168.63074 226.966296,169.883929 C229.861944,171.137117 232.16143,172.891582 234.035085,175.230867 C235.908741,177.486607 237.271399,180.243622 238.12306,183.418367 C238.974722,186.593112 239.400552,190.102041 239.400552,193.861607 C239.400552,199.375638 238.548891,205.307398 236.760402,211.740434 C234.971913,218.173469 232.587261,224.606505 229.436114,231.039541 C226.284966,237.472577 222.537656,243.73852 218.194183,249.753827 C213.85071,255.769133 209.081406,261.032526 203.801105,265.711097 C198.60597,270.306122 193.070171,274.065689 187.193707,276.822704 C181.317243,279.579719 175.355613,281 169.223651,281 C165.476341,281 162.240027,280.498724 159.599877,279.496173 C156.959726,278.493622 154.745407,277.073342 153.042084,275.235332 C151.338761,273.397321 150.146435,271.225128 149.37994,268.71875 C148.613444,266.212372 148.187614,263.371811 148.187614,260.364158 C148.187614,255.852679 149.039275,250.839923 150.742598,245.492985 C152.445921,240.0625 154.660241,234.632015 157.555889,229.201531 C160.366372,223.771046 163.687852,218.424107 167.435162,213.327806 C171.182472,208.231505 175.100115,203.720026 179.273256,199.709821 C183.446397,195.783163 187.619538,192.608418 191.963011,190.185587 C196.306484,187.762755 200.394459,186.593112 204.312102,186.593112 C205.845092,186.593112 207.20775,186.927296 208.485243,187.512117 C209.677569,188.180485 210.784728,188.932398 211.551224,189.851403 C212.402885,190.770408 212.999048,191.772959 213.424879,192.77551 C213.85071,193.861607 214.106208,194.780612 214.106208,195.616071 C214.106208,196.785714 213.85071,197.704719 213.254547,198.373087 C212.658384,199.041454 211.721556,199.375638 210.444064,199.375638 C209.933067,199.375638 209.592402,199.375638 209.42207,199.292092 C209.166572,199.292092 208.996239,199.208546 208.740741,199.125 C208.485243,199.125 208.229744,199.125 208.059412,199.041454 C207.803913,199.041454 207.633581,198.957908 207.463249,198.957908 C204.312102,198.957908 200.990622,200.127551 197.583976,202.383291 C194.177331,204.639031 190.770685,207.646684 187.364039,211.239158 C184.04256,214.915179 180.806246,219.092474 177.740265,223.771046 C174.674284,228.449617 172.034134,233.211735 169.734648,238.057398 C167.435162,242.903061 165.561507,247.581633 164.284015,252.260204 C162.921356,256.85523 162.240027,260.94898 162.240027,264.457908 C162.240027,267.382015 162.83619,269.637755 163.94335,271.392219 C165.05051,273.146684 166.924165,273.982143 169.564315,273.982143 C172.630297,273.982143 175.781444,273.146684 179.017757,271.475765 C182.254071,269.804847 185.490384,267.465561 188.726698,264.625 C191.963011,261.700893 195.114158,258.359056 198.180139,254.432398 C201.246121,250.50574 204.141769,246.328444 206.952252,241.816964 C209.762735,237.389031 212.232553,232.710459 214.617205,227.864796 C216.916691,223.019133 218.960678,218.257015 220.664001,213.578444 C222.367324,208.899872 223.644816,204.388393 224.66681,200.044005 C225.603637,195.699617 226.114634,191.772959 226.114634,188.180485 C226.114634,183.919643 225.262973,180.577806 223.644816,177.987883 C222.026659,175.397959 219.386509,174.14477 215.724365,174.14477 C210.614396,174.14477 205.419261,175.147321 200.053795,177.152423 C194.688328,179.157526 189.578359,181.747449 184.553557,185.00574 C179.528754,188.180485 174.844616,191.772959 170.415977,195.783163 C165.987337,199.793367 162.154861,203.720026 158.833381,207.73023 C155.511902,211.656888 152.871752,215.416454 150.998096,218.841837 C149.124441,222.350765 148.102448,225.191327 148.102448,227.36352 C148.102448,229.034439 148.187614,230.204082 148.357946,230.955995 C148.528278,231.707908 148.783777,232.376276 149.039275,232.877551 C149.124441,233.378827 149.294774,233.796556 149.465106,234.13074 C149.635438,234.464923 149.720604,234.966199 149.720604,235.634566 C149.720604,236.804209 149.294774,237.639668 148.528278,238.22449 C147.761783,238.809311 146.654623,239.059949 145.377131,239.059949 C144.184805,239.059949 142.736981,238.725765 141.20399,238.140944 C139.670999,237.556122 138.138009,236.637117 136.775351,235.383929 C135.412692,234.13074 134.220366,232.626913 133.283539,230.788903 C132.346711,228.950893 131.835714,226.862245 131.835714,224.355867 C131.835714,220.763393 132.942874,216.920281 135.072028,212.742985 C137.201181,208.565689 140.181996,204.388393 144.014473,200.211097 C147.846949,196.033801 152.360755,191.940051 157.641055,188.096939 C162.921356,184.170281 168.712654,180.744898 175.014949,177.737245 C181.317243,174.729592 188.045368,172.390306 195.114158,170.552296 C202.097782,168.797832 209.336904,167.962372 216.746358,167.962372 Z M342.025754,212.492347 C342.281253,212.492347 342.536751,212.575893 342.79225,212.659439 C343.558745,212.910077 344.32524,213.327806 345.262068,213.996173 C346.198895,214.664541 347.050557,215.416454 347.817052,216.251913 C348.583547,217.087372 349.264876,218.089923 349.775873,219.17602 C350.28687,220.262117 350.542368,221.264668 350.542368,222.350765 C350.542368,223.186224 350.031372,224.690051 349.009378,226.945791 C347.987384,229.117985 346.795058,231.707908 345.347234,234.632015 C344.32524,236.720663 343.21808,238.976403 342.11092,241.315689 C341.003761,243.654974 339.981767,245.910714 339.044939,247.999362 C338.108112,250.171556 337.341616,252.093112 336.745453,254.014668 C336.14929,255.852679 335.808626,257.356505 335.808626,258.442602 C335.808626,258.943878 335.893792,259.194515 335.978958,259.194515 C336.915786,259.194515 338.022946,258.526148 339.300438,257.272959 C340.57793,256.01977 342.025754,254.348852 343.473579,252.260204 C345.006569,250.171556 346.53956,247.915816 348.07255,245.409439 C349.605541,242.903061 351.053365,240.396684 352.416024,237.973852 C353.778682,235.467474 354.971008,233.211735 356.078168,231.039541 C357.185328,228.867347 357.951823,227.196429 358.547986,225.859694 L358.547986,225.107781 L358.718318,225.107781 C359.314481,224.021684 360.080976,223.353316 360.932638,223.019133 C361.784299,222.684949 362.550795,222.684949 363.232124,222.935587 C363.913453,223.186224 364.42445,223.771046 364.679948,224.522959 C365.020613,225.274872 364.85028,226.277423 364.339284,227.447066 C363.743121,228.616709 362.806293,230.454719 361.699133,232.794005 C360.506807,235.216837 359.144149,237.80676 357.611158,240.730867 C356.078168,243.654974 354.289679,246.579082 352.416024,249.586735 C350.542368,252.594388 348.498381,255.267857 346.454394,257.774235 C344.410406,260.280612 342.281253,262.285714 340.152099,263.873087 C338.022946,265.460459 335.978958,266.212372 334.020137,266.212372 C331.039322,266.212372 328.484338,265.126276 326.525516,262.870536 C324.566695,260.698342 323.544701,257.690689 323.544701,253.931122 C323.544701,252.677934 323.8002,251.090561 324.311197,249.252551 C324.822193,247.414541 325.503523,245.409439 326.355184,243.237245 C327.206845,241.065051 328.143673,238.809311 329.250833,236.470026 C330.357993,234.13074 331.379986,231.791454 332.40198,229.61926 C330.357993,231.958546 328.228839,234.464923 326.014519,237.138393 C323.8002,239.811862 321.671046,242.401786 319.627059,244.991709 C317.668237,247.581633 315.879748,250.004464 314.346758,252.260204 C312.813767,254.515944 311.706607,256.4375 310.940112,257.941327 C310.854946,258.27551 310.854946,258.526148 310.76978,258.776786 C310.76978,259.027423 310.684614,259.194515 310.684614,259.361607 L310.854946,260.11352 C310.940112,260.280612 310.940112,260.53125 310.940112,260.781888 C310.940112,261.032526 310.940112,261.199617 311.025278,261.450255 L311.024714,261.368372 L311.11005,261.735704 C311.250022,262.339091 311.380137,262.88446 311.451109,263.371811 C311.536275,263.956633 311.536275,264.541454 311.451109,264.959184 C311.365943,265.376913 311.025278,265.794643 310.514281,266.045281 C310.003285,266.295918 309.321955,266.46301 308.299962,266.46301 C307.107636,266.46301 305.91531,266.212372 304.722984,265.627551 C303.530658,265.04273 302.338332,264.20727 301.316338,263.204719 C300.294344,262.118622 299.442683,260.865434 298.761354,259.445153 C298.080025,258.024872 297.73936,256.353954 297.73936,254.515944 C297.73936,252.845026 297.994859,251.174107 298.505855,249.336097 C298.786962,248.324982 299.093842,247.288583 299.454852,246.24081 C298.458328,246.70969 297.468094,246.913265 296.547034,246.913265 C294.417881,246.913265 292.373893,246.161352 290.585404,244.741071 C289.733743,246.662628 288.626583,248.834821 287.263925,251.341199 C285.901266,253.764031 284.453442,256.103316 282.750119,258.27551 C281.131962,260.447704 279.428639,262.36926 277.554984,263.873087 C275.766495,265.376913 273.89284,266.128827 272.104351,266.128827 C270.486194,266.128827 268.953204,265.878189 267.505379,265.293367 C266.057555,264.708546 264.694897,264.040179 263.417405,263.204719 C262.139912,262.36926 261.032753,261.366709 260.010759,260.280612 C258.988765,259.194515 258.22227,258.024872 257.626107,256.771684 C255.837618,259.361607 253.963963,261.533801 252.005141,263.371811 C250.04632,265.209821 248.002333,266.128827 245.873179,266.128827 C243.65886,266.128827 241.614872,265.627551 239.656051,264.708546 C237.69723,263.705995 236.079073,262.536352 234.631248,261.032526 C233.183424,259.528699 232.076264,257.941327 231.224603,256.186862 C230.372941,254.432398 229.947111,252.845026 229.947111,251.257653 C229.947111,249.586735 230.202609,247.915816 230.62844,246.161352 C231.05427,244.406888 231.7356,242.568878 232.502095,240.814413 C233.26859,239.059949 234.120252,237.221939 235.057079,235.467474 C235.993907,233.629464 236.930734,231.875 237.867562,230.120536 C239.485719,227.196429 240.933543,224.355867 242.125869,221.765944 C243.403361,219.17602 243.999524,216.920281 243.999524,215.165816 C243.999524,214.163265 244.680853,213.66199 246.043512,213.66199 C247.40617,213.578444 248.93916,213.912628 250.557317,214.664541 C252.26064,215.416454 253.708464,216.419005 255.071123,217.75574 C256.433781,219.092474 257.11511,220.679847 257.11511,222.517857 C257.11511,223.6875 256.604113,225.441964 255.667286,227.697704 C254.645292,230.03699 253.452966,232.626913 252.090308,235.634566 L252.090308,235.55102 C251.15348,237.472577 250.216653,239.477679 249.279825,241.482781 C248.342997,243.487883 247.491336,245.492985 246.724841,247.414541 C245.958345,249.336097 245.362182,251.174107 244.851186,252.928571 C244.340189,254.683036 244.08469,256.103316 244.08469,257.440051 C244.08469,258.27551 244.255023,258.943878 244.595687,259.445153 C244.936352,259.946429 245.532515,260.197066 246.384176,260.197066 C247.065505,260.197066 247.832001,259.779337 248.768828,258.860332 C249.62049,257.941327 250.557317,256.85523 251.579311,255.434949 C252.601304,254.098214 253.538132,252.594388 254.47496,250.923469 C255.411787,249.252551 256.263449,247.665179 257.029944,246.077806 C258.051938,243.153699 259.32943,240.396684 260.777254,237.890306 L260.777254,237.973852 C261.799248,236.052296 262.736075,234.13074 263.672903,232.209184 C264.524564,230.287628 264.950395,228.366071 264.950395,226.444515 C264.950395,225.441964 265.631724,224.940689 266.994383,224.940689 C268.357041,224.857143 269.890031,225.191327 271.508188,225.94324 C273.126345,226.695153 274.659335,227.697704 276.021994,229.117985 C277.384652,230.538265 278.065981,232.125638 278.065981,233.880102 C278.065981,235.049745 277.64015,236.553571 276.873655,238.391582 C276.10716,240.229592 275.170332,242.151148 274.233505,244.239796 C273.637342,245.409439 273.126345,246.662628 272.530182,247.915816 C271.934019,249.169005 271.423022,250.338648 270.997191,251.508291 C270.571361,252.677934 270.14553,253.764031 269.804865,254.850128 C269.464201,255.936224 269.379035,256.85523 269.379035,257.607143 C269.379035,258.442602 269.634533,259.110969 270.060364,259.528699 C270.486194,259.946429 271.337856,260.197066 272.530182,260.197066 C273.211511,260.197066 273.978006,259.779337 274.829668,259.027423 C275.681329,258.27551 276.618157,257.189413 277.469818,255.936224 C278.406646,254.683036 279.258307,253.262755 280.195135,251.758929 C281.046796,250.255102 281.898458,248.66773 282.664953,247.163903 C283.431448,245.660077 284.112777,244.239796 284.70894,242.986607 C285.305103,241.649872 285.8161,240.647321 286.071599,239.895408 C285.730934,239.227041 285.475436,238.475128 285.305103,237.639668 C285.049605,236.804209 284.964439,236.052296 284.964439,235.383929 C284.964439,233.963648 285.305103,232.459821 285.901266,230.955995 C286.497429,229.452168 287.263925,227.948342 288.03042,226.360969 C288.882081,224.606505 289.733743,222.852041 290.500238,221.014031 C291.266733,219.17602 291.692564,217.33801 291.692564,215.416454 C291.692564,214.413903 292.373893,213.912628 293.736551,213.912628 C295.09921,213.829082 296.6322,214.163265 298.250357,214.915179 C299.95368,215.667092 301.401504,216.669643 302.764162,218.006378 C304.126821,219.343112 304.80815,220.930485 304.80815,222.768495 C304.80815,224.272321 304.297153,226.110332 303.360325,228.19898 C302.338332,230.287628 301.401504,232.376276 300.294344,234.381378 C299.783347,235.300383 299.357517,236.219388 298.84652,237.054847 C298.420689,237.890306 297.994859,238.725765 297.654194,239.394133 C297.313529,240.0625 297.058031,240.563776 296.887699,240.981505 C296.717366,241.399235 296.6322,241.566327 296.717366,241.566327 C297.313529,241.566327 297.909692,241.315689 298.591022,240.897959 C299.272351,240.48023 299.95368,239.811862 300.635009,239.059949 C301.316338,238.308036 302.082833,237.472577 302.764162,236.470026 C303.445492,235.467474 304.126821,234.548469 304.80815,233.462372 C306.511473,230.705357 308.044463,228.031888 309.577454,225.024235 C309.601264,224.985306 309.626553,224.947829 309.653459,224.911871 C310.068332,224.065667 310.468489,223.239909 310.854946,222.434311 C312.217604,219.59375 312.898933,217.254464 312.898933,215.416454 C312.898933,214.413903 313.580263,213.912628 314.942921,213.912628 C316.305579,213.829082 317.83857,214.163265 319.456726,214.915179 C321.160049,215.667092 322.607874,216.669643 323.970532,218.006378 C325.33319,219.343112 326.014519,220.930485 326.014519,222.768495 C326.014519,223.603954 325.759021,224.690051 325.33319,225.94324 C324.90736,227.196429 324.311197,228.616709 323.544701,230.204082 C325.418356,227.948342 327.377178,225.776148 329.250833,223.6875 C331.124488,221.598852 332.912977,219.677296 334.531134,218.006378 C336.14929,216.335459 337.597115,214.998724 338.789441,213.996173 C339.981767,212.993622 340.918594,212.492347 341.429591,212.492347 L342.025754,212.492347 L342.025754,212.492347 Z" id="own" fill="#FFFFFF" fill-rule="nonzero"></path>
        <path d="M312.217604,167.377551 L318.775397,183.919643 L318.860563,183.919643 L324.481529,167.377551 L332.572312,167.377551 L321.160049,196.535077 C320.649052,197.871811 320.138056,199.041454 319.627059,200.127551 C319.116062,201.130102 318.519899,202.049107 317.753404,202.717474 C316.986908,203.385842 316.050081,203.970663 314.857755,204.304847 C313.665429,204.639031 312.217604,204.806122 310.258783,204.806122 C308.214796,204.806122 306.255974,204.471939 304.382319,203.887117 L305.404313,197.537628 C306.596639,198.038903 307.788965,198.289541 309.066457,198.289541 C309.918118,198.289541 310.684614,198.205995 311.195611,198.038903 C311.791774,197.871811 312.217604,197.537628 312.558269,197.203444 C312.898933,196.86926 313.239598,196.367985 313.495096,195.866709 C313.750595,195.365434 314.006093,194.780612 314.261592,194.028699 L314.857755,192.608418 L303.70099,167.377551 L312.217604,167.377551 Z M348.839046,166.709184 C350.797867,166.709184 352.671522,167.043367 354.374845,167.628189 C356.078168,168.21301 357.611158,169.132015 358.88865,170.301658 C360.166143,171.471301 361.188136,172.808036 361.869465,174.478954 C362.635961,176.066327 362.976625,177.904337 362.976625,179.909439 C362.976625,181.914541 362.635961,183.669005 361.869465,185.339923 C361.10297,186.927296 360.166143,188.347577 358.88865,189.517219 C357.611158,190.686862 356.078168,191.522321 354.374845,192.190689 C352.671522,192.77551 350.797867,193.109694 348.839046,193.109694 C346.880224,193.109694 345.006569,192.77551 343.303246,192.190689 C341.599924,191.605867 340.066933,190.686862 338.789441,189.517219 C337.511949,188.347577 336.489955,187.010842 335.808626,185.339923 C335.042131,183.752551 334.701466,181.914541 334.701466,179.909439 C334.701466,177.904337 335.042131,176.149872 335.808626,174.478954 C336.575121,172.891582 337.511949,171.471301 338.789441,170.301658 C340.066933,169.132015 341.599924,168.296556 343.303246,167.628189 C345.006569,167.043367 346.880224,166.709184 348.839046,166.709184 Z M375.581214,167.294005 L375.581214,179.575255 C375.581214,180.327168 375.581214,181.079082 375.666381,181.830995 C375.751547,182.582908 375.836713,183.334821 376.177377,184.003189 C376.432876,184.671556 376.858707,185.172832 377.369703,185.590561 C377.8807,186.008291 378.732362,186.175383 379.669189,186.175383 C380.691183,186.175383 381.542844,186.008291 382.139007,185.674107 C382.73517,185.339923 383.246167,184.838648 383.586832,184.253827 C383.927496,183.669005 384.097829,183.000638 384.268161,182.248724 C384.353327,181.496811 384.438493,180.661352 384.438493,179.909439 L384.438493,167.461097 L392.358945,167.461097 L392.358945,192.441327 L384.693992,192.441327 L384.693992,189.015944 L384.608826,189.015944 C384.353327,189.517219 383.927496,190.018495 383.501666,190.436224 C383.075835,190.9375 382.564838,191.35523 381.883509,191.689413 C381.287346,192.107143 380.520851,192.357781 379.754355,192.608418 C378.98786,192.859056 378.051033,192.942602 377.114205,192.942602 C375.155384,192.942602 373.537227,192.608418 372.259735,192.023597 C370.982243,191.438776 370.045415,190.603316 369.364086,189.517219 C368.682757,188.431122 368.256926,187.177934 368.001428,185.757653 C367.745929,184.337372 367.660763,182.75 367.660763,181.079082 L367.660763,167.294005 L375.581214,167.294005 Z M348.839046,173.559949 C346.795058,173.559949 345.262068,174.14477 344.154908,175.314413 C343.132914,176.484056 342.536751,178.071429 342.536751,179.909439 C342.536751,181.830995 343.047748,183.334821 344.154908,184.504464 C345.262068,185.674107 346.795058,186.258929 348.839046,186.258929 C350.883033,186.258929 352.416024,185.674107 353.523183,184.504464 C354.630343,183.334821 355.14134,181.830995 355.14134,179.909439 C355.14134,177.987883 354.630343,176.484056 353.523183,175.314413 C352.416024,174.14477 350.883033,173.559949 348.839046,173.559949 Z" id="you" fill="#FFFFFF" fill-rule="nonzero"></path>
        <path d="M407.944349,147.820009 C408.625678,147.820009 409.392173,147.9871 410.243834,148.40483 C411.095496,148.739014 411.861991,149.240289 412.54332,149.825111 C413.224649,150.409932 413.820812,150.994753 414.331809,151.663121 C414.842806,152.331488 415.013138,152.91631 415.013138,153.417585 C415.013138,155.172049 414.416975,156.926514 413.309816,158.680978 C412.11749,160.435442 410.754831,161.939269 409.136675,163.276003 C407.518518,164.612738 405.815195,165.698835 403.94154,166.534294 C402.153051,167.369753 400.62006,167.787483 399.342568,167.787483 C398.150242,167.787483 397.213415,167.536845 396.532085,166.952024 C395.850756,166.367202 395.510092,165.448197 395.510092,164.195009 C395.510092,163.610187 395.76559,163.192457 396.191421,162.691182 C396.617252,162.273452 397.213415,161.772177 397.894744,161.187355 C398.490907,160.769626 399.172236,160.184804 399.938731,159.516437 C400.705226,158.84807 401.471722,158.179702 402.067885,157.344243 C402.749214,156.508784 403.260211,155.589779 403.771208,154.670774 C404.282204,153.668223 404.537703,152.582126 404.537703,151.412483 C404.537703,150.159294 404.878367,149.156743 405.559697,148.655468 C406.241026,148.070646 407.007521,147.820009 407.944349,147.820009 Z M388.015471,87.6747449 C389.037465,87.7582908 390.144625,88.1760204 391.422117,88.7608418 C392.699609,89.4292092 393.806769,90.2646684 394.828763,91.2672194 C395.850756,92.2697704 396.361753,93.3558673 396.361753,94.3584184 C396.361753,95.5280612 396.021089,97.0318878 395.339759,99.0369898 C394.65843,100.958546 393.721603,103.214286 392.614443,105.804209 C395.595258,105.720663 398.235408,105.470026 400.62006,105.052296 C403.004712,104.634566 404.878367,104.300383 406.326192,103.882653 L406.241026,103.966199 C407.859182,103.548469 409.136675,103.381378 410.073502,103.464923 C410.754831,103.381378 411.180662,103.882653 411.180662,104.801658 C411.180662,105.219388 410.754831,105.804209 409.90317,106.472577 C409.051508,107.22449 407.774016,107.976403 406.070693,108.64477 C404.367371,109.396684 402.067885,109.981505 399.342568,110.566327 C396.617252,111.151148 393.380938,111.401786 389.633628,111.401786 C389.207797,112.404337 388.6968,113.406888 388.27097,114.409439 C387.759973,115.41199 387.334142,116.414541 386.823145,117.417092 C385.460487,120.257653 384.097829,123.098214 382.73517,126.022321 C381.372512,128.946429 380.180186,131.703444 379.073026,134.209821 C377.965866,136.799745 377.114205,139.139031 376.432876,141.311224 C375.751547,143.483418 375.410882,145.154337 375.410882,146.491071 C375.410882,147.660714 375.751547,148.245536 376.518042,148.245536 C377.965866,148.245536 379.498857,147.660714 381.117014,146.574617 C382.73517,145.404974 384.438493,143.984694 386.05665,142.146684 C387.759973,140.392219 389.37813,138.387117 390.996286,136.214923 C392.614443,134.04273 394.147434,131.954082 395.510092,129.94898 C396.87275,127.943878 397.97991,126.105867 398.916737,124.434949 C399.853565,122.764031 400.534894,121.510842 400.960725,120.758929 C401.131057,120.424745 401.556888,120.257653 402.067885,120.257653 C402.664048,120.257653 403.175045,120.341199 403.771208,120.591837 C404.367371,120.842474 404.793201,121.093112 405.219032,121.510842 C405.559697,121.845026 405.730029,122.262755 405.559697,122.680485 C405.0487,123.683036 404.282204,125.186862 403.175045,127.108418 C402.067885,129.029974 400.790393,131.202168 399.172236,133.625 C397.639245,135.964286 395.850756,138.387117 393.977101,140.893495 C392.01828,143.316327 390.059459,145.572066 387.930305,147.660714 C385.801152,149.665816 383.586832,151.336735 381.372512,152.673469 C379.158192,153.926658 376.858707,154.595026 374.644387,154.595026 C373.707559,154.595026 372.685566,154.344388 371.49324,153.843112 C370.300914,153.341837 369.193754,152.589923 368.086594,151.587372 C367.0646,150.584821 366.127773,149.415179 365.446443,147.911352 C364.841413,146.650123 364.505021,145.191248 364.437266,143.534728 C363.308806,144.979679 362.153823,146.32713 360.932638,147.577168 C359.058983,149.58227 357.100161,151.253189 355.056174,152.506378 C353.097353,153.759566 351.138531,154.427934 349.17971,154.427934 C346.624726,154.427934 344.580739,153.508929 342.962582,151.754464 C341.344425,149.916454 340.57793,147.493622 340.57793,144.402423 C340.57793,143.316327 340.833428,141.896046 341.344425,140.225128 C341.855422,138.554209 342.536751,136.716199 343.303246,134.794643 C344.154908,132.873087 345.006569,130.784439 346.028563,128.695791 C347.050557,126.607143 347.987384,124.602041 348.839046,122.596939 C350.031372,120.090561 351.053365,117.834821 351.905027,115.996811 C352.756688,114.075255 353.182519,112.905612 353.182519,112.320791 C353.182519,111.568878 353.693516,111.151148 354.715509,111.234694 C355.737503,111.31824 356.844663,111.652423 358.036989,112.320791 C359.229315,112.989158 360.336475,113.824617 361.358469,114.827168 C362.380462,115.829719 362.891459,116.915816 362.891459,118.001913 C362.891459,118.336097 362.806293,118.837372 362.550795,119.50574 C362.295296,120.174107 361.954632,121.009566 361.528801,121.928571 C361.10297,122.847577 360.677139,123.850128 360.166143,124.936224 C359.655146,126.022321 359.144149,127.024872 358.633152,128.110969 C357.866657,129.781888 356.929829,131.619898 355.993002,133.541454 C355.056174,135.46301 354.204513,137.30102 353.438017,139.139031 C352.671522,140.893495 351.990193,142.564413 351.479196,144.06824 C350.968199,145.572066 350.712701,146.741709 350.712701,147.577168 C350.712701,147.994898 350.797867,148.245536 350.968199,148.245536 C352.075359,148.245536 353.352851,147.660714 354.715509,146.491071 C356.078168,145.321429 357.525992,143.817602 359.058983,142.063138 C360.506807,140.308673 362.039798,138.303571 363.487622,136.131378 C364.935447,133.959184 366.298105,131.870536 367.575597,129.781888 C368.853089,127.69324 369.875083,125.85523 370.81191,124.184311 C371.833904,122.513393 372.515233,121.34375 372.941064,120.424745 C373.005412,120.298498 373.106223,120.196097 373.234315,120.117543 C374.163073,118.155705 375.10377,116.180671 376.007045,114.242347 L377.625202,110.90051 C375.410882,110.566327 373.452061,110.148597 371.663572,109.563776 C369.960249,109.0625 368.427258,108.477679 367.234932,107.976403 C366.042606,107.391582 365.105779,106.890306 364.509616,106.389031 C364.259301,106.178557 364.054029,105.982812 363.900106,105.801795 C362.821021,106.12071 361.567558,106.305485 360.251309,106.305485 C359.314481,106.305485 358.633152,105.971301 358.207321,105.302934 C357.781491,104.634566 357.525992,103.799107 357.525992,102.71301 C357.525992,101.794005 357.696324,100.707908 358.036989,99.4547194 C358.377654,98.2015306 358.88865,97.1154337 359.399647,96.0293367 C359.99581,94.9432398 360.677139,94.0242347 361.358469,93.2723214 C362.124964,92.5204082 362.806293,92.1862245 363.572788,92.1862245 C364.509616,92.1862245 365.446443,92.3533163 366.298105,92.6039541 C367.149766,92.8545918 368.001428,93.2723214 368.682757,93.7735969 C369.364086,94.2748724 369.875083,94.9432398 370.300914,95.6951531 C370.726744,96.4470663 370.897077,97.3660714 370.897077,98.3686224 C370.897077,99.2876276 370.641578,100.206633 370.130581,101.125638 C369.675505,101.944072 369.017791,102.762507 368.217593,103.462922 C368.522469,103.519083 368.848385,103.575549 369.193754,103.632015 C370.38608,103.882653 371.833904,104.133291 373.707559,104.467474 C375.496048,104.801658 377.710368,105.052296 380.180186,105.302934 C381.968675,101.459821 383.501666,98.0344388 384.693992,95.0267857 C385.886318,92.0191327 386.482481,89.9304847 386.482481,88.6772959 C386.482481,87.9253827 386.993478,87.5076531 388.015471,87.6747449 Z" id="it" fill-opacity="0.8" fill="#FFFFFF" fill-rule="nonzero"></path>
        <path d="M213.935876,99.6218112 C214.446873,99.6218112 215.213368,99.7053571 216.065029,99.7889031 C216.916691,99.872449 217.768352,100.123087 218.620014,100.45727 C219.471675,100.791454 220.153004,101.29273 220.664001,101.961097 C221.260164,102.629464 221.515662,103.464923 221.515662,104.55102 C221.515662,105.470026 221.260164,106.305485 220.664001,106.973852 C220.153004,107.725765 219.471675,108.394133 218.70518,109.146046 C217.853518,109.981505 217.001857,110.90051 216.150195,111.986607 C215.298534,113.072704 214.872703,114.492985 214.872703,116.080357 C214.872703,117.918367 215.213368,119.589286 215.894697,121.093112 C216.576026,122.596939 217.257355,124.100765 218.023851,125.604592 L218.023851,125.521046 C218.960678,127.108418 219.727173,128.695791 220.408503,130.366709 C221.089832,132.037628 221.430496,133.959184 221.430496,136.131378 L221.430496,138.971939 L221.430496,138.971939 C222.963487,137.30102 224.326145,135.546556 225.603637,133.708546 L225.815921,133.399318 C225.953987,132.839001 226.110669,132.273383 226.284966,131.703444 C227.051462,129.197066 228.158622,126.774235 229.52128,124.351403 C230.883938,121.928571 232.587261,119.672832 234.460916,117.500638 C236.334571,115.328444 238.378559,113.406888 240.592878,111.819515 C242.807198,110.232143 245.106684,108.895408 247.491336,107.976403 C249.875988,107.057398 252.26064,106.556122 254.645292,106.556122 C256.689279,106.556122 258.477768,106.80676 259.925593,107.391582 C261.373417,107.976403 262.565743,108.64477 263.502571,109.563776 C264.439398,110.482781 265.120727,111.401786 265.631724,112.487883 C266.142721,113.57398 266.483386,114.576531 266.653718,115.579082 C266.82405,116.581633 266.909216,117.500638 266.82405,118.252551 C266.738884,119.08801 266.653718,119.589286 266.483386,119.923469 L266.568552,119.923469 C266.39822,120.341199 266.057555,120.591837 265.546558,120.508291 C265.035561,120.508291 264.524564,120.341199 264.013568,120.174107 C263.502571,120.007015 263.07674,119.756378 262.650909,119.422194 C262.225079,119.08801 262.054746,118.920918 262.139912,118.753827 C262.225079,118.670281 262.225079,118.336097 262.139912,117.834821 C262.139912,117.333546 261.96958,116.83227 261.628916,116.330995 C261.288251,115.829719 260.86242,115.41199 260.181091,114.99426 C259.499762,114.576531 258.562934,114.409439 257.285442,114.409439 C256.00795,114.409439 254.560126,114.99426 253.112301,116.080357 C251.579311,117.166454 250.131486,118.670281 248.683662,120.424745 C247.235838,122.179209 245.788013,124.267857 244.425355,126.523597 C243.062697,128.779337 241.870371,131.118622 240.848377,133.374362 C239.826383,135.713648 239.059888,137.969388 238.378559,140.058036 C237.782396,142.23023 237.441731,144.06824 237.441731,145.655612 C237.441731,147.577168 238.037894,148.496173 239.145054,148.496173 C240.507712,148.496173 241.870371,147.911352 243.318195,146.741709 C244.766019,145.572066 246.128678,144.06824 247.40617,142.23023 C248.768828,140.392219 249.961154,138.387117 251.15348,136.214923 C252.26064,134.04273 253.282634,131.954082 254.134295,129.94898 C254.985956,127.943878 255.667286,126.272959 256.178282,124.769133 C256.689279,123.265306 256.944778,122.262755 256.944778,121.845026 C256.944778,121.427296 257.200276,121.093112 257.796439,120.92602 C258.307436,120.842474 258.988765,120.842474 259.840427,121.093112 C260.692088,121.34375 261.543749,121.594388 262.480577,122.012117 C263.417405,122.429847 264.354232,122.847577 265.120727,123.348852 C265.972389,123.850128 266.568552,124.351403 267.164715,124.936224 C267.675712,125.521046 268.016376,126.022321 268.016376,126.440051 C268.016376,127.024872 267.760878,128.027423 267.164715,129.280612 C266.568552,130.617347 265.887223,132.121173 265.205894,133.875638 C264.694897,135.045281 264.098734,136.298469 263.502571,137.551658 C262.906408,138.804847 262.395411,140.058036 261.96958,141.311224 C261.543749,142.564413 261.117919,143.65051 260.86242,144.736607 C260.521756,145.822704 260.43659,146.658163 260.43659,147.410077 C260.43659,147.660714 260.43659,147.827806 260.351423,147.827806 C261.117919,147.827806 262.054746,147.242985 263.247072,145.90625 C264.439398,144.653061 265.71689,143.065689 266.994383,141.144133 C268.357041,139.222577 269.719699,137.050383 271.082357,134.711097 C272.445016,132.371811 273.807674,130.116071 275,127.860332 C275.954869,126.120741 276.855116,124.488314 277.656998,122.963053 L277.299486,123.683036 C277.572018,123.114923 277.858176,122.560179 278.147059,122.013454 L278.236313,121.845026 L278.236313,121.845026 C278.906187,120.590506 279.445426,119.549567 279.854033,118.752751 C280.386894,117.701961 280.897926,116.67175 281.302295,115.746173 C281.813291,114.492985 282.239122,113.406888 282.579787,112.320791 C282.920451,111.234694 283.090784,110.315689 283.090784,109.563776 C283.090784,108.728316 283.686947,108.394133 284.879273,108.394133 C286.071599,108.394133 287.434257,108.728316 288.882081,109.313138 C290.329906,109.897959 291.692564,110.733418 292.88489,111.903061 C294.077216,113.072704 294.673379,114.409439 294.673379,115.996811 C294.673379,116.665179 294.503047,117.584184 294.077216,118.753827 C293.651385,119.923469 293.140388,121.176658 292.459059,122.596939 C291.77773,124.017219 291.011235,125.604592 290.159573,127.27551 C289.307912,128.946429 288.371084,130.700893 287.434257,132.455357 C286.327097,134.544005 285.305103,136.549107 284.197943,138.554209 C283.17595,140.559311 282.239122,142.397321 281.387461,143.984694 C280.535799,145.572066 279.939636,146.908801 279.428639,147.827806 C279.002809,148.830357 278.832476,149.331633 279.002809,149.331633 C279.343473,149.331633 280.109969,148.830357 281.131962,147.74426 C282.153956,146.741709 283.346282,145.321429 284.794106,143.734056 C286.156765,142.063138 287.689755,140.225128 289.307912,138.13648 C290.926069,136.047832 292.459059,133.959184 294.077216,131.870536 C295.610207,129.781888 297.058031,127.776786 298.420689,125.938776 C299.783347,124.100765 300.890507,122.513393 301.742169,121.176658 C302.849329,118.336097 303.70099,116.080357 304.382319,114.409439 C305.063648,112.73852 305.404313,111.735969 305.404313,111.568878 C305.404313,109.897959 305.744977,108.728316 306.34114,107.976403 C306.937303,107.22449 307.788965,106.890306 308.896125,106.890306 C309.66262,106.890306 310.514281,107.22449 311.451109,107.809311 C312.387937,108.394133 313.324764,109.146046 314.176426,110.065051 C315.028087,110.984056 315.709416,111.986607 316.305579,113.072704 C316.901742,114.158801 317.157241,115.161352 317.157241,116.163903 C317.157241,116.748724 316.986908,117.751276 316.561078,119.08801 C316.135247,120.508291 315.62425,122.179209 314.857755,124.100765 C314.176426,126.022321 313.324764,128.194515 312.387937,130.617347 C311.451109,132.956633 310.429115,135.379464 309.321955,137.885842 C313.40993,134.627551 316.901742,131.452806 319.967723,128.361607 C322.778206,124.936224 325.162858,121.677934 326.951347,118.252551 C327.462344,117.333546 328.143673,116.665179 328.910168,116.330995 C329.676664,115.996811 330.357993,115.996811 330.954156,116.247449 C331.550319,116.498087 331.976149,116.915816 332.231648,117.66773 C332.487146,118.419643 332.40198,119.255102 331.976149,120.257653 C331.039322,122.429847 329.591497,124.685587 327.717842,127.024872 C325.844187,129.364158 323.715034,131.78699 321.245215,134.126276 C318.775397,136.549107 316.135247,138.888393 313.239598,141.311224 C310.343949,143.734056 307.363134,146.073342 304.211987,148.496173 C301.827335,153.258291 299.272351,158.020408 296.461868,162.782526 C293.736551,167.544643 290.926069,171.721939 288.200752,175.481505 C285.475436,179.241071 282.664953,182.248724 280.024802,184.58801 C277.299486,186.927296 274.829668,188.096939 272.530182,188.096939 C270.060364,188.096939 268.016376,187.762755 266.39822,187.177934 C264.780063,186.593112 263.502571,185.841199 262.480577,184.922194 C261.543749,184.003189 260.86242,183.000638 260.521756,181.998087 C260.181091,180.995536 259.925593,180.076531 259.925593,179.241071 C259.925593,177.653699 260.606922,175.982781 261.96958,174.228316 C263.332238,172.390306 265.205894,170.46875 267.675712,168.463648 C270.060364,166.375 272.870846,164.202806 275.936828,161.947066 C279.087975,159.691327 282.409454,157.268495 285.901266,154.845663 C286.582595,153.592474 287.093592,152.673469 287.519423,152.005102 C287.945254,151.336735 288.285918,150.835459 288.456251,150.41773 C288.711749,150 288.882081,149.665816 289.052414,149.415179 C289.222746,149.080995 289.393078,148.746811 289.648577,148.412628 C289.904075,147.994898 290.159573,147.493622 290.415072,146.741709 C290.755736,146.073342 291.096401,145.070791 291.692564,143.901148 C290.415072,145.404974 289.222746,146.825255 287.945254,148.078444 C286.752928,149.415179 285.560602,150.501276 284.453442,151.503827 C283.346282,152.506378 282.324288,153.258291 281.387461,153.843112 C280.450633,154.427934 279.598972,154.762117 279.002809,154.762117 C277.725317,154.762117 276.532991,154.344388 275.425831,153.592474 C274.318671,152.840561 273.296677,151.83801 272.445016,150.751913 C271.593354,149.665816 270.912025,148.412628 270.401028,147.159439 C270.192348,146.647663 270.026278,146.149821 269.902819,145.671603 C269.61296,146.062784 269.324464,146.446377 269.03837,146.825255 C267.249881,148.997449 265.546558,150.835459 263.843235,152.25574 C262.139912,153.67602 260.606922,154.344388 259.159097,154.344388 C257.540941,154.344388 256.178282,153.926658 255.071123,153.174745 C253.878797,152.422832 252.941969,151.587372 252.090308,150.668367 C251.15348,149.58227 250.301819,148.329082 249.62049,146.908801 C248.93916,147.660714 248.172665,148.496173 247.321004,149.331633 C246.469342,150.167092 245.532515,151.002551 244.510521,151.754464 C243.488527,152.506378 242.466534,153.091199 241.359374,153.67602 C240.252214,154.177296 239.145054,154.427934 238.037894,154.427934 C235.908741,154.427934 234.035085,153.926658 232.416929,153.007653 C230.798772,152.088648 229.436114,150.835459 228.41412,149.331633 C227.30696,147.827806 226.455299,146.156888 225.944302,144.235332 C225.642163,143.430841 225.427524,142.561973 225.2893,141.65048 C224.512847,142.52864 223.708533,143.388337 222.878321,144.235332 C220.664001,146.407526 218.364515,148.329082 215.894697,150 C213.424879,151.670918 210.699562,153.007653 207.88908,153.843112 C206.015424,154.260842 204.312102,154.51148 202.779111,154.51148 L202.268114,154.51148 C199.627964,154.51148 197.669143,153.926658 196.221318,152.673469 C194.773494,151.420281 193.836666,150.083546 193.325669,148.579719 C192.814672,147.075893 192.559174,145.739158 192.729506,144.485969 C192.899839,143.232781 193.155337,142.647959 193.581168,142.647959 C194.432829,142.647959 195.028992,142.898597 195.369657,143.399872 C195.710321,143.901148 195.96582,144.485969 196.221318,145.154337 C196.306484,145.48852 196.476817,145.822704 196.647149,146.073342 C196.817481,146.407526 196.987813,146.741709 197.328478,146.992347 C197.583976,147.326531 197.924641,147.493622 198.350472,147.74426 C198.776302,147.911352 199.372465,147.994898 200.053795,147.994898 C200.905456,147.994898 201.842284,147.660714 202.864277,147.075893 C203.801105,146.491071 204.737932,145.655612 205.589594,144.569515 C206.441255,143.483418 207.122584,142.23023 207.633581,140.809949 C208.144578,139.389668 208.485243,137.802296 208.485243,136.131378 C208.485243,134.544005 208.144578,133.123724 207.548415,131.78699 C206.867086,130.450255 206.185757,129.11352 205.419261,127.69324 L205.504428,127.776786 L204.056603,125.186862 C203.801105,125.771684 203.46044,126.440051 203.119776,127.108418 C202.779111,127.860332 202.182948,128.779337 201.416453,130.032526 C201.160954,130.450255 200.82029,130.617347 200.224127,130.533801 C199.627964,130.450255 199.031801,130.283163 198.435638,129.94898 C197.839475,129.614796 197.413644,129.280612 196.987813,128.862883 C196.647149,128.445153 196.561983,128.027423 196.732315,127.69324 C197.413644,126.523597 197.924641,125.521046 198.435638,124.685587 C198.946635,123.850128 199.372465,123.098214 199.627964,122.429847 C199.968628,121.76148 200.224127,121.176658 200.479625,120.675383 C200.735124,120.174107 200.905456,119.672832 201.160954,119.171556 L201.075788,119.255102 L201.757117,117.918367 C201.586785,116.999362 201.501619,116.080357 201.501619,115.328444 C201.501619,112.989158 201.92745,110.816964 202.864277,108.895408 C203.801105,106.973852 204.823098,105.302934 206.185757,103.882653 C207.463249,102.462372 208.825907,101.459821 210.273732,100.707908 C211.721556,99.9559949 212.913882,99.6218112 213.935876,99.6218112 Z M284.453442,161.028061 C281.557793,163.200255 278.832476,165.205357 276.362658,167.126913 C273.807674,169.048469 271.593354,170.802934 269.719699,172.473852 C267.846044,174.061224 266.39822,175.565051 265.29106,176.901786 C264.1839,178.23852 263.672903,179.324617 263.672903,180.243622 C263.672903,181.079082 264.098734,181.496811 264.950395,181.496811 C266.39822,181.496811 267.93121,180.91199 269.549367,179.825893 C271.167524,178.739796 272.78568,177.235969 274.489003,175.397959 C276.192326,173.559949 277.895649,171.387755 279.513806,168.881378 C281.217128,166.375 282.835285,163.785077 284.453442,161.028061 Z" id="say" fill-opacity="0.8" fill="#FFFFFF" fill-rule="nonzero"></path>
        <path d="M158.918548,19 C160.110874,19 161.218033,19.2506378 162.325193,19.8354592 C163.432353,20.3367347 164.369181,21.088648 165.135676,22.0076531 C165.902171,22.9266582 166.5835,24.0127551 167.009331,25.2659439 C167.435162,26.5191327 167.69066,27.8558673 167.69066,29.192602 C167.69066,30.278699 167.179663,31.8660714 166.072504,33.8711735 C164.965344,35.8762755 163.687852,38.2991071 162.069695,41.1396684 C160.536704,43.8131378 158.833381,46.9043367 156.959726,50.2461735 C155.171237,53.5880102 153.467915,57.1804847 151.849758,60.940051 C150.316767,64.6996173 148.954109,68.6262755 147.932115,72.7200255 C146.910122,76.8137755 146.313959,80.9075255 146.313959,85.0848214 C146.313959,86.9228316 146.484291,88.59375 146.739789,90.2646684 C146.995288,91.9355867 147.335952,93.3558673 147.761783,94.6090561 C148.868943,94.1913265 150.401933,92.9381378 152.445921,90.9330357 C154.489908,88.9279337 156.789394,86.3380102 159.429544,83.2468112 C162.069695,80.1556122 164.795011,76.7302296 167.775826,72.8871173 C170.756641,69.0440051 173.737456,65.1173469 176.718271,61.1071429 C179.699086,57.0969388 182.509569,53.0867347 185.234886,49.1600765 C187.960202,45.2334184 190.344854,41.6409439 192.388842,38.3826531 C194.432829,35.1243622 196.136152,32.3673469 197.328478,30.0280612 C198.60597,27.6887755 199.202133,26.1014031 199.202133,25.3494898 L199.202133,23.5950255 L199.202133,23.5950255 C199.202133,23.0102041 199.372465,22.5924745 199.627964,22.1747449 C199.883462,21.7570153 200.224127,21.4228316 200.82029,21.2557398 C201.331287,21.005102 202.182948,20.9215561 203.204942,20.9215561 C204.141769,20.9215561 205.163763,21.1721939 206.100591,21.6734694 C207.037418,22.1747449 207.88908,22.9266582 208.655575,23.9292092 C209.42207,24.9317602 210.018233,26.2684949 210.444064,27.8558673 C210.784728,29.4432398 211.040227,31.3647959 211.040227,33.6205357 C211.040227,34.7066327 210.699562,36.0433673 210.103399,37.6307398 C209.507236,39.1345663 208.570409,40.8890306 207.463249,42.8941327 C206.356089,44.8156888 205.078597,46.9878827 203.545606,49.2436224 C202.012616,51.4993622 200.479625,53.9221939 198.691136,56.5121173 C195.710321,60.940051 192.559174,65.7021684 189.237694,70.8820153 C185.916215,76.0618622 182.850234,81.408801 180.039751,86.9228316 C177.229268,92.4368622 174.929782,98.0344388 173.141293,103.715561 C171.352804,109.396684 167.860993,128.278061 167.860993,133.708546 C167.860993,136.131378 168.031325,138.052934 168.457156,139.723852 C168.882986,141.311224 169.223651,142.564413 169.649482,143.483418 C169.990146,144.402423 170.330811,145.237883 170.501143,145.90625 C170.671475,146.574617 170.671475,147.075893 170.501143,147.410077 C170.330811,147.74426 169.990146,148.078444 169.393983,148.245536 C168.79782,148.412628 167.860993,148.496173 166.668667,148.496173 C165.220842,148.496173 163.773018,148.245536 162.240027,147.74426 C160.707037,147.242985 159.259212,146.32398 157.98172,145.070791 C156.704228,143.817602 155.597068,142.146684 154.745407,139.97449 C153.893745,137.885842 153.467915,135.128827 153.467915,131.954082 C153.467915,129.364158 153.723413,126.774235 154.149244,124.100765 C154.575074,121.510842 155.426736,113.239796 158.663049,102.71301 C159.514711,99.9559949 160.62187,97.0318878 161.899363,94.0242347 C163.176855,91.0165816 164.709845,87.8418367 166.413168,84.5 L165.476341,85.8367347 C163.773018,88.2595663 162.154861,90.5153061 160.62187,92.6039541 C159.08888,94.692602 157.470723,96.5306122 155.937733,98.1179847 C154.404742,99.7053571 152.786585,100.958546 151.253595,101.877551 C149.720604,102.796556 148.102448,103.297832 146.484291,103.297832 L145.547463,103.297832 C143.247977,103.297832 141.20399,102.71301 139.500667,101.459821 C137.797344,100.206633 136.434686,98.7028061 135.412692,96.78125 C134.390699,94.8596939 133.624203,92.7710459 133.113206,90.5153061 C132.60221,88.1760204 132.346711,85.9202806 132.346711,83.7480867 C132.346711,79.3201531 132.942874,74.8922194 134.1352,70.4642857 C135.327526,66.036352 136.775351,61.7755102 138.478673,57.5982143 C140.181996,53.5044643 142.055651,49.5778061 144.099639,45.9017857 C146.143626,42.2257653 147.932115,38.8839286 149.720604,35.9598214 C151.253595,33.2028061 152.616253,30.7799745 153.723413,28.8584184 C154.830573,26.8533163 155.426736,25.3494898 155.426736,24.4304847 L155.426736,21.7570153 L155.426736,21.7570153 C155.426736,21.1721939 155.597068,20.6709184 155.7674,20.2531888 C155.937733,19.8354592 156.278397,19.5012755 156.789394,19.3341837 C157.300391,19.0835459 157.98172,19 158.918548,19 Z M218.70518,50.1626276 C230.458107,50.1626276 240.081882,59.5197704 239.996715,71.1326531 C239.996715,82.6619898 230.458107,92.1026786 218.70518,92.1026786 C206.952252,92.1026786 197.413644,82.6619898 197.413644,71.1326531 C197.413644,59.6033163 206.952252,50.1626276 218.70518,50.1626276 Z M256.689279,54.0057398 C257.881605,54.5070153 258.988765,55.2589286 260.010759,56.2614796 C261.032753,57.2640306 261.458583,58.3501276 261.458583,59.6868622 C261.458583,60.1881378 261.288251,60.940051 260.947586,61.8590561 C260.606922,62.7780612 260.181091,63.8641582 259.670094,65.033801 C259.159097,66.2034439 258.477768,67.5401786 257.796439,68.8769133 C257.11511,70.213648 256.348615,71.6339286 255.582119,73.1377551 C254.645292,74.8922194 253.79363,76.5631378 252.856803,78.2340561 C251.919975,79.9049745 251.15348,81.408801 250.472151,82.7455357 C249.790822,84.0822704 249.279825,85.1683673 248.93916,85.9202806 C248.598496,86.7557398 248.428164,87.1734694 248.598496,87.1734694 C248.853994,87.1734694 249.364991,86.8392857 250.131486,86.0873724 C250.897982,85.3354592 251.749643,84.4164541 252.686471,83.2468112 C253.708464,82.0771684 254.730458,80.7404337 255.922784,79.2366071 C257.11511,77.7327806 258.307436,76.1454082 259.499762,74.5580357 C262.310245,70.8820153 265.376226,66.6211735 268.697705,61.942602 C269.549367,60.1045918 270.315862,58.5172194 270.912025,57.0969388 C271.508188,55.7602041 271.848853,54.841199 271.848853,54.4234694 C271.848853,53.755102 272.274683,53.4209184 273.211511,53.5044643 C274.148339,53.5880102 275.085166,53.9221939 276.192326,54.4234694 C277.299486,55.0082908 278.236313,55.7602041 279.173141,56.6792092 C280.109969,57.5982143 280.535799,58.5172194 280.535799,59.4362245 C280.535799,60.0210459 280.195135,61.1906888 279.428639,62.7780612 C278.662144,64.3654337 277.810483,66.2869898 276.788489,68.3756378 C276.021994,69.8794643 275.255498,71.5503827 274.403837,73.221301 C273.637342,74.8922194 272.870846,76.5631378 272.189517,78.1505102 C271.508188,79.7378827 270.912025,81.1581633 270.486194,82.494898 C270.060364,83.8316327 269.804865,84.9177296 269.804865,85.6696429 C269.804865,86.0038265 269.890031,86.1709184 269.975198,86.1709184 C270.741693,86.1709184 271.593354,85.7531888 272.530182,84.8341837 C273.467009,83.9151786 274.403837,82.8290816 275.425831,81.408801 C276.447824,79.9885204 277.469818,78.4846939 278.491812,76.7302296 C279.513806,74.9757653 280.450633,73.3048469 281.387461,71.5503827 C282.324288,69.7959184 283.090784,68.2085459 283.857279,66.7047194 C284.623774,65.2008929 285.219937,63.9477041 285.730934,62.9451531 L286.327097,61.6919643 C286.752928,60.940051 287.349091,60.3552296 287.945254,60.1045918 C288.541417,59.8539541 289.13758,59.8539541 289.56341,60.0210459 C290.074407,60.1881378 290.415072,60.6058673 290.585404,61.1906888 C290.840903,61.7755102 290.755736,62.4438776 290.415072,63.2793367 L289.818909,64.6160714 C289.222746,65.7857143 288.541417,67.2895408 287.604589,69.0440051 C286.752928,70.7984694 285.730934,72.7200255 284.623774,74.7251276 C283.516614,76.7302296 282.324288,78.7353316 280.96163,80.7404337 C279.684138,82.7455357 278.32148,84.5835459 276.958821,86.1709184 C275.596163,87.7582908 274.148339,89.0950255 272.700514,90.0975765 C271.25269,91.1001276 269.804865,91.6014031 268.357041,91.6014031 C267.420213,91.6014031 266.483386,91.3507653 265.631724,90.7659439 C264.694897,90.1811224 263.928401,89.4292092 263.247072,88.5102041 C262.565743,87.591199 261.96958,86.6721939 261.543749,85.5860969 C261.117919,84.5835459 260.86242,83.5809949 260.86242,82.6619898 C260.86242,81.9100765 261.032753,80.9910714 261.288251,79.8214286 C260.095925,81.3252551 258.903599,82.8290816 257.711273,84.2493622 C256.518947,85.6696429 255.411787,86.9228316 254.304627,88.0089286 C253.197467,89.0950255 252.175474,90.0140306 251.238646,90.598852 C250.301819,91.2672194 249.450157,91.5178571 248.768828,91.5178571 C247.746834,91.5178571 246.724841,91.1836735 245.788013,90.598852 C244.851186,89.9304847 243.999524,89.1785714 243.318195,88.2595663 C242.636866,87.3405612 242.040703,86.3380102 241.614872,85.2519133 C241.189041,84.1658163 240.933543,83.2468112 240.933543,82.411352 C240.933543,81.2417092 241.103875,79.9885204 241.44454,78.6517857 C241.785204,77.315051 242.296201,75.9783163 242.892364,74.5580357 C243.488527,73.1377551 244.169856,71.7174745 244.851186,70.2971939 C245.532515,68.8769133 246.29901,67.4566327 247.065505,66.036352 C247.661668,64.8667092 248.342997,63.7806122 248.853994,62.6109694 C249.450157,61.5248724 249.961154,60.4387755 250.386985,59.4362245 C250.812816,58.4336735 251.15348,57.5146684 251.494145,56.5956633 C251.749643,55.7602041 251.919975,55.0082908 251.919975,54.3399235 C251.919975,53.6715561 252.430972,53.2538265 253.3678,53.2538265 C254.389793,53.1702806 255.496953,53.4209184 256.689279,54.0057398 Z M218.70518,59.0184949 C211.891888,59.0184949 206.356089,64.4489796 206.356089,71.1326531 C206.356089,77.8163265 211.891888,83.2468112 218.70518,83.2468112 C225.518471,83.2468112 231.05427,77.8163265 231.05427,71.1326531 C231.05427,64.4489796 225.518471,59.0184949 218.70518,59.0184949 Z M226.540465,63.3628827 C227.732791,64.5325255 227.732791,66.5376276 226.540465,67.7072704 C225.348139,68.8769133 223.304151,68.8769133 222.111825,67.7072704 C220.919499,66.5376276 220.919499,64.5325255 222.111825,63.3628827 C223.389318,62.1096939 225.348139,62.1096939 226.540465,63.3628827 Z M239.145054,51.0816327 C240.33738,52.2512755 240.33738,54.2563776 239.145054,55.4260204 C237.952728,56.5956633 235.908741,56.5956633 234.716415,55.4260204 C233.524089,54.2563776 233.524089,52.2512755 234.716415,51.0816327 C235.908741,49.8284439 237.867562,49.8284439 239.145054,51.0816327 Z" id="you" fill-opacity="0.8" fill="#FFFFFF" fill-rule="nonzero"></path>
    </g>
</svg>