<?xml version="1.0" encoding="utf-8"?>
<!-- Generator: Adobe Illustrator 26.1.0, SVG Export Plug-In . SVG Version: 6.00 Build 0)  -->
<svg version="1.1" id="Calque_1" xmlns="http://www.w3.org/2000/svg" xmlns:xlink="http://www.w3.org/1999/xlink" x="0px" y="0px"
	 viewBox="0 0 460 530" style="enable-background:new 0 0 460 530;" xml:space="preserve">
<style type="text/css">
	.st0{fill:#4CC7DB;}
	.st1{fill:none;}
	.st2{fill:#001E57;}
	.st3{fill:none;stroke:#001E57;stroke-width:6;stroke-linecap:round;stroke-linejoin:round;stroke-miterlimit:10;}
</style>
<g>
	<g>
		<g>
			<path class="st0" d="M113.8,253.3c0-1.3,0.2-2.7,0.7-4.1s1-2.8,1.8-4.2c0.8-1.4,1.7-2.7,2.8-3.9c1.1-1.2,2.2-2.3,3.4-3.2
				c1.2-0.9,2.5-1.7,3.9-2.2c1.3-0.5,2.7-0.8,4-0.8c1.2,0,2.1,0.2,2.9,0.5s1.5,0.7,2,1.2c0.5,0.5,0.9,1.1,1.2,1.7s0.5,1.2,0.6,1.8
				c0.1,0.6,0.1,1.1,0.1,1.5c0,0.5-0.1,0.8-0.2,1h0c-0.1,0.2-0.3,0.4-0.6,0.3c-0.3,0-0.6-0.1-0.9-0.2c-0.3-0.1-0.5-0.2-0.8-0.4
				c-0.2-0.2-0.3-0.3-0.3-0.4c0-0.1,0-0.2,0-0.5c0-0.3-0.1-0.6-0.3-0.8c-0.2-0.3-0.4-0.5-0.8-0.8c-0.4-0.2-0.9-0.3-1.6-0.3
				c-0.7,0-1.5,0.3-2.3,1c-0.8,0.6-1.7,1.5-2.5,2.5c-0.8,1-1.6,2.2-2.4,3.5c-0.8,1.3-1.4,2.6-2,3.9c-0.6,1.3-1,2.6-1.4,3.8
				c-0.3,1.2-0.5,2.3-0.5,3.2c0,1.1,0.3,1.6,1,1.6c0.8,0,1.5-0.3,2.3-1c0.8-0.7,1.6-1.5,2.3-2.6c0.7-1,1.4-2.2,2.1-3.4
				c0.6-1.2,1.2-2.4,1.7-3.6c0.5-1.1,0.9-2.1,1.1-3c0.3-0.9,0.4-1.4,0.4-1.7s0.2-0.4,0.5-0.5c0.3-0.1,0.7,0,1.1,0.1
				c0.5,0.1,1,0.3,1.5,0.5c0.5,0.2,1,0.5,1.5,0.8c0.5,0.3,0.8,0.6,1.1,0.9c0.3,0.3,0.5,0.6,0.5,0.8c0,0.3-0.2,0.9-0.5,1.6
				s-0.7,1.6-1.1,2.6c-0.3,0.7-0.6,1.4-0.9,2.1c-0.3,0.7-0.6,1.4-0.9,2.1c-0.3,0.7-0.5,1.4-0.6,2c-0.2,0.6-0.3,1.1-0.3,1.5
				c0,0.2,0,0.2,0,0.2c0.4,0,1-0.4,1.6-1.1c0.7-0.7,1.4-1.6,2.1-2.7c0.8-1.1,1.5-2.3,2.3-3.7c0.8-1.3,1.5-2.6,2.2-3.9
				c0.7-1.3,1.3-2.4,1.8-3.4c0.5-1,0.9-1.8,1.1-2.3c0.1-0.2,0.4-0.4,0.7-0.4c0.3,0,0.7,0.1,1,0.2c0.3,0.1,0.6,0.3,0.8,0.6
				c0.2,0.2,0.3,0.5,0.2,0.7c-0.3,0.6-0.7,1.5-1.3,2.7c-0.6,1.2-1.3,2.6-2.2,4s-1.7,3-2.7,4.5c-1,1.5-1.9,2.9-2.9,4.2
				c-1,1.2-2,2.3-2.9,3.1s-1.8,1.2-2.6,1.2c-0.9,0-1.6-0.2-2.3-0.7c-0.7-0.4-1.2-0.9-1.7-1.4c-0.5-0.6-1-1.3-1.4-2.1
				c-0.4,0.4-0.8,0.9-1.3,1.4c-0.5,0.5-1,0.9-1.6,1.4c-0.6,0.4-1.2,0.8-1.8,1.1c-0.6,0.3-1.2,0.4-1.8,0.4c-1.2,0-2.2-0.3-3.1-0.8
				c-0.9-0.5-1.6-1.2-2.3-2.1s-1.1-1.8-1.4-2.9C114,255.4,113.8,254.3,113.8,253.3z"/>
			<path class="st0" d="M201.6,241.6c0.1-0.2,0.3-0.4,0.7-0.4c0.3,0,0.7,0.1,1,0.2s0.6,0.3,0.9,0.5c0.2,0.2,0.3,0.5,0.2,0.7
				c-0.3,0.6-0.7,1.5-1.4,2.7c-0.7,1.2-1.4,2.5-2.3,4c-0.9,1.4-1.9,2.9-2.9,4.4c-1.1,1.5-2.1,2.9-3.2,4.1c-1.1,1.2-2.2,2.3-3.3,3.1
				c-1.1,0.8-2.1,1.2-2.9,1.2c-1.5,0-2.7-0.6-3.7-1.7c-1-1.1-1.5-2.6-1.5-4.5c0-0.6,0.1-1.4,0.4-2.4s0.6-2,1.1-3.1
				c0.4-1.1,0.9-2.3,1.5-3.5s1.1-2.4,1.6-3.5c-1,1.2-2.1,2.4-3.2,3.7c-1.1,1.3-2.2,2.6-3.1,3.9c-1,1.3-1.9,2.5-2.7,3.7
				c-0.8,1.2-1.4,2.2-1.8,3c0,0.2-0.1,0.3-0.1,0.4c0,0.1,0,0.2,0,0.3l0.1,0.4c0,0.1,0.1,0.2,0.1,0.3c0,0.1,0,0.2,0.1,0.3l0,0
				c0.1,0.4,0.2,0.7,0.3,1c0.1,0.3,0.1,0.6,0,0.8c-0.1,0.2-0.2,0.4-0.5,0.5s-0.6,0.2-1.1,0.2c-0.6,0-1.2-0.1-1.8-0.4
				c-0.6-0.3-1.2-0.7-1.7-1.2c-0.5-0.5-0.9-1.2-1.2-1.9s-0.5-1.5-0.5-2.5c0-0.8,0.1-1.7,0.4-2.6c0.2-0.9,0.6-1.9,1-2.9
				c0.4-1,0.8-2,1.3-3s1-2,1.5-3c0.2-0.5,0.4-0.8,0.5-1.1c0.1-0.2,0.2-0.4,0.3-0.5c0-0.1,0.1-0.1,0-0.1c-1,1.2-2.1,2.4-3.3,3.8
				s-2.2,2.7-3.3,4.1s-2,2.6-2.8,3.9s-1.5,2.3-1.8,3.1c0,0.2-0.1,0.3-0.1,0.4s0,0.2,0,0.3c0,0.2,0,0.3,0,0.5c0,0.2,0.1,0.3,0.1,0.5
				c0.1,0.4,0.2,0.7,0.2,1c0.1,0.3,0.1,0.6,0,0.8c-0.1,0.2-0.2,0.4-0.4,0.5c-0.2,0.1-0.6,0.2-1.1,0.2c-0.6,0-1.2-0.1-1.8-0.4
				c-0.6-0.3-1.2-0.7-1.7-1.2c-0.5-0.5-0.9-1.2-1.3-1.9c-0.3-0.7-0.5-1.5-0.5-2.5c0-0.8,0.1-1.7,0.4-2.6c0.2-0.9,0.6-1.9,1-2.9
				c0.4-1,0.8-2,1.3-3c0.5-1,1-2,1.5-3c0.9-1.7,1.6-3.2,2.3-4.7c0.7-1.4,1-2.6,1-3.5c0-0.5,0.3-0.7,1-0.8c0.7,0,1.4,0.1,2.2,0.5
				c0.8,0.4,1.6,0.9,2.2,1.6c0.7,0.7,1,1.5,1,2.4c0,0.5-0.1,1-0.3,1.6s-0.5,1.3-0.8,2.1c0.9-1,1.7-2.1,2.6-3.1s1.7-1.9,2.5-2.7
				c0.8-0.8,1.5-1.5,2.1-2.1c0.6-0.5,1.1-0.9,1.5-1c0.4,0,0.9,0.1,1.5,0.4s1.1,0.6,1.7,1c0.5,0.5,1,1,1.3,1.6
				c0.4,0.6,0.6,1.4,0.6,2.1c0,0.4-0.1,0.9-0.3,1.6c-0.2,0.6-0.5,1.3-0.8,2.1c0.9-1.1,1.8-2.2,2.8-3.2c0.9-1.1,1.8-2,2.6-2.8
				c0.8-0.8,1.5-1.5,2.1-2c0.6-0.5,1-0.8,1.3-0.8c0.1,0,0.1,0,0.2,0c0.1,0,0.2,0,0.4,0.1c0.4,0.1,0.8,0.3,1.2,0.6
				c0.5,0.3,0.9,0.7,1.3,1.2c0.4,0.5,0.7,1,1,1.5c0.3,0.5,0.4,1.1,0.4,1.6c0,0.4-0.3,1.2-0.8,2.3c-0.5,1.1-1.1,2.4-1.8,3.9
				c-0.5,1.1-1.1,2.2-1.6,3.4c-0.6,1.2-1.1,2.3-1.5,3.4c-0.5,1.1-0.8,2.1-1.1,3c-0.3,0.9-0.5,1.7-0.5,2.2c0,0.2,0,0.4,0.1,0.4
				c0.4,0,1-0.3,1.7-1s1.5-1.6,2.3-2.7c0.8-1.1,1.7-2.3,2.6-3.6s1.7-2.6,2.4-3.9s1.4-2.4,2-3.4C200.9,242.9,201.3,242.1,201.6,241.6
				z"/>
			<path class="st0" d="M196.4,253.3c0-1.3,0.2-2.7,0.7-4.1s1-2.8,1.8-4.2c0.8-1.4,1.7-2.7,2.8-3.9c1.1-1.2,2.2-2.3,3.4-3.2
				c1.2-0.9,2.5-1.7,3.9-2.2c1.3-0.5,2.7-0.8,4-0.8c1.2,0,2.1,0.2,2.9,0.5s1.5,0.7,2,1.2c0.5,0.5,0.9,1.1,1.2,1.7s0.5,1.2,0.6,1.8
				c0.1,0.6,0.1,1.1,0.1,1.5c0,0.5-0.1,0.8-0.2,1h0c-0.1,0.2-0.3,0.4-0.6,0.3c-0.3,0-0.6-0.1-0.9-0.2c-0.3-0.1-0.5-0.2-0.8-0.4
				c-0.2-0.2-0.3-0.3-0.3-0.4c0-0.1,0-0.2,0-0.5c0-0.3-0.1-0.6-0.3-0.8c-0.2-0.3-0.4-0.5-0.8-0.8c-0.4-0.2-0.9-0.3-1.6-0.3
				c-0.7,0-1.5,0.3-2.3,1c-0.8,0.6-1.7,1.5-2.5,2.5c-0.8,1-1.6,2.2-2.4,3.5c-0.8,1.3-1.4,2.6-2,3.9c-0.6,1.3-1,2.6-1.4,3.8
				c-0.3,1.2-0.5,2.3-0.5,3.2c0,1.1,0.3,1.6,1,1.6c0.8,0,1.5-0.3,2.3-1c0.8-0.7,1.6-1.5,2.3-2.6c0.7-1,1.4-2.2,2.1-3.4
				c0.6-1.2,1.2-2.4,1.7-3.6c0.5-1.1,0.9-2.1,1.1-3c0.3-0.9,0.4-1.4,0.4-1.7s0.2-0.4,0.5-0.5c0.3-0.1,0.7,0,1.1,0.1
				c0.5,0.1,1,0.3,1.5,0.5c0.5,0.2,1,0.5,1.5,0.8c0.5,0.3,0.8,0.6,1.1,0.9c0.3,0.3,0.5,0.6,0.5,0.8c0,0.3-0.2,0.9-0.5,1.6
				s-0.7,1.6-1.1,2.6c-0.3,0.7-0.6,1.4-0.9,2.1c-0.3,0.7-0.6,1.4-0.9,2.1c-0.3,0.7-0.5,1.4-0.6,2c-0.2,0.6-0.3,1.1-0.3,1.5
				c0,0.2,0,0.2,0,0.2c0.4,0,1-0.4,1.6-1.1c0.7-0.7,1.4-1.6,2.1-2.7c0.8-1.1,1.5-2.3,2.3-3.7c0.8-1.3,1.5-2.6,2.2-3.9
				c0.7-1.3,1.3-2.4,1.8-3.4c0.5-1,0.9-1.8,1.1-2.3c0.1-0.2,0.4-0.4,0.7-0.4c0.3,0,0.7,0.1,1,0.2c0.3,0.1,0.6,0.3,0.8,0.6
				c0.2,0.2,0.3,0.5,0.2,0.7c-0.3,0.6-0.7,1.5-1.3,2.7c-0.6,1.2-1.3,2.6-2.2,4s-1.7,3-2.7,4.5c-1,1.5-1.9,2.9-2.9,4.2
				c-1,1.2-2,2.3-2.9,3.1s-1.8,1.2-2.6,1.2c-0.9,0-1.6-0.2-2.3-0.7c-0.7-0.4-1.2-0.9-1.7-1.4c-0.5-0.6-1-1.3-1.4-2.1
				c-0.4,0.4-0.8,0.9-1.3,1.4c-0.5,0.5-1,0.9-1.6,1.4c-0.6,0.4-1.2,0.8-1.8,1.1c-0.6,0.3-1.2,0.4-1.8,0.4c-1.2,0-2.2-0.3-3.1-0.8
				c-0.9-0.5-1.6-1.2-2.3-2.1s-1.1-1.8-1.4-2.9C196.6,255.4,196.4,254.3,196.4,253.3z"/>
			<path class="st0" d="M251.2,241.6c0.3-0.5,0.7-0.9,1.1-1.1s0.8-0.2,1.1,0s0.6,0.4,0.7,0.8c0.2,0.4,0.1,0.9-0.2,1.5
				c-0.3,0.6-0.7,1.5-1.3,2.7c-0.6,1.2-1.3,2.5-2,4s-1.6,2.9-2.6,4.4c-0.9,1.5-1.9,2.9-2.9,4.1s-2.1,2.3-3.1,3.1
				c-1,0.8-2.1,1.2-3,1.2c-1.5,0-2.7-0.6-3.7-1.7s-1.5-2.6-1.5-4.5c0-0.6,0.1-1.4,0.4-2.3c0.3-0.9,0.6-1.9,1-3
				c0.4-1.1,0.9-2.2,1.4-3.4s1.1-2.3,1.6-3.5c-1,1.2-2.1,2.4-3.2,3.8c-1.1,1.3-2.2,2.7-3.1,3.9c-1,1.3-1.9,2.5-2.6,3.6
				c-0.8,1.1-1.3,2.1-1.7,2.8c0,0.2-0.1,0.3-0.1,0.4c0,0.1,0,0.2,0,0.3l0.1,0.4c0,0.1,0,0.2,0,0.3c0,0.1,0,0.2,0,0.3v0
				c0.1,0.4,0.2,0.7,0.2,1c0.1,0.3,0.1,0.6,0,0.8c-0.1,0.2-0.2,0.4-0.5,0.5s-0.6,0.2-1.1,0.2c-0.6,0-1.2-0.1-1.8-0.4
				c-0.6-0.3-1.2-0.7-1.7-1.2c-0.5-0.5-0.9-1.2-1.3-1.9c-0.3-0.7-0.5-1.5-0.5-2.5c0-0.8,0.1-1.7,0.4-2.6c0.2-0.9,0.6-1.9,1-2.9
				c0.4-1,0.8-2,1.3-3c0.5-1,1-2,1.5-3c0.9-1.7,1.6-3.2,2.3-4.7c0.7-1.4,1-2.6,1-3.5c0-0.5,0.3-0.7,1-0.8c0.7,0,1.4,0.1,2.2,0.5
				c0.8,0.4,1.6,0.9,2.2,1.6c0.7,0.7,1,1.5,1,2.4c0,0.4-0.1,1-0.3,1.6c-0.2,0.6-0.5,1.4-0.9,2.1c0.9-1.1,1.9-2.2,2.8-3.3
				c0.9-1.1,1.8-2,2.6-2.8s1.5-1.5,2.1-2c0.6-0.5,1-0.8,1.3-0.8c0.1,0,0.2,0,0.3,0c0.1,0,0.2,0,0.4,0.1c0.4,0.1,0.8,0.3,1.2,0.7
				s0.9,0.7,1.3,1.1c0.4,0.4,0.7,0.9,1,1.5c0.3,0.5,0.4,1.1,0.4,1.6c0,0.4-0.3,1.2-0.8,2.3c-0.5,1.1-1.1,2.4-1.8,3.9
				c-0.5,1.1-1.1,2.2-1.6,3.4c-0.6,1.2-1.1,2.3-1.5,3.4s-0.8,2.1-1.1,3c-0.3,0.9-0.5,1.7-0.5,2.2c0,0.2,0,0.4,0.1,0.4
				c0.5,0,1-0.3,1.6-1c0.6-0.6,1.3-1.5,2.1-2.5c0.7-1,1.5-2.2,2.3-3.4c0.8-1.3,1.5-2.5,2.1-3.8c0.7-1.2,1.3-2.4,1.8-3.5
				C250.5,243.2,250.9,242.3,251.2,241.6L251.2,241.6z"/>
			<path class="st0" d="M265.6,253.3c0-1.3,0.2-2.7,0.7-4.1s1-2.8,1.8-4.2c0.8-1.4,1.7-2.7,2.8-3.9c1.1-1.2,2.2-2.3,3.4-3.2
				c1.2-0.9,2.5-1.7,3.9-2.2c1.3-0.5,2.7-0.8,4-0.8c1.2,0,2.1,0.2,2.9,0.5s1.5,0.7,2,1.2c0.5,0.5,0.9,1.1,1.2,1.7s0.5,1.2,0.6,1.8
				c0.1,0.6,0.1,1.1,0.1,1.5c0,0.5-0.1,0.8-0.2,1h0c-0.1,0.2-0.3,0.4-0.6,0.3c-0.3,0-0.6-0.1-0.9-0.2c-0.3-0.1-0.5-0.2-0.8-0.4
				c-0.2-0.2-0.3-0.3-0.3-0.4c0-0.1,0-0.2,0-0.5c0-0.3-0.1-0.6-0.3-0.8c-0.2-0.3-0.4-0.5-0.8-0.8c-0.4-0.2-0.9-0.3-1.6-0.3
				c-0.7,0-1.5,0.3-2.3,1c-0.8,0.6-1.7,1.5-2.5,2.5c-0.8,1-1.6,2.2-2.4,3.5c-0.8,1.3-1.4,2.6-2,3.9c-0.6,1.3-1,2.6-1.4,3.8
				c-0.3,1.2-0.5,2.3-0.5,3.2c0,1.1,0.3,1.6,1,1.6c0.8,0,1.5-0.3,2.3-1c0.8-0.7,1.6-1.5,2.3-2.6c0.7-1,1.4-2.2,2.1-3.4
				c0.6-1.2,1.2-2.4,1.7-3.6c0.5-1.1,0.9-2.1,1.1-3c0.3-0.9,0.4-1.4,0.4-1.7s0.2-0.4,0.5-0.5c0.3-0.1,0.7,0,1.1,0.1
				c0.5,0.1,1,0.3,1.5,0.5c0.5,0.2,1,0.5,1.5,0.8c0.5,0.3,0.8,0.6,1.1,0.9c0.3,0.3,0.5,0.6,0.5,0.8c0,0.3-0.2,0.9-0.5,1.6
				s-0.7,1.6-1.1,2.6c-0.3,0.7-0.6,1.4-0.9,2.1c-0.3,0.7-0.6,1.4-0.9,2.1c-0.3,0.7-0.5,1.4-0.6,2c-0.2,0.6-0.3,1.1-0.3,1.5
				c0,0.2,0,0.2,0,0.2c0.4,0,1-0.4,1.6-1.1c0.7-0.7,1.4-1.6,2.1-2.7c0.8-1.1,1.5-2.3,2.3-3.7c0.8-1.3,1.5-2.6,2.2-3.9
				c0.7-1.3,1.3-2.4,1.8-3.4c0.5-1,0.9-1.8,1.1-2.3c0.1-0.2,0.4-0.4,0.7-0.4c0.3,0,0.7,0.1,1,0.2c0.3,0.1,0.6,0.3,0.8,0.6
				c0.2,0.2,0.3,0.5,0.2,0.7c-0.3,0.6-0.7,1.5-1.3,2.7c-0.6,1.2-1.3,2.6-2.2,4s-1.7,3-2.7,4.5c-1,1.5-1.9,2.9-2.9,4.2
				c-1,1.2-2,2.3-2.9,3.1s-1.8,1.2-2.6,1.2c-0.9,0-1.6-0.2-2.3-0.7c-0.7-0.4-1.2-0.9-1.7-1.4c-0.5-0.6-1-1.3-1.4-2.1
				c-0.4,0.4-0.8,0.9-1.3,1.4c-0.5,0.5-1,0.9-1.6,1.4c-0.6,0.4-1.2,0.8-1.8,1.1c-0.6,0.3-1.2,0.4-1.8,0.4c-1.2,0-2.2-0.3-3.1-0.8
				c-0.9-0.5-1.6-1.2-2.3-2.1s-1.1-1.8-1.4-2.9C265.7,255.4,265.6,254.3,265.6,253.3z"/>
			<path class="st0" d="M339.7,227.9c0,0.3-0.3,0.7-0.9,1.2c-0.6,0.5-1.6,1.1-2.8,1.6c-1.3,0.5-2.9,1-4.9,1.5
				c-2,0.4-4.4,0.7-7.1,0.7l-1.2,3c-1.1,2.8-2.2,5.7-3.4,8.7c-1.2,3-2.4,5.9-3.7,8.8c-1.3,2.9-2.6,5.6-3.9,8.2
				c-1.3,2.6-2.7,4.8-4,6.8c-1.4,1.9-2.7,3.5-4.1,4.6c-1.4,1.1-2.7,1.7-4,1.7c-0.4,0-0.8-0.2-1-0.5c-0.2-0.3-0.4-0.6-0.4-1
				c0-0.3,0-0.7,0.2-1c0.2-0.3,0.4-0.5,0.8-0.5c0.5,0,1.1-0.5,1.8-1.6c0.7-1.1,1.4-2.5,2.3-4.4c0.8-1.9,1.7-4,2.6-6.5
				c0.9-2.5,1.9-5.1,2.9-7.8c1.2-3.3,2.4-6.5,3.5-9.6c1.1-3.1,2.4-6.2,3.9-9.3c-2-0.2-3.9-0.5-5.5-0.9s-3-0.8-4.1-1.3
				c-1.1-0.4-2-0.9-2.6-1.3s-0.9-0.8-0.9-1c0-0.9,0.3-1.4,0.9-1.4c0.6,0,1.6,0.1,3.1,0.5c1.1,0.2,2.5,0.5,4.3,0.8s4,0.6,6.6,0.7
				c0.9-1.9,1.9-3.7,2.9-5.3c1-1.6,2-3,3.1-4.2s2.1-2.1,3.2-2.8c1.1-0.7,2.2-1,3.3-1c0.8,0,1.5,0.3,1.9,0.8s0.7,1.1,0.9,1.7
				c0.1,0.6,0.2,1.2,0,1.7s-0.3,0.8-0.6,0.8c-0.6,0-1-0.2-1.2-0.5c-0.2-0.3-0.3-0.7-0.4-1.1c-0.1-0.3-0.1-0.5-0.1-0.5
				c-0.2,0-0.5,0.3-0.8,0.8c-0.3,0.5-0.8,1.2-1.2,2.2c-0.5,0.9-1,2.1-1.5,3.4c-0.5,1.3-1.1,2.7-1.8,4.3c2.3-0.1,4.3-0.3,6.1-0.6
				c1.8-0.3,3.3-0.6,4.4-0.9v0c1.2-0.2,2-0.4,2.6-0.3C339.4,227,339.7,227.3,339.7,227.9z"/>
			<path class="st0" d="M342.1,241.4c0.1-0.2,0.3-0.3,0.7-0.3c0.3,0,0.7,0.1,1,0.2c0.3,0.1,0.6,0.3,0.9,0.6c0.2,0.2,0.3,0.5,0.2,0.7
				c-0.3,0.7-0.8,1.6-1.4,2.8c-0.7,1.2-1.4,2.6-2.3,4c-0.9,1.4-1.9,2.9-2.9,4.4c-1.1,1.5-2.2,2.9-3.3,4.1s-2.3,2.2-3.5,3
				c-1.2,0.8-2.4,1.2-3.5,1.2c-1.5,0-2.8-0.6-3.7-1.7c-1-1.1-1.4-2.6-1.4-4.5c0-0.7,0.2-1.5,0.5-2.6c0.3-1,0.7-2.2,1.2-3.4
				c0.5-1.2,1-2.4,1.6-3.7s1.2-2.5,1.7-3.7c0.7-1.5,1.4-2.9,1.9-4.1c0.5-1.2,0.8-1.9,0.8-2.2c0-0.5,0.3-0.7,0.9-0.7
				c0.6,0,1.3,0.3,2,0.7c0.7,0.4,1.4,0.9,2,1.5c0.6,0.6,0.9,1.3,0.9,2c0,0.2-0.1,0.5-0.2,0.9s-0.3,0.9-0.6,1.5
				c-0.2,0.6-0.5,1.2-0.8,1.8c-0.3,0.7-0.6,1.3-0.9,1.9c-0.5,1-1,2.1-1.6,3.3s-1.1,2.3-1.5,3.4c-0.5,1.1-0.9,2.1-1.2,3
				c-0.3,0.9-0.5,1.6-0.5,2.2c0,0.3,0,0.4,0.1,0.4c0.7,0,1.4-0.4,2.3-1.1c0.8-0.7,1.7-1.6,2.6-2.7c0.9-1.1,1.8-2.3,2.7-3.6
				c0.9-1.3,1.7-2.6,2.4-3.9c0.7-1.3,1.4-2.4,1.9-3.4C341.4,242.7,341.8,241.9,342.1,241.4L342.1,241.4z M334.5,232.7
				c-0.5,0-1-0.2-1.2-0.6c-0.3-0.4-0.4-0.9-0.4-1.6c0-0.6,0.1-1.2,0.3-2c0.2-0.7,0.5-1.5,0.8-2.1c0.3-0.7,0.7-1.2,1.2-1.7
				c0.4-0.5,0.9-0.7,1.3-0.7c0.6,0,1.1,0.1,1.7,0.3c0.5,0.2,1,0.4,1.4,0.7c0.4,0.3,0.7,0.7,1,1.2c0.2,0.5,0.4,1,0.4,1.6
				c0,0.5-0.2,1.1-0.5,1.7c-0.3,0.6-0.8,1.1-1.3,1.6c-0.6,0.5-1.3,0.9-2.1,1.2C336.3,232.6,335.4,232.7,334.5,232.7z"/>
			<path class="st0" d="M360.1,241.6c0.1-0.2,0.3-0.4,0.7-0.4c0.3,0,0.7,0.1,1,0.2c0.3,0.1,0.6,0.3,0.8,0.5c0.2,0.2,0.3,0.5,0.2,0.7
				c-0.3,0.5-0.7,1.3-1.2,2.3c-0.5,1-1.2,2.2-1.9,3.4c-0.8,1.3-1.6,2.6-2.6,3.9c-1,1.4-2.1,2.7-3.3,3.9c-1.2,1.2-2.5,2.3-3.9,3.3
				s-2.9,1.7-4.5,2.2c-1,0.2-2,0.4-2.9,0.4h-0.3c-1.5,0-2.6-0.3-3.4-1c-0.8-0.7-1.3-1.5-1.6-2.3c-0.3-0.9-0.4-1.6-0.3-2.3
				s0.2-1,0.5-1c0.5,0,0.8,0.1,1,0.4s0.3,0.6,0.5,1c0.1,0.2,0.1,0.4,0.2,0.5c0.1,0.2,0.2,0.4,0.4,0.5c0.2,0.2,0.3,0.3,0.6,0.4
				s0.6,0.2,1,0.2c0.5,0,1-0.2,1.5-0.5c0.5-0.3,1-0.8,1.5-1.4s0.8-1.3,1.1-2.1c0.3-0.8,0.5-1.7,0.5-2.6c0-0.9-0.2-1.7-0.5-2.5
				c-0.4-0.8-0.8-1.5-1.2-2.3l0,0l-0.8-1.5c-0.2,0.3-0.3,0.7-0.5,1.1s-0.5,1-0.9,1.7c-0.1,0.2-0.3,0.3-0.7,0.3c-0.3,0-0.7-0.2-1-0.3
				c-0.3-0.2-0.6-0.4-0.8-0.6s-0.3-0.5-0.1-0.7c0.4-0.7,0.7-1.2,1-1.7s0.5-0.9,0.7-1.3c0.2-0.4,0.3-0.7,0.5-1
				c0.1-0.3,0.2-0.6,0.4-0.8l0,0l0.4-0.8c-0.1-0.5-0.1-1-0.1-1.5c0-1.3,0.2-2.6,0.8-3.7c0.5-1.1,1.1-2.1,1.8-2.8
				c0.7-0.8,1.5-1.4,2.3-1.8c0.8-0.4,1.5-0.6,2.1-0.6c0.3,0,0.7,0,1.2,0.1c0.5,0.1,1,0.2,1.4,0.4c0.5,0.2,0.8,0.5,1.2,0.8
				c0.3,0.4,0.5,0.9,0.5,1.5c0,0.5-0.2,1-0.5,1.4c-0.3,0.4-0.7,0.8-1.1,1.3c-0.5,0.5-1,1-1.4,1.6c-0.5,0.6-0.7,1.4-0.7,2.3
				c0,1.1,0.2,2,0.6,2.9c0.4,0.9,0.8,1.7,1.2,2.6v0c0.5,0.9,1,1.8,1.3,2.8c0.4,1,0.6,2.1,0.6,3.3c0,0.2,0,0.5,0,0.8
				c0,0.3,0,0.6,0,0.8c0.9-0.9,1.6-1.9,2.3-3c0.7-1,1.4-2.1,1.9-3.1c0.6-1,1.1-1.9,1.5-2.8c0.4-0.9,0.8-1.6,1.1-2.1L360.1,241.6
				L360.1,241.6z"/>
			<path class="st0" d="M386.5,241.6c0.1-0.2,0.4-0.4,0.7-0.4c0.3,0,0.7,0.1,1,0.2c0.3,0.1,0.6,0.3,0.8,0.6c0.2,0.2,0.3,0.5,0.2,0.7
				c-0.3,0.6-0.8,1.5-1.5,2.7c-0.7,1.2-1.5,2.5-2.5,4c-1,1.4-2,2.9-3.1,4.4c-1.1,1.5-2.2,2.9-3.4,4.1s-2.3,2.3-3.4,3.1
				c-1.1,0.8-2.1,1.2-3,1.2c-1.5,0-2.7-0.6-3.7-1.7c-1-1.1-1.4-2.6-1.4-4.5c0-0.6,0.1-1.4,0.4-2.4c0.3-0.9,0.6-2,1-3.1
				c0.4-1.1,0.9-2.3,1.4-3.4c0.5-1.2,1-2.4,1.6-3.5c-1,1.2-2,2.4-3.1,3.7s-2.1,2.6-3.1,3.9c-1,1.3-1.9,2.5-2.6,3.6
				c-0.8,1.1-1.4,2.1-1.7,2.9c-0.1,0.4-0.1,0.7-0.1,0.9l0.1,0.4c0,0.1,0.1,0.2,0.1,0.3c0,0.1,0,0.2,0.1,0.3l0,0
				c0.1,0.4,0.2,0.7,0.2,1c0.1,0.3,0.1,0.6,0,0.8c-0.1,0.2-0.2,0.4-0.4,0.5c-0.2,0.1-0.6,0.2-1.1,0.2c-0.6,0-1.2-0.1-1.8-0.4
				c-0.6-0.3-1.2-0.7-1.7-1.2c-0.5-0.5-0.9-1.2-1.3-1.9c-0.3-0.7-0.5-1.6-0.5-2.5c0-0.8,0.2-1.8,0.6-3c0.4-1.2,0.9-2.6,1.6-4.2
				c0.7-1.6,1.4-3.2,2.2-5c0.8-1.8,1.7-3.6,2.6-5.4c0.9-1.8,1.7-3.5,2.5-5.2c0.8-1.7,1.6-3.3,2.2-4.8c0.6-1.5,1.2-2.8,1.6-4
				c0.4-1.2,0.6-2.1,0.6-2.8c0-0.5,0.3-0.7,1-0.6c0.7,0.1,1.4,0.3,2.3,0.7s1.6,0.9,2.3,1.5c0.7,0.6,1,1.3,1,1.9
				c0,0.8-0.2,1.8-0.7,3.1c-0.5,1.3-1,2.7-1.7,4.3c-0.7,1.6-1.5,3.3-2.4,5.1s-1.8,3.7-2.7,5.5l-0.4,0.7v0c0.9-1.1,1.8-2.2,2.8-3.3
				c0.9-1.1,1.8-2.1,2.6-2.9c0.8-0.9,1.6-1.6,2.2-2.1c0.7-0.5,1.1-0.9,1.5-0.9c0.4,0,0.8,0.1,1.3,0.4s1,0.7,1.5,1.2
				c0.5,0.5,0.9,1,1.3,1.6c0.3,0.6,0.5,1.2,0.5,1.8c0,0.5-0.3,1.2-0.8,2.3c-0.5,1.1-1.1,2.4-1.8,3.9c-0.5,1.1-1.1,2.2-1.6,3.3
				c-0.6,1.2-1.1,2.3-1.5,3.4c-0.5,1.1-0.8,2.1-1.1,3s-0.4,1.6-0.4,2.2v0.3c0,0.1,0,0.1,0,0.1c0.5,0,1.1-0.3,1.8-1
				c0.7-0.7,1.6-1.6,2.4-2.7c0.9-1.1,1.8-2.3,2.7-3.6c0.9-1.3,1.8-2.6,2.6-3.9c0.8-1.3,1.5-2.4,2.1-3.4S386.2,242.1,386.5,241.6z"/>
		</g>
	</g>
	<g>
		<g>
			<path class="st0" d="M114.5,190.9c1.1,0,2.1,0.2,3,0.6c0.9,0.4,1.7,1,2.4,1.7c0.7,0.7,1.2,1.5,1.6,2.5c0.4,1,0.6,2,0.6,3
				c0,2.5-0.4,5.2-1.1,8.3c-0.7,3.1-1.7,6.3-3,9.6c-1.3,3.4-2.8,6.8-4.6,10.2c-1.8,3.4-3.8,6.8-6,10c-2.2,3.2-4.5,6.3-7.1,9.1
				c-2.5,2.8-5.2,5.3-7.9,7.4c-2.7,2.1-5.5,3.8-8.4,5c-2.9,1.2-5.7,1.8-8.6,1.8c-2.1,0-3.9-0.2-5.3-0.7c-1.5-0.5-2.6-1.1-3.5-1.9
				c-0.9-0.8-1.5-1.7-1.9-2.7c-0.4-1-0.6-2-0.6-3c0-0.4,0-0.9,0.1-1.3c0-0.4,0.1-0.9,0.3-1.3c0.5-1.3,1.1-2.3,1.8-2.8
				c0.7-0.5,1.4-0.8,2.1-0.8c1,0,1.9,0.4,2.5,1.2c0.6,0.8,0.7,1.7,0.2,2.7c-0.2,0.4-0.4,0.7-0.4,1c0,0.3-0.1,0.6-0.1,0.9
				c0,1.4,1.5,2.1,4.4,2.1c2.5,0,5-0.8,7.4-2.2c2.4-1.5,4.7-3.5,6.9-6c2.2-2.5,4.3-5.4,6.2-8.6c2-3.2,3.8-6.6,5.5-10.1
				c1.7-3.5,3.2-7,4.5-10.4c1.3-3.4,2.4-6.6,3.3-9.6c-1.5,1.9-3.2,3.9-5.1,6.1c-1.9,2.2-3.8,4.4-5.8,6.6c-2,2.2-4.1,4.3-6.1,6.3
				c-2.1,2-4.1,3.8-6,5.4s-3.8,2.8-5.6,3.7c-1.8,0.9-3.3,1.4-4.6,1.4c-4.4,0-7.9-2-10.5-6c-2.6-4-3.9-10.1-3.9-18.5
				c0-4.5,0.6-9.1,1.9-13.8c1.2-4.7,3-9.3,5.2-13.7c2.3-4.4,4.9-8.6,8.1-12.5c3.1-3.9,6.5-7.3,10.3-10.2c3.7-2.9,7.7-5.2,12-6.9
				c4.2-1.7,8.6-2.5,13.1-2.5c4.6,0,8.1,1,10.6,3.1s3.7,5,3.7,8.8c0,2.7-0.4,5.2-1.2,7.6c-0.8,2.4-1.8,4.5-2.9,6.4
				c-1.1,1.8-2.2,3.3-3.3,4.4c-1.1,1.1-1.9,1.6-2.4,1.6c-0.3,0-0.6-0.2-0.7-0.7c-0.1-0.5-0.2-1-0.2-1.5c0-0.6,0.1-1.1,0.2-1.5
				c0.1-0.5,0.2-0.7,0.4-0.7c0.3,0,0.6-0.3,1-1c0.4-0.7,0.7-1.6,1-2.7c0.3-1.1,0.6-2.3,0.8-3.7c0.2-1.4,0.4-2.7,0.4-4
				c0-0.7-0.1-1.4-0.2-2.2c-0.1-0.8-0.4-1.6-0.7-2.3c-0.4-0.7-0.8-1.3-1.4-1.8c-0.6-0.5-1.3-0.7-2.1-0.7c-4.1,0-8.1,1.1-11.7,3.2
				c-3.7,2.1-7.1,4.9-10.1,8.3s-5.8,7.3-8.2,11.7c-2.4,4.4-4.5,8.8-6.2,13.3c-1.7,4.5-3,8.9-3.9,13.1c-0.9,4.2-1.4,7.9-1.4,11.1
				c0,2.5,0.3,4.5,0.8,6c0.5,1.5,1.4,2.2,2.5,2.2c0.9,0,2.2-0.7,4-2c1.8-1.4,3.7-3.1,6-5.3c2.2-2.2,4.5-4.6,7-7.3
				c2.5-2.7,4.8-5.3,7.1-8c2.3-2.6,4.4-5.1,6.4-7.4c1.9-2.3,3.5-4.2,4.7-5.6c0-0.1,0-0.1,0-0.1c0,0,0,0,0-0.1
				c-0.1-0.5-0.2-1-0.3-1.4c-0.1-0.4,0-0.8,0.2-1.1c0.2-0.3,0.6-0.5,1.1-0.7C112.6,191,113.4,190.9,114.5,190.9z"/>
			<path class="st0" d="M153.7,192.6c0.2-0.3,0.5-0.5,1.1-0.5c0.5,0,1.1,0.1,1.6,0.3s1,0.5,1.4,0.9c0.4,0.4,0.5,0.8,0.3,1.1
				c-0.5,1-1.2,2.5-2.2,4.5c-1,1.9-2.2,4-3.6,6.3c-1.4,2.3-2.9,4.6-4.6,7c-1.7,2.4-3.4,4.5-5.2,6.5c-1.8,1.9-3.6,3.5-5.5,4.7
				s-3.7,1.9-5.5,1.9c-2.4,0-4.3-0.9-5.8-2.6c-1.5-1.7-2.2-4.1-2.2-7c0-1,0.2-2.4,0.7-4c0.5-1.6,1.1-3.4,1.9-5.2
				c0.8-1.9,1.6-3.8,2.5-5.9c0.9-2,1.8-4,2.7-5.8c1.1-2.4,2.1-4.5,2.9-6.4c0.8-1.8,1.2-3,1.2-3.5c0-0.8,0.5-1.1,1.4-1
				c1,0.1,2,0.4,3.1,1c1.1,0.6,2.2,1.4,3.1,2.4c1,1,1.4,2,1.4,3.1c0,0.3-0.1,0.8-0.4,1.4c-0.2,0.7-0.5,1.4-0.9,2.3
				c-0.4,0.9-0.8,1.8-1.3,2.9c-0.5,1-1,2-1.4,3c-0.8,1.6-1.6,3.4-2.5,5.2c-0.9,1.9-1.7,3.6-2.4,5.4c-0.7,1.7-1.3,3.3-1.8,4.7
				c-0.5,1.5-0.7,2.6-0.7,3.4c0,0.4,0.1,0.6,0.2,0.6c1,0,2.2-0.6,3.5-1.7s2.7-2.5,4.1-4.2c1.4-1.7,2.8-3.6,4.2-5.7
				c1.4-2.1,2.7-4.1,3.8-6.1s2.2-3.8,3-5.4C152.7,194.6,153.3,193.4,153.7,192.6L153.7,192.6z M141.8,179c-0.9,0-1.5-0.3-1.9-1
				c-0.4-0.6-0.6-1.5-0.6-2.5c0-0.9,0.2-1.9,0.5-3.1s0.8-2.3,1.3-3.3c0.5-1,1.2-1.9,1.9-2.6s1.4-1.1,2.1-1.1c0.9,0,1.8,0.1,2.6,0.4
				c0.8,0.3,1.6,0.6,2.2,1.1c0.6,0.5,1.2,1.1,1.5,1.9c0.4,0.7,0.6,1.6,0.6,2.5c0,0.9-0.2,1.7-0.8,2.6c-0.5,0.9-1.2,1.7-2.1,2.5
				c-0.9,0.7-2,1.3-3.2,1.8C144.6,178.8,143.2,179,141.8,179z"/>
			<path class="st0" d="M188.4,192.7c0.5-0.9,1-1.4,1.7-1.7c0.6-0.3,1.2-0.3,1.8-0.1c0.5,0.2,0.9,0.6,1.1,1.3s0.1,1.4-0.2,2.3
				c-1.6,2.9-3.2,5.5-4.8,7.8c-0.7,1-1.5,1.9-2.2,2.8s-1.6,1.7-2.4,2.5c-0.8,0.7-1.7,1.3-2.5,1.7c-0.9,0.5-1.7,0.7-2.5,0.7
				c-0.6,0-1.1-0.1-1.7-0.2c-0.6-0.2-1.1-0.4-1.6-0.6c-0.8,1.5-1.8,3.2-3,5.1s-2.5,3.6-4,5.2c-1.5,1.6-3.1,3-4.9,4.1
				c-1.7,1.1-3.6,1.6-5.5,1.6c-1.7,0-3.3-0.4-4.8-1.1c-1.5-0.8-2.8-1.7-3.9-2.9c-1.1-1.2-2-2.5-2.6-3.8c-0.6-1.4-1-2.7-1-3.9
				c0-1.3,0.2-2.6,0.5-4c0.4-1.4,0.8-2.8,1.4-4.2c0.6-1.4,1.3-2.8,2-4.2c0.7-1.4,1.5-2.8,2.2-4.2c1.2-2.3,2.3-4.5,3.3-6.6
				c1-2.1,1.5-3.8,1.5-5.2c0-0.8,0.5-1.2,1.6-1.2c1,0,2.2,0.2,3.5,0.8c1.3,0.6,2.5,1.4,3.5,2.5c1,1.1,1.6,2.3,1.6,3.7
				c0,1-0.4,2.3-1.2,4.2c-0.8,1.8-1.8,3.9-2.9,6.2c-0.7,1.5-1.5,3-2.2,4.6c-0.8,1.6-1.4,3.1-2,4.6c-0.6,1.5-1.1,2.9-1.5,4.2
				c-0.4,1.3-0.6,2.4-0.6,3.4c0,1.3,0.6,2,1.8,2c1.6,0,3.1-0.5,4.5-1.5c1.4-1,2.7-2.3,3.9-3.7c1.2-1.5,2.2-3,3.1-4.6
				c0.9-1.6,1.6-3,2.2-4.1c-1.2-1.7-1.9-3.4-1.9-5.2c0-1.1,0.2-2.3,0.7-3.5c0.5-1.2,1-2.4,1.6-3.6c0.7-1.4,1.3-2.8,1.9-4.2
				c0.6-1.5,0.9-2.9,0.9-4.4c0-0.8,0.5-1.2,1.6-1.2c1,0,2.2,0.2,3.5,0.8c1.3,0.6,2.5,1.4,3.5,2.5c1,1.1,1.6,2.3,1.6,3.7
				c0,1.2-0.4,2.6-1.1,4.3c-0.8,1.7-1.5,3.3-2.4,4.9c-0.4,0.7-0.7,1.4-1.1,2.1c-0.3,0.7-0.6,1.3-0.9,1.8c-0.3,0.5-0.5,0.9-0.6,1.2
				c-0.2,0.3-0.2,0.5-0.2,0.5c0.4,0,0.9-0.2,1.4-0.5c0.5-0.4,1.1-0.8,1.6-1.4c0.5-0.6,1.1-1.3,1.6-2c0.5-0.8,1.1-1.5,1.6-2.4
				C186,197.3,187.2,195.2,188.4,192.7L188.4,192.7z"/>
			<path class="st0" d="M222.7,192.9c0.2-0.4,0.6-0.6,1.1-0.6s1.1,0.1,1.6,0.3c0.5,0.2,1,0.5,1.3,0.9c0.4,0.4,0.5,0.8,0.3,1.1
				c-0.5,1-1.2,2.4-2.2,4.2c-1,1.9-2.2,3.9-3.6,6.2c-1.5,2.3-3.1,4.6-5,7s-3.9,4.5-6.1,6.5c-2.2,2-4.6,3.5-7.2,4.8s-5.3,1.9-8.1,1.9
				c-2.4,0-4.4-0.5-6.1-1.5s-3.1-2.3-4.3-3.8c-1.1-1.5-2-3.2-2.5-5c-0.5-1.8-0.8-3.5-0.8-5.2c0-3.3,0.8-6.6,2.4-9.9
				c1.6-3.3,3.7-6.2,6.4-8.7c2.6-2.6,5.6-4.7,8.9-6.2c3.3-1.6,6.7-2.4,10.1-2.4c2.2,0,3.8,0.5,4.8,1.5c1,1,1.5,2.3,1.5,4
				c0,1.2-0.3,2.7-1,4.2c-0.6,1.6-1.5,3.2-2.6,5c-1.1,1.7-2.4,3.4-3.8,5.1c-1.4,1.7-2.9,3.2-4.5,4.6c-1.6,1.4-3.2,2.6-4.9,3.5
				c-1.7,1-3.3,1.6-4.8,2c-0.2,0.9-0.3,1.8-0.3,2.7c0,1.1,0.2,2,0.6,2.7c0.4,0.7,1,1,1.9,1c2.1,0,4.2-0.5,6.2-1.6s4-2.4,5.9-4.1
				c1.9-1.7,3.6-3.5,5.2-5.5s3.1-4,4.4-5.9c1.3-1.9,2.4-3.7,3.2-5.2C221.7,194.8,222.3,193.6,222.7,192.9z M209.8,187.5
				c-1.1,0-2.4,0.6-3.7,1.7c-1.4,1.1-2.7,2.6-4,4.4c-1.3,1.8-2.5,3.8-3.7,6c-1.2,2.2-2.2,4.4-3,6.6c1.7-0.9,3.4-2.1,5.2-3.7
				c1.8-1.6,3.4-3.3,4.8-5.1c1.4-1.8,2.6-3.6,3.5-5.3c0.9-1.7,1.3-3.1,1.3-4.1C210.2,187.7,210.1,187.5,209.8,187.5z"/>
		</g>
	</g>
	<g>
		<g>
			<path class="st2" d="M182.3,299.3c8.4,0,15.4,0.8,21,2.3c5.6,1.5,10,3.4,13.4,5.6c3.3,2.2,5.7,4.5,7.1,6.9s2.1,4.5,2.1,6.2
				c0,1.7-0.5,3.1-1.6,4.4c-1.1,1.2-2.4,1.9-4.2,1.9c-1.2,0-2.1-0.2-2.7-0.5c-0.6-0.3-0.9-0.8-1.1-1.3c-0.2-0.6-0.2-1.2,0-1.9
				c0.1-0.7,0.3-1.4,0.5-2c0.1-0.4,0.2-0.7,0.2-1c0-1-0.4-2-1.2-3.1c-0.8-1.1-1.9-2.1-3.4-3c-1.5-0.9-3.4-1.7-5.6-2.3
				c-2.2-0.6-4.7-0.9-7.6-0.9c-11.6,0-22.5,0.8-32.9,2.5c-10.3,1.7-20,3.8-28.8,6.3c-8.9,2.5-17,5.2-24.3,8.1
				c-7.3,2.9-13.8,5.5-19.3,7.9c-1.1,0.5-1.9,0.9-2.4,1.1c-0.5,0.2-0.9,0.5-1.3,0.6c-0.3,0.2-0.7,0.3-1.1,0.5
				c-0.4,0.2-1,0.4-1.9,0.8c5.1,1,9.6,2.5,13.6,4.6c4,2.1,7,4.6,9,7.6c1.4-2.5,2.6-4.9,3.9-7.2c1.2-2.3,2.2-4.3,3.1-6.1
				c0.9-1.8,1.6-3.3,2.1-4.5c0.5-1.2,0.8-2,0.8-2.4c0-1.2,0.6-1.7,1.9-1.5c1.2,0.2,2.6,0.7,4.1,1.6s2.8,2.1,4.1,3.5
				c1.2,1.4,1.9,2.7,1.9,3.9c0,1.4-0.4,3.3-1.2,5.5c-0.8,2.3-1.9,4.8-3.2,7.6c-1.3,2.8-2.8,5.8-4.6,8.9c-1.7,3.2-3.4,6.3-5.2,9.6
				c-1.8,3.3-3.5,6.5-5.2,9.7c-1.7,3.2-3.2,6.2-4.6,9c-1.4,2.8-2.4,5.3-3.2,7.5c-0.8,2.2-1.2,3.9-1.2,5.2c0,2.4,0.2,4.4,0.5,6.1
				c0.3,1.7,0.6,3.2,0.8,4.4l-0.1-0.1c0.2,1.1,0.4,2.1,0.6,2.9c0.2,0.8,0.2,1.5,0,2c-0.2,0.5-0.5,0.9-1.1,1.1
				c-0.6,0.2-1.4,0.3-2.5,0.3c-1.2,0-2.5-0.4-4-1.3c-1.5-0.9-2.9-2.2-4.3-3.8c-1.3-1.6-2.4-3.6-3.3-5.9c-0.9-2.3-1.3-4.9-1.3-7.8
				c0-1.7,0.4-3.9,1.3-6.6c0.9-2.7,2.1-5.8,3.6-9.2c1.5-3.4,3.2-7,5.1-10.7c1.9-3.7,3.8-7.5,5.8-11.2c0.1-0.5,0.2-1,0.4-1.4
				c0.1-0.4,0.2-0.8,0.2-1.2c0-1.5-0.5-3-1.6-4.4c-1.1-1.4-2.5-2.7-4.2-3.8c-1.8-1.1-3.8-2.2-6.1-3.1c-2.3-0.9-4.7-1.7-7.2-2.3
				c-2.5-0.6-5-1.1-7.5-1.4c-2.5-0.3-4.9-0.5-7.1-0.5c-1.5,0-2.9-0.3-4.4-1c-1.4-0.7-2.7-1.5-3.8-2.5c-1.1-1-2-2.1-2.7-3.2
				c-0.7-1.1-1-2.2-1-3.1c0-1.3,0.5-2.4,1.5-3.3c1-0.9,2.6-1.3,4.9-1.3c0.9,0,2.8-0.5,5.9-1.5c3-1,6.9-2.4,11.5-4
				c4-1.4,8.4-3,13.2-4.7c4.9-1.7,10-3.5,15.5-5.3c5.5-1.8,11.2-3.5,17.1-5.2c5.9-1.6,11.9-3.1,18-4.4c6.1-1.3,12.1-2.3,18.1-3.1
				C170.9,299.7,176.7,299.3,182.3,299.3z"/>
			<path class="st2" d="M182.3,360.6c0.2-0.5,0.7-0.7,1.4-0.7c0.7,0,1.4,0.1,2.1,0.4c0.7,0.3,1.3,0.7,1.7,1.2c0.5,0.5,0.6,1,0.4,1.5
				c-0.6,1.2-1.6,3.1-2.8,5.5c-1.3,2.4-2.8,5.1-4.7,8.1c-1.9,2.9-4,6-6.5,9.1c-2.4,3.1-5.1,5.9-8,8.5c-2.9,2.5-6,4.6-9.4,6.2
				c-3.3,1.6-6.8,2.4-10.5,2.4c-3.1,0-5.8-0.7-8-2c-2.2-1.3-4.1-2.9-5.6-4.9c-1.5-2-2.6-4.1-3.3-6.5c-0.7-2.4-1.1-4.6-1.1-6.8
				c0-4.3,1.1-8.6,3.2-12.9c2.1-4.2,4.9-8,8.3-11.4s7.3-6.1,11.6-8.1c4.3-2.1,8.7-3.1,13.1-3.1c2.9,0,5,0.7,6.3,2
				c1.3,1.3,1.9,3,1.9,5.2c0,1.6-0.4,3.5-1.3,5.5c-0.8,2.1-2,4.2-3.4,6.5c-1.4,2.2-3.1,4.4-4.9,6.6c-1.9,2.2-3.8,4.1-5.9,5.9
				c-2.1,1.8-4.2,3.3-6.4,4.6c-2.2,1.3-4.2,2.1-6.2,2.6c-0.2,1.2-0.4,2.4-0.4,3.5c0,1.4,0.2,2.6,0.7,3.5c0.5,0.9,1.3,1.3,2.5,1.3
				c2.7,0,5.4-0.7,8.1-2.1c2.7-1.4,5.2-3.2,7.6-5.3c2.4-2.2,4.7-4.6,6.8-7.2c2.1-2.6,4-5.2,5.7-7.7s3.1-4.8,4.2-6.8
				C180.9,363.1,181.8,361.6,182.3,360.6z M165.5,353.6c-1.5,0-3.1,0.7-4.9,2.2c-1.8,1.5-3.5,3.3-5.2,5.7c-1.7,2.3-3.3,4.9-4.8,7.8
				c-1.5,2.9-2.8,5.8-3.9,8.6c2.2-1.1,4.5-2.7,6.8-4.8c2.3-2.1,4.4-4.3,6.2-6.7c1.9-2.4,3.4-4.6,4.5-6.9c1.1-2.2,1.7-4,1.7-5.4
				C166,353.8,165.8,353.6,165.5,353.6z"/>
			<path class="st2" d="M171.9,384.4c0-2.7,0.4-5.4,1.3-8.3c0.9-2.9,2.1-5.7,3.7-8.5s3.5-5.4,5.6-7.9c2.2-2.5,4.5-4.7,7-6.6
				c2.5-1.9,5.1-3.4,7.8-4.5c2.7-1.1,5.4-1.7,8.2-1.7c2.4,0,4.3,0.3,6,1c1.6,0.6,3,1.5,4,2.5c1.1,1,1.9,2.2,2.4,3.4
				c0.6,1.2,0.9,2.4,1.2,3.6c0.2,1.1,0.3,2.2,0.2,3.1c-0.1,0.9-0.2,1.6-0.4,2h0.1c-0.2,0.5-0.6,0.7-1.2,0.7c-0.6,0-1.2-0.2-1.8-0.4
				c-0.6-0.2-1.1-0.5-1.6-0.8c-0.5-0.3-0.7-0.6-0.6-0.8c0.1-0.1,0.1-0.5,0-1c0-0.6-0.2-1.1-0.6-1.7c-0.3-0.6-0.9-1.1-1.7-1.6
				c-0.8-0.5-1.9-0.7-3.3-0.7c-1.5,0-3.1,0.7-4.8,2c-1.7,1.3-3.4,3-5.1,5.1c-1.7,2.1-3.3,4.4-4.8,7.1s-2.9,5.3-4,8
				c-1.1,2.7-2.1,5.3-2.8,7.8c-0.7,2.5-1.1,4.7-1.1,6.5c0,2.2,0.7,3.3,2,3.3c1.5,0,3.1-0.7,4.7-2c1.6-1.4,3.2-3.1,4.7-5.2
				c1.5-2.1,2.9-4.4,4.2-7c1.3-2.5,2.4-5,3.4-7.2c1-2.3,1.8-4.3,2.3-6c0.6-1.7,0.8-2.9,0.8-3.4s0.3-0.9,0.9-1
				c0.6-0.1,1.4-0.1,2.3,0.2c0.9,0.2,1.9,0.6,3,1.1c1.1,0.5,2.1,1,3,1.6c0.9,0.6,1.7,1.2,2.3,1.9c0.6,0.6,0.9,1.2,0.9,1.7
				c0,0.7-0.3,1.8-1,3.3c-0.6,1.5-1.4,3.3-2.3,5.3c-0.6,1.4-1.3,2.8-1.9,4.3s-1.2,2.9-1.8,4.4c-0.5,1.4-1,2.8-1.3,4
				c-0.3,1.2-0.5,2.3-0.5,3.1c0,0.3,0,0.5-0.1,0.5c0.9,0,2-0.7,3.3-2.2c1.3-1.5,2.8-3.3,4.3-5.6c1.5-2.3,3.1-4.8,4.7-7.5
				c1.6-2.7,3.1-5.4,4.5-7.9c1.4-2.6,2.6-4.9,3.7-7c1.1-2.1,1.8-3.6,2.3-4.6c0.2-0.5,0.7-0.7,1.4-0.7c0.7,0,1.4,0.1,2.1,0.4
				c0.7,0.3,1.3,0.7,1.7,1.2c0.5,0.5,0.6,1,0.4,1.5c-0.6,1.2-1.5,3.1-2.7,5.6c-1.3,2.5-2.7,5.2-4.4,8.2c-1.7,3-3.5,6-5.4,9.1
				c-2,3.1-3.9,6-5.9,8.5c-2,2.5-4,4.6-5.9,6.3s-3.7,2.5-5.3,2.5c-1.8,0-3.4-0.4-4.7-1.3c-1.3-0.9-2.5-1.9-3.4-2.9
				c-1.1-1.2-2-2.7-2.8-4.4c-0.7,0.9-1.6,1.8-2.6,2.8c-1,1-2.1,1.9-3.2,2.8c-1.1,0.9-2.3,1.6-3.6,2.2c-1.3,0.6-2.5,0.9-3.7,0.9
				c-2.4,0-4.5-0.5-6.4-1.6c-1.8-1.1-3.4-2.5-4.6-4.3c-1.2-1.8-2.2-3.7-2.8-5.9C172.2,388.7,171.9,386.5,171.9,384.4z"/>
			<path class="st2" d="M242.5,402.7c-3,0-5.7-0.7-7.9-2c-2.2-1.3-4.1-3-5.6-5c-1.5-2-2.6-4.2-3.3-6.5c-0.7-2.4-1.1-4.6-1.1-6.8
				c0-4.3,1.1-8.6,3.2-12.9c2.1-4.2,4.9-8,8.3-11.4c3.4-3.4,7.3-6.1,11.7-8.2c4.3-2.1,8.7-3.1,13.2-3.1c3,0,5.1,0.8,6.2,2.5
				c1.1,1.7,1.6,3.7,1.6,6c0,2-0.3,3.9-0.8,5.7c-0.5,1.8-0.9,3.2-1.2,4c0,0.1,0,0.1,0,0.1c0,0,0,0,0,0.1v0.1
				c-0.2,0.5-0.6,0.8-1.3,0.9c-0.7,0.1-1.4,0.1-2.1,0c-0.7-0.2-1.4-0.4-1.9-0.8c-0.5-0.4-0.6-0.8-0.5-1.3v0.1c0.3-1,0.6-2,0.8-3.2
				c0.2-0.9,0.5-1.9,0.7-3c0.2-1.1,0.3-2.1,0.3-3c0-0.6,0-1.1-0.1-1.5c-0.1-0.4-0.2-0.6-0.5-0.6c-1.4,0-3,0.6-4.6,1.9
				c-1.6,1.2-3.2,2.9-4.8,4.9s-3.1,4.4-4.6,7c-1.5,2.6-2.8,5.3-3.9,8c-1.1,2.7-2,5.3-2.7,7.9c-0.7,2.6-1,4.8-1,6.8
				c0,1.4,0.2,2.6,0.7,3.5c0.5,0.9,1.3,1.3,2.4,1.3c2.8,0,5.6-0.7,8.3-2.1c2.7-1.4,5.2-3.2,7.6-5.4c2.4-2.2,4.7-4.6,6.8-7.2
				c2.1-2.6,4-5.2,5.6-7.7c1.6-2.5,3-4.8,4.1-6.8c1.1-2,1.9-3.6,2.4-4.6c0.6-1.1,1.4-1.8,2.2-2.2c0.9-0.3,1.6-0.4,2.3-0.1
				c0.7,0.2,1.2,0.8,1.5,1.6c0.3,0.8,0.2,1.8-0.4,3c-0.6,1.2-1.6,3.1-2.9,5.6c-1.3,2.5-3,5.2-4.9,8.1c-2,2.9-4.2,6-6.6,9.1
				c-2.5,3.1-5.2,5.9-8.1,8.5c-2.9,2.6-6,4.7-9.2,6.3C249.2,401.9,245.9,402.7,242.5,402.7z"/>
			<path class="st2" d="M328.3,360.6c0.2-0.5,0.7-0.7,1.4-0.7c0.7,0,1.4,0.1,2.1,0.4c0.7,0.3,1.3,0.7,1.7,1.2c0.5,0.5,0.6,1,0.4,1.5
				c-0.6,1.2-1.6,3.1-3,5.5c-1.4,2.4-3.1,5.1-5,8.1c-2,2.9-4.1,6-6.3,9.1c-2.3,3.1-4.6,5.9-6.9,8.5c-2.3,2.5-4.6,4.6-6.9,6.2
				c-2.3,1.6-4.3,2.4-6.1,2.4c-3,0-5.5-1.1-7.5-3.4c-2-2.3-3-5.3-3-9.1c0-1.3,0.3-2.9,0.8-4.8c0.5-1.9,1.2-4,2.1-6.3
				c0.9-2.3,1.8-4.6,2.9-7c1.1-2.4,2.1-4.8,3.2-7.2c-2,2.4-4.1,4.9-6.4,7.6s-4.3,5.3-6.3,7.9c-2,2.6-3.8,5.1-5.4,7.4
				c-1.6,2.3-2.8,4.3-3.5,6c-0.2,0.7-0.3,1.3-0.3,1.8l0.2,0.7c0.1,0.2,0.1,0.4,0.1,0.6c0,0.2,0.1,0.5,0.1,0.7l-0.1-0.1
				c0.2,0.7,0.3,1.4,0.5,2c0.1,0.6,0.1,1.2,0,1.6c-0.1,0.5-0.4,0.8-0.9,1.1c-0.5,0.3-1.2,0.4-2.2,0.4c-1.2,0-2.5-0.3-3.8-0.9
				c-1.3-0.6-2.4-1.4-3.4-2.5c-1-1.1-1.9-2.4-2.6-3.9c-0.7-1.5-1-3.2-1-5.1c0-1.5,0.4-3.6,1.2-6.1s1.9-5.4,3.2-8.5
				c1.3-3.2,2.8-6.5,4.6-10.1c1.7-3.6,3.5-7.2,5.2-11c1.7-3.6,3.4-7.2,5.1-10.7s3.2-6.8,4.5-9.8c1.3-3,2.4-5.7,3.2-8.1
				c0.8-2.4,1.2-4.3,1.2-5.6c0-1,0.7-1.4,2.1-1.3c1.4,0.1,2.9,0.6,4.6,1.4c1.7,0.8,3.3,1.9,4.6,3.2c1.4,1.3,2.1,2.6,2.1,3.9
				c0,1.6-0.5,3.7-1.4,6.4c-0.9,2.6-2.1,5.6-3.5,8.8c-1.4,3.2-3.1,6.7-4.9,10.4c-1.9,3.7-3.7,7.5-5.6,11.2l-0.7,1.4v0.1
				c1.9-2.3,3.7-4.5,5.7-6.7c1.9-2.2,3.7-4.2,5.4-5.9c1.7-1.8,3.2-3.2,4.5-4.3c1.3-1.1,2.3-1.7,3-1.9c0.7-0.1,1.6,0.2,2.7,0.8
				c1.1,0.6,2.1,1.4,3.1,2.4c1,1,1.8,2.1,2.6,3.3c0.7,1.2,1.1,2.5,1.1,3.7c0,0.9-0.5,2.5-1.6,4.8c-1.1,2.3-2.3,4.9-3.7,7.9
				c-1.1,2.2-2.2,4.4-3.3,6.8c-1.1,2.4-2.2,4.6-3.1,6.9c-0.9,2.2-1.7,4.3-2.3,6.1s-0.9,3.3-0.9,4.5v0.7c0,0.1,0,0.2,0.1,0.2
				c0.9,0,2.2-0.7,3.7-2.1c1.5-1.4,3.2-3.3,5-5.5c1.8-2.2,3.6-4.7,5.5-7.4c1.9-2.7,3.7-5.3,5.3-7.9c1.6-2.6,3.1-4.9,4.3-6.9
				C326.9,363.1,327.8,361.6,328.3,360.6z"/>
		</g>
	</g>
	<g>
		<g>
			<path class="st0" d="M85.6,290.2L85.6,290.2c-0.4,0.6-1,1.1-1.6,1.3c-0.7,0.3-1.4,0.4-2.1,0.4c-0.5,0-1.1-0.1-1.6-0.2
				c-0.5-0.2-0.9-0.4-1.3-0.7c-0.4-0.3-0.7-0.7-0.9-1.1s-0.3-1-0.3-1.6c0-0.7,0.1-1.2,0.4-1.7s0.6-0.8,1-1.2
				c0.4-0.3,0.9-0.5,1.5-0.7s1.1-0.3,1.7-0.4c0.6-0.1,1.2-0.1,1.8-0.1c0.6,0,1.1,0,1.6,0c0-0.6-0.2-1.1-0.7-1.5
				c-0.5-0.4-1-0.6-1.6-0.6c-0.6,0-1.1,0.1-1.6,0.4c-0.5,0.2-0.9,0.6-1.3,1l-1.9-2c0.7-0.6,1.5-1.1,2.4-1.4c0.9-0.3,1.8-0.5,2.8-0.5
				c1.1,0,1.9,0.1,2.6,0.4c0.7,0.3,1.2,0.7,1.6,1.2c0.4,0.5,0.7,1.1,0.9,1.9c0.2,0.7,0.2,1.6,0.2,2.6v5.9h-3.3V290.2z M84.7,286.6
				c-0.3,0-0.6,0-1,0c-0.4,0-0.8,0.1-1.2,0.2c-0.4,0.1-0.7,0.3-1,0.5c-0.3,0.2-0.4,0.5-0.4,0.9c0,0.4,0.2,0.8,0.6,1
				c0.4,0.2,0.8,0.3,1.2,0.3c0.4,0,0.7,0,1-0.1c0.3-0.1,0.6-0.2,0.9-0.4s0.5-0.4,0.6-0.7s0.2-0.6,0.2-1v-0.8H84.7z"/>
			<path class="st0" d="M91.2,280h3.5v1.6h0c0.1-0.2,0.3-0.4,0.5-0.7c0.2-0.2,0.5-0.4,0.7-0.6c0.3-0.2,0.6-0.3,1-0.4
				c0.4-0.1,0.8-0.2,1.2-0.2c0.9,0,1.6,0.1,2.2,0.4c0.6,0.3,1,0.7,1.3,1.2c0.3,0.5,0.5,1.1,0.6,1.8c0.1,0.7,0.2,1.4,0.2,2.2v6.4
				h-3.6V286c0-0.3,0-0.7,0-1c0-0.4-0.1-0.7-0.2-1c-0.1-0.3-0.3-0.6-0.6-0.7c-0.2-0.2-0.6-0.3-1.1-0.3c-0.5,0-0.8,0.1-1.1,0.3
				c-0.3,0.2-0.5,0.4-0.7,0.7c-0.2,0.3-0.3,0.6-0.3,0.9c0,0.4-0.1,0.7-0.1,1.1v5.8h-3.6V280z"/>
			<path class="st0" d="M117.2,291.7h-3.3v-1.5h0c-0.1,0.2-0.3,0.4-0.6,0.6c-0.2,0.2-0.5,0.4-0.8,0.6c-0.3,0.2-0.7,0.3-1,0.4
				c-0.4,0.1-0.8,0.2-1.2,0.2c-0.9,0-1.6-0.1-2.4-0.4s-1.3-0.7-1.8-1.2c-0.5-0.5-0.9-1.2-1.2-1.9c-0.3-0.7-0.4-1.5-0.4-2.4
				c0-0.8,0.1-1.6,0.4-2.3s0.6-1.4,1.1-2c0.5-0.6,1-1,1.7-1.4c0.7-0.3,1.4-0.5,2.2-0.5c0.8,0,1.5,0.1,2.1,0.3
				c0.6,0.2,1.2,0.6,1.6,1.2h0v-7.7h3.6V291.7z M113.9,285.9c0-0.9-0.3-1.6-0.8-2.1s-1.2-0.8-2.1-0.8c-0.9,0-1.6,0.3-2.1,0.8
				s-0.8,1.3-0.8,2.1s0.3,1.6,0.8,2.1s1.2,0.8,2.1,0.8c0.9,0,1.6-0.3,2.1-0.8S113.9,286.8,113.9,285.9z"/>
			<path class="st0" d="M133.9,293.6c-0.2,0.6-0.5,1.2-0.7,1.7c-0.2,0.5-0.5,0.9-0.9,1.2c-0.3,0.3-0.8,0.6-1.3,0.7
				c-0.5,0.2-1.2,0.3-2.1,0.3c-0.9,0-1.8-0.1-2.7-0.4l0.5-3c0.5,0.2,1.1,0.4,1.7,0.4c0.4,0,0.7,0,1-0.1s0.5-0.2,0.6-0.4
				s0.3-0.4,0.4-0.6c0.1-0.2,0.2-0.5,0.4-0.8l0.3-0.7L126,280h3.9l3,7.7h0l2.6-7.7h3.7L133.9,293.6z"/>
			<path class="st0" d="M140.1,285.9c0-0.9,0.2-1.8,0.5-2.5s0.8-1.4,1.4-1.9c0.6-0.5,1.3-0.9,2.1-1.2c0.8-0.3,1.6-0.4,2.5-0.4
				c0.9,0,1.7,0.1,2.5,0.4c0.8,0.3,1.5,0.7,2.1,1.2s1,1.2,1.4,1.9s0.5,1.6,0.5,2.5s-0.2,1.8-0.5,2.5s-0.8,1.4-1.4,1.9
				s-1.3,0.9-2.1,1.2c-0.8,0.3-1.6,0.4-2.5,0.4c-0.9,0-1.7-0.1-2.5-0.4c-0.8-0.3-1.5-0.7-2.1-1.2c-0.6-0.5-1-1.2-1.4-1.9
				S140.1,286.8,140.1,285.9z M143.7,285.9c0,0.9,0.3,1.6,0.8,2.1c0.5,0.5,1.2,0.8,2.1,0.8s1.6-0.3,2.1-0.8c0.5-0.5,0.8-1.3,0.8-2.1
				s-0.3-1.6-0.8-2.1c-0.5-0.5-1.2-0.8-2.1-0.8s-1.6,0.3-2.1,0.8C143.9,284.3,143.7,285,143.7,285.9z"/>
			<path class="st0" d="M166.4,291.7h-3.5v-1.6h0c-0.1,0.2-0.3,0.4-0.5,0.7c-0.2,0.2-0.4,0.4-0.7,0.6c-0.3,0.2-0.6,0.3-1,0.4
				c-0.4,0.1-0.8,0.2-1.2,0.2c-0.9,0-1.7-0.1-2.2-0.4c-0.6-0.3-1-0.7-1.3-1.2c-0.3-0.5-0.5-1.1-0.6-1.8c-0.1-0.7-0.2-1.4-0.2-2.2
				V280h3.6v5.7c0,0.3,0,0.7,0,1c0,0.4,0.1,0.7,0.2,1c0.1,0.3,0.3,0.6,0.6,0.7s0.6,0.3,1.1,0.3s0.8-0.1,1.1-0.3s0.5-0.4,0.7-0.7
				s0.3-0.6,0.3-0.9c0-0.4,0.1-0.7,0.1-1.1V280h3.6V291.7z"/>
			<path class="st0" d="M177.3,282.9h-2.4V280h2.4V278c0-0.6,0.1-1.2,0.2-1.8c0.1-0.6,0.3-1.1,0.6-1.5c0.3-0.4,0.8-0.8,1.4-1
				c0.6-0.2,1.4-0.4,2.4-0.4c0.4,0,0.7,0,1.1,0c0.4,0,0.7,0.1,1,0.2l-0.2,3c-0.2-0.1-0.4-0.1-0.6-0.2s-0.4-0.1-0.6-0.1
				c-0.6,0-1,0.1-1.3,0.4c-0.3,0.2-0.4,0.8-0.4,1.5v1.8h2.7v2.9h-2.7v8.8h-3.6V282.9z"/>
			<path class="st0" d="M195.9,289.7c-0.6,0.7-1.3,1.3-2.2,1.7c-0.9,0.4-1.8,0.6-2.7,0.6c-0.9,0-1.7-0.1-2.5-0.4
				c-0.8-0.3-1.5-0.7-2.1-1.2s-1-1.2-1.4-1.9s-0.5-1.6-0.5-2.5s0.2-1.8,0.5-2.5s0.8-1.4,1.4-1.9s1.3-0.9,2.1-1.2
				c0.8-0.3,1.6-0.4,2.5-0.4c0.8,0,1.6,0.1,2.3,0.4c0.7,0.3,1.3,0.7,1.7,1.2c0.5,0.5,0.8,1.2,1.1,1.9c0.3,0.8,0.4,1.6,0.4,2.5v1.1
				h-8.4c0.1,0.7,0.5,1.2,0.9,1.6c0.5,0.4,1.1,0.6,1.8,0.6c0.6,0,1.1-0.1,1.5-0.4c0.4-0.3,0.8-0.6,1.1-1L195.9,289.7z M192.9,284.6
				c0-0.6-0.2-1.1-0.6-1.6s-1-0.6-1.6-0.6c-0.4,0-0.8,0.1-1.1,0.2c-0.3,0.1-0.6,0.3-0.8,0.5c-0.2,0.2-0.4,0.4-0.5,0.7
				c-0.1,0.3-0.2,0.5-0.2,0.8H192.9z"/>
			<path class="st0" d="M209.7,289.7c-0.6,0.7-1.3,1.3-2.2,1.7c-0.9,0.4-1.8,0.6-2.7,0.6c-0.9,0-1.7-0.1-2.5-0.4
				c-0.8-0.3-1.5-0.7-2.1-1.2s-1-1.2-1.4-1.9s-0.5-1.6-0.5-2.5s0.2-1.8,0.5-2.5s0.8-1.4,1.4-1.9s1.3-0.9,2.1-1.2
				c0.8-0.3,1.6-0.4,2.5-0.4c0.8,0,1.6,0.1,2.3,0.4c0.7,0.3,1.3,0.7,1.7,1.2s0.8,1.2,1.1,1.9c0.3,0.8,0.4,1.6,0.4,2.5v1.1h-8.4
				c0.1,0.7,0.5,1.2,0.9,1.6c0.5,0.4,1.1,0.6,1.8,0.6c0.6,0,1.1-0.1,1.5-0.4c0.4-0.3,0.8-0.6,1.1-1L209.7,289.7z M206.7,284.6
				c0-0.6-0.2-1.1-0.6-1.6s-1-0.6-1.6-0.6c-0.4,0-0.8,0.1-1.1,0.2s-0.6,0.3-0.8,0.5s-0.4,0.4-0.5,0.7c-0.1,0.3-0.2,0.5-0.2,0.8
				H206.7z"/>
			<path class="st0" d="M224.7,291.7h-3.3v-1.5h0c-0.1,0.2-0.3,0.4-0.6,0.6c-0.2,0.2-0.5,0.4-0.8,0.6c-0.3,0.2-0.7,0.3-1,0.4
				c-0.4,0.1-0.8,0.2-1.2,0.2c-0.9,0-1.6-0.1-2.4-0.4s-1.3-0.7-1.8-1.2c-0.5-0.5-0.9-1.2-1.2-1.9c-0.3-0.7-0.4-1.5-0.4-2.4
				c0-0.8,0.1-1.6,0.4-2.3s0.6-1.4,1.1-2c0.5-0.6,1-1,1.7-1.4c0.7-0.3,1.4-0.5,2.2-0.5c0.8,0,1.5,0.1,2.1,0.3
				c0.6,0.2,1.2,0.6,1.6,1.2h0v-7.7h3.6V291.7z M221.4,285.9c0-0.9-0.3-1.6-0.8-2.1s-1.2-0.8-2.1-0.8s-1.6,0.3-2.1,0.8
				s-0.8,1.3-0.8,2.1s0.3,1.6,0.8,2.1s1.2,0.8,2.1,0.8s1.6-0.3,2.1-0.8S221.4,286.8,221.4,285.9z"/>
			<path class="st0" d="M238.3,273.6v8.1h0c0.1-0.2,0.2-0.4,0.4-0.7c0.2-0.2,0.4-0.4,0.7-0.6c0.3-0.2,0.6-0.3,1-0.4
				c0.4-0.1,0.8-0.2,1.2-0.2c0.9,0,1.6,0.1,2.2,0.4c0.6,0.3,1,0.7,1.3,1.2c0.3,0.5,0.5,1.1,0.6,1.8c0.1,0.7,0.2,1.4,0.2,2.2v6.4
				h-3.6V286c0-0.3,0-0.7,0-1c0-0.4-0.1-0.7-0.2-1s-0.3-0.6-0.6-0.7s-0.6-0.3-1.1-0.3c-0.5,0-0.8,0.1-1.1,0.3s-0.5,0.4-0.7,0.7
				c-0.2,0.3-0.3,0.6-0.3,0.9c0,0.4-0.1,0.7-0.1,1.1v5.8h-3.6v-18.1H238.3z"/>
			<path class="st0" d="M248.2,276.4c0-0.6,0.2-1.1,0.6-1.5c0.4-0.4,0.9-0.6,1.5-0.6s1.1,0.2,1.5,0.6c0.4,0.4,0.6,0.9,0.6,1.5
				s-0.2,1.1-0.6,1.5c-0.4,0.4-0.9,0.6-1.5,0.6s-1.1-0.2-1.5-0.6C248.4,277.4,248.2,276.9,248.2,276.4z M248.5,280h3.6v11.7h-3.6
				V280z"/>
			<path class="st0" d="M254.7,280h3.5v1.6h0c0.1-0.2,0.3-0.4,0.5-0.7c0.2-0.2,0.5-0.4,0.7-0.6c0.3-0.2,0.6-0.3,1-0.4
				c0.4-0.1,0.8-0.2,1.2-0.2c0.8,0,1.5,0.2,2.2,0.5c0.6,0.3,1.1,0.9,1.4,1.6c0.4-0.8,0.9-1.3,1.5-1.6s1.3-0.5,2.2-0.5
				c0.8,0,1.4,0.1,2,0.4c0.5,0.3,1,0.6,1.3,1.1c0.3,0.5,0.5,1,0.7,1.6c0.1,0.6,0.2,1.3,0.2,2v6.9h-3.6v-6.8c0-0.5-0.1-1-0.3-1.4
				c-0.2-0.4-0.6-0.6-1.2-0.6c-0.4,0-0.8,0.1-1,0.2s-0.5,0.3-0.7,0.6c-0.2,0.2-0.3,0.5-0.4,0.8c-0.1,0.3-0.1,0.7-0.1,1v6.2h-3.6
				v-6.2c0-0.2,0-0.5,0-0.8c0-0.3-0.1-0.6-0.2-0.9c-0.1-0.3-0.3-0.5-0.5-0.7c-0.2-0.2-0.5-0.3-0.9-0.3c-0.5,0-0.8,0.1-1.1,0.3
				s-0.5,0.4-0.7,0.7c-0.2,0.3-0.3,0.6-0.3,0.9c0,0.4-0.1,0.7-0.1,1.1v5.8h-3.6V280z"/>
			<path class="st0" d="M283.9,282.9h-2.4V280h2.4V278c0-0.6,0.1-1.2,0.2-1.8c0.1-0.6,0.3-1.1,0.6-1.5s0.8-0.8,1.4-1
				c0.6-0.2,1.4-0.4,2.4-0.4c0.4,0,0.7,0,1.1,0c0.4,0,0.7,0.1,1,0.2l-0.2,3c-0.2-0.1-0.4-0.1-0.6-0.2c-0.2,0-0.4-0.1-0.6-0.1
				c-0.6,0-1,0.1-1.3,0.4s-0.4,0.8-0.4,1.5v1.8h2.7v2.9h-2.7v8.8h-3.6V282.9z"/>
			<path class="st0" d="M291.1,285.9c0-0.9,0.2-1.8,0.5-2.5s0.8-1.4,1.4-1.9s1.3-0.9,2.1-1.2c0.8-0.3,1.6-0.4,2.5-0.4
				c0.9,0,1.7,0.1,2.5,0.4c0.8,0.3,1.5,0.7,2.1,1.2s1,1.2,1.4,1.9s0.5,1.6,0.5,2.5s-0.2,1.8-0.5,2.5s-0.8,1.4-1.4,1.9
				s-1.3,0.9-2.1,1.2c-0.8,0.3-1.6,0.4-2.5,0.4c-0.9,0-1.7-0.1-2.5-0.4c-0.8-0.3-1.5-0.7-2.1-1.2s-1-1.2-1.4-1.9
				S291.1,286.8,291.1,285.9z M294.7,285.9c0,0.9,0.3,1.6,0.8,2.1s1.2,0.8,2.1,0.8s1.6-0.3,2.1-0.8s0.8-1.3,0.8-2.1
				s-0.3-1.6-0.8-2.1s-1.2-0.8-2.1-0.8s-1.6,0.3-2.1,0.8S294.7,285,294.7,285.9z"/>
			<path class="st0" d="M306.2,280h3.6v1.9h0c0.4-0.7,0.8-1.3,1.4-1.6s1.2-0.5,2-0.5c0.2,0,0.4,0,0.6,0c0.2,0,0.4,0,0.6,0.1v3.3
				c-0.3-0.1-0.5-0.1-0.8-0.2s-0.5-0.1-0.8-0.1c-0.7,0-1.2,0.1-1.6,0.3c-0.4,0.2-0.7,0.5-0.9,0.8c-0.2,0.3-0.4,0.8-0.4,1.2
				c-0.1,0.5-0.1,1-0.1,1.6v4.9h-3.6V280z"/>
			<path class="st0" d="M330.4,290.2L330.4,290.2c-0.4,0.6-1,1.1-1.6,1.3c-0.7,0.3-1.4,0.4-2.1,0.4c-0.5,0-1.1-0.1-1.6-0.2
				c-0.5-0.2-0.9-0.4-1.3-0.7c-0.4-0.3-0.7-0.7-0.9-1.1c-0.2-0.4-0.3-1-0.3-1.6c0-0.7,0.1-1.2,0.4-1.7c0.2-0.5,0.6-0.8,1-1.2
				s0.9-0.5,1.5-0.7c0.5-0.2,1.1-0.3,1.7-0.4s1.2-0.1,1.8-0.1c0.6,0,1.1,0,1.6,0c0-0.6-0.2-1.1-0.7-1.5c-0.5-0.4-1-0.6-1.6-0.6
				c-0.6,0-1.1,0.1-1.6,0.4s-0.9,0.6-1.3,1l-1.9-2c0.7-0.6,1.5-1.1,2.4-1.4c0.9-0.3,1.8-0.5,2.8-0.5c1.1,0,1.9,0.1,2.6,0.4
				c0.7,0.3,1.2,0.7,1.6,1.2c0.4,0.5,0.7,1.1,0.9,1.9s0.2,1.6,0.2,2.6v5.9h-3.3V290.2z M329.5,286.6c-0.3,0-0.6,0-1,0
				c-0.4,0-0.8,0.1-1.2,0.2c-0.4,0.1-0.7,0.3-1,0.5c-0.3,0.2-0.4,0.5-0.4,0.9c0,0.4,0.2,0.8,0.6,1s0.8,0.3,1.2,0.3
				c0.4,0,0.7,0,1-0.1c0.3-0.1,0.6-0.2,0.9-0.4s0.5-0.4,0.6-0.7c0.2-0.3,0.2-0.6,0.2-1v-0.8H329.5z"/>
			<path class="st0" d="M355.3,291.7H352v-1.5h0c-0.1,0.2-0.3,0.4-0.6,0.6c-0.2,0.2-0.5,0.4-0.8,0.6c-0.3,0.2-0.7,0.3-1,0.4
				c-0.4,0.1-0.8,0.2-1.2,0.2c-0.9,0-1.6-0.1-2.4-0.4s-1.3-0.7-1.8-1.2c-0.5-0.5-0.9-1.2-1.2-1.9c-0.3-0.7-0.4-1.5-0.4-2.4
				c0-0.8,0.1-1.6,0.4-2.3s0.6-1.4,1.1-2c0.5-0.6,1-1,1.7-1.4c0.7-0.3,1.4-0.5,2.2-0.5c0.8,0,1.5,0.1,2.1,0.3
				c0.6,0.2,1.2,0.6,1.6,1.2h0v-7.7h3.6V291.7z M352,285.9c0-0.9-0.3-1.6-0.8-2.1s-1.2-0.8-2.1-0.8s-1.6,0.3-2.1,0.8
				s-0.8,1.3-0.8,2.1s0.3,1.6,0.8,2.1s1.2,0.8,2.1,0.8s1.6-0.3,2.1-0.8S352,286.8,352,285.9z"/>
			<path class="st0" d="M365.5,290.2L365.5,290.2c-0.4,0.6-1,1.1-1.6,1.3c-0.7,0.3-1.4,0.4-2.1,0.4c-0.5,0-1.1-0.1-1.6-0.2
				c-0.5-0.2-0.9-0.4-1.3-0.7c-0.4-0.3-0.7-0.7-0.9-1.1c-0.2-0.4-0.3-1-0.3-1.6c0-0.7,0.1-1.2,0.4-1.7c0.2-0.5,0.6-0.8,1-1.2
				s0.9-0.5,1.5-0.7c0.5-0.2,1.1-0.3,1.7-0.4s1.2-0.1,1.8-0.1c0.6,0,1.1,0,1.6,0c0-0.6-0.2-1.1-0.7-1.5c-0.5-0.4-1-0.6-1.6-0.6
				c-0.6,0-1.1,0.1-1.6,0.4s-0.9,0.6-1.3,1l-1.9-2c0.7-0.6,1.5-1.1,2.4-1.4c0.9-0.3,1.8-0.5,2.8-0.5c1.1,0,1.9,0.1,2.6,0.4
				c0.7,0.3,1.2,0.7,1.6,1.2c0.4,0.5,0.7,1.1,0.9,1.9s0.2,1.6,0.2,2.6v5.9h-3.3V290.2z M364.6,286.6c-0.3,0-0.6,0-1,0
				c-0.4,0-0.8,0.1-1.2,0.2c-0.4,0.1-0.7,0.3-1,0.5c-0.3,0.2-0.4,0.5-0.4,0.9c0,0.4,0.2,0.8,0.6,1s0.8,0.3,1.2,0.3
				c0.4,0,0.7,0,1-0.1c0.3-0.1,0.6-0.2,0.9-0.4s0.5-0.4,0.6-0.7c0.2-0.3,0.2-0.6,0.2-1v-0.8H364.6z"/>
			<path class="st0" d="M377.8,293.6c-0.2,0.6-0.5,1.2-0.7,1.7c-0.2,0.5-0.5,0.9-0.9,1.2c-0.3,0.3-0.8,0.6-1.3,0.7
				c-0.5,0.2-1.2,0.3-2.1,0.3c-0.9,0-1.8-0.1-2.7-0.4l0.5-3c0.5,0.2,1.1,0.4,1.7,0.4c0.4,0,0.7,0,1-0.1s0.5-0.2,0.6-0.4
				s0.3-0.4,0.4-0.6c0.1-0.2,0.2-0.5,0.4-0.8l0.3-0.7l-5.1-11.8h3.9l3,7.7h0l2.6-7.7h3.7L377.8,293.6z"/>
		</g>
	</g>
	<g>
		<g>
			<path class="st2" d="M120.1,432.1c0-1.3,0.2-2.7,0.7-4.1s1-2.8,1.8-4.2c0.8-1.4,1.7-2.7,2.8-3.9c1.1-1.2,2.2-2.3,3.4-3.2
				c1.2-0.9,2.5-1.7,3.9-2.2c1.3-0.5,2.7-0.8,4-0.8c1.2,0,2.1,0.2,2.9,0.5s1.5,0.7,2,1.2c0.5,0.5,0.9,1.1,1.2,1.7s0.5,1.2,0.6,1.8
				c0.1,0.6,0.1,1.1,0.1,1.5c0,0.5-0.1,0.8-0.2,1h0c-0.1,0.2-0.3,0.4-0.6,0.3c-0.3,0-0.6-0.1-0.9-0.2c-0.3-0.1-0.5-0.2-0.8-0.4
				c-0.2-0.2-0.3-0.3-0.3-0.4c0-0.1,0-0.2,0-0.5c0-0.3-0.1-0.6-0.3-0.8c-0.2-0.3-0.4-0.5-0.8-0.8c-0.4-0.2-0.9-0.3-1.6-0.3
				c-0.7,0-1.5,0.3-2.3,1c-0.8,0.6-1.7,1.5-2.5,2.5c-0.8,1-1.6,2.2-2.4,3.5c-0.8,1.3-1.4,2.6-2,3.9c-0.6,1.3-1,2.6-1.4,3.8
				c-0.3,1.2-0.5,2.3-0.5,3.2c0,1.1,0.3,1.6,1,1.6c0.8,0,1.5-0.3,2.3-1c0.8-0.7,1.6-1.5,2.3-2.6c0.7-1,1.4-2.2,2.1-3.4
				c0.6-1.2,1.2-2.4,1.7-3.6c0.5-1.1,0.9-2.1,1.1-3c0.3-0.9,0.4-1.4,0.4-1.7s0.2-0.4,0.5-0.5c0.3-0.1,0.7,0,1.1,0.1
				c0.5,0.1,1,0.3,1.5,0.5c0.5,0.2,1,0.5,1.5,0.8c0.5,0.3,0.8,0.6,1.1,0.9c0.3,0.3,0.5,0.6,0.5,0.8c0,0.3-0.2,0.9-0.5,1.6
				s-0.7,1.6-1.1,2.6c-0.3,0.7-0.6,1.4-0.9,2.1c-0.3,0.7-0.6,1.4-0.9,2.1c-0.3,0.7-0.5,1.4-0.6,2c-0.2,0.6-0.3,1.1-0.3,1.5
				c0,0.2,0,0.2,0,0.2c0.4,0,1-0.4,1.6-1.1c0.7-0.7,1.4-1.6,2.1-2.7c0.8-1.1,1.5-2.3,2.3-3.7c0.8-1.3,1.5-2.6,2.2-3.9
				c0.7-1.3,1.3-2.4,1.8-3.4c0.5-1,0.9-1.8,1.1-2.3c0.1-0.2,0.4-0.4,0.7-0.4c0.3,0,0.7,0.1,1,0.2c0.3,0.1,0.6,0.3,0.8,0.6
				c0.2,0.2,0.3,0.5,0.2,0.7c-0.3,0.6-0.7,1.5-1.3,2.7c-0.6,1.2-1.3,2.6-2.2,4s-1.7,3-2.7,4.5c-1,1.5-1.9,2.9-2.9,4.2
				c-1,1.2-2,2.3-2.9,3.1s-1.8,1.2-2.6,1.2c-0.9,0-1.6-0.2-2.3-0.7c-0.7-0.4-1.2-0.9-1.7-1.4c-0.5-0.6-1-1.3-1.4-2.1
				c-0.4,0.4-0.8,0.9-1.3,1.4c-0.5,0.5-1,0.9-1.6,1.4c-0.6,0.4-1.2,0.8-1.8,1.1c-0.6,0.3-1.2,0.4-1.8,0.4c-1.2,0-2.2-0.3-3.1-0.8
				c-0.9-0.5-1.6-1.2-2.3-2.1s-1.1-1.8-1.4-2.9C120.3,434.2,120.1,433.2,120.1,432.1z"/>
			<path class="st2" d="M207.8,420.5c0.1-0.2,0.3-0.4,0.7-0.4c0.3,0,0.7,0.1,1,0.2s0.6,0.3,0.9,0.5c0.2,0.2,0.3,0.5,0.2,0.7
				c-0.3,0.6-0.7,1.5-1.4,2.7c-0.7,1.2-1.4,2.5-2.3,4c-0.9,1.4-1.9,2.9-2.9,4.4c-1.1,1.5-2.1,2.9-3.2,4.1c-1.1,1.2-2.2,2.3-3.3,3.1
				c-1.1,0.8-2.1,1.2-2.9,1.2c-1.5,0-2.7-0.6-3.7-1.7c-1-1.1-1.5-2.6-1.5-4.5c0-0.6,0.1-1.4,0.4-2.4s0.6-2,1.1-3.1
				c0.4-1.1,0.9-2.3,1.5-3.5s1.1-2.4,1.6-3.5c-1,1.2-2.1,2.4-3.2,3.7c-1.1,1.3-2.2,2.6-3.1,3.9c-1,1.3-1.9,2.5-2.7,3.7
				c-0.8,1.2-1.4,2.2-1.8,3c0,0.2-0.1,0.3-0.1,0.4c0,0.1,0,0.2,0,0.3l0.1,0.4c0,0.1,0.1,0.2,0.1,0.3c0,0.1,0,0.2,0.1,0.3l0,0
				c0.1,0.4,0.2,0.7,0.3,1c0.1,0.3,0.1,0.6,0,0.8c-0.1,0.2-0.2,0.4-0.5,0.5s-0.6,0.2-1.1,0.2c-0.6,0-1.2-0.1-1.8-0.4
				c-0.6-0.3-1.2-0.7-1.7-1.2c-0.5-0.5-0.9-1.2-1.2-1.9s-0.5-1.5-0.5-2.5c0-0.8,0.1-1.7,0.4-2.6c0.2-0.9,0.6-1.9,1-2.9
				c0.4-1,0.8-2,1.3-3s1-2,1.5-3c0.2-0.5,0.4-0.8,0.5-1.1c0.1-0.2,0.2-0.4,0.3-0.5c0-0.1,0.1-0.1,0-0.1c-1,1.2-2.1,2.4-3.3,3.8
				s-2.2,2.7-3.3,4.1s-2,2.6-2.8,3.9s-1.5,2.3-1.8,3.1c0,0.2-0.1,0.3-0.1,0.4s0,0.2,0,0.3c0,0.2,0,0.3,0,0.5c0,0.2,0.1,0.3,0.1,0.5
				c0.1,0.4,0.2,0.7,0.2,1c0.1,0.3,0.1,0.6,0,0.8c-0.1,0.2-0.2,0.4-0.4,0.5c-0.2,0.1-0.6,0.2-1.1,0.2c-0.6,0-1.2-0.1-1.8-0.4
				c-0.6-0.3-1.2-0.7-1.7-1.2c-0.5-0.5-0.9-1.2-1.3-1.9c-0.3-0.7-0.5-1.5-0.5-2.5c0-0.8,0.1-1.7,0.4-2.6c0.2-0.9,0.6-1.9,1-2.9
				c0.4-1,0.8-2,1.3-3c0.5-1,1-2,1.5-3c0.9-1.7,1.6-3.2,2.3-4.7c0.7-1.4,1-2.6,1-3.5c0-0.5,0.3-0.7,1-0.8c0.7,0,1.4,0.1,2.2,0.5
				c0.8,0.4,1.6,0.9,2.2,1.6c0.7,0.7,1,1.5,1,2.4c0,0.5-0.1,1-0.3,1.6s-0.5,1.3-0.8,2.1c0.9-1,1.7-2.1,2.6-3.1s1.7-1.9,2.5-2.7
				c0.8-0.8,1.5-1.5,2.1-2.1c0.6-0.5,1.1-0.9,1.5-1c0.4,0,0.9,0.1,1.5,0.4s1.1,0.6,1.7,1c0.5,0.5,1,1,1.3,1.6
				c0.4,0.6,0.6,1.4,0.6,2.1c0,0.4-0.1,0.9-0.3,1.6c-0.2,0.6-0.5,1.3-0.8,2.1c0.9-1.1,1.8-2.2,2.8-3.2c0.9-1.1,1.8-2,2.6-2.8
				c0.8-0.8,1.5-1.5,2.1-2c0.6-0.5,1-0.8,1.3-0.8c0.1,0,0.1,0,0.2,0c0.1,0,0.2,0,0.4,0.1c0.4,0.1,0.8,0.3,1.2,0.6
				c0.5,0.3,0.9,0.7,1.3,1.2c0.4,0.5,0.7,1,1,1.5c0.3,0.5,0.4,1.1,0.4,1.6c0,0.4-0.3,1.2-0.8,2.3c-0.5,1.1-1.1,2.4-1.8,3.9
				c-0.5,1.1-1.1,2.2-1.6,3.4c-0.6,1.2-1.1,2.3-1.5,3.4c-0.5,1.1-0.8,2.1-1.1,3c-0.3,0.9-0.5,1.7-0.5,2.2c0,0.2,0,0.4,0.1,0.4
				c0.4,0,1-0.3,1.7-1s1.5-1.6,2.3-2.7c0.8-1.1,1.7-2.3,2.6-3.6s1.7-2.6,2.4-3.9s1.4-2.4,2-3.4C207.2,421.7,207.6,421,207.8,420.5z"
				/>
			<path class="st2" d="M202.7,432.1c0-1.3,0.2-2.7,0.7-4.1s1-2.8,1.8-4.2c0.8-1.4,1.7-2.7,2.8-3.9c1.1-1.2,2.2-2.3,3.4-3.2
				c1.2-0.9,2.5-1.7,3.9-2.2c1.3-0.5,2.7-0.8,4-0.8c1.2,0,2.1,0.2,2.9,0.5s1.5,0.7,2,1.2c0.5,0.5,0.9,1.1,1.2,1.7s0.5,1.2,0.6,1.8
				c0.1,0.6,0.1,1.1,0.1,1.5c0,0.5-0.1,0.8-0.2,1h0c-0.1,0.2-0.3,0.4-0.6,0.3c-0.3,0-0.6-0.1-0.9-0.2c-0.3-0.1-0.5-0.2-0.8-0.4
				c-0.2-0.2-0.3-0.3-0.3-0.4c0-0.1,0-0.2,0-0.5c0-0.3-0.1-0.6-0.3-0.8c-0.2-0.3-0.4-0.5-0.8-0.8c-0.4-0.2-0.9-0.3-1.6-0.3
				c-0.7,0-1.5,0.3-2.3,1c-0.8,0.6-1.7,1.5-2.5,2.5c-0.8,1-1.6,2.2-2.4,3.5c-0.8,1.3-1.4,2.6-2,3.9c-0.6,1.3-1,2.6-1.4,3.8
				c-0.3,1.2-0.5,2.3-0.5,3.2c0,1.1,0.3,1.6,1,1.6c0.8,0,1.5-0.3,2.3-1c0.8-0.7,1.6-1.5,2.3-2.6c0.7-1,1.4-2.2,2.1-3.4
				c0.6-1.2,1.2-2.4,1.7-3.6c0.5-1.1,0.9-2.1,1.1-3c0.3-0.9,0.4-1.4,0.4-1.7s0.2-0.4,0.5-0.5c0.3-0.1,0.7,0,1.1,0.1
				c0.5,0.1,1,0.3,1.5,0.5c0.5,0.2,1,0.5,1.5,0.8c0.5,0.3,0.8,0.6,1.1,0.9c0.3,0.3,0.5,0.6,0.5,0.8c0,0.3-0.2,0.9-0.5,1.6
				s-0.7,1.6-1.1,2.6c-0.3,0.7-0.6,1.4-0.9,2.1c-0.3,0.7-0.6,1.4-0.9,2.1c-0.3,0.7-0.5,1.4-0.6,2c-0.2,0.6-0.3,1.1-0.3,1.5
				c0,0.2,0,0.2,0,0.2c0.4,0,1-0.4,1.6-1.1c0.7-0.7,1.4-1.6,2.1-2.7c0.8-1.1,1.5-2.3,2.3-3.7c0.8-1.3,1.5-2.6,2.2-3.9
				c0.7-1.3,1.3-2.4,1.8-3.4c0.5-1,0.9-1.8,1.1-2.3c0.1-0.2,0.4-0.4,0.7-0.4c0.3,0,0.7,0.1,1,0.2c0.3,0.1,0.6,0.3,0.8,0.6
				c0.2,0.2,0.3,0.5,0.2,0.7c-0.3,0.6-0.7,1.5-1.3,2.7c-0.6,1.2-1.3,2.6-2.2,4s-1.7,3-2.7,4.5c-1,1.5-1.9,2.9-2.9,4.2
				c-1,1.2-2,2.3-2.9,3.1s-1.8,1.2-2.6,1.2c-0.9,0-1.6-0.2-2.3-0.7c-0.7-0.4-1.2-0.9-1.7-1.4c-0.5-0.6-1-1.3-1.4-2.1
				c-0.4,0.4-0.8,0.9-1.3,1.4c-0.5,0.5-1,0.9-1.6,1.4c-0.6,0.4-1.2,0.8-1.8,1.1c-0.6,0.3-1.2,0.4-1.8,0.4c-1.2,0-2.2-0.3-3.1-0.8
				c-0.9-0.5-1.6-1.2-2.3-2.1s-1.1-1.8-1.4-2.9C202.8,434.2,202.7,433.2,202.7,432.1z"/>
			<path class="st2" d="M257.4,420.4c0.3-0.5,0.7-0.9,1.1-1.1s0.8-0.2,1.1,0s0.6,0.4,0.7,0.8c0.2,0.4,0.1,0.9-0.2,1.5
				c-0.3,0.6-0.7,1.5-1.3,2.7c-0.6,1.2-1.3,2.5-2,4s-1.6,2.9-2.6,4.4c-0.9,1.5-1.9,2.9-2.9,4.1s-2.1,2.3-3.1,3.1
				c-1,0.8-2.1,1.2-3,1.2c-1.5,0-2.7-0.6-3.7-1.7s-1.5-2.6-1.5-4.5c0-0.6,0.1-1.4,0.4-2.3c0.3-0.9,0.6-1.9,1-3
				c0.4-1.1,0.9-2.2,1.4-3.4s1.1-2.3,1.6-3.5c-1,1.2-2.1,2.4-3.2,3.8c-1.1,1.3-2.2,2.7-3.1,3.9c-1,1.3-1.9,2.5-2.6,3.6
				c-0.8,1.1-1.3,2.1-1.7,2.8c0,0.2-0.1,0.3-0.1,0.4c0,0.1,0,0.2,0,0.3l0.1,0.4c0,0.1,0,0.2,0,0.3c0,0.1,0,0.2,0,0.3v0
				c0.1,0.4,0.2,0.7,0.2,1c0.1,0.3,0.1,0.6,0,0.8c-0.1,0.2-0.2,0.4-0.5,0.5s-0.6,0.2-1.1,0.2c-0.6,0-1.2-0.1-1.8-0.4
				c-0.6-0.3-1.2-0.7-1.7-1.2c-0.5-0.5-0.9-1.2-1.3-1.9c-0.3-0.7-0.5-1.5-0.5-2.5c0-0.8,0.1-1.7,0.4-2.6c0.2-0.9,0.6-1.9,1-2.9
				c0.4-1,0.8-2,1.3-3c0.5-1,1-2,1.5-3c0.9-1.7,1.6-3.2,2.3-4.7c0.7-1.4,1-2.6,1-3.5c0-0.5,0.3-0.7,1-0.8c0.7,0,1.4,0.1,2.2,0.5
				c0.8,0.4,1.6,0.9,2.2,1.6c0.7,0.7,1,1.5,1,2.4c0,0.4-0.1,1-0.3,1.6c-0.2,0.6-0.5,1.4-0.9,2.1c0.9-1.1,1.9-2.2,2.8-3.3
				c0.9-1.1,1.8-2,2.6-2.8s1.5-1.5,2.1-2c0.6-0.5,1-0.8,1.3-0.8c0.1,0,0.2,0,0.3,0c0.1,0,0.2,0,0.4,0.1c0.4,0.1,0.8,0.3,1.2,0.7
				s0.9,0.7,1.3,1.1c0.4,0.4,0.7,0.9,1,1.5c0.3,0.5,0.4,1.1,0.4,1.6c0,0.4-0.3,1.2-0.8,2.3c-0.5,1.1-1.1,2.4-1.8,3.9
				c-0.5,1.1-1.1,2.2-1.6,3.4c-0.6,1.2-1.1,2.3-1.5,3.4s-0.8,2.1-1.1,3c-0.3,0.9-0.5,1.7-0.5,2.2c0,0.2,0,0.4,0.1,0.4
				c0.5,0,1-0.3,1.6-1c0.6-0.6,1.3-1.5,2.1-2.5c0.7-1,1.5-2.2,2.3-3.4c0.8-1.3,1.5-2.5,2.1-3.8c0.7-1.2,1.3-2.4,1.8-3.5
				C256.8,422.1,257.2,421.2,257.4,420.4L257.4,420.4z"/>
			<path class="st2" d="M298.9,410.7c0,0.2-0.2,0.6-0.8,1s-1.3,0.9-2.3,1.3c-1,0.4-2.4,0.8-4,1.2c-1.6,0.3-3.6,0.5-5.8,0.5
				c-0.3,0.6-0.6,1.2-0.8,1.8c-0.3,0.6-0.6,1.2-0.9,1.8c-0.8,1.7-1.6,3.5-2.5,5.3c-0.8,1.8-1.6,3.5-2.2,5c-0.7,1.6-1.2,3-1.6,4.3
				s-0.6,2.4-0.6,3.2c0,0.7,0.2,1.1,0.7,1.1c0.9,0,1.8-0.3,2.8-1c1-0.7,2-1.6,3-2.7s2-2.3,3-3.6c1-1.3,1.9-2.6,2.7-3.9
				c0.8-1.2,1.5-2.4,2.1-3.4c0.6-1,1-1.8,1.2-2.3c0.1-0.2,0.3-0.3,0.7-0.3c0.3,0,0.7,0.1,1,0.2c0.3,0.1,0.6,0.3,0.9,0.5
				c0.2,0.2,0.3,0.5,0.2,0.7c-0.3,0.6-0.8,1.5-1.4,2.7c-0.7,1.2-1.5,2.5-2.4,4s-2,2.9-3.1,4.4s-2.4,2.9-3.6,4.1
				c-1.3,1.2-2.6,2.3-3.9,3.1c-1.4,0.8-2.7,1.2-4,1.2c-0.5,0-1.2-0.2-1.9-0.5c-0.7-0.3-1.4-0.8-2-1.4c-0.6-0.6-1.2-1.4-1.6-2.2
				s-0.6-1.9-0.6-3.1c0-0.7,0.2-1.6,0.6-2.8c0.4-1.2,0.9-2.6,1.6-4.2c0.7-1.6,1.4-3.3,2.2-5.1c0.8-1.8,1.7-3.6,2.5-5.4l1-2.1
				c-1.3-0.2-2.5-0.5-3.6-0.8c-1-0.3-1.9-0.6-2.6-1c-0.7-0.3-1.3-0.7-1.6-1c-0.4-0.3-0.6-0.6-0.6-0.8c0-0.4,0.1-0.7,0.2-0.9
				c0.1-0.2,0.3-0.3,0.6-0.4c0.3,0,0.6,0,1,0.1c0.4,0.1,0.9,0.2,1.5,0.3c0.7,0.2,1.6,0.3,2.7,0.5c1.1,0.2,2.4,0.4,3.9,0.5
				c1.1-2.4,2-4.5,2.7-6.3c0.7-1.8,1.1-3.1,1.1-3.9c0-0.5,0.3-0.7,0.9-0.6c0.6,0.1,1.3,0.3,2,0.7c0.7,0.4,1.4,0.9,2,1.6
				c0.6,0.6,0.9,1.3,0.9,1.9c0,0.7-0.2,1.6-0.6,2.8c-0.4,1.2-1,2.6-1.7,4.1c1.8-0.1,3.4-0.2,4.8-0.5c1.4-0.2,2.6-0.5,3.4-0.7l0,0
				c1-0.2,1.7-0.3,2.3-0.3S298.9,410.1,298.9,410.7z"/>
			<path class="st2" d="M317.3,420.5c0.1-0.3,0.4-0.4,0.7-0.4s0.7,0.1,1,0.3c0.3,0.2,0.6,0.4,0.8,0.7c0.2,0.3,0.3,0.5,0.1,0.8
				c-0.2,0.4-0.5,1-0.9,1.7c-0.4,0.7-0.9,1.5-1.5,2.4c-0.6,0.9-1.3,1.8-2.1,2.7c-0.8,0.9-1.7,1.8-2.6,2.6c-1,0.8-2,1.5-3.1,2.1
				c-1.1,0.6-2.3,1-3.6,1.2c-1.4,1.9-2.9,3.5-4.7,4.7c-1.7,1.2-3.5,1.8-5.4,1.8c-1,0-2-0.2-2.9-0.6c-1-0.4-1.8-1-2.6-1.8
				c-0.7-0.8-1.3-1.7-1.8-2.9c-0.5-1.2-0.7-2.5-0.7-4.1c0-1.5,0.3-3,0.8-4.5s1.2-2.9,2-4.2c0.7-1.3,1.5-2.3,2.3-3.1
				c0.8-0.8,1.4-1.2,1.8-1.2c0.3,0,0.6,0,1,0.1c0.4,0.1,0.7,0.1,1,0.2c0.5-0.7,1.1-1.4,1.8-2.1c0.6-0.6,1.3-1.2,2-1.7
				c0.7-0.5,1.5-0.9,2.2-1.1s1.5-0.4,2.3-0.4c1.2,0,2.1,0.1,2.9,0.4c0.7,0.3,1.3,0.6,1.8,1.1c0.4,0.5,0.7,1,0.9,1.7
				c0.2,0.7,0.3,1.4,0.3,2.1c0,4-0.9,7.8-2.7,11.4c1.1-0.6,2.1-1.4,3.1-2.3c1-0.9,1.9-1.9,2.7-2.9c0.8-1,1.5-1.9,2-2.8
				C316.6,421.6,317,420.9,317.3,420.5z M296.1,437.6c1.1,0,2.1-0.3,3-0.8c0.9-0.6,1.8-1.3,2.6-2.3c-1.2-0.3-2.2-0.8-3.3-1.4
				c-1-0.6-1.9-1.3-2.6-2.2c-0.4,0.9-0.7,1.9-1,2.7c-0.3,0.9-0.4,1.7-0.4,2.3c0,0.5,0.1,0.9,0.4,1.2
				C295,437.4,295.4,437.6,296.1,437.6z M301.3,429c0,0.7,0.2,1.3,0.5,1.8c0.3,0.5,0.9,0.8,1.8,0.9c0.6-1,1.2-2.1,1.6-3.2
				c0.5-1.1,0.9-2.2,1.2-3.3c0.3-1.1,0.6-2.1,0.8-3.1c0.2-1,0.3-1.8,0.3-2.6c0-1.2-0.2-1.8-0.5-1.8s-0.8,0.4-1.4,1.2
				c-0.6,0.8-1.3,1.7-1.9,2.9s-1.2,2.4-1.7,3.7S301.3,427.9,301.3,429z"/>
			<path class="st2" d="M360.5,406.8c0,0.3-0.3,0.7-0.9,1.2c-0.6,0.5-1.6,1.1-2.8,1.6c-1.3,0.5-2.9,1-4.9,1.5
				c-2,0.4-4.4,0.7-7.1,0.7l-1.2,3c-1.1,2.8-2.2,5.7-3.4,8.7c-1.2,3-2.4,5.9-3.7,8.8c-1.3,2.9-2.6,5.6-3.9,8.2
				c-1.3,2.6-2.7,4.8-4,6.8c-1.4,1.9-2.7,3.5-4.1,4.6c-1.4,1.1-2.7,1.7-4,1.7c-0.4,0-0.8-0.2-1-0.5c-0.2-0.3-0.4-0.6-0.4-1
				c0-0.3,0-0.7,0.2-1c0.2-0.3,0.4-0.5,0.8-0.5c0.5,0,1.1-0.5,1.8-1.6c0.7-1.1,1.4-2.5,2.3-4.4c0.8-1.9,1.7-4,2.6-6.5
				c0.9-2.5,1.9-5.1,2.9-7.8c1.2-3.3,2.4-6.5,3.5-9.6c1.1-3.1,2.4-6.2,3.9-9.3c-2-0.2-3.9-0.5-5.5-0.9s-3-0.8-4.1-1.3
				c-1.1-0.4-2-0.9-2.6-1.3s-0.9-0.8-0.9-1c0-0.9,0.3-1.4,0.9-1.4c0.6,0,1.6,0.1,3.1,0.5c1.1,0.2,2.5,0.5,4.3,0.8s4,0.6,6.6,0.7
				c0.9-1.9,1.9-3.7,2.9-5.3c1-1.6,2-3,3.1-4.2s2.1-2.1,3.2-2.8c1.1-0.7,2.2-1,3.3-1c0.8,0,1.5,0.3,1.9,0.8s0.7,1.1,0.9,1.7
				c0.1,0.6,0.2,1.2,0,1.7s-0.3,0.8-0.6,0.8c-0.6,0-1-0.2-1.2-0.5c-0.2-0.3-0.3-0.7-0.4-1.1c-0.1-0.3-0.1-0.5-0.1-0.5
				c-0.2,0-0.5,0.3-0.8,0.8c-0.3,0.5-0.8,1.2-1.2,2.2c-0.5,0.9-1,2.1-1.5,3.4c-0.5,1.3-1.1,2.7-1.8,4.3c2.3-0.1,4.3-0.3,6.1-0.6
				c1.8-0.3,3.3-0.6,4.4-0.9v0c1.2-0.2,2-0.4,2.6-0.3C360.2,405.9,360.5,406.2,360.5,406.8z"/>
			<path class="st2" d="M362.9,420.2c0.1-0.2,0.3-0.3,0.7-0.3c0.3,0,0.7,0.1,1,0.2c0.3,0.1,0.6,0.3,0.9,0.6c0.2,0.2,0.3,0.5,0.2,0.7
				c-0.3,0.7-0.8,1.6-1.4,2.8c-0.7,1.2-1.4,2.6-2.3,4c-0.9,1.4-1.9,2.9-2.9,4.4c-1.1,1.5-2.2,2.9-3.3,4.1s-2.3,2.2-3.5,3
				c-1.2,0.8-2.4,1.2-3.5,1.2c-1.5,0-2.8-0.6-3.7-1.7c-1-1.1-1.4-2.6-1.4-4.5c0-0.7,0.2-1.5,0.5-2.6c0.3-1,0.7-2.2,1.2-3.4
				c0.5-1.2,1-2.4,1.6-3.7s1.2-2.5,1.7-3.7c0.7-1.5,1.4-2.9,1.9-4.1c0.5-1.2,0.8-1.9,0.8-2.2c0-0.5,0.3-0.7,0.9-0.7
				c0.6,0,1.3,0.3,2,0.7c0.7,0.4,1.4,0.9,2,1.5c0.6,0.6,0.9,1.3,0.9,2c0,0.2-0.1,0.5-0.2,0.9s-0.3,0.9-0.6,1.5
				c-0.2,0.6-0.5,1.2-0.8,1.8c-0.3,0.7-0.6,1.3-0.9,1.9c-0.5,1-1,2.1-1.6,3.3s-1.1,2.3-1.5,3.4c-0.5,1.1-0.9,2.1-1.2,3
				c-0.3,0.9-0.5,1.6-0.5,2.2c0,0.3,0,0.4,0.1,0.4c0.7,0,1.4-0.4,2.3-1.1c0.8-0.7,1.7-1.6,2.6-2.7c0.9-1.1,1.8-2.3,2.7-3.6
				c0.9-1.3,1.7-2.6,2.4-3.9c0.7-1.3,1.4-2.4,1.9-3.4C362.2,421.5,362.6,420.8,362.9,420.2L362.9,420.2z M355.2,411.6
				c-0.5,0-1-0.2-1.2-0.6c-0.3-0.4-0.4-0.9-0.4-1.6c0-0.6,0.1-1.2,0.3-2c0.2-0.7,0.5-1.5,0.8-2.1c0.3-0.7,0.7-1.2,1.2-1.7
				c0.4-0.5,0.9-0.7,1.3-0.7c0.6,0,1.1,0.1,1.7,0.3c0.5,0.2,1,0.4,1.4,0.7c0.4,0.3,0.7,0.7,1,1.2c0.2,0.5,0.4,1,0.4,1.6
				c0,0.5-0.2,1.1-0.5,1.7c-0.3,0.6-0.8,1.1-1.3,1.6c-0.6,0.5-1.3,0.9-2.1,1.2C357.1,411.4,356.2,411.6,355.2,411.6z"/>
			<path class="st2" d="M380.8,420.5c0.1-0.2,0.3-0.4,0.7-0.4c0.3,0,0.7,0.1,1,0.2c0.3,0.1,0.6,0.3,0.8,0.5c0.2,0.2,0.3,0.5,0.2,0.7
				c-0.3,0.5-0.7,1.3-1.2,2.3c-0.5,1-1.2,2.2-1.9,3.4c-0.8,1.3-1.6,2.6-2.6,3.9c-1,1.4-2.1,2.7-3.3,3.9c-1.2,1.2-2.5,2.3-3.9,3.3
				s-2.9,1.7-4.5,2.2c-1,0.2-2,0.4-2.9,0.4H363c-1.5,0-2.6-0.3-3.4-1c-0.8-0.7-1.3-1.5-1.6-2.3c-0.3-0.9-0.4-1.6-0.3-2.3
				s0.2-1,0.5-1c0.5,0,0.8,0.1,1,0.4s0.3,0.6,0.5,1c0.1,0.2,0.1,0.4,0.2,0.5c0.1,0.2,0.2,0.4,0.4,0.5c0.2,0.2,0.3,0.3,0.6,0.4
				s0.6,0.2,1,0.2c0.5,0,1-0.2,1.5-0.5c0.5-0.3,1-0.8,1.5-1.4s0.8-1.3,1.1-2.1c0.3-0.8,0.5-1.7,0.5-2.6c0-0.9-0.2-1.7-0.5-2.5
				c-0.4-0.8-0.8-1.5-1.2-2.3l0,0l-0.8-1.5c-0.2,0.3-0.3,0.7-0.5,1.1s-0.5,1-0.9,1.7c-0.1,0.2-0.3,0.3-0.7,0.3c-0.3,0-0.7-0.2-1-0.3
				c-0.3-0.2-0.6-0.4-0.8-0.6s-0.3-0.5-0.1-0.7c0.4-0.7,0.7-1.2,1-1.7s0.5-0.9,0.7-1.3c0.2-0.4,0.3-0.7,0.5-1
				c0.1-0.3,0.2-0.6,0.4-0.8l0,0l0.4-0.8c-0.1-0.5-0.1-1-0.1-1.5c0-1.3,0.2-2.6,0.8-3.7c0.5-1.1,1.1-2.1,1.8-2.8
				c0.7-0.8,1.5-1.4,2.3-1.8c0.8-0.4,1.5-0.6,2.1-0.6c0.3,0,0.7,0,1.2,0.1c0.5,0.1,1,0.2,1.4,0.4c0.5,0.2,0.8,0.5,1.2,0.8
				c0.3,0.4,0.5,0.9,0.5,1.5c0,0.5-0.2,1-0.5,1.4c-0.3,0.4-0.7,0.8-1.1,1.3c-0.5,0.5-1,1-1.4,1.6c-0.5,0.6-0.7,1.4-0.7,2.3
				c0,1.1,0.2,2,0.6,2.9c0.4,0.9,0.8,1.7,1.2,2.6v0c0.5,0.9,1,1.8,1.3,2.8c0.4,1,0.6,2.1,0.6,3.3c0,0.2,0,0.5,0,0.8
				c0,0.3,0,0.6,0,0.8c0.9-0.9,1.6-1.9,2.3-3c0.7-1,1.4-2.1,1.9-3.1c0.6-1,1.1-1.9,1.5-2.8c0.4-0.9,0.8-1.6,1.1-2.1L380.8,420.5
				L380.8,420.5z"/>
			<path class="st2" d="M407.2,420.4c0.1-0.2,0.4-0.4,0.7-0.4c0.3,0,0.7,0.1,1,0.2c0.3,0.1,0.6,0.3,0.8,0.6c0.2,0.2,0.3,0.5,0.2,0.7
				c-0.3,0.6-0.8,1.5-1.5,2.7c-0.7,1.2-1.5,2.5-2.5,4c-1,1.4-2,2.9-3.1,4.4c-1.1,1.5-2.2,2.9-3.4,4.1s-2.3,2.3-3.4,3.1
				c-1.1,0.8-2.1,1.2-3,1.2c-1.5,0-2.7-0.6-3.7-1.7c-1-1.1-1.4-2.6-1.4-4.5c0-0.6,0.1-1.4,0.4-2.4c0.3-0.9,0.6-2,1-3.1
				c0.4-1.1,0.9-2.3,1.4-3.4c0.5-1.2,1-2.4,1.6-3.5c-1,1.2-2,2.4-3.1,3.7s-2.1,2.6-3.1,3.9c-1,1.3-1.9,2.5-2.6,3.6
				c-0.8,1.1-1.4,2.1-1.7,2.9c-0.1,0.4-0.1,0.7-0.1,0.9l0.1,0.4c0,0.1,0.1,0.2,0.1,0.3c0,0.1,0,0.2,0.1,0.3l0,0
				c0.1,0.4,0.2,0.7,0.2,1c0.1,0.3,0.1,0.6,0,0.8c-0.1,0.2-0.2,0.4-0.4,0.5c-0.2,0.1-0.6,0.2-1.1,0.2c-0.6,0-1.2-0.1-1.8-0.4
				c-0.6-0.3-1.2-0.7-1.7-1.2c-0.5-0.5-0.9-1.2-1.3-1.9c-0.3-0.7-0.5-1.6-0.5-2.5c0-0.8,0.2-1.8,0.6-3c0.4-1.2,0.9-2.6,1.6-4.2
				c0.7-1.6,1.4-3.2,2.2-5c0.8-1.8,1.7-3.6,2.6-5.4c0.9-1.8,1.7-3.5,2.5-5.2c0.8-1.7,1.6-3.3,2.2-4.8c0.6-1.5,1.2-2.8,1.6-4
				c0.4-1.2,0.6-2.1,0.6-2.8c0-0.5,0.3-0.7,1-0.6c0.7,0.1,1.4,0.3,2.3,0.7s1.6,0.9,2.3,1.5c0.7,0.6,1,1.3,1,1.9
				c0,0.8-0.2,1.8-0.7,3.1c-0.5,1.3-1,2.7-1.7,4.3c-0.7,1.6-1.5,3.3-2.4,5.1s-1.8,3.7-2.7,5.5l-0.4,0.7v0c0.9-1.1,1.8-2.2,2.8-3.3
				c0.9-1.1,1.8-2.1,2.6-2.9c0.8-0.9,1.6-1.6,2.2-2.1c0.7-0.5,1.1-0.9,1.5-0.9c0.4,0,0.8,0.1,1.3,0.4s1,0.7,1.5,1.2
				c0.5,0.5,0.9,1,1.3,1.6c0.3,0.6,0.5,1.2,0.5,1.8c0,0.5-0.3,1.2-0.8,2.3c-0.5,1.1-1.1,2.4-1.8,3.9c-0.5,1.1-1.1,2.2-1.6,3.3
				c-0.6,1.2-1.1,2.3-1.5,3.4c-0.5,1.1-0.8,2.1-1.1,3s-0.4,1.6-0.4,2.2v0.3c0,0.1,0,0.1,0,0.1c0.5,0,1.1-0.3,1.8-1
				c0.7-0.7,1.6-1.6,2.4-2.7c0.9-1.1,1.8-2.3,2.7-3.6c0.9-1.3,1.8-2.6,2.6-3.9c0.8-1.3,1.5-2.4,2.1-3.4S407,420.9,407.2,420.4z"/>
		</g>
	</g>
	<g>
		<g>
			<path class="st2" d="M73.9,462.2h-2.4v-2.9h2.4v-2.1c0-0.6,0.1-1.2,0.2-1.8c0.1-0.6,0.3-1.1,0.6-1.5s0.8-0.8,1.4-1
				c0.6-0.2,1.4-0.4,2.4-0.4c0.4,0,0.7,0,1.1,0s0.7,0.1,1,0.2l-0.2,3c-0.2-0.1-0.4-0.1-0.6-0.2s-0.4-0.1-0.6-0.1
				c-0.6,0-1,0.1-1.3,0.4c-0.3,0.2-0.4,0.8-0.4,1.5v1.8h2.7v2.9h-2.7v8.8h-3.6V462.2z"/>
			<path class="st2" d="M92.6,468.9c-0.6,0.7-1.3,1.3-2.2,1.7c-0.9,0.4-1.8,0.6-2.7,0.6c-0.9,0-1.7-0.1-2.5-0.4
				c-0.8-0.3-1.5-0.7-2.1-1.2s-1-1.2-1.4-1.9s-0.5-1.6-0.5-2.5s0.2-1.8,0.5-2.5s0.8-1.4,1.4-1.9s1.3-0.9,2.1-1.2
				c0.8-0.3,1.6-0.4,2.5-0.4c0.8,0,1.6,0.1,2.3,0.4c0.7,0.3,1.3,0.7,1.7,1.2c0.5,0.5,0.8,1.2,1.1,1.9c0.3,0.8,0.4,1.6,0.4,2.5v1.1
				h-8.4c0.1,0.7,0.5,1.2,0.9,1.6c0.5,0.4,1.1,0.6,1.8,0.6c0.6,0,1.1-0.1,1.5-0.4c0.4-0.3,0.8-0.6,1.1-1L92.6,468.9z M89.5,463.8
				c0-0.6-0.2-1.1-0.6-1.6s-1-0.6-1.6-0.6c-0.4,0-0.8,0.1-1.1,0.2s-0.6,0.3-0.8,0.5c-0.2,0.2-0.4,0.4-0.5,0.7
				c-0.1,0.3-0.2,0.5-0.2,0.8H89.5z"/>
			<path class="st2" d="M106.4,468.9c-0.6,0.7-1.3,1.3-2.2,1.7c-0.9,0.4-1.8,0.6-2.7,0.6c-0.9,0-1.7-0.1-2.5-0.4
				c-0.8-0.3-1.5-0.7-2.1-1.2s-1-1.2-1.4-1.9s-0.5-1.6-0.5-2.5s0.2-1.8,0.5-2.5s0.8-1.4,1.4-1.9s1.3-0.9,2.1-1.2
				c0.8-0.3,1.6-0.4,2.5-0.4c0.8,0,1.6,0.1,2.3,0.4c0.7,0.3,1.3,0.7,1.7,1.2s0.8,1.2,1.1,1.9s0.4,1.6,0.4,2.5v1.1h-8.4
				c0.1,0.7,0.5,1.2,0.9,1.6c0.5,0.4,1.1,0.6,1.8,0.6c0.6,0,1.1-0.1,1.5-0.4c0.4-0.3,0.8-0.6,1.1-1L106.4,468.9z M103.3,463.8
				c0-0.6-0.2-1.1-0.6-1.6c-0.4-0.4-1-0.6-1.6-0.6c-0.4,0-0.8,0.1-1.1,0.2c-0.3,0.1-0.6,0.3-0.8,0.5s-0.4,0.4-0.5,0.7
				c-0.1,0.3-0.2,0.5-0.2,0.8H103.3z"/>
			<path class="st2" d="M121.3,471H118v-1.5h0c-0.1,0.2-0.3,0.4-0.6,0.6c-0.2,0.2-0.5,0.4-0.8,0.6c-0.3,0.2-0.7,0.3-1,0.4
				c-0.4,0.1-0.8,0.2-1.2,0.2c-0.9,0-1.6-0.1-2.4-0.4c-0.7-0.3-1.3-0.7-1.8-1.2c-0.5-0.5-0.9-1.2-1.2-1.9c-0.3-0.7-0.4-1.5-0.4-2.4
				c0-0.8,0.1-1.6,0.4-2.3s0.6-1.4,1.1-2c0.5-0.6,1-1,1.7-1.4c0.7-0.3,1.4-0.5,2.2-0.5c0.8,0,1.5,0.1,2.1,0.3
				c0.6,0.2,1.2,0.6,1.6,1.2h0v-7.7h3.6V471z M118,465.1c0-0.9-0.3-1.6-0.8-2.1s-1.2-0.8-2.1-0.8s-1.6,0.3-2.1,0.8s-0.8,1.3-0.8,2.1
				s0.3,1.6,0.8,2.1s1.2,0.8,2.1,0.8s1.6-0.3,2.1-0.8S118,466,118,465.1z"/>
			<path class="st2" d="M134.9,452.8v8.1h0c0.1-0.2,0.2-0.4,0.4-0.7c0.2-0.2,0.4-0.4,0.7-0.6c0.3-0.2,0.6-0.3,1-0.4
				c0.4-0.1,0.8-0.2,1.2-0.2c0.9,0,1.6,0.1,2.2,0.4c0.6,0.3,1,0.7,1.3,1.2c0.3,0.5,0.5,1.1,0.6,1.8c0.1,0.7,0.2,1.4,0.2,2.2v6.4H139
				v-5.7c0-0.3,0-0.7,0-1c0-0.4-0.1-0.7-0.2-1c-0.1-0.3-0.3-0.6-0.6-0.7s-0.6-0.3-1.1-0.3c-0.5,0-0.8,0.1-1.1,0.3
				c-0.3,0.2-0.5,0.4-0.7,0.7c-0.2,0.3-0.3,0.6-0.3,0.9c0,0.4-0.1,0.7-0.1,1.1v5.8h-3.6v-18.1H134.9z"/>
			<path class="st2" d="M144.9,455.6c0-0.6,0.2-1.1,0.6-1.5c0.4-0.4,0.9-0.6,1.5-0.6s1.1,0.2,1.5,0.6c0.4,0.4,0.6,0.9,0.6,1.5
				s-0.2,1.1-0.6,1.5c-0.4,0.4-0.9,0.6-1.5,0.6s-1.1-0.2-1.5-0.6C145.1,456.7,144.9,456.2,144.9,455.6z M145.2,459.3h3.6V471h-3.6
				V459.3z"/>
			<path class="st2" d="M151.3,459.3h3.5v1.6h0c0.1-0.2,0.3-0.4,0.5-0.7c0.2-0.2,0.5-0.4,0.7-0.6c0.3-0.2,0.6-0.3,1-0.4
				c0.4-0.1,0.8-0.2,1.2-0.2c0.8,0,1.5,0.2,2.2,0.5s1.1,0.9,1.4,1.6c0.4-0.8,0.9-1.3,1.5-1.6s1.3-0.5,2.2-0.5c0.8,0,1.4,0.1,2,0.4
				c0.5,0.3,1,0.6,1.3,1.1c0.3,0.5,0.5,1,0.7,1.6c0.1,0.6,0.2,1.3,0.2,2v6.9h-3.6v-6.8c0-0.5-0.1-1-0.3-1.4
				c-0.2-0.4-0.6-0.6-1.2-0.6c-0.4,0-0.8,0.1-1,0.2c-0.3,0.1-0.5,0.3-0.7,0.6c-0.2,0.2-0.3,0.5-0.4,0.8s-0.1,0.7-0.1,1v6.2h-3.6
				v-6.2c0-0.2,0-0.5,0-0.8c0-0.3-0.1-0.6-0.2-0.9c-0.1-0.3-0.3-0.5-0.5-0.7s-0.5-0.3-0.9-0.3c-0.5,0-0.8,0.1-1.1,0.3
				c-0.3,0.2-0.5,0.4-0.7,0.7c-0.2,0.3-0.3,0.6-0.3,0.9c0,0.4-0.1,0.7-0.1,1.1v5.8h-3.6V459.3z"/>
			<path class="st2" d="M180.6,462.2h-2.4v-2.9h2.4v-2.1c0-0.6,0.1-1.2,0.2-1.8c0.1-0.6,0.3-1.1,0.6-1.5s0.8-0.8,1.4-1
				c0.6-0.2,1.4-0.4,2.4-0.4c0.4,0,0.7,0,1.1,0s0.7,0.1,1,0.2l-0.2,3c-0.2-0.1-0.4-0.1-0.6-0.2s-0.4-0.1-0.6-0.1
				c-0.6,0-1,0.1-1.3,0.4c-0.3,0.2-0.4,0.8-0.4,1.5v1.8h2.7v2.9h-2.7v8.8h-3.6V462.2z"/>
			<path class="st2" d="M187.8,465.1c0-0.9,0.2-1.8,0.5-2.5c0.3-0.8,0.8-1.4,1.4-1.9c0.6-0.5,1.3-0.9,2.1-1.2
				c0.8-0.3,1.6-0.4,2.5-0.4c0.9,0,1.7,0.1,2.5,0.4c0.8,0.3,1.5,0.7,2.1,1.2s1,1.2,1.4,1.9s0.5,1.6,0.5,2.5s-0.2,1.8-0.5,2.5
				s-0.8,1.4-1.4,1.9s-1.3,0.9-2.1,1.2c-0.8,0.3-1.6,0.4-2.5,0.4c-0.9,0-1.7-0.1-2.5-0.4c-0.8-0.3-1.5-0.7-2.1-1.2
				c-0.6-0.5-1-1.2-1.4-1.9C187.9,466.9,187.8,466.1,187.8,465.1z M191.4,465.1c0,0.9,0.3,1.6,0.8,2.1s1.2,0.8,2.1,0.8
				s1.6-0.3,2.1-0.8s0.8-1.3,0.8-2.1s-0.3-1.6-0.8-2.1s-1.2-0.8-2.1-0.8s-1.6,0.3-2.1,0.8S191.4,464.3,191.4,465.1z"/>
			<path class="st2" d="M202.9,459.3h3.6v1.9h0c0.4-0.7,0.8-1.3,1.4-1.6s1.2-0.5,2-0.5c0.2,0,0.4,0,0.6,0c0.2,0,0.4,0,0.6,0.1v3.3
				c-0.3-0.1-0.5-0.1-0.8-0.2s-0.5-0.1-0.8-0.1c-0.7,0-1.2,0.1-1.6,0.3c-0.4,0.2-0.7,0.5-0.9,0.8c-0.2,0.3-0.4,0.8-0.4,1.2
				c-0.1,0.5-0.1,1-0.1,1.6v4.9h-3.6V459.3z"/>
			<path class="st2" d="M227,469.5L227,469.5c-0.4,0.6-1,1.1-1.6,1.3c-0.7,0.3-1.4,0.4-2.1,0.4c-0.5,0-1.1-0.1-1.6-0.2
				c-0.5-0.2-0.9-0.4-1.3-0.7c-0.4-0.3-0.7-0.7-0.9-1.1c-0.2-0.4-0.3-1-0.3-1.6c0-0.7,0.1-1.2,0.4-1.7c0.2-0.5,0.6-0.8,1-1.2
				s0.9-0.5,1.5-0.7c0.5-0.2,1.1-0.3,1.7-0.4s1.2-0.1,1.8-0.1c0.6,0,1.1,0,1.6,0c0-0.6-0.2-1.1-0.7-1.5c-0.5-0.4-1-0.6-1.6-0.6
				c-0.6,0-1.1,0.1-1.6,0.4s-0.9,0.6-1.3,1l-1.9-2c0.7-0.6,1.5-1.1,2.4-1.4c0.9-0.3,1.8-0.5,2.8-0.5c1.1,0,1.9,0.1,2.6,0.4
				c0.7,0.3,1.2,0.7,1.6,1.2c0.4,0.5,0.7,1.1,0.9,1.9s0.2,1.6,0.2,2.6v5.9H227V469.5z M226.2,465.9c-0.3,0-0.6,0-1,0
				c-0.4,0-0.8,0.1-1.2,0.2c-0.4,0.1-0.7,0.3-1,0.5c-0.3,0.2-0.4,0.5-0.4,0.9c0,0.4,0.2,0.8,0.6,1s0.8,0.3,1.2,0.3
				c0.4,0,0.7,0,1-0.1c0.3-0.1,0.6-0.2,0.9-0.4s0.5-0.4,0.6-0.7c0.2-0.3,0.2-0.6,0.2-1v-0.8H226.2z"/>
			<path class="st2" d="M239.8,452.8h3.6V471h-3.6V452.8z"/>
			<path class="st2" d="M245.7,455.6c0-0.6,0.2-1.1,0.6-1.5c0.4-0.4,0.9-0.6,1.5-0.6s1.1,0.2,1.5,0.6c0.4,0.4,0.6,0.9,0.6,1.5
				s-0.2,1.1-0.6,1.5c-0.4,0.4-0.9,0.6-1.5,0.6s-1.1-0.2-1.5-0.6C245.9,456.7,245.7,456.2,245.7,455.6z M246,459.3h3.6V471H246
				V459.3z"/>
			<path class="st2" d="M253.4,462.2h-2.4v-2.9h2.4v-2.1c0-0.6,0.1-1.2,0.2-1.8c0.1-0.6,0.3-1.1,0.6-1.5s0.8-0.8,1.4-1
				c0.6-0.2,1.4-0.4,2.4-0.4c0.4,0,0.7,0,1.1,0c0.4,0,0.7,0.1,1,0.2l-0.2,3c-0.2-0.1-0.4-0.1-0.6-0.2c-0.2,0-0.4-0.1-0.6-0.1
				c-0.6,0-1,0.1-1.3,0.4s-0.4,0.8-0.4,1.5v1.8h2.7v2.9H257v8.8h-3.6V462.2z"/>
			<path class="st2" d="M272.1,468.9c-0.6,0.7-1.3,1.3-2.2,1.7c-0.9,0.4-1.8,0.6-2.7,0.6c-0.9,0-1.7-0.1-2.5-0.4
				c-0.8-0.3-1.5-0.7-2.1-1.2s-1-1.2-1.4-1.9s-0.5-1.6-0.5-2.5s0.2-1.8,0.5-2.5s0.8-1.4,1.4-1.9s1.3-0.9,2.1-1.2
				c0.8-0.3,1.6-0.4,2.5-0.4c0.8,0,1.6,0.1,2.3,0.4c0.7,0.3,1.3,0.7,1.7,1.2s0.8,1.2,1.1,1.9c0.3,0.8,0.4,1.6,0.4,2.5v1.1h-8.4
				c0.1,0.7,0.5,1.2,0.9,1.6c0.5,0.4,1.1,0.6,1.8,0.6c0.6,0,1.1-0.1,1.5-0.4c0.4-0.3,0.8-0.6,1.1-1L272.1,468.9z M269.1,463.8
				c0-0.6-0.2-1.1-0.6-1.6s-1-0.6-1.6-0.6c-0.4,0-0.8,0.1-1.1,0.2s-0.6,0.3-0.8,0.5s-0.4,0.4-0.5,0.7c-0.1,0.3-0.2,0.5-0.2,0.8
				H269.1z"/>
			<path class="st2" d="M282.8,462.2h-3.2v3.9c0,0.3,0,0.6,0,0.9c0,0.3,0.1,0.5,0.2,0.7c0.1,0.2,0.3,0.3,0.5,0.4
				c0.2,0.1,0.5,0.2,0.9,0.2c0.2,0,0.4,0,0.8-0.1c0.3,0,0.5-0.1,0.7-0.3v3c-0.4,0.1-0.8,0.2-1.2,0.3c-0.4,0-0.9,0.1-1.3,0.1
				c-0.6,0-1.2-0.1-1.7-0.2c-0.5-0.1-1-0.3-1.3-0.6c-0.4-0.3-0.7-0.6-0.9-1.1c-0.2-0.4-0.3-1-0.3-1.6v-5.5h-2.3v-2.9h2.3v-3.5h3.6
				v3.5h3.2V462.2z"/>
			<path class="st2" d="M284.4,455.6c0-0.6,0.2-1.1,0.6-1.5c0.4-0.4,0.9-0.6,1.5-0.6s1.1,0.2,1.5,0.6c0.4,0.4,0.6,0.9,0.6,1.5
				s-0.2,1.1-0.6,1.5c-0.4,0.4-0.9,0.6-1.5,0.6s-1.1-0.2-1.5-0.6C284.6,456.7,284.4,456.2,284.4,455.6z M284.7,459.3h3.6V471h-3.6
				V459.3z"/>
			<path class="st2" d="M290.9,459.3h3.5v1.6h0c0.1-0.2,0.3-0.4,0.5-0.7c0.2-0.2,0.5-0.4,0.7-0.6c0.3-0.2,0.6-0.3,1-0.4
				c0.4-0.1,0.8-0.2,1.2-0.2c0.8,0,1.5,0.2,2.2,0.5c0.6,0.3,1.1,0.9,1.4,1.6c0.4-0.8,0.9-1.3,1.5-1.6s1.3-0.5,2.2-0.5
				c0.8,0,1.4,0.1,2,0.4c0.5,0.3,1,0.6,1.3,1.1c0.3,0.5,0.5,1,0.7,1.6c0.1,0.6,0.2,1.3,0.2,2v6.9h-3.6v-6.8c0-0.5-0.1-1-0.3-1.4
				c-0.2-0.4-0.6-0.6-1.2-0.6c-0.4,0-0.8,0.1-1,0.2s-0.5,0.3-0.7,0.6c-0.2,0.2-0.3,0.5-0.4,0.8c-0.1,0.3-0.1,0.7-0.1,1v6.2h-3.6
				v-6.2c0-0.2,0-0.5,0-0.8c0-0.3-0.1-0.6-0.2-0.9c-0.1-0.3-0.3-0.5-0.5-0.7c-0.2-0.2-0.5-0.3-0.9-0.3c-0.5,0-0.8,0.1-1.1,0.3
				s-0.5,0.4-0.7,0.7c-0.2,0.3-0.3,0.6-0.3,0.9c0,0.4-0.1,0.7-0.1,1.1v5.8h-3.6V459.3z"/>
			<path class="st2" d="M322.8,468.9c-0.6,0.7-1.3,1.3-2.2,1.7c-0.9,0.4-1.8,0.6-2.7,0.6c-0.9,0-1.7-0.1-2.5-0.4
				c-0.8-0.3-1.5-0.7-2.1-1.2s-1-1.2-1.4-1.9s-0.5-1.6-0.5-2.5s0.2-1.8,0.5-2.5s0.8-1.4,1.4-1.9s1.3-0.9,2.1-1.2
				c0.8-0.3,1.6-0.4,2.5-0.4c0.8,0,1.6,0.1,2.3,0.4c0.7,0.3,1.3,0.7,1.7,1.2s0.8,1.2,1.1,1.9c0.3,0.8,0.4,1.6,0.4,2.5v1.1H315
				c0.1,0.7,0.5,1.2,0.9,1.6c0.5,0.4,1.1,0.6,1.8,0.6c0.6,0,1.1-0.1,1.5-0.4c0.4-0.3,0.8-0.6,1.1-1L322.8,468.9z M319.7,463.8
				c0-0.6-0.2-1.1-0.6-1.6s-1-0.6-1.6-0.6c-0.4,0-0.8,0.1-1.1,0.2s-0.6,0.3-0.8,0.5s-0.4,0.4-0.5,0.7c-0.1,0.3-0.2,0.5-0.2,0.8
				H319.7z"/>
		</g>
	</g>
</g>
</svg>
