<?xml version="1.0" encoding="utf-8"?>
<!-- Generator: Adobe Illustrator 26.1.0, SVG Export Plug-In . SVG Version: 6.00 Build 0)  -->
<svg version="1.1" id="Calque_1" xmlns="http://www.w3.org/2000/svg" xmlns:xlink="http://www.w3.org/1999/xlink" x="0px" y="0px"
	 viewBox="0 0 460 530" style="enable-background:new 0 0 460 530;" xml:space="preserve">
<style type="text/css">
	.st0{fill:#4CC7DB;}
	.st1{fill:none;}
	.st2{fill:#001E57;}
	.st3{fill:none;stroke:#001E57;stroke-width:6;stroke-linecap:round;stroke-linejoin:round;stroke-miterlimit:10;}
</style>
<g>
	<g>
		<g>
			<g>
				<path class="st0" d="M196.4,222.8h16.9c4.1,0,8,0.5,11.6,1.4s6.9,2.4,9.6,4.4s4.9,4.7,6.5,8c1.6,3.3,2.4,7.2,2.4,11.9
					c0,4.1-0.8,7.8-2.3,10.9c-1.6,3.1-3.7,5.8-6.3,7.9c-2.6,2.1-5.7,3.8-9.1,4.9c-3.5,1.1-7.1,1.7-10.9,1.7h-18.4V222.8z
					 M207.6,263.4h5.8c2.6,0,5-0.3,7.2-0.8c2.2-0.5,4.2-1.4,5.8-2.6c1.6-1.2,2.9-2.8,3.9-4.8c0.9-2,1.4-4.4,1.4-7.3
					c0-2.5-0.5-4.7-1.4-6.5c-0.9-1.8-2.2-3.4-3.8-4.6c-1.6-1.2-3.4-2.1-5.6-2.7c-2.1-0.6-4.4-0.9-6.7-0.9h-6.6V263.4z"/>
				<path class="st1" d="M248.4,256.3c0-2.8,0.5-5.3,1.5-7.6c1-2.3,2.4-4.2,4.1-5.8c1.8-1.6,3.8-2.8,6.2-3.7
					c2.4-0.9,4.9-1.3,7.6-1.3c2.7,0,5.2,0.4,7.6,1.3s4.4,2.1,6.2,3.7c1.8,1.6,3.1,3.5,4.1,5.8c1,2.3,1.5,4.8,1.5,7.6
					c0,2.8-0.5,5.3-1.5,7.6c-1,2.3-2.4,4.2-4.1,5.8c-1.8,1.6-3.8,2.8-6.2,3.7c-2.4,0.9-4.9,1.3-7.6,1.3c-2.7,0-5.2-0.4-7.6-1.3
					c-2.4-0.9-4.4-2.1-6.2-3.7c-1.8-1.6-3.1-3.5-4.1-5.8C248.9,261.6,248.4,259.1,248.4,256.3z M259.2,256.3c0,2.6,0.8,4.8,2.3,6.4
					c1.5,1.6,3.6,2.4,6.4,2.4c2.7,0,4.9-0.8,6.4-2.4c1.5-1.6,2.3-3.8,2.3-6.4c0-2.6-0.8-4.8-2.3-6.4c-1.5-1.6-3.6-2.4-6.4-2.4
					c-2.7,0-4.9,0.8-6.4,2.4C259.9,251.5,259.2,253.7,259.2,256.3z"/>
				<path class="st0" d="M293.6,238.8H304v4.8h0.1c0.3-0.7,0.8-1.3,1.4-2c0.6-0.7,1.4-1.3,2.2-1.8c0.9-0.5,1.8-1,3-1.3
					c1.1-0.3,2.3-0.5,3.6-0.5c2.7,0,4.9,0.4,6.6,1.3c1.7,0.8,3,2,3.9,3.5c0.9,1.5,1.6,3.2,1.9,5.3c0.3,2,0.5,4.2,0.5,6.6v19.3h-10.8
					v-17.1c0-1,0-2.1-0.1-3.1c-0.1-1.1-0.3-2.1-0.6-3c-0.4-0.9-0.9-1.7-1.7-2.2c-0.7-0.6-1.8-0.9-3.2-0.9s-2.5,0.3-3.4,0.8
					s-1.5,1.2-2,2c-0.5,0.8-0.8,1.8-0.9,2.8c-0.1,1.1-0.2,2.2-0.2,3.3v17.4h-10.8V238.8z"/>
				<path class="st0" d="M343.2,243.1h-9.2l5.3-20.3h10.4L343.2,243.1z"/>
				<path class="st0" d="M378.8,247.4h-9.5v11.7c0,1,0,1.8,0.1,2.6c0.1,0.8,0.3,1.5,0.6,2.1c0.3,0.6,0.9,1,1.5,1.3
					c0.7,0.3,1.6,0.5,2.8,0.5c0.6,0,1.3-0.1,2.3-0.2c0.9-0.1,1.6-0.4,2.1-0.8v9c-1.2,0.4-2.4,0.7-3.7,0.9c-1.3,0.1-2.6,0.2-3.8,0.2
					c-1.8,0-3.5-0.2-5-0.6c-1.5-0.4-2.9-1-4-1.8c-1.2-0.8-2.1-1.9-2.7-3.3c-0.6-1.3-1-3-1-4.9v-16.6h-6.9v-8.6h6.9v-10.4h10.8v10.4
					h9.5V247.4z"/>
			</g>
			<g>
				<g>
					<path class="st0" d="M285.5,238.7c1.1,1.1,1.1,2.8,0,3.9c-1.1,1.1-2.8,1.1-3.9,0c-1.1-1.1-1.1-2.8,0-3.9
						C282.7,237.6,284.4,237.6,285.5,238.7z"/>
					<path class="st0" d="M274.6,249.5c1.1,1.1,1.1,2.8,0,3.9c-1.1,1.1-2.8,1.1-3.9,0c-1.1-1.1-1.1-2.8,0-3.9
						C271.8,248.5,273.5,248.5,274.6,249.5z"/>
				</g>
				<g>
					<path class="st0" d="M267.8,237.8c-10.2,0-18.5,8.3-18.5,18.5c0,10.2,8.3,18.5,18.5,18.5c10.2,0,18.5-8.3,18.5-18.5
						C286.3,246.2,278,237.8,267.8,237.8z M267.8,267.1c-5.9,0-10.7-4.8-10.7-10.7c0-5.9,4.8-10.7,10.7-10.7
						c5.9,0,10.7,4.8,10.7,10.7C278.5,262.3,273.7,267.1,267.8,267.1z"/>
				</g>
			</g>
		</g>
		<g>
			<path class="st0" d="M189.6,332.3c0.5-0.9,1-1.4,1.6-1.4c0.5,0,1,0.2,1.4,0.5c0.5,0.4,1,1,1.4,1.7c-0.7,1.5-1.6,2.8-2.8,4
				c-1,1-2.4,1.9-4.2,2.7c-1.8,0.8-4,1.2-6.6,1.2c-2.6,0-5.2-0.5-8.1-1.4c-2.8-1-5.4-2.5-7.8-4.6c-2.3-2.1-4.3-4.8-5.8-8.1
				c-1.5-3.3-2.3-7.3-2.3-12c0-3.2,0.4-6.5,1.2-9.7c0.8-3.3,1.8-6.4,3-9.5c1.2-3.1,2.5-6,4-8.9c1.5-2.8,2.8-5.5,4.2-8v0.1
				c1.5-2.8,2.8-5.2,3.8-7.3c1-2.1,1.6-3.7,1.6-4.8c0-0.8-0.5-0.9-1.6-0.2c-1.1,0.7-2.5,1.8-4.2,3.5c-1.7,1.6-3.6,3.6-5.8,6
				c-2.2,2.3-4.3,4.8-6.5,7.3c-2.2,2.5-4.3,5-6.3,7.5c-2,2.5-3.7,4.6-5.1,6.6l-1.2,1.5l-0.1,0.2c-1.1,2.3-2.2,4.6-3.2,6.9
				c-1,2.3-1.9,4.3-2.7,6.2c-0.8,1.9-1.4,3.5-1.9,5c-0.5,1.4-0.7,2.5-0.7,3.2c0,0.9,0,1.6,0.1,2.1c0.1,0.5,0.2,1,0.3,1.3
				c0.1,0.3,0.3,0.6,0.5,0.8c0.2,0.2,0.3,0.3,0.5,0.4c0.4,0.3,0.7,0.6,0.9,1c0.2,0.3,0.3,0.8,0.3,1.4c0,0.3-0.3,0.5-0.9,0.6
				c-0.6,0.1-1.3,0.1-2.3-0.1c-0.9-0.2-1.9-0.5-2.9-0.9c-1-0.4-2-1.1-2.9-1.9c-0.9-0.8-1.7-1.9-2.3-3.2c-0.6-1.3-0.9-2.8-0.9-4.6
				c0-1.7,0.4-4,1.3-6.8c0.9-2.8,2-5.9,3.5-9.2c1.4-3.3,3-6.8,4.7-10.3c1.7-3.6,3.4-7.1,5-10.4c1.1-2.3,2.2-4.5,3.2-6.7
				c1-2.1,1.9-4,2.7-5.7c0.8-1.7,1.4-3.2,1.8-4.4c0.5-1.2,0.7-2.1,0.7-2.6c0-0.3,0-0.4,0.1-0.5c-0.8,0-1.9,0.6-3.3,1.8
				c-1.5,1.2-3.1,2.7-5,4.5c-1.8,1.9-3.8,4-5.9,6.4c-2.1,2.4-4.2,4.8-6.2,7.3c-2,2.5-4,4.8-5.8,7.1c-1.8,2.3-3.4,4.3-4.7,6
				c-1.3,2.7-2.6,5.3-3.8,7.9c-1.2,2.6-2.3,5-3.3,7.3c-1,2.3-1.7,4.4-2.3,6.2c-0.6,1.9-0.9,3.4-0.9,4.6c0,1.5,0.1,2.5,0.2,3
				c0.2,0.6,0.3,1,0.5,1.3c0.2,0.3,0.4,0.6,0.5,1c0.2,0.3,0.2,0.8,0.2,1.3c0,0.9-0.3,1.6-0.8,2c-0.5,0.5-1.2,0.7-2.2,0.7
				c-0.8,0-1.7-0.3-2.6-0.8c-1-0.5-1.9-1.3-2.8-2.4c-0.9-1.1-1.6-2.4-2.3-4.1c-0.6-1.6-0.9-3.6-0.9-5.9c0-1.3,0.3-2.9,1-5
				c0.7-2,1.5-4.4,2.6-7c1.1-2.6,2.3-5.4,3.7-8.5c1.4-3,2.9-6.2,4.4-9.4c1.7-3.6,3.3-7.1,5-10.7c1.6-3.6,3.1-6.9,4.4-10.1
				s2.4-6.1,3.2-8.8c0.8-2.6,1.2-4.8,1.2-6.5c0-1.8-0.6-2.7-1.7-2.7c-2.2,0-4.5,0.7-7,2c-2.5,1.3-4.9,3.1-7.3,5.2
				c-2.4,2.2-4.8,4.6-7,7.4c-2.2,2.8-4.2,5.7-5.9,8.6c-1.7,2.9-3.1,5.8-4.1,8.6s-1.5,5.3-1.5,7.5c0,2.2,0.1,4,0.3,5.5
				c0.2,1.5,0.5,2.7,0.8,3.7c0.3,1,0.6,1.8,1,2.3c0.3,0.6,0.6,1,0.9,1.3c0.2,0.4,0.4,0.7,0.6,1c0.2,0.3,0.3,0.7,0.3,1.2
				c0,0.5-0.3,1-0.9,1.4c-0.6,0.4-1.4,0.6-2.4,0.6c-1,0-2.2-0.3-3.7-0.8c-1.4-0.5-2.8-1.5-4.1-2.9c-1.3-1.4-2.4-3.3-3.4-5.8
				s-1.4-5.6-1.4-9.5c0-3.2,0.6-6.5,1.9-9.8c1.3-3.3,3-6.5,5.2-9.6c2.2-3.1,4.8-6,7.8-8.7c3-2.7,6.2-5.1,9.6-7c3.4-2,7-3.6,10.8-4.7
				c3.8-1.2,7.6-1.7,11.3-1.7c1.7,0,3.1,0.3,4.3,0.8s2.1,1.2,2.8,2c0.7,0.8,1.3,1.7,1.7,2.7c0.4,1,0.6,2,0.8,3
				c0.1,1,0.2,1.9,0.2,2.7c0,0.8,0,1.4,0,1.8c0,2-0.5,4.4-1.4,7.2s-2.1,6-3.6,9.4c2.2-2.5,4.4-5,6.7-7.4c2.3-2.4,4.5-4.5,6.7-6.3
				c2.2-1.8,4.3-3.3,6.4-4.4c2-1.1,3.9-1.6,5.7-1.6c2.3,0,4,0.7,5.3,2c1.3,1.4,1.9,3.6,1.9,6.7c0,0.5-0.2,1.3-0.5,2.4
				c-0.3,1-0.8,2.3-1.4,3.7c-0.6,1.4-1.3,3-2.2,4.8c-0.8,1.8-1.7,3.6-2.7,5.6c2.1-2.4,4.3-4.7,6.5-6.9c2.2-2.2,4.3-4.1,6.3-5.7
				c2-1.6,3.9-2.9,5.7-3.9c1.8-1,3.4-1.4,4.7-1.4c1.6,0,2.9,0.3,4,0.8c1.1,0.5,1.9,1.2,2.6,2c0.7,0.8,1.1,1.8,1.4,2.9
				s0.4,2.2,0.4,3.3c0,1.7-0.7,3.9-2,6.5c-1.3,2.6-2.9,5.5-4.7,8.6c-1.3,2.3-2.7,4.8-4.1,7.4c-1.4,2.6-2.7,5.3-3.9,8.1
				c-1.2,2.8-2.2,5.6-2.9,8.4c-0.8,2.8-1.2,5.6-1.2,8.3c0,3.7,0.6,6.8,1.7,9.2c1.1,2.4,2.5,4.2,4.1,5.6c1.6,1.4,3.3,2.3,5.1,2.8
				c1.8,0.5,3.3,0.8,4.6,0.8c2.5,0,4.3-0.4,5.5-1.1C188.4,333.7,189.2,333,189.6,332.3z"/>
			<path class="st0" d="M179,312c0-2,0.3-4,1-6.1c0.7-2.1,1.6-4.2,2.7-6.2c1.2-2,2.5-4,4.1-5.8c1.6-1.8,3.3-3.5,5.2-4.8
				c1.8-1.4,3.8-2.5,5.8-3.3c2-0.8,4-1.2,6-1.2c1.7,0,3.2,0.2,4.4,0.7c1.2,0.5,2.2,1.1,3,1.8c0.8,0.8,1.4,1.6,1.8,2.5
				c0.4,0.9,0.7,1.8,0.9,2.6c0.2,0.8,0.2,1.6,0.2,2.3c0,0.7-0.1,1.2-0.3,1.4h0.1c-0.1,0.4-0.4,0.5-0.9,0.5c-0.4,0-0.9-0.1-1.3-0.3
				c-0.4-0.2-0.8-0.4-1.2-0.6c-0.3-0.2-0.5-0.4-0.4-0.6c0-0.1,0.1-0.3,0-0.8c0-0.4-0.2-0.8-0.4-1.3c-0.3-0.4-0.7-0.8-1.2-1.2
				c-0.6-0.3-1.4-0.5-2.4-0.5c-1.1,0-2.3,0.5-3.5,1.4c-1.3,1-2.5,2.2-3.7,3.7c-1.2,1.5-2.4,3.3-3.6,5.2c-1.1,1.9-2.1,3.9-3,5.9
				c-0.8,2-1.5,3.9-2,5.7s-0.8,3.4-0.8,4.7c0,1.6,0.5,2.5,1.4,2.5c1.1,0,2.3-0.5,3.5-1.5c1.2-1,2.3-2.3,3.5-3.8
				c1.1-1.5,2.2-3.3,3.1-5.1c1-1.9,1.8-3.6,2.5-5.3c0.7-1.7,1.3-3.2,1.7-4.4c0.4-1.3,0.6-2.1,0.6-2.5c0-0.4,0.2-0.7,0.7-0.8
				c0.5-0.1,1,0,1.7,0.1c0.7,0.2,1.4,0.4,2.2,0.8c0.8,0.3,1.6,0.7,2.2,1.2c0.7,0.4,1.2,0.9,1.7,1.4c0.5,0.5,0.7,0.9,0.7,1.3
				c0,0.5-0.2,1.3-0.7,2.5c-0.5,1.1-1,2.4-1.7,3.9c-0.5,1-0.9,2-1.4,3.1c-0.5,1.1-0.9,2.2-1.3,3.2c-0.4,1-0.7,2-1,2.9
				c-0.2,0.9-0.4,1.7-0.4,2.3c0,0.2,0,0.3-0.1,0.3c0.6,0,1.4-0.5,2.4-1.6c1-1.1,2-2.4,3.2-4.1c1.1-1.7,2.3-3.5,3.4-5.5
				c1.2-2,2.3-4,3.3-5.8s1.9-3.6,2.7-5.1c0.8-1.5,1.3-2.7,1.7-3.4c0.2-0.4,0.5-0.5,1.1-0.5c0.5,0,1,0.1,1.5,0.3
				c0.5,0.2,0.9,0.5,1.3,0.9c0.3,0.4,0.4,0.7,0.3,1.1c-0.4,0.9-1.1,2.3-2,4.1c-0.9,1.8-2,3.8-3.2,6c-1.2,2.2-2.6,4.4-4,6.7
				c-1.4,2.3-2.9,4.4-4.4,6.3c-1.5,1.9-2.9,3.4-4.3,4.6c-1.4,1.2-2.7,1.8-3.9,1.8c-1.3,0-2.5-0.3-3.4-1c-1-0.7-1.8-1.4-2.5-2.2
				c-0.8-0.9-1.5-2-2-3.2c-0.5,0.6-1.2,1.3-1.9,2c-0.7,0.7-1.5,1.4-2.3,2c-0.8,0.6-1.7,1.2-2.7,1.6c-0.9,0.4-1.8,0.6-2.8,0.6
				c-1.8,0-3.3-0.4-4.7-1.2c-1.3-0.8-2.5-1.8-3.4-3.1c-0.9-1.3-1.6-2.7-2.1-4.3C179.3,315.2,179,313.6,179,312z"/>
			<path class="st0" d="M261.1,294.5c0.5-0.8,1-1.4,1.6-1.6c0.6-0.2,1.2-0.3,1.7-0.1c0.5,0.2,0.9,0.6,1.1,1.2
				c0.2,0.6,0.1,1.3-0.3,2.2c-0.5,0.9-1.1,2.3-2,4.1c-0.9,1.8-1.9,3.8-3,6s-2.4,4.4-3.9,6.7c-1.4,2.3-2.9,4.3-4.4,6.2
				c-1.5,1.9-3.1,3.4-4.6,4.6c-1.6,1.2-3.1,1.8-4.5,1.8c-2.2,0-4.1-0.8-5.5-2.5c-1.5-1.7-2.2-3.9-2.2-6.7c0-1,0.2-2.1,0.6-3.5
				c0.4-1.4,0.9-2.9,1.5-4.5c0.6-1.6,1.4-3.3,2.2-5.1c0.8-1.8,1.6-3.5,2.4-5.2c-1.5,1.8-3.1,3.7-4.7,5.7c-1.7,2-3.2,4-4.7,5.9
				c-1.5,1.9-2.8,3.8-3.9,5.5c-1.1,1.7-2,3.1-2.5,4.3c0,0.2-0.1,0.4-0.1,0.6c0,0.2,0,0.3,0,0.4l0.1,0.5c0,0.1,0.1,0.3,0.1,0.5
				c0,0.2,0,0.3,0.1,0.5v-0.1c0.1,0.5,0.2,1,0.3,1.5c0.1,0.5,0.1,0.9,0,1.2c-0.1,0.3-0.3,0.6-0.7,0.8c-0.4,0.2-0.9,0.3-1.6,0.3
				c-0.9,0-1.8-0.2-2.7-0.6c-0.9-0.4-1.7-1-2.5-1.8c-0.8-0.8-1.4-1.7-1.9-2.8c-0.5-1.1-0.8-2.3-0.8-3.7c0-1.2,0.2-2.5,0.5-3.9
				c0.4-1.4,0.8-2.8,1.4-4.3c0.6-1.5,1.3-3,2-4.5c0.8-1.5,1.5-3,2.3-4.5c1.3-2.5,2.4-4.8,3.4-7c1-2.2,1.5-3.9,1.5-5.3
				c0-0.7,0.5-1.1,1.5-1.2c1,0,2.1,0.2,3.3,0.8c1.2,0.5,2.3,1.3,3.3,2.4c1,1,1.5,2.2,1.5,3.6c0,0.6-0.2,1.4-0.5,2.4
				c-0.3,1-0.8,2-1.3,3.2c1.4-1.7,2.8-3.3,4.2-4.9c1.4-1.6,2.7-3,3.9-4.3c1.2-1.3,2.3-2.3,3.2-3c0.9-0.8,1.6-1.2,2-1.2
				c0.1,0,0.2,0,0.4,0c0.2,0,0.4,0,0.5,0.1c0.5,0.2,1.2,0.5,1.8,1c0.7,0.5,1.3,1,1.9,1.7c0.6,0.7,1.1,1.4,1.5,2.2
				c0.4,0.8,0.6,1.6,0.6,2.4c0,0.6-0.4,1.8-1.1,3.5c-0.8,1.7-1.7,3.6-2.7,5.8c-0.8,1.6-1.6,3.3-2.4,5c-0.8,1.8-1.6,3.4-2.3,5.1
				c-0.7,1.6-1.3,3.1-1.7,4.5c-0.5,1.4-0.7,2.5-0.7,3.3c0,0.4,0,0.5,0.1,0.5c0.7,0,1.5-0.5,2.5-1.4c1-1,2-2.2,3.1-3.8
				c1.1-1.5,2.2-3.3,3.4-5.2c1.1-1.9,2.2-3.8,3.2-5.6c1-1.9,1.9-3.6,2.7-5.2c0.8-1.6,1.4-2.9,1.8-3.9V294.5z"/>
			<path class="st0" d="M253.5,312c0-2,0.3-4,1-6.1c0.7-2.1,1.6-4.2,2.7-6.2c1.2-2,2.5-4,4.1-5.8c1.6-1.8,3.3-3.5,5.2-4.8
				c1.8-1.4,3.8-2.5,5.8-3.3c2-0.8,4-1.2,6-1.2c1.7,0,3.2,0.2,4.4,0.7c1.2,0.5,2.2,1.1,3,1.8c0.8,0.8,1.4,1.6,1.8,2.5
				c0.4,0.9,0.7,1.8,0.9,2.6c0.2,0.8,0.2,1.6,0.2,2.3c0,0.7-0.1,1.2-0.3,1.4h0.1c-0.1,0.4-0.4,0.5-0.9,0.5c-0.4,0-0.9-0.1-1.3-0.3
				c-0.4-0.2-0.8-0.4-1.2-0.6c-0.3-0.2-0.5-0.4-0.4-0.6c0-0.1,0.1-0.3,0-0.8c0-0.4-0.2-0.8-0.4-1.3c-0.3-0.4-0.7-0.8-1.2-1.2
				c-0.6-0.3-1.4-0.5-2.4-0.5c-1.1,0-2.3,0.5-3.5,1.4c-1.3,1-2.5,2.2-3.7,3.7c-1.2,1.5-2.4,3.3-3.6,5.2c-1.1,1.9-2.1,3.9-3,5.9
				c-0.8,2-1.5,3.9-2,5.7s-0.8,3.4-0.8,4.7c0,1.6,0.5,2.5,1.4,2.5c1.1,0,2.3-0.5,3.5-1.5c1.2-1,2.3-2.3,3.5-3.8
				c1.1-1.5,2.2-3.3,3.1-5.1c1-1.9,1.8-3.6,2.5-5.3c0.7-1.7,1.3-3.2,1.7-4.4c0.4-1.3,0.6-2.1,0.6-2.5c0-0.4,0.2-0.7,0.7-0.8
				c0.5-0.1,1,0,1.7,0.1c0.7,0.2,1.4,0.4,2.2,0.8c0.8,0.3,1.6,0.7,2.2,1.2c0.7,0.4,1.2,0.9,1.7,1.4c0.5,0.5,0.7,0.9,0.7,1.3
				c0,0.5-0.2,1.3-0.7,2.5c-0.5,1.1-1,2.4-1.7,3.9c-0.5,1-0.9,2-1.4,3.1c-0.5,1.1-0.9,2.2-1.3,3.2c-0.4,1-0.7,2-1,2.9
				c-0.2,0.9-0.4,1.7-0.4,2.3c0,0.2,0,0.3-0.1,0.3c0.6,0,1.4-0.5,2.4-1.6c1-1.1,2-2.4,3.2-4.1c1.1-1.7,2.3-3.5,3.4-5.5
				c1.2-2,2.3-4,3.3-5.8s1.9-3.6,2.7-5.1c0.8-1.5,1.3-2.7,1.7-3.4c0.2-0.4,0.5-0.5,1.1-0.5c0.5,0,1,0.1,1.5,0.3
				c0.5,0.2,0.9,0.5,1.3,0.9c0.3,0.4,0.4,0.7,0.3,1.1c-0.4,0.9-1.1,2.3-2,4.1c-0.9,1.8-2,3.8-3.2,6c-1.2,2.2-2.6,4.4-4,6.7
				c-1.4,2.3-2.9,4.4-4.4,6.3c-1.5,1.9-2.9,3.4-4.3,4.6c-1.4,1.2-2.7,1.8-3.9,1.8c-1.3,0-2.5-0.3-3.4-1c-1-0.7-1.8-1.4-2.5-2.2
				c-0.8-0.9-1.5-2-2-3.2c-0.5,0.6-1.2,1.3-1.9,2c-0.7,0.7-1.5,1.4-2.3,2c-0.8,0.6-1.7,1.2-2.7,1.6c-0.9,0.4-1.8,0.6-2.8,0.6
				c-1.8,0-3.3-0.4-4.7-1.2c-1.3-0.8-2.5-1.8-3.4-3.1c-0.9-1.3-1.6-2.7-2.1-4.3C253.7,315.2,253.5,313.6,253.5,312z"/>
			<path class="st0" d="M339.7,294.4c0.5-0.8,1-1.4,1.6-1.6c0.6-0.2,1.2-0.3,1.7-0.1c0.5,0.2,0.9,0.6,1.1,1.2
				c0.2,0.6,0.1,1.3-0.2,2.3c-0.8,1.8-2,3.7-3.5,5.6c-1.5,1.9-3.2,3.9-5.2,5.9c-2,2-4.2,4-6.5,6s-4.8,4-7.3,6
				c-1.1,2.5-2.4,5.1-3.8,7.8c-1.4,2.7-2.9,5.3-4.4,7.9c-1.5,2.6-3.1,5-4.8,7.3c-1.6,2.3-3.3,4.3-5,6c-1.7,1.7-3.3,3.1-4.9,4.1
				c-1.6,1-3.2,1.5-4.6,1.5c-2.1,0-3.8-0.3-5.2-0.8c-1.4-0.5-2.4-1.2-3.2-2c-0.8-0.8-1.4-1.6-1.7-2.5c-0.3-0.9-0.5-1.7-0.5-2.4
				c0-1.4,0.6-2.9,1.9-4.6c1.3-1.7,3.1-3.4,5.3-5.3c2.2-1.9,4.8-3.9,7.7-6c2.9-2.1,5.9-4.3,9.1-6.6l0.3-0.8
				c-0.9,0.6-1.7,1.1-2.6,1.5c-0.9,0.4-1.8,0.5-2.7,0.5c-1.8,0-3.3-0.4-4.7-1.2c-1.3-0.8-2.5-1.8-3.4-3.1c-0.9-1.3-1.6-2.7-2.1-4.3
				c-0.5-1.6-0.7-3.2-0.7-4.8c0-2,0.3-4,1-6.1c0.7-2.1,1.6-4.2,2.7-6.3s2.5-4,4.1-5.9c1.6-1.8,3.3-3.5,5.2-4.8
				c1.8-1.4,3.8-2.5,5.8-3.3c2-0.8,4.1-1.2,6.1-1.2c1.7,0,3.2,0.2,4.4,0.7c1.2,0.5,2.2,1.1,2.9,1.8c0.8,0.8,1.4,1.6,1.8,2.5
				c0.4,0.9,0.7,1.8,0.9,2.6c0.2,0.8,0.2,1.6,0.2,2.3c0,0.7-0.1,1.2-0.2,1.5c-0.5,1.1-1.1,1.8-1.8,1.9c0.7,0.8,1.3,1.6,1.8,2.6
				c0.5,1,0.8,1.8,0.8,2.7c0,0.6-0.2,1.7-0.6,3.1s-0.9,3-1.6,4.7c3.3-2.7,6.2-5.5,8.7-8.2C336.4,299.9,338.3,297.2,339.7,294.4
				L339.7,294.4z M288,348.2c1.2,0,2.5-0.5,3.9-1.4s2.7-2.2,4.1-3.8s2.8-3.4,4.2-5.5c1.4-2.1,2.8-4.4,4.2-6.7
				c-2.4,1.8-4.7,3.6-6.8,5.2c-2.1,1.6-4,3.2-5.5,4.5c-1.6,1.4-2.8,2.6-3.7,3.8c-0.9,1.1-1.4,2.1-1.4,2.8
				C287,347.9,287.4,348.2,288,348.2z M322.7,295c0-0.1,0.1-0.3,0-0.8c0-0.4-0.2-0.8-0.4-1.3c-0.3-0.5-0.7-0.9-1.2-1.2
				c-0.6-0.4-1.4-0.5-2.4-0.5c-1.1,0-2.3,0.5-3.5,1.4c-1.3,1-2.5,2.2-3.7,3.8c-1.2,1.5-2.4,3.3-3.6,5.2c-1.1,1.9-2.1,3.9-3,5.9
				c-0.9,2-1.6,3.9-2.1,5.8s-0.8,3.4-0.8,4.7c0,0.8,0.1,1.4,0.3,1.8c0.2,0.4,0.6,0.6,1.1,0.6c1.3,0,2.6-0.6,4-1.9
				c1.3-1.3,2.6-2.8,3.8-4.6c1.2-1.8,2.3-3.7,3.2-5.7s1.7-3.8,2.3-5.4v0.1c0.2-0.7,0.4-1.3,0.5-1.9c0.2-0.6,0.3-1.1,0.4-1.6v-0.3
				c0-1.5,0.3-2.5,0.8-3.1c0.5-0.6,1.2-0.9,2.1-0.9c0.7,0,1.5,0.3,2.3,0.8C322.5,295.6,322.5,295.3,322.7,295z"/>
		</g>
		<g>
			<path class="st2" d="M115.9,335c3,0,5.5,0.3,7.5,0.8c2,0.6,3.6,1.2,4.8,2c1.2,0.8,2.1,1.6,2.6,2.5c0.5,0.9,0.7,1.6,0.7,2.2
				c0,0.6-0.2,1.1-0.6,1.6c-0.4,0.5-0.9,0.7-1.5,0.7c-0.5,0-0.8-0.1-1-0.2c-0.2-0.1-0.3-0.3-0.4-0.5c-0.1-0.2-0.1-0.4,0-0.7
				c0.1-0.2,0.1-0.5,0.2-0.7c0-0.2,0.1-0.3,0.1-0.3c0-0.3-0.2-0.7-0.5-1.1c-0.3-0.4-0.8-0.7-1.4-1c-0.6-0.3-1.3-0.5-2.1-0.7
				c-0.8-0.2-1.8-0.3-2.8-0.3c-4.3,0-8.2,0.3-12,0.9c-3.7,0.6-7.1,1.3-10.3,2.2c-3.1,0.9-6,1.8-8.6,2.8c-2.6,1-4.8,1.9-6.8,2.7
				c-1.8,0.8-3.4,1.4-4.8,2c-1.4,0.5-2.5,0.8-3.4,0.8c-0.5,0-1-0.1-1.6-0.4s-1-0.5-1.4-0.9c-0.4-0.3-0.7-0.7-1-1.1
				c-0.3-0.4-0.4-0.8-0.4-1.1c0-0.5,0.2-0.9,0.6-1.2c0.4-0.3,1-0.5,1.8-0.5c0.3,0,1-0.2,2.1-0.6c1.1-0.4,2.5-0.9,4-1.4
				c1.5-0.5,3.1-1.1,4.9-1.7c1.8-0.6,3.7-1.3,5.7-1.9c2-0.6,4.1-1.3,6.2-1.9c2.2-0.6,4.3-1.1,6.5-1.6c2.2-0.5,4.3-0.8,6.4-1.1
				S114,335,115.9,335z M102.7,350.8c0.4,0,0.8,0.1,1.1,0.2s0.5,0.4,0.7,0.6c0.2,0.3,0.3,0.5,0.4,0.9c0.1,0.3,0.1,0.6,0.1,1
				c0,0.6-0.1,1.1-0.4,1.5c-0.3,0.4-0.7,0.6-1.2,0.6c-1.6,0-3.2,0.1-4.7,0.3s-3,0.4-4.4,0.7c-0.7,1.3-1.5,2.7-2.3,4.3
				c-0.8,1.6-1.6,3.1-2.3,4.5c-0.7,1.5-1.3,2.8-1.8,3.9c-0.5,1.2-0.7,2-0.7,2.5c0,1,0.1,1.8,0.3,2.4s0.4,1.2,0.6,1.6
				c0.3,0.7,0.4,1.3,0.4,1.6c0,0.3-0.5,0.4-1.3,0.4c-0.4,0-0.9-0.2-1.5-0.5c-0.6-0.3-1.1-0.8-1.6-1.5s-1-1.4-1.3-2.2
				c-0.4-0.9-0.6-1.8-0.6-2.9c0-0.4,0.1-1.1,0.4-2s0.7-1.9,1.1-3s1-2.3,1.6-3.5c0.6-1.2,1.1-2.4,1.7-3.5c-0.3,0.1-0.7,0.2-1,0.4
				c-0.3,0.1-0.6,0.3-0.9,0.3c-0.4,0.2-0.8,0.3-1,0.4c-0.3,0.1-0.5,0.1-0.7,0.1c-0.5,0-0.9-0.1-1.1-0.4c-0.2-0.3-0.3-0.6-0.3-0.9
				c0-0.3,0.2-0.7,0.6-1.1c0.4-0.4,0.9-0.8,1.6-1.2c0.7-0.4,1.5-0.9,2.4-1.3c0.9-0.4,1.9-0.8,2.9-1.2c0.3-0.7,0.7-1.3,1-1.9
				c0.3-0.6,0.6-1.1,0.9-1.6v0c0.7-1.2,1.2-2.2,1.5-2.9c0.3-0.7,0.5-1.1,0.5-1.4c0-0.4,0.3-0.6,0.8-0.6c0.5,0,1.1,0.2,1.7,0.5
				c0.6,0.3,1.2,0.7,1.7,1.1c0.5,0.5,0.8,0.9,0.8,1.3v0.2c0,0.2,0,0.4,0,0.5c0,0.1,0,0.3-0.1,0.5s-0.1,0.4-0.3,0.7s-0.3,0.6-0.6,1.1
				C99.3,351,101.1,350.8,102.7,350.8z"/>
			<path class="st2" d="M124.5,356.8c0.1-0.2,0.3-0.3,0.5-0.3c0.3,0,0.5,0.1,0.8,0.2c0.2,0.1,0.4,0.3,0.6,0.5
				c0.2,0.2,0.2,0.4,0.1,0.6c-0.2,0.3-0.4,0.8-0.7,1.3c-0.3,0.6-0.7,1.2-1.2,1.8c-0.5,0.7-1,1.4-1.6,2.1s-1.3,1.4-2,2
				s-1.5,1.1-2.4,1.6c-0.9,0.5-1.8,0.7-2.7,0.9c-1,1.5-2.2,2.6-3.5,3.6c-1.3,0.9-2.7,1.4-4.1,1.4c-0.8,0-1.5-0.1-2.2-0.4
				c-0.7-0.3-1.4-0.7-1.9-1.3c-0.6-0.6-1-1.3-1.4-2.2c-0.3-0.9-0.5-1.9-0.5-3.1c0-1.1,0.2-2.2,0.6-3.4c0.4-1.2,0.9-2.2,1.5-3.2
				c0.6-1,1.1-1.8,1.7-2.4c0.6-0.6,1-0.9,1.4-0.9c0.2,0,0.5,0,0.8,0.1c0.3,0,0.5,0.1,0.8,0.2c0.4-0.6,0.9-1.1,1.3-1.6
				c0.5-0.5,1-0.9,1.5-1.3c0.5-0.4,1.1-0.6,1.7-0.9s1.2-0.3,1.8-0.3c0.9,0,1.6,0.1,2.2,0.3c0.6,0.2,1,0.5,1.3,0.8
				c0.3,0.4,0.6,0.8,0.7,1.3c0.1,0.5,0.2,1,0.2,1.6c0,3-0.7,5.9-2,8.7c0.8-0.5,1.6-1,2.4-1.8c0.7-0.7,1.4-1.4,2-2.2s1.1-1.4,1.5-2.1
				C124.1,357.7,124.4,357.2,124.5,356.8z M108.5,369.8c0.8,0,1.6-0.2,2.3-0.6c0.7-0.4,1.4-1,2-1.7c-0.9-0.2-1.7-0.6-2.5-1.1
				c-0.8-0.5-1.4-1-2-1.6c-0.3,0.7-0.5,1.4-0.7,2.1c-0.2,0.7-0.3,1.3-0.3,1.8c0,0.4,0.1,0.7,0.3,0.9
				C107.7,369.7,108,369.8,108.5,369.8z M112.5,363.3c0,0.5,0.1,1,0.4,1.3c0.3,0.4,0.7,0.6,1.4,0.7c0.5-0.8,0.9-1.6,1.2-2.5
				s0.7-1.7,0.9-2.5c0.3-0.8,0.4-1.6,0.6-2.3c0.1-0.7,0.2-1.4,0.2-2c0-0.9-0.1-1.4-0.3-1.4c-0.2,0-0.6,0.3-1.1,0.9
				c-0.5,0.6-1,1.3-1.5,2.2c-0.5,0.9-0.9,1.8-1.3,2.8C112.7,361.5,112.5,362.4,112.5,363.3z"/>
			<path class="st2" d="M137.2,356.8c0.1-0.2,0.3-0.3,0.5-0.3c0.3,0,0.5,0.1,0.8,0.2c0.3,0.1,0.5,0.2,0.7,0.4s0.2,0.4,0.1,0.5
				c-0.2,0.5-0.5,1.1-1,2.1c-0.4,0.9-1,1.9-1.6,3c-0.6,1.1-1.3,2.2-2,3.4c-0.7,1.2-1.4,2.2-2.2,3.1c-0.7,0.9-1.5,1.7-2.3,2.3
				c-0.8,0.6-1.5,0.9-2.1,0.9s-1.3-0.1-1.8-0.4s-1-0.6-1.4-1c-0.4-0.4-0.7-0.8-0.9-1.3c-0.2-0.5-0.3-1-0.3-1.6
				c0-0.7,0.1-1.5,0.4-2.4c0.3-0.9,0.6-1.8,0.9-2.7c0.4-1,0.8-2,1.3-3.1c-0.2-0.1-0.4-0.2-0.6-0.4c-0.2-0.1-0.4-0.3-0.6-0.5
				c-0.2,0.4-0.4,0.8-0.6,1.2c-0.2,0.4-0.6,1-1,1.8c-0.1,0.2-0.3,0.2-0.5,0.2c-0.3,0-0.5-0.1-0.8-0.2c-0.3-0.1-0.5-0.3-0.6-0.5
				s-0.2-0.4-0.1-0.5v0c0.3-0.6,0.6-1.1,0.8-1.5c0.2-0.4,0.4-0.8,0.6-1.1c0.2-0.3,0.3-0.6,0.4-0.8c0.1-0.2,0.2-0.5,0.3-0.7
				c-0.1-0.3-0.2-0.6-0.3-1s-0.1-0.7-0.1-1.1c0-0.8,0.1-1.5,0.3-2.2c0.2-0.7,0.4-1.4,0.7-2c0.3-0.6,0.6-1.1,1-1.4
				c0.4-0.4,0.7-0.5,1.1-0.5c0.3,0,0.8,0,1.2,0.1c0.5,0.1,0.9,0.2,1.4,0.4c0.4,0.2,0.8,0.4,1.1,0.7c0.3,0.3,0.4,0.6,0.4,1.1
				c0,0.4-0.1,0.8-0.3,1.2c-0.2,0.4-0.4,0.8-0.7,1.3c-0.3,0.5-0.6,1.1-0.9,1.7c-0.3,0.6-0.4,1.1-0.4,1.7c0,0.4,0.1,0.7,0.2,1
				c0.1,0.3,0.2,0.5,0.4,0.7c0.2,0.2,0.4,0.4,0.6,0.5c0.2,0.1,0.4,0.3,0.6,0.4c0.4,0.2,0.7,0.4,1,0.6c0.3,0.2,0.4,0.5,0.4,1
				c0,0.3-0.1,0.7-0.3,1.2c-0.2,0.5-0.5,1.1-0.8,1.8c-0.2,0.5-0.4,1-0.7,1.5c-0.2,0.5-0.4,1-0.6,1.5c-0.2,0.5-0.3,0.9-0.5,1.4
				c-0.1,0.4-0.2,0.8-0.2,1.1c0,0.3,0.1,0.4,0.2,0.4c0.3,0,0.8-0.3,1.3-0.8s1-1.2,1.6-2s1.2-1.8,1.7-2.8c0.6-1,1.1-2,1.7-3
				s1-1.9,1.4-2.7C136.7,357.9,137,357.3,137.2,356.8L137.2,356.8z"/>
			<path class="st2" d="M168.6,349.4c0,0.2-0.2,0.4-0.6,0.8c-0.4,0.3-1,0.7-1.8,1c-0.8,0.3-1.8,0.6-3.1,0.9
				c-1.2,0.3-2.7,0.4-4.4,0.4c-0.2,0.5-0.4,0.9-0.6,1.4c-0.2,0.5-0.4,0.9-0.7,1.4c-0.6,1.3-1.2,2.6-1.9,4s-1.2,2.6-1.7,3.8
				c-0.5,1.2-0.9,2.3-1.2,3.3c-0.3,1-0.5,1.8-0.5,2.4c0,0.6,0.2,0.8,0.5,0.8c0.6,0,1.3-0.3,2.1-0.8c0.7-0.5,1.5-1.2,2.3-2
				c0.8-0.8,1.5-1.7,2.3-2.7s1.4-2,2-2.9c0.6-0.9,1.1-1.8,1.6-2.6s0.7-1.3,0.9-1.7c0.1-0.2,0.3-0.2,0.5-0.2s0.5,0.1,0.8,0.2
				c0.3,0.1,0.5,0.2,0.7,0.4s0.2,0.4,0.2,0.5c-0.2,0.5-0.6,1.1-1.1,2.1c-0.5,0.9-1.1,1.9-1.8,3c-0.7,1.1-1.5,2.2-2.4,3.4
				c-0.9,1.1-1.8,2.2-2.8,3.1c-1,0.9-2,1.7-3,2.3c-1,0.6-2,0.9-3.1,0.9c-0.4,0-0.9-0.1-1.4-0.4c-0.5-0.2-1.1-0.6-1.5-1.1
				c-0.5-0.5-0.9-1-1.2-1.7c-0.3-0.7-0.5-1.4-0.5-2.3c0-0.5,0.1-1.2,0.4-2.2c0.3-0.9,0.7-2,1.2-3.2c0.5-1.2,1.1-2.5,1.7-3.9
				c0.6-1.4,1.3-2.7,1.9-4.1l0.7-1.6c-1-0.2-1.9-0.4-2.7-0.6c-0.8-0.2-1.5-0.5-2-0.7c-0.5-0.3-1-0.5-1.2-0.7
				c-0.3-0.2-0.4-0.4-0.4-0.6c0-0.3,0.1-0.6,0.2-0.7c0.1-0.1,0.3-0.2,0.5-0.3s0.5,0,0.8,0.1s0.7,0.2,1.2,0.2c0.5,0.1,1.2,0.2,2,0.4
				c0.8,0.1,1.8,0.3,2.9,0.4c0.8-1.8,1.5-3.4,2.1-4.8c0.5-1.4,0.8-2.4,0.8-3c0-0.4,0.2-0.5,0.7-0.5s1,0.2,1.5,0.5
				c0.6,0.3,1.1,0.7,1.5,1.2c0.5,0.5,0.7,1,0.7,1.5c0,0.5-0.2,1.2-0.5,2.2c-0.3,0.9-0.7,2-1.3,3.1c1.4,0,2.6-0.2,3.6-0.3
				c1.1-0.2,1.9-0.4,2.6-0.6l0,0c0.7-0.2,1.3-0.3,1.7-0.2C168.4,348.7,168.6,349,168.6,349.4z"/>
			<path class="st2" d="M183.8,356.8c0.1-0.2,0.3-0.3,0.5-0.3s0.5,0.1,0.8,0.2c0.3,0.1,0.5,0.2,0.6,0.4s0.2,0.4,0.2,0.6
				c-0.2,0.5-0.6,1.1-1.1,2.1c-0.5,0.9-1.1,1.9-1.9,3c-0.7,1.1-1.5,2.2-2.4,3.4c-0.8,1.2-1.7,2.2-2.6,3.1c-0.9,0.9-1.7,1.7-2.6,2.3
				c-0.8,0.6-1.6,0.9-2.3,0.9c-1.1,0-2-0.4-2.8-1.3c-0.7-0.8-1.1-2-1.1-3.4c0-0.5,0.1-1.1,0.3-1.8s0.5-1.5,0.8-2.3
				c0.3-0.8,0.7-1.7,1.1-2.6c0.4-0.9,0.8-1.8,1.2-2.7c-0.8,0.9-1.5,1.8-2.4,2.8s-1.6,2-2.3,3c-0.7,1-1.4,1.9-2,2.7
				c-0.6,0.9-1,1.6-1.3,2.2c-0.1,0.3-0.1,0.5-0.1,0.7l0.1,0.3c0,0.1,0,0.2,0.1,0.2c0,0.1,0,0.2,0.1,0.2l0,0c0.1,0.3,0.1,0.5,0.2,0.8
				s0,0.4,0,0.6s-0.2,0.3-0.3,0.4s-0.4,0.2-0.8,0.2c-0.5,0-0.9-0.1-1.4-0.3c-0.5-0.2-0.9-0.5-1.3-0.9c-0.4-0.4-0.7-0.9-1-1.5
				c-0.3-0.6-0.4-1.2-0.4-1.9c0-0.6,0.1-1.3,0.4-2.3c0.3-0.9,0.7-2,1.2-3.2c0.5-1.2,1.1-2.4,1.7-3.8c0.6-1.3,1.3-2.7,2-4.1
				c0.6-1.3,1.3-2.7,1.9-4c0.6-1.3,1.2-2.5,1.7-3.7c0.5-1.1,0.9-2.1,1.2-3c0.3-0.9,0.4-1.6,0.4-2.1c0-0.4,0.3-0.5,0.8-0.5
				c0.5,0,1.1,0.2,1.7,0.5c0.6,0.3,1.2,0.7,1.7,1.2c0.5,0.5,0.8,1,0.8,1.4c0,0.6-0.2,1.4-0.5,2.4c-0.3,1-0.8,2.1-1.3,3.3
				c-0.5,1.2-1.1,2.5-1.8,3.9c-0.7,1.4-1.4,2.8-2.1,4.2l-0.3,0.5v0c0.7-0.9,1.4-1.7,2.1-2.5c0.7-0.8,1.4-1.6,2-2.2
				c0.6-0.7,1.2-1.2,1.7-1.6c0.5-0.4,0.9-0.6,1.1-0.7c0.3,0,0.6,0.1,1,0.3c0.4,0.2,0.8,0.5,1.1,0.9c0.4,0.4,0.7,0.8,1,1.2
				c0.3,0.5,0.4,0.9,0.4,1.4c0,0.3-0.2,0.9-0.6,1.8c-0.4,0.8-0.9,1.8-1.4,3c-0.4,0.8-0.8,1.6-1.2,2.5c-0.4,0.9-0.8,1.7-1.2,2.6
				c-0.4,0.8-0.6,1.6-0.9,2.3c-0.2,0.7-0.3,1.2-0.3,1.7v0.2c0,0,0,0.1,0,0.1c0.3,0,0.8-0.3,1.4-0.8c0.6-0.5,1.2-1.2,1.8-2
				c0.7-0.8,1.4-1.7,2.1-2.7c0.7-1,1.4-2,2-2.9c0.6-1,1.1-1.8,1.6-2.6C183.3,357.7,183.6,357.2,183.8,356.8z"/>
			<path class="st2" d="M200.5,356.8c0.1-0.2,0.3-0.3,0.5-0.3s0.5,0.1,0.8,0.2c0.3,0.1,0.5,0.2,0.6,0.4s0.2,0.4,0.2,0.6
				c-0.2,0.5-0.6,1.1-1.1,2.1c-0.5,0.9-1.1,1.9-1.8,3c-0.7,1.1-1.5,2.2-2.4,3.4c-0.9,1.2-1.9,2.2-3,3.1c-1.1,0.9-2.2,1.7-3.5,2.3
				c-1.2,0.6-2.5,0.9-3.9,0.9c-1.2,0-2.1-0.2-3-0.7c-0.8-0.5-1.5-1.1-2.1-1.8c-0.6-0.7-1-1.5-1.2-2.4c-0.3-0.9-0.4-1.7-0.4-2.5
				c0-1.6,0.4-3.2,1.2-4.8c0.8-1.6,1.8-3,3.1-4.2c1.3-1.2,2.7-2.3,4.3-3c1.6-0.8,3.2-1.2,4.9-1.2c1.1,0,1.9,0.2,2.3,0.7
				c0.5,0.5,0.7,1.1,0.7,1.9c0,0.6-0.2,1.3-0.5,2.1c-0.3,0.8-0.7,1.6-1.3,2.4c-0.5,0.8-1.1,1.6-1.8,2.5c-0.7,0.8-1.4,1.5-2.2,2.2
				c-0.8,0.7-1.6,1.2-2.4,1.7c-0.8,0.5-1.6,0.8-2.3,1c-0.1,0.4-0.1,0.9-0.1,1.3c0,0.5,0.1,1,0.3,1.3s0.5,0.5,0.9,0.5
				c1,0,2-0.3,3-0.8c1-0.5,1.9-1.2,2.8-2c0.9-0.8,1.7-1.7,2.5-2.7s1.5-1.9,2.1-2.9c0.6-0.9,1.1-1.8,1.6-2.5
				C200,357.7,200.3,357.2,200.5,356.8z M194.2,354.2c-0.6,0-1.2,0.3-1.8,0.8c-0.7,0.5-1.3,1.2-1.9,2.1c-0.6,0.9-1.2,1.8-1.8,2.9
				c-0.6,1.1-1,2.2-1.4,3.2c0.8-0.4,1.7-1,2.5-1.8c0.9-0.8,1.6-1.6,2.3-2.5c0.7-0.9,1.2-1.7,1.7-2.6c0.4-0.8,0.6-1.5,0.6-2
				C194.4,354.3,194.4,354.2,194.2,354.2z"/>
		</g>
		<g>
			<path class="st2" d="M211.7,353.7h3.1c0.9,0,1.7-0.1,2.6-0.2c0.8-0.1,1.6-0.4,2.3-0.8c0.7-0.4,1.2-0.9,1.7-1.6
				c0.4-0.7,0.6-1.6,0.6-2.7c0-1.4-0.5-2.6-1.6-3.5s-2.4-1.4-3.9-1.4c-1.5,0-2.7,0.4-3.6,1.3c-1,0.8-1.6,1.9-1.9,3.1l-10.3-2.2
				c0.5-2,1.2-3.7,2.2-5.2s2.2-2.6,3.6-3.5c1.4-0.9,2.9-1.5,4.6-1.9c1.7-0.4,3.5-0.6,5.3-0.6c2,0,3.8,0.3,5.6,0.8
				c1.8,0.5,3.4,1.3,4.8,2.4c1.4,1.1,2.5,2.4,3.3,4.1c0.8,1.6,1.2,3.6,1.2,5.8c0,2.6-0.6,4.8-1.9,6.7c-1.3,1.8-3.2,3-5.6,3.6v0.2
				c1.3,0.2,2.5,0.6,3.5,1.3c1,0.7,1.9,1.5,2.6,2.4c0.7,1,1.2,2.1,1.6,3.3c0.4,1.2,0.6,2.5,0.6,3.9c0,2.3-0.4,4.4-1.3,6.1
				c-0.9,1.8-2,3.2-3.4,4.4c-1.4,1.2-3.1,2-5,2.6c-1.9,0.6-4,0.9-6.1,0.9c-3.9,0-7.3-1-10.2-2.9c-2.8-1.9-4.7-5-5.6-9.2l9.8-2.4
				c0.3,1.7,1,3,2,4c1,1,2.5,1.5,4.5,1.5c2,0,3.5-0.6,4.5-1.7c1-1.1,1.5-2.6,1.5-4.3c0-1.3-0.3-2.3-0.8-3.1c-0.5-0.7-1.2-1.3-2-1.6
				c-0.8-0.4-1.8-0.6-2.8-0.6c-1-0.1-2.1-0.1-3.1-0.1h-2.2V353.7z"/>
			<path class="st2" d="M235.5,347.5c0-1.8,0.3-3.5,1-5.1c0.6-1.6,1.5-3,2.6-4.2c1.1-1.2,2.4-2.1,3.9-2.8c1.5-0.7,3.1-1,4.8-1
				c1.7,0,3.3,0.3,4.8,1c1.5,0.7,2.8,1.6,3.9,2.8c1.1,1.2,2,2.6,2.6,4.2c0.6,1.6,1,3.3,1,5.1s-0.3,3.5-1,5.1c-0.6,1.6-1.5,3-2.6,4.2
				c-1.1,1.2-2.4,2.1-3.9,2.8c-1.5,0.7-3.1,1-4.8,1c-1.7,0-3.3-0.3-4.8-1c-1.5-0.7-2.8-1.6-3.9-2.8c-1.1-1.2-2-2.6-2.6-4.2
				C235.8,351,235.5,349.4,235.5,347.5z M253.7,347.5c0-1.8-0.6-3.3-1.7-4.5c-1.1-1.2-2.5-1.8-4.2-1.8c-1.7,0-3.1,0.6-4.2,1.8
				c-1.1,1.2-1.7,2.7-1.7,4.5c0,1.8,0.6,3.3,1.7,4.5c1.1,1.2,2.5,1.8,4.2,1.8c1.7,0,3.1-0.6,4.2-1.8
				C253.1,350.8,253.7,349.3,253.7,347.5z M273.5,333.2l5.2,3.1L253,384.1l-4.7-2.8L273.5,333.2z M266.8,369.6c0-1.8,0.3-3.5,1-5.1
				s1.5-3,2.6-4.2c1.1-1.2,2.4-2.1,3.9-2.8c1.5-0.7,3.1-1,4.8-1c1.7,0,3.3,0.3,4.8,1c1.5,0.7,2.8,1.6,3.9,2.8c1.1,1.2,2,2.6,2.6,4.2
				c0.6,1.6,1,3.3,1,5.1s-0.3,3.5-1,5.1c-0.6,1.6-1.5,3-2.6,4.2c-1.1,1.2-2.4,2.1-3.9,2.8c-1.5,0.7-3.1,1-4.8,1
				c-1.7,0-3.3-0.3-4.8-1c-1.5-0.7-2.8-1.6-3.9-2.8c-1.1-1.2-2-2.6-2.6-4.2C267.1,373.1,266.8,371.4,266.8,369.6z M285,369.6
				c0-1.8-0.6-3.3-1.7-4.5c-1.1-1.2-2.5-1.8-4.2-1.8c-1.7,0-3.1,0.6-4.2,1.8s-1.7,2.7-1.7,4.5c0,1.8,0.6,3.3,1.7,4.5
				c1.1,1.2,2.5,1.8,4.2,1.8c1.7,0,3.1-0.6,4.2-1.8C284.4,373,285,371.4,285,369.6z"/>
		</g>
		<g>
			<path class="st0" d="M358.9,293.5c0.1-0.3,0.4-0.4,0.7-0.4c0.3,0,0.7,0.1,1,0.2c0.3,0.1,0.6,0.4,0.8,0.6c0.2,0.3,0.3,0.5,0.2,0.8
				c-0.3,0.7-0.8,1.6-1.4,2.9c-0.6,1.3-1.4,2.7-2.3,4.3s-2,3.1-3.2,4.8s-2.5,3.1-3.9,4.5c-1.4,1.3-3,2.4-4.6,3.3
				c-1.6,0.9-3.3,1.3-5.1,1.3c-1.5,0-2.8-0.3-3.9-1s-2-1.6-2.7-2.6c-0.7-1-1.3-2.2-1.6-3.4c-0.3-1.2-0.5-2.4-0.5-3.6
				c0-2.3,0.5-4.6,1.5-6.8c1-2.2,2.4-4.2,4.1-6c1.7-1.8,3.6-3.2,5.7-4.3c2.1-1.1,4.2-1.6,6.4-1.6c1.4,0,2.4,0.3,3.1,1
				c0.6,0.7,0.9,1.6,0.9,2.7c0,0.9-0.2,1.8-0.6,2.9c-0.4,1.1-1,2.2-1.7,3.4c-0.7,1.2-1.5,2.3-2.4,3.5s-1.9,2.2-2.9,3.1
				c-1,0.9-2.1,1.8-3.1,2.4c-1.1,0.7-2.1,1.1-3,1.3c-0.1,0.6-0.2,1.2-0.2,1.9c0,0.8,0.1,1.4,0.4,1.8c0.2,0.5,0.7,0.7,1.2,0.7
				c1.3,0,2.6-0.4,4-1.1c1.3-0.7,2.5-1.7,3.7-2.8s2.3-2.4,3.3-3.8c1-1.4,2-2.7,2.8-4.1s1.5-2.5,2.1-3.6S358.7,294,358.9,293.5z
				 M350.7,289.8c-0.7,0-1.5,0.4-2.4,1.2c-0.9,0.8-1.7,1.8-2.5,3c-0.8,1.2-1.6,2.6-2.4,4.1c-0.7,1.5-1.4,3.1-1.9,4.6
				c1.1-0.6,2.2-1.4,3.3-2.6c1.1-1.1,2.1-2.3,3-3.5c0.9-1.2,1.6-2.5,2.2-3.6c0.6-1.2,0.8-2.1,0.8-2.8
				C351,289.9,350.9,289.8,350.7,289.8z"/>
		</g>
	</g>
	<path class="st0" d="M378.4,328c1.2,1.8,2,3.4,2.4,5c0.4,1.6,0.5,2.9,0.3,4.1c-0.2,1.2-0.4,2-0.7,2.4c-0.3,0.6-0.6,0.9-0.9,1.2
		c-0.2,0.2-0.5,0.3-0.8,0.3c-0.3,0-0.6-0.2-0.9-0.5c-0.3-0.3-0.7-0.7-1.2-1.2c-0.3-0.3-0.7-0.7-1.2-1.2c-0.5-0.5-1.1-1-1.8-1.7
		c-0.7-0.6-1.6-1.3-2.6-2.1c-1-0.8-2.2-1.6-3.6-2.5c-1.9-1.2-4.2-2.3-6.8-3.1c-2.6-0.8-5.4-1.5-8.3-2.1c-2.9-0.5-6-0.9-9.1-1.1
		c-3.1-0.2-6.2-0.3-9.3-0.3c-3,0-6,0.2-8.8,0.4c-2.8,0.3-5.3,0.6-7.6,1.1c-2.3,0.4-4.2,0.9-5.8,1.5c-1.6,0.6-2.7,1.2-3.3,1.9
		c0.1,0.1,0.1,0.2,0.2,0.3c-1.7,0.1-3.4,0.3-5.1,0.4c0.1-0.7,0.4-1.3,0.7-1.7c1-1.4,2.5-2.7,4.6-4c2-1.2,4.4-2.3,7.2-3.3
		c2.7-1,5.7-1.8,9-2.5c3.3-0.7,6.7-1.2,10.2-1.6c3.5-0.4,7-0.6,10.6-0.6c3.6,0,7,0.2,10.3,0.6c3.3,0.4,6.4,1,9.3,1.9
		c2.9,0.9,5.4,2,7.5,3.3C375.3,324.5,377.2,326.2,378.4,328z"/>
</g>
</svg>
