<?xml version="1.0" encoding="utf-8"?>
<!-- Generator: Adobe Illustrator 26.1.0, SVG Export Plug-In . SVG Version: 6.00 Build 0)  -->
<svg version="1.1" id="Calque_1" xmlns="http://www.w3.org/2000/svg" xmlns:xlink="http://www.w3.org/1999/xlink" x="0px" y="0px"
	 viewBox="0 0 460 530" style="enable-background:new 0 0 460 530;" xml:space="preserve">
<style type="text/css">
	.st0{fill:#4CC7DB;}
	.st1{fill:none;}
	.st2{fill:#001E57;}
	.st3{fill:none;stroke:#001E57;stroke-width:6;stroke-linecap:round;stroke-linejoin:round;stroke-miterlimit:10;}
</style>
<g>
	<g>
		<path class="st0" d="M87.9,261.9c4,0,7.8-0.7,11.3-2.1c3.6-1.4,6.9-3.2,9.9-5.4c3.1-2.2,5.9-4.7,8.4-7.4c2.5-2.7,4.8-5.4,6.8-8.1
			c2-2.7,3.7-5.2,5.1-7.5c1.4-2.3,2.5-4.2,3.3-5.6c0.4-1,0.9-1.7,1.6-2.2c0.7-0.5,1.3-0.7,1.8-0.7c0.9,0,1.5,0.3,1.9,1
			c0.4,0.7,0.3,1.7-0.3,3.2c-0.9,1.8-2.2,4-3.8,6.7c-1.6,2.7-3.5,5.6-5.7,8.7s-4.7,6.1-7.4,9.2c-2.8,3.1-5.8,5.8-9,8.3
			c-3.2,2.5-6.7,4.5-10.4,6c-3.7,1.5-7.6,2.3-11.6,2.3c-4.2,0-7.8-0.7-10.6-2c-2.9-1.3-5.2-3-7-5.1s-3.1-4.4-3.8-6.9
			c-0.8-2.5-1.1-4.9-1.1-7.3c0-3.4,0.5-7,1.6-10.7c1.1-3.7,2.5-7.4,4.4-11.1c1.9-3.7,4.1-7.4,6.6-11s5.3-7.1,8.2-10.3
			c2.9-3.3,6-6.3,9.2-9c3.2-2.8,6.4-5.1,9.6-7.2c3.2-2,6.3-3.6,9.4-4.7s5.9-1.7,8.6-1.7c1.3,0,2.8,0.3,4.6,0.8
			c1.8,0.6,3.4,1.3,5,2.2c1.6,0.9,2.9,1.9,4,3c1.1,1.1,1.6,2.2,1.6,3.2c0,2.4-0.4,4.9-1.2,7.5c-0.8,2.7-1.9,5.3-3.2,8
			c-1.3,2.6-2.8,5.2-4.5,7.5c-1.7,2.4-3.4,4.5-5.1,6.4c-1.7,1.9-3.4,3.3-5,4.4c-1.6,1.1-3,1.6-4.2,1.6c-1.7,0-3-0.4-3.9-1.2
			c-0.9-0.8-1.3-1.6-1.3-2.3c0-0.6,0.2-1.2,0.7-1.7c0.5-0.5,1.2-0.7,2.3-0.7c0.9,0,2-0.4,3.2-1.3c1.2-0.9,2.4-2,3.7-3.4
			c1.3-1.4,2.5-3.1,3.7-5c1.2-1.9,2.4-3.9,3.4-6c1-2.1,1.9-4.2,2.6-6.3c0.7-2.1,1.2-4.2,1.5-6.1c-0.9-0.1-1.7-0.2-2.2-0.2
			c-3.5,0-7.2,0.9-11.1,2.7s-7.8,4.3-11.7,7.4c-3.9,3.1-7.6,6.7-11.1,10.8c-3.5,4.1-6.6,8.4-9.4,13c-2.7,4.5-4.9,9.1-6.5,13.8
			c-1.6,4.7-2.4,9.2-2.4,13.4c0,1.6,0.3,2.9,1,4.1c0.7,1.2,1.5,2.1,2.5,2.9c1,0.7,2,1.3,3.1,1.6S87.1,261.9,87.9,261.9z"/>
		<path class="st0" d="M174,223.1c0.2-0.4,0.5-0.6,1.1-0.6c0.5,0,1.1,0.1,1.6,0.3c0.5,0.2,0.9,0.5,1.3,0.9c0.3,0.4,0.5,0.7,0.3,1.1
			c-0.5,0.9-1.2,2.3-2.3,4.1c-1,1.8-2.3,3.8-3.8,6c-1.5,2.2-3,4.5-4.7,6.8c-1.7,2.3-3.4,4.4-5.1,6.3c-1.7,1.9-3.5,3.5-5.1,4.7
			c-1.7,1.2-3.2,1.8-4.5,1.8c-2.3,0-4.1-0.8-5.6-2.5c-1.5-1.7-2.2-4-2.2-6.8c0-1,0.2-2.2,0.6-3.6c0.4-1.4,0.9-3,1.6-4.7
			c0.6-1.7,1.4-3.4,2.2-5.2s1.6-3.6,2.4-5.4c-1.5,1.8-3.1,3.7-4.8,5.7c-1.7,2-3.2,4-4.7,5.9c-1.5,1.9-2.8,3.8-4,5.5
			s-2.1,3.2-2.6,4.5c-0.1,0.6-0.2,1-0.2,1.3l0.1,0.6c0,0.1,0.1,0.3,0.1,0.5c0,0.2,0.1,0.3,0.1,0.5l-0.1-0.1c0.1,0.6,0.3,1.1,0.3,1.5
			c0.1,0.5,0.1,0.9,0,1.2c-0.1,0.3-0.3,0.6-0.7,0.8c-0.3,0.2-0.9,0.3-1.6,0.3c-0.9,0-1.9-0.2-2.8-0.7c-0.9-0.4-1.8-1.1-2.6-1.9
			c-0.8-0.8-1.4-1.8-1.9-2.9c-0.5-1.1-0.8-2.4-0.8-3.8c0-1.2,0.3-2.7,0.9-4.6c0.6-1.9,1.4-4,2.4-6.4c1-2.4,2.1-4.9,3.4-7.6
			c1.3-2.7,2.6-5.4,3.9-8.2c1.3-2.7,2.6-5.4,3.8-8c1.3-2.6,2.4-5.1,3.3-7.4c1-2.3,1.8-4.3,2.4-6.1c0.6-1.8,0.9-3.2,0.9-4.2
			c0-0.7,0.5-1.1,1.6-1c1,0.1,2.2,0.5,3.5,1.1c1.3,0.6,2.4,1.4,3.5,2.4s1.6,1.9,1.6,2.9c0,1.2-0.3,2.8-1,4.8c-0.7,2-1.6,4.2-2.6,6.6
			c-1.1,2.4-2.3,5-3.7,7.8s-2.8,5.6-4.2,8.4l-0.6,1v0.1c1.4-1.7,2.8-3.4,4.2-5c1.4-1.6,2.8-3.1,4-4.4s2.4-2.4,3.4-3.2
			c1-0.8,1.7-1.3,2.3-1.4c0.6,0,1.2,0.2,2,0.6c0.8,0.5,1.6,1.1,2.3,1.8c0.7,0.7,1.4,1.5,1.9,2.5c0.5,0.9,0.8,1.9,0.8,2.8
			c0,0.7-0.4,1.9-1.2,3.6s-1.7,3.7-2.8,5.9c-0.8,1.6-1.6,3.3-2.5,5.1c-0.9,1.8-1.6,3.5-2.3,5.1c-0.7,1.7-1.3,3.2-1.7,4.6
			c-0.5,1.4-0.7,2.5-0.7,3.3v0.5c0,0.1,0,0.1,0.1,0.1c0.7,0,1.6-0.5,2.7-1.6c1.1-1.1,2.4-2.4,3.7-4.1c1.3-1.7,2.7-3.5,4.1-5.5
			c1.4-2,2.7-4,4-5.9c1.2-1.9,2.3-3.7,3.2-5.2C173,225,173.6,223.9,174,223.1z"/>
		<path class="st0" d="M166.8,240.9c0-2,0.3-4.1,1-6.2c0.7-2.2,1.6-4.3,2.8-6.4c1.2-2.1,2.6-4.1,4.2-5.9c1.6-1.9,3.4-3.5,5.2-4.9
			c1.9-1.4,3.8-2.5,5.9-3.4c2-0.8,4.1-1.3,6.1-1.3c1.8,0,3.3,0.2,4.5,0.7c1.2,0.5,2.2,1.1,3,1.9c0.8,0.8,1.4,1.6,1.8,2.5
			c0.4,0.9,0.7,1.8,0.9,2.7c0.2,0.9,0.2,1.6,0.2,2.3c0,0.7-0.1,1.2-0.3,1.5h0.1c-0.1,0.4-0.4,0.5-0.9,0.5c-0.4,0-0.9-0.1-1.3-0.3
			c-0.4-0.2-0.8-0.4-1.2-0.6c-0.3-0.3-0.5-0.5-0.5-0.6c0-0.1,0.1-0.3,0-0.8s-0.2-0.8-0.4-1.3c-0.3-0.4-0.7-0.8-1.3-1.2
			c-0.6-0.3-1.4-0.5-2.5-0.5c-1.1,0-2.3,0.5-3.6,1.5c-1.3,1-2.5,2.2-3.8,3.8c-1.3,1.6-2.5,3.3-3.6,5.3c-1.2,2-2.2,4-3,6
			c-0.9,2-1.6,4-2.1,5.8c-0.5,1.9-0.8,3.5-0.8,4.8c0,1.7,0.5,2.5,1.5,2.5c1.2,0,2.3-0.5,3.5-1.5c1.2-1,2.4-2.3,3.5-3.9
			c1.1-1.6,2.2-3.3,3.2-5.2c1-1.9,1.8-3.7,2.6-5.4c0.7-1.7,1.3-3.2,1.7-4.5c0.4-1.3,0.6-2.2,0.6-2.6s0.2-0.7,0.7-0.8
			c0.5-0.1,1,0,1.7,0.1c0.7,0.2,1.4,0.5,2.3,0.8c0.8,0.3,1.6,0.7,2.3,1.2c0.7,0.4,1.3,0.9,1.7,1.4c0.5,0.5,0.7,0.9,0.7,1.3
			c0,0.5-0.2,1.3-0.7,2.5c-0.5,1.2-1.1,2.5-1.7,4c-0.5,1-0.9,2.1-1.4,3.2s-0.9,2.2-1.3,3.3c-0.4,1.1-0.7,2.1-1,3
			c-0.3,0.9-0.4,1.7-0.4,2.3c0,0.2,0,0.3-0.1,0.3c0.6,0,1.5-0.5,2.5-1.6s2.1-2.5,3.2-4.2c1.2-1.7,2.3-3.6,3.5-5.6
			c1.2-2,2.3-4,3.3-5.9c1-1.9,2-3.7,2.7-5.2s1.4-2.7,1.7-3.4c0.2-0.4,0.5-0.6,1.1-0.6c0.5,0,1.1,0.1,1.6,0.3
			c0.5,0.2,0.9,0.5,1.3,0.9c0.3,0.4,0.5,0.7,0.3,1.1c-0.4,0.9-1.1,2.3-2.1,4.2c-1,1.9-2.1,3.9-3.3,6.1c-1.3,2.2-2.6,4.5-4.1,6.8
			c-1.5,2.3-2.9,4.5-4.4,6.4c-1.5,1.9-3,3.5-4.4,4.7c-1.4,1.2-2.8,1.8-4,1.8c-1.3,0-2.5-0.3-3.5-1c-1-0.7-1.8-1.4-2.5-2.2
			c-0.8-0.9-1.5-2-2.1-3.3c-0.6,0.6-1.2,1.3-1.9,2.1c-0.7,0.7-1.5,1.4-2.4,2.1c-0.9,0.6-1.8,1.2-2.7,1.6s-1.9,0.7-2.8,0.7
			c-1.8,0-3.4-0.4-4.8-1.2c-1.4-0.8-2.5-1.9-3.4-3.2s-1.6-2.8-2.1-4.4C167,244.2,166.8,242.5,166.8,240.9z"/>
		<path class="st0" d="M235.2,198.8c0,1-0.3,2.4-0.8,4.1c-0.6,1.7-1.3,3.6-2.2,5.7c-0.9,2.1-2,4.4-3.1,6.8s-2.4,4.9-3.6,7.4
			c-1.3,2.6-2.5,5.2-3.7,7.7c-1.2,2.5-2.3,4.9-3.3,7.1c-1,2.2-1.8,4.2-2.3,5.9c-0.6,1.7-0.9,3.1-0.9,4.1c0,0.3,0,0.5,0.1,0.5
			c0.8,0,1.8-0.5,3-1.5c1.2-1,2.4-2.3,3.7-3.9c1.3-1.6,2.6-3.4,4-5.3c1.3-1.9,2.6-3.8,3.8-5.6c1.2-1.8,2.2-3.5,3-5s1.5-2.6,1.8-3.3
			c0.2-0.4,0.5-0.6,1-0.6c0.5,0,1,0.1,1.6,0.3c0.5,0.2,1,0.5,1.3,0.9s0.5,0.7,0.3,1.1c-0.5,0.9-1.2,2.3-2.2,4.1
			c-1,1.8-2.2,3.8-3.6,6c-1.4,2.2-2.9,4.4-4.6,6.7c-1.7,2.3-3.4,4.4-5.2,6.2c-1.8,1.9-3.6,3.4-5.3,4.6c-1.8,1.2-3.4,1.8-5,1.8
			c-2.3,0-4.2-0.8-5.7-2.5c-1.5-1.7-2.2-4-2.2-6.8c0-1,0.3-2.5,1-4.5c0.7-2,1.5-4.3,2.6-6.8s2.2-5.3,3.5-8.2c1.3-2.9,2.6-5.8,4-8.7
			c1.3-2.6,2.5-5.2,3.6-7.8c1.2-2.5,2.2-4.9,3.1-7.1c0.9-2.2,1.7-4,2.2-5.7c0.6-1.6,0.8-2.8,0.8-3.5c0-0.7,0.5-1,1.5-0.9
			c1,0.1,2.1,0.5,3.2,1.2c1.2,0.7,2.2,1.5,3.2,2.5C234.7,196.9,235.2,197.9,235.2,198.8z"/>
		<path class="st0" d="M256,198.8c0,1-0.3,2.4-0.8,4.1c-0.6,1.7-1.3,3.6-2.2,5.7c-0.9,2.1-2,4.4-3.1,6.8s-2.4,4.9-3.6,7.4
			c-1.3,2.6-2.5,5.2-3.7,7.7c-1.2,2.5-2.3,4.9-3.3,7.1c-1,2.2-1.8,4.2-2.3,5.9c-0.6,1.7-0.9,3.1-0.9,4.1c0,0.3,0,0.5,0.1,0.5
			c0.8,0,1.8-0.5,3-1.5c1.2-1,2.4-2.3,3.7-3.9c1.3-1.6,2.6-3.4,4-5.3c1.3-1.9,2.6-3.8,3.8-5.6c1.2-1.8,2.2-3.5,3-5s1.5-2.6,1.8-3.3
			c0.2-0.4,0.5-0.6,1-0.6c0.5,0,1,0.1,1.6,0.3c0.5,0.2,1,0.5,1.3,0.9s0.5,0.7,0.3,1.1c-0.5,0.9-1.2,2.3-2.2,4.1
			c-1,1.8-2.2,3.8-3.6,6c-1.4,2.2-2.9,4.4-4.6,6.7c-1.7,2.3-3.4,4.4-5.2,6.2c-1.8,1.9-3.6,3.4-5.3,4.6c-1.8,1.2-3.4,1.8-5,1.8
			c-2.3,0-4.2-0.8-5.7-2.5c-1.5-1.7-2.2-4-2.2-6.8c0-1,0.3-2.5,1-4.5c0.7-2,1.5-4.3,2.6-6.8s2.2-5.3,3.5-8.2c1.3-2.9,2.6-5.8,4-8.7
			c1.3-2.6,2.5-5.2,3.6-7.8c1.2-2.5,2.2-4.9,3.1-7.1c0.9-2.2,1.7-4,2.2-5.7c0.6-1.6,0.8-2.8,0.8-3.5c0-0.7,0.5-1,1.5-0.9
			c1,0.1,2.1,0.5,3.2,1.2c1.2,0.7,2.2,1.5,3.2,2.5C255.5,196.9,256,197.9,256,198.8z"/>
		<path class="st0" d="M288.4,223.1c0.2-0.4,0.5-0.6,1.1-0.6c0.5,0,1.1,0.1,1.6,0.3c0.5,0.2,0.9,0.5,1.3,0.9
			c0.3,0.4,0.5,0.7,0.3,1.1c-0.5,0.9-1.2,2.3-2.1,4.1c-1,1.8-2.1,3.8-3.5,6c-1.4,2.2-3,4.5-4.8,6.8c-1.8,2.3-3.8,4.4-6,6.3
			c-2.2,1.9-4.5,3.5-7,4.7c-2.5,1.2-5.1,1.8-7.9,1.8c-2.3,0-4.3-0.5-6-1.5c-1.7-1-3.1-2.2-4.2-3.7c-1.1-1.5-1.9-3.1-2.5-4.9
			c-0.5-1.8-0.8-3.5-0.8-5.1c0-3.2,0.8-6.5,2.4-9.6s3.7-6,6.2-8.5c2.6-2.5,5.5-4.5,8.7-6.1c3.2-1.6,6.5-2.3,9.8-2.3
			c2.2,0,3.7,0.5,4.7,1.5c0.9,1,1.4,2.3,1.4,3.9c0,1.2-0.3,2.6-0.9,4.1c-0.6,1.6-1.5,3.2-2.5,4.8s-2.3,3.3-3.7,4.9
			c-1.4,1.6-2.9,3.1-4.4,4.4c-1.6,1.3-3.1,2.5-4.8,3.4c-1.6,1-3.2,1.6-4.7,1.9c-0.2,0.9-0.3,1.8-0.3,2.6c0,1.1,0.2,1.9,0.6,2.6
			c0.4,0.7,1,1,1.9,1c2,0,4.1-0.5,6-1.6c2-1,3.9-2.4,5.7-4c1.8-1.6,3.5-3.4,5.1-5.4c1.6-2,3-3.9,4.3-5.8c1.3-1.9,2.3-3.6,3.2-5.1
			C287.4,225,288.1,223.9,288.4,223.1z M275.9,217.9c-1.1,0-2.3,0.5-3.6,1.6c-1.3,1.1-2.6,2.5-3.9,4.2c-1.3,1.7-2.5,3.7-3.6,5.9
			s-2.1,4.3-2.9,6.5c1.7-0.8,3.4-2,5.1-3.6c1.7-1.6,3.3-3.2,4.7-5s2.5-3.5,3.4-5.1c0.9-1.7,1.3-3,1.3-4
			C276.3,218,276.1,217.9,275.9,217.9z"/>
		<path class="st0" d="M325.1,223.1c0.5-0.8,1-1.4,1.7-1.6c0.6-0.3,1.2-0.3,1.7-0.1c0.5,0.2,0.9,0.6,1.1,1.2
			c0.2,0.6,0.1,1.3-0.3,2.2c-0.5,0.9-1.1,2.3-2,4.1c-0.9,1.8-1.9,3.9-3.1,6.1c-1.2,2.2-2.5,4.5-3.9,6.8c-1.4,2.3-2.9,4.4-4.5,6.3
			c-1.6,1.9-3.1,3.5-4.7,4.7c-1.6,1.2-3.1,1.8-4.6,1.8c-2.3,0-4.1-0.8-5.6-2.5c-1.5-1.7-2.2-4-2.2-6.8c0-1,0.2-2.2,0.6-3.6
			c0.4-1.4,0.9-3,1.6-4.6c0.6-1.7,1.4-3.4,2.2-5.2c0.8-1.8,1.6-3.6,2.4-5.3c-1.5,1.8-3.1,3.7-4.8,5.8c-1.7,2-3.3,4-4.8,6
			c-1.5,2-2.8,3.8-4,5.6c-1.2,1.7-2,3.2-2.6,4.3c0,0.2-0.1,0.4-0.1,0.6c0,0.2,0,0.3,0,0.4l0.1,0.6c0,0.1,0.1,0.3,0.1,0.5
			c0,0.2,0,0.3,0.1,0.5v-0.1c0.1,0.6,0.3,1.1,0.3,1.5c0.1,0.5,0.1,0.9,0,1.2s-0.3,0.6-0.7,0.8c-0.4,0.2-0.9,0.3-1.7,0.3
			c-0.9,0-1.8-0.2-2.7-0.7s-1.8-1.1-2.5-1.9c-0.8-0.8-1.4-1.8-1.9-2.9c-0.5-1.1-0.8-2.4-0.8-3.8c0-1.3,0.2-2.6,0.6-4
			c0.4-1.4,0.9-2.9,1.5-4.4c0.6-1.5,1.3-3,2.1-4.6c0.8-1.5,1.5-3.1,2.3-4.6c1.3-2.5,2.5-4.9,3.5-7.1c1-2.2,1.5-4,1.5-5.4
			c0-0.7,0.5-1.1,1.5-1.2c1,0,2.2,0.2,3.4,0.8c1.3,0.6,2.4,1.4,3.4,2.4c1,1,1.5,2.3,1.5,3.6c0,0.7-0.2,1.5-0.5,2.4s-0.8,2.1-1.4,3.3
			c1.4-1.7,2.9-3.4,4.3-5c1.4-1.6,2.7-3.1,4-4.3c1.2-1.3,2.3-2.3,3.2-3.1c0.9-0.8,1.6-1.2,2-1.2c0.1,0,0.2,0,0.4,0
			c0.2,0,0.4,0,0.6,0.1c0.6,0.2,1.2,0.5,1.9,1c0.7,0.5,1.3,1.1,1.9,1.7c0.6,0.7,1.1,1.4,1.5,2.2c0.4,0.8,0.6,1.6,0.6,2.5
			c0,0.7-0.4,1.8-1.1,3.5c-0.8,1.7-1.7,3.7-2.7,5.9c-0.8,1.6-1.6,3.3-2.5,5.1c-0.9,1.8-1.6,3.5-2.3,5.1c-0.7,1.6-1.3,3.2-1.7,4.6
			c-0.5,1.4-0.7,2.5-0.7,3.4c0,0.4,0,0.6,0.1,0.6c0.7,0,1.5-0.5,2.5-1.5c1-1,2-2.2,3.2-3.8c1.1-1.6,2.3-3.3,3.4-5.2
			c1.2-1.9,2.2-3.8,3.3-5.7c1-1.9,1.9-3.7,2.7-5.3c0.8-1.6,1.4-3,1.8-4V223.1z"/>
		<path class="st0" d="M366.2,223c0.5-0.8,1-1.4,1.6-1.6c0.6-0.3,1.2-0.3,1.7-0.1c0.5,0.2,0.9,0.6,1.1,1.2s0.1,1.4-0.2,2.3
			c-0.8,1.9-2,3.8-3.5,5.7c-1.5,2-3.3,4-5.3,6c-2,2-4.2,4.1-6.6,6.1c-2.4,2.1-4.9,4.1-7.4,6.2c-1.2,2.5-2.4,5.2-3.9,7.9
			c-1.4,2.7-2.9,5.4-4.5,8c-1.6,2.6-3.2,5.1-4.9,7.4c-1.7,2.3-3.3,4.4-5,6.2c-1.7,1.8-3.4,3.2-5,4.2c-1.6,1-3.2,1.6-4.7,1.6
			c-2.1,0-3.9-0.3-5.3-0.8s-2.5-1.2-3.3-2c-0.8-0.8-1.4-1.6-1.7-2.5c-0.3-0.9-0.5-1.7-0.5-2.4c0-1.4,0.7-3,2-4.7
			c1.3-1.7,3.1-3.5,5.4-5.4c2.2-1.9,4.8-4,7.8-6.1c2.9-2.1,6-4.4,9.3-6.7l0.3-0.8c-0.9,0.6-1.8,1.2-2.6,1.5
			c-0.9,0.4-1.8,0.6-2.7,0.6c-1.8,0-3.4-0.4-4.8-1.2c-1.4-0.8-2.5-1.9-3.4-3.2c-0.9-1.3-1.6-2.8-2.1-4.4c-0.5-1.6-0.7-3.2-0.7-4.9
			c0-2,0.3-4.1,1-6.3c0.7-2.2,1.6-4.3,2.8-6.4c1.2-2.1,2.6-4.1,4.2-6c1.6-1.9,3.4-3.5,5.2-4.9c1.9-1.4,3.8-2.5,5.9-3.4
			c2.1-0.8,4.1-1.3,6.2-1.3c1.8,0,3.2,0.2,4.5,0.7c1.2,0.5,2.2,1.1,3,1.9c0.8,0.8,1.4,1.6,1.8,2.5c0.4,0.9,0.7,1.8,0.9,2.6
			c0.2,0.9,0.2,1.6,0.2,2.3c0,0.7-0.1,1.2-0.2,1.5c-0.6,1.2-1.2,1.8-1.8,1.9c0.7,0.8,1.4,1.7,1.9,2.6c0.5,1,0.8,1.9,0.8,2.7
			c0,0.6-0.2,1.7-0.6,3.2s-1,3-1.6,4.8c3.3-2.8,6.3-5.5,8.9-8.3C362.8,228.7,364.8,225.9,366.2,223L366.2,223z M313.6,277.8
			c1.3,0,2.6-0.5,4-1.4c1.4-1,2.8-2.2,4.2-3.8c1.4-1.6,2.8-3.5,4.3-5.6c1.4-2.2,2.9-4.4,4.2-6.8c-2.5,1.9-4.8,3.6-6.9,5.3
			c-2.2,1.7-4,3.2-5.6,4.6c-1.6,1.4-2.9,2.7-3.8,3.8c-0.9,1.1-1.4,2.1-1.4,2.9C312.6,277.5,312.9,277.8,313.6,277.8z M348.8,223.7
			c0-0.1,0.1-0.3,0-0.8c0-0.4-0.2-0.9-0.4-1.3c-0.3-0.5-0.7-0.9-1.3-1.3c-0.6-0.4-1.4-0.6-2.5-0.6c-1.1,0-2.3,0.5-3.6,1.5
			c-1.3,1-2.5,2.2-3.8,3.8c-1.3,1.6-2.5,3.3-3.6,5.3c-1.2,2-2.2,4-3.1,6c-0.9,2-1.6,4-2.1,5.9c-0.5,1.9-0.8,3.5-0.8,4.8
			c0,0.8,0.1,1.4,0.3,1.8c0.2,0.4,0.6,0.7,1.1,0.7c1.3,0,2.7-0.6,4-1.9c1.3-1.3,2.6-2.8,3.8-4.7s2.3-3.8,3.3-5.8
			c1-2.1,1.7-3.9,2.3-5.5v0.1c0.2-0.7,0.4-1.4,0.5-2c0.2-0.6,0.3-1.2,0.4-1.6v-0.3c0-1.5,0.3-2.5,0.8-3.1s1.2-0.9,2.1-0.9
			c0.7,0,1.5,0.3,2.4,0.8C348.7,224.2,348.7,223.9,348.8,223.7z"/>
		<path class="st0" d="M398.8,223.1c0.2-0.4,0.5-0.6,1.1-0.6c0.5,0,1.1,0.1,1.6,0.3c0.5,0.2,0.9,0.5,1.3,0.9
			c0.3,0.4,0.5,0.7,0.3,1.1c-0.5,0.9-1.2,2.3-2.1,4.1c-1,1.8-2.1,3.8-3.5,6c-1.4,2.2-3,4.5-4.8,6.8c-1.8,2.3-3.8,4.4-6,6.3
			c-2.2,1.9-4.5,3.5-7,4.7c-2.5,1.2-5.1,1.8-7.9,1.8c-2.3,0-4.3-0.5-6-1.5c-1.7-1-3.1-2.2-4.2-3.7c-1.1-1.5-1.9-3.1-2.5-4.9
			c-0.5-1.8-0.8-3.5-0.8-5.1c0-3.2,0.8-6.5,2.4-9.6s3.7-6,6.2-8.5s5.5-4.5,8.7-6.1c3.2-1.6,6.5-2.3,9.8-2.3c2.2,0,3.7,0.5,4.7,1.5
			c0.9,1,1.4,2.3,1.4,3.9c0,1.2-0.3,2.6-0.9,4.1c-0.6,1.6-1.5,3.2-2.5,4.8s-2.3,3.3-3.7,4.9c-1.4,1.6-2.9,3.1-4.4,4.4
			c-1.6,1.3-3.1,2.5-4.8,3.4c-1.6,1-3.2,1.6-4.7,1.9c-0.2,0.9-0.3,1.8-0.3,2.6c0,1.1,0.2,1.9,0.6,2.6c0.4,0.7,1,1,1.9,1
			c2,0,4.1-0.5,6-1.6c2-1,3.9-2.4,5.7-4c1.8-1.6,3.5-3.4,5.1-5.4c1.6-2,3-3.9,4.3-5.8c1.3-1.9,2.3-3.6,3.2-5.1
			C397.9,225,398.5,223.9,398.8,223.1z M386.3,217.9c-1.1,0-2.3,0.5-3.6,1.6c-1.3,1.1-2.6,2.5-3.9,4.2c-1.3,1.7-2.5,3.7-3.6,5.9
			s-2.1,4.3-2.9,6.5c1.7-0.8,3.4-2,5.1-3.6c1.7-1.6,3.3-3.2,4.7-5s2.5-3.5,3.4-5.1c0.9-1.7,1.3-3,1.3-4
			C386.7,218,386.6,217.9,386.3,217.9z"/>
	</g>
</g>
<g>
	<path class="st0" d="M87.3,318.2h6.8v11.5h13.2v-11.5h6.8V349h-6.8v-13.3H94.1V349h-6.8V318.2z"/>
	<path class="st0" d="M119,321.2c0-1,0.4-1.9,1.1-2.7c0.7-0.7,1.6-1.1,2.7-1.1s1.9,0.4,2.7,1.1c0.7,0.7,1.1,1.6,1.1,2.7
		c0,1-0.4,1.9-1.1,2.7c-0.7,0.7-1.6,1.1-2.7,1.1s-1.9-0.4-2.7-1.1C119.4,323.1,119,322.2,119,321.2z M119.6,327.8h6.5V349h-6.5
		V327.8z"/>
	<path class="st0" d="M153,355.8c0,4-1,7-3,9.1c-2,2.1-5.1,3.1-9.2,3.1c-1.9,0-3.7-0.2-5.6-0.6c-1.8-0.4-3.5-1.5-5.1-2.8l3.5-4.7
		c1,0.8,2.2,1.1,3.3,1.6c1.1,0.5,2.3,0.7,3.7,0.7c2,0,3.5-0.5,4.4-1.5c0.9-1,1.4-2.2,1.4-3.7v-10.6h-0.1c-0.8,1-1.7,1.7-2.8,2.2
		c-1.1,0.4-2.2,0.6-3.2,0.6c-1.6,0-3-0.3-4.3-0.8c-1.3-0.5-2.4-1.3-3.3-2.3c-0.9-1-1.6-2.1-2.1-3.5c-0.5-1.3-0.7-2.8-0.7-4.4
		c0-1.4,0.2-2.8,0.7-4.1c0.5-1.3,1.1-2.5,1.9-3.5c0.8-1,1.8-1.8,3-2.5c1.2-0.6,2.5-0.9,4-0.9c0.9,0,1.8,0.1,2.5,0.3
		c0.8,0.2,1.5,0.5,2.1,0.8c0.6,0.3,1.1,0.7,1.6,1.1c0.4,0.4,0.8,0.8,1,1.2h0.1v-2.8h6V355.8z M136.5,338.3c0,0.7,0.1,1.4,0.4,2
		c0.3,0.6,0.6,1.2,1.1,1.7c0.5,0.5,1,0.9,1.7,1.2c0.6,0.3,1.3,0.4,2.1,0.4c0.7,0,1.4-0.1,2-0.4c0.6-0.3,1.2-0.7,1.7-1.2
		c0.5-0.5,0.8-1,1.1-1.7c0.3-0.6,0.4-1.3,0.4-2c0-0.7-0.1-1.4-0.4-2c-0.3-0.6-0.6-1.2-1.1-1.7c-0.5-0.5-1-0.9-1.7-1.2
		c-0.6-0.3-1.3-0.4-2-0.4c-0.8,0-1.4,0.1-2.1,0.4c-0.6,0.3-1.2,0.7-1.7,1.2c-0.5,0.5-0.8,1-1.1,1.7
		C136.7,336.9,136.5,337.6,136.5,338.3z"/>
	<path class="st0" d="M164.7,316.1v14.6h0.1c0.1-0.4,0.4-0.8,0.7-1.2c0.3-0.4,0.8-0.8,1.3-1.1c0.5-0.3,1.1-0.6,1.7-0.8
		c0.7-0.2,1.4-0.3,2.2-0.3c1.7,0,3,0.3,4,0.8c1,0.5,1.8,1.2,2.4,2.1c0.6,0.9,1,2,1.2,3.2c0.2,1.2,0.3,2.5,0.3,4V349h-6.5v-10.4
		c0-0.6,0-1.2-0.1-1.9c0-0.7-0.2-1.3-0.4-1.8c-0.2-0.6-0.6-1-1-1.3c-0.5-0.3-1.1-0.5-1.9-0.5c-0.8,0-1.5,0.2-2,0.5
		c-0.5,0.3-0.9,0.7-1.2,1.2c-0.3,0.5-0.5,1.1-0.5,1.7c-0.1,0.6-0.1,1.3-0.1,2V349h-6.5v-32.9H164.7z"/>
	<path class="st0" d="M203.2,345.3c-1,1.3-2.4,2.4-4,3.1c-1.6,0.7-3.2,1.1-5,1.1c-1.6,0-3.2-0.3-4.6-0.8c-1.4-0.5-2.7-1.3-3.7-2.2
		c-1.1-1-1.9-2.1-2.5-3.5c-0.6-1.4-0.9-2.9-0.9-4.6s0.3-3.2,0.9-4.6c0.6-1.4,1.4-2.5,2.5-3.5c1.1-1,2.3-1.7,3.7-2.2
		c1.4-0.5,3-0.8,4.6-0.8c1.5,0,2.9,0.3,4.1,0.8c1.2,0.5,2.3,1.3,3.1,2.2c0.9,1,1.5,2.1,2,3.5c0.5,1.4,0.7,2.9,0.7,4.6v2h-15.1
		c0.3,1.2,0.8,2.2,1.7,3c0.9,0.7,1.9,1.1,3.2,1.1c1.1,0,2-0.2,2.7-0.7c0.7-0.5,1.4-1.1,1.9-1.9L203.2,345.3z M197.7,336
		c0-1.1-0.3-2-1.1-2.8c-0.8-0.8-1.7-1.2-2.9-1.2c-0.7,0-1.4,0.1-1.9,0.3c-0.6,0.2-1,0.5-1.4,0.9c-0.4,0.4-0.7,0.8-0.9,1.3
		c-0.2,0.5-0.3,1-0.4,1.5H197.7z"/>
	<path class="st0" d="M220.2,334.1c-1-1.2-2.2-1.8-3.8-1.8c-0.6,0-1.1,0.1-1.6,0.4c-0.5,0.3-0.8,0.7-0.8,1.3c0,0.5,0.3,0.9,0.8,1.2
		c0.5,0.2,1.2,0.5,2,0.7c0.8,0.2,1.7,0.4,2.7,0.6c0.9,0.2,1.8,0.6,2.7,1s1.5,1.1,2,1.9c0.5,0.8,0.8,1.9,0.8,3.2
		c0,1.4-0.3,2.5-0.9,3.4s-1.4,1.6-2.3,2.1c-0.9,0.5-2,0.9-3.1,1.1c-1.2,0.2-2.3,0.3-3.4,0.3c-1.5,0-3-0.2-4.5-0.6
		c-1.5-0.4-2.8-1.2-3.8-2.2l4-4.4c0.6,0.8,1.3,1.3,2,1.7c0.7,0.4,1.6,0.6,2.6,0.6c0.8,0,1.4-0.1,2-0.3c0.6-0.2,0.9-0.6,0.9-1.2
		c0-0.6-0.3-1-0.8-1.2c-0.5-0.3-1.2-0.5-2-0.7c-0.8-0.2-1.7-0.4-2.7-0.6c-0.9-0.2-1.8-0.5-2.7-1c-0.8-0.4-1.5-1.1-2-1.8
		c-0.5-0.8-0.8-1.9-0.8-3.2c0-1.2,0.3-2.3,0.8-3.2c0.5-0.9,1.2-1.6,2-2.2c0.8-0.6,1.8-1,2.9-1.3c1.1-0.3,2.2-0.4,3.3-0.4
		c1.4,0,2.8,0.2,4.2,0.6s2.6,1.1,3.6,2.2L220.2,334.1z"/>
	<path class="st0" d="M242.7,333.1H237v7.1c0,0.6,0,1.1,0.1,1.6c0.1,0.5,0.2,0.9,0.4,1.2c0.2,0.3,0.5,0.6,0.9,0.8
		c0.4,0.2,1,0.3,1.7,0.3c0.3,0,0.8,0,1.4-0.1c0.6-0.1,1-0.2,1.3-0.5v5.4c-0.7,0.3-1.5,0.4-2.3,0.5c-0.8,0.1-1.6,0.1-2.3,0.1
		c-1.1,0-2.1-0.1-3-0.3c-0.9-0.2-1.7-0.6-2.4-1.1c-0.7-0.5-1.2-1.2-1.6-2c-0.4-0.8-0.6-1.8-0.6-3v-10.1h-4.2v-5.2h4.2v-6.3h6.5v6.3
		h5.7V333.1z"/>
</g>
<g>
	<path class="st0" d="M255.8,328.5h11.4c1.6,0,3.1,0.1,4.5,0.4c1.4,0.3,2.7,0.8,3.7,1.5c1.1,0.7,1.9,1.7,2.5,2.9s0.9,2.7,0.9,4.5
		c0,1.8-0.3,3.3-0.9,4.5s-1.4,2.2-2.4,2.9c-1,0.7-2.2,1.2-3.6,1.5c-1.4,0.3-2.9,0.5-4.5,0.5h-5v12h-6.8V328.5z M262.6,341.5h4.5
		c0.6,0,1.2-0.1,1.8-0.2c0.6-0.1,1.1-0.3,1.5-0.6c0.4-0.3,0.8-0.7,1.1-1.1c0.3-0.5,0.4-1.1,0.4-1.8c0-0.8-0.2-1.4-0.5-1.9
		c-0.4-0.5-0.8-0.8-1.4-1.1c-0.6-0.3-1.2-0.4-1.9-0.5s-1.4-0.1-2-0.1h-3.5V341.5z"/>
	<path class="st0" d="M295.6,356.6L295.6,356.6c-0.8,1.1-1.8,1.9-3,2.4s-2.5,0.7-3.8,0.7c-1,0-1.9-0.1-2.9-0.4s-1.7-0.7-2.4-1.2
		c-0.7-0.6-1.2-1.2-1.7-2c-0.4-0.8-0.6-1.8-0.6-2.8c0-1.2,0.2-2.2,0.7-3.1s1.1-1.5,1.8-2.1c0.8-0.6,1.6-1,2.6-1.3
		c1-0.3,2-0.5,3.1-0.7c1.1-0.1,2.1-0.2,3.2-0.3c1.1,0,2,0,2.9,0c0-1.2-0.4-2.1-1.2-2.8c-0.8-0.7-1.8-1-2.9-1c-1.1,0-2.1,0.2-2.9,0.7
		c-0.9,0.5-1.7,1.1-2.4,1.8l-3.5-3.6c1.2-1.1,2.6-2,4.3-2.5s3.3-0.8,5-0.8c1.9,0,3.5,0.2,4.7,0.7c1.2,0.5,2.2,1.2,3,2.1
		s1.3,2.1,1.5,3.4c0.3,1.3,0.4,2.9,0.4,4.7v10.8h-6V356.6z M294,350c-0.5,0-1.1,0-1.8,0.1c-0.7,0-1.5,0.2-2.1,0.4
		c-0.7,0.2-1.3,0.5-1.7,0.9c-0.5,0.4-0.7,1-0.7,1.7c0,0.8,0.3,1.4,1,1.7c0.7,0.4,1.4,0.6,2.1,0.6c0.6,0,1.3-0.1,1.8-0.3
		c0.6-0.2,1.1-0.4,1.6-0.7s0.8-0.7,1.1-1.2c0.3-0.5,0.4-1.1,0.4-1.7V350H294z"/>
	<path class="st0" d="M305.3,331.5c0-1,0.4-1.9,1.1-2.7c0.7-0.7,1.6-1.1,2.7-1.1s1.9,0.4,2.7,1.1c0.7,0.7,1.1,1.6,1.1,2.7
		c0,1-0.4,1.9-1.1,2.7c-0.7,0.7-1.6,1.1-2.7,1.1s-1.9-0.4-2.7-1.1C305.7,333.4,305.3,332.5,305.3,331.5z M305.8,338.1h6.5v21.2h-6.5
		V338.1z"/>
	<path class="st0" d="M339.2,359.3h-6v-2.8h-0.1c-0.3,0.4-0.6,0.8-1,1.2c-0.4,0.4-0.9,0.7-1.5,1.1c-0.6,0.3-1.2,0.6-1.9,0.8
		c-0.7,0.2-1.4,0.3-2.1,0.3c-1.6,0-3-0.3-4.3-0.8c-1.3-0.5-2.4-1.3-3.3-2.3c-0.9-1-1.6-2.1-2.1-3.5c-0.5-1.3-0.7-2.8-0.7-4.4
		c0-1.5,0.2-2.9,0.7-4.2c0.4-1.3,1.1-2.5,1.9-3.6s1.8-1.9,3-2.5c1.2-0.6,2.5-0.9,4-0.9c1.4,0,2.6,0.2,3.8,0.6
		c1.2,0.4,2.1,1.1,2.9,2.2h0.1v-14h6.5V359.3z M333.2,348.7c0-1.6-0.5-2.9-1.4-3.9s-2.2-1.5-3.9-1.5s-2.9,0.5-3.9,1.5
		s-1.4,2.3-1.4,3.9c0,1.6,0.5,2.9,1.4,3.9c0.9,1,2.2,1.5,3.9,1.5s2.9-0.5,3.9-1.5C332.8,351.6,333.2,350.3,333.2,348.7z"/>
</g>
<g>
	<g>
		<path class="st2" d="M148.6,268.1h9v15.2h17.5v-15.2h9v40.8h-9v-17.6h-17.5v17.6h-9V268.1z"/>
		<path class="st2" d="M190.7,272c0-1.4,0.5-2.6,1.5-3.5s2.2-1.5,3.5-1.5s2.6,0.5,3.5,1.5c1,1,1.5,2.2,1.5,3.5s-0.5,2.6-1.5,3.5
			c-1,1-2.2,1.5-3.5,1.5s-2.6-0.5-3.5-1.5C191.2,274.6,190.7,273.4,190.7,272z M191.4,280.9h8.6v28h-8.6V280.9z"/>
		<path class="st2" d="M207,280.9h8v3.7h0.1c0.3-0.5,0.8-1,1.4-1.5c0.6-0.5,1.2-1,2-1.4s1.6-0.8,2.4-1c0.9-0.3,1.8-0.4,2.8-0.4
			c2.1,0,4,0.4,5.6,1.1c1.7,0.7,3.1,1.7,4.4,3c1.2,1.3,2.1,2.8,2.8,4.6c0.7,1.8,1,3.7,1,5.8c0,2-0.3,3.8-0.9,5.6s-1.4,3.4-2.5,4.8
			s-2.4,2.5-4,3.3c-1.6,0.8-3.4,1.2-5.4,1.2c-1.8,0-3.5-0.3-5-0.8c-1.6-0.6-2.8-1.5-3.8-2.9h-0.1V322H207V280.9z M215,294.9
			c0,2.1,0.6,3.8,1.8,5.1c1.2,1.3,2.9,2,5.1,2c2.2,0,3.9-0.7,5.1-2c1.2-1.3,1.8-3,1.8-5.1c0-2.1-0.6-3.8-1.8-5.1
			c-1.2-1.3-2.9-2-5.1-2c-2.2,0-3.9,0.7-5.1,2C215.6,291,215,292.8,215,294.9z"/>
		<path class="st2" d="M243.3,280.9h8v3.7h0.1c0.3-0.5,0.8-1,1.4-1.5c0.6-0.5,1.2-1,2-1.4s1.6-0.8,2.4-1c0.9-0.3,1.8-0.4,2.8-0.4
			c2.1,0,4,0.4,5.6,1.1c1.7,0.7,3.1,1.7,4.4,3c1.2,1.3,2.1,2.8,2.8,4.6c0.7,1.8,1,3.7,1,5.8c0,2-0.3,3.8-0.9,5.6s-1.4,3.4-2.5,4.8
			s-2.4,2.5-4,3.3c-1.6,0.8-3.4,1.2-5.4,1.2c-1.8,0-3.5-0.3-5-0.8c-1.6-0.6-2.8-1.5-3.8-2.9H252V322h-8.6V280.9z M251.3,294.9
			c0,2.1,0.6,3.8,1.8,5.1c1.2,1.3,2.9,2,5.1,2c2.2,0,3.9-0.7,5.1-2c1.2-1.3,1.8-3,1.8-5.1c0-2.1-0.6-3.8-1.8-5.1
			c-1.2-1.3-2.9-2-5.1-2c-2.2,0-3.9,0.7-5.1,2C251.9,291,251.3,292.8,251.3,294.9z"/>
		<path class="st2" d="M277.8,294.9c0-2.2,0.4-4.2,1.2-6.1c0.8-1.8,1.9-3.4,3.3-4.6c1.4-1.3,3.1-2.3,5-3c1.9-0.7,3.9-1,6.1-1
			c2.2,0,4.2,0.3,6.1,1c1.9,0.7,3.6,1.7,5,3c1.4,1.3,2.5,2.8,3.3,4.6c0.8,1.8,1.2,3.8,1.2,6.1c0,2.2-0.4,4.2-1.2,6
			c-0.8,1.8-1.9,3.4-3.3,4.6c-1.4,1.3-3.1,2.3-5,3c-1.9,0.7-3.9,1-6.1,1c-2.2,0-4.2-0.3-6.1-1c-1.9-0.7-3.6-1.7-5-3
			c-1.4-1.3-2.5-2.8-3.3-4.6C278.2,299.1,277.8,297.1,277.8,294.9z M286.4,294.9c0,2.1,0.6,3.8,1.8,5.1c1.2,1.3,2.9,2,5.1,2
			c2.2,0,3.9-0.7,5.1-2c1.2-1.3,1.8-3,1.8-5.1c0-2.1-0.6-3.8-1.8-5.1c-1.2-1.3-2.9-2-5.1-2c-2.2,0-3.9,0.7-5.1,2
			C287,291,286.4,292.8,286.4,294.9z"/>
		<path class="st2" d="M331.2,285.5c0-0.7,0.1-1.4,0.4-2.1s0.6-1.2,1.1-1.7c0.5-0.5,1-0.9,1.7-1.1c0.7-0.3,1.3-0.4,2.1-0.4
			c0.7,0,1.4,0.1,2.1,0.4c0.7,0.3,1.2,0.6,1.7,1.1c0.5,0.5,0.9,1,1.1,1.7s0.4,1.3,0.4,2.1c0,0.7-0.1,1.4-0.4,2.1
			c-0.3,0.7-0.6,1.2-1.1,1.7c-0.5,0.5-1,0.9-1.7,1.1c-0.7,0.3-1.3,0.4-2.1,0.4c-0.7,0-1.4-0.1-2.1-0.4c-0.7-0.3-1.2-0.6-1.7-1.1
			c-0.5-0.5-0.9-1-1.1-1.7C331.3,286.9,331.2,286.2,331.2,285.5z M331.2,303.9c0-0.7,0.1-1.4,0.4-2.1c0.3-0.7,0.6-1.2,1.1-1.7
			c0.5-0.5,1-0.9,1.7-1.1c0.7-0.3,1.3-0.4,2.1-0.4c0.7,0,1.4,0.1,2.1,0.4c0.7,0.3,1.2,0.6,1.7,1.1c0.5,0.5,0.9,1,1.1,1.7
			c0.3,0.7,0.4,1.3,0.4,2.1s-0.1,1.4-0.4,2.1s-0.6,1.2-1.1,1.7c-0.5,0.5-1,0.9-1.7,1.1c-0.7,0.3-1.3,0.4-2.1,0.4
			c-0.7,0-1.4-0.1-2.1-0.4c-0.7-0.3-1.2-0.6-1.7-1.1c-0.5-0.5-0.9-1-1.1-1.7S331.2,304.6,331.2,303.9z"/>
	</g>
	<g>
		<g>
			<path class="st2" d="M307.5,280.8c0.8,0.8,0.8,2.2,0,3.1c-0.8,0.8-2.2,0.8-3.1,0s-0.8-2.2,0-3.1S306.6,279.9,307.5,280.8z"/>
			<path class="st2" d="M298.8,289.4c0.8,0.8,0.8,2.2,0,3.1c-0.8,0.8-2.2,0.8-3.1,0c-0.8-0.8-0.8-2.2,0-3.1
				C296.6,288.5,298,288.5,298.8,289.4z"/>
		</g>
		<g>
			<path class="st2" d="M293.4,280.1c-8.1,0-14.6,6.6-14.6,14.7c0,8.1,6.6,14.7,14.6,14.7c8.1,0,14.6-6.6,14.6-14.7
				C308.1,286.7,301.5,280.1,293.4,280.1z M293.4,303.3c-4.7,0-8.5-3.8-8.5-8.5c0-4.7,3.8-8.5,8.5-8.5c4.7,0,8.5,3.8,8.5,8.5
				C301.9,299.5,298.1,303.3,293.4,303.3z"/>
		</g>
	</g>
</g>
<g>
	<g>
		<g>
			<path class="st0" d="M187.5,359.2c2.7,0,5.1,0.4,7.1,1.3c2,0.9,3.6,2.2,4.9,3.8s2.2,3.6,2.8,5.8s0.9,4.7,0.9,7.4
				c0,3.9-0.6,8.1-1.8,12.7c-1.2,4.6-2.9,9.1-5.1,13.7c-2.2,4.6-4.8,9-7.8,13.3c-3,4.3-6.4,8-10,11.3c-3.6,3.3-7.5,5.9-11.5,7.9
				c-4.1,2-8.2,3-12.5,3c-2.6,0-4.8-0.4-6.7-1.1c-1.9-0.7-3.4-1.7-4.6-3c-1.2-1.3-2-2.8-2.6-4.6c-0.5-1.8-0.8-3.8-0.8-5.9
				c0-3.2,0.6-6.7,1.8-10.6c1.2-3.8,2.8-7.7,4.7-11.6c2-3.9,4.3-7.6,6.9-11.2c2.6-3.6,5.4-6.8,8.3-9.6c2.9-2.8,5.8-5.1,8.8-6.7
				c3-1.7,5.9-2.5,8.6-2.5c1.1,0,2,0.2,2.9,0.7s1.6,1,2.2,1.6s1,1.3,1.3,2.1c0.3,0.8,0.5,1.4,0.5,2c0,0.8-0.2,1.5-0.6,2
				c-0.4,0.5-1.1,0.7-2,0.7c-0.3,0-0.6,0-0.7,0c-0.2,0-0.3-0.1-0.5-0.1c-0.2,0-0.3,0-0.5,0c-0.2,0-0.3,0-0.4,0
				c-2.2,0-4.5,0.8-6.9,2.4c-2.4,1.6-4.8,3.7-7.1,6.3c-2.3,2.6-4.6,5.5-6.7,8.9c-2.1,3.3-4,6.7-5.6,10.1c-1.6,3.4-2.9,6.8-3.8,10.1
				c-0.9,3.3-1.4,6.2-1.4,8.6c0,2.1,0.4,3.7,1.2,4.9c0.8,1.2,2.1,1.8,3.9,1.8c2.1,0,4.3-0.6,6.6-1.8c2.2-1.2,4.5-2.8,6.7-4.9
				c2.2-2.1,4.4-4.5,6.6-7.3c2.1-2.8,4.2-5.8,6.1-8.9c1.9-3.2,3.7-6.5,5.3-9.9c1.6-3.4,3-6.8,4.2-10.1c1.2-3.3,2.1-6.5,2.8-9.6
				c0.7-3.1,1-5.9,1-8.4c0-3-0.6-5.4-1.7-7.2c-1.1-1.8-3-2.7-5.5-2.7c-3.6,0-7.2,0.7-10.9,2.2c-3.7,1.4-7.3,3.3-10.8,5.6
				s-6.8,4.8-9.8,7.6c-3.1,2.8-5.7,5.6-8.1,8.4c-2.3,2.8-4.1,5.4-5.5,7.9c-1.3,2.5-2,4.5-2,6.1c0,1.2,0.1,2,0.2,2.6
				c0.1,0.6,0.3,1,0.4,1.3c0.1,0.3,0.2,0.6,0.3,0.9c0.1,0.2,0.2,0.6,0.2,1.1c0,0.8-0.3,1.4-0.8,1.8c-0.6,0.4-1.3,0.6-2.2,0.6
				c-0.9,0-1.8-0.2-2.9-0.6c-1.1-0.4-2.1-1.1-3.1-2c-1-0.9-1.8-2-2.4-3.2c-0.7-1.3-1-2.8-1-4.6c0-2.5,0.7-5.3,2.2-8.2
				c1.5-3,3.6-5.9,6.2-8.9c2.7-3,5.8-5.8,9.5-8.6c3.7-2.8,7.7-5.2,12.1-7.3c4.4-2.1,9.1-3.8,14-5.1
				C177.3,359.8,182.3,359.2,187.5,359.2z"/>
			<path class="st0" d="M245.9,396.6c0.4-0.8,0.9-1.3,1.5-1.5c0.6-0.2,1.1-0.3,1.6-0.1c0.5,0.2,0.8,0.6,1,1.2
				c0.2,0.6,0.1,1.3-0.3,2.1c-0.4,0.9-1.1,2.1-2.2,3.9c-1,1.7-2.3,3.6-3.9,5.6c-1.6,2-3.5,4.1-5.7,6.3c-2.2,2.1-4.6,4.1-7.2,5.8
				c-2.7,1.8-5.6,3.2-8.7,4.3c-3.1,1.1-6.5,1.7-10.1,1.7c-1.6,0-3-0.2-4.1-0.6c-1.2-0.4-2.1-1-3-1.7c-1.2,2.1-2.3,4-3.2,5.7
				c-0.9,1.8-1.7,3.3-2.5,4.5v-0.1c-1.4,3-2.5,5.5-3.3,7.7c-0.8,2.2-1.3,3.8-1.3,4.8l0.1,0.5c0,0.1,0.1,0.3,0.1,0.4
				c0,0.2,0.1,0.3,0.1,0.4l-0.1-0.1c0.1,0.5,0.2,1,0.3,1.4s0.1,0.8,0,1.1s-0.3,0.6-0.6,0.8c-0.3,0.2-0.8,0.3-1.5,0.3
				c-0.9,0-1.7-0.2-2.6-0.6c-0.9-0.4-1.6-1-2.4-1.7c-0.7-0.7-1.3-1.6-1.8-2.7c-0.5-1-0.7-2.2-0.7-3.5c0-1.1,0.3-2.6,0.9-4.5
				c0.6-1.9,1.4-4.1,2.4-6.5c1-2.4,2.1-5,3.4-7.8c1.3-2.8,2.6-5.6,3.9-8.4v0.1c1.3-2.8,2.6-5.5,3.8-8.2c1.3-2.7,2.4-5.2,3.4-7.5
				c1-2.3,1.8-4.4,2.4-6.1c0.6-1.8,0.9-3.1,0.9-4.1c0-0.7,0.5-1,1.4-0.9c1,0.1,2,0.4,3.2,0.9c1.2,0.6,2.2,1.3,3.2,2.2
				c1,0.9,1.4,1.8,1.4,2.7c0,0.9-0.3,2.3-0.8,4c1.1-1.5,2.1-3,3.1-4.3s2-2.5,3-3.5c1-1,1.9-1.8,2.7-2.3c0.8-0.6,1.5-0.8,2.1-0.8
				c1.5,0,2.8,0.1,3.9,0.3c1.2,0.2,2.1,0.7,2.9,1.4c0.8,0.7,1.4,1.7,1.8,3.1c0.4,1.3,0.6,3.1,0.6,5.3c0,1.1-0.2,2.3-0.4,3.8
				c-0.3,1.5-0.7,3-1.3,4.7c-0.6,1.7-1.3,3.4-2.2,5.1c-0.9,1.7-1.9,3.4-3,4.9c2.4-1.5,4.6-3.3,6.6-5.2c2-1.9,3.7-3.8,5.2-5.7
				c1.5-1.8,2.7-3.5,3.6-5C245,398.4,245.6,397.3,245.9,396.6L245.9,396.6z M209.2,421.4c1.3,0,2.7-0.5,4-1.6
				c1.3-1.1,2.6-2.5,3.9-4.3c1.3-1.8,2.4-3.7,3.5-5.8c1.1-2.1,2-4.3,2.8-6.4s1.4-4,1.9-5.8c0.5-1.8,0.7-3.2,0.7-4.3V393
				c-0.5,0.1-1.1,0.5-1.9,1.3c-0.8,0.8-1.7,1.8-2.7,3.1c-1,1.3-2.1,2.8-3.2,4.5c-1.2,1.7-2.4,3.5-3.6,5.5c-1.2,1.9-2.5,4-3.7,6
				c-1.2,2.1-2.4,4.1-3.6,6.1C207.7,420.8,208.3,421.4,209.2,421.4z"/>
			<path class="st0" d="M265.2,396.5c0.2-0.3,0.5-0.4,1-0.4c0.5,0,1,0.1,1.4,0.3c0.5,0.2,0.9,0.5,1.2,0.8s0.4,0.7,0.3,1
				c-0.4,0.9-1.1,2.3-2,4s-2,3.6-3.2,5.7c-1.2,2-2.6,4.1-4.1,6.3c-1.5,2.1-3.1,4.1-4.7,5.8c-1.6,1.7-3.3,3.2-4.9,4.3
				c-1.7,1.1-3.4,1.7-5,1.7c-2.1,0-3.9-0.8-5.2-2.3c-1.3-1.6-2-3.7-2-6.3c0-0.9,0.2-2.1,0.6-3.6c0.4-1.5,1-3,1.7-4.7
				c0.7-1.7,1.4-3.4,2.3-5.3c0.8-1.8,1.6-3.6,2.4-5.2c1-2.2,1.9-4.1,2.6-5.7c0.7-1.6,1.1-2.7,1.1-3.1c0-0.7,0.4-1,1.3-0.9
				c0.9,0.1,1.8,0.4,2.8,0.9c1,0.6,2,1.3,2.8,2.2c0.9,0.9,1.3,1.8,1.3,2.8c0,0.3-0.1,0.7-0.3,1.3c-0.2,0.6-0.5,1.3-0.8,2.1
				c-0.3,0.8-0.7,1.6-1.2,2.6c-0.4,0.9-0.9,1.8-1.3,2.7c-0.7,1.5-1.4,3-2.2,4.7c-0.8,1.7-1.5,3.3-2.2,4.8s-1.2,3-1.6,4.3
				c-0.4,1.3-0.6,2.3-0.6,3.1c0,0.4,0.1,0.6,0.2,0.6c0.9,0,2-0.5,3.2-1.5c1.2-1,2.4-2.3,3.7-3.8c1.3-1.5,2.5-3.3,3.8-5.1
				c1.2-1.9,2.4-3.7,3.4-5.5c1-1.8,2-3.4,2.7-4.8C264.3,398.3,264.8,397.2,265.2,396.5L265.2,396.5z M254.5,384.2
				c-0.8,0-1.3-0.3-1.7-0.9c-0.4-0.6-0.5-1.3-0.5-2.2c0-0.8,0.1-1.7,0.4-2.8c0.3-1,0.7-2,1.2-3c0.5-0.9,1-1.7,1.7-2.4
				c0.6-0.6,1.3-1,1.9-1c0.8,0,1.6,0.1,2.3,0.4c0.7,0.2,1.4,0.6,2,1s1,1,1.4,1.7s0.5,1.4,0.5,2.3c0,0.8-0.2,1.6-0.7,2.4
				c-0.5,0.8-1.1,1.6-1.9,2.2c-0.8,0.7-1.8,1.2-2.9,1.6C257,384,255.8,384.2,254.5,384.2z"/>
			<path class="st0" d="M299.1,396.7c0.4-0.8,0.9-1.3,1.5-1.5s1.1-0.3,1.6-0.1c0.5,0.2,0.8,0.6,1,1.1c0.2,0.6,0.1,1.2-0.3,2.1
				c-0.4,0.9-1,2.1-1.9,3.8c-0.8,1.7-1.8,3.6-2.9,5.6s-2.3,4.1-3.6,6.3s-2.7,4.1-4.1,5.8c-1.4,1.8-2.9,3.2-4.4,4.3
				c-1.5,1.1-2.9,1.7-4.3,1.7c-2.1,0-3.8-0.8-5.2-2.3c-1.4-1.6-2.1-3.7-2.1-6.3c0-0.9,0.2-2,0.5-3.3c0.4-1.3,0.8-2.7,1.4-4.3
				c0.6-1.5,1.3-3.1,2-4.8c0.7-1.7,1.5-3.3,2.2-4.9c-1.4,1.7-2.9,3.4-4.5,5.3c-1.6,1.9-3,3.7-4.4,5.6c-1.4,1.8-2.6,3.5-3.7,5.1
				c-1.1,1.6-1.9,2.9-2.4,4c0,0.2-0.1,0.4-0.1,0.6c0,0.2,0,0.3,0,0.4l0.1,0.5c0,0.1,0.1,0.3,0.1,0.5c0,0.2,0,0.3,0.1,0.4v-0.1
				c0.1,0.5,0.2,1,0.3,1.4c0.1,0.4,0.1,0.8,0,1.1c-0.1,0.3-0.3,0.6-0.6,0.8s-0.9,0.3-1.5,0.3c-0.8,0-1.6-0.2-2.5-0.6
				c-0.9-0.4-1.6-1-2.3-1.7s-1.3-1.6-1.8-2.7c-0.5-1-0.7-2.2-0.7-3.5c0-1.2,0.2-2.4,0.5-3.7c0.3-1.3,0.8-2.7,1.3-4
				c0.6-1.4,1.2-2.8,1.9-4.2c0.7-1.4,1.4-2.8,2.2-4.2c1.2-2.4,2.3-4.5,3.2-6.6c0.9-2,1.4-3.7,1.4-5c0-0.7,0.5-1,1.4-1.1
				c0.9,0,2,0.2,3.1,0.7s2.2,1.3,3.1,2.2c0.9,1,1.4,2.1,1.4,3.4c0,0.6-0.2,1.3-0.5,2.2s-0.7,1.9-1.3,3c1.3-1.6,2.6-3.1,4-4.6
				c1.3-1.5,2.5-2.8,3.7-4c1.1-1.2,2.1-2.1,3-2.9c0.9-0.7,1.5-1.1,1.9-1.1c0.1,0,0.2,0,0.4,0c0.2,0,0.3,0,0.5,0.1
				c0.5,0.2,1.1,0.5,1.7,0.9c0.6,0.4,1.2,1,1.8,1.6c0.6,0.6,1,1.3,1.4,2.1c0.4,0.8,0.5,1.5,0.5,2.3c0,0.6-0.4,1.7-1.1,3.2
				c-0.7,1.6-1.6,3.4-2.5,5.4c-0.7,1.5-1.5,3.1-2.3,4.7c-0.8,1.6-1.5,3.2-2.2,4.8c-0.6,1.5-1.2,2.9-1.6,4.2
				c-0.4,1.3-0.6,2.3-0.6,3.1c0,0.3,0,0.5,0.1,0.5c0.6,0,1.4-0.4,2.3-1.3c0.9-0.9,1.9-2.1,2.9-3.5c1-1.5,2.1-3.1,3.2-4.8
				c1.1-1.8,2.1-3.5,3-5.3c0.9-1.8,1.8-3.4,2.5-4.9c0.7-1.5,1.3-2.8,1.7-3.7V396.7z"/>
			<path class="st0" d="M318.2,396.5c0.2-0.3,0.5-0.4,1-0.4c0.5,0,1,0.1,1.4,0.3c0.5,0.2,0.9,0.5,1.2,0.8s0.4,0.7,0.3,1
				c-0.4,0.9-1.1,2.3-2,4s-2,3.6-3.2,5.7c-1.2,2-2.6,4.1-4.1,6.3c-1.5,2.1-3.1,4.1-4.7,5.8c-1.6,1.7-3.3,3.2-4.9,4.3
				c-1.7,1.1-3.4,1.7-5,1.7c-2.1,0-3.9-0.8-5.2-2.3c-1.3-1.6-2-3.7-2-6.3c0-0.9,0.2-2.1,0.6-3.6c0.4-1.5,1-3,1.7-4.7
				c0.7-1.7,1.4-3.4,2.3-5.3c0.8-1.8,1.6-3.6,2.4-5.2c1-2.2,1.9-4.1,2.6-5.7c0.7-1.6,1.1-2.7,1.1-3.1c0-0.7,0.4-1,1.3-0.9
				c0.9,0.1,1.8,0.4,2.8,0.9c1,0.6,2,1.3,2.8,2.2s1.3,1.8,1.3,2.8c0,0.3-0.1,0.7-0.3,1.3c-0.2,0.6-0.5,1.3-0.8,2.1
				c-0.3,0.8-0.7,1.6-1.2,2.6c-0.4,0.9-0.9,1.8-1.3,2.7c-0.7,1.5-1.4,3-2.2,4.7c-0.8,1.7-1.5,3.3-2.2,4.8s-1.2,3-1.6,4.3
				c-0.4,1.3-0.6,2.3-0.6,3.1c0,0.4,0.1,0.6,0.2,0.6c0.9,0,2-0.5,3.2-1.5c1.2-1,2.4-2.3,3.7-3.8c1.3-1.5,2.5-3.3,3.8-5.1
				c1.2-1.9,2.4-3.7,3.4-5.5c1-1.8,2-3.4,2.7-4.8C317.3,398.3,317.9,397.2,318.2,396.5L318.2,396.5z M307.5,384.2
				c-0.8,0-1.3-0.3-1.7-0.9c-0.4-0.6-0.5-1.3-0.5-2.2c0-0.8,0.1-1.7,0.4-2.8c0.3-1,0.7-2,1.2-3c0.5-0.9,1-1.7,1.7-2.4
				c0.6-0.6,1.3-1,1.9-1c0.8,0,1.6,0.1,2.3,0.4c0.7,0.2,1.4,0.6,2,1s1,1,1.4,1.7s0.5,1.4,0.5,2.3c0,0.8-0.2,1.6-0.7,2.4
				c-0.5,0.8-1.1,1.6-1.9,2.2c-0.8,0.7-1.8,1.2-2.9,1.6C310.1,384,308.8,384.2,307.5,384.2z"/>
			<path class="st0" d="M352.7,396.8c0.2-0.4,0.5-0.6,1-0.6c0.5,0,1,0.1,1.4,0.4c0.5,0.3,0.8,0.6,1.1,1c0.3,0.4,0.4,0.8,0.2,1.2
				c-0.3,0.6-0.7,1.4-1.3,2.4c-0.6,1-1.3,2.2-2.2,3.4c-0.9,1.2-1.9,2.5-3,3.8c-1.1,1.3-2.4,2.5-3.7,3.7c-1.3,1.1-2.8,2.1-4.4,3
				c-1.6,0.8-3.3,1.4-5.1,1.6c-1.9,2.7-4.1,4.9-6.6,6.6c-2.4,1.7-5,2.6-7.6,2.6c-1.4,0-2.8-0.3-4.1-0.8c-1.3-0.6-2.5-1.4-3.6-2.5
				s-1.9-2.5-2.5-4.1c-0.6-1.6-1-3.5-1-5.7c0-2.1,0.4-4.2,1.2-6.3c0.8-2.2,1.7-4.1,2.8-5.9c1-1.8,2.1-3.3,3.2-4.4s1.9-1.7,2.5-1.7
				c0.4,0,0.9,0,1.4,0.1s1,0.2,1.5,0.3c0.8-1,1.6-2,2.5-2.9c0.9-0.9,1.8-1.7,2.8-2.3c1-0.7,2-1.2,3.1-1.6c1.1-0.4,2.2-0.6,3.3-0.6
				c1.6,0,3,0.2,4,0.5c1,0.4,1.9,0.9,2.5,1.5c0.6,0.7,1,1.5,1.3,2.4c0.2,0.9,0.4,1.9,0.4,3c0,5.6-1.3,11-3.8,16.1
				c1.5-0.9,3-1.9,4.4-3.3c1.4-1.3,2.6-2.7,3.8-4s2.1-2.7,2.8-3.9C351.8,398.4,352.4,397.4,352.7,396.8z M322.9,420.9
				c1.5,0,2.9-0.4,4.2-1.2c1.3-0.8,2.5-1.9,3.7-3.2c-1.6-0.4-3.2-1.1-4.6-2c-1.4-0.9-2.7-1.9-3.7-3c-0.6,1.3-1,2.6-1.4,3.9
				c-0.4,1.2-0.5,2.3-0.5,3.3c0,0.7,0.2,1.3,0.5,1.7C321.4,420.7,322,420.9,322.9,420.9z M330.3,408.7c0,1,0.2,1.8,0.7,2.5
				c0.5,0.7,1.3,1.1,2.6,1.3c0.9-1.5,1.6-3,2.3-4.6c0.7-1.6,1.3-3.1,1.7-4.7c0.5-1.5,0.8-3,1.1-4.4c0.3-1.4,0.4-2.6,0.4-3.6
				c0-1.7-0.2-2.6-0.6-2.6s-1.1,0.5-2,1.6c-0.9,1.1-1.8,2.5-2.7,4.1c-0.9,1.6-1.7,3.4-2.4,5.2C330.6,405.5,330.3,407.2,330.3,408.7z
				"/>
			<path class="st0" d="M386.4,396.7c0.4-0.8,0.9-1.3,1.5-1.5s1.1-0.3,1.6-0.1c0.5,0.2,0.8,0.6,1,1.1c0.2,0.6,0.1,1.2-0.3,2.1
				c-0.4,0.9-1,2.1-1.9,3.8c-0.8,1.7-1.8,3.6-2.9,5.6s-2.3,4.1-3.6,6.3s-2.7,4.1-4.1,5.8c-1.4,1.8-2.9,3.2-4.4,4.3
				c-1.5,1.1-2.9,1.7-4.3,1.7c-2.1,0-3.8-0.8-5.2-2.3c-1.4-1.6-2.1-3.7-2.1-6.3c0-0.9,0.2-2,0.5-3.3c0.4-1.3,0.8-2.7,1.4-4.3
				c0.6-1.5,1.3-3.1,2-4.8c0.7-1.7,1.5-3.3,2.2-4.9c-1.4,1.7-2.9,3.4-4.5,5.3c-1.6,1.9-3,3.7-4.4,5.6c-1.4,1.8-2.6,3.5-3.7,5.1
				c-1.1,1.6-1.9,2.9-2.4,4c0,0.2-0.1,0.4-0.1,0.6c0,0.2,0,0.3,0,0.4l0.1,0.5c0,0.1,0.1,0.3,0.1,0.5c0,0.2,0,0.3,0.1,0.4v-0.1
				c0.1,0.5,0.2,1,0.3,1.4c0.1,0.4,0.1,0.8,0,1.1c-0.1,0.3-0.3,0.6-0.6,0.8s-0.9,0.3-1.5,0.3c-0.8,0-1.6-0.2-2.5-0.6
				c-0.9-0.4-1.6-1-2.3-1.7s-1.3-1.6-1.8-2.7c-0.5-1-0.7-2.2-0.7-3.5c0-1.2,0.2-2.4,0.5-3.7c0.3-1.3,0.8-2.7,1.3-4
				c0.6-1.4,1.2-2.8,1.9-4.2c0.7-1.4,1.4-2.8,2.2-4.2c1.2-2.4,2.3-4.5,3.2-6.6c0.9-2,1.4-3.7,1.4-5c0-0.7,0.5-1,1.4-1.1
				c0.9,0,2,0.2,3.1,0.7s2.2,1.3,3.1,2.2c0.9,1,1.4,2.1,1.4,3.4c0,0.6-0.2,1.3-0.5,2.2s-0.7,1.9-1.3,3c1.3-1.6,2.6-3.1,4-4.6
				c1.3-1.5,2.5-2.8,3.7-4c1.1-1.2,2.1-2.1,3-2.9c0.9-0.7,1.5-1.1,1.9-1.1c0.1,0,0.2,0,0.4,0c0.2,0,0.3,0,0.5,0.1
				c0.5,0.2,1.1,0.5,1.7,0.9c0.6,0.4,1.2,1,1.8,1.6c0.6,0.6,1,1.3,1.4,2.1c0.4,0.8,0.5,1.5,0.5,2.3c0,0.6-0.4,1.7-1.1,3.2
				c-0.7,1.6-1.6,3.4-2.5,5.4c-0.7,1.5-1.5,3.1-2.3,4.7c-0.8,1.6-1.5,3.2-2.2,4.8c-0.6,1.5-1.2,2.9-1.6,4.2
				c-0.4,1.3-0.6,2.3-0.6,3.1c0,0.3,0,0.5,0.1,0.5c0.6,0,1.4-0.4,2.3-1.3c0.9-0.9,1.9-2.1,2.9-3.5c1-1.5,2.1-3.1,3.2-4.8
				c1.1-1.8,2.1-3.5,3-5.3c0.9-1.8,1.8-3.4,2.5-4.9c0.7-1.5,1.3-2.8,1.7-3.7V396.7z"/>
		</g>
	</g>
</g>
<g>
	<g>
		<path class="st2" d="M107,287.9c0,0.2-0.2,0.4-0.5,0.7c-0.3,0.3-0.9,0.6-1.6,0.9c-0.7,0.3-1.6,0.6-2.8,0.8c-1.1,0.2-2.5,0.3-4,0.3
			c-0.2,0.4-0.4,0.8-0.6,1.2c-0.2,0.4-0.4,0.8-0.6,1.2c-0.6,1.2-1.1,2.4-1.7,3.6c-0.6,1.2-1.1,2.4-1.5,3.4c-0.4,1.1-0.8,2.1-1.1,3
			s-0.4,1.6-0.4,2.2c0,0.5,0.2,0.7,0.5,0.7c0.6,0,1.2-0.2,1.9-0.7c0.7-0.5,1.4-1.1,2-1.8s1.4-1.6,2-2.5c0.7-0.9,1.3-1.8,1.8-2.6
			c0.5-0.9,1-1.6,1.4-2.3s0.7-1.2,0.8-1.5c0.1-0.1,0.2-0.2,0.5-0.2s0.5,0,0.7,0.1c0.2,0.1,0.4,0.2,0.6,0.4s0.2,0.3,0.1,0.5
			c-0.2,0.4-0.5,1-1,1.9s-1,1.7-1.6,2.7c-0.6,1-1.4,2-2.2,3c-0.8,1-1.6,2-2.5,2.8s-1.8,1.5-2.7,2.1c-0.9,0.5-1.8,0.8-2.8,0.8
			c-0.4,0-0.8-0.1-1.3-0.3c-0.5-0.2-1-0.5-1.4-1c-0.4-0.4-0.8-0.9-1.1-1.5s-0.4-1.3-0.4-2.1c0-0.5,0.1-1.1,0.4-1.9
			c0.3-0.8,0.6-1.8,1.1-2.9c0.4-1.1,1-2.2,1.5-3.5c0.6-1.2,1.1-2.5,1.7-3.7l0.7-1.4c-0.9-0.1-1.7-0.3-2.4-0.5
			c-0.7-0.2-1.3-0.4-1.8-0.7c-0.5-0.2-0.9-0.5-1.1-0.7s-0.4-0.4-0.4-0.5c0-0.3,0-0.5,0.1-0.6c0.1-0.1,0.2-0.2,0.4-0.2
			c0.2,0,0.4,0,0.7,0s0.6,0.1,1.1,0.2c0.5,0.1,1.1,0.2,1.8,0.4c0.7,0.1,1.6,0.3,2.6,0.4c0.7-1.6,1.4-3.1,1.9-4.3
			c0.5-1.3,0.7-2.1,0.7-2.7c0-0.3,0.2-0.5,0.6-0.4c0.4,0,0.9,0.2,1.4,0.5c0.5,0.3,1,0.6,1.4,1.1c0.4,0.4,0.6,0.9,0.6,1.3
			c0,0.5-0.1,1.1-0.4,1.9c-0.3,0.8-0.7,1.8-1.1,2.8c1.2,0,2.3-0.1,3.3-0.3c1-0.2,1.8-0.3,2.4-0.5l0,0c0.7-0.2,1.2-0.2,1.6-0.2
			S107,287.5,107,287.9z"/>
		<path class="st2" d="M120.7,294.6c0.1-0.2,0.2-0.2,0.5-0.2s0.5,0,0.7,0.1s0.4,0.2,0.6,0.4c0.2,0.2,0.2,0.3,0.1,0.5
			c-0.2,0.4-0.5,1-1,1.9s-1,1.7-1.7,2.7c-0.7,1-1.4,2-2.1,3c-0.8,1-1.5,2-2.3,2.8c-0.8,0.9-1.5,1.5-2.3,2.1c-0.8,0.5-1.4,0.8-2,0.8
			c-1,0-1.8-0.4-2.5-1.1c-0.7-0.8-1-1.8-1-3.1c0-0.4,0.1-1,0.3-1.6c0.2-0.6,0.4-1.3,0.7-2.1c0.3-0.8,0.6-1.5,1-2.4
			c0.4-0.8,0.7-1.6,1.1-2.4c-0.7,0.8-1.4,1.6-2.1,2.5c-0.7,0.9-1.4,1.8-2.1,2.7c-0.7,0.9-1.3,1.7-1.8,2.5c-0.5,0.8-0.9,1.5-1.2,2
			c-0.1,0.2-0.1,0.4-0.1,0.6l0.1,0.2c0,0.1,0,0.1,0,0.2c0,0.1,0,0.2,0,0.2l0,0c0.1,0.2,0.1,0.5,0.2,0.7s0,0.4,0,0.5
			c0,0.2-0.1,0.3-0.3,0.4c-0.2,0.1-0.4,0.1-0.7,0.1c-0.4,0-0.8-0.1-1.3-0.3c-0.4-0.2-0.8-0.5-1.2-0.8c-0.3-0.4-0.6-0.8-0.9-1.3
			c-0.2-0.5-0.3-1.1-0.3-1.7c0-0.5,0.1-1.2,0.4-2.1c0.3-0.9,0.6-1.8,1.1-2.9s1-2.2,1.5-3.4c0.6-1.2,1.2-2.4,1.8-3.7
			c0.6-1.2,1.2-2.4,1.7-3.6c0.6-1.2,1.1-2.3,1.5-3.3c0.4-1,0.8-1.9,1.1-2.7c0.3-0.8,0.4-1.4,0.4-1.9c0-0.3,0.2-0.5,0.7-0.4
			c0.5,0,1,0.2,1.6,0.5s1.1,0.6,1.6,1.1s0.7,0.9,0.7,1.3c0,0.5-0.2,1.3-0.5,2.1c-0.3,0.9-0.7,1.9-1.2,3c-0.5,1.1-1,2.3-1.7,3.5
			c-0.6,1.2-1.2,2.5-1.9,3.8l-0.2,0.5v0c0.6-0.8,1.3-1.5,1.9-2.3c0.6-0.7,1.2-1.4,1.8-2c0.6-0.6,1.1-1.1,1.5-1.4
			c0.4-0.4,0.8-0.6,1-0.6c0.2,0,0.6,0.1,0.9,0.3c0.4,0.2,0.7,0.5,1,0.8c0.3,0.3,0.6,0.7,0.9,1.1c0.2,0.4,0.4,0.8,0.4,1.2
			c0,0.3-0.2,0.8-0.5,1.6s-0.8,1.6-1.2,2.7c-0.4,0.7-0.7,1.5-1.1,2.3c-0.4,0.8-0.7,1.6-1.1,2.3c-0.3,0.7-0.6,1.4-0.8,2.1
			c-0.2,0.6-0.3,1.1-0.3,1.5v0.2c0,0,0,0.1,0,0.1c0.3,0,0.7-0.2,1.2-0.7c0.5-0.5,1.1-1.1,1.7-1.8s1.2-1.6,1.9-2.5
			c0.6-0.9,1.2-1.8,1.8-2.6c0.5-0.9,1-1.6,1.4-2.3S120.5,294.9,120.7,294.6z"/>
		<path class="st2" d="M135.7,294.6c0.1-0.2,0.2-0.2,0.5-0.2c0.2,0,0.5,0,0.7,0.1c0.2,0.1,0.4,0.2,0.6,0.4c0.2,0.2,0.2,0.3,0.1,0.5
			c-0.2,0.4-0.5,1-1,1.9s-1,1.7-1.6,2.7c-0.6,1-1.4,2-2.2,3c-0.8,1-1.7,2-2.7,2.8s-2,1.5-3.1,2.1c-1.1,0.5-2.3,0.8-3.5,0.8
			c-1,0-1.9-0.2-2.7-0.7s-1.4-1-1.9-1.7c-0.5-0.7-0.9-1.4-1.1-2.2c-0.2-0.8-0.4-1.5-0.4-2.3c0-1.5,0.4-2.9,1.1-4.3
			c0.7-1.4,1.6-2.7,2.8-3.8s2.5-2,3.9-2.7c1.4-0.7,2.9-1,4.4-1c1,0,1.7,0.2,2.1,0.7s0.6,1,0.6,1.7c0,0.5-0.1,1.2-0.4,1.9
			c-0.3,0.7-0.7,1.4-1.1,2.2c-0.5,0.7-1,1.5-1.7,2.2s-1.3,1.4-2,2s-1.4,1.1-2.1,1.5c-0.7,0.4-1.4,0.7-2.1,0.9
			c-0.1,0.4-0.1,0.8-0.1,1.2c0,0.5,0.1,0.9,0.2,1.2s0.4,0.5,0.8,0.5c0.9,0,1.8-0.2,2.7-0.7c0.9-0.5,1.7-1.1,2.6-1.8
			c0.8-0.7,1.6-1.5,2.3-2.4s1.4-1.7,1.9-2.6c0.6-0.8,1-1.6,1.4-2.3C135.3,295.4,135.5,294.9,135.7,294.6z M130.1,292.3
			c-0.5,0-1,0.2-1.6,0.7s-1.2,1.1-1.7,1.9c-0.6,0.8-1.1,1.7-1.6,2.6c-0.5,1-0.9,1.9-1.3,2.9c0.7-0.4,1.5-0.9,2.3-1.6
			c0.8-0.7,1.5-1.5,2.1-2.2c0.6-0.8,1.1-1.6,1.5-2.3c0.4-0.7,0.6-1.4,0.6-1.8C130.2,292.3,130.2,292.3,130.1,292.3z"/>
	</g>
</g>
</svg>
