<?xml version="1.0" encoding="utf-8"?>
<!-- Generator: Adobe Illustrator 26.1.0, SVG Export Plug-In . SVG Version: 6.00 Build 0)  -->
<svg version="1.1" id="Calque_1" xmlns="http://www.w3.org/2000/svg" xmlns:xlink="http://www.w3.org/1999/xlink" x="0px" y="0px"
	 viewBox="0 0 1024 530" style="enable-background:new 0 0 1024 530;" xml:space="preserve">
<style type="text/css">
	.st0{fill:#4CC7DB;}
	.st1{fill:none;}
	.st2{fill:#001E57;}
	.st3{fill:none;stroke:#001E57;stroke-width:6;stroke-linecap:round;stroke-linejoin:round;stroke-miterlimit:10;}
</style>
<g>
	<g>
		<path class="st0" d="M394.3,150.1c0,1.3-0.4,2.9-1.1,4.8c-0.7,1.8-1.8,3.9-3.1,6.3c-1.3,2.3-2.8,4.9-4.6,7.6
			c-1.8,2.7-3.6,5.6-5.7,8.7c-3.5,5.3-7.2,11-11.1,17.2c-3.9,6.2-7.5,12.6-10.8,19.2c-3.3,6.6-6,13.3-8.1,20.1
			c-2.1,6.8-6.2,29.4-6.2,35.9c0,2.9,0.2,5.2,0.7,7.2c0.5,1.9,0.9,3.4,1.4,4.5c0.4,1.1,0.8,2.1,1,2.9c0.2,0.8,0.2,1.4,0,1.8
			c-0.2,0.4-0.6,0.8-1.3,1c-0.7,0.2-1.8,0.3-3.2,0.3c-1.7,0-3.4-0.3-5.2-0.9c-1.8-0.6-3.5-1.7-5-3.2c-1.5-1.5-2.8-3.5-3.8-6.1
			c-1-2.5-1.5-5.8-1.5-9.6c0-3.1,0.3-6.2,0.8-9.4c0.5-3.1,1.5-13,5.3-25.6c1-3.3,2.3-6.8,3.8-10.4c1.5-3.6,3.3-7.4,5.3-11.4
			l-1.1,1.6c-2,2.9-3.9,5.6-5.7,8.1c-1.8,2.5-3.7,4.7-5.5,6.6c-1.8,1.9-3.7,3.4-5.5,4.5c-1.8,1.1-3.7,1.7-5.6,1.7h-1.1
			c-2.7,0-5.1-0.7-7.1-2.2c-2-1.5-3.6-3.3-4.8-5.6c-1.2-2.3-2.1-4.8-2.7-7.5c-0.6-2.8-0.9-5.5-0.9-8.1c0-5.3,0.7-10.6,2.1-15.9
			c1.4-5.3,3.1-10.4,5.1-15.4c2-4.9,4.2-9.6,6.6-14c2.4-4.4,4.5-8.4,6.6-11.9c1.8-3.3,3.4-6.2,4.7-8.5c1.3-2.4,2-4.2,2-5.3v-0.9
			c0-0.8,0-1.6,0-2.3c0-0.7,0.2-1.3,0.4-1.8c0.2-0.5,0.6-0.9,1.2-1.1c0.6-0.3,1.4-0.4,2.5-0.4c1.4,0,2.7,0.3,4,1
			c1.3,0.6,2.4,1.5,3.3,2.6c0.9,1.1,1.7,2.4,2.2,3.9c0.5,1.5,0.8,3.1,0.8,4.7c0,1.3-0.6,3.2-1.9,5.6c-1.3,2.4-2.8,5.3-4.7,8.7
			c-1.8,3.2-3.8,6.9-6,10.9c-2.1,4-4.1,8.3-6,12.8c-1.8,4.5-3.4,9.2-4.6,14.1c-1.2,4.9-1.9,9.8-1.9,14.8c0,2.2,0.2,4.2,0.5,6.2
			c0.3,2,0.7,3.7,1.2,5.2c1.3-0.5,3.1-2,5.5-4.4c2.4-2.4,5.1-5.5,8.2-9.2c3.1-3.7,6.3-7.8,9.8-12.4c3.5-4.6,7-9.3,10.5-14.1
			c3.5-4.8,6.8-9.6,10-14.3c3.2-4.7,6-9,8.4-12.9c2.4-3.9,4.4-7.2,5.8-10c1.5-2.8,2.2-4.7,2.2-5.6c0-0.8,0-1.5,0-2.1
			c0-0.7,0.2-1.2,0.5-1.7c0.3-0.5,0.7-0.9,1.4-1.1c0.6-0.3,1.6-0.4,2.8-0.4c1.1,0,2.3,0.3,3.4,0.9c1.1,0.6,2.1,1.5,3,2.7
			c0.9,1.2,1.6,2.8,2.1,4.7C394,145.1,394.3,147.4,394.3,150.1z"/>
		<path class="st0" d="M482.7,183.7c0.5-0.9,1.2-1.6,1.9-1.9c0.7-0.3,1.4-0.3,1.9-0.1c0.6,0.2,1,0.7,1.2,1.4
			c0.3,0.7,0.2,1.5-0.2,2.5l-0.7,1.6c-0.7,1.4-1.5,3.2-2.6,5.3c-1,2.1-2.2,4.4-3.5,6.8c-1.3,2.4-2.7,4.8-4.3,7.2
			c-1.5,2.4-3.1,4.6-4.7,6.5c-1.6,1.9-3.3,3.5-5,4.7c-1.7,1.2-3.4,1.8-5.1,1.8c-1.1,0-2.2-0.3-3.2-1c-1.1-0.7-2-1.6-2.8-2.7
			c-0.8-1.1-1.5-2.2-2-3.5c-0.5-1.2-0.8-2.4-0.8-3.5c0-0.9,0.2-2,0.5-3.4c-1.4,1.8-2.8,3.6-4.2,5.3c-1.4,1.7-2.7,3.2-4,4.5
			c-1.3,1.3-2.5,2.4-3.6,3.1c-1.1,0.8-2.1,1.1-2.9,1.1c-1.2,0-2.4-0.4-3.5-1.1c-1.1-0.8-2.1-1.7-2.9-2.8c-0.8-1.1-1.5-2.3-2-3.6
			c-0.5-1.3-0.8-2.4-0.8-3.4c0-1.4,0.2-2.9,0.6-4.5c0.4-1.6,1-3.2,1.7-4.9c0.7-1.7,1.5-3.4,2.3-5.1c0.8-1.7,1.7-3.4,2.6-5.1
			c0.7-1.4,1.5-2.7,2.1-4.1c0.7-1.3,1.3-2.6,1.8-3.8c0.5-1.2,0.9-2.3,1.3-3.4c0.3-1,0.5-1.9,0.5-2.7c0-0.8,0.6-1.3,1.7-1.3
			c1.2-0.1,2.5,0.2,3.9,0.9c1.4,0.6,2.7,1.5,3.9,2.7c1.2,1.2,1.7,2.5,1.7,4.1c0,0.6-0.2,1.5-0.6,2.6c-0.4,1.1-0.9,2.4-1.5,3.8
			c-0.6,1.4-1.4,3-2.2,4.6c-0.8,1.6-1.7,3.3-2.6,5.1c-1.1,2.1-2.1,4.1-3.2,6.1c-1.1,2-2,3.8-2.8,5.4c-0.8,1.6-1.4,2.9-1.8,3.8
			c-0.4,1-0.6,1.5-0.4,1.5c0.3,0,0.9-0.4,1.8-1.3c0.9-0.9,1.9-2,3-3.4c1.2-1.4,2.4-3,3.8-4.8c1.4-1.8,2.8-3.7,4.2-5.6
			c3.3-4.4,6.9-9.5,10.8-15.1c1-2.2,1.9-4.1,2.6-5.8c0.7-1.6,1.1-2.7,1.1-3.2c0-0.8,0.5-1.2,1.6-1.1c1.1,0.1,2.2,0.5,3.5,1.1
			c1.3,0.7,2.4,1.6,3.5,2.7c1.1,1.1,1.6,2.2,1.6,3.3c0,0.7-0.4,2.1-1.3,4c-0.9,1.9-1.9,4.2-3.1,6.7c-0.9,1.8-1.8,3.8-2.8,5.8
			c-0.9,2-1.8,4-2.6,5.9c-0.8,1.9-1.5,3.6-2,5.2c-0.5,1.6-0.8,2.9-0.8,3.8c0,0.4,0.1,0.6,0.2,0.6c0.9,0,1.9-0.5,3-1.6
			c1.1-1.1,2.2-2.4,3.4-4.1c1.2-1.7,2.4-3.5,3.6-5.6c1.2-2.1,2.3-4.1,3.4-6.2c1.1-2.1,2-4,2.9-5.8c0.9-1.8,1.6-3.3,2.2-4.5
			L482.7,183.7L482.7,183.7z"/>
		<g>
			<g>
				<path class="st0" d="M427.3,171c1.4,1.4,1.4,3.8,0,5.2c-1.4,1.4-3.8,1.4-5.2,0c-1.4-1.4-1.4-3.8,0-5.2
					C423.5,169.5,425.8,169.5,427.3,171z"/>
				<path class="st0" d="M412.5,185.7c1.4,1.4,1.4,3.8,0,5.2c-1.4,1.4-3.8,1.4-5.2,0c-1.4-1.4-1.4-3.8,0-5.2
					C408.8,184.2,411.1,184.2,412.5,185.7z"/>
			</g>
			<g>
				<path class="st0" d="M403.3,169.9c-13.8,0-25,11.3-25,25.1c0,13.8,11.2,25.1,25,25.1c13.8,0,25-11.3,25-25.1
					C428.4,181.1,417.1,169.9,403.3,169.9z M403.3,209.5c-8,0-14.5-6.5-14.5-14.5c0-8,6.5-14.5,14.5-14.5s14.5,6.5,14.5,14.5
					C417.8,203,411.3,209.5,403.3,209.5z"/>
			</g>
		</g>
	</g>
</g>
<g>
	<g>
		<g>
			<path class="st2" d="M401,310.9c4.6,0,8.6,0.8,12,2.3s6.1,3.6,8.3,6.4c2.2,2.7,3.8,6,4.8,9.8c1,3.8,1.5,8,1.5,12.5
				c0,6.6-1,13.7-3.1,21.4c-2.1,7.7-4.9,15.4-8.6,23.1c-3.7,7.7-8.1,15.2-13.2,22.4c-5.1,7.2-10.7,13.5-16.9,19.1
				c-6.1,5.5-12.6,10-19.5,13.3c-6.9,3.3-13.9,5-21.1,5c-4.4,0-8.2-0.6-11.3-1.8c-3.1-1.2-5.7-2.9-7.7-5.1c-2-2.2-3.4-4.8-4.3-7.8
				c-0.9-3-1.4-6.4-1.4-10c0-5.4,1-11.4,3-17.8c2-6.5,4.6-13,8-19.5c3.3-6.5,7.2-12.9,11.6-19c4.4-6.1,9-11.5,13.9-16.3
				c4.9-4.7,9.8-8.5,14.9-11.4c5.1-2.9,9.9-4.3,14.5-4.3c1.8,0,3.4,0.4,4.9,1.1c1.4,0.8,2.7,1.7,3.6,2.8c1,1.1,1.7,2.3,2.2,3.5
				c0.5,1.3,0.8,2.4,0.8,3.4c0,1.4-0.3,2.5-1,3.3c-0.7,0.8-1.8,1.2-3.3,1.2c-0.6,0-1,0-1.2-0.1c-0.3,0-0.5-0.1-0.8-0.2
				c-0.3,0-0.6,0-0.8-0.1c-0.3,0-0.5-0.1-0.7-0.1c-3.7,0-7.6,1.4-11.6,4.1c-4,2.7-8,6.3-12,10.6c-3.9,4.4-7.7,9.4-11.3,15
				c-3.6,5.6-6.7,11.3-9.4,17.1c-2.7,5.8-4.9,11.4-6.4,17c-1.6,5.5-2.4,10.4-2.4,14.6c0,3.5,0.7,6.2,2,8.3c1.3,2.1,3.5,3.1,6.6,3.1
				c3.6,0,7.3-1,11.1-3c3.8-2,7.6-4.8,11.4-8.2c3.8-3.5,7.5-7.5,11.1-12.2c3.6-4.7,7-9.7,10.3-15.1c3.3-5.3,6.2-10.9,9-16.7
				c2.7-5.8,5.1-11.5,7.1-17.1c2-5.6,3.5-11,4.7-16.2c1.1-5.2,1.7-9.9,1.7-14.2c0-5.1-1-9.1-2.9-12.2c-1.9-3.1-5-4.6-9.3-4.6
				c-6,0-12.1,1.2-18.4,3.6c-6.3,2.4-12.3,5.5-18.2,9.4c-5.9,3.8-11.4,8.1-16.6,12.9c-5.2,4.8-9.7,9.5-13.6,14.3
				c-3.9,4.7-7,9.2-9.2,13.3c-2.2,4.2-3.4,7.6-3.4,10.2c0,2,0.1,3.4,0.3,4.3c0.2,0.9,0.5,1.7,0.8,2.3c0.1,0.6,0.3,1.1,0.5,1.5
				c0.2,0.4,0.3,1,0.3,1.8c0,1.4-0.5,2.4-1.4,3.1c-0.9,0.7-2.2,1-3.7,1c-1.4,0-3.1-0.4-4.9-1.1c-1.8-0.7-3.6-1.8-5.2-3.3
				c-1.6-1.5-3-3.3-4.1-5.5c-1.1-2.2-1.7-4.7-1.7-7.7c0-4.3,1.3-8.9,3.8-13.9c2.5-5,6-10,10.5-15c4.5-5,9.8-9.9,16-14.5
				c6.2-4.7,13-8.8,20.4-12.4c7.4-3.6,15.3-6.4,23.6-8.6C383.8,311.9,392.3,310.9,401,310.9z"/>
			<path class="st2" d="M510,379.2c0.3-0.5,0.8-0.8,1.7-0.8c0.8,0,1.7,0.1,2.5,0.4c0.8,0.3,1.5,0.8,2.1,1.4c0.5,0.6,0.7,1.2,0.4,1.7
				c-2.4,4.4-4.8,8.3-7.3,11.8c-1.1,1.4-2.2,2.9-3.4,4.3c-1.2,1.4-2.4,2.7-3.7,3.7c-1.3,1.1-2.5,2-3.8,2.7c-1.3,0.7-2.6,1-3.8,1
				c-2.5,0-4.9-0.9-7-2.6c-1,2.3-2.3,4.9-3.9,7.9c-1.6,2.9-3.3,5.7-5.3,8.3c-1.9,2.6-3.9,4.9-6.1,6.7c-2.1,1.8-4.3,2.7-6.4,2.7
				c-1.9,0-3.7-0.3-5.4-1c-1.7-0.7-3.3-1.5-4.8-2.5c-1.5-1-2.8-2.2-4-3.5c-1.2-1.3-2.1-2.7-2.8-4.2c-2.1,3.1-4.3,5.7-6.6,7.9
				c-2.3,2.2-4.7,3.3-7.2,3.3c-2.6,0-5-0.6-7.3-1.7c-2.3-1.2-4.2-2.6-5.9-4.4c-1.7-1.8-3-3.7-4-5.8c-1-2.1-1.5-4-1.5-5.9
				c0-2,0.3-4,0.8-6.1c0.5-2.1,1.3-4.3,2.2-6.4c0.9-2.1,1.9-4.3,3-6.4c1.1-2.2,2.2-4.3,3.3-6.4c1.9-3.5,3.6-6.9,5-10
				c1.5-3.1,2.2-5.8,2.2-7.9c0-1.2,0.8-1.8,2.4-1.8c1.6-0.1,3.4,0.3,5.3,1.2c2,0.9,3.7,2.1,5.3,3.7c1.6,1.6,2.4,3.5,2.4,5.7
				c0,1.4-0.6,3.5-1.7,6.2c-1.2,2.8-2.6,5.9-4.2,9.5v-0.1c-1.1,2.3-2.2,4.7-3.3,7.1c-1.1,2.4-2.1,4.8-3,7.1
				c-0.9,2.3-1.6,4.5-2.2,6.6c-0.6,2.1-0.9,3.8-0.9,5.4c0,1,0.2,1.8,0.6,2.4c0.4,0.6,1.1,0.9,2.1,0.9c0.8,0,1.7-0.5,2.8-1.6
				c1-1.1,2.1-2.4,3.3-4.1c1.2-1.6,2.3-3.4,3.4-5.4c1.1-2,2.1-3.9,3-5.8c1.2-3.5,2.7-6.8,4.4-9.8v0.1c1.2-2.3,2.3-4.6,3.4-6.9
				c1-2.3,1.5-4.6,1.5-6.9c0-1.2,0.8-1.8,2.4-1.8c1.6-0.1,3.4,0.3,5.3,1.2c1.9,0.9,3.7,2.1,5.3,3.8c1.6,1.7,2.4,3.6,2.4,5.7
				c0,1.4-0.5,3.2-1.4,5.4c-0.9,2.2-2,4.5-3.1,7c-0.7,1.4-1.3,2.9-2,4.4c-0.7,1.5-1.3,2.9-1.8,4.3c-0.5,1.4-1,2.7-1.4,4
				c-0.4,1.3-0.5,2.4-0.5,3.3c0,1,0.3,1.8,0.8,2.3c0.5,0.5,1.5,0.8,2.9,0.8c0.8,0,1.7-0.5,2.7-1.4c1-0.9,2.1-2.2,3.1-3.7
				c1.1-1.5,2.1-3.2,3.2-5c1-1.8,2-3.7,2.9-5.5c0.9-1.8,1.7-3.5,2.4-5c0.7-1.6,1.3-2.8,1.6-3.7c-0.4-0.8-0.7-1.7-0.9-2.7
				c-0.3-1-0.4-1.9-0.4-2.7c0-1.7,0.4-3.5,1.1-5.3c0.7-1.8,1.6-3.6,2.5-5.5c1-2.1,2-4.2,2.9-6.4c0.9-2.2,1.4-4.4,1.4-6.7
				c0-1.2,0.8-1.8,2.4-1.8c1.6-0.1,3.4,0.3,5.3,1.2c2,0.9,3.7,2.1,5.3,3.7c1.6,1.6,2.4,3.5,2.4,5.7c0,1.8-0.6,4-1.7,6.5
				c-1.2,2.5-2.3,5-3.6,7.4c-0.6,1.1-1.1,2.2-1.7,3.2c-0.5,1-1,2-1.4,2.8c-0.4,0.8-0.7,1.4-0.9,1.9c-0.2,0.5-0.3,0.7-0.2,0.7
				c0.7,0,1.4-0.3,2.2-0.8c0.8-0.5,1.6-1.3,2.4-2.2c0.8-0.9,1.7-1.9,2.5-3.1c0.8-1.2,1.6-2.3,2.4-3.6
				C506.4,386,508.2,382.8,510,379.2z"/>
			<path class="st2" d="M567.7,379.3c0.7-1.3,1.6-2.1,2.6-2.5c1-0.4,1.9-0.4,2.7-0.1c0.8,0.3,1.4,1,1.7,1.9c0.4,0.9,0.2,2.1-0.4,3.5
				c-0.7,1.4-1.8,3.6-3.1,6.4c-1.4,2.9-3,6-4.8,9.5c-1.8,3.5-3.9,7-6.1,10.6c-2.2,3.6-4.6,6.8-7,9.8c-2.4,3-4.9,5.4-7.4,7.3
				c-2.5,1.9-4.9,2.8-7.2,2.8c-3.5,0-6.5-1.3-8.8-4c-2.3-2.6-3.5-6.2-3.5-10.7c0-1.5,0.3-3.4,0.9-5.6c0.6-2.2,1.4-4.6,2.4-7.2
				c1-2.6,2.1-5.3,3.4-8.1c1.3-2.8,2.5-5.6,3.7-8.2c-2.4,2.8-4.9,5.8-7.5,9c-2.6,3.2-5.1,6.3-7.5,9.4c-2.3,3.1-4.4,6-6.2,8.7
				c-1.8,2.7-3.1,5-4,6.8c-0.1,0.4-0.1,0.7-0.2,1c0,0.3-0.1,0.5-0.1,0.7l0.2,0.9c0.1,0.2,0.1,0.5,0.1,0.8c0,0.3,0,0.5,0.1,0.8v-0.1
				c0.2,0.9,0.4,1.7,0.5,2.4c0.1,0.7,0.1,1.4,0,1.9c-0.1,0.5-0.5,1-1.1,1.3c-0.6,0.3-1.4,0.5-2.6,0.5c-1.4,0-2.8-0.3-4.2-1
				c-1.4-0.7-2.8-1.7-4-2.9c-1.2-1.3-2.2-2.8-3-4.5c-0.8-1.7-1.2-3.7-1.2-5.9c0-2,0.3-4,0.9-6.2c0.6-2.2,1.3-4.5,2.3-6.8
				c0.9-2.3,2-4.7,3.2-7.1c1.2-2.4,2.4-4.8,3.6-7.2c2-4,3.8-7.7,5.4-11.1c1.6-3.4,2.4-6.2,2.4-8.4c0-1.2,0.8-1.8,2.4-1.8
				c1.6-0.1,3.4,0.3,5.3,1.2c2,0.9,3.7,2.1,5.3,3.7c1.6,1.6,2.4,3.5,2.4,5.7c0,1-0.3,2.3-0.8,3.8c-0.5,1.5-1.2,3.2-2.1,5.1
				c2.2-2.7,4.5-5.3,6.7-7.8c2.2-2.5,4.3-4.8,6.2-6.8c1.9-2,3.6-3.6,5-4.8c1.4-1.2,2.5-1.8,3.1-1.8c0.1,0,0.4,0,0.7,0
				c0.3,0,0.6,0.1,0.9,0.2c0.9,0.3,1.8,0.8,2.9,1.6c1.1,0.8,2.1,1.7,3,2.7c0.9,1,1.7,2.2,2.3,3.5c0.6,1.3,0.9,2.5,0.9,3.8
				c0,1-0.6,2.8-1.8,5.5c-1.2,2.6-2.6,5.7-4.3,9.2c-1.2,2.5-2.5,5.2-3.8,8c-1.3,2.8-2.5,5.5-3.6,8c-1.1,2.6-2,4.9-2.7,7.2
				c-0.7,2.2-1.1,4-1.1,5.3c0,0.6,0.1,0.9,0.2,0.9c1.1,0,2.4-0.8,3.9-2.3c1.5-1.5,3.2-3.5,4.9-6c1.8-2.5,3.6-5.2,5.4-8.2
				c1.8-3,3.5-6,5.1-8.9c1.6-3,3-5.7,4.3-8.3c1.3-2.6,2.2-4.6,2.9-6.2V379.3z"/>
		</g>
	</g>
</g>
<g>
	<g>
		<path class="st2" d="M587,368.3c0-2,0.7-3.7,2.1-5.2c1.4-1.4,3.2-2.1,5.2-2.1c2,0,3.7,0.7,5.2,2.1c1.4,1.4,2.1,3.2,2.1,5.2
			c0,2-0.7,3.7-2.1,5.2c-1.4,1.4-3.2,2.1-5.2,2.1c-2,0-3.7-0.7-5.2-2.1C587.7,372,587,370.3,587,368.3z M588,381.1h12.6V422H588
			V381.1z"/>
		<path class="st2" d="M637.5,391.2h-11.1v13.6c0,1.1,0.1,2.1,0.2,3.1c0.1,0.9,0.4,1.7,0.8,2.4c0.4,0.7,1,1.2,1.8,1.6
			c0.8,0.4,1.9,0.5,3.2,0.5c0.7,0,1.6-0.1,2.6-0.2c1.1-0.1,1.9-0.5,2.5-1v10.5c-1.4,0.5-2.9,0.8-4.4,1s-3,0.3-4.5,0.3
			c-2.1,0-4.1-0.2-5.9-0.7c-1.8-0.4-3.4-1.2-4.7-2.1c-1.3-1-2.4-2.3-3.2-3.8c-0.8-1.6-1.1-3.5-1.1-5.7v-19.4h-8.1v-10.1h8.1V369
			h12.6v12.1h11.1V391.2z"/>
	</g>
</g>
<g>
	<g>
		<path class="st0" d="M421.4,251.7c0.3-0.5,0.7-0.8,1.4-0.8c0.7,0,1.4,0.1,2.1,0.4c0.7,0.3,1.3,0.7,1.8,1.1c0.5,0.5,0.6,1,0.4,1.5
			c-0.6,1.1-1.4,2.8-2.5,4.9c-1.1,2.1-2.4,4.5-4,7.2c-1.6,2.7-3.4,5.4-5.5,8.3c-2.1,2.9-4.4,5.6-6.9,8.2c-2.6,2.6-5.3,4.9-8.2,6.9
			c-2.9,2-6.1,3.6-9.4,4.6c-2.2,0.5-4.2,0.8-6,0.8H384c-3.1,0-5.4-0.7-7.1-2.2c-1.7-1.5-2.8-3.1-3.4-4.9c-0.6-1.8-0.9-3.4-0.7-4.9
			c0.2-1.5,0.5-2.2,1-2.2c1,0,1.7,0.3,2.1,0.9c0.4,0.6,0.7,1.3,1,2.1c0.1,0.4,0.3,0.8,0.5,1.1c0.2,0.4,0.4,0.8,0.8,1.1
			c0.3,0.4,0.7,0.6,1.2,0.9c0.5,0.2,1.2,0.3,2,0.3c1,0,2.1-0.4,3.3-1.1c1.1-0.7,2.2-1.7,3.2-3c1-1.3,1.8-2.8,2.4-4.5
			c0.6-1.7,1-3.6,1-5.6c0-1.9-0.4-3.6-1.1-5.2c-0.8-1.6-1.6-3.2-2.5-4.9l0.1,0.1l-1.7-3.1c-0.3,0.7-0.7,1.5-1.1,2.3
			c-0.4,0.9-1.1,2-2,3.5c-0.3,0.5-0.7,0.7-1.4,0.6c-0.7-0.1-1.4-0.3-2.1-0.7c-0.7-0.4-1.2-0.8-1.7-1.3c-0.4-0.5-0.5-1-0.3-1.4
			c0.8-1.4,1.4-2.6,2-3.6c0.6-1,1.1-1.9,1.4-2.7c0.4-0.8,0.7-1.5,1-2.1c0.3-0.6,0.5-1.2,0.8-1.8l-0.1,0.1l0.8-1.6
			c-0.2-1.1-0.3-2.2-0.3-3.1c0-2.8,0.5-5.4,1.6-7.7c1.1-2.3,2.3-4.3,3.9-6c1.5-1.7,3.1-2.9,4.8-3.8c1.7-0.9,3.1-1.3,4.3-1.3
			c0.6,0,1.5,0.1,2.5,0.2c1,0.1,2,0.4,3,0.8c1,0.4,1.8,1,2.4,1.8c0.7,0.8,1,1.8,1,3.1c0,1.1-0.3,2.1-1,2.9c-0.6,0.9-1.4,1.7-2.3,2.6
			c-1,1-2,2.1-3,3.4c-1,1.3-1.5,3-1.5,4.9c0,2.2,0.4,4.2,1.2,6c0.8,1.8,1.6,3.6,2.5,5.4v-0.1c1.1,1.9,2,3.8,2.8,5.8
			c0.8,2,1.2,4.3,1.2,6.9c0,0.5,0,1.1,0,1.7c0,0.6,0,1.2,0,1.7c1.8-2,3.4-4.1,4.9-6.3c1.5-2.2,2.8-4.3,4-6.4c1.2-2.1,2.2-4,3.2-5.8
			c0.9-1.8,1.7-3.3,2.3-4.5L421.4,251.7L421.4,251.7z"/>
		<path class="st0" d="M410.8,276.1c0-2.7,0.5-5.6,1.4-8.6c0.9-3,2.2-5.9,3.8-8.8s3.6-5.6,5.8-8.2c2.2-2.6,4.6-4.9,7.2-6.8
			c2.6-1.9,5.3-3.5,8.1-4.6c2.8-1.1,5.6-1.7,8.4-1.7c2.4,0,4.5,0.3,6.2,1c1.7,0.7,3.1,1.5,4.2,2.6c1.1,1.1,1.9,2.2,2.5,3.5
			c0.6,1.3,1,2.5,1.2,3.7c0.2,1.2,0.3,2.3,0.2,3.2c-0.1,1-0.2,1.6-0.4,2h0.1c-0.2,0.5-0.6,0.8-1.2,0.7c-0.6,0-1.2-0.2-1.8-0.4
			c-0.6-0.2-1.1-0.5-1.6-0.9c-0.5-0.4-0.7-0.6-0.6-0.8c0.1-0.1,0.1-0.5,0-1.1c0-0.6-0.2-1.2-0.6-1.8c-0.4-0.6-0.9-1.1-1.7-1.6
			c-0.8-0.5-1.9-0.7-3.4-0.7c-1.5,0-3.2,0.7-4.9,2c-1.8,1.3-3.5,3.1-5.2,5.2c-1.7,2.1-3.4,4.6-5,7.3c-1.6,2.7-3,5.5-4.2,8.2
			c-1.2,2.8-2.1,5.5-2.9,8c-0.7,2.6-1.1,4.8-1.1,6.7c0,2.3,0.7,3.4,2,3.4c1.6,0,3.2-0.7,4.9-2.1c1.7-1.4,3.3-3.2,4.8-5.4
			c1.6-2.2,3-4.6,4.4-7.2c1.3-2.6,2.5-5.1,3.5-7.5c1-2.4,1.8-4.4,2.4-6.2c0.6-1.8,0.9-3,0.9-3.5s0.3-0.9,1-1.1
			c0.6-0.1,1.4-0.1,2.4,0.2c1,0.3,2,0.6,3.1,1.1c1.1,0.5,2.2,1,3.1,1.6c1,0.6,1.7,1.2,2.4,1.9c0.6,0.7,1,1.3,1,1.8
			c0,0.7-0.3,1.9-1,3.4c-0.7,1.6-1.5,3.4-2.3,5.5c-0.6,1.4-1.3,2.9-2,4.4c-0.7,1.5-1.3,3-1.8,4.5c-0.5,1.5-1,2.8-1.3,4.1
			c-0.4,1.3-0.5,2.3-0.5,3.2c0,0.3,0,0.5-0.1,0.5c0.9,0,2-0.7,3.4-2.3c1.4-1.5,2.9-3.4,4.4-5.7c1.6-2.3,3.2-4.9,4.8-7.7
			c1.6-2.8,3.2-5.5,4.6-8.2c1.4-2.6,2.7-5,3.8-7.2c1.1-2.1,1.9-3.7,2.4-4.7c0.3-0.5,0.8-0.8,1.5-0.8c0.7,0,1.5,0.1,2.2,0.4
			c0.7,0.3,1.3,0.7,1.8,1.2c0.5,0.5,0.6,1,0.4,1.5c-0.6,1.3-1.5,3.2-2.8,5.7c-1.3,2.6-2.8,5.4-4.6,8.4c-1.7,3.1-3.6,6.2-5.6,9.4
			c-2,3.2-4.1,6.1-6.1,8.8c-2.1,2.6-4.1,4.8-6.1,6.5c-2,1.7-3.8,2.5-5.5,2.5c-1.9,0-3.5-0.5-4.8-1.4c-1.4-0.9-2.5-1.9-3.5-3
			c-1.1-1.3-2.1-2.8-2.9-4.5c-0.8,0.9-1.7,1.9-2.7,2.9c-1,1-2.1,2-3.3,2.9c-1.2,0.9-2.4,1.6-3.7,2.3c-1.3,0.6-2.6,0.9-3.9,0.9
			c-2.5,0-4.7-0.6-6.6-1.7c-1.9-1.1-3.5-2.6-4.7-4.4c-1.3-1.8-2.3-3.8-2.9-6.1C411.1,280.6,410.8,278.4,410.8,276.1z"/>
		<path class="st0" d="M530.4,251.4c0.6-1.1,1.4-1.9,2.3-2.3c0.9-0.4,1.7-0.4,2.4-0.1c0.7,0.3,1.2,0.8,1.5,1.7
			c0.3,0.9,0.2,1.9-0.3,3.1c-1.1,2.6-2.8,5.3-5,8.1c-2.2,2.8-4.7,5.7-7.6,8.5c-2.9,2.9-6,5.7-9.4,8.6c-3.4,2.9-6.9,5.7-10.6,8.6
			c-2.8,5.7-5.8,11.4-9.1,17.1c-3.2,5.7-6.5,10.7-9.7,15.2s-6.5,8.1-9.6,10.9c-3.2,2.8-6.1,4.2-8.8,4.2c-2.9,0-5.3-0.4-7.2-1.1
			c-1.9-0.7-3.4-1.6-4.6-2.7c-1.1-1.1-1.9-2.3-2.3-3.5c-0.4-1.2-0.7-2.3-0.7-3.3c0-1.9,0.8-3.9,2.4-6c1.6-2.2,3.8-4.5,6.7-6.9
			c2.8-2.5,6.1-5.1,9.7-7.8c3.7-2.7,7.6-5.6,11.7-8.5c0.8-1.5,1.4-2.6,1.9-3.4c0.5-0.8,0.9-1.4,1.1-1.9c0.3-0.5,0.5-0.9,0.7-1.2
			c0.2-0.4,0.4-0.8,0.7-1.2c0.3-0.5,0.6-1.1,0.9-2c0.4-0.8,0.8-2,1.5-3.4c-1.5,1.8-2.9,3.5-4.4,5c-1.4,1.6-2.8,2.9-4.1,4.1
			c-1.3,1.2-2.5,2.1-3.6,2.8c-1.1,0.7-2.1,1.1-2.8,1.1c-1.5,0-2.9-0.5-4.2-1.4c-1.3-0.9-2.5-2.1-3.5-3.4c-1-1.3-1.8-2.8-2.4-4.3
			c-0.6-1.5-0.9-2.9-0.9-4.1c0-1.7,0.3-3.6,0.8-5.5c0.5-1.9,1.2-4,2.1-6c0.9-2.1,1.8-4.2,2.9-6.3c1.1-2.1,2.1-4.2,3.2-6.2
			c0.8-1.7,1.7-3.3,2.5-4.9c0.8-1.6,1.6-3.2,2.2-4.6c0.6-1.5,1.1-2.8,1.5-4.1c0.4-1.3,0.6-2.4,0.6-3.3c0-1,0.7-1.4,2.1-1.4
			c1.4,0,3,0.4,4.7,1.1c1.7,0.7,3.3,1.7,4.7,3.1c1.4,1.4,2.1,3,2.1,4.9c0,0.8-0.2,1.9-0.7,3.3c-0.5,1.4-1.1,2.9-1.9,4.6
			c-0.8,1.7-1.7,3.6-2.7,5.6c-1,2-2.1,4.1-3.2,6.2c-1.3,2.5-2.5,4.9-3.8,7.3c-1.2,2.4-2.3,4.6-3.3,6.5c-1,1.9-1.7,3.5-2.3,4.6
			c-0.5,1.2-0.7,1.8-0.5,1.8c0.4,0,1.3-0.6,2.5-1.9c1.2-1.2,2.6-2.9,4.3-4.8c1.6-2,3.4-4.2,5.3-6.7c1.9-2.5,3.7-5,5.6-7.5
			c1.8-2.5,3.5-4.9,5.1-7.1c1.6-2.2,2.9-4.1,3.9-5.7c1.3-3.4,2.3-6.1,3.1-8.1c0.8-2,1.2-3.2,1.2-3.4c0-2,0.4-3.4,1.1-4.3
			c0.7-0.9,1.7-1.3,3-1.3c0.9,0,1.9,0.4,3,1.1c1.1,0.7,2.2,1.6,3.2,2.7c1,1.1,1.8,2.3,2.5,3.6c0.7,1.3,1,2.5,1,3.7
			c0,0.7-0.2,1.9-0.7,3.5c-0.5,1.7-1.1,3.7-2,6c-0.8,2.3-1.8,4.9-2.9,7.8c-1.1,2.8-2.3,5.7-3.6,8.7c4.8-3.9,8.9-7.7,12.5-11.4
			C525.5,259.4,528.3,255.5,530.4,251.4L530.4,251.4z M457.6,327.1c1.7,0,3.5-0.7,5.4-2c1.9-1.3,3.8-3.1,5.8-5.3
			c2-2.2,4-4.8,5.9-7.8c2-3,3.9-6.1,5.8-9.4c-3.4,2.6-6.6,5-9.5,7.3c-3,2.3-5.6,4.4-7.8,6.4c-2.2,1.9-3.9,3.7-5.2,5.3
			c-1.3,1.6-1.9,2.9-1.9,4C456.1,326.6,456.6,327.1,457.6,327.1z"/>
	</g>
</g>
<g>
	<g>
		<g>
			<path class="st0" d="M584.4,254c0.2-0.4,0.7-0.6,1.3-0.6c0.7,0,1.3,0.1,2,0.4c0.7,0.3,1.2,0.6,1.7,1.1c0.4,0.5,0.6,1,0.4,1.4
				c-0.6,1.3-1.5,3.2-2.8,5.6c-1.3,2.4-2.8,5-4.5,7.8c-1.7,2.8-3.6,5.7-5.7,8.7c-2.1,3-4.2,5.7-6.5,8.1c-2.2,2.4-4.5,4.4-6.9,5.9
				c-2.3,1.5-4.6,2.3-6.9,2.3c-3,0-5.4-1.1-7.3-3.2c-1.9-2.2-2.8-5.1-2.8-8.8c0-1.3,0.3-3,0.9-5c0.6-2,1.4-4.2,2.3-6.5
				c1-2.3,2-4.8,3.2-7.3c1.2-2.5,2.3-4.9,3.3-7.3c1.4-3,2.6-5.7,3.6-7.9c1-2.3,1.5-3.7,1.5-4.4c0-0.9,0.6-1.4,1.8-1.3
				c1.2,0.1,2.5,0.5,3.9,1.3c1.4,0.8,2.7,1.8,3.9,3c1.2,1.2,1.8,2.5,1.8,3.8c0,0.4-0.1,1-0.4,1.8c-0.3,0.8-0.7,1.8-1.2,2.9
				c-0.5,1.1-1,2.3-1.6,3.6c-0.6,1.3-1.2,2.5-1.8,3.8c-0.9,2-2,4.2-3.1,6.5c-1.1,2.3-2.1,4.5-3,6.7c-0.9,2.1-1.7,4.1-2.3,5.9
				c-0.6,1.8-0.9,3.2-0.9,4.2c0,0.5,0.1,0.8,0.3,0.8c1.3,0,2.8-0.7,4.4-2.1c1.6-1.4,3.3-3.2,5.1-5.3c1.7-2.1,3.5-4.5,5.2-7.1
				c1.7-2.6,3.3-5.1,4.8-7.6c1.5-2.5,2.7-4.7,3.8-6.7C583.1,256.5,583.9,255.1,584.4,254L584.4,254z M569.5,237.1
				c-1.1,0-1.9-0.4-2.4-1.2c-0.5-0.8-0.8-1.8-0.8-3.1c0-1.1,0.2-2.4,0.6-3.9c0.4-1.5,1-2.8,1.6-4.1c0.7-1.3,1.5-2.4,2.3-3.3
				c0.9-0.9,1.7-1.3,2.6-1.3c1.1,0,2.2,0.2,3.2,0.5c1,0.3,2,0.8,2.8,1.4c0.8,0.6,1.4,1.4,1.9,2.3c0.5,0.9,0.7,2,0.7,3.2
				c0,1.1-0.3,2.2-0.9,3.3c-0.6,1.1-1.5,2.2-2.6,3.1c-1.1,0.9-2.5,1.7-4.1,2.3C573,236.8,571.3,237.1,569.5,237.1z"/>
			<path class="st0" d="M629.3,235.3c0,0.5-0.5,1.2-1.5,2c-1,0.9-2.5,1.8-4.5,2.6c-2,0.9-4.7,1.6-7.9,2.3c-3.2,0.7-7,1-11.4,1
				c-0.5,1.2-1.1,2.4-1.6,3.6c-0.6,1.2-1.1,2.4-1.7,3.6c-1.6,3.4-3.2,6.8-4.8,10.3c-1.6,3.5-3,6.8-4.3,9.8c-1.3,3.1-2.3,5.9-3.1,8.5
				c-0.8,2.6-1.2,4.6-1.2,6.2c0,1.4,0.4,2.1,1.3,2.1c1.7,0,3.5-0.7,5.4-2c1.9-1.4,3.9-3.1,5.8-5.3c2-2.1,3.9-4.5,5.8-7.1
				c1.9-2.6,3.7-5.1,5.3-7.5c1.6-2.4,2.9-4.6,4-6.6c1.1-2,1.9-3.5,2.4-4.4c0.2-0.4,0.7-0.6,1.3-0.6c0.7,0,1.3,0.1,2,0.4
				c0.7,0.3,1.2,0.6,1.7,1.1c0.4,0.4,0.6,0.9,0.4,1.4c-0.6,1.2-1.5,3-2.8,5.3c-1.3,2.3-2.8,4.9-4.7,7.8c-1.8,2.8-3.9,5.7-6.1,8.7
				c-2.3,2.9-4.6,5.6-7.1,8.1c-2.5,2.4-5.1,4.4-7.7,6c-2.6,1.5-5.3,2.3-7.9,2.3c-1.1,0-2.3-0.3-3.7-0.9c-1.4-0.6-2.7-1.5-4-2.7
				c-1.2-1.2-2.3-2.6-3.1-4.4c-0.8-1.7-1.2-3.7-1.2-6c0-1.3,0.4-3.2,1.2-5.6c0.8-2.4,1.8-5.1,3.1-8.2c1.3-3.1,2.7-6.4,4.4-9.9
				c1.6-3.5,3.3-7.1,4.9-10.6l1.9-4c-2.6-0.4-4.9-0.9-7-1.6c-2-0.6-3.8-1.3-5.2-1.9c-1.4-0.7-2.5-1.3-3.2-1.9
				c-0.7-0.6-1.1-1.1-1.1-1.5c0-0.8,0.1-1.4,0.4-1.8c0.3-0.4,0.7-0.6,1.2-0.7c0.5-0.1,1.2,0,2,0.1c0.8,0.2,1.8,0.4,3,0.6
				c1.4,0.3,3.1,0.6,5.3,1c2.1,0.4,4.7,0.7,7.6,1c2.1-4.6,3.9-8.7,5.3-12.3c1.4-3.6,2.1-6.1,2.1-7.6c0-0.9,0.6-1.4,1.8-1.2
				c1.2,0.1,2.5,0.6,4,1.3c1.5,0.8,2.8,1.8,4,3c1.2,1.2,1.8,2.5,1.8,3.7c0,1.4-0.4,3.2-1.2,5.6c-0.8,2.3-1.9,5-3.2,8.1
				c3.5-0.1,6.6-0.4,9.4-0.9c2.8-0.5,5-0.9,6.7-1.4l-0.1,0.1c1.9-0.5,3.4-0.7,4.5-0.6C628.8,233.6,629.3,234.2,629.3,235.3z"/>
			<path class="st0" d="M621.5,289c0-1.5,0.4-2.7,1.2-3.3c0.8-0.7,1.7-1,2.8-1c0.8,0,1.7,0.2,2.7,0.7c1,0.4,1.9,1,2.7,1.7
				c0.8,0.7,1.5,1.4,2.1,2.2c0.6,0.8,0.8,1.5,0.8,2.1c0,2.1-0.7,4.2-2,6.3c-1.4,2.1-3,3.9-4.9,5.5c-1.9,1.6-3.9,2.9-6.1,3.9
				c-2.1,1-3.9,1.5-5.4,1.5c-1.4,0-2.5-0.3-3.3-1c-0.8-0.7-1.2-1.8-1.2-3.3c0-0.7,0.3-1.2,0.8-1.8c0.5-0.5,1.2-1.1,2-1.8
				c0.7-0.5,1.5-1.2,2.4-2c0.9-0.8,1.8-1.6,2.5-2.6c0.8-1,1.4-2.1,2-3.2C621.2,291.7,621.5,290.4,621.5,289z"/>
		</g>
	</g>
</g>
<g>
	<g>
		<path class="st2" d="M523.6,345.1c-0.6,1.6-1.2,3-1.8,4.3c-0.6,1.2-1.3,2.3-2.2,3.1c-0.9,0.8-2,1.5-3.4,1.9
			c-1.4,0.4-3.1,0.6-5.4,0.6c-2.4,0-4.7-0.4-6.9-1.1l1.2-7.6c1.4,0.6,2.8,0.9,4.3,0.9c1,0,1.9-0.1,2.5-0.3c0.7-0.2,1.2-0.6,1.6-1
			c0.4-0.4,0.8-1,1.1-1.6c0.3-0.6,0.6-1.3,0.9-2.2l0.7-1.7l-13.1-30.2h10l7.7,19.8h0.1l6.6-19.8h9.5L523.6,345.1z"/>
		<path class="st2" d="M539.5,325.2c0-2.4,0.4-4.5,1.3-6.5c0.9-1.9,2-3.6,3.5-5c1.5-1.4,3.3-2.4,5.3-3.2c2-0.7,4.2-1.1,6.5-1.1
			s4.5,0.4,6.5,1.1c2,0.7,3.8,1.8,5.3,3.2c1.5,1.4,2.7,3,3.5,5c0.9,1.9,1.3,4.1,1.3,6.5c0,2.4-0.4,4.5-1.3,6.5c-0.9,1.9-2,3.6-3.5,5
			c-1.5,1.4-3.3,2.4-5.3,3.2c-2,0.7-4.2,1.1-6.5,1.1s-4.5-0.4-6.5-1.1c-2-0.7-3.8-1.8-5.3-3.2c-1.5-1.4-2.7-3-3.5-5
			C539.9,329.8,539.5,327.6,539.5,325.2z M548.7,325.2c0,2.3,0.6,4.1,1.9,5.5c1.3,1.4,3.1,2.1,5.5,2.1s4.2-0.7,5.5-2.1
			c1.3-1.4,1.9-3.2,1.9-5.5c0-2.3-0.6-4.1-1.9-5.5c-1.3-1.4-3.1-2.1-5.5-2.1s-4.2,0.7-5.5,2.1C549.4,321.1,548.7,323,548.7,325.2z"
			/>
		<path class="st2" d="M607.1,340.2h-8.9v-4.1h-0.1c-0.3,0.6-0.8,1.2-1.3,1.7c-0.5,0.6-1.1,1.1-1.9,1.5c-0.7,0.5-1.6,0.8-2.5,1.1
			c-0.9,0.3-2,0.4-3.1,0.4c-2.3,0-4.2-0.4-5.7-1.1c-1.5-0.7-2.6-1.7-3.4-3c-0.8-1.3-1.3-2.8-1.6-4.5c-0.3-1.7-0.4-3.6-0.4-5.6v-16.5
			h9.3v14.7c0,0.9,0,1.8,0.1,2.7c0.1,0.9,0.2,1.8,0.6,2.6c0.3,0.8,0.8,1.4,1.4,1.9c0.6,0.5,1.6,0.7,2.7,0.7c1.2,0,2.2-0.2,2.9-0.6
			c0.7-0.4,1.3-1,1.7-1.7c0.4-0.7,0.6-1.5,0.8-2.4c0.1-0.9,0.2-1.9,0.2-2.8v-14.9h9.3V340.2z"/>
	</g>
</g>
</svg>
