<?xml version="1.0" encoding="UTF-8"?>
<svg width="472px" height="422px" viewBox="0 0 472 422" version="1.1" xmlns="http://www.w3.org/2000/svg" xmlns:xlink="http://www.w3.org/1999/xlink">
    <g id="Logo" stroke="none" stroke-width="1" fill="none" fill-rule="evenodd">
        <g id="MOTTO_extension_nav_Plan-de-travail-1-copie-16" fill="#FFFFFF" fill-rule="nonzero">
            <g id="Group" transform="translate(27.200000, 0.000000)">
                <path d="M144.6,0 C150.9,0 156.7,0.8 162.1,2.4 C167.5,4 172.2,6.5 176.2,9.8 C180.2,13.1 183.3,17.3 185.6,22.4 C187.9,27.5 189,33.5 189,40.6 C189,45.3 187.7,50.7 185,56.9 C183.854223,59.4886064 182.564381,62.1132293 181.130471,64.7738689 C181.316095,64.8153271 181.506897,64.8570881 181.7,64.9 C183.8,65.4 186.6,65.9 189.9,66.5 C193.2,67.1 197.2,67.6 201.8,68.1 C205.1,60.8 207.9,54.4 210.1,48.8 C212.3,43.2 213.4,39.2 213.4,36.9 C213.4,35.4 214.3,34.8 216.2,34.9 C218.1,35.1 220.1,35.8 222.4,37 C224.7,38.2 226.7,39.8 228.6,41.7 C230.5,43.7 231.4,45.6 231.4,47.6 C231.4,49.7 230.8,52.6 229.5,56.3 C228.2,60 226.5,64.2 224.4,68.9 C229.9,68.7 234.8,68.3 239.1,67.5 C243.4,66.8 246.9,66 249.6,65.3 L249.5,65.4 C252.5,64.7 254.8,64.4 256.5,64.5 C258.5,64.8 259.4,65.7 259.4,67.5 C259.4,68.2 258.6,69.3 257.1,70.7 C255.6,72.1 253.2,73.5 250,74.8 C246.8,76.1 242.7,77.3 237.7,78.4 C232.7,79.4 226.7,79.9 219.8,79.9 C219,81.8 218.1,83.6 217.2,85.5 C216.3,87.4 215.4,89.2 214.5,91.1 C212,96.4 209.5,101.8 207,107.2 C204.5,112.6 202.2,117.8 200.2,122.6 C198.2,127.4 196.6,131.9 195.3,135.8 C194,139.8 193.4,143.1 193.4,145.6 C193.4,147.8 194.1,148.9 195.5,148.9 C198.1,148.9 200.9,147.8 203.9,145.7 C206.9,143.6 210,140.8 213,137.5 C216.1,134.2 219.1,130.5 222.1,126.4 C224.421981,123.304025 226.62415,120.20805 228.61377,117.204809 C229.803591,114.009122 231.31323,110.826848 233.1,107.7 C235.5,103.5 238.3,99.5 241.5,95.8 C244.8,92 248.3,88.7 252,85.9 C255.8,83.1 259.7,80.8 263.8,79.1 C267.9,77.4 272,76.6 276.1,76.6 C279.6,76.6 282.6,77.1 285.1,78.1 C287.6,79.1 289.6,80.3 291.2,81.9 C292.8,83.4 294,85.1 294.8,87 C295.6,88.9 296.2,90.7 296.5,92.4 C296.8,94.1 296.9,95.7 296.8,97.1 C296.7,98.5 296.5,99.5 296.2,100 L296.3,100 C296,100.7 295.4,101.1 294.6,101 C293.7,101 292.8,100.8 292,100.4 C291.1,100.1 290.3,99.7 289.6,99.1 C288.9,98.6 288.6,98.2 288.7,97.9 C288.8,97.7 288.8,97.2 288.8,96.4 C288.8,95.6 288.5,94.7 288,93.8 C287.5,92.9 286.7,92.1 285.5,91.4 C284.3,90.7 282.7,90.4 280.5,90.4 C278.3,90.4 275.9,91.4 273.3,93.3 C270.7,95.3 268.2,97.8 265.7,100.9 C263.2,104 260.8,107.5 258.4,111.5 C256.1,115.5 254.1,119.5 252.3,123.5 C250.6,127.5 249.2,131.4 248.1,135.2 C247,139 246.5,142.2 246.5,144.9 C246.5,148.2 247.5,149.9 249.4,149.9 C251.7,149.9 254.1,148.9 256.5,146.8 C258.9,144.8 261.3,142.2 263.5,139 C265.8,135.8 267.9,132.4 269.8,128.5 C271.8,124.7 273.5,121.1 275,117.6 C276.5,114.2 277.6,111.1 278.5,108.5 C279.3,105.9 279.8,104.2 279.8,103.3 C279.8,102.5 280.3,102 281.2,101.8 C282.1,101.6 283.3,101.7 284.7,102.1 C286.1,102.5 287.6,103 289.3,103.7 C291,104.4 292.5,105.2 293.9,106.1 C295.3,107 296.4,107.9 297.4,108.9 C298.3,109.9 298.8,110.7 298.8,111.5 C298.8,112.5 298.3,114.2 297.3,116.5 C296.3,118.8 295.2,121.5 293.9,124.4 C293,126.4 292,128.6 291,130.8 C290,133 289.1,135.2 288.4,137.4 C287.6,139.5 287,141.5 286.5,143.4 C286,145.3 285.7,146.8 285.7,148 C285.7,148.5 285.7,148.7 285.6,148.7 C286.9,148.7 288.5,147.6 290.5,145.4 C292.5,143.2 294.7,140.4 297,137 C299.3,133.6 301.7,129.9 304,125.8 C306.4,121.7 308.6,117.7 310.7,113.9 C312.8,110 314.6,106.6 316.2,103.4 C316.885714,102.071429 317.479592,100.889796 317.997376,99.855102 L318.490379,98.8693878 C318.640799,98.5688292 318.783925,98.283398 318.920277,98.013094 L319,98.2 C318.5,97.1 318.2,95.8 318,94.4 C317.8,93 317.7,91.4 317.7,89.9 C317.7,86.8 318.1,83.8 318.8,80.8 C319.5,77.8 320.5,75.2 321.7,72.8 C322.9,70.4 324.3,68.5 325.7,67.1 C327.2,65.7 328.7,64.9 330.3,64.9 C331.7,64.9 333.4,65.1 335.3,65.4 C337.3,65.7 339.1,66.2 340.8,66.9 C342.5,67.6 344,68.5 345.2,69.7 C346.4,70.9 347,72.3 347,74 C347,75.5 346.6,77 345.7,78.7 C344.9,80.3 343.9,82.1 342.9,84.1 C341.6,86.2 340.4,88.5 339.3,90.9 C338.2,93.3 337.7,95.5 337.7,97.7 C337.7,99.3 337.9,100.7 338.3,101.8 C338.7,103 339.3,103.9 340,104.7 C340.7,105.5 341.5,106.2 342.3,106.7 C343.1,107.3 343.9,107.8 344.7,108.2 C346.3,109 347.6,109.9 348.6,110.8 C349.6,111.7 350.1,113 350.1,114.8 C350.1,115.9 349.6,117.6 348.7,119.8 C347.8,122 346.7,124.4 345.4,127.1 C344.6,129 343.7,130.9 342.8,133 C341.9,135.1 341,137.1 340.3,139.1 C339.6,141.1 338.9,142.9 338.4,144.7 C337.9,146.5 337.6,148 337.6,149.2 C337.6,150.2 337.8,150.7 338.3,150.7 C339.7,150.7 341.4,149.6 343.5,147.5 C345.5,145.4 347.7,142.6 350.1,139.3 C352.4,136 354.8,132.2 357.1,128.1 C358.866083,125.082941 360.523867,122.120032 362.153044,119.211273 C362.457239,118.454902 362.773282,117.684123 363.1,116.9 C365.1,112.1 367.4,106.9 369.9,101.4 C372.5,95.9 375,90.3 377.6,84.7 L380.5,78.4 C376.4,77.8 372.8,76.9 369.6,76 C366.4,75.1 363.7,74 361.5,73 C359.3,72 357.6,71 356.5,70 C355.3,69 354.8,68.3 354.8,67.7 C354.8,66.4 355,65.4 355.4,64.8 C355.8,64.2 356.4,63.8 357.3,63.7 C358.1,63.6 359.2,63.6 360.5,63.9 C361.8,64.2 363.4,64.5 365.2,64.9 C367.3,65.4 370.1,65.9 373.4,66.5 C376.7,67.1 380.7,67.6 385.3,68.1 C388.6,60.8 391.4,54.4 393.6,48.8 C395.8,43.2 396.9,39.2 396.9,36.9 C396.9,35.4 397.8,34.8 399.7,34.9 C401.6,35.1 403.6,35.8 405.9,37 C408.2,38.2 410.2,39.8 412.1,41.7 C414,43.7 414.9,45.6 414.9,47.6 C414.9,49.7 414.3,52.6 413,56.3 C411.7,60 410,64.2 407.9,68.9 C413.4,68.7 418.3,68.3 422.6,67.5 C426.9,66.8 430.4,66 433.1,65.3 L433,65.4 C436,64.7 438.3,64.4 440,64.5 C442.1,64.8 442.9,65.7 442.9,67.5 C442.9,68.2 442.1,69.3 440.6,70.7 C439.1,72.1 436.7,73.5 433.5,74.8 C430.3,76.1 426.2,77.3 421.2,78.4 C416.2,79.4 410.2,79.9 403.3,79.9 C402.5,81.8 401.6,83.6 400.7,85.5 C399.8,87.4 398.9,89.2 398,91.1 C395.5,96.4 393,101.8 390.5,107.2 C388,112.6 385.7,117.8 383.7,122.6 C381.7,127.4 380.1,131.9 378.8,135.8 C377.5,139.8 376.9,143.1 376.9,145.6 C376.9,147.8 377.6,148.9 379,148.9 C381.6,148.9 384.4,147.8 387.4,145.7 C390.4,143.6 393.5,140.8 396.5,137.5 C399.6,134.2 402.6,130.5 405.6,126.4 C408.6,122.4 411.4,118.4 413.8,114.6 C416.3,110.8 418.4,107.3 420.1,104.2 C421.9,101.1 423.1,98.8 423.9,97.3 C424.3,96.7 425,96.3 426,96.3 C427,96.3 428.1,96.5 429.1,96.9 C430.2,97.3 431.1,97.9 431.7,98.6 C432.4,99.3 432.6,100 432.3,100.8 C431.4,102.7 429.9,105.4 427.9,109.1 C425.9,112.8 423.5,116.8 420.6,121.3 C417.7,125.8 414.5,130.3 411,134.9 C407.5,139.5 403.7,143.7 399.8,147.5 C395.9,151.3 391.9,154.4 387.7,156.8 C383.6,159.2 379.4,160.4 375.4,160.4 C373.7,160.4 371.8,159.9 369.6,158.9 C367.4,157.9 365.3,156.5 363.4,154.6 C361.4,152.7 359.8,150.5 358.5,147.8 C357.920333,146.596077 357.459962,145.312625 357.12775,143.949642 C356.20153,145.207175 355.260362,146.422782 354.3,147.6 C351.3,151.4 348.2,154.5 345.2,156.9 C342.1,159.3 339.2,160.5 336.6,160.5 C333.9,160.5 331.5,160 329.3,159 C327.2,158 325.3,156.7 323.8,155.1 C322.3,153.5 321.1,151.7 320.2,149.7 C319.4,147.7 318.9,145.6 318.9,143.4 C318.9,140.7 319.5,137.5 320.6,133.7 C321.7,129.9 322.9,126.3 324.2,122.9 C325.8,118.9 327.6,114.8 329.6,110.5 C328.9,110 328.1,109.5 327.3,109 C326.5,108.4 325.7,107.8 324.9,107 C324.2,108.5 323.3,110.1 322.5,111.8 C321.6,113.5 320.2,116 318.4,119.1 C318.324444,119.232222 318.238185,119.346605 318.141222,119.444496 C317.929886,119.82516 317.716063,120.211086 317.5,120.6 C315,125.1 312.3,129.6 309.3,134.3 C306.4,139 303.4,143.2 300.4,147.1 C297.4,150.9 294.4,154.1 291.6,156.5 C288.7,159 286.1,160.2 283.7,160.2 C281,160.2 278.7,159.5 276.7,158.2 C274.7,156.9 273,155.4 271.6,153.8 C269.9,151.9 268.5,149.8 267.4,147.2 C266.3,148.5 265,149.9 263.5,151.4 C262,152.9 260.4,154.3 258.7,155.6 C257,156.9 255.2,158 253.3,158.9 C251.4,159.8 249.5,160.2 247.7,160.2 C244.1,160.2 240.9,159.4 238.1,157.8 C235.4,156.2 233.1,154 231.2,151.4 C229.3,148.7 227.9,145.8 226.9,142.5 C226.380188,140.767293 225.99381,138.967868 225.760134,137.120993 C222.756029,140.861296 219.563016,144.320652 216.3,147.5 C212.4,151.3 208.4,154.4 204.2,156.8 C200.1,159.2 195.9,160.4 191.9,160.4 C190.2,160.4 188.3,159.9 186.1,158.9 C183.9,157.9 181.8,156.5 179.9,154.6 C177.9,152.7 176.3,150.5 175,147.8 C173.7,145.1 173,142 173,138.5 C173,136.5 173.6,133.5 174.8,129.8 C176,126 177.6,121.7 179.6,116.9 C181.6,112.1 183.9,106.9 186.4,101.4 C189,95.9 191.5,90.3 194.1,84.7 L197,78.4 C192.9,77.8 189.3,76.9 186.1,76 C182.9,75 180.2,74 178,73 C177.544392,72.7929054 177.110228,72.5858108 176.698396,72.3787162 C175.992581,73.5123474 175.258745,74.6530602 174.5,75.8 C170.1,82.3 165.3,88.6 159.9,94.8 C154.5,101 149,106.5 143.6,111.4 C138.1,116.3 132.9,120.2 127.8,123.2 C122.8,126.2 118.5,127.7 115,127.7 C113.7,127.7 112.1,127 110.2,125.6 C108.3,124.2 106.5,122.5 104.8,120.5 C103.1,118.5 101.6,116.4 100.4,114.3 C99.2,112.2 98.6,110.3 98.6,108.7 C98.6,107 99.1,105.6 100.1,104.5 C101.1,103.4 102.7,102.8 104.8,102.8 C106.3,102.8 108.8,101.5 112.4,99 C116,96.5 120.1,93.2 124.7,89.1 C129.3,85 134,80.3 138.9,75.1 C143.8,69.9 148.3,64.5 152.4,59.1 C156.4,53.7 159.8,48.4 162.4,43.2 C165.1,38 166.4,33.4 166.4,29.4 C166.4,23.2 164.6,18.6 161.1,15.7 C157.5,12.8 153.1,11.3 147.6,11.3 C136.1,11.3 125.3,13.2 115.1,17 C104.9,20.8 95.5,25.7 86.9,31.7 C78.3,37.7 70.6,44.4 63.8,51.8 C57,59.2 51.2,66.5 46.5,73.7 C41.8,80.9 38.1,87.5 35.6,93.6 C33.1,99.7 31.8,104.5 31.8,107.9 C31.8,112.5 33.6,116.2 37.1,119.1 C40.7,121.9 45.3,124.3 51.1,126.1 C56.9,127.9 63.4,129.4 70.8,130.3 C78.1,131.3 85.6,132.2 93.1,133.1 C100.7,133.9 108.1,134.9 115.3,135.9 C122.5,136.9 128.9,138.4 134.5,140.2 C140.1,142 144.6,144.5 148,147.5 C151.4,150.5 153.1,154.5 153.1,159.3 C153.1,164.1 151.7,169 148.8,174 C145.9,179 142.1,183.8 137.3,188.4 C132.5,193 127,197.4 120.8,201.5 C114.6,205.6 108.2,209.2 101.6,212.2 C95,215.2 88.5,217.6 81.9,219.4 C75.4,221.1 69.4,222 64,222 C57.4,222 52.1,220.6 48.2,217.7 C44.2,214.8 41.1,211.5 39,207.7 C36.8,203.9 35.4,200.2 34.7,196.7 C34,193.1 33.7,190.6 33.7,189.1 C33.7,186.8 34.4,185.1 35.7,183.9 C37,182.7 38.5,182.2 40.1,182.2 C41.8,182.2 43.3,182.8 44.6,183.9 C45.9,185.1 46.6,186.8 46.6,189.1 C46.6,190.1 46.7,191.2 46.9,192.4 C47.1,193.6 47.6,194.6 48.5,195.6 C49.3,196.6 50.7,197.4 52.5,198 C54.3,198.6 56.7,198.9 59.8,198.9 C62.6,198.9 66.2,198.1 70.8,196.6 C75.4,195.1 80.2,193.1 85.4,190.7 C90.6,188.3 95.9,185.5 101.2,182.4 C106.5,179.3 111.3,176.2 115.5,173.2 C119.7,170.2 123.2,167.2 125.9,164.4 C128.7,161.9 130.1,159.5 130.1,157.6 C130.1,156.9 129.2,156.2 127.6,155.6 C125.9,155 123.5,154.4 120.5,153.9 C117.5,153.4 113.9,153 109.8,152.6 C105.7,152.2 101.3,151.8 96.5,151.3 C89.9,150.7 83,150 75.6,149.2 C68.3,148.4 61,147.3 53.9,145.9 C46.7,144.5 39.9,142.6 33.4,140.3 C26.9,138 21.1,135.1 16.2,131.5 C11.3,127.9 7.3,123.6 4.4,118.4 C1.5,113.3 0,107.1 0,100 C0,94 1.9,87.4 5.7,80.1 C9.5,72.8 14.8,65.5 21.5,58.1 C28.2,50.7 36.2,43.5 45.4,36.5 C54.6,29.5 64.5,23.3 75.3,17.9 C86,12.5 97.3,8.2 109.1,4.9 C120.9,1.7 132.7,0 144.6,0 Z" id="Combined-Shape"></path>
            </g>
            <g id="Group" transform="translate(0.000000, 172.500000)" fill="#00A3BE">
                <path d="M357.9,7.8 L357.9,19.5 L368.6,19.5 L368.6,29.2 L357.8,29.2 L357.8,42.3 C357.8,43.4 357.9,44.4 358,45.3 C358.1,46.2 358.4,47 358.7,47.6 C359.1,48.2 359.7,48.7 360.4,49.1 C361.2,49.5 362.2,49.6 363.5,49.6 C364.1,49.6 365,49.5 366.1,49.4 C367.2,49.3 368,49 368.5,48.5 L368.5,58.6 C367.1,59.1 365.7,59.4 364.3,59.6 C362.8,59.8 361.4,59.8 360,59.8 C357.9,59.8 356.1,59.6 354.3,59.2 C352.6,58.8 351.1,58.1 349.8,57.1 C348.5,56.2 347.5,54.9 346.8,53.4 C346.1,51.9 345.7,50 345.7,47.9 L345.7,29.2 L337.9,29.2 L337.9,19.5 L345.7,19.5 L345.7,7.8 L357.9,7.8 Z M261.3,19.5 L269.3,44.2 L269.5,44.2 L276.2,19.5 L289.5,19.5 L296.8,44.2 L297,44.2 L304.4,19.5 L316.7,19.5 L302.7,58.9 L290.7,58.9 L282.5,32.7 L282.3,32.7 L275,58.9 L262.8,58.9 L248.3,19.5 L261.3,19.5 Z M332.9,19.5 L332.9,58.9 L320.7,58.9 L320.7,19.5 L332.9,19.5 Z M386.9,7 L386.9,24.9 L387.1,24.9 C387.4,24.1 387.8,23.4 388.5,22.6 C389.1,21.8 389.9,21.2 390.9,20.6 C391.8,20 392.9,19.5 394.1,19.1 C395.3,18.7 396.7,18.5 398.2,18.5 C401.3,18.5 403.8,19 405.7,19.9 C407.6,20.8 409.1,22.2 410.1,23.8 C411.2,25.5 411.9,27.5 412.2,29.7 C412.6,32 412.8,34.4 412.8,37.1 L412.8,58.8 L400.6,58.8 L400.6,39.5 C400.6,38.4 400.6,37.2 400.5,36 C400.4,34.8 400.2,33.7 399.8,32.6 C399.4,31.6 398.8,30.7 397.9,30.1 C397.1,29.5 395.9,29.1 394.3,29.1 C392.7,29.1 391.5,29.4 390.5,30 C389.5,30.6 388.8,31.3 388.3,32.3 C387.8,33.2 387.4,34.3 387.3,35.5 C387.1,36.7 387.1,37.9 387.1,39.2 L387.1,58.8 L374.9,58.8 L374.9,7 L386.9,7 Z M326.9,0 C328.8,0 330.5,0.7 331.9,2.1 C333.3,3.5 334,5.1 334,7.1 C334,9 333.3,10.7 331.9,12.1 C330.5,13.5 328.9,14.2 326.9,14.2 C325,14.2 323.3,13.5 321.9,12.1 C320.5,10.7 319.8,9 319.8,7.1 C319.8,5.2 320.5,3.5 321.9,2.1 C323.3,0.7 324.9,0 326.9,0 Z" id="Combined-Shape"></path>
                <path d="M259.2,68.8 C261.2,69 263.5,69.7 266,70.9 C268.5,72.1 270.8,73.7 272.8,75.5 C274.8,77.4 275.9,79.3 275.9,81.2 C275.9,83.6 275.2,86.7 273.9,90.6 C272.5,94.5 270.8,98.8 268.7,103.6 C266.6,108.4 264.2,113.5 261.4,119 C258.7,124.5 255.9,130 253.2,135.5 L252.1,137.6 L252.1,137.7 C254.8,134.3 257.6,131 260.4,127.8 C263.2,124.6 265.9,121.7 268.3,119.1 C270.8,116.5 273,114.4 274.9,112.7 C276.8,111.1 278.3,110.1 279.3,110 C280.4,109.9 281.7,110.3 283.3,111.2 C284.8,112.1 286.4,113.3 287.8,114.7 C289.3,116.1 290.5,117.7 291.6,119.6 C292.6,121.4 293.2,123.2 293.2,125.1 C293.2,126.5 292.4,128.8 290.9,132.1 C289.3,135.4 287.5,139.3 285.4,143.8 C283.8,147 282.2,150.3 280.5,153.8 C278.8,157.3 277.3,160.6 275.9,163.9 C274.5,167.2 273.4,170.2 272.5,172.9 C271.6,175.6 271.2,177.8 271.2,179.5 L271.2,180.5 C271.2,180.7 271.2,180.8 271.3,180.8 C272.7,180.8 274.5,179.8 276.7,177.7 C278.9,175.6 281.4,172.9 284,169.6 C286.6,166.3 289.4,162.7 292.1,158.7 C294.9,154.7 297.5,150.9 299.9,147.1 C302.3,143.3 304.4,139.9 306.2,136.9 C307.9,133.6 309.2,131.4 309.9,129.9 C309.943487,129.823897 309.990521,129.75134 310.0411,129.682457 C315.155821,118.848693 317.652967,106.334197 313.9,94.7 C313.8,94.3 313.6,93.8 313.7,93.4 C313.8,92.9 314.2,92.5 314.7,92.2 C318.6,89.3 325.8,89.4 329.6,92.3 C338.3,99 339.4,109.7 336.3,119.7 C332.8,131.1 327.9,143.1 322.4,153.7 C321.5,155.5 320.6,157.25 319.7,158.9875 L317.9,162.456944 C317.6,163.036111 317.3,163.616667 317,164.2 C315.2,167.6 313.7,170.7 312.3,173.4 C310.9,176.1 309.9,178.3 309.1,180 C308.3,181.7 308.1,182.5 308.3,182.5 C308.9,182.5 310.1,181.6 311.9,179.8 C313.6,178 315.7,175.7 318,172.9 C320.3,170.1 322.8,166.9 325.5,163.3 C328.2,159.7 330.8,156.2 333.4,152.6 C336,149 338.4,145.6 340.7,142.4 C343,139.2 344.8,136.5 346.3,134.3 C348.1,129.5 349.6,125.6 350.7,122.7 C351.8,119.8 352.4,118.1 352.4,117.8 C352.4,115 352.9,112.9 353.9,111.7 C354.9,110.5 356.3,109.9 358.1,109.9 C359.4,109.9 360.8,110.4 362.4,111.5 C364,112.5 365.5,113.8 366.9,115.4 C368.3,117 369.5,118.7 370.5,120.5 C371.5,122.4 371.9,124.1 371.9,125.8 C371.9,126.8 371.6,128.5 370.9,130.9 C370.2,133.3 369.3,136.1 368.1,139.4 C366.9,142.7 365.5,146.4 363.9,150.5 C362.3,154.6 360.6,158.7 358.8,162.9 C365.6,157.3 371.6,151.9 376.6,146.6 C381.391667,141.520833 385.264931,136.166146 388.131778,130.711965 L388.447,130.099685 L388.4,130.1 C389.3,128.5 390.4,127.4 391.6,126.9 C392.8,126.4 394,126.3 395,126.7 C396,127.1 396.8,127.9 397.2,129.1 C397.6,130.3 397.4,131.8 396.7,133.5 C395.1,137.2 392.7,141.1 389.5,145.1 C386.4,149.1 382.7,153.2 378.6,157.3 C374.5,161.4 370,165.5 365.1,169.6 C360.2,173.7 355.2,177.8 350,181.9 C346,190.1 341.7,198.2 337.1,206.3 C332.5,214.4 327.9,221.6 323.2,228 C318.6,234.4 314,239.6 309.5,243.6 C305,247.6 300.8,249.5 297,249.5 C292.9,249.5 289.5,249 286.8,247.9 C284.1,246.9 281.9,245.6 280.3,244 C278.7,242.4 277.6,240.8 277,239 C276.4,237.2 276,235.7 276,234.3 C276,231.7 277.2,228.8 279.5,225.7 C281.8,222.6 285,219.3 289,215.8 C293,212.3 297.6,208.6 302.9,204.7 C308.1,200.8 313.7,196.7 319.6,192.5 C320.7,190.4 321.6,188.8 322.3,187.6 C323,186.5 323.5,185.6 323.9,184.9 C324.3,184.2 324.7,183.6 324.9,183.1 C325.2,182.6 325.5,182 325.9,181.3 C326.3,180.6 326.7,179.7 327.2,178.5 C327.7,177.3 328.4,175.7 329.3,173.6 C327.2,176.2 325.1,178.5 323.1,180.8 C321.1,183 319.1,185 317.3,186.7 C315.5,188.4 313.8,189.7 312.2,190.7 C310.6,191.7 309.3,192.2 308.2,192.2 C306.1,192.2 304.1,191.5 302.3,190.2 C300.4,188.9 298.8,187.3 297.3,185.3 C295.8,183.4 294.7,181.3 293.9,179.1 C293.1,176.9 292.7,175 292.7,173.2 C292.7,172.921451 292.704966,172.641661 292.714759,172.360491 C290.823569,174.712589 288.911785,176.919529 287,179 C283.6,182.7 280.2,185.8 276.9,188.2 C273.6,190.6 270.6,191.8 268,191.8 C263.6,191.8 259.9,190.1 257,186.8 C254.1,183.5 252.7,179 252.7,173.3 C252.7,171.4 253.1,169 253.9,166.2 C254.7,163.4 255.7,160.3 257,157 C258.3,153.7 259.7,150.2 261.3,146.7 C262.9,143.1 264.4,139.6 266,136.2 C263,139.7 259.9,143.4 256.6,147.3 C253.3,151.3 250.2,155.2 247.3,159 C244.4,162.8 241.7,166.4 239.4,169.9 C237,173.3 235.3,176.3 234.2,178.7 C233.9,179.8 233.8,180.7 233.8,181.3 L234.1,182.4 C234.2,182.7 234.3,183 234.3,183.4 C234.3,183.8 234.4,184.1 234.5,184.4 L234.4,184.3 C234.7,185.4 234.9,186.4 235.1,187.3 C235.3,188.2 235.3,189 235.1,189.7 C234.9,190.4 234.5,190.9 233.8,191.3 C233.1,191.7 232,191.9 230.6,191.9 C228.8,191.9 226.9,191.5 225.1,190.6 C223.2,189.7 221.5,188.5 220,186.9 C218.5,185.3 217.2,183.4 216.2,181.2 C215.2,179 214.7,176.5 214.7,173.8 C214.7,171.5 215.3,168.5 216.5,164.8 C217.7,161.1 219.3,156.9 221.2,152.2 C223.2,147.6 225.4,142.6 227.9,137.3 C230.4,132 233,126.6 235.6,121.2 C238.2,115.9 240.7,110.7 243.1,105.5 C245.6,100.3 247.7,95.5 249.7,91 C251.6,86.5 253.2,82.5 254.3,79 C255.5,75.5 256.1,72.7 256.1,70.7 C256.1,69.2 257.1,68.6 259.2,68.8 Z M317.3,203.1 C312.5,206.7 307.9,210.2 303.7,213.5 C299.5,216.8 295.8,219.8 292.6,222.6 C289.5,225.4 287,227.9 285.2,230.1 C283.4,232.3 282.5,234.2 282.5,235.8 C282.5,237.3 283.1,238 284.5,238 C287,238 289.5,237.1 292.2,235.2 C294.9,233.3 297.6,230.8 300.5,227.7 C303.3,224.6 306.1,220.9 309,216.6 C311.8,212.4 314.6,207.9 317.3,203.1 Z M203.2,35 C201.1,27.1 196.6,6.1 211.5,10.4 C221.7,13.4 228.9,21.8 232.4,31.3 C236.557306,42.7556875 238.410186,55.0648659 237.800942,67.2024931 L237.8,67.1 C237.8,73.6 236.8,80.5 234.7,88 C232.7,95.5 229.8,103.1 226.2,110.8 C222.6,118.5 218.4,126.3 213.6,134 C208.8,141.7 203.6,149.2 198.1,156.3 C192.6,163.5 186.9,170.1 181,176.3 C175.1,182.5 169.3,187.9 163.5,192.5 C157.7,197.1 152.1,200.8 146.8,203.6 C141.4,206.4 136.6,207.9 132.2,208.2 C130.6,208.4 128.9,208 126.8,207 C124.7,206 122.8,204.5 120.9,202.4 C119,200.3 117.4,197.5 116.1,194.1 C114.8,190.7 114.1,186.7 114.1,181.9 C114.1,179.4 114.4,176.8 115.1,174.1 C115.8,171.4 116.7,168.5 117.9,165.6 C119.1,162.7 120.4,159.7 121.9,156.6 C123.4,153.5 124.9,150.5 126.5,147.4 C122.1,153.7 117.5,160.2 112.6,166.9 C107.7,173.6 102.8,179.8 98,185.5 C93.2,191.2 88.7,196.1 84.5,200.1 C80.3,204.2 76.6,206.6 73.6,207.5 L74,207.4 C72.7,208.1 70.9,208.2 68.7,207.5 C66.4,206.9 64.2,205.5 61.9,203.5 C59.7,201.5 57.7,198.6 56.1,195.1 C54.5,191.5 53.6,187.1 53.6,181.8 C53.6,179.3 54.2,176.1 55.3,172.3 C56.4,168.5 58,164.4 59.9,159.9 C61.8,155.4 64,150.6 66.5,145.6 C69,140.5 71.5,135.4 74.2,130.1 C76.8,124.6 79.3,119.2 82.1,113.8 C84.2,109.8 85.4,107.5 86.9,104.1 C89,99.3 90.6,94.9 91.9,90.8 C93.2,86.8 93.8,83.4 93.8,80.7 C93.8,77.2 92.4,75.5 89.6,75.5 C85.2,75.5 80.6,76.8 75.7,79.5 C70.8,82.1 65.9,85.7 61,90 C56.1,94.4 51.5,99.3 47,104.9 C42.5,110.5 38.6,116.2 35.2,122 C31.8,127.8 29.1,133.5 27,139.2 C25,144.8 23.9,149.8 23.9,154.3 C23.9,158.7 24.1,162.3 24.5,165.3 C24.9,168.3 25.4,170.7 26,172.7 C26.6,174.7 27.2,176.2 27.9,177.3 C28.6,178.4 29.2,179.4 29.7,180.1 C30.2,180.8 30.6,181.5 31,182 C31.4,182.5 31.6,183.3 31.6,184.3 C31.6,185.4 31,186.3 29.9,187.2 C28.8,188 27.2,188.4 25.2,188.4 C23.2,188.4 20.8,187.9 17.9,186.8 C15,185.8 12.3,183.8 9.6,181 C7,178.2 4.7,174.3 2.8,169.4 C0.9,164.5 0,158.1 0,150.4 C0,143.9 1.3,137.4 3.8,130.7 C6.3,124 9.7,117.6 14.1,111.4 C18.5,105.2 23.6,99.4 29.6,94 C35.6,88.6 42,83.9 48.9,79.9 C55.8,75.9 63,72.7 70.6,70.4 C78.2,68.1 85.7,66.9 93.3,66.9 C96.7,66.9 99.5,67.4 101.8,68.5 C104.1,69.5 106,70.9 107.5,72.6 C109,74.3 110,76.1 110.8,78.1 C111.5,80.1 112.1,82.1 112.4,84 C112.7,86 112.9,87.8 112.9,89.4 C112.9,91 113,92.3 113,93.1 C113,96.7 112.3,100.6 111,105 C109.7,109.4 110.1,108.3 108,113.2 C105.9,118.1 103.6,123 101,128 C98.4,133 95.8,137.9 93.3,142.6 C90.9,146.9 88.6,151.3 86.3,155.7 C84,160.2 82,164.4 80.2,168.5 C78.4,172.6 76.9,176.4 75.8,180 C74.7,183.6 74.1,186.6 74.1,189.2 L74.100463,189.967593 C74.1027778,191.194444 74.1166667,192.166667 74.2,193 C74.3,194 74.4,194.8 74.6,195.4 C76.7,193.7 79.2,191 82.3,187.5 C85.3,184 88.6,180 92.1,175.6 C95.6,171.2 99.3,166.4 103,161.3 C106.8,156.2 110.5,151.1 114.1,146.1 C122.6,134.3 131.5,121.5 141,107.6 L141,107.1 C140.8,106 140.7,105 140.7,104.2 C140.7,103.3 140.8,102.6 141.2,102.1 C141.6,101.6 142.2,101.1 143.2,100.9 C144.2,100.6 145.6,100.5 147.5,100.5 C149.1,100.5 150.8,100.8 152.4,101.5 C154,102.2 155.4,103.1 156.6,104.4 C157.8,105.6 158.8,107.1 159.6,108.8 C160.4,110.5 160.8,112.3 160.8,114.3 C160.8,117.9 160.4,121.5 159.6,125.1 C158.8,128.7 157.7,132.1 156.4,135.6 C155.1,139 153.6,142.4 151.9,145.6 C150.2,148.9 148.5,152.2 146.8,155.4 C145.2,158.3 143.7,161.2 142.3,164.1 C140.8,167 139.5,169.9 138.4,172.7 C137.3,175.5 136.3,178.3 135.7,181 C135.1,183.7 134.7,186.5 134.7,189.2 C134.7,191.8 134.8,193.7 135.1,194.9 C135.4,196 135.7,196.9 136.1,197.6 C138.4,197.1 141.2,195.6 144.6,192.9 C148,190.2 151.7,186.7 155.7,182.3 C159.7,177.9 163.9,172.9 168.2,167.1 C172.5,161.4 176.8,155.2 180.9,148.6 C185,142 189,135.1 192.7,128 C195.152654,123.227268 197.429545,118.498476 199.501544,113.755371 L199.4,113.6 C199.4,113.6 199.45508,113.47184 199.556146,113.221611 L199.672205,112.930918 C201.67648,107.85664 213.78,74.56 203.2,35 Z M410,159.6 C412.3,160.4 414.4,161.4 416.3,162.8 C418.2,164.1 419.7,165.7 421,167.6 C422.2,169.5 423,171.3 423.2,173.1 C423.4,174.9 423.1,176.9 422.3,179.1 C421.5,181.3 420.5,183.7 419.2,186.2 C418,188.8 416.8,191.5 415.8,194.2 C414.8,196.9 414.4,199.2 414.6,201.1 C414.9,203.7 413.7,205.2 410.9,205.6 C408.2,206 405.1,205.7 401.7,204.6 C398.3,203.6 395.1,202.1 392.1,200 C389.1,198 387.5,195.9 387.3,193.9 C387,191.6 387.5,188.4 388.5,184.5 C389.6,180.6 391,176.7 392.6,173 C394.3,169.3 396.1,166 398,163.2 C400,160.4 401.6,158.9 403,158.8 C405.3,158.5 407.7,158.8 410,159.6 Z M445.8,15.5 C448.8,15.5 452.2,16.3 455.9,17.7 C459.7,19.2 463.2,21.2 466.5,23.7 C469.8,26.3 471.6,29.2 471.9,32.5 C472.1,34.6 471.8,37.3 470.8,40.8 C469.9,44.3 468.5,48.3 466.7,52.7 C464.9,57.1 462.8,61.9 460.5,67.1 C458.2,72.3 455.8,77.7 453.3,83.2 C450.3,89.8 447.3,96.4 444.4,103.1 C441.5,109.8 438.9,116.2 436.6,122.3 C434.4,128.4 432.6,133.9 431.3,138.9 C430,143.9 429.5,148.1 429.9,151.3 C430.1,153.1 428.9,153.9 426.3,153.8 C423.7,153.7 420.8,152.8 417.7,151.3 C414.5,149.8 411.5,147.6 408.7,144.9 C405.8,142.2 404.2,139.1 403.8,135.9 C403.5,133.4 403.8,130.3 404.7,126.5 C405.6,122.7 406.9,118.5 408.5,113.8 C410.1,109.1 412.1,104.1 414.3,98.8 C416.6,93.5 418.9,88 421.3,82.3 C423.9,76 426.5,69.8 429.1,63.5 C431.7,57.2 433.9,51.3 435.9,45.6 C437.8,39.9 439.3,34.7 440.4,29.9 C441.6,25.2 441.9,21.3 441.6,18.1 C441.4,16.3 442.8,15.4 445.8,15.5 Z" id="Combined-Shape"></path>
            </g>
        </g>
    </g>
</svg>